<svg width="160" height="160" viewBox="0 0 160 160" xmlns="http://www.w3.org/2000/svg" xmlns:xlink="http://www.w3.org/1999/xlink">
    <defs>
        <path id="0vdc9hz2sd" d="M0 144h123.344V0H0z"/>
        <path id="itt2rs68hf" d="M0 0h33.178v31.85H0z"/>
        <path id="fr8t6or5sh" d="M0 0h26.2v23.874H0z"/>
        <filter x="-12.5%" y="-12.5%" width="125%" height="125%" filterUnits="objectBoundingBox" id="ilxxtoai8a">
            <feOffset dy="5" in="SourceAlpha" result="shadowOffsetOuter1"/>
            <feGaussianBlur stdDeviation="2.5" in="shadowOffsetOuter1" result="shadowBlurOuter1"/>
            <feColorMatrix values="0 0 0 0 0 0 0 0 0 0 0 0 0 0 0 0 0 0 0.2 0" in="shadowBlurOuter1" result="shadowMatrixOuter1"/>
            <feMerge>
                <feMergeNode in="shadowMatrixOuter1"/>
                <feMergeNode in="SourceGraphic"/>
            </feMerge>
        </filter>
        <circle id="xs5x8bb5lb" cx="72" cy="72" r="72"/>
    </defs>
    <g filter="url(#ilxxtoai8a)" fill="none" fill-rule="evenodd">
        <g transform="translate(8)">
            <mask id="zl32wmtfgc" fill="#fff">
                <use xlink:href="#xs5x8bb5lb"/>
            </mask>
            <circle stroke="#D35C9D" stroke-width="2" cx="72" cy="72" r="71"/>
            <g mask="url(#zl32wmtfgc)">
                <path fill="#EEE" d="M127.047 79.727h-15.904l-2.91-29.62h21.917z"/>
                <g transform="translate(14.4 6.4)">
                    <path d="M116.137 41.314c0 .9-2.096 1.628-3.006 1.628H96.453c-.911 0-3.008-.729-3.008-1.628l1.359-2.39c0-.898.738-1.627 1.649-1.627h16.678c.91 0 1.649.73 1.649 1.627l1.357 2.39z" fill="#ECECEC"/>
                    <mask id="id1o5yc7ye" fill="#fff">
                        <use xlink:href="#0vdc9hz2sd"/>
                    </mask>
                    <path fill="#F6F6F7" mask="url(#id1o5yc7ye)" d="M91.895 43.994h25.794v-2.775H91.895z"/>
                    <path fill="#8C534A" mask="url(#id1o5yc7ye)" d="m115.377 50.18-1.741 15.302H95.889L94.266 50.18z"/>
                    <path d="M107.727 58.71c-.822 2.477-2.787 4.066-4.388 3.548-1.603-.518-2.232-2.945-1.407-5.423.824-2.477 2.787-4.066 4.389-3.548 1.601.518 2.232 2.945 1.406 5.423" fill="#8BB0A7" mask="url(#id1o5yc7ye)"/>
                    <path fill="#231916" mask="url(#id1o5yc7ye)" d="m103.603 62.27-.4-.128 2.962-8.91.4.13z"/>
                    <path d="M107.351 8.778c.988-.004 3.216 1.733 3.76 2.258 3.673 3.528 2.897 7.472-1.571 10.723-2.39 1.74-4.123 2.925-4.355 5.162-.141 1.356.466 2.633 1.078 3.846.82 1.623-1.307.463-2.208-.139-3.594-2.4-4.38-6.166-1.324-8.911 1.351-1.214 3.757-2.143 5.11-3.585 2.635-2.801 1.658-5.682-.235-8.41-.165-.24-.725-.943-.255-.944" fill="#D8D8D9" mask="url(#id1o5yc7ye)"/>
                    <path d="M53.686 58.537c0 5.26-4.371 9.524-9.764 9.524-5.392 0-9.763-4.264-9.763-9.524 0-5.26 4.371-9.524 9.763-9.524 5.393 0 9.764 4.264 9.764 9.524" fill="#462C5F" mask="url(#id1o5yc7ye)"/>
                    <path d="M53.712 58.534c0 5.263-4.374 9.528-9.77 9.528a9.834 9.834 0 0 1-8.342-4.57 9.859 9.859 0 0 0 5.302 1.53c5.395 0 9.761-4.266 9.761-9.529a9.343 9.343 0 0 0-1.418-4.95c2.69 1.691 4.467 4.638 4.467 7.991" fill="#462C5F" mask="url(#id1o5yc7ye)"/>
                    <path d="m70.73 65.01 13.846 5.729 2.066 19.119 1.707 4.07a24.306 24.306 0 0 1 .583 17.271l-2.445 7.142L82.957 144l-51.65-.862-7.117-72.4 25.202-7.009 21.338 1.28z" fill="#FFF" mask="url(#id1o5yc7ye)"/>
                    <path d="m121.534 80.523 1.784-19.887a3.29 3.29 0 0 0-1.042-2.836l-7.919-6.63a1.087 1.087 0 0 0-1.4.001c-.419.356-.8.842-.53 1.3.512.864 4.822 4.585 4.822 4.585s1.836 2.306 1.614 2.719c-.222.412-.472.663-.472.663l-1.078-2.072a1.42 1.42 0 0 0-.644-.624l-5.475-2.634s-2.525-.734-1.825 1.966c0 0-2.12-.87-2.458 2.158 0 0-1.743.01-1.81 1.674-.068 1.664 3.385 4.333 3.385 4.333s-.757 9.093 4.704 14.758l8.344.526z" fill="#FAD9C7" mask="url(#id1o5yc7ye)"/>
                    <path d="m121.532 80.526-3.482 11.757-11.042 37.242c-1.513 5.035-6.091 8.334-10.852 8.334-1.163 0-2.343-.2-3.49-.615-5.908-2.152-10.386-8.866-7.345-14.807l21.08-34.1 5.833-9.44h.009l9.29 1.629z" fill="#FAD9C7" mask="url(#id1o5yc7ye)"/>
                    <path d="m120.334 93.057-13.326 36.468c-1.513 5.035-6.091 8.334-10.852 8.334-1.163 0-2.343-.2-3.49-.615-5.908-2.152-10.386-8.866-7.345-14.807l21.08-34.1 13.933 4.72zM24.19 70.739s-9.12 2.796-9.424 4.88l10.283 46.126 4.42-17.108-5.28-33.898z" fill="#FFF" mask="url(#id1o5yc7ye)"/>
                    <path d="M46.693 12.166 35.1 34.092s1.48 5.265 4.024 9.65c1.612 2.776 4.24 4.824 7.299 5.797 2.558.813 7.362 2.65 10.233 2.912 5.276.48 22.37-11.419 23.703-21.74C81.692 20.387 69.547 8.534 69.547 8.534s-22.854 3.631-22.895 3.7" fill="#462C5F" mask="url(#id1o5yc7ye)"/>
                    <path d="m69.33 53.398.51 11.965c.145.954-.245 1.908-1.006 2.424-9.52 6.465-18.568.53-20.696-1.066-.305-.224 1.373-23.545 1.373-23.545l.387.2L69.33 53.397z" fill="#FAD9C7" mask="url(#id1o5yc7ye)"/>
                    <path d="m69.33 53.4.51 11.966c-.587.143-1.182.247-1.797.316-8.852.99-17.023-6.408-18.241-16.529a20.717 20.717 0 0 1 .1-5.774L69.329 53.4z" fill="#F4AF90" mask="url(#id1o5yc7ye)"/>
                    <path d="M44.27 32.648a4.252 4.252 0 1 0 5.35 6.611 4.252 4.252 0 0 0-5.35-6.61" fill="#FAD9C7" mask="url(#id1o5yc7ye)"/>
                    <path d="M48.432 35.465s-1.576-2.172-4.145-.757" stroke="#462C5F" stroke-width="1.03" mask="url(#id1o5yc7ye)"/>
                    <path d="M65.576 56.34c8.292 0 15.075-6.783 15.075-15.074V26.492c0-6.453-6.26-16.26-12.713-16.26 0 0-19.2 9.807-19.2 16.26v13.01c0 9.3 7.539 16.839 16.838 16.839" fill="#FAD9C7" mask="url(#id1o5yc7ye)"/>
                    <path d="M62.277 30.939c-.053-.974-.861-1.718-1.804-1.663-.944.056-1.664.89-1.61 1.863.053.973.86 1.718 1.804 1.662.943-.055 1.664-.889 1.61-1.862M78.395 30.939c-.054-.974-.862-1.718-1.805-1.663-.943.056-1.664.89-1.61 1.863.053.973.861 1.718 1.804 1.662.943-.055 1.664-.889 1.61-1.862" fill="#231916" mask="url(#id1o5yc7ye)"/>
                    <path d="M57.153 35.927c-.009 1.108 1.43 2.019 3.214 2.033 1.784.015 3.237-.872 3.245-1.98.009-1.107-1.43-2.018-3.214-2.032-1.784-.015-3.237.871-3.245 1.98M72.914 35.927c-.008 1.108 1.43 2.019 3.215 2.033 1.783.015 3.237-.872 3.245-1.98.009-1.107-1.43-2.018-3.214-2.032-1.784-.015-3.237.871-3.246 1.98" fill="#F4AF90" mask="url(#id1o5yc7ye)"/>
                    <path d="M71.706 28.32s-1.139 4.461 0 5.893m-7.923 7.195s6.053 3.563 10.781-.343" stroke="#462C5F" stroke-width="1.442" mask="url(#id1o5yc7ye)"/>
                    <path d="M68.28 10.968s-9.044 13.224-18.294 17.13c-9.25 3.905-15.759 10.962-7.948 18.91 0 0-9.044-5.207-9.182-12.539C32.72 27.138 34.16-.407 56.632.005c19.048.822 21.766 12.47 21.766 12.47s9.89 8.976 2.254 17.809c0 0-.338-8.919-4.835-11.574-4.497-2.655-7.537-7.742-7.537-7.742" fill="#462C5F" mask="url(#id1o5yc7ye)"/>
                    <path d="M57.69 27.368s1.925-2.235 5.087-1.34m11.104-1.032s2.991-.835 4.297.82" stroke="#462C5F" stroke-width="1.442" mask="url(#id1o5yc7ye)"/>
                    <path fill="#FAD9C7" mask="url(#id1o5yc7ye)" d="m70.726 65.833-1.38 16.835-1.794 21.969-11.168-21.38-8.782-16.8z"/>
                    <path d="M19.083 50.177s-.02 7.077-2.032 7.403c-2.01.326-1.88-4.303-1.88-4.303l3.912-3.1z" fill="#F4AF90" mask="url(#id1o5yc7ye)"/>
                    <path d="M13.17 131.447h-.15c-6.14 0-11.143-5.5-10.877-11.998l1.346-29.34.989-21.712 9.314 1.504 4.056 18.147 7.112 31.808c.922 6.614-5.509 11.491-11.79 11.59" fill="#FAD9C7" mask="url(#id1o5yc7ye)"/>
                    <path d="M19.084 50.177c-.066-1.274-1.508-.944-1.508-.944-.203-1.826-1.883-1.695-1.883-1.695-.261-2.674-3-1.778-3-1.778.06-.453-.094-.819-.337-1.107-.59-.703-1.637-.811-2.428-.347l-6.802 3.987a3.486 3.486 0 0 0-1.666 3.635l3.017 16.466 9.316 1.51c4.557-5.284 3.008-16.08 3.008-16.08s2.348-2.373 2.283-3.647" fill="#FAD9C7" mask="url(#id1o5yc7ye)"/>
                    <path d="m84.576 70.739 7.81 3.114a9.978 9.978 0 0 1 6.17 7.772l3.685 24.308-10.212 22.228-6.849-.318-.604-57.104z" fill="#FFF" mask="url(#id1o5yc7ye)"/>
                    <path d="m43.908 71.885-4.664 9.923 13.085 13.325-3.288 8.475 9.54 5.621m16.972-38.001 6.98 8.456-9.57 14.581 5.286 7.394-5.693 6.981" stroke="#B53E7F" stroke-width="2" stroke-linecap="round" stroke-linejoin="round" mask="url(#id1o5yc7ye)"/>
                    <path fill="#D35C9D" mask="url(#id1o5yc7ye)" d="m69.347 82.667-1.795 21.97-11.167-21.38z"/>
                    <path d="M24.96 119.856c.922 6.614-5.509 11.491-11.79 11.591h-.15c-6.14 0-11.143-5.5-10.877-11.998L0 90.609l17.848-2.56" fill="#FFF" mask="url(#id1o5yc7ye)"/>
                    <path d="M68.717 116.99a2.287 2.287 0 1 1-4.574 0 2.287 2.287 0 0 1 4.574 0zm0 14.218a2.287 2.287 0 1 1-4.574 0 2.287 2.287 0 0 1 4.574 0z" stroke="#D35C9D" stroke-width="1.454" mask="url(#id1o5yc7ye)"/>
                </g>
            </g>
        </g>
        <circle stroke="#D35C9D" stroke-width="2" cx="80" cy="72" r="71"/>
        <path d="M129.751 15.178c.988-.004 3.216 1.733 3.76 2.258 3.673 3.528 2.897 7.472-1.571 10.723-2.39 1.74-4.123 2.925-4.355 5.162-.141 1.356.466 2.633 1.078 3.846.82 1.623-1.307.463-2.208-.139-3.594-2.4-4.38-6.166-1.324-8.911 1.351-1.214 3.757-2.143 5.11-3.585 2.635-2.801 1.658-5.682-.235-8.41-.165-.24-.725-.943-.255-.944" fill="#D8D8D9"/>
        <path d="M106.78 124.355c-.975-.59-1.992-.87-2.99-1.344-1.034-.494-1.873-1.376-2.905-1.915-2.07-1.08-4.445-1.587-6.775-1.39-1.702.141-3.354.635-4.96 1.215a46.115 46.115 0 0 0-4.842 2.067c-2.958 1.468-5.796 3.294-7.955 5.793-1.132 1.31-2.076 2.82-2.509 4.499-.432 1.677-.315 3.536.55 5.037.863 1.494 2.385 2.214 3.488 3.457l1.82 2.054c.432.487.873.982 1.432 1.316.79.47 1.74.572 2.654.664 4.071.41 8.235.815 12.211-.15 1.592-.385 3.125-.986 4.607-1.68 1.57-.736 3.1-1.588 4.406-2.728 2.336-2.039 3.83-4.905 4.692-7.884.66-2.28.92-4.92-.432-6.87-.63-.906-1.549-1.569-2.493-2.14" fill="#703C29"/>
        <path d="M87.459 128.873c.727-.335 1.419-.74 2.12-1.123a41.31 41.31 0 0 1 10.552-4.012c.647-.149 1.43-.418 1.523-1.075.047-.338-.122-.673-.349-.928-.619-.698-1.604-.93-2.531-1.033-2.101-.233-4.225-.001-6.32.289-1.001.14-2.007.294-2.967.612-1.07.355-2.06.908-3.045 1.457l-4.863 2.715c-2.186 1.22-4.423 2.483-6.04 4.395-1.319 1.562-2.291 4.024-.739 5.775 1.082 1.219 2.684 1.376 3.306-.177.685-1.71.617-2.943 2.327-4.094 2.118-1.423 4.74-1.746 7.026-2.8" fill="#A1643F"/>
        <path d="M100.963 123.464a4 4 0 0 1-.832.274 41.32 41.32 0 0 0-10.552 4.012c-.702.383-1.393.788-2.12 1.123-2.287 1.055-4.908 1.378-7.026 2.802-1.71 1.15-1.642 2.383-2.327 4.093-.313.78-.871 1.128-1.488 1.128-.176 0-.358-.029-.54-.085.068.872.377 1.66 1.002 2.018.091.052.19.077.295.077.204 0 .429-.092.667-.247-.477-1.347.014-2.365.922-3.865 1.052-1.737 2.55-3.09 4.6-3.502.988-.198 2.01-.17 3.003-.341 1.232-.213 2.389-.728 3.512-1.276a54.452 54.452 0 0 0 4.94-2.741c1.008-.629 2.01-1.299 3.142-1.66.948-.302 1.952-.374 2.95-.374l.327.003c.615.009 1.237.04 1.851.111a1.515 1.515 0 0 0-.112-.243c-.307-.535-.897-.839-1.473-1.058a9.698 9.698 0 0 0-.74-.25" fill="#5B3021"/>
        <path d="M98.14 123.06c-.677 0-1.354.069-2.017.206-3.185.662-5.867 2.828-8.996 3.716-1.184.335-2.436.49-3.526 1.06-2.15 1.125-3.272 3.644-5.383 4.84-.392.221-.816.396-1.16.688-.679.578-1.077 1.995-.98 3.242.182.055.364.084.54.084.617 0 1.175-.349 1.488-1.128.685-1.71.617-2.943 2.328-4.094 2.116-1.422 4.738-1.745 7.025-2.8.727-.336 1.418-.741 2.12-1.125a41.336 41.336 0 0 1 10.552-4.011c.274-.063.572-.148.832-.274a10.09 10.09 0 0 0-2.824-.403" fill="#825032"/>
        <path d="M83.563 131.292c.989-.198 2.01-.17 3.004-.34 1.232-.214 2.389-.73 3.513-1.278a54.447 54.447 0 0 0 4.94-2.74c1.007-.629 2.009-1.299 3.14-1.66 1.053-.334 2.174-.387 3.278-.371 1.948.029 3.957.285 5.631 1.28 1.675.994 2.94 2.868 2.736 4.804-.103.983-.562 1.89-1.066 2.74-1.015 1.711-2.409 3.406-4.353 3.833-.506.111-1.037.133-1.517.329-.668.274-1.154.85-1.696 1.325-1.665 1.46-3.916 2.013-6.072 2.52-3.645.855-7.356 1.716-11.091 1.463-1.08-.074-2.187-.253-3.104-.83-.929-.584-1.572-1.52-2.188-2.43-1.404-2.074-.926-3.208.246-5.143 1.052-1.736 2.551-3.091 4.6-3.502" fill="#A1643F"/>
        <path d="M108.662 133.854c-1.008 1.668-2.38 3.289-4.276 3.706-.506.111-1.037.133-1.517.329-.667.273-1.153.85-1.696 1.325-1.665 1.46-3.916 2.013-6.072 2.52-3.091.725-6.23 1.455-9.392 1.505.087.532.75.872 1.479 1.126 1.029.357 2.168.49 3.29.49.565 0 1.127-.034 1.667-.09 2.446-.256 5.144-.518 7.476-1.324 2.636-.91 4.826-2.833 6.529-5.041 1.06-1.374 1.966-2.909 2.512-4.546" fill="#5B3021"/>
        <path d="M107.69 128.568c-.656 0-1.211.536-1.588 1.087-.812 1.19-1.248 2.64-2.253 3.671-1.136 1.168-2.801 1.606-4.268 2.317-2.758 1.335-4.965 3.735-7.882 4.676-1.668.556-4.458.492-5.654 2.002-.285.358-.378.66-.336.918 3.161-.05 6.3-.78 9.392-1.505 2.156-.506 4.407-1.06 6.072-2.52.543-.476 1.028-1.051 1.696-1.326.48-.196 1.011-.217 1.518-.328 1.895-.417 3.267-2.038 4.276-3.706.295-.886.486-1.803.538-2.74.06-1.077-.34-2.457-1.415-2.542a1.153 1.153 0 0 0-.096-.004" fill="#825032"/>
        <g transform="translate(112.396 114.55)">
            <mask id="u4dsfqbvgg" fill="#fff">
                <use xlink:href="#itt2rs68hf"/>
            </mask>
            <path d="M2.45 23.526c2.997 4.877 8.26 7.417 13.812 8.063 4.124.48 8.662.504 12.31-1.747 1.84-1.135 2.879-1.952 3.702-4.056.89-2.274 1.143-4.803.67-7.202-.935-4.73-3.741-8.53-7.445-11.419L22.09 4.51C19.44 2.442 16.578.289 13.226.026 10.87-.159 8.501.646 6.542 1.97 1.23 5.56-.828 11.65.298 17.838a16.522 16.522 0 0 0 2.152 5.688" fill="#703C29" mask="url(#u4dsfqbvgg)"/>
        </g>
        <g transform="translate(119.366 114.4)">
            <mask id="dsay7qwmci" fill="#fff">
                <use xlink:href="#fr8t6or5sh"/>
            </mask>
            <path d="M.09 3.573c.15.472.523.834.882 1.177l6.367 6.076c.967.923 1.938 1.849 3.022 2.631 2.242 1.618 4.951 2.609 6.884 4.585.885.904 1.574 1.985 2.467 2.882.92.924 2.034 1.629 3.137 2.326.559.353 1.187.72 1.837.601.721-.131 1.21-.835 1.393-1.546.307-1.194-.026-2.45-.358-3.637-.775-2.768-1.57-5.585-3.14-7.993-1.593-2.446-3.896-4.333-6.216-6.104C14.31 3.001 12.17 1.467 9.728.613 7.542-.152 5.317-.163 3.078.367 1.729.687-.472 1.817.09 3.573" fill="#A1643F" mask="url(#dsay7qwmci)"/>
        </g>
        <path d="M119.392 116.949c-.377 0-.755.06-1.114.175a.784.784 0 0 0-.292.147c-.125.112-.176.284-.208.448l-.01.05a.752.752 0 0 1 .179-.021c.295 0 .586.184.86.657.558.964 1.631 1.431 2.411 2.176.658.628 1.25 1.392 1.823 2.1 1.508 1.863 2.944 3.732 4.838 5.231 1.462 1.158 3.097 2.067 4.618 3.141.695.49 1.3 1.152 1.991 1.622.614.416 1.317.607 1.888 1.121.534.482.99 1.051 1.574 1.47 1.055.754 2.221 1.55 3.184 2.433l.135.127c.954.947 1.18 1.992.785 2.854.087.02.173.028.258.028.637 0 1.253-.511 1.807-1.504.209-.373.363-.77.477-1.181a1.394 1.394 0 0 1-.797.251c-.56 0-1.098-.318-1.584-.624-1.103-.697-2.216-1.402-3.136-2.326-.894-.897-1.583-1.978-2.468-2.882-1.932-1.976-4.641-2.967-6.883-4.585-1.084-.782-2.056-1.708-3.023-2.63l-6.367-6.077c-.359-.343-.73-.705-.882-1.177a1.703 1.703 0 0 1-.021-1.024h-.043z" fill="#5B3021"/>
        <path d="M119.435 116.95a1.7 1.7 0 0 0 .022 1.024c.15.47.522.834.88 1.176l6.368 6.076c.967.923 1.938 1.85 3.023 2.631 2.242 1.618 4.95 2.608 6.884 4.585.885.904 1.574 1.985 2.467 2.882.92.924 2.033 1.63 3.136 2.326.486.306 1.025.624 1.584.624a1.398 1.398 0 0 0 .798-.252c.152-.55.233-1.125.273-1.695.016-.215.024-.44-.06-.637-.147-.342-.538-.519-.908-.553-.071-.007-.141-.01-.212-.01-.3 0-.601.05-.903.053h-.028c-1.636 0-2.549-1.339-3.503-2.462l-3.418-4.02c-.452-.531-.91-1.07-1.484-1.468-.758-.527-1.667-.778-2.53-1.107a14.036 14.036 0 0 1-7.117-6.1c-.464-.813-.86-1.694-1.545-2.335-.696-.654-1.486-.723-2.318-.723l-.34.003-.344.002a8.87 8.87 0 0 1-.548-.014 3.234 3.234 0 0 0-.177-.007" fill="#825032"/>
        <path d="m141.269 137.827-.135-.128c-.963-.883-2.13-1.679-3.184-2.433-.584-.418-1.04-.988-1.574-1.47-.571-.515-1.273-.704-1.888-1.121-.692-.47-1.296-1.131-1.99-1.622-1.521-1.074-3.156-1.983-4.619-3.14-1.893-1.5-3.33-3.37-4.838-5.232-.573-.708-1.165-1.472-1.822-2.1-.781-.745-1.855-1.212-2.412-2.176-.888-1.533-1.948-.032-2.782.924-.478.544-.959 1.095-1.31 1.73-2.055 3.697-.386 8.794 1.763 12.062 3.36 5.111 9.123 8.342 15.127 9.503 2.833.548 5.943.523 8.68-.48 2.116-.775 2.622-2.694.984-4.317" fill="#A1643F"/>
        <path d="M116.994 133.865a2.18 2.18 0 0 0-.876.411c-2.328 1.777 1.453 5.588 2.923 6.814 2.31 1.928 5.2 3.113 8.108 3.792 1.493.348 3.018.588 4.552.596h.097c2.873 0 7.334-.646 9.458-2.757.4-.397.619-1.02.485-1.546-.33.4-.82.736-1.456.969-1.597.585-3.32.837-5.042.837-1.229 0-2.457-.128-3.638-.357-5.708-1.103-11.197-4.078-14.611-8.76" fill="#5B3021"/>
        <path d="M117.443 133.818c-.151 0-.301.015-.45.047 3.415 4.681 8.904 7.656 14.613 8.76 1.18.228 2.408.356 3.637.356 1.722 0 3.445-.252 5.043-.837.635-.233 1.125-.568 1.455-.969a1.116 1.116 0 0 0-.19-.402c-.212-.282-.54-.45-.867-.582a6.558 6.558 0 0 0-3.093-.443c-.947.095-1.859.394-2.789.599a13.58 13.58 0 0 1-2.912.312c-3.359 0-6.724-1.21-9.262-3.418-1.178-1.024-3.268-3.423-5.185-3.423" fill="#825032"/>
    </g>
</svg>
