<svg width="160" height="160" viewBox="0 0 160 160" xmlns="http://www.w3.org/2000/svg" xmlns:xlink="http://www.w3.org/1999/xlink">
    <defs>
        <path d="M0 2.183a2.182 2.182 0 0 0 4.364 0 2.182 2.182 0 1 0-4.364 0z" id="p460ud7a3c"/>
        <path d="M0 2.182c0 1.19.951 2.156 2.134 2.182h.094A2.182 2.182 0 0 0 2.181 0 2.182 2.182 0 0 0 0 2.182" id="hpfcxeqr3e"/>
        <path d="M0 2.182a2.18 2.18 0 1 0 4.363 0 2.182 2.182 0 1 0-4.363 0z" id="x4wp75u1oh"/>
        <path d="M0 0c2.962 5.348 4.95 12.629 5.402 20.784.299.373.477.847.477 1.362 0 .477-.153.917-.413 1.277l.039 15.802h3.32v-15.79l-.04-1.175C8.538 14.914 6.99 8.062 4.403 2.757L3.02 0H0zm5.505 72.677v5.95a2.177 2.177 0 0 1 0 2.446v7.776c0 1.477-.116 2.953-.345 4.414l-.868 5.509a5.624 5.624 0 0 1-.185.803H7.05c.137-.083.476-.472.595-1.232l.802-5.096a30.92 30.92 0 0 0 .377-4.816V72.677h-3.32z" id="gdlk5rypqj"/>
        <path id="73kwe6wawl" d="M0 0h17.236v5.158H0z"/>
        <path d="m5.602 0-1.06 2.757C1.953 8.062.405 14.914.157 22.26l-.09 2.662H0v14.303h8.145V24.922h.068l.09-2.662c.248-7.346 2.347-13.895 4.055-19.545.179-.594.387-1.623.583-2.715H5.6zm.93 8.688a1.838 1.838 0 0 1-1.21-2.3c.18-.58.365-1.163.553-1.745.25-.778.971-1.275 1.746-1.275A1.836 1.836 0 0 1 9.37 5.77c-.182.57-.363 1.14-.539 1.707a1.84 1.84 0 0 1-1.755 1.294c-.18 0-.363-.027-.545-.083zM2.076 32.443V22.165c0-2.437.523-5.74 1.554-9.813a1.835 1.835 0 0 1 1.778-1.387 1.836 1.836 0 0 1 1.784 2.288c-.956 3.78-1.441 6.778-1.441 8.912v10.278a1.837 1.837 0 1 1-3.675 0zM6.94 53.94a26.576 26.576 0 0 1 0 0zm1.205.16a26.445 26.445 0 0 1 0 0zM0 72.678v16.364c0 1.206.094 2.412.281 3.604l.657 4.169c.198 1.143 1.97 1.63 3.808 1.63 2.202 0 4.502-.7 4.307-1.815l-.626-3.984a23.138 23.138 0 0 1-.282-3.604V72.677H0zm2.076 4.991V76.61a1.838 1.838 0 1 1 3.675 0v1.058a1.837 1.837 0 0 1-3.675 0zm.548 17.01c-.129-.609-.548-2.672-.548-3.608v-7.584a1.838 1.838 0 0 1 3.675 0v7.584c0 .374.243 1.777.468 2.852A1.835 1.835 0 0 1 4.8 96.098a1.838 1.838 0 0 1-2.177-1.42z" id="kdjk1g7t6n"/>
        <path d="M0 1.838v7.585c0 .935.42 2.998.548 3.607.182.866.945 1.46 1.796 1.46a1.835 1.835 0 0 0 1.799-2.216c-.225-1.075-.468-2.478-.468-2.851V1.838a1.838 1.838 0 1 0-3.675 0z" id="dxedry14ip"/>
        <path d="M0 1.838v1.059a1.837 1.837 0 0 0 3.675 0V1.838a1.838 1.838 0 1 0-3.675 0z" id="cqi6k7xpbr"/>
        <path d="M1.68.092a15.72 15.72 0 0 1 0 0z" id="mxyzf4d0lt"/>
        <path d="M1.554 1.387C.524 5.461 0 8.763 0 11.201v10.278a1.837 1.837 0 1 0 3.675 0V11.2c0-2.135.486-5.133 1.441-8.913A1.843 1.843 0 0 0 3.332 0C2.51 0 1.764.555 1.554 1.387z" id="clft3ddqww"/>
        <path d="M.636 1.275C.447 1.857.263 2.44.083 3.021c-.3.97.24 1.998 1.21 2.299a1.84 1.84 0 0 0 2.3-1.21c.175-.568.356-1.138.54-1.708.311-.965-.22-2-1.185-2.312A1.836 1.836 0 0 0 .636 1.275z" id="1230rh96gy"/>
        <linearGradient x1="-4120.562%" y1="-2924.697%" x2="-3647.436%" y2="-2924.697%" id="r9fhay205f">
            <stop stop-color="#9DD7F3" offset="0%"/>
            <stop stop-color="#74CAF1" offset="100%"/>
        </linearGradient>
        <linearGradient x1="-10384.049%" y1="-20048.922%" x2="-9155.653%" y2="-20048.922%" id="pemegtivuu">
            <stop stop-color="#C5E3F6" offset="0%"/>
            <stop stop-color="#AED9F3" offset="100%"/>
        </linearGradient>
        <filter x="-12.5%" y="-12.5%" width="125%" height="125%" filterUnits="objectBoundingBox" id="dgdimbb2ha">
            <feOffset dy="5" in="SourceAlpha" result="shadowOffsetOuter1"/>
            <feGaussianBlur stdDeviation="2.5" in="shadowOffsetOuter1" result="shadowBlurOuter1"/>
            <feColorMatrix values="0 0 0 0 0 0 0 0 0 0 0 0 0 0 0 0 0 0 0.2 0" in="shadowBlurOuter1" result="shadowMatrixOuter1"/>
            <feMerge>
                <feMergeNode in="shadowMatrixOuter1"/>
                <feMergeNode in="SourceGraphic"/>
            </feMerge>
        </filter>
        <circle id="34ub6x7hzb" cx="72" cy="72" r="72"/>
    </defs>
    <g filter="url(#dgdimbb2ha)" fill="none" fill-rule="evenodd">
        <circle stroke="#D35C9D" stroke-width="2" cx="72" cy="72" r="71" transform="translate(8)"/>
        <path fill="#E56639" d="m33.831 92.935.315-.44-.5-.25z"/>
        <path d="m78.599 62.604 2.515.004c-.096-.308-.548-.675-1.335-1.06-.625.327-1.037.682-1.18 1.056" fill="#A0D7E4"/>
        <path d="m47.079 65.583.062.011.067.01v.001c3.335.547 7.566.927 12.598.927 13.174 0 20.876-2.6 21.308-3.924l.465-.79c.143-.374-2.425.058-1.8-.27-.429-.21-.958-.425-1.584-.639-3.417-1.167-9.717-2.293-18.39-2.293-5.683 0-10.344.484-13.846 1.14M42.747 60.487c-2.602.718-4.066 1.496-4.248 2.05.143.46 1.08 1.05 2.737 1.635l-.002-.011s.997.326 2.35.683M47.99 67.033c-2.598-.472-4.06-.389-4.06-.389a34.391 34.391 0 0 1-1.982-.5 12.17 12.17 0 0 1-.385-.11l-.001-.005c-1.134-.343-2.104-.719-2.88-1.12l6.21 80.579.078.048-5.074-70.834a.696.696 0 0 1-.097-.341c0-.903 1.956-1.726 5.163-2.346 0 0 3.935-.75 6.296-.75s-1.889-3.07-1.889-3.07" fill="#F6F6F7"/>
        <path d="M59.779 70.863c11.034 0 19.98 1.566 19.98 3.498l-.004.022h.16L74.82 145.51l.082-.046 6.04-80.562c-3.683 1.913-11.758 3.241-21.134 3.241-4.56 0-8.808-.315-12.398-.857l.002.012h-.003l.81 4.21c3.263-.406 7.25-.646 11.56-.646" fill="#F6F6F7"/>
        <path d="M46.327 76.78c-.072-.018-.355.148-.426.126l-.006-.031c-3.318-.562-5.53-1.323-5.999-2.173l5.074 70.834.07.98c1.74 1.01 6.451 3.187 14.654 3.187 8.246 0 13.202-2.204 15.056-3.225l.069-.967 5.096-71.128h-.16c-.067 1.92-8.983 3.475-19.976 3.475-3.777 0-7.307-.183-10.32-.502m21.742 36.32a3.284 3.284 0 1 1 .001 6.568 3.284 3.284 0 0 1 0-6.568m-4.39-34.36a1.457 1.457 0 1 1-.002 2.915 1.457 1.457 0 0 1 .002-2.914M63.59 97.998c-.123 0-.244-.009-.366-.018l.005.04a3.284 3.284 0 0 1-6.568 0 3.28 3.28 0 0 1 2.558-3.197 4.597 4.597 0 1 1 4.37 3.175m-6.566 42.09c.266 0 .52.047.765.112a4.697 4.697 0 0 1-.15-1.16 4.686 4.686 0 0 1 3.42-4.51 1.883 1.883 0 0 1-.065-.468 1.873 1.873 0 1 1 3.748 0c0 .304-.08.587-.209.842a4.688 4.688 0 0 1-2.206 8.824c-.858 0-1.66-.234-2.351-.636a2.954 2.954 0 0 1-5.909-.047 2.956 2.956 0 0 1 2.957-2.957M46.09 89.275a1.457 1.457 0 1 1-.001 2.915 1.457 1.457 0 0 1 0-2.915m-3.28 16.646a3.284 3.284 0 1 1 6.568 0 3.284 3.284 0 0 1-6.568 0m3.748 22.925a1.457 1.457 0 1 1 0-2.915 1.457 1.457 0 0 1 0 2.915m28.432-18.993a1.874 1.874 0 1 1 0-3.748 1.874 1.874 0 0 1 0 3.748" fill="#9FD7EF"/>
        <path d="M49.46 77.356c3.011.32 6.542.502 10.319.502 10.993 0 19.91-1.554 19.977-3.475l.003-.022c0-1.932-8.946-3.498-19.98-3.498-4.31 0-8.298.24-11.562.646l-3.255.506c-3.207.62-5.163 1.444-5.163 2.346 0 .115.034.229.097.34.47.851 2.68 1.612 6 2.174l3.563.481z" fill="#86CFEC"/>
        <path d="M66.332 96.143a3.864 3.864 0 0 0 1.136-2.742c0-1.072-.434-2.04-1.136-2.742a3.861 3.861 0 0 0-2.741-1.136c-1.072 0-2.04.433-2.743 1.136a3.864 3.864 0 0 0-1.135 2.742c0 .473.097.919.25 1.337a3.277 3.277 0 0 1 3.16 2.494c.156.019.307.047.468.047 1.072 0 2.039-.434 2.741-1.136m.78-2.284s-1.74-3.19-3.887-3.83c0 0 3.25-.058 3.887 3.83" fill="#6CC7E9"/>
        <path d="M68.188 93.4a4.597 4.597 0 1 0-8.968 1.423 3.28 3.28 0 0 0 .726 6.481 3.283 3.283 0 0 0 3.284-3.283l-.004-.04c.12.008.241.018.364.018a4.598 4.598 0 0 0 4.598-4.598m-5.678 4.62a2.568 2.568 0 0 1-2.564 2.563 2.567 2.567 0 0 1-2.564-2.563 2.568 2.568 0 0 1 2.564-2.565 2.568 2.568 0 0 1 2.564 2.565m-2.547-3.283a3.861 3.861 0 0 1-.25-1.337c0-1.073.434-2.04 1.135-2.742a3.862 3.862 0 0 1 2.742-1.136c1.072 0 2.04.433 2.743 1.136a3.863 3.863 0 0 1 1.135 2.742c0 1.072-.433 2.039-1.135 2.742a3.867 3.867 0 0 1-2.743 1.136c-.16 0-.312-.028-.466-.047a3.278 3.278 0 0 0-3.16-2.494" fill="#C7E7F6"/>
        <path d="M59.946 95.456a2.566 2.566 0 0 0-2.564 2.564 2.567 2.567 0 0 0 2.564 2.565 2.567 2.567 0 0 0 2.564-2.565 2.567 2.567 0 0 0-2.564-2.564m2.24 2.219s-1.256-1.663-3.1-1.711c0 0 2.25-.826 3.1 1.711M71.202 119.524a2.567 2.567 0 0 0 2.563-2.564 2.567 2.567 0 0 0-2.563-2.564 2.567 2.567 0 0 0-2.564 2.564 2.566 2.566 0 0 0 2.564 2.564m2.274-2.816s-1.257-1.664-3.1-1.712c0 0 2.25-.826 3.1 1.712" fill="#6CC7E9"/>
        <path d="M71.202 120.244a3.284 3.284 0 1 0 0-6.568 3.284 3.284 0 0 0 0 6.568m0-5.848a2.567 2.567 0 0 1 2.563 2.564 2.567 2.567 0 0 1-2.563 2.564 2.567 2.567 0 0 1-2.564-2.564 2.567 2.567 0 0 1 2.564-2.564" fill="#C7E7F6"/>
        <path d="M46.093 108.485a2.567 2.567 0 0 0 2.564-2.564 2.567 2.567 0 0 0-2.564-2.564 2.567 2.567 0 0 0-2.564 2.564 2.567 2.567 0 0 0 2.564 2.564m2.271-2.777s-1.256-1.664-3.1-1.712c0 0 2.25-.826 3.1 1.712" fill="#6CC7E9"/>
        <path d="M49.377 105.92a3.284 3.284 0 1 0-6.567 0 3.284 3.284 0 0 0 6.567 0m-3.283-2.563a2.568 2.568 0 0 1 2.564 2.564 2.568 2.568 0 0 1-2.564 2.564 2.567 2.567 0 0 1-2.565-2.564 2.567 2.567 0 0 1 2.565-2.564" fill="#C7E7F6"/>
        <path d="M59.816 142.113a3.95 3.95 0 0 0 2.51.895 3.956 3.956 0 0 0 2.807-1.162 3.953 3.953 0 0 0 1.162-2.806 3.952 3.952 0 0 0-2.218-3.558 1.86 1.86 0 0 1-.853.418c.887.182 1.88.785 2.437 2.446 0 0-1.72-2.277-4.243-2.342 0 0 .363-.13.882-.165a1.867 1.867 0 0 1-.92-.65 3.96 3.96 0 0 0-2.707 5.401c.536.361.934.898 1.143 1.523M57.024 145.282a2.24 2.24 0 0 0 2.237-2.237 2.24 2.24 0 0 0-2.237-2.237 2.239 2.239 0 0 0-2.237 2.237 2.24 2.24 0 0 0 2.237 2.237m1.979-2.088s-1.257-1.663-3.1-1.71c0 0 2.25-.827 3.1 1.71" fill="#6CC7E9"/>
        <path d="M57.024 146.001a2.954 2.954 0 0 0 2.952-2.909 4.662 4.662 0 0 0 2.35.636 4.688 4.688 0 0 0 2.207-8.824c.13-.255.209-.538.209-.842a1.875 1.875 0 1 0-3.749 0c0 .162.028.317.066.468a4.686 4.686 0 0 0-3.42 4.51c0 .401.055.788.15 1.16a2.941 2.941 0 0 0-.765-.112 2.956 2.956 0 1 0 0 5.913m0-5.193a2.24 2.24 0 0 1 2.237 2.237 2.24 2.24 0 0 1-2.237 2.237 2.24 2.24 0 0 1-2.237-2.237 2.239 2.239 0 0 1 2.237-2.237m1.334-1.768a3.953 3.953 0 0 1 3.021-3.85c.23.303.549.53.92.649.18.057.369.097.568.097a1.865 1.865 0 0 0 1.21-.454 3.952 3.952 0 0 1 2.218 3.558 3.952 3.952 0 0 1-1.163 2.806 3.957 3.957 0 0 1-2.805 1.162 3.956 3.956 0 0 1-2.511-.895 2.95 2.95 0 0 0-1.144-1.523c-.202-.475-.314-1-.314-1.55m3.355-4.978a1.156 1.156 0 0 1 1.154-1.156 1.157 1.157 0 0 1 1.155 1.156 1.157 1.157 0 0 1-1.155 1.154 1.156 1.156 0 0 1-1.154-1.154" fill="#C7E7F6"/>
        <path d="M65.66 138.346c-.556-1.66-1.55-2.264-2.436-2.446a1.865 1.865 0 0 1-.357.036c-.2 0-.388-.04-.568-.097a3.606 3.606 0 0 0-.881.164c2.522.066 4.243 2.343 4.243 2.343" fill="#FEFEFE"/>
        <path d="M62.867 135.216a1.156 1.156 0 0 0 1.155-1.155 1.156 1.156 0 1 0-1.155 1.155M74.989 106.824a1.156 1.156 0 0 0 0 2.31 1.157 1.157 0 0 0 1.154-1.155 1.156 1.156 0 0 0-1.154-1.155" fill="#6CC7E9"/>
        <path d="M74.989 106.104a1.874 1.874 0 1 0-.001 3.748 1.874 1.874 0 0 0 0-3.748m0 3.03a1.156 1.156 0 0 1 0-2.31 1.157 1.157 0 0 1 1.155 1.155 1.157 1.157 0 0 1-1.154 1.155" fill="#C7E7F6"/>
        <path d="M67.113 93.86c-.638-3.888-3.888-3.83-3.888-3.83 2.148.638 3.888 3.83 3.888 3.83M62.187 97.675c-.85-2.537-3.1-1.711-3.1-1.711 1.843.047 3.1 1.711 3.1 1.711" fill="#FEFEFE"/>
        <path d="M46.09 91.65a.918.918 0 0 0 .916-.918l-.035-.175c-.114-.136-.583-.643-1.23-.66 0 0 .853-.304 1.221.615a.905.905 0 0 0-.872-.696.917.917 0 0 0 0 1.833" fill="#6CC7E9"/>
        <path d="M44.633 90.732a1.457 1.457 0 1 0 2.914 0 1.457 1.457 0 0 0-2.914 0m1.457-.917c.428.001.771.3.872.697l.037.08-.027-.034.034.174a.917.917 0 1 1-.916-.917" fill="#C7E7F6"/>
        <path d="M45.741 89.898c.647.016 1.116.523 1.23.66l.028.034-.037-.08c-.368-.919-1.22-.614-1.22-.614" fill="#FEFEFE"/>
        <path d="M66.812 81.69a.918.918 0 0 0 .916-.916l-.035-.175c-.114-.137-.582-.643-1.23-.66 0 0 .854-.304 1.221.615a.905.905 0 0 0-.872-.697.917.917 0 0 0 0 1.834" fill="#6CC7E9"/>
        <path d="M66.812 82.23a1.457 1.457 0 1 0-.002-2.914 1.457 1.457 0 0 0 .002 2.914m0-2.373c.428 0 .77.3.872.696l.037.08-.028-.035.035.175a.917.917 0 1 1-.916-.916" fill="#C7E7F6"/>
        <path d="M66.463 79.939c.647.017 1.116.524 1.23.66l.028.034-.037-.08c-.367-.918-1.22-.614-1.22-.614" fill="#FEFEFE"/>
        <path d="M47.437 127.213c-.115-.138-.583-.642-1.23-.659 0 0 .853-.302 1.22.613a.904.904 0 0 0-.87-.695.918.918 0 0 0 0 1.834.919.919 0 0 0 .916-.918l-.036-.175z" fill="#6CC7E9"/>
        <path d="M48.013 127.389a1.457 1.457 0 1 0-2.915 0 1.457 1.457 0 0 0 2.915 0m-1.457.917a.918.918 0 0 1 0-1.834c.428 0 .77.3.872.694l.039.083-.03-.036.036.176c0 .507-.41.916-.917.917" fill="#C7E7F6"/>
        <path d="M46.208 126.554c.646.017 1.114.522 1.23.66l.029.035-.039-.082c-.368-.916-1.22-.613-1.22-.613M48.364 105.708c-.85-2.537-3.1-1.712-3.1-1.712 1.844.048 3.1 1.712 3.1 1.712M59.003 143.195c-.85-2.538-3.1-1.712-3.1-1.712 1.843.048 3.1 1.712 3.1 1.712M73.476 116.707c-.85-2.537-3.1-1.71-3.1-1.71 1.843.046 3.1 1.71 3.1 1.71" fill="#FEFEFE"/>
        <path fill="#EEE" d="M101.386 30.366h14.89v-2.03h-14.89zM116.274 36.748l.002-4.478h-14.89v4.478l-4.709 11.123h24.306z"/>
        <g>
            <path d="M126.447 70.037a62.908 62.908 0 0 0-.39-5.203c-.78-6.6-2.583-12.465-5.075-16.963H96.68c-2.283 4.12-3.986 9.385-4.855 15.312-.323 2.202-.77 6.854-.77 6.854v65.297c0 2.4.187 4.797.56 7.168l.652 4.14c.326 2.075 1.69 3.559 3.27 3.559h26.47c1.58 0 2.944-1.484 3.27-3.558l.65-4.127c.374-2.38.562-4.786.56-7.195l-.039-65.284z" fill="#EEE"/>
            <path d="M106.773 145.136a2.182 2.182 0 1 1 0-4.364 2.182 2.182 0 0 1 0 4.364zm13.64-24.588h-17.03v16.364c0 1.207.095 2.411.282 3.603l.626 3.985c.195 1.115-2.104 1.815-4.307 1.815-1.839 0-3.61-.488-3.808-1.63l-.656-4.17a23.21 23.21 0 0 1-.281-3.603v-16.364h-1.43v15.754c0 1.613.127 3.223.377 4.816l.802 5.097c.126.8.496 1.19.549 1.23h23.478c.079-.255.142-.524.185-.802l.868-5.51c.23-1.46.344-2.935.344-4.413v-7.778a2.181 2.181 0 1 1 0-2.446v-5.948zm-17.03-18.576c2.811.44 5.754 1.354 8.9 2.843-3.146-1.49-6.089-2.402-8.9-2.843zm-2.543-54.1h-1.225l-1.264 2.755c-2.589 5.306-4.135 12.157-4.383 19.504l-.09 2.662h-.069v14.302h1.43V72.793h.068l.09-2.662c.248-7.347 1.795-14.198 4.383-19.504l1.06-2.756zm5.765 35.788a2.183 2.183 0 1 1 .002-4.365 2.183 2.183 0 0 1-.002 4.365zm4.318-25.377a2.182 2.182 0 1 1 0-4.364 2.182 2.182 0 0 1 0 4.364zm3.984-10.412h-6.728c-.196 1.091-.404 2.121-.583 2.714-1.707 5.651-3.806 12.2-4.054 19.546l-.09 2.662h-.069v14.302h17.03l-.039-15.8a2.18 2.18 0 1 1-.064-2.64c-.453-8.156-2.44-15.435-5.403-20.784z" fill="#9FD7EF"/>
        </g>
        <g transform="translate(104.423 79.295)">
            <mask id="5ay47qbqud" fill="#fff">
                <use xlink:href="#p460ud7a3c"/>
            </mask>
            <path fill="#6CC7E9" mask="url(#5ay47qbqud)" d="M0 4.364h4.364V0H0z"/>
        </g>
        <g transform="translate(104.591 140.772)">
            <mask id="d87u9zzdqg" fill="#fff">
                <use xlink:href="#hpfcxeqr3e"/>
            </mask>
            <path d="M0 2.182c0 1.19.951 2.156 2.134 2.182h.094A2.182 2.182 0 0 0 2.181 0 2.182 2.182 0 0 0 0 2.182" fill="url(#r9fhay205f)" mask="url(#d87u9zzdqg)"/>
        </g>
        <g transform="translate(108.741 53.92)">
            <mask id="8mbzq9s47i" fill="#fff">
                <use xlink:href="#x4wp75u1oh"/>
            </mask>
            <path fill="#6CC7E9" mask="url(#8mbzq9s47i)" d="M0 4.363h4.363V0H0z"/>
        </g>
        <g>
            <path d="M112.37 104.857c6.417 3.298 10.211 5.12 14.118 5.503V88.651H91.054v14.275c6.555-1.966 13.276-1.9 21.316 1.931" fill="#00A0D9"/>
            <path d="M109.056 106.068c-7.517-2.21-12.488-.85-18.002 2.812v10.111h35.434v-8.407c-4.602.186-9.659-1.88-17.432-4.516" fill="#00A0D9"/>
            <path d="M109.056 111.647c7.773 2.637 12.83 3.891 17.432 3.706v-4.993c-3.907-.383-7.701-2.205-14.118-5.503-8.04-3.831-14.761-3.897-21.316-1.93v11.533c5.514-3.663 10.485-5.023 18.002-2.813" fill="#6CC7E9"/>
        </g>
        <path fill="#EFEFEE" d="M91.054 120.548h35.434v-1.556H91.054zM91.054 88.652h35.434v-1.557H91.054z"/>
        <path fill="#EEE" d="M116.276 30.044h.001v-.901h-.001zM122.185 50.265c1.869 4.107 3.223 9.084 3.871 14.57.199 1.689.331 3.427.391 5.201l.01 17.059h.031v1.556h-.03.03V120.548h-.01l.008 14.772a46.062 46.062 0 0 1-.56 7.196l-.65 4.127c-.326 2.074-1.69 3.557-3.27 3.557h.001c1.58 0 2.945-1.483 3.27-3.557l.868-5.51c.23-1.46.345-2.936.345-4.413V87.095l-.04-17.059c-.255-7.54-1.82-14.4-4.265-19.77zm-5.908-17.976-.003 4.46 1.95 4.602-1.948-4.603v-4.46z"/>
        <g transform="translate(114.908 47.87)">
            <mask id="910v3qm78k" fill="#fff">
                <use xlink:href="#gdlk5rypqj"/>
            </mask>
            <path fill="#9FD7EF" mask="url(#910v3qm78k)" d="M0 99.573h8.825V0H0z"/>
        </g>
        <g>
            <path d="M116.273 30.044h-15.047c-.55 0-.998.45-.998 1v.246c0 .55.449 1 .998 1h15.047c.548 0 .998-.45.998-1v-.247c0-.549-.45-.999-.998-.999" fill="#DBDCDC"/>
            <g transform="translate(100.153 24)">
                <mask id="d5g7hqwbcm" fill="#fff">
                    <use xlink:href="#73kwe6wawl"/>
                </mask>
                <path d="M15.047.024H3.797c-1.345 0-2.598-.29-3.414 1.119C-.098 1.971.01 2.616.01 4.486l1.075.672 1.076-.672 1.076.672 1.076-.672 1.076.672 1.076-.672 1.076.672 1.076-.672 1.076.672 1.076-.672 1.075.672 1.077-.672 1.076.672 1.075-.672 1.077.672 1.075-.672c0-1.87.109-2.515-.372-3.343C16.454.456 15.787.024 15.047.024" fill="#6589C5" mask="url(#d5g7hqwbcm)"/>
            </g>
            <path d="M106.384 24.77h-3.357a.874.874 0 0 0-.871.871c0 .48.392.871.87.871h3.358c.48 0 .872-.392.872-.87a.874.874 0 0 0-.872-.872" fill="#8FA4D4"/>
            <path d="M101.24 27.704v.398a.505.505 0 0 1-.625.492l-.451-.108 1.075.672 1.076-.672-.436-.965c-.165-.366-.64-.23-.64.183M104.025 27.52c-.165-.365-.641-.228-.641.184v.397a.505.505 0 0 1-.623.491l-.446-.106 1.069.668 1.076-.668-.435-.966zM106.17 27.52c-.166-.365-.64-.228-.64.184v.395a.506.506 0 0 1-.625.491l-.437-.104 1.061.663 1.076-.663-.436-.966zM108.315 27.52c-.166-.365-.64-.228-.64.184v.393a.506.506 0 0 1-.624.492l-.431-.103 1.054.66 1.077-.66-.436-.966zM110.46 27.52c-.165-.365-.64-.228-.64.184v.391a.506.506 0 0 1-.624.493l-.425-.102 1.049.655 1.075-.655-.435-.966zM112.604 27.52c-.165-.365-.64-.228-.64.184v.39a.506.506 0 0 1-.624.492l-.417-.1 1.041.65 1.076-.65-.436-.966zM114.75 27.52c-.165-.365-.64-.228-.64.184v.388a.506.506 0 0 1-.624.493l-.411-.1 1.035.647 1.076-.646-.436-.966zM117.379 28.486l-.485-.966c-.164-.365-.64-.229-.64.184v.387a.506.506 0 0 1-.623.492l-.405-.097 1.077.672 1.076-.672z" fill="#3171B8"/>
        </g>
        <g transform="translate(95.238 47.87)">
            <mask id="nhjafd6npo" fill="#fff">
                <use xlink:href="#kdjk1g7t6n"/>
            </mask>
            <path fill="#9FD7EF" mask="url(#nhjafd6npo)" d="M0 98.444h12.94V0H0z"/>
        </g>
        <path d="M103.383 88.651H95.24v13.318a27.27 27.27 0 0 1 2.076-.24v-9.07a1.838 1.838 0 1 1 3.675 0v9.047c.788.051 1.584.139 2.393.266v-13.32z" fill="#00A0D9"/>
        <path fill="#FEFEFE" d="M95.238 120.547h8.145v-1.556h-8.145zM95.238 88.651h8.145v-1.556h-8.145z"/>
        <g transform="translate(97.314 129.519)">
            <mask id="zepnj7bo9q" fill="#fff">
                <use xlink:href="#dxedry14ip"/>
            </mask>
            <path fill="#C7E7F6" mask="url(#zepnj7bo9q)" d="M0 14.49h4.352V0H0z"/>
        </g>
        <g transform="translate(97.314 122.642)">
            <mask id="nmbcj9ixks" fill="#fff">
                <use xlink:href="#cqi6k7xpbr"/>
            </mask>
            <path fill="#C7E7F6" mask="url(#nmbcj9ixks)" d="M0 4.733h3.675V0H0z"/>
        </g>
        <g transform="translate(99.309 101.652)">
            <mask id="m0g9notypv" fill="#fff">
                <use xlink:href="#mxyzf4d0lt"/>
            </mask>
            <path d="M1.68.092a15.72 15.72 0 0 1 0 0z" fill="url(#pemegtivuu)" mask="url(#m0g9notypv)"/>
        </g>
        <g transform="translate(97.314 58.835)">
            <mask id="5kgoee5lix" fill="#fff">
                <use xlink:href="#clft3ddqww"/>
            </mask>
            <path fill="#C7E7F6" mask="url(#5kgoee5lix)" d="M0 23.316h5.365V0H0z"/>
        </g>
        <g transform="translate(100.478 51.239)">
            <mask id="ll3z9pcn0z" fill="#fff">
                <use xlink:href="#1230rh96gy"/>
            </mask>
            <path fill="#C7E7F6" mask="url(#ll3z9pcn0z)" d="M-.217 5.403h4.661V-.001H-.217z"/>
        </g>
        <path fill="#EEE" d="M101.386 29.066v.73-.731z"/>
        <path d="M103.326 28.336h-1.078l.067.182-.93.707h.002l.928-.707.446.13c.04.012.08.017.119.017.189 0 .36-.131.446-.329m4.288 0h-1.076l.067.182-1.075.808-1.063-.808.439.127c.04.013.08.018.119.018.188 0 .36-.13.445-.327h-1.077l.068.182-1.077.813.008.005 1.075-.818 1.076.818 1.076-.818.432.126c.04.012.08.017.12.017.187 0 .357-.13.443-.325m2.145 0h-1.076l.068.182-1.076.803.02.015 1.076-.818 1.076.818.353-.269v-.015l-.353.27v-.027l-.028.02-1.048-.797.425.124c.04.012.08.017.118.017.188 0 .358-.128.445-.323" fill="#3171B8"/>
        <path fill="#22327E" d="M109.847 29.123v.023l.353-.221v-.017z"/>
        <path fill="#3171B8" d="M102.248 28.336h-.863v.73l.93-.58z"/>
        <g fill="#3171B8">
            <path d="M104.393 28.336h-1.067c-.086.2-.257.33-.446.33a.403.403 0 0 1-.119-.017l-.446-.13 1.069.817 1.076-.817-.067-.183zM106.538 28.336h-1.067c-.087.198-.257.329-.446.329a.403.403 0 0 1-.12-.018l-.438-.128 1.063.812 1.075-.812-.067-.183zM108.683 28.336h-1.069c-.086.197-.255.327-.444.327a.425.425 0 0 1-.119-.017l-.432-.127 1.055.807 1.077-.807-.068-.183zM110.2 28.336h-.441c-.087.196-.257.325-.445.325a.403.403 0 0 1-.118-.017l-.425-.125 1.049.801.027-.02.353-.263v-.7z"/>
        </g>
        <path fill="#8D9ACD" d="M110.2 32.578v.61-.9z"/>
        <g>
            <path d="M42.435 58.868c-3.666.985-5.897 2.282-5.897 3.705 0 .273.086.54.244.802l1.841 25.716.106 1.457.458 6.398.448 6.25 1.552 21.673 1.497 20.898.147 2.045S47.966 152 59.694 152s17.264-4.188 17.264-4.188l2.268-31.669.322-4.49.105-1.463.322-4.49.106-1.477.323-4.518.107-1.485.363-5.079.09-1.238 1.23-17.187.676-9.43.16-2.237h-.045c.055-.158.09-.315.09-.476 0-.628-.44-1.23-1.24-1.793-.774-.545-1.887-1.053-3.286-1.507-4.237-1.378-11.052-2.271-18.742-2.271-5.327 0-10.234.43-14.156 1.151l-3.216.715zm-.872 7.166a34.405 34.405 0 0 0 2.367.61l-.008-.037c1.685.361 3.47.689 3.486.692h.003l-.002-.012c3.59.543 7.839.858 12.398.858 9.376 0 17.45-1.329 21.135-3.242l-6.041 80.561-.082.047-.07.967c-1.853 1.02-6.81 3.225-15.055 3.225-8.202 0-12.913-2.178-14.654-3.187l-.07-.98-.079-.048-6.209-80.58c.776.403 1.746.778 2.88 1.12v.006zm4.396-6.277c3.502-.657 8.163-1.14 13.847-1.14 8.672 0 14.972 1.125 18.389 2.293.626.213 1.155.429 1.584.638.787.385 1.239.752 1.335 1.06-.432 1.323-8.134 3.924-21.308 3.924-5.033 0-9.263-.38-12.598-.927l-.067-.01-.062-.011c-1.183-.172-2.445-.464-3.495-.74a45.355 45.355 0 0 1-2.35-.684l.002.012c-1.657-.585-2.594-1.175-2.737-1.634.182-.555 1.645-1.333 4.248-2.05l3.212-.731z" fill="#EEE"/>
            <path d="M43.494 64.803s2.645.68 3.627.794L46.1 59.74s-2.815.605-3.59.831" fill="#F6F6F7"/>
            <path d="M118.606 72.284a2.248 2.248 0 1 0 0-4.497 2.248 2.248 0 0 0 0 4.497M118.606 129.884a2.248 2.248 0 1 0 0-4.496 2.248 2.248 0 0 0 0 4.496" fill="#6CC7E9"/>
        </g>
        <g fill="#9FD7EF">
            <path d="M61.355 32.718a2.675 2.675 0 1 0 4.617 2.7 2.675 2.675 0 0 0-4.617-2.7M48.474 31.38a2.674 2.674 0 1 0 4.617 2.7 2.674 2.674 0 0 0-4.617-2.7M38.791 39.56a2.674 2.674 0 1 0 4.617 2.7 2.674 2.674 0 0 0-4.617-2.7M60.792 40.621a1.756 1.756 0 1 0 3.031 1.774 1.756 1.756 0 0 0-3.03-1.774M52.332 39.742a1.756 1.756 0 1 0 3.031 1.774 1.756 1.756 0 0 0-3.03-1.774M45.973 45.114a1.757 1.757 0 1 0 3.033 1.774 1.757 1.757 0 0 0-3.033-1.774M60.531 46.745a1.075 1.075 0 1 0 1.856 1.087 1.075 1.075 0 0 0-1.856-1.087M55.35 46.207a1.076 1.076 0 1 0 1.858 1.086 1.076 1.076 0 0 0-1.858-1.086M51.456 49.497a1.076 1.076 0 1 0 1.857 1.086 1.076 1.076 0 0 0-1.857-1.086"/>
        </g>
        <g fill="#9FD7EF">
            <path d="M42.155 15.918a2.675 2.675 0 1 0 4.617 2.7 2.675 2.675 0 0 0-4.617-2.7M29.274 14.58a2.674 2.674 0 1 0 4.617 2.7 2.674 2.674 0 0 0-4.617-2.7M19.591 22.76a2.674 2.674 0 1 0 4.617 2.7 2.674 2.674 0 0 0-4.617-2.7M41.592 23.821a1.756 1.756 0 1 0 3.031 1.774 1.756 1.756 0 0 0-3.03-1.774M33.132 22.942a1.756 1.756 0 1 0 3.031 1.774 1.756 1.756 0 0 0-3.03-1.774M26.773 28.314a1.757 1.757 0 1 0 3.033 1.774 1.757 1.757 0 0 0-3.033-1.774M41.331 29.945a1.075 1.075 0 1 0 1.856 1.087 1.075 1.075 0 0 0-1.856-1.087M36.15 29.407a1.076 1.076 0 1 0 1.858 1.086 1.076 1.076 0 0 0-1.858-1.086M32.256 32.697a1.076 1.076 0 1 0 1.857 1.086 1.076 1.076 0 0 0-1.857-1.086"/>
        </g>
    </g>
</svg>
