<svg width="160" height="160" viewBox="0 0 160 160" xmlns="http://www.w3.org/2000/svg" xmlns:xlink="http://www.w3.org/1999/xlink">
    <defs>
        <path id="xw6d771iuc" d="M0 0v48.054h41.129V0z"/>
        <path id="571jndb9ne" d="M0 0v48.054h41.129V0"/>
        <path id="tf33k6s2fg" d="M0 0v48.054h41.129V0"/>
        <path id="ffsvlb7uri" d="M0 0v48.054h41.129V0"/>
        <path id="jp1v88reek" d="M0 0v48.054h41.129V0"/>
        <path id="mbdyw9e6vm" d="M0 0v48.054h41.129V0"/>
        <path id="xdn6u8t48o" d="M0 0v48.054h41.129V0"/>
        <path id="obma7zq8uq" d="M0 0v48.054h41.129V0"/>
        <path id="fghqowd9ns" d="M0 0v48.054h41.129V0"/>
        <path id="ijznfic2zu" d="M0 0v48.054h41.129V0"/>
        <path id="jhncob9b2w" d="M0 0v48.054h41.129V0"/>
        <path id="m5b9c2w6uy" d="M0 0v48.054h41.129V0z"/>
        <path d="M13.489 0c-1.043 2.738-2.286 4.42-3.042 7.314a1.677 1.677 0 0 1-.24 3.337h.001c-.11 0-.218-.01-.323-.031a33.198 33.198 0 0 0-.132 3.076l-.144 8.341c0 3.949 3.804 5.43 3.795 8.62-.004 1.436-.013 3.616-.022 5.819a1.687 1.687 0 0 1-.004.97c-.007 2-.015 3.929-.018 5.239-.008 3.2-2.733 3.965-3.622 7.188h17.084v-1.59c0-1.75-.844-3.3-2.144-4.275-.504-.377-.833-.942-.833-1.572V31.935c0-.498.214-.972.59-1.297a6.878 6.878 0 0 0 2.387-5.216V14.09c0-6.375-1.439-10.63-3.13-14.09H13.49zm4.24 21.772a1.677 1.677 0 0 1 3.354 0 1.677 1.677 0 0 1-3.354 0zm1.265 24.936a1.677 1.677 0 1 1 3.354 0 1.677 1.677 0 0 1-3.354 0zM5.228 0c-.333 0-.65.158-.845.429A23.635 23.635 0 0 0 0 14.09v14.085c0 1.759.965 3.374 2.518 4.211a2.137 2.137 0 0 1 1.135 1.877v6.435c0 .901-.57 1.703-1.418 2C.913 43.16 0 44.368 0 45.77v4.103h1.718v-2.156c0-4.563 3.654-3.494 3.654-7.376 0-7.466.207-7.65-.624-8.312-3.858-3.07-3.03-3.045-3.03-17.94C1.718 7.678 3.61 3.466 5.761 0h-.533zm4.624 79.269c.033.9.068 1.783.106 2.647a1.678 1.678 0 0 1 1.817 1.671c0 .916-.736 1.661-1.648 1.676.09 1.583.191 3.076.306 4.458a76.37 76.37 0 0 0 .493 4.483l-2.778-.581a4.989 4.989 0 0 0-3.048.324l-1.747.774c-1.176-3.547-1.57-7.793-1.677-15.452H0v.08c0 4.04.42 8.07 1.255 12.024l.572 2.71c0 1.692 1.202 2.884 2.58 2.968a2.726 2.726 0 0 0 1.844-.566l.367-.282c.195-.149.432-.228.673-.228.073 0 .147.008.22.022l5.468 1.117c.34.07.626.294.775.606l.132.275c.325.68.865 1.259 1.563 1.545.346.14.69.205 1.02.205 1.107 0 2.075-.724 2.536-1.72l.133-.287c.13-.28.37-.493.663-.589l4.713-1.524a.777.777 0 0 1 .24-.038c.027 0 .055.001.084.004l.73-3.997a58.242 58.242 0 0 0 1.254-12.024v-.301H9.852zm7.877 9.711a1.677 1.677 0 0 1 3.354 0 1.677 1.677 0 1 1-3.354 0z" id="iiz3ou50bA"/>
        <path d="M0 3.306A1.677 1.677 0 0 0 2 1.66C2 .815 1.375.116.562 0A20.415 20.415 0 0 0 0 3.306" id="df3i1q7yfD"/>
        <path d="M0 1.676a1.678 1.678 0 0 0 3.354.035v-.07A1.677 1.677 0 0 0 0 1.677" id="9rf3eg1dhG"/>
        <path d="M.209.97A1.508 1.508 0 0 0 .213 0L.209.97" id="f5ne76tvrJ"/>
        <path d="M0 1.677a1.677 1.677 0 1 0 3.354 0 1.677 1.677 0 0 0-3.354 0" id="0jqk8xdukM"/>
        <path d="M0 .006c.051 1.153.108 2.27.169 3.347.9-.014 1.629-.74 1.648-1.64v-.07A1.678 1.678 0 0 0 .14 0 1.62 1.62 0 0 0 0 .006" id="kzjl280nsP"/>
        <path d="M0 1.677a1.678 1.678 0 0 0 3.354.035v-.07A1.677 1.677 0 0 0 0 1.677" id="bjnn63i5gS"/>
        <path d="M0 0c1.691 3.46 3.13 7.715 3.13 14.09v11.332a6.878 6.878 0 0 1-2.387 5.216c-.377.325-.59.799-.59 1.297v10.5c0 .63.33 1.196.833 1.573a5.328 5.328 0 0 1 2.144 4.275v1.59h5.475v-4.096a3.236 3.236 0 0 0-1.811-2.906 2.103 2.103 0 0 1-1.166-1.892v-7.131c0-.67.318-1.294.849-1.696 1.268-.958 2.128-2.355 2.128-3.945V14.09c0-4.872-1.553-9.7-4.382-13.661A1.038 1.038 0 0 0 3.378 0H0zm3.13 79.269v.301c0 4.041-.42 8.07-1.255 12.024l-.73 3.997a.783.783 0 0 1 .444.202l.576.531a2.74 2.74 0 0 0 1.86.733c.26 0 .52-.037.78-.113 1.2-.35 1.974-1.524 1.974-2.775v-.087l.571-2.71A58.234 58.234 0 0 0 8.605 79.35v-.08H3.13z" id="0chk1qtniV"/>
        <path d="M4.117 0C1.967 3.465.075 7.677.075 14.09c0 14.894-.829 14.869 3.03 17.94.83.66.623.845.623 8.311 0 3.882-3.653 2.813-3.653 7.376v2.156h8.02c.888-3.223 3.613-3.988 3.621-7.188.004-1.31.011-3.24.02-5.24a1.677 1.677 0 0 1-3.28-.491h-.001a1.677 1.677 0 0 1 3.284-.478c.009-2.203.018-4.383.022-5.818.008-3.19-3.796-4.672-3.796-8.62l.145-8.342c0-1.15.047-2.165.132-3.076a1.677 1.677 0 0 1 .323-3.323c.08 0 .16.006.239.017C9.56 4.42 10.802 2.738 11.845 0H4.117zm1.275 4.791a1.413 1.413 0 0 1-.55-1.92c.358-.643.668-1.166.668-1.166a1.412 1.412 0 0 1 1.217-.695A1.41 1.41 0 0 1 7.94 3.14c-.003.008-.294.5-.628 1.101a1.408 1.408 0 0 1-1.92.55zM2.184 21.772V14.09c0-2.67.186-4.996 1.1-7.675a1.408 1.408 0 0 1 1.793-.881 1.41 1.41 0 0 1 .88 1.792c-.79 2.32-.949 4.308-.949 6.764v7.682a1.412 1.412 0 1 1-2.824 0zm1.581 26.19a1.412 1.412 0 0 1-.462-1.944c.318-.516.613-.948 1.022-1.38a1.41 1.41 0 0 1 1.997-.053c.566.538.59 1.431.053 1.997-.242.257-.435.54-.667.917a1.41 1.41 0 0 1-1.204.672c-.252 0-.508-.067-.739-.21zM.033 79.268c.107 7.658.5 11.905 1.677 15.452l1.746-.774a4.989 4.989 0 0 1 2.026-.43c.342 0 .685.036 1.022.106l2.778.58a76.37 76.37 0 0 1-.493-4.482 173.58 173.58 0 0 1-.306-4.458h-.028a1.677 1.677 0 0 1-.14-3.348c-.039-.863-.074-1.746-.107-2.646H.033zm2.754 8.89-.595-5.562a1.411 1.411 0 0 1 1.253-1.555A1.413 1.413 0 0 1 5 82.296l.595 5.563a1.41 1.41 0 0 1-1.254 1.554l-.152.008a1.412 1.412 0 0 1-1.402-1.262z" id="57xs3hsr9Y"/>
        <path d="M0 1.677c0 .815.582 1.495 1.354 1.646.119-1.285.314-2.36.562-3.306A1.677 1.677 0 0 0 0 1.677" id="mhtyotlvnab"/>
        <path d="M0 1.677a1.678 1.678 0 0 0 3.28.491l.004-.883v-.087A1.677 1.677 0 0 0 0 1.678" id="kxnsqffwhae"/>
        <path d="M0 1.671c0 .914.731 1.658 1.642 1.677h.064A274.217 274.217 0 0 1 1.537 0C.677.07 0 .792 0 1.671" id="by6drzg6uah"/>
        <path d="M.844.695S.535 1.218.178 1.86A1.412 1.412 0 0 0 1.38 3.958h.063c.485-.01.952-.272 1.205-.727.334-.602.625-1.093.628-1.1A1.41 1.41 0 0 0 2.778.196 1.412 1.412 0 0 0 .844.694" id="7nu3hm6wuak"/>
        <path d="M1.1.957C.186 3.636 0 5.963 0 8.632v7.683a1.412 1.412 0 0 0 2.824 0V8.632c0-2.456.158-4.445.949-6.764a1.41 1.41 0 0 0-.88-1.792A1.413 1.413 0 0 0 1.1.957" id="zt8b5sfn2an"/>
        <path d="M1.232.44C.823.873.528 1.305.21 1.82a1.412 1.412 0 0 0 .462 1.943 1.41 1.41 0 0 0 1.943-.462c.232-.377.425-.66.667-.917A1.41 1.41 0 0 0 2.257 0c-.374 0-.746.147-1.025.44" id="g4tk7zzo8aq"/>
        <path d="M1.261.009A1.411 1.411 0 0 0 .008 1.564l.595 5.562c.077.725.69 1.262 1.402 1.262l.152-.008a1.41 1.41 0 0 0 1.254-1.554l-.595-5.563A1.413 1.413 0 0 0 1.416 0c-.05 0-.103.003-.155.009" id="t468ege22at"/>
        <path d="M1.83 0a1.866 1.866 0 0 0 .037 3.732 1.866 1.866 0 0 0 1.865-1.83v-.074C3.712.828 2.904.02 1.904 0H1.83z" id="dv9i1o1svaw"/>
        <path d="M0 1.866c0 1.018.815 1.846 1.828 1.866h.075A1.866 1.866 0 0 0 1.866 0C.836 0 0 .836 0 1.866" id="jqx5mgdwaaz"/>
        <path d="M0 1.866c0 1.018.815 1.847 1.828 1.866h.075A1.867 1.867 0 0 0 1.866 0C.836 0 0 .836 0 1.866" id="uw5ltt4slaC"/>
        <path d="M1.83 0a1.867 1.867 0 0 0 .037 3.732A1.866 1.866 0 0 0 1.904 0H1.83z" id="2zaajqk5laF"/>
        <path d="M1.813 0a1.866 1.866 0 0 0 .053 3.732A1.866 1.866 0 0 0 1.92 0h-.106z" id="ttx59hy3taI"/>
        <path d="M0 1.866c0 1.018.815 1.846 1.829 1.866h.075A1.866 1.866 0 0 0 1.867 0C.835 0 0 .836 0 1.866" id="nqay6x5fkaL"/>
        <linearGradient x1="-272.927%" y1="149.256%" x2="-191.292%" y2="149.256%" id="fpjrbkbr7B">
            <stop stop-color="#70151A" offset="0%"/>
            <stop stop-color="#49070B" offset="100%"/>
        </linearGradient>
        <linearGradient x1="-4155.228%" y1="2432.157%" x2="-3060.221%" y2="2432.157%" id="r4qbor2s3E">
            <stop stop-color="#801A1F" offset="0%"/>
            <stop stop-color="#5F1014" offset="100%"/>
        </linearGradient>
        <linearGradient x1="-2710.925%" y1="2297.773%" x2="-2058.147%" y2="2297.773%" id="djfxr6ukxH">
            <stop stop-color="#801A1F" offset="0%"/>
            <stop stop-color="#5F1014" offset="100%"/>
        </linearGradient>
        <linearGradient x1="-19356.291%" y1="7233.952%" x2="-14450.661%" y2="7233.952%" id="hn8nkey72K">
            <stop stop-color="#801A1F" offset="0%"/>
            <stop stop-color="#5F1014" offset="100%"/>
        </linearGradient>
        <linearGradient x1="-2749.015%" y1="2058.051%" x2="-2096.15%" y2="2058.051%" id="k8i4hbvkqN">
            <stop stop-color="#801A1F" offset="0%"/>
            <stop stop-color="#5F1014" offset="100%"/>
        </linearGradient>
        <linearGradient x1="-4577.809%" y1="1704.189%" x2="-3372.494%" y2="1704.189%" id="gjmn6staeQ">
            <stop stop-color="#801A1F" offset="0%"/>
            <stop stop-color="#5F1014" offset="100%"/>
        </linearGradient>
        <linearGradient x1="-2710.925%" y1="1651.955%" x2="-2058.147%" y2="1651.955%" id="kmjvtolajT">
            <stop stop-color="#801A1F" offset="0%"/>
            <stop stop-color="#5F1014" offset="100%"/>
        </linearGradient>
        <linearGradient x1="-1126.029%" y1="153.39%" x2="-871.574%" y2="153.39%" id="pn4e4kb31W">
            <stop stop-color="#70151A" offset="0%"/>
            <stop stop-color="#49070B" offset="100%"/>
        </linearGradient>
        <linearGradient x1="-631.897%" y1="157.174%" x2="-447.04%" y2="157.174%" id="ypm7j70erZ">
            <stop stop-color="#70151A" offset="0%"/>
            <stop stop-color="#49070B" offset="100%"/>
        </linearGradient>
        <linearGradient x1="-4266.566%" y1="2442.491%" x2="-3123.595%" y2="2442.491%" id="nrv0868siac">
            <stop stop-color="#993A36" offset="0%"/>
            <stop stop-color="#803936" offset="100%"/>
        </linearGradient>
        <linearGradient x1="-2536.779%" y1="2151.705%" x2="-1869.981%" y2="2151.705%" id="h2w7k3ie4af">
            <stop stop-color="#993A36" offset="0%"/>
            <stop stop-color="#803936" offset="100%"/>
        </linearGradient>
        <linearGradient x1="-4784.745%" y1="1706.961%" x2="-3501.221%" y2="1706.961%" id="1exgkvfefai">
            <stop stop-color="#993A36" offset="0%"/>
            <stop stop-color="#803936" offset="100%"/>
        </linearGradient>
        <linearGradient x1="-2289.759%" y1="2112.096%" x2="-1659.208%" y2="2112.096%" id="vd8d5mz1zal">
            <stop stop-color="#AB6C65" offset="0%"/>
            <stop stop-color="#976D65" offset="100%"/>
        </linearGradient>
        <linearGradient x1="-2001.484%" y1="516.239%" x2="-1432.567%" y2="516.239%" id="ivmsv2hs4ao">
            <stop stop-color="#AB6C65" offset="0%"/>
            <stop stop-color="#976D65" offset="100%"/>
        </linearGradient>
        <linearGradient x1="-2124.05%" y1="1754.676%" x2="-1527.333%" y2="1754.676%" id="mqx9ozeknar">
            <stop stop-color="#AB6C65" offset="0%"/>
            <stop stop-color="#976D65" offset="100%"/>
        </linearGradient>
        <linearGradient x1="-2253.036%" y1="725.386%" x2="-1612.614%" y2="725.386%" id="wsvfbegplau">
            <stop stop-color="#AB6C65" offset="0%"/>
            <stop stop-color="#976D65" offset="100%"/>
        </linearGradient>
        <linearGradient x1="4780.588%" y1="-150832.545%" x2="5367.316%" y2="-150832.545%" id="vqfm6hc6yax">
            <stop stop-color="#993A36" offset="0%"/>
            <stop stop-color="#803936" offset="100%"/>
        </linearGradient>
        <linearGradient x1="4780.005%" y1="-150832.534%" x2="5366.662%" y2="-150832.534%" id="u5ditfx9zaA">
            <stop stop-color="#993A36" offset="0%"/>
            <stop stop-color="#803936" offset="100%"/>
        </linearGradient>
        <linearGradient x1="4780.004%" y1="-150814.491%" x2="5366.662%" y2="-150814.491%" id="7b87szjdwaD">
            <stop stop-color="#993A36" offset="0%"/>
            <stop stop-color="#803936" offset="100%"/>
        </linearGradient>
        <linearGradient x1="4780.016%" y1="-150832.544%" x2="5366.673%" y2="-150832.544%" id="t2yurlb35aG">
            <stop stop-color="#993A36" offset="0%"/>
            <stop stop-color="#803936" offset="100%"/>
        </linearGradient>
        <linearGradient x1="4780.009%" y1="-150832.55%" x2="5366.666%" y2="-150832.55%" id="t03fo0btsaJ">
            <stop stop-color="#993A36" offset="0%"/>
            <stop stop-color="#803936" offset="100%"/>
        </linearGradient>
        <linearGradient x1="4779.445%" y1="-150832.528%" x2="5366.033%" y2="-150832.528%" id="qrkkqydipaM">
            <stop stop-color="#993A36" offset="0%"/>
            <stop stop-color="#803936" offset="100%"/>
        </linearGradient>
        <filter x="-12.5%" y="-12.5%" width="125%" height="125%" filterUnits="objectBoundingBox" id="xdhx4vlh4a">
            <feOffset dy="5" in="SourceAlpha" result="shadowOffsetOuter1"/>
            <feGaussianBlur stdDeviation="2.5" in="shadowOffsetOuter1" result="shadowBlurOuter1"/>
            <feColorMatrix values="0 0 0 0 0 0 0 0 0 0 0 0 0 0 0 0 0 0 0.2 0" in="shadowBlurOuter1" result="shadowMatrixOuter1"/>
            <feMerge>
                <feMergeNode in="shadowMatrixOuter1"/>
                <feMergeNode in="SourceGraphic"/>
            </feMerge>
        </filter>
        <circle id="7jvtjvg4zb" cx="72" cy="72" r="72"/>
    </defs>
    <g filter="url(#xdhx4vlh4a)" fill="none" fill-rule="evenodd">
        <circle stroke="#D35C9D" stroke-width="15" cx="72" cy="72" r="64.5" transform="translate(8)"/>
        <path d="M127.283 91.217a3.618 3.618 0 0 0-.562-.97l-2.876-3.547c-.15-.185-.057-.415.173-.538.243-.13.403-.352.403-.601v-.737c0-.399-.41-.725-.912-.725H89.808c-.502 0-.913.326-.913.725v.737c0 .249.16.47.404.6.23.124.323.354.173.54l-2.876 3.545c-.245.303-.432.63-.563.971-.144.373-.222.76-.222 1.155v48.943c0 .394.078.782.222 1.154.131.341.318.669.563.972l2.6 3.222c.372.46 1.013.738 1.701.738h31.522c.688 0 1.329-.278 1.7-.738l2.602-3.222c.245-.303.43-.63.562-.972.145-.372.222-.76.222-1.154V92.372c0-.394-.077-.782-.222-1.155" fill="#EEE"/>
        <g transform="translate(85.81 93.106)">
            <mask id="vvmac4vocd" fill="#fff">
                <use xlink:href="#xw6d771iuc"/>
            </mask>
            <path d="M42.642-.035H-2.903V2.32c8.553-.858 17.07 1.1 24.54 10.161 8.4 10.852 10.997 13.597 21.005 13.783V-.035z" fill="#9DCA55" mask="url(#vvmac4vocd)"/>
        </g>
        <g transform="translate(85.81 93.106)">
            <mask id="njln1dy0bf" fill="#fff">
                <use xlink:href="#571jndb9ne"/>
            </mask>
            <path d="M16.141 19.137C9.494 13.39 4.12 13.395-2.903 16.011v32.04h45.545V30.608c-10.356 1.587-15.167-.747-26.5-11.47" fill="#9DCA55" mask="url(#njln1dy0bf)"/>
        </g>
        <g transform="translate(85.81 93.106)">
            <mask id="g0yqddv0sh" fill="#fff">
                <use xlink:href="#tf33k6s2fg"/>
            </mask>
            <path d="M21.636 12.481C14.166 3.42 5.65 1.432-2.904 2.291v13.721c7.024-2.616 12.398-2.623 19.045 3.125 11.334 10.723 16.146 13.057 26.501 11.47v-4.342c-10.008-.187-12.605-2.932-21.006-13.784" fill="#FEFEFE" mask="url(#g0yqddv0sh)"/>
        </g>
        <g transform="translate(85.81 93.106)">
            <mask id="2gwkd558oj" fill="#fff">
                <use xlink:href="#ffsvlb7uri"/>
            </mask>
            <path d="M7.949 56.414c-.907 0-1.82-.06-2.717-.177a4.889 4.889 0 0 1-1.542-.479c-.866-.4-1.6-1.026-2.308-1.632-.61-.522-1.186-1.013-1.797-1.311-.745-.349-1.559-.601-2.42-.87-.905-.28-1.84-.572-2.717-.998-.983-.462-1.77-1.037-2.395-1.75-3.38-3.864-5.261-8.87-5.299-14.092l.1-.023a21.991 21.991 0 0 1 2.154-9.618C-7.718 18.585-.925 11.622 5.724 11.622c1.357 0 2.661.293 3.875.871 1.544.735 2.726 1.597 3.869 2.43.274.201.544.398.814.59.849-2.944 1.8-5.022 2.838-6.194 1.74-1.967 3.246-2.963 4.473-2.963l.114.003c.503.002.975.233 1.296.636.702.878.428 2.204.394 2.352l-.065.298c.84-.195 1.697-.295 2.56-.295 1.459 0 2.867.293 4.187.87l1.475.645-.672 1.497c-1.443 3.226-3.883 5.715-6.755 7.075 7.374 4.168 7.62 15.736 3.495 24.405C23.986 51.48 16.265 56.414 7.95 56.414" fill="#FEFEFE" mask="url(#2gwkd558oj)"/>
        </g>
        <g transform="translate(85.81 93.106)">
            <mask id="v0wy2sgqul" fill="#fff">
                <use xlink:href="#jp1v88reek"/>
            </mask>
            <path d="M-9.716 26.07C-6.181 18.643 2.178 10.526 8.993 13.77c2.817 1.34 4.426 3.213 7.123 4.496 2.213 1.054 4.63 1.098 6.722 2.093 7.457 3.55 7.28 14.955 3.508 22.877-3.92 8.237-12.518 12.7-20.932 11.602-1.99-.26-3.246-2.358-5.151-3.265-2.488-1.184-5.339-1.3-7.05-3.259-5.144-5.88-6.567-14.6-2.93-22.242" fill="#9DCA55" mask="url(#v0wy2sgqul)"/>
        </g>
        <g transform="translate(85.81 93.106)">
            <mask id="n0hb6uo62n" fill="#fff">
                <use xlink:href="#mbdyw9e6vm"/>
            </mask>
            <path d="M26.823 24.04c-.087 3.583-1.022 7.343-2.543 10.538-3.92 8.237-12.518 12.7-20.931 11.601-1.992-.26-10.49-4.565-12.202-6.523a19.81 19.81 0 0 1-2.98-4.562c.034 4.858 1.783 9.554 4.95 13.174 1.712 1.957 4.562 2.074 7.049 3.258 1.906.908 3.161 3.005 5.153 3.266 8.412 1.098 17.01-3.365 20.932-11.602 2.871-6.034 3.655-14.085.572-19.15" fill="#9DCA55" mask="url(#n0hb6uo62n)"/>
        </g>
        <g transform="translate(85.81 93.106)">
            <mask id="s2c8jsowqp" fill="#fff">
                <use xlink:href="#xdn6u8t48o"/>
            </mask>
            <path d="M8.04 15.77s.983.205 2.292.939c1.324.701 2.841 1.945 4.459 2.818 1.581.924 3.446 1.247 4.868 1.742 1.43.455 2.227 1.09 2.227 1.09s-.956-.246-2.384-.398c-.716-.084-1.563-.163-2.484-.346-.461-.096-.938-.2-1.424-.38a10.2 10.2 0 0 1-.698-.28c-.256-.12-.47-.218-.698-.344-1.803-.995-3.174-2.404-4.269-3.321-1.084-.937-1.889-1.52-1.889-1.52" fill="#82B042" mask="url(#s2c8jsowqp)"/>
        </g>
        <g transform="translate(85.81 93.106)">
            <mask id="a70w48w68r" fill="#fff">
                <use xlink:href="#obma7zq8uq"/>
            </mask>
            <path d="M20.458 26.06c-1.61 0-3.395-.49-5.468-1.475a.724.724 0 1 1 .623-1.308c3.316 1.58 5.635 1.75 7.75.573a.723.723 0 1 1 .704 1.264 7.255 7.255 0 0 1-3.61.947" fill="#C0DA7F" mask="url(#a70w48w68r)"/>
        </g>
        <g transform="translate(85.81 93.106)">
            <mask id="vymx1918zt" fill="#fff">
                <use xlink:href="#fghqowd9ns"/>
            </mask>
            <path d="m-7.6 30.571-.119-.008a.895.895 0 0 1-.77-1.005c.508-3.86 6.411-11.073 11.04-12.435a.896.896 0 1 1 .506 1.72c-3.824 1.124-9.35 7.757-9.771 10.95a.895.895 0 0 1-.887.778" fill="#9DCA55" mask="url(#vymx1918zt)"/>
        </g>
        <g transform="translate(85.81 93.106)">
            <mask id="b0d2etjgpv" fill="#fff">
                <use xlink:href="#ijznfic2zu"/>
            </mask>
            <path d="M15.127 20.094c-.156.285-.532.16-.468-.154.515-2.535 1.736-7.672 3.518-9.685 2.409-2.72 3.489-2.482 3.489-2.482l-.115 2.247s-1.742-.52-3.74 3.06c-1.268 2.274-1.911 5.6-2.684 7.014" fill="#3C2912" mask="url(#b0d2etjgpv)"/>
        </g>
        <g transform="translate(85.81 93.106)">
            <mask id="fsziufi1vx" fill="#fff">
                <use xlink:href="#jhncob9b2w"/>
            </mask>
            <path d="M21.666 7.773c.399-.05.462.784.353 1.262-.108.478-.183 1.01-.468.985-.285-.026-.466-.693-.43-1.102.036-.409.238-1.106.545-1.145" fill="#5D3F21" mask="url(#fsziufi1vx)"/>
        </g>
        <g transform="translate(85.81 93.106)">
            <mask id="uoybs9mf6z" fill="#fff">
                <use xlink:href="#m5b9c2w6uy"/>
            </mask>
            <path d="m29.681 11.588-.087.196c-2.654 5.93-8.975 8.909-14.12 6.655l-.168-.074.087-.195c2.654-5.93 8.976-8.91 14.12-6.656l.168.074z" fill="#5A7E34" mask="url(#uoybs9mf6z)"/>
        </g>
        <path d="M90.898 147.401h31.52c.69 0 1.33-.278 1.701-.738l.055-.067h-35.03l.053.067c.371.46 1.012.738 1.7.738M124.018 86.16h-34.72c.23.124.324.353.174.539h34.373c-.15-.186-.058-.415.173-.539" fill="#DBDCDC"/>
        <path d="M89.254 86.136a.7.7 0 0 0 .044.026c.172.092.267.243.243.39a.253.253 0 0 0 .004-.051c-.003-.13-.095-.258-.246-.34a.711.711 0 0 1-.045-.025M127.505 141.361c-.006.378-.083.75-.222 1.108-.131.341-.317.67-.562.972l-.315.39.317-.39c.245-.303.431-.631.563-.972.136-.358.213-.73.219-1.108" fill="#E2E2E1"/>
        <path d="M127.505 93.107h-1.693v26.139c.54.044 1.104.076 1.693.099V93.107zM127.505 123.85a39.75 39.75 0 0 1-1.693.191v17.117h1.693V123.85z" fill="#9DCA55"/>
        <path d="M125.812 119.246v4.795c.55-.05 1.112-.114 1.693-.191v-4.505a37.99 37.99 0 0 1-1.693-.1" fill="#FEFEFE"/>
        <path d="m89.473 86.699-.001.001-.716.882.716-.882.001-.001" fill="#E2E2E1"/>
        <path d="M116.258 106.361a14.502 14.502 0 0 1-3.79 4.603v.876c1.345 1.552 2.568 2.804 3.79 3.81v-9.289zm0-13.255h-3.79v9.378a10.32 10.32 0 0 1 3.421.843l.37.162V93.106zM115.965 122.764c.542 4.57-.425 9.755-2.532 14.184a22.19 22.19 0 0 1-.964 1.805v2.405h3.79v-18.275a20.193 20.193 0 0 1-.294-.12" fill="#9DCA55"/>
        <path d="M112.469 111.84v2.693c1.993 2.124 3.115 5.025 3.496 8.23.097.041.196.08.293.12v-7.233c-1.222-1.006-2.445-2.258-3.79-3.81" fill="#FEFEFE"/>
        <path d="M112.469 114.533v2.24c3.268 4.85 2.689 12.768 0 18.887v3.093c.347-.583.669-1.185.964-1.804 2.108-4.43 3.074-9.616 2.532-14.185-.38-3.206-1.503-6.107-3.496-8.231m0-12.05v1.417c.97.08 1.93.317 2.854.72l.169.075-.087.195a13.331 13.331 0 0 1-2.936 4.19v1.884a14.506 14.506 0 0 0 3.79-4.603v-2.872l-.37-.162a10.32 10.32 0 0 0-3.42-.843" fill="#FEFEFE"/>
        <path d="M112.469 103.9v5.18a13.334 13.334 0 0 0 2.936-4.19l.087-.195-.17-.074a8.935 8.935 0 0 0-2.853-.721" fill="#5A7E34"/>
        <path d="M116.258 115.65v7.233c2.245.889 4.477 1.28 6.985 1.28h.004c.822 0 1.674-.042 2.565-.122v-4.796c-4.083-.335-6.817-1.344-9.554-3.595M116.258 103.489v2.872c.154-.29.299-.588.435-.893l.671-1.496-1.106-.483zM87.855 95.249v10.149c.874-.31 1.757-.52 2.64-.614v-6.802a1.765 1.765 0 1 1 3.531 0v7.093c.473.136.934.31 1.384.525.737.35 1.391.73 1.999 1.123V97.53c-3.114-1.447-6.317-2.13-9.554-2.282" fill="#FEFEFE"/>
        <path d="M94.026 105.075v1.48c.261.091.52.198.777.32.983.468 1.82 1 2.606 1.55v-1.703a17.555 17.555 0 0 0-2-1.122 8.97 8.97 0 0 0-1.383-.525zm-3.53-.291c-.884.094-1.767.304-2.641.614v1.515c.876-.355 1.76-.598 2.641-.707v-1.422z" fill="#FEFEFE"/>
        <path d="M94.026 109.007v30.305a20.073 20.073 0 0 0 3.383-.702v-26.752c-.623-.532-1.174-1.047-1.67-1.462a33.62 33.62 0 0 0-1.713-1.39zm0-2.451v2.365a9.676 9.676 0 0 1 2.116.894c.405.215.828.48 1.267.77v-2.16c-.787-.55-1.623-1.082-2.606-1.55a7.591 7.591 0 0 0-.777-.32zm-3.53-.35c-.88.11-1.765.352-2.641.707v3.487c.17-.064.34-.121.507-.17a.895.895 0 1 1 .506 1.72 6.453 6.453 0 0 0-1.013.402v26.56c.553.202 1.003.334 1.304.374.446.058.89.1 1.337.128v-33.208z" fill="#9DCA55"/>
        <path d="M87.855 138.912v2.248h2.838a1.76 1.76 0 0 1-.197-.812v-.934c-.446-.028-.891-.07-1.337-.128-.301-.04-.751-.171-1.304-.374zm9.554-.302c-1.104.33-2.237.566-3.383.702v1.036c0 .293-.07.57-.197.812h3.58v-2.55z" fill="#9DCA55"/>
        <path d="M94.026 108.92v.087c.294.22.931.713 1.714 1.39" fill="#A3C471"/>
        <path d="M88.615 110.193a.906.906 0 0 0-.253.036c-.168.05-.337.107-.507.17v1.953a6.453 6.453 0 0 1 1.013-.403.896.896 0 0 0-.253-1.756" fill="#9DCA55"/>
        <path d="M93.829 141.16h-3.136a1.764 1.764 0 0 0 3.136 0" fill="#EEF0F8"/>
        <path d="M92.261 96.216c-.975 0-1.765.79-1.765 1.766v6.802a9.88 9.88 0 0 1 1.039-.056c.854 0 1.688.117 2.491.347v-7.093c0-.976-.79-1.766-1.765-1.766" fill="#FEFEFE"/>
        <path d="M91.535 104.728c-.346 0-.693.019-1.04.056v1.422a8.392 8.392 0 0 1 1.04-.065c.842 0 1.675.132 2.491.415v-1.48a9.015 9.015 0 0 0-2.491-.348" fill="#FEFEFE"/>
        <path d="M91.535 106.14c-.345 0-.692.023-1.039.066v33.208a19.891 19.891 0 0 0 3.53-.102v-30.305l-.175-.13s.062.012.175.043v-2.364a7.546 7.546 0 0 0-2.491-.415" fill="#9DCA55"/>
        <path d="M94.026 139.312a19.72 19.72 0 0 1-3.53.102v.934c0 .293.071.57.197.812h3.136a1.76 1.76 0 0 0 .197-.812v-1.036z" fill="#9DCA55"/>
        <path d="m93.85 108.876.176.13v-.086c-.113-.03-.175-.044-.175-.044" fill="#CDA"/>
        <path d="M97.409 110.585c-.439-.29-.862-.556-1.267-.77a9.67 9.67 0 0 0-2.116-.895" fill="#A3C471"/>
        <path d="M112.633 117.146c2.932 4.816 2.368 12.333-.164 18.248v.266c2.689-6.119 3.267-14.037 0-18.886" fill="#8AB947"/>
        <path d="M76.89 83.208a6.873 6.873 0 0 0 2.044-4.898V64.226a25.605 25.605 0 0 0-5.17-15.428l-.589-.78-4.852-6.427a4.492 4.492 0 0 1-.908-2.708l.001-2.553H53.92v2.554c0 .977-.319 1.927-.908 2.707l-4.852 6.427-.589.78a25.598 25.598 0 0 0-5.17 15.427V78.31c0 2.104.942 3.987 2.427 5.253.758.646 1.226 1.568 1.226 2.565v2.397c0 1.38-.49 2.387-1.355 2.988a5.33 5.33 0 0 0-2.299 4.388v33.806c0 4.04.421 8.07 1.255 12.023l.572 2.71a4.872 4.872 0 0 0 4.871 4.87c1.116 0 2.14-.378 2.961-1.009l4.52.924A4.868 4.868 0 0 0 60.972 152a4.869 4.869 0 0 0 4.42-2.835l3.547-1.148a4.846 4.846 0 0 0 3.297 1.294c2.69 0 4.872-2.181 4.872-4.872l.572-2.709a58.24 58.24 0 0 0 1.254-12.023V95.9a5.32 5.32 0 0 0-1.768-3.965c-.736-.663-1.208-1.567-1.208-2.557v-3.873c0-.859.323-1.694.932-2.298M53.92 34.605h13.496v-1.167H53.92z" fill="#EEE"/>
        <g transform="translate(44.518 50.136)">
            <mask id="9m5c3tndrC" fill="#fff">
                <use xlink:href="#iiz3ou50bA"/>
            </mask>
            <path d="M13.489 0c-1.043 2.738-2.286 4.42-3.042 7.314a1.677 1.677 0 0 1-.24 3.337h.001c-.11 0-.218-.01-.323-.031a33.198 33.198 0 0 0-.132 3.076l-.144 8.341c0 3.949 3.804 5.43 3.795 8.62-.004 1.436-.013 3.616-.022 5.819a1.687 1.687 0 0 1-.004.97c-.007 2-.015 3.929-.018 5.239-.008 3.2-2.733 3.965-3.622 7.188h17.084v-1.59c0-1.75-.844-3.3-2.144-4.275-.504-.377-.833-.942-.833-1.572V31.935c0-.498.214-.972.59-1.297a6.878 6.878 0 0 0 2.387-5.216V14.09c0-6.375-1.439-10.63-3.13-14.09H13.49zm4.24 21.772a1.677 1.677 0 0 1 3.354 0 1.677 1.677 0 0 1-3.354 0zm1.265 24.936a1.677 1.677 0 1 1 3.354 0 1.677 1.677 0 0 1-3.354 0zM5.228 0c-.333 0-.65.158-.845.429A23.635 23.635 0 0 0 0 14.09v14.085c0 1.759.965 3.374 2.518 4.211a2.137 2.137 0 0 1 1.135 1.877v6.435c0 .901-.57 1.703-1.418 2C.913 43.16 0 44.368 0 45.77v4.103h1.718v-2.156c0-4.563 3.654-3.494 3.654-7.376 0-7.466.207-7.65-.624-8.312-3.858-3.07-3.03-3.045-3.03-17.94C1.718 7.678 3.61 3.466 5.761 0h-.533zm4.624 79.269c.033.9.068 1.783.106 2.647a1.678 1.678 0 0 1 1.817 1.671c0 .916-.736 1.661-1.648 1.676.09 1.583.191 3.076.306 4.458a76.37 76.37 0 0 0 .493 4.483l-2.778-.581a4.989 4.989 0 0 0-3.048.324l-1.747.774c-1.176-3.547-1.57-7.793-1.677-15.452H0v.08c0 4.04.42 8.07 1.255 12.024l.572 2.71c0 1.692 1.202 2.884 2.58 2.968a2.726 2.726 0 0 0 1.844-.566l.367-.282c.195-.149.432-.228.673-.228.073 0 .147.008.22.022l5.468 1.117c.34.07.626.294.775.606l.132.275c.325.68.865 1.259 1.563 1.545.346.14.69.205 1.02.205 1.107 0 2.075-.724 2.536-1.72l.133-.287c.13-.28.37-.493.663-.589l4.713-1.524a.777.777 0 0 1 .24-.038c.027 0 .055.001.084.004l.73-3.997a58.242 58.242 0 0 0 1.254-12.024v-.301H9.852zm7.877 9.711a1.677 1.677 0 0 1 3.354 0 1.677 1.677 0 1 1-3.354 0z" fill="url(#fpjrbkbr7B)" mask="url(#9m5c3tndrC)"/>
        </g>
        <g transform="translate(54.404 57.45)">
            <mask id="49ea4ixx4F" fill="#fff">
                <use xlink:href="#df3i1q7yfD"/>
            </mask>
            <path d="M0 3.306A1.677 1.677 0 0 0 2 1.66C2 .815 1.375.116.562 0A20.415 20.415 0 0 0 0 3.306" fill="url(#r4qbor2s3E)" mask="url(#49ea4ixx4F)"/>
        </g>
        <g transform="translate(62.247 70.232)">
            <mask id="07rt6u71mI" fill="#fff">
                <use xlink:href="#9rf3eg1dhG"/>
            </mask>
            <path d="M0 1.676a1.678 1.678 0 0 0 3.354.035v-.07A1.677 1.677 0 0 0 0 1.677" fill="url(#djfxr6ukxH)" mask="url(#07rt6u71mI)"/>
        </g>
        <g transform="translate(57.71 86.612)">
            <mask id="iqe5alt6oL" fill="#fff">
                <use xlink:href="#f5ne76tvrJ"/>
            </mask>
            <path d="M.209.97A1.508 1.508 0 0 0 .213 0L.209.97" fill="url(#hn8nkey72K)" mask="url(#iqe5alt6oL)"/>
        </g>
        <g transform="translate(63.512 95.167)">
            <mask id="btheb5fu8O" fill="#fff">
                <use xlink:href="#0jqk8xdukM"/>
            </mask>
            <path d="M0 1.677a1.677 1.677 0 1 0 3.354 0 1.677 1.677 0 0 0-3.354 0" fill="url(#k8i4hbvkqN)" mask="url(#btheb5fu8O)"/>
        </g>
        <g transform="translate(54.476 132.046)">
            <mask id="tl6082w6oR" fill="#fff">
                <use xlink:href="#kzjl280nsP"/>
            </mask>
            <path d="M0 .006c.051 1.153.108 2.27.169 3.347.9-.014 1.629-.74 1.648-1.64v-.07A1.678 1.678 0 0 0 .14 0 1.62 1.62 0 0 0 0 .006" fill="url(#gjmn6staeQ)" mask="url(#tl6082w6oR)"/>
        </g>
        <g transform="translate(62.247 137.44)">
            <mask id="ev63ejttrU" fill="#fff">
                <use xlink:href="#bjnn63i5gS"/>
            </mask>
            <path d="M0 1.677a1.678 1.678 0 0 0 3.354.035v-.07A1.677 1.677 0 0 0 0 1.677" fill="url(#kmjvtolajT)" mask="url(#ev63ejttrU)"/>
        </g>
        <path fill="#EFEFEE" d="M42.4 129.405h36.534v-29.396H42.4z"/>
        <g>
            <path d="M55.439 111.67c10.161-1.878 12.25-2.578 17.016-10.714H42.4v19.232c2.768-4.129 6.642-7.129 13.039-8.518" fill="#B53427"/>
            <path d="M75.084 100.956c-3.79 9.938-6.249 12.327-18.106 16.49-5.736 2.298-7.848 5.706-9.15 11.012h31.106V100.956h-3.85z" fill="#B53427"/>
            <path d="M56.978 117.445c11.857-4.162 14.316-6.551 18.106-16.489h-2.63c-4.765 8.136-6.853 8.836-17.015 10.714-6.397 1.39-10.272 4.39-13.039 8.518v8.27h5.428c1.302-5.305 3.414-8.713 9.15-11.013" fill="#EFEFEE"/>
            <path d="M78.298 138.294a58.83 58.83 0 0 1-.619 3.437l-.571 2.708.572-2.71c.24-1.14.446-2.285.618-3.435zm-5.123-90.276.59.78a25.605 25.605 0 0 1 5.17 15.428v14.085-14.087a25.6 25.6 0 0 0-5.17-15.426l-.59-.78zM67.416 36.33H62.87h4.547v2.553a3.566 3.566 0 0 0 0 .02V36.33z" fill="#EEE"/>
        </g>
        <g transform="translate(68.21 50.136)">
            <mask id="h5n5sd4umX" fill="#fff">
                <use xlink:href="#0chk1qtniV"/>
            </mask>
            <path d="M0 0c1.691 3.46 3.13 7.715 3.13 14.09v11.332a6.878 6.878 0 0 1-2.387 5.216c-.377.325-.59.799-.59 1.297v10.5c0 .63.33 1.196.833 1.573a5.328 5.328 0 0 1 2.144 4.275v1.59h5.475v-4.096a3.236 3.236 0 0 0-1.811-2.906 2.103 2.103 0 0 1-1.166-1.892v-7.131c0-.67.318-1.294.849-1.696 1.268-.958 2.128-2.355 2.128-3.945V14.09c0-4.872-1.553-9.7-4.382-13.661A1.038 1.038 0 0 0 3.378 0H0zm3.13 79.269v.301c0 4.041-.42 8.07-1.255 12.024l-.73 3.997a.783.783 0 0 1 .444.202l.576.531a2.74 2.74 0 0 0 1.86.733c.26 0 .52-.037.78-.113 1.2-.35 1.974-1.524 1.974-2.775v-.087l.571-2.71A58.234 58.234 0 0 0 8.605 79.35v-.08H3.13z" fill="url(#pn4e4kb31W)" mask="url(#h5n5sd4umX)"/>
        </g>
        <path d="M68.127 34.605H53.31a.865.865 0 0 0-.863.863c0 .474.389.862.863.862h14.817a.865.865 0 0 0 .862-.862.865.865 0 0 0-.862-.863" fill="#D33E2E"/>
        <path fill="#EEE" d="M62.84 36.33h-8.92v.657-.657z"/>
        <g>
            <path d="M66.933 24h-12.43a2.106 2.106 0 0 0-2.106 2.106v6.393c0 .519.42.94.939.94H68.1c.52 0 .939-.421.939-.94v-6.393A2.106 2.106 0 0 0 66.933 24" fill="#D33E2E"/>
            <path d="M54.785 28.312a.815.815 0 0 0-.815.815v4.31h1.63v-4.31a.814.814 0 0 0-.815-.815M57.752 28.312a.815.815 0 0 0-.816.815v4.31h1.63v-4.31a.814.814 0 0 0-.814-.815M60.718 28.312a.815.815 0 0 0-.815.815v4.31h1.63v-4.31a.815.815 0 0 0-.815-.815M63.684 28.312a.815.815 0 0 0-.815.815v4.31h1.63v-4.31a.815.815 0 0 0-.815-.815M66.651 28.312a.815.815 0 0 0-.815.815v4.31h1.63v-4.31a.815.815 0 0 0-.815-.815" fill="#AF3125"/>
            <path d="M56.936 25.083h-2.151a1.06 1.06 0 1 0 0 2.118h2.151a1.059 1.059 0 1 0 0-2.118" fill="#F09586"/>
        </g>
        <g transform="translate(46.162 50.136)">
            <mask id="rrgjr85xnaa" fill="#fff">
                <use xlink:href="#57xs3hsr9Y"/>
            </mask>
            <path d="M4.117 0C1.967 3.465.075 7.677.075 14.09c0 14.894-.829 14.869 3.03 17.94.83.66.623.845.623 8.311 0 3.882-3.653 2.813-3.653 7.376v2.156h8.02c.888-3.223 3.613-3.988 3.621-7.188.004-1.31.011-3.24.02-5.24a1.677 1.677 0 0 1-3.28-.491h-.001a1.677 1.677 0 0 1 3.284-.478c.009-2.203.018-4.383.022-5.818.008-3.19-3.796-4.672-3.796-8.62l.145-8.342c0-1.15.047-2.165.132-3.076a1.677 1.677 0 0 1 .323-3.323c.08 0 .16.006.239.017C9.56 4.42 10.802 2.738 11.845 0H4.117zm1.275 4.791a1.413 1.413 0 0 1-.55-1.92c.358-.643.668-1.166.668-1.166a1.412 1.412 0 0 1 1.217-.695A1.41 1.41 0 0 1 7.94 3.14c-.003.008-.294.5-.628 1.101a1.408 1.408 0 0 1-1.92.55zM2.184 21.772V14.09c0-2.67.186-4.996 1.1-7.675a1.408 1.408 0 0 1 1.793-.881 1.41 1.41 0 0 1 .88 1.792c-.79 2.32-.949 4.308-.949 6.764v7.682a1.412 1.412 0 1 1-2.824 0zm1.581 26.19a1.412 1.412 0 0 1-.462-1.944c.318-.516.613-.948 1.022-1.38a1.41 1.41 0 0 1 1.997-.053c.566.538.59 1.431.053 1.997-.242.257-.435.54-.667.917a1.41 1.41 0 0 1-1.204.672c-.252 0-.508-.067-.739-.21zM.033 79.268c.107 7.658.5 11.905 1.677 15.452l1.746-.774a4.989 4.989 0 0 1 2.026-.43c.342 0 .685.036 1.022.106l2.778.58a76.37 76.37 0 0 1-.493-4.482 173.58 173.58 0 0 1-.306-4.458h-.028a1.677 1.677 0 0 1-.14-3.348c-.039-.863-.074-1.746-.107-2.646H.033zm2.754 8.89-.595-5.562a1.411 1.411 0 0 1 1.253-1.555A1.413 1.413 0 0 1 5 82.296l.595 5.563a1.41 1.41 0 0 1-1.254 1.554l-.152.008a1.412 1.412 0 0 1-1.402-1.262z" fill="url(#ypm7j70erZ)" mask="url(#rrgjr85xnaa)"/>
        </g>
        <g transform="translate(53.05 57.433)">
            <mask id="bq0kcnv3bad" fill="#fff">
                <use xlink:href="#mhtyotlvnab"/>
            </mask>
            <path d="M0 1.677c0 .815.582 1.495 1.354 1.646.119-1.285.314-2.36.562-3.306A1.677 1.677 0 0 0 0 1.677" fill="url(#nrv0868siac)" mask="url(#bq0kcnv3bad)"/>
        </g>
        <g transform="translate(54.617 85.413)">
            <mask id="y3h426ddzag" fill="#fff">
                <use xlink:href="#kxnsqffwhae"/>
            </mask>
            <path d="M0 1.677a1.678 1.678 0 0 0 3.28.491l.004-.883v-.087A1.677 1.677 0 0 0 0 1.678" fill="url(#h2w7k3ie4af)" mask="url(#y3h426ddzag)"/>
        </g>
        <g transform="translate(52.94 132.052)">
            <mask id="ad4d0pvsraj" fill="#fff">
                <use xlink:href="#by6drzg6uah"/>
            </mask>
            <path d="M0 1.671c0 .914.731 1.658 1.642 1.677h.064A274.217 274.217 0 0 1 1.537 0C.677.07 0 .792 0 1.671" fill="url(#1exgkvfefai)" mask="url(#ad4d0pvsraj)"/>
        </g>
        <g transform="translate(50.827 51.146)">
            <mask id="efr693kxxam" fill="#fff">
                <use xlink:href="#7nu3hm6wuak"/>
            </mask>
            <path d="M.844.695S.535 1.218.178 1.86A1.412 1.412 0 0 0 1.38 3.958h.063c.485-.01.952-.272 1.205-.727.334-.602.625-1.093.628-1.1A1.41 1.41 0 0 0 2.778.196 1.412 1.412 0 0 0 .844.694" fill="url(#vd8d5mz1zal)" mask="url(#efr693kxxam)"/>
        </g>
        <g transform="translate(48.346 55.594)">
            <mask id="x8r1ub3qkap" fill="#fff">
                <use xlink:href="#zt8b5sfn2an"/>
            </mask>
            <path d="M1.1.957C.186 3.636 0 5.963 0 8.632v7.683a1.412 1.412 0 0 0 2.824 0V8.632c0-2.456.158-4.445.949-6.764a1.41 1.41 0 0 0-.88-1.792A1.413 1.413 0 0 0 1.1.957" fill="url(#ivmsv2hs4ao)" mask="url(#x8r1ub3qkap)"/>
        </g>
        <g transform="translate(49.255 94.334)">
            <mask id="5lq2uv8osas" fill="#fff">
                <use xlink:href="#g4tk7zzo8aq"/>
            </mask>
            <path d="M1.232.44C.823.873.528 1.305.21 1.82a1.412 1.412 0 0 0 .462 1.943 1.41 1.41 0 0 0 1.943-.462c.232-.377.425-.66.667-.917A1.41 1.41 0 0 0 2.257 0c-.374 0-.746.147-1.025.44" fill="url(#mqx9ozeknar)" mask="url(#5lq2uv8osas)"/>
        </g>
        <g transform="translate(48.346 131.169)">
            <mask id="r7therr2bav" fill="#fff">
                <use xlink:href="#t468ege22at"/>
            </mask>
            <path d="M1.261.009A1.411 1.411 0 0 0 .008 1.564l.595 5.562c.077.725.69 1.262 1.402 1.262l.152-.008a1.41 1.41 0 0 0 1.254-1.554l-.595-5.563A1.413 1.413 0 0 0 1.416 0c-.05 0-.103.003-.155.009" fill="url(#wsvfbegplau)" mask="url(#r7therr2bav)"/>
        </g>
        <g transform="translate(52.838 57.34)">
            <mask id="6f6p9n2ghay" fill="#fff">
                <use xlink:href="#dv9i1o1svaw"/>
            </mask>
            <path d="M1.83 0a1.866 1.866 0 0 0 .037 3.732 1.866 1.866 0 0 0 1.865-1.83v-.074C3.712.828 2.904.02 1.904 0H1.83z" fill="url(#vqfm6hc6yax)" mask="url(#6f6p9n2ghay)"/>
        </g>
        <g transform="translate(54.484 85.238)">
            <mask id="rzpfprwthaB" fill="#fff">
                <use xlink:href="#jqx5mgdwaaz"/>
            </mask>
            <path d="M0 1.866c0 1.018.815 1.846 1.828 1.866h.075A1.866 1.866 0 0 0 1.866 0C.836 0 0 .836 0 1.866" fill="url(#u5ditfx9zaA)" mask="url(#rzpfprwthaB)"/>
        </g>
        <g transform="translate(62.012 70.055)">
            <mask id="6xuo3qoryaE" fill="#fff">
                <use xlink:href="#uw5ltt4slaC"/>
            </mask>
            <path d="M0 1.866c0 1.018.815 1.847 1.828 1.866h.075A1.867 1.867 0 0 0 1.866 0C.836 0 0 .836 0 1.866" fill="url(#7b87szjdwaD)" mask="url(#6xuo3qoryaE)"/>
        </g>
        <g transform="translate(63.213 94.98)">
            <mask id="frsaolfhjaH" fill="#fff">
                <use xlink:href="#2zaajqk5laF"/>
            </mask>
            <path d="M1.83 0a1.867 1.867 0 0 0 .037 3.732A1.866 1.866 0 0 0 1.904 0H1.83z" fill="url(#t2yurlb35aG)" mask="url(#frsaolfhjaH)"/>
        </g>
        <g transform="translate(52.788 131.926)">
            <mask id="b1na48bksaK" fill="#fff">
                <use xlink:href="#ttx59hy3taI"/>
            </mask>
            <path d="M1.813 0a1.866 1.866 0 0 0 .053 3.732A1.866 1.866 0 0 0 1.92 0h-.106z" fill="url(#t03fo0btsaJ)" mask="url(#b1na48bksaK)"/>
        </g>
        <g transform="translate(62.075 137.303)">
            <mask id="dfowoljiaaN" fill="#fff">
                <use xlink:href="#nqay6x5fkaL"/>
            </mask>
            <path d="M0 1.866c0 1.018.815 1.846 1.829 1.866h.075A1.866 1.866 0 0 0 1.867 0C.835 0 0 .836 0 1.866" fill="url(#qrkkqydipaM)" mask="url(#dfowoljiaaN)"/>
        </g>
        <path stroke="#D35C9D" stroke-width="15" stroke-linecap="round" d="M37.6 114.453 122.453 29.6"/>
    </g>
</svg>
