<svg width="160" height="160" viewBox="0 0 160 160" xmlns="http://www.w3.org/2000/svg" xmlns:xlink="http://www.w3.org/1999/xlink">
    <defs>
        <path id="g5tvlefknc" d="M0 0h48.3v112H0z"/>
        <path d="M13.693 0a5.71 5.71 0 0 0-.258 1.683v52.019a31.993 31.993 0 0 1 11.173-12.12c.369-1.476.766-2.968 1.19-4.477 2.053-6.745 3.747-12.413 5.084-17.442V1.683c0-.574-.091-1.14-.257-1.683H13.693zM.258 0A5.71 5.71 0 0 0 0 1.683v91.064c0 .573.09 1.139.258 1.683h2.366a5.737 5.737 0 0 1-.256-1.683V1.683c0-.574.09-1.14.256-1.683H.258zm13.177 92.747c0 .573.09 1.139.258 1.683h9.016a31.876 31.876 0 0 1-9.274-10.806v9.123z" id="zutf5l5lue"/>
        <path d="M.279.308.254.225.28.308" id="41sherq04h"/>
        <path d="M.258 0A5.71 5.71 0 0 0 0 1.683v91.064c0 .573.09 1.139.258 1.683h47.786l.024-.084V.083L48.044 0" id="rmb1uz55ik"/>
        <path d="M.258 0A5.71 5.71 0 0 0 0 1.683v91.064c0 .573.09 1.139.258 1.683h47.786l.024-.084V.083L48.044 0" id="7m61hizy1m"/>
        <path d="M.258 0A5.71 5.71 0 0 0 0 1.683v91.064c0 .573.09 1.139.258 1.683h47.786l.024-.084V.083L48.044 0" id="gdz880clko"/>
        <path d="M.258 0A5.71 5.71 0 0 0 0 1.683v91.064c0 .573.09 1.139.258 1.683h47.786l.024-.084V.083L48.044 0" id="t8q6my6ymq"/>
        <path d="M.258 0A5.71 5.71 0 0 0 0 1.683v91.064c0 .573.09 1.139.258 1.683h47.786l.024-.084V.083L48.044 0" id="ok7ehj2qys"/>
        <path d="M.258 0A5.71 5.71 0 0 0 0 1.683v91.064c0 .573.09 1.139.258 1.683h47.786l.024-.084V.083L48.044 0" id="5cfoag196u"/>
        <path d="M.258 0A5.71 5.71 0 0 0 0 1.683v91.064c0 .573.09 1.139.258 1.683h47.786l.024-.084V.083L48.044 0" id="pam78cn64w"/>
        <path d="M.258 0A5.71 5.71 0 0 0 0 1.683v91.064c0 .573.09 1.139.258 1.683h47.786l.024-.084V.083L48.044 0" id="hax27zt1fy"/>
        <path d="M.258 0A5.71 5.71 0 0 0 0 1.683v91.064c0 .573.09 1.139.258 1.683h47.786l.024-.084V.083L48.044 0" id="tsh5cz7ctA"/>
        <path d="M.258 0A5.71 5.71 0 0 0 0 1.683v91.064c0 .573.09 1.139.258 1.683h47.786l.024-.084V.083L48.044 0" id="h555pkzygC"/>
        <path d="M.258 0A5.71 5.71 0 0 0 0 1.683v91.064c0 .573.09 1.139.258 1.683h47.786l.024-.084V.083L48.044 0" id="g2uaiohaeE"/>
        <path d="M.258 0A5.71 5.71 0 0 0 0 1.683v91.064c0 .573.09 1.139.258 1.683h47.786l.024-.084V.083L48.044 0" id="ybgasc3v1G"/>
        <path d="M.258 0A5.71 5.71 0 0 0 0 1.683v91.064c0 .573.09 1.139.258 1.683h47.786l.024-.084V.083L48.044 0" id="xwsksccc5I"/>
        <path d="M.258 0A5.71 5.71 0 0 0 0 1.683v91.064c0 .573.09 1.139.258 1.683h47.786l.024-.084V.083L48.044 0" id="8juxfleegK"/>
        <path d="M.258 0A5.71 5.71 0 0 0 0 1.683v91.064c0 .573.09 1.139.258 1.683h47.786l.024-.084V.083L48.044 0" id="7mlmloqc5M"/>
        <path d="M.258 0A5.71 5.71 0 0 0 0 1.683v91.064c0 .573.09 1.139.258 1.683h47.786l.024-.084V.083L48.044 0" id="7c6ivrhduO"/>
        <path d="M.258 0A5.71 5.71 0 0 0 0 1.683v91.064c0 .573.09 1.139.258 1.683h47.786l.024-.084V.083L48.044 0" id="rla5q1nc2Q"/>
        <path d="M.258 0A5.71 5.71 0 0 0 0 1.683v91.064c0 .573.09 1.139.258 1.683h47.786l.024-.084V.083L48.044 0" id="ml6qjbi5dS"/>
        <path d="M.258 0A5.71 5.71 0 0 0 0 1.683v91.064c0 .573.09 1.139.258 1.683h47.786l.024-.084V.083L48.044 0" id="boypyjqjzU"/>
        <path d="M0 0v.001C.167.544.257 1.11.257 1.683v17.98C2.247 12.178 3.452 6.106 3.879 0H0z" id="je9ry3n7eW"/>
        <path d="M0 0c.166.543.258 1.11.258 1.683v35.223c.578.083 1.156.182 1.728.297V.083L1.962 0H0z" id="2oy3a394sZ"/>
        <path d="M4.117 0C4.272 10.21 2.884 21.344 0 36.763a31.914 31.914 0 0 1 7.932.143V1.612A5.752 5.752 0 0 0 7.675 0H4.117z" id="m77wt9dixac"/>
        <path d="M8.905 0a2.567 2.567 0 0 1-.095.282l-.789 1.992A2.576 2.576 0 0 1 5.628 3.9 2.574 2.574 0 0 1 3.236.377L3.384 0H.257A5.726 5.726 0 0 0 0 1.683v91.064c0 .573.09 1.139.257 1.683h11.068a5.721 5.721 0 0 1-.258-1.683v-9.123a32.275 32.275 0 0 1-1.707-3.835 32.127 32.127 0 0 1-1.68-6.614v17.727a2.573 2.573 0 1 1-5.149 0V7.956a2.574 2.574 0 0 1 5.149 0v56.19a32.208 32.208 0 0 1 3.387-10.444V1.683c0-.574.09-1.14.258-1.683h-2.42z" id="duk7j6pylaf"/>
        <path d="M0 2.574V85.52a2.574 2.574 0 0 0 5.148.047V67.79a31.798 31.798 0 0 1 0-9.022V2.527A2.573 2.573 0 0 0 0 2.574" id="kc68f8msmai"/>
        <path d="M.33 0 .183.377A2.574 2.574 0 0 0 1.626 3.72a2.576 2.576 0 0 0 3.342-1.445L5.757.282C5.794.188 5.826.094 5.85 0H.331z" id="vepqbye7dal"/>
        <linearGradient x1="-48.978%" y1="36.316%" x2="-135.458%" y2="36.316%" id="zxw3y9ua7f">
            <stop stop-color="#ED762D" offset="0%"/>
            <stop stop-color="#F4C32E" offset="100%"/>
        </linearGradient>
        <linearGradient x1="-11796.835%" y1="6472.402%" x2="-16804.545%" y2="6472.402%" id="ole2rn9nsi">
            <stop stop-color="#ED762D" offset="0%"/>
            <stop stop-color="#F4C32E" offset="100%"/>
        </linearGradient>
        <linearGradient x1="-1179.334%" y1="174.409%" x2="-1867.769%" y2="174.409%" id="37zzkq2puX">
            <stop stop-color="#D76824" offset="0%"/>
            <stop stop-color="#D9AE27" offset="100%"/>
        </linearGradient>
        <linearGradient x1="-3081.836%" y1="92.179%" x2="-4426.549%" y2="92.179%" id="s3bmaaui5aa">
            <stop stop-color="#D76824" offset="0%"/>
            <stop stop-color="#D9AE27" offset="100%"/>
        </linearGradient>
        <linearGradient x1="-674.891%" y1="92.921%" x2="-1011.589%" y2="92.921%" id="rrjsn1aq3ad">
            <stop stop-color="#BF5D1F" offset="0%"/>
            <stop stop-color="#C19C1F" offset="100%"/>
        </linearGradient>
        <linearGradient x1="-154.464%" y1="36.316%" x2="-390.285%" y2="36.316%" id="9pqjoxyyyag">
            <stop stop-color="#F29A5F" offset="0%"/>
            <stop stop-color="#F6D361" offset="100%"/>
        </linearGradient>
        <linearGradient x1="-388.952%" y1="36.213%" x2="-907.72%" y2="36.213%" id="2ioxsdxppaj">
            <stop stop-color="#F8C69F" offset="0%"/>
            <stop stop-color="#F8E59F" offset="100%"/>
        </linearGradient>
        <linearGradient x1="-351.149%" y1="879.53%" x2="-807.577%" y2="879.53%" id="v44a6uveyam">
            <stop stop-color="#F8C69F" offset="0%"/>
            <stop stop-color="#F8E59F" offset="100%"/>
        </linearGradient>
        <filter x="-12.5%" y="-12.5%" width="125%" height="125%" filterUnits="objectBoundingBox" id="1p6dkzyn3a">
            <feOffset dy="5" in="SourceAlpha" result="shadowOffsetOuter1"/>
            <feGaussianBlur stdDeviation="2.5" in="shadowOffsetOuter1" result="shadowBlurOuter1"/>
            <feColorMatrix values="0 0 0 0 0 0 0 0 0 0 0 0 0 0 0 0 0 0 0.2 0" in="shadowBlurOuter1" result="shadowMatrixOuter1"/>
            <feMerge>
                <feMergeNode in="shadowMatrixOuter1"/>
                <feMergeNode in="SourceGraphic"/>
            </feMerge>
        </filter>
        <circle id="x24qrfbheb" cx="72" cy="72" r="72"/>
    </defs>
    <g filter="url(#1p6dkzyn3a)" fill="none" fill-rule="evenodd">
        <circle stroke="#D35C9D" stroke-width="15" cx="72" cy="72" r="64.5" transform="translate(8)"/>
        <g transform="translate(45.6 40)">
            <mask id="65fotgiifd" fill="#fff">
                <use xlink:href="#g5tvlefknc"/>
            </mask>
            <path d="M48.043 10.38a5.731 5.731 0 0 0-.652-1.418L44.06 3.793c-.175-.27-.066-.605.2-.786.282-.19.468-.512.468-.875V1.057A1.06 1.06 0 0 0 43.671 0H4.63a1.06 1.06 0 0 0-1.058 1.057v1.075c0 .363.186.685.467.875.267.18.375.516.2.786L.91 8.963c-.284.441-.5.92-.652 1.416A5.73 5.73 0 0 0 0 12.062v91.064c0 .573.09 1.14.258 1.683.152.497.368.975.651 1.417l3.013 4.697A2.341 2.341 0 0 0 5.892 112H42.41a2.34 2.34 0 0 0 1.97-1.077l3.012-4.697c.284-.442.5-.92.652-1.417a5.75 5.75 0 0 0 .258-1.683V12.062c0-.573-.091-1.14-.258-1.683" fill="#EEE" mask="url(#65fotgiifd)"/>
        </g>
        <path d="M51.492 152h36.516a2.34 2.34 0 0 0 1.97-1.077l.062-.097H49.46l.062.097a2.341 2.341 0 0 0 1.97 1.077M89.86 43.007H49.64c.267.18.375.516.2.786h39.82c-.174-.27-.066-.606.2-.786" fill="#DBDCDC"/>
        <g transform="translate(45.6 50.38)">
            <mask id="ej7bv0dq8g" fill="#fff">
                <use xlink:href="#zutf5l5lue"/>
            </mask>
            <path d="M13.693 0a5.71 5.71 0 0 0-.258 1.683v52.019a31.993 31.993 0 0 1 11.173-12.12c.369-1.476.766-2.968 1.19-4.477 2.053-6.745 3.747-12.413 5.084-17.442V1.683c0-.574-.091-1.14-.257-1.683H13.693zM.258 0A5.71 5.71 0 0 0 0 1.683v91.064c0 .573.09 1.139.258 1.683h2.366a5.737 5.737 0 0 1-.256-1.683V1.683c0-.574.09-1.14.256-1.683H.258zm13.177 92.747c0 .573.09 1.139.258 1.683h9.016a31.876 31.876 0 0 1-9.274-10.806v9.123z" fill="url(#zxw3y9ua7f)" mask="url(#ej7bv0dq8g)"/>
        </g>
        <g transform="translate(93.39 50.154)">
            <mask id="6hwuu71t9j" fill="#fff">
                <use xlink:href="#41sherq04h"/>
            </mask>
            <path d="M.279.308.254.225.28.308" fill="url(#ole2rn9nsi)" mask="url(#6hwuu71t9j)"/>
        </g>
        <g transform="translate(45.6 50.38)">
            <mask id="bh27j370bl" fill="#fff">
                <use xlink:href="#rmb1uz55ik"/>
            </mask>
            <path d="M36.607 46.018c4.199-20.903 6.195-34.505 5.9-46.88H34.56c-.611 10.508-3.511 20.711-8.761 37.968-6.1 21.621-6.205 39.695-3.074 57.324h18.36c-5.83-14.83-7.995-28.197-4.478-48.412" fill="#FEFEFE" mask="url(#bh27j370bl)"/>
        </g>
        <g transform="translate(45.6 50.38)">
            <mask id="espu3lghon" fill="#fff">
                <use xlink:href="#7m61hizy1m"/>
            </mask>
            <path d="M11.727 79.79C5.58 63.177 14.063 44.73 30.674 38.582c16.61-6.147 35.06 2.336 41.206 18.947 6.147 16.61-2.336 35.06-18.946 41.206-16.611 6.147-35.06-2.336-41.207-18.947" fill="#FEFEFE" mask="url(#espu3lghon)"/>
        </g>
        <g transform="translate(45.6 50.38)">
            <mask id="l02shj438p" fill="#fff">
                <use xlink:href="#gdz880clko"/>
            </mask>
            <path d="M15.832 79.578a28.065 28.065 0 0 0 13.105 14.145c.592.304 1.328.03 1.607-.574L40.62 71.234c.437-.95-.493-1.954-1.473-1.591l-22.62 8.37c-.625.231-.953.95-.695 1.565" fill="#F39E36" mask="url(#l02shj438p)"/>
        </g>
        <g transform="translate(45.6 50.38)">
            <mask id="gqd1q3i7ur" fill="#fff">
                <use xlink:href="#t8q6my6ymq"/>
            </mask>
            <path d="M29.454 94.187c-.231 0-.46-.054-.67-.163A28.506 28.506 0 0 1 15.52 79.709a1.487 1.487 0 0 1 .011-1.179c.167-.386.487-.69.878-.835l22.62-8.37a1.487 1.487 0 0 1 1.632.39c.424.458.526 1.094.265 1.66L30.85 93.29a1.55 1.55 0 0 1-1.396.897m-13.31-14.74a27.834 27.834 0 0 0 12.948 13.975.803.803 0 0 0 .639.041.87.87 0 0 0 .505-.456l10.077-21.915a.824.824 0 0 0-.146-.917.821.821 0 0 0-.902-.215l-22.62 8.37a.87.87 0 0 0-.492.47.821.821 0 0 0-.01.648" fill="#FEFEFE" mask="url(#gqd1q3i7ur)"/>
        </g>
        <g transform="translate(45.6 50.38)">
            <mask id="jji572gort" fill="#fff">
                <use xlink:href="#ok7ehj2qys"/>
            </mask>
            <path d="m32.45 43.383 8.37 22.62c.363.98 1.73 1.032 2.168.082L53.064 44.17c.278-.605.008-1.342-.609-1.593a28.062 28.062 0 0 0-19.27-.741c-.633.204-.966.922-.735 1.547" fill="#F39E36" mask="url(#jji572gort)"/>
        </g>
        <g transform="translate(45.6 50.38)">
            <mask id="cxro7rd64v" fill="#fff">
                <use xlink:href="#5cfoag196u"/>
            </mask>
            <path d="m41.925 67.107-.061-.001a1.49 1.49 0 0 1-1.36-.986l-8.37-22.62a1.547 1.547 0 0 1 .061-1.209c.183-.376.498-.652.887-.777a28.505 28.505 0 0 1 19.501.75c.376.154.668.45.82.836.154.39.143.832-.032 1.211L43.294 66.226c-.25.547-.772.88-1.369.88m-9.157-23.84 8.37 22.619a.827.827 0 0 0 .751.546c.283.002.62-.113.791-.487l10.077-21.915a.87.87 0 0 0 .017-.68.808.808 0 0 0-.446-.459 27.837 27.837 0 0 0-19.038-.732.816.816 0 0 0-.487.429.87.87 0 0 0-.035.679" fill="#FEFEFE" mask="url(#cxro7rd64v)"/>
        </g>
        <g transform="translate(45.6 50.38)">
            <mask id="n54s2m67dx" fill="#fff">
                <use xlink:href="#pam78cn64w"/>
            </mask>
            <path d="M40.62 71.233 30.543 93.148c-.278.606-.007 1.342.61 1.594a28.065 28.065 0 0 0 19.269.74c.634-.203.966-.92.735-1.546l-8.37-22.62c-.363-.98-1.73-1.033-2.167-.083" fill="#F39E36" mask="url(#n54s2m67dx)"/>
        </g>
        <g transform="translate(45.6 50.38)">
            <mask id="uyztmf61yz" fill="#fff">
                <use xlink:href="#hax27zt1fy"/>
            </mask>
            <path d="M41.81 97.17a28.52 28.52 0 0 1-10.785-2.115 1.48 1.48 0 0 1-.82-.837 1.55 1.55 0 0 1 .031-1.21l10.077-21.916c.26-.566.818-.897 1.432-.88a1.49 1.49 0 0 1 1.36.987l8.37 22.62c.144.39.121.83-.063 1.208a1.49 1.49 0 0 1-.887.778 28.425 28.425 0 0 1-8.715 1.366m-.883-25.797L30.85 93.29a.87.87 0 0 0-.017.68.808.808 0 0 0 .447.459 27.824 27.824 0 0 0 19.038.732.816.816 0 0 0 .485-.43.868.868 0 0 0 .037-.678l-8.37-22.62a.823.823 0 0 0-.751-.544.842.842 0 0 0-.792.485" fill="#FEFEFE" mask="url(#uyztmf61yz)"/>
        </g>
        <g transform="translate(45.6 50.38)">
            <mask id="pzrusg519B" fill="#fff">
                <use xlink:href="#tsh5cz7ctA"/>
            </mask>
            <path d="M53.064 44.17 42.987 66.085c-.436.95.493 1.954 1.474 1.591l22.619-8.37c.625-.231.953-.951.695-1.566A28.062 28.062 0 0 0 54.67 43.595c-.592-.303-1.328-.03-1.606.575" fill="#F39E36" mask="url(#pzrusg519B)"/>
        </g>
        <g transform="translate(45.6 50.38)">
            <mask id="1007sae8vD" fill="#fff">
                <use xlink:href="#h555pkzygC"/>
            </mask>
            <path d="M44.043 68.09c-.41 0-.804-.168-1.098-.487a1.487 1.487 0 0 1-.265-1.659l10.077-21.915c.174-.38.502-.675.899-.812.39-.137.806-.108 1.168.078A28.514 28.514 0 0 1 68.087 57.61a1.49 1.49 0 0 1-.012 1.18c-.168.385-.488.69-.878.833l-22.62 8.37a1.534 1.534 0 0 1-.534.098m10.109-24.283a.867.867 0 0 0-.78.503L43.293 66.227a.825.825 0 0 0 .146.916.826.826 0 0 0 .904.216l22.619-8.37a.872.872 0 0 0 .492-.47.82.82 0 0 0 .009-.648 27.842 27.842 0 0 0-12.949-13.975.789.789 0 0 0-.363-.088" fill="#FEFEFE" mask="url(#1007sae8vD)"/>
        </g>
        <g transform="translate(45.6 50.38)">
            <mask id="y3ljpyst6F" fill="#fff">
                <use xlink:href="#g2uaiohaeE"/>
            </mask>
            <path d="M30.885 42.688A28.065 28.065 0 0 0 16.74 55.793c-.304.592-.03 1.328.574 1.606L39.23 67.476c.95.436 1.954-.493 1.591-1.474l-8.37-22.619c-.232-.625-.95-.954-1.565-.695" fill="#F39E36" mask="url(#y3ljpyst6F)"/>
        </g>
        <g transform="translate(45.6 50.38)">
            <mask id="kl0l2w0x7H" fill="#fff">
                <use xlink:href="#ybgasc3v1G"/>
            </mask>
            <path d="M39.728 67.925c-.214 0-.431-.046-.64-.142L17.173 57.706a1.545 1.545 0 0 1-.812-.898 1.474 1.474 0 0 1 .078-1.169 28.517 28.517 0 0 1 14.315-13.263 1.493 1.493 0 0 1 1.179.012c.386.167.69.488.834.878l8.37 22.62a1.49 1.49 0 0 1-.39 1.633c-.289.267-.65.406-1.019.406M31.015 43A27.839 27.839 0 0 0 17.04 55.947a.808.808 0 0 0-.04.64.87.87 0 0 0 .455.505l21.916 10.077a.826.826 0 0 0 .917-.146.824.824 0 0 0 .216-.903L32.133 43.5a.867.867 0 0 0-.47-.491.818.818 0 0 0-.648-.01" fill="#FEFEFE" mask="url(#kl0l2w0x7H)"/>
        </g>
        <g transform="translate(45.6 50.38)">
            <mask id="xq6u4j011J" fill="#fff">
                <use xlink:href="#xwsksccc5I"/>
            </mask>
            <path d="m67.08 59.306-22.62 8.37c-.98.363-1.032 1.73-.082 2.167L66.293 79.92c.605.278 1.342.007 1.593-.61a28.062 28.062 0 0 0 .741-19.268c-.204-.635-.922-.967-1.547-.736" fill="#F39E36" mask="url(#xq6u4j011J)"/>
        </g>
        <g transform="translate(45.6 50.38)">
            <mask id="114xum4hvL" fill="#fff">
                <use xlink:href="#8juxfleegK"/>
            </mask>
            <path d="M66.793 80.366c-.22 0-.44-.046-.642-.139L44.236 70.15a1.488 1.488 0 0 1-.879-1.431 1.488 1.488 0 0 1 .987-1.36l22.619-8.37c.39-.145.831-.12 1.21.062.375.183.65.498.776.887a28.51 28.51 0 0 1-.75 19.5 1.48 1.48 0 0 1-.836.82 1.551 1.551 0 0 1-.57.108m.404-20.742-22.62 8.37a.825.825 0 0 0-.544.75c-.01.27.112.62.486.792l21.915 10.077a.87.87 0 0 0 .68.017.808.808 0 0 0 .459-.447 27.837 27.837 0 0 0 .732-19.038.862.862 0 0 0-1.108-.522" fill="#FEFEFE" mask="url(#114xum4hvL)"/>
        </g>
        <g transform="translate(45.6 50.38)">
            <mask id="livxt0vppN" fill="#fff">
                <use xlink:href="#7mlmloqc5M"/>
            </mask>
            <path d="M39.23 67.476 17.315 57.399c-.606-.278-1.342-.007-1.594.61a28.062 28.062 0 0 0-.74 19.268c.204.635.92.967 1.546.736l22.62-8.37c.98-.363 1.032-1.73.083-2.167" fill="#F39E36" mask="url(#livxt0vppN)"/>
        </g>
        <g transform="translate(45.6 50.38)">
            <mask id="vw3595pojP" fill="#fff">
                <use xlink:href="#7c6ivrhduO"/>
            </mask>
            <path d="M16.115 78.424c-.233 0-.466-.052-.68-.157a1.485 1.485 0 0 1-.776-.886 28.514 28.514 0 0 1 .75-19.501 1.48 1.48 0 0 1 .835-.82c.39-.154.832-.143 1.212.032L39.37 67.169c.566.26.903.809.879 1.43a1.49 1.49 0 0 1-.986 1.361l-22.62 8.37c-.17.063-.349.094-.529.094m.698-20.796a.873.873 0 0 0-.32.061.806.806 0 0 0-.458.446 27.834 27.834 0 0 0-.733 19.038c.069.212.22.386.429.487.213.104.46.116.68.036l22.619-8.37a.823.823 0 0 0 .544-.752.824.824 0 0 0-.486-.79L17.173 57.705a.87.87 0 0 0-.36-.078" fill="#FEFEFE" mask="url(#vw3595pojP)"/>
        </g>
        <g transform="translate(45.6 50.38)">
            <mask id="1097f7i6jR" fill="#fff">
                <use xlink:href="#rla5q1nc2Q"/>
            </mask>
            <path d="M66.293 79.92 44.378 69.843c-.95-.437-1.954.493-1.591 1.473l8.37 22.62c.231.625.95.953 1.566.695a28.061 28.061 0 0 0 14.144-13.106c.304-.592.03-1.327-.574-1.605" fill="#F39E36" mask="url(#1097f7i6jR)"/>
        </g>
        <g transform="translate(45.6 50.38)">
            <mask id="xch0f8e3hT" fill="#fff">
                <use xlink:href="#ml6qjbi5dS"/>
            </mask>
            <path d="M52.282 95.058a1.547 1.547 0 0 1-1.442-1.005l-8.37-22.62a1.489 1.489 0 0 1 .39-1.633 1.49 1.49 0 0 1 1.66-.264l21.914 10.076c.38.175.675.503.812.9.136.391.108.806-.078 1.168a28.508 28.508 0 0 1-14.315 13.263 1.476 1.476 0 0 1-.571.115m-8.397-24.987a.844.844 0 0 0-.565.225.825.825 0 0 0-.216.903l8.37 22.62c.081.217.252.397.47.49a.814.814 0 0 0 .648.01 27.832 27.832 0 0 0 13.974-12.948.808.808 0 0 0 .041-.639.872.872 0 0 0-.456-.505L44.236 70.15a.833.833 0 0 0-.351-.08" fill="#FEFEFE" mask="url(#xch0f8e3hT)"/>
        </g>
        <g transform="translate(45.6 50.38)">
            <mask id="jjxlef48dV" fill="#fff">
                <use xlink:href="#boypyjqjzU"/>
            </mask>
            <path d="M39.716 69.432a2.226 2.226 0 1 1 4.175-1.545 2.226 2.226 0 0 1-4.175 1.545" fill="#FEFEFE" mask="url(#jjxlef48dV)"/>
        </g>
        <path d="m48.91 149.968.612.955-.613-.955m44.967-6.323a5.798 5.798 0 0 1-.233 1.164 5.73 5.73 0 0 1-.651 1.417l-.357.556.36-.556c.283-.442.5-.92.652-1.417.113-.378.192-.768.229-1.164" fill="#E2E2E1"/>
        <g transform="translate(76.225 50.38)">
            <mask id="uxwtw0asgY" fill="#fff">
                <use xlink:href="#je9ry3n7eW"/>
            </mask>
            <path d="M0 0v.001C.167.544.257 1.11.257 1.683v17.98C2.247 12.178 3.452 6.106 3.879 0H0z" fill="url(#37zzkq2puX)" mask="url(#uxwtw0asgY)"/>
        </g>
        <g transform="translate(91.682 50.38)">
            <mask id="i1g8zk0phab" fill="#fff">
                <use xlink:href="#2oy3a394sZ"/>
            </mask>
            <path d="M0 0c.166.543.258 1.11.258 1.683v35.223c.578.083 1.156.182 1.728.297V.083L1.962 0H0z" fill="url(#s3bmaaui5aa)" mask="url(#i1g8zk0phab)"/>
        </g>
        <g>
            <path d="M80.614 50.38h-.51c-.428 6.105-1.631 12.178-3.622 19.662v18.844a32.223 32.223 0 0 1 4.389-1.249V52.062c0-.573-.09-1.14-.257-1.683" fill="#FEFEFE"/>
            <path d="M80.871 87.637a32.23 32.23 0 0 0-4.39 1.25v3.82a1.481 1.481 0 0 1 1.052.06c.064.028.125.06.184.095a1.487 1.487 0 0 1 .966-.969 28.218 28.218 0 0 1 2.188-.61v-3.646zm11.069-.352v3.605c.657.106 1.31.235 1.96.387V87.63a31.857 31.857 0 0 0-1.96-.345z" fill="#FEFEFE"/>
            <path fill="#F39E36" d="m80.871 121.817-4.39 1.624v18.54l4.39-9.545zM80.871 91.98a27.62 27.62 0 0 0-1.981.557.818.818 0 0 0-.487.43.87.87 0 0 0-.035.678l2.503 6.766v-3.043a1.254 1.254 0 0 1 0-2.067V91.98zm11.069-.404v16.79l1.96-4.266V91.972a27.802 27.802 0 0 0-1.96-.396z"/>
            <path d="M80.871 91.284c-.735.173-1.465.377-2.188.609a1.49 1.49 0 0 0-.888.778c-.03.062-.056.126-.078.192.298.18.53.457.65.783a.87.87 0 0 1 .036-.68.818.818 0 0 1 .487-.43c.655-.21 1.316-.396 1.981-.557v-.695zm11.069-.394v.686c.657.109 1.31.24 1.96.397v-.696a28.685 28.685 0 0 0-1.96-.387z" fill="#FEFEFE"/>
            <path d="m80.871 134.055-4.415 9.601a5.636 5.636 0 0 1-.073.511c.01.062.027.123.05.182a.81.81 0 0 0 .447.46H80.615c.165-.543.256-1.11.256-1.683v-9.07zm11.069-1.785v10.856c0 .574-.091 1.14-.258 1.683h1.96a5.792 5.792 0 0 0 .259-1.683v-5.556l-1.961-5.3z" fill="#F39E36"/>
            <path d="M76.383 144.167c-.04.217-.094.431-.159.642h.659-.003a.811.811 0 0 1-.447-.46.91.91 0 0 1-.05-.182zm4.488-11.731-4.389 9.546v1.144c0 .178-.009.355-.026.53l4.415-9.6v-1.62z" fill="#FEFEFE"/>
            <path fill="#F39E36" d="m93.9 105.719-1.96 4.265V117l1.96-.726z"/>
            <path d="m93.9 116.274-1.96.726 1.96-.725zm0-12.174-1.96 4.266v1.618l1.96-4.265V104.1z" fill="#FEFEFE"/>
            <path d="M76.926 93.316a.815.815 0 0 0-.31.062l-.134.057v3.66a1.253 1.253 0 0 1 .5 2.356c-.168.09-.335.181-.5.275v13.919l4.39 2.018V102.36l-3.14-8.48a.866.866 0 0 0-.806-.564" fill="#F39E36"/>
            <path d="M76.926 92.64c-.15 0-.3.023-.444.068v.727c.044-.02.09-.038.133-.057a.815.815 0 0 1 .648.01.87.87 0 0 1 .47.492l3.138 8.48v-1.95l-2.503-6.765a1.55 1.55 0 0 0-1.442-1.005" fill="#FEFEFE"/>
            <path fill="#F39E36" d="m93.9 116.995-1.96.726v3.031l1.96.902z"/>
            <path fill="#FEFEFE" d="m93.9 116.275-1.96.725v.72l1.96-.724z"/>
            <path fill="#F39E36" d="M76.482 114.39v8.33l4.39-1.624v-4.689z"/>
            <path d="m80.871 121.096-4.39 1.624v.721l4.39-1.624v-.721zm-4.39-7.451v.744l4.39 2.018v-.744l-4.39-2.018z" fill="#FEFEFE"/>
            <path fill="#F39E36" d="M91.94 121.496v8.825l1.96 5.3v-13.223z"/>
            <path d="M91.94 130.321v1.949l1.96 5.3v-1.948l-1.96-5.3zm0-9.569v.745l1.96.902v-.745l-1.96-.902z" fill="#FEFEFE"/>
        </g>
        <g transform="translate(84.007 50.38)">
            <mask id="hj9ys7esgae" fill="#fff">
                <use xlink:href="#m77wt9dixac"/>
            </mask>
            <path d="M4.117 0C4.272 10.21 2.884 21.344 0 36.763a31.914 31.914 0 0 1 7.932.143V1.612A5.752 5.752 0 0 0 7.675 0H4.117z" fill="url(#rrjsn1aq3ad)" mask="url(#hj9ys7esgae)"/>
        </g>
        <g>
            <path d="M88.124 50.38h-7.51c.167.543.257 1.109.257 1.682v35.575a31.87 31.87 0 0 1 3.137-.495c2.882-15.419 4.271-26.551 4.116-36.763" fill="#FEFEFE"/>
            <path d="M87.4 86.96a31.8 31.8 0 0 0-6.529.677v3.647a28.463 28.463 0 0 1 11.068-.394v-3.605a31.908 31.908 0 0 0-4.54-.325" fill="#FEFEFE"/>
            <path d="M85.16 120.284a.842.842 0 0 0-.296.055l-3.993 1.478v10.619l5.042-10.965a.823.823 0 0 0-.146-.916.838.838 0 0 0-.607-.27" fill="#F39E36"/>
            <path d="M85.399 120.005a1.536 1.536 0 0 1-.535.334.842.842 0 0 1 .296-.055.84.84 0 0 1 .607.27.824.824 0 0 1 .146.918c.092-.2.22-.37.376-.507a2.219 2.219 0 0 1-.89-.96" fill="#C6C6C6"/>
            <path d="M86.738 116.265c.076.205.107.417.095.622a2.21 2.21 0 0 1 1.305.05c.004-.206.05-.414.142-.614-.17.37-.5.487-.78.487h-.01a.826.826 0 0 1-.752-.545m.659-25.738c-2.19 0-4.38.251-6.526.757v.695a27.795 27.795 0 0 1 11.068-.403v-.686a28.562 28.562 0 0 0-4.542-.363" fill="#FEFEFE"/>
            <path d="M87.295 121.268a.84.84 0 0 0-.768.486l-5.656 12.301v9.07c0 .575-.09 1.14-.256 1.684h11.067a5.73 5.73 0 0 0 .257-1.683V132.27l-3.87-10.457a.823.823 0 0 0-.75-.544l-.024-.001" fill="#F39E36"/>
            <path d="M86.289 120.965a1.509 1.509 0 0 0-.376.506l-5.042 10.965v1.619l5.656-12.301a.84.84 0 0 1 .768-.486h.024c.269.01.609.16.75.545l3.87 10.457-3.87-10.457a1.526 1.526 0 0 1-.094-.623 2.214 2.214 0 0 1-1.686-.225" fill="#FEFEFE"/>
            <path d="m91.94 109.984-3.045 6.622a.823.823 0 0 0 .145.916c.135.146.35.27.608.27a.86.86 0 0 0 .296-.054L91.94 117v-7.016z" fill="#F39E36"/>
            <path d="m91.94 108.365-3.66 7.958a1.53 1.53 0 0 0-.142.614c.542.19 1.008.588 1.27 1.135.149-.143.33-.257.536-.333L91.94 117l-1.995.738a.86.86 0 0 1-.296.055.836.836 0 0 1-.608-.27.824.824 0 0 1-.145-.917l3.044-6.622v-1.619z" fill="#FEFEFE"/>
            <path d="M80.871 102.36v13.303l4.1 1.885c.122.056.24.08.351.08a.844.844 0 0 0 .565-.226.824.824 0 0 0 .216-.903l-5.232-14.14z" fill="#F39E36"/>
            <path d="M80.871 100.41v1.95l5.232 14.139a.842.842 0 0 1-.781 1.128.84.84 0 0 1-.35-.079c.199.092.37.22.506.374a2.214 2.214 0 0 1 1.354-1.034 1.537 1.537 0 0 0-.094-.623l-5.867-15.854z" fill="#FEFEFE"/>
            <path d="m91.94 117.721-1.762.652a.824.824 0 0 0-.545.751c-.01.27.112.62.486.791l1.82.837v-3.03z" fill="#F39E36"/>
            <path d="m91.94 117-1.996.739c-.206.076-.387.19-.535.333a2.214 2.214 0 0 1 .096 1.7c.206.005.415.051.614.143a.823.823 0 0 1-.486-.79.824.824 0 0 1 .545-.752l1.761-.652V117z" fill="#FEFEFE"/>
            <path d="M80.871 116.407v4.689l3.759-1.391a.823.823 0 0 0 .544-.752.824.824 0 0 0-.485-.79l-3.818-1.756z" fill="#F39E36"/>
            <path d="M80.871 115.663v.744l3.818 1.755a.824.824 0 0 1 .485.791.823.823 0 0 1-.544.752l-3.759 1.39v.722l3.993-1.478c.206-.076.386-.19.534-.333a2.22 2.22 0 0 1 .08-2.084 1.533 1.533 0 0 0-.507-.374l-4.1-1.885z" fill="#FEFEFE"/>
            <path d="M89.485 120.45a.844.844 0 0 0-.565.225.825.825 0 0 0-.216.904l3.235 8.743v-8.825l-2.103-.967a.834.834 0 0 0-.351-.08" fill="#F39E36"/>
            <path d="M89.505 119.773a2.221 2.221 0 0 1-1.53 1.417c-.012.206.018.417.095.623l3.87 10.457v-1.949l-3.236-8.742a.825.825 0 0 1 .216-.904.843.843 0 0 1 .565-.224c.112 0 .23.023.352.079l2.102.966v-.744l-1.82-.837a1.525 1.525 0 0 0-.614-.142" fill="#FEFEFE"/>
            <path d="M87.403 116.812a2.188 2.188 0 0 0-.772.14 2.222 2.222 0 0 0-.342 4.014 2.23 2.23 0 0 0 1.887.16 2.22 2.22 0 0 0 1.329-1.353 2.217 2.217 0 0 0-.096-1.7 2.221 2.221 0 0 0-2.006-1.26" fill="#FEFEFE"/>
        </g>
        <g transform="translate(47.968 50.38)">
            <mask id="5t96hgovgah" fill="#fff">
                <use xlink:href="#duk7j6pylaf"/>
            </mask>
            <path d="M8.905 0a2.567 2.567 0 0 1-.095.282l-.789 1.992A2.576 2.576 0 0 1 5.628 3.9 2.574 2.574 0 0 1 3.236.377L3.384 0H.257A5.726 5.726 0 0 0 0 1.683v91.064c0 .573.09 1.139.257 1.683h11.068a5.721 5.721 0 0 1-.258-1.683v-9.123a32.275 32.275 0 0 1-1.707-3.835 32.127 32.127 0 0 1-1.68-6.614v17.727a2.573 2.573 0 1 1-5.149 0V7.956a2.574 2.574 0 0 1 5.149 0v56.19a32.208 32.208 0 0 1 3.387-10.444V1.683c0-.574.09-1.14.258-1.683h-2.42z" fill="url(#9pqjoxyyyag)" mask="url(#5t96hgovgah)"/>
        </g>
        <g fill="#FEFEFE">
            <path d="M59.035 104.081a32.205 32.205 0 0 0-3.389 10.445v9.029a32.446 32.446 0 0 0 3.389 10.448V121.9c-.19-1.9-.19-3.815 0-5.713v-12.106z"/>
            <path d="M59.035 116.187a28.556 28.556 0 0 0 0 5.713v-5.713z"/>
        </g>
        <g transform="translate(50.499 55.761)">
            <mask id="e9tjuewskak" fill="#fff">
                <use xlink:href="#kc68f8msmai"/>
            </mask>
            <path d="M0 2.574V85.52a2.574 2.574 0 0 0 5.148.047V67.79a31.798 31.798 0 0 1 0-9.022V2.527A2.573 2.573 0 0 0 0 2.574" fill="url(#2ioxsdxppaj)" mask="url(#e9tjuewskak)"/>
        </g>
        <path d="M55.647 114.526a31.847 31.847 0 0 0 0 9.03v-9.03z" fill="#FEFEFE"/>
        <g transform="translate(51.021 50.38)">
            <mask id="w8gvgxz7han" fill="#fff">
                <use xlink:href="#vepqbye7dal"/>
            </mask>
            <path d="M.33 0 .183.377A2.574 2.574 0 0 0 1.626 3.72a2.576 2.576 0 0 0 3.342-1.445L5.757.282C5.794.188 5.826.094 5.85 0H.331z" fill="url(#v44a6uveyam)" mask="url(#w8gvgxz7han)"/>
        </g>
        <path stroke="#D35C9D" stroke-width="15" stroke-linecap="round" d="M37.6 114.453 122.453 29.6"/>
        <g>
            <path d="M123 66.525v7.834a5.72 5.72 0 0 0 5.424 5.71V60.815a5.72 5.72 0 0 0-5.424 5.71M134.45 74.36v-7.835a5.725 5.725 0 0 0-5.725-5.725c-.101 0-.2.01-.301.015V80.07c.1.005.2.015.301.015a5.725 5.725 0 0 0 5.725-5.725" fill="#888889"/>
            <path d="M107.232 73.054A7.232 7.232 0 0 0 100 80.286v53.032c0 1.047.227 2.04.628 2.938 1.367 4.762 9.176 15.618 27.497 15.93V73.054h-20.893zM156.648 134.925h-.185a7.26 7.26 0 0 0 .185-1.607V80.286a7.232 7.232 0 0 0-7.232-7.232h-21.291v79.132c.267.005.53.015.802.015 25.31 0 27.72-17.276 27.72-17.276" fill="#C8C9C9"/>
            <path d="M113.93 116.444c-4.143 0-7.501-3.581-7.501-7.998v-21.77c0-4.416 3.358-7.997 7.501-7.997h13.995v37.765H113.93zm14.195-39.774H113.33c-4.255 0-7.705 3.962-7.705 8.848v24.086c0 4.887 3.45 8.848 7.705 8.848h14.795v-2.008h-.2V78.679h.2v-2.01zM151.023 92.142v16.305c0 4.416-3.359 7.997-7.502 7.997h-15.396v2.008h15.595c4.255 0 7.705-3.961 7.705-8.848V92.628a4.787 4.787 0 0 1-.402-.486M143.72 76.67h-15.595v2.01h15.396c3.177 0 5.892 2.104 6.987 5.077.119-.473.253-.952.4-1.431-1.115-3.31-3.913-5.656-7.188-5.656" fill="#888889"/>
            <path d="M113.93 78.68c-4.143 0-7.501 3.58-7.501 7.996v21.77c0 4.417 3.358 7.998 7.501 7.998h13.995V78.679H113.93z" fill="#99ABD7"/>
            <path d="M151.023 108.447v-21.77c0-4.417-3.359-7.998-7.502-7.998h-15.596v37.765h15.596c4.143 0 7.502-3.581 7.502-7.997" fill="#99ABD7"/>
            <path d="M128.125 123.173h-6.67c-3.973 0-7.193 3.642-7.193 8.135 0-2.852 1.955-5.284 4.698-6.219a.547.547 0 0 1 .33-.108h.014a7.763 7.763 0 0 1 2.152-.302h6.669v-1.506zM137.803 123.173h-9.678v1.506h9.678c.75 0 1.472.106 2.15.302h.015c.126 0 .241.04.33.108 2.743.935 4.699 3.367 4.699 6.22 0-4.494-3.22-8.136-7.194-8.136M114.262 131.308c0 4.494 3.22 8.136 7.194 8.136h6.669v-1.507h-6.67c-3.972 0-7.193-2.967-7.193-6.629" fill="#888889"/>
            <path d="M144.996 131.308c0 3.662-3.22 6.63-7.193 6.63h-9.678v1.506h9.678c3.973 0 7.193-3.642 7.193-8.136" fill="#888889"/>
            <path d="M144.996 131.308c0 3.662-3.22 6.63-7.193 6.63h-16.348c-3.973 0-7.193-2.968-7.193-6.63 0-3.66 3.22-6.629 7.193-6.629h16.348c3.973 0 7.193 2.968 7.193 6.63" fill="#DBDCDC"/>
            <path d="M139.968 124.98h-.014c.116.034.23.07.344.11a.546.546 0 0 0-.33-.11" fill="#D4D7E1"/>
            <path d="M119.305 124.98h-.015a.544.544 0 0 0-.33.11c.113-.04.228-.076.345-.11" fill="#DCDEE6"/>
            <path d="m121.604 129.267-3.314 2.712a.302.302 0 0 0-.002.464l3.615 3.014a.302.302 0 1 0 .386-.463l-3.335-2.78 3.032-2.48a.302.302 0 0 0-.382-.467M138.478 128.83l3.032 2.48-3.336 2.78a.302.302 0 0 0 .386.463l3.616-3.013a.3.3 0 0 0-.002-.465l-3.315-2.712a.302.302 0 0 0-.381.467" fill="#717171"/>
            <path d="M116.18 98.754c-.165 0-.257-.074-.257-.24V87.639l-1.36 1.176c-.129.092-.312.129-.404.037l-.827-.992c-.074-.092-.074-.24.055-.367l2.811-2.591a.513.513 0 0 1 .275-.11h.975c.422 0 .44 0 .44.495v13.229c0 .165-.073.239-.239.239h-1.47zM130.692 95.63v2.793c0 .275-.037.33-.312.33h-1.323c-.276 0-.331-.091-.331-.33v-2.792h-5.88c-.238 0-.293-.02-.293-.221v-1.36c0-.165.128-.348.22-.477l5.677-8.544c.148-.202.148-.238.387-.238h1.671c.202 0 .184.055.184.275v8.672h1.708c.221 0 .276.037.276.275v1.342c0 .239-.055.276-.276.276h-1.708zm-5.916-1.892h3.95v-5.99l-3.95 5.99zM138.829 98.846c-3.142 0-4.612-2.61-4.612-7.093 0-3.031.735-7.09 4.612-7.09 3.84 0 4.575 4.078 4.575 7.09 0 4.484-1.452 7.093-4.575 7.093m0-12.181c-1.543 0-2.517 1.34-2.517 5.088 0 3.767.974 5.108 2.517 5.108s2.517-1.341 2.517-5.108c0-3.747-.974-5.088-2.517-5.088M106.308 104.98h13.001l1.416-3.823 2.752 10.035 3.324-7.29.962 3.894h8.183l3.068-4.659 2.838 9.775 3.033-7.368h5.916v-.603h-6.32l-2.53 6.148-2.722-9.374-3.608 5.478h-7.387l-1.264-5.115-3.351 7.35-2.808-10.238-1.921 5.188h-12.582z" fill="#FEFEFE"/>
        </g>
    </g>
</svg>
