<svg width="160" height="160" viewBox="0 0 160 160" xmlns="http://www.w3.org/2000/svg" xmlns:xlink="http://www.w3.org/1999/xlink">
    <defs>
        <path id="608v51qdrd" d="M0 0h123.614v97.532H0z"/>
        <path id="89y6gicv2f" d="M0 160h144.356V0H0z"/>
        <path d="M9.935.328C8.552.746 3.12 4.052 2.087 5.1.035 7.18-.373 8.497.297 10.465c.67 1.967 4.404 2.173 4.404 2.173s-1.173 2.219.042 4.06C5.958 18.542 8.385 18.5 8.385 18.5s-1.53 1.605-.275 4.244c1.256 2.638 6.267.065 6.267.065l8.874-2.757s.584-3.142-.504-5.153c-1.09-2.01-4.48-2.094-4.48-2.094s1.466-2.972.963-4.688c-.503-1.717-3.225-2.303-3.225-2.303s.764-2.665.126-3.81C15.254.43 13.631 0 12.191 0c-.898 0-1.725.167-2.256.328z" id="1a9zhoxvdh"/>
        <path d="M9.935.328C8.552.746 3.12 4.052 2.087 5.1.035 7.18-.373 8.497.297 10.465c.67 1.967 4.404 2.173 4.404 2.173s-1.173 2.219.042 4.06C5.958 18.542 8.385 18.5 8.385 18.5s-1.53 1.605-.275 4.244c1.256 2.638 6.267.065 6.267.065l8.874-2.757s.584-3.142-.504-5.153c-1.09-2.01-4.48-2.094-4.48-2.094s1.466-2.972.963-4.688c-.503-1.717-3.225-2.303-3.225-2.303s.764-2.665.126-3.81C15.254.43 13.631 0 12.191 0c-.898 0-1.725.167-2.256.328z" id="swmwzql2bj"/>
        <filter x="-12.5%" y="-12.5%" width="125%" height="125%" filterUnits="objectBoundingBox" id="b8bv0as9qa">
            <feOffset dy="5" in="SourceAlpha" result="shadowOffsetOuter1"/>
            <feGaussianBlur stdDeviation="2.5" in="shadowOffsetOuter1" result="shadowBlurOuter1"/>
            <feColorMatrix values="0 0 0 0 0 0 0 0 0 0 0 0 0 0 0 0 0 0 0.2 0" in="shadowBlurOuter1" result="shadowMatrixOuter1"/>
            <feMerge>
                <feMergeNode in="shadowMatrixOuter1"/>
                <feMergeNode in="SourceGraphic"/>
            </feMerge>
        </filter>
        <circle id="bjxso52b0b" cx="72" cy="72" r="72"/>
    </defs>
    <g filter="url(#b8bv0as9qa)" fill="none" fill-rule="evenodd">
        <g transform="translate(8)">
            <mask id="9n0m44j55c" fill="#fff">
                <use xlink:href="#bjxso52b0b"/>
            </mask>
            <circle stroke="#D35C9D" stroke-width="2" cx="72" cy="72" r="71"/>
            <g mask="url(#9n0m44j55c)">
                <g transform="translate(-8.356 8)">
                    <g transform="translate(0 62.119)">
                        <mask id="qy0po3e7se" fill="#fff">
                            <use xlink:href="#608v51qdrd"/>
                        </mask>
                        <path d="M6.491 28.45C15.652 10.621 45.365 1.956 58.49.222c13.123-1.733 49.77 6.684 58.435 23.522l6.69 73.787H.548S-2.67 46.277 6.491 28.45" fill="#9FBBB3" mask="url(#qy0po3e7se)"/>
                    </g>
                    <path fill="#8BB0A7" d="M37.542 105.966v53.364h.624v-53.364"/>
                    <path fill="#FEFEFE" d="m98.457 58.993.015.019.003-.002z"/>
                    <path fill="#E5E4E6" d="m98.472 59.012-.05.033v.001l.05-.034zM113.495 43.304l.136-.074-.136.074M98.619 56.268c-.516 1.125-.603 2.063-.175 2.712l.013.013-.011-.014c-.428-.65-.342-1.587.173-2.711M116.107 41.994l.077-.035-.077.035z"/>
                    <mask id="16ww8l8cng" fill="#fff">
                        <use xlink:href="#89y6gicv2f"/>
                    </mask>
                    <path fill="#8BB0A7" mask="url(#16ww8l8cng)" d="M77.787 114.92h5.73V75.164h-5.73z"/>
                    <path fill="#FEFEFE" mask="url(#16ww8l8cng)" d="m83.294 56.445 6.645 10.868-4.646 19.65-4.99-12.326zM53.939 53.846l-4.805 10.921L76.247 87.72l3.965-13.05-24.325-21.34a1.215 1.215 0 0 0-1.948.516"/>
                    <path d="M56.896 50.368s-.853-5.648-1.602-6.022c-.748-.374-8.36-5.184-9.706-11.22-1.51-6.777-3.212-24.332 9.98-29.758 13.19-5.426 29.477 2.245 29.477 2.245S89.63 2.806 86.917 0c7.11.093 14.126 8.193 8.197 16.76L56.896 50.369z" fill="#462C5F" mask="url(#16ww8l8cng)"/>
                    <path d="m97.55 36.9-2.915-3.7V16.54c-14.14-8.176-31.742 9.619-31.742 9.619l-3.751 17.217-3.944 11.543 25.105 19.718 3.27-19.718c5.948.517 10.642-4.551 11.062-10.142V39.44c1.102-.35 2.243-1.237 2.835-1.744a.576.576 0 0 0 .08-.796" fill="#FAD9C7" mask="url(#16ww8l8cng)"/>
                    <path d="M83.573 54.919s-7.284-.515-10.48-3.566l8.914 12.863 1.566-9.297z" fill="#F4AF90" mask="url(#16ww8l8cng)"/>
                    <path d="M89.145 32.208c0 1.135-.568 2.054-1.27 2.054-.7 0-1.27-.92-1.27-2.054s.57-2.053 1.27-2.053c.702 0 1.27.919 1.27 2.053M85.17 23.986c1.116-1.467 3.659-1.789 4.835-.235a.297.297 0 0 1-.296.469c-.748-.12-1.374-.288-2.095-.253-.714.024-1.438.25-2.137.465-.256.087-.477-.242-.307-.446" fill="#262626" mask="url(#16ww8l8cng)"/>
                    <path d="m63.891 33.937.601.038a2.75 2.75 0 0 0 2.924-2.683l.544-2.844s10.312-.368 12.227-8.986c0 0 6.054-7.652 14.448-2.922-2.017-6.764-18.959-7.574-18.959-7.574L61.608 20.383l-1.474 11.49 3.757 2.064z" fill="#462C5F" mask="url(#16ww8l8cng)"/>
                    <path d="M66.554 35.77a6.865 6.865 0 1 1-13.73 0 6.865 6.865 0 0 1 13.73 0" fill="#FAD9C7" mask="url(#16ww8l8cng)"/>
                    <path d="m59.497 33.884 2.407 2.054-3.785.406a.312.312 0 1 0 .067.62l4.504-.484a.312.312 0 0 0 .17-.547l-2.958-2.524a.312.312 0 0 0-.405.475" fill="#F4AF90" mask="url(#16ww8l8cng)"/>
                    <path d="M125.332 159.688c-10.335 0-18.714-8.378-18.714-18.713l.18-40.292h36.889l.358 40.292c0 10.335-8.378 18.713-18.713 18.713" fill="#8BB0A7" mask="url(#16ww8l8cng)"/>
                    <path d="M125.332 159.688v-.312a18.34 18.34 0 0 1-13.012-5.39 18.34 18.34 0 0 1-5.39-13.01l.178-39.98h36.27l.355 39.982v-.003c0 5.082-2.06 9.68-5.39 13.011a18.34 18.34 0 0 1-13.011 5.39V160c10.507 0 19.024-8.518 19.024-19.025l-.36-40.604h-37.51l-.18 40.602v.002c0 10.507 8.519 19.025 19.026 19.025v-.312z" fill="#8BB0A7" mask="url(#16ww8l8cng)"/>
                    <path d="M143.687 100.683c0 2.522-8.259 4.567-18.445 4.567s-18.445-2.045-18.445-4.567c0-2.522 8.259-4.566 18.445-4.566s18.445 2.044 18.445 4.566" fill="#462C5F" mask="url(#16ww8l8cng)"/>
                    <path d="m138.628 97.541.172 6.238c-3.37.902-8.196 1.47-13.558 1.47-3.845 0-7.417-.29-10.373-.788V90.019s-9.798-8.676-11.163-15.865c-.704-3.707 39.827-4.523 39.827-4.523s-1.456 9.184-5.19 17.586l.285 10.324z" fill="#FAD9C7" mask="url(#16ww8l8cng)"/>
                    <path fill="#FEFEFE" mask="url(#16ww8l8cng)" d="m98.42 59.046 6.448 8.043-6.446-8.043z"/>
                    <path fill="#E5E4E6" mask="url(#16ww8l8cng)" d="m122.269 88.8.002-.001-17.403-21.71z"/>
                    <path d="M142.696 73.777v.001l.22.41-.374.247-.001.004.377-.249-.222-.413zm-38.85-6.413 3.896 4.862-3.896-4.862zm-6.788-8.57-.053.035 4.203 5.244-4.203-5.244.05-.033.003-.002zm.094-2.632c-.47 1.076-.538 1.973-.125 2.6l.013.014-.011-.014c-.413-.627-.347-1.524.123-2.6zm27.664-15.664-.002.001 15.695 29.21h.001l-15.694-29.211zm-6.555-.132c-2.92.941-6.502 2.697-10.126 5.086-5.32 3.506-9.344 7.454-10.794 10.311.74-1.456 2.148-3.196 4.055-5.016 1.834-1.75 4.13-3.575 6.737-5.294l.1-.065c.381-.25.762-.492 1.141-.728l.164-.103c.398-.246.795-.482 1.19-.711l.162-.096c.4-.23.796-.45 1.189-.663l.136-.074c.4-.215.796-.42 1.187-.617l.108-.053c.398-.198.792-.387 1.18-.565l.078-.036c.394-.18.782-.35 1.163-.51l.057-.023c.385-.16.762-.308 1.13-.445l.046-.016c.37-.138.732-.264 1.084-.378l.013-.004zm4.09-.785c-1.105 0-2.5.272-4.09.785 1.59-.511 2.987-.782 4.091-.782 1.149 0 1.982.292 2.39.91l.02.039-.02-.04c-.41-.618-1.242-.912-2.39-.912z" fill="#FEFEFE" mask="url(#16ww8l8cng)"/>
                    <path d="m142.542 74.434-20.797 13.708v.002l20.796-13.705.001-.005zm-34.8-2.208 13.11 16.358.08.097.812-.536h-.001l-.811.534-.077-.097-13.112-16.356zm32.768-2.517h-.001l2.187 4.07v-.002l-2.186-4.068z" fill="#F7CEC6" mask="url(#16ww8l8cng)"/>
                    <path fill="#EAE9EB" mask="url(#16ww8l8cng)" d="m121.745 88.143-.002.002.003-.001z"/>
                    <path d="M114.768 41.742" fill="#FEFEFE" mask="url(#16ww8l8cng)"/>
                    <path d="m117.118 40.764.046-.017-.046.017zM115.931 41.233l.057-.024-.057.024zM118.26 40.366l-.012.005.013-.005z" fill="#E5E4E6" mask="url(#16ww8l8cng)"/>
                    <path d="m101.208 64.073 2.243 2.799.394.493-2.637-3.292zm-3.882-8.28z" fill="#EFEFEE" mask="url(#16ww8l8cng)"/>
                    <path d="m98.472 59.012-.015-.02.017.018-.002.002-.05.034 6.446 8.043-6.447-8.043.05-.034zm.147-2.744c-.515 1.124-.6 2.062-.174 2.71l.012.014-.013-.012c-.428-.65-.34-1.587.175-2.712zm14.877-12.964.135-.074-.135.074zm2.61-1.31.079-.036-.078.036zm2.155-1.627-.013.003c-.352.114-.714.24-1.084.378l-.046.016c-.368.137-.746.286-1.13.445l-.057.024c-.38.159-.769.329-1.163.509l-.077.036a40.04 40.04 0 0 0-1.182.565l-.106.053a47.103 47.103 0 0 0-2.513 1.354l-.162.096a51.16 51.16 0 0 0-1.19.711l-.164.103c-.38.236-.76.478-1.14.728l-.101.065c-2.607 1.719-4.902 3.544-6.737 5.294-1.907 1.82-3.316 3.56-4.055 5.016v.001l-.008.016-.005.008a7.903 7.903 0 0 0-.176.374c-.47 1.076-.537 1.973-.123 2.6l.01.014.019.018-.003.001-.05.034 4.202 5.244 2.639 3.291 3.897 4.861c.342-.07.702-.138 1.078-.204l-3.953-4.932 3.953 4.932c.53-.095 1.09-.185 1.68-.272l-8.917-11.486c.282-.638 2.037-6.96 8.477-9.005 0 0 2.81-3.052 6.715-5.115.285-1.444.604-2.761.936-3.952-7.737 2.67-14.206 8.27-19.616 14.293 5.019-6.39 11.81-12.222 19.709-14.62.15-.525.303-1.023.456-1.497z" fill="#EAEAEB" mask="url(#16ww8l8cng)"/>
                    <path fill="#EFEFEE" mask="url(#16ww8l8cng)" d="m98.457 58.993.015.019.003-.002z"/>
                    <path fill="#E7E7E7" mask="url(#16ww8l8cng)" d="m98.472 59.012-.05.033v.001l.05-.034zM113.631 43.23l-.136.074.136-.074M98.619 56.268c-.516 1.125-.603 2.063-.175 2.712l.013.013-.011-.014c-.428-.65-.342-1.587.173-2.711M116.185 41.959l-.078.035.078-.035z"/>
                    <path d="M108.82 72.02c-.375.067-.735.135-1.077.206l13.111 16.356.012-.007c-.284-.856-.553-1.7-.81-2.536L108.82 72.021zm1.681-.27c-.59.086-1.15.176-1.68.27l11.233 14.013c-.33-1.072-.638-2.13-.924-3.169L110.5 71.75z" fill="#EBDCDC" mask="url(#16ww8l8cng)"/>
                    <path fill="#EFEFEE" mask="url(#16ww8l8cng)" d="M98.422 59.046h-.001l6.447 8.043z"/>
                    <path d="m104.868 67.089 3.953 4.932 11.235 14.018a.02.02 0 0 1-.002-.006L108.821 72.02l-3.953-4.932z" fill="#E7E7E7" mask="url(#16ww8l8cng)"/>
                    <path d="m117.164 40.747-.045.017.045-.017zM115.988 41.21l-.057.023.057-.024z" fill="#E5E4E6" mask="url(#16ww8l8cng)"/>
                    <path d="M98.292 58.687a633.794 633.794 0 0 1 20.79 26.29 633.07 633.07 0 0 1-20.79-26.29" fill="#FEFEFE" mask="url(#16ww8l8cng)"/>
                    <path d="M123.711 44.299c-1.046 3.76-5.991 4.962-12.981 6.765-.229.057-.449.124-.668.194 0 0 6.61-7.184 13.65-6.96" fill="#7FCDEB" mask="url(#16ww8l8cng)"/>
                    <path d="M138.985 71.49s-13.492 2.99-18.7 12.862l-18.7-24.09c.28-.637 2.036-6.958 8.476-9.004.22-.07.44-.136.669-.194 6.99-1.803 11.934-3.004 12.981-6.765l.005.008 15.269 27.182z" fill="#9FD7EF" mask="url(#16ww8l8cng)"/>
                    <path d="M116.612 74.442a.506.506 0 1 1 1.013 0 .506.506 0 0 1-1.013 0M118.866 63.438a.507.507 0 1 1 1.013.001.507.507 0 0 1-1.013 0M112.348 63.438a.507.507 0 1 1 1.013.001.507.507 0 0 1-1.013 0M112.348 55.722a.506.506 0 1 1 1.012 0 .506.506 0 0 1-1.012 0M116.654 56.229a.233.233 0 1 1 .465 0 .233.233 0 0 1-.465 0M116.654 66.125a.233.233 0 1 1 .465 0 .233.233 0 0 1-.465 0M121.692 73.526a.232.232 0 1 1 .464 0 .232.232 0 0 1-.464 0M121.692 78.561a.232.232 0 1 1 .464 0 .232.232 0 0 1-.464 0M121.186 49.617a.506.506 0 1 1 1.012 0 .506.506 0 0 1-1.012 0M124.632 71.993a.507.507 0 1 1 1.013.001.507.507 0 0 1-1.013 0M104.369 59.193a.507.507 0 1 1 1.013 0 .507.507 0 0 1-1.013 0M98.096 56.484c5.388-6.86 12.817-13.075 21.467-15.092 1.25-.25 2.515-.415 3.784-.454a25.974 25.974 0 0 0-3.734.664c-8.586 2.357-15.67 8.372-21.517 14.882M124.814 40.499l-.052.034h.001l.05-.033z" fill="#FEFEFE" mask="url(#16ww8l8cng)"/>
                    <path d="M142.695 73.779c-.048.212-.1.43-.153.655l.374-.246-.22-.41zm-20.342-34.195c-1.105 0-2.502.27-4.092.782a47.54 47.54 0 0 0-.456 1.498 28.04 28.04 0 0 1 1.759-.472c1.25-.25 2.514-.415 3.783-.455-1.262.14-2.511.345-3.734.665a31.44 31.44 0 0 0-1.9.589 52.782 52.782 0 0 0-.937 3.952c1.994-1.054 4.274-1.85 6.611-1.85.108 0 .216.002.324.006l.005.008 14.313 25.48a551.75 551.75 0 0 1 2.48-.078L124.814 40.5l-.05.035-.001-.002-.001.001-.02-.038c-.408-.618-1.242-.91-2.39-.91z" fill="#FEFEFE" mask="url(#16ww8l8cng)"/>
                    <path d="M120.056 86.04c.257.835.526 1.68.81 2.535l-.011.007.077.097.811-.534-1.687-2.105zm20.453-16.331c-.724.021-1.557.047-2.48.079l.956 1.701s-13.492 2.992-18.7 12.863l-1.156-1.488c.288 1.04.596 2.097.925 3.169l1.691 2.11 20.797-13.709c.054-.224.105-.443.154-.656l-2.187-4.069z" fill="#EAEAEB" mask="url(#16ww8l8cng)"/>
                    <path d="m120.054 86.033.002.007 1.687 2.105.002-.002-1.691-2.11z" fill="#F1F1F1" mask="url(#16ww8l8cng)"/>
                    <path d="M123.387 44.294c-2.337 0-4.617.796-6.611 1.849a58.503 58.503 0 0 0-.571 3.44c4.035-1.224 6.76-2.604 7.507-5.284a9.96 9.96 0 0 0-.325-.005" fill="#9FD7EF" mask="url(#16ww8l8cng)"/>
                    <path d="M121.924 78.794a.233.233 0 1 1 0-.465.233.233 0 0 1 0 .465zm0-5.036a.233.233 0 1 1 0-.465.233.233 0 0 1 0 .465zm3.214-1.258a.506.506 0 1 1 0-1.013.506.506 0 0 1 0 1.013zm-8.251-6.143a.233.233 0 1 1 0-.465.233.233 0 0 1 0 .465zm2.485-2.413a.506.506 0 1 1 0-1.011.506.506 0 0 1 0 1.011zm-2.485-7.483a.233.233 0 1 1 0-.465.233.233 0 0 1 0 .465zm4.805-6.338a.506.506 0 1 1 0-1.012.506.506 0 0 1 0 1.012zm2.02-5.824c-.747 2.68-3.472 4.06-7.507 5.285-.854 6.276-.966 14.408.865 24.355a.506.506 0 0 1 .187.99c.493 2.532 1.11 5.175 1.872 7.935l1.155 1.488c5.21-9.871 18.7-12.863 18.7-12.863l-.955-1.701-14.313-25.48-.005-.01z" fill="#D3ECF8" mask="url(#16ww8l8cng)"/>
                    <path d="M117.119 73.936c-.017 0-.033.001-.05.003.06.328.123.659.188.99a.507.507 0 0 0-.138-.993M119.372 62.932a.506.506 0 1 0 0 1.013.506.506 0 0 0 0-1.013M116.886 55.996a.232.232 0 1 0 0 .464.232.232 0 0 0 0-.464M116.886 65.893a.232.232 0 1 0 0 .464.232.232 0 0 0 0-.464M121.924 73.294a.233.233 0 1 0 0 .465.233.233 0 0 0 0-.465M121.924 78.33a.233.233 0 1 0 0 .464.233.233 0 0 0 0-.465M121.692 49.111a.506.506 0 1 0 0 1.013.506.506 0 0 0 0-1.013M125.138 71.487a.506.506 0 1 0 0 1.013.506.506 0 0 0 0-1.013M123.347 40.938c-1.269.04-2.534.203-3.784.454-.592.138-1.178.296-1.758.472l-.093.327c.626-.216 1.26-.413 1.9-.589a25.974 25.974 0 0 1 3.735-.664M142.847 74.084c1.52 2.306-2.17 7.42-8.24 11.42-6.07 4.002-12.224 5.376-13.744 3.07-1.52-2.305 2.17-7.418 8.24-11.42 6.07-4.001 12.224-5.376 13.744-3.07" fill="#FEFEFE" mask="url(#16ww8l8cng)"/>
                    <path d="M141.885 74.718c1.387 2.104-1.98 6.77-7.519 10.42-5.539 3.652-11.154 4.907-12.54 2.803-1.388-2.105 1.978-6.77 7.518-10.421 5.54-3.652 11.154-4.906 12.541-2.802" fill="#9FD7EF" mask="url(#16ww8l8cng)"/>
                    <path d="M103.706 74.154c-.496-2.69 3.386-10.023 5.063-10.502 1.678-.479 4.793 4.314 4.985 6.518.192 2.205-2.349 7.43-2.349 7.43l-7.7-3.446zM130.217 49.907c-1.382.419-6.815 3.725-7.849 4.773-2.051 2.08-2.458 3.395-1.788 5.363.67 1.968 4.403 2.174 4.403 2.174s-1.172 2.219.042 4.06c1.215 1.843 3.643 1.8 3.643 1.8s-1.531 1.607-.275 4.244c1.256 2.638 6.267.065 6.267.065l8.873-2.755s.585-3.144-.504-5.153c-1.089-2.01-4.48-2.094-4.48-2.094s1.465-2.972.963-4.69c-.502-1.716-3.224-2.302-3.224-2.302s.763-2.665.125-3.81c-1.423-2.554-4.814-2.093-6.196-1.675" fill="#FAD9C7" mask="url(#16ww8l8cng)"/>
                </g>
                <g transform="translate(111.926 57.58)">
                    <mask id="l5w2zuwpxi" fill="#fff">
                        <use xlink:href="#1a9zhoxvdh"/>
                    </mask>
                    <path d="M4.523 12.924s.105-.089.301-.25a58.81 58.81 0 0 1 4.65-3.42c2.169-1.43 4.722-2.863 6.903-3.438l-.113-.425c-2.592.687-5.584 2.486-7.945 4.112-2.359 1.627-4.077 3.083-4.08 3.086l.284.335z" fill="#F4AF90" mask="url(#l5w2zuwpxi)"/>
                </g>
                <g transform="translate(111.926 57.58)">
                    <mask id="tb9rffqyzk" fill="#fff">
                        <use xlink:href="#swmwzql2bj"/>
                    </mask>
                    <path d="M8.031 18.985c.001 0 .12-.085.339-.236.763-.53 2.72-1.866 4.847-3.164 2.124-1.299 4.434-2.56 5.842-2.932l-.113-.425c-.866.23-1.984.744-3.19 1.387-3.609 1.925-7.974 5.008-7.978 5.01l.253.36z" fill="#F4AF90" mask="url(#tb9rffqyzk)"/>
                </g>
            </g>
        </g>
        <circle stroke="#D35C9D" stroke-width="2" cx="80" cy="72" r="71"/>
        <g fill="#9FD7EF">
            <path d="M125.889 30.754a2.675 2.675 0 1 0 1.355 5.175 2.675 2.675 0 0 0-1.355-5.175M117.727 20.7a2.674 2.674 0 1 0 1.355 5.174 2.674 2.674 0 0 0-1.355-5.174M105.097 19.637a2.674 2.674 0 1 0 1.354 5.174 2.674 2.674 0 0 0-1.354-5.174M119.903 35.945a1.756 1.756 0 1 0 .889 3.397 1.756 1.756 0 0 0-.89-3.397M114.542 29.34a1.756 1.756 0 1 0 .89 3.398 1.756 1.756 0 0 0-.89-3.397M106.247 28.643a1.757 1.757 0 1 0 .89 3.399 1.757 1.757 0 0 0-.89-3.399M115.388 40.09a1.075 1.075 0 1 0 .544 2.081 1.075 1.075 0 0 0-.544-2.08M112.105 36.046a1.076 1.076 0 1 0 .546 2.082 1.076 1.076 0 0 0-.546-2.082M107.025 35.619a1.076 1.076 0 1 0 .545 2.081 1.076 1.076 0 0 0-.545-2.081"/>
        </g>
        <g fill="#9FD7EF">
            <path d="M144.289 17.154a2.675 2.675 0 1 0 1.355 5.175 2.675 2.675 0 0 0-1.355-5.175M136.127 7.1a2.674 2.674 0 1 0 1.355 5.174 2.674 2.674 0 0 0-1.355-5.174M123.497 6.037a2.674 2.674 0 1 0 1.354 5.174 2.674 2.674 0 0 0-1.354-5.174M138.303 22.345a1.756 1.756 0 1 0 .889 3.397 1.756 1.756 0 0 0-.89-3.397M132.942 15.74a1.756 1.756 0 1 0 .89 3.398 1.756 1.756 0 0 0-.89-3.397M124.647 15.043a1.757 1.757 0 1 0 .89 3.399 1.757 1.757 0 0 0-.89-3.399M133.788 26.49a1.075 1.075 0 1 0 .544 2.081 1.075 1.075 0 0 0-.544-2.08M130.505 22.446a1.076 1.076 0 1 0 .546 2.082 1.076 1.076 0 0 0-.546-2.082M125.425 22.019a1.076 1.076 0 1 0 .545 2.081 1.076 1.076 0 0 0-.545-2.081"/>
        </g>
    </g>
</svg>
