<svg width="160" height="160" viewBox="0 0 160 160" xmlns="http://www.w3.org/2000/svg" xmlns:xlink="http://www.w3.org/1999/xlink">
    <defs>
        <filter x="-12.5%" y="-12.5%" width="125%" height="125%" filterUnits="objectBoundingBox" id="c1qz52oypa">
            <feOffset dy="5" in="SourceAlpha" result="shadowOffsetOuter1"/>
            <feGaussianBlur stdDeviation="2.5" in="shadowOffsetOuter1" result="shadowBlurOuter1"/>
            <feColorMatrix values="0 0 0 0 0 0 0 0 0 0 0 0 0 0 0 0 0 0 0.2 0" in="shadowBlurOuter1" result="shadowMatrixOuter1"/>
            <feMerge>
                <feMergeNode in="shadowMatrixOuter1"/>
                <feMergeNode in="SourceGraphic"/>
            </feMerge>
        </filter>
        <circle id="x0vs0zu7jb" cx="72" cy="72" r="72"/>
        <path id="3f7se95s5d" d="M0 0h64.62v11.622H0z"/>
    </defs>
    <g filter="url(#c1qz52oypa)" fill="none" fill-rule="evenodd">
        <g transform="translate(8)">
            <mask id="m2tr1paf5c" fill="#fff">
                <use xlink:href="#x0vs0zu7jb"/>
            </mask>
            <circle stroke="#D35C9D" stroke-width="15" cx="72" cy="72" r="64.5"/>
            <g mask="url(#m2tr1paf5c)">
                <path fill="#F3F3F3" d="m50.352 83.598-10.884 14 18.79-4.828 11.654-15.38z"/>
                <path fill="#EAEAEB" d="m39.468 97.598 12.09 20.802 18.825-5.35-12.125-20.28z"/>
                <path d="M63.583 109.938a.84.84 0 0 1-.305 1.149.842.842 0 0 1-1.147-.32.839.839 0 0 1 .308-1.147.84.84 0 0 1 1.144.318M58.533 108.145a.84.84 0 0 1-.305 1.149.841.841 0 0 1-1.147-.32.838.838 0 0 1 .307-1.146.84.84 0 0 1 1.145.317M55.103 111.486a.84.84 0 0 1-.305 1.149.842.842 0 0 1-1.147-.32.838.838 0 0 1 .308-1.146.84.84 0 0 1 1.144.317M49.587 101.929a.84.84 0 0 1-.305 1.148.842.842 0 0 1-1.147-.32.839.839 0 0 1 .308-1.146.84.84 0 0 1 1.144.318M53.492 105.698a.596.596 0 0 1-.217.814.597.597 0 0 1-.812-.226.594.594 0 0 1 .217-.813.595.595 0 0 1 .812.225M55.825 99.328a.596.596 0 0 1-.216.814.597.597 0 0 1-.813-.226.594.594 0 0 1 .217-.813.595.595 0 0 1 .812.225" fill="#FEFEFE"/>
                <path fill="#DFE0E0" d="M81.827 98.349 69.738 77.548 58.258 92.77l12.125 20.28z"/>
                <path fill="#EADBD6" d="m103.276 63.31-6.604 7.908 11.008-2.423 7.08-8.694z"/>
                <path fill="#D9C0B9" d="m103.27 83.543-6.598-12.325 11.009-2.422 6.63 12.021z"/>
                <path d="M105.27 78.473a.462.462 0 0 1-.19.625.462.462 0 0 1-.624-.198.461.461 0 0 1 .19-.623.461.461 0 0 1 .623.196M102.03 73.699a.462.462 0 0 1-.19.624.462.462 0 0 1-.623-.197.46.46 0 0 1 .19-.624.461.461 0 0 1 .623.197M104.102 75.844c.084.16.024.359-.135.443a.328.328 0 0 1-.442-.14.327.327 0 0 1 .136-.443.327.327 0 0 1 .44.14M110.099 77.976c.084.161.024.36-.134.443a.328.328 0 0 1-.442-.14.327.327 0 0 1 .135-.442.327.327 0 0 1 .44.14M105.505 72.39c.085.161.024.36-.134.444a.328.328 0 0 1-.442-.14.327.327 0 0 1 .135-.443.327.327 0 0 1 .441.14" fill="#EADBD6"/>
                <path fill="#C8A59D" d="m121.254 72.513-6.599-12.324-6.974 8.607 6.63 12.021z"/>
                <path fill="#F3F3F3" d="m36.659 65.62-12.666.03 10.98 8.453 13.782-.204z"/>
                <path fill="#EAEAEB" d="m17.6 81.602 11.29 8.244 6.083-15.743-10.98-8.453z"/>
                <path d="M27.652 84.65a.6.6 0 0 1-.781.333.601.601 0 0 1-.325-.785.599.599 0 0 1 .78-.332.6.6 0 0 1 .326.784M26.44 81.02a.6.6 0 0 1-.78.332.601.601 0 0 1-.326-.785.6.6 0 0 1 .781-.332.6.6 0 0 1 .325.784M23.051 80.558a.6.6 0 0 1-.78.333.601.601 0 0 1-.325-.786.6.6 0 0 1 .78-.331.6.6 0 0 1 .325.784M26.005 73.25a.6.6 0 0 1-.78.333.6.6 0 0 1-.325-.786.599.599 0 0 1 .78-.331.6.6 0 0 1 .325.784M25.6 77.105a.426.426 0 0 1-.553.237.426.426 0 0 1-.23-.557.425.425 0 0 1 .553-.235c.216.088.32.337.23.555M30.212 75.617a.426.426 0 0 1-.553.237.426.426 0 0 1-.23-.557.425.425 0 0 1 .553-.235c.216.088.32.337.23.555" fill="#FEFEFE"/>
                <path fill="#DFE0E0" d="M42.197 89.823 48.59 73.87l-13.617.232-6.082 15.743z"/>
                <path fill="#F3F3F3" d="m78.975 28.608-10.883 14 18.79-4.828L98.534 22.4z"/>
                <path fill="#EAEAEB" d="M80.18 63.41 68.092 42.608l18.79-4.828 12.124 20.28z"/>
                <path d="M92.207 54.948a.84.84 0 0 1-.306 1.149.842.842 0 0 1-1.147-.32.839.839 0 0 1 .308-1.147.84.84 0 0 1 1.145.318M87.156 53.155a.84.84 0 0 1-.305 1.149.841.841 0 0 1-1.147-.32.838.838 0 0 1 .308-1.146.84.84 0 0 1 1.144.317M83.727 56.496a.84.84 0 0 1-.306 1.149.842.842 0 0 1-1.147-.32.838.838 0 0 1 .308-1.147.84.84 0 0 1 1.145.318M78.21 46.938a.84.84 0 0 1-.305 1.149.842.842 0 0 1-1.146-.32.839.839 0 0 1 .307-1.146.84.84 0 0 1 1.144.317M82.115 50.708a.596.596 0 0 1-.216.814.597.597 0 0 1-.813-.226.594.594 0 0 1 .217-.813.595.595 0 0 1 .812.225M84.448 44.338a.596.596 0 0 1-.216.814.597.597 0 0 1-.813-.226.594.594 0 0 1 .218-.813.595.595 0 0 1 .811.225" fill="#FEFEFE"/>
                <path fill="#DFE0E0" d="M110.45 43.359 98.362 22.557 86.882 37.78l12.124 20.28z"/>
                <path fill="#EADBD6" d="m38.361 47.396-1.31 9.968 7.807-7.748 1.29-10.864z"/>
                <path fill="#D9C0B9" d="M48.928 64.073 37.05 57.364l7.807-7.748 11.744 6.442z"/>
                <path d="M44.753 56.965a.6.6 0 0 1 .075.846.6.6 0 0 1-.847.065.598.598 0 0 1-.074-.844.6.6 0 0 1 .846-.067M48.294 58.542c.18.152.204.421.054.6a.426.426 0 0 1-.6.046.424.424 0 0 1-.053-.599c.15-.179.419-.2.6-.047M48.304 53.696c.18.153.205.421.054.6a.426.426 0 0 1-.6.046.424.424 0 0 1-.053-.599c.15-.178.419-.2.6-.047" fill="#EADBD6"/>
                <path fill="#C8A59D" d="M57.985 45.587 46.109 38.88l-1.25 10.737 11.743 6.443z"/>
                <path fill="#EADBD6" d="m65.91 57.527-8.964 2.26 9.268 4.045 9.722-2.58z"/>
                <path fill="#D9C0B9" d="m55.239 72.21 1.707-12.423 9.269 4.045-1.525 12.22z"/>
                <path d="M60.729 71.863a.531.531 0 0 1-.53.532.532.532 0 0 1-.526-.537.53.53 0 0 1 .53-.53.53.53 0 0 1 .526.535M60.62 66.923a.531.531 0 0 1-.53.532.531.531 0 0 1-.525-.536.53.53 0 0 1 .53-.531.53.53 0 0 1 .526.535M61.567 70.22a.377.377 0 0 1-.376.377.378.378 0 0 1 .003-.757c.206 0 .373.17.373.38M64.856 67.471a.377.377 0 0 1-.376.378.378.378 0 0 1 .003-.757c.206 0 .373.17.373.38" fill="#EADBD6"/>
                <path fill="#C8A59D" d="m74.107 73.685 1.707-12.424-9.6 2.57-1.524 12.221z"/>
            </g>
        </g>
        <g transform="translate(86.354 140.378)">
            <mask id="6sszzaxjne" fill="#fff">
                <use xlink:href="#3f7se95s5d"/>
            </mask>
            <path d="M32.31 4.916 0 0s2.47 3.508 2.767 4.54c.221.771 3.878 2.41 4.446 2.682 3.96 1.906 7.583 2.556 11.875 3.31 8.84 1.55 17.641 1.388 26.488-.115 3.925-.668 8.18-1.439 11.83-3.195.568-.273 4.225-1.91 4.447-2.683C62.149 3.508 64.62 0 64.62 0L32.31 4.916z" fill="#C8C9C9" mask="url(#6sszzaxjne)"/>
        </g>
        <path d="M152.057 137.051c0 7.065-15.057 12.794-33.629 12.794-18.572 0-33.628-5.729-33.628-12.794 0-7.066 15.056-12.794 33.628-12.794 18.572 0 33.629 5.728 33.629 12.794" fill="#F1F1F2"/>
        <path d="M144.989 136.329c0 4.501-11.892 8.15-26.56 8.15-14.67 0-26.561-3.649-26.561-8.15 0-4.503 11.891-8.151 26.56-8.151 14.67 0 26.56 3.648 26.56 8.15" fill="#E5E5E5"/>
        <path d="M107.041 101.37c.011-.01-5.552-2.46-6-2.569-3.936-.958-8.705-.203-11.604 2.807-5.658 5.873-4.733 15.87.792 21.415 1.779 1.785 4.034 3.555 6.257 4.748 4.108 2.206 8.67 3.69 12.96 5.519 0 0 6.849-6.182 1.787-4.578-4.348-.834-8.215-3.355-9.174-3.794-6.46-2.96-14.283-8.857-10.951-17.302.675-1.712 2.535-3.624 4.454-3.94 2.395-.395 5.124.5 7.324 1.382l4.155-3.688" fill="#8BB0A7"/>
        <path d="M120.607 88.233c-12.776 0-23.133 3.407-23.133 7.61 0 .077.011.153.018.23.37 4.097 10.573 7.381 23.115 7.381 12.539 0 22.74-3.282 23.114-7.378.008-.077.018-.154.018-.233 0-4.203-10.356-7.61-23.132-7.61" fill="#DBDCDC"/>
        <path d="M120.607 103.454c10.887 0 20.008-2.475 22.468-5.808-2.47-3.329-11.59-5.8-22.468-5.8-10.877 0-19.997 2.471-22.468 5.8 2.46 3.333 11.58 5.808 22.468 5.808" fill="#8C534A"/>
        <path d="M120.607 103.454c-12.542 0-22.745-3.284-23.115-7.381-.075 2.9-.375 27.498 10.435 41.376.603 2.03 6.032 3.62 12.641 3.62 6.407 0 11.704-1.492 12.573-3.433 10.956-13.839 10.656-38.633 10.58-41.56-.374 4.096-10.575 7.378-23.114 7.378" fill="#8BB0A7"/>
        <path d="M122.453 100.048c-.5-.032-.996-.095-1.49-.182.497.065.995.124 1.49.182" fill="#FDF9F9"/>
        <path d="M141.032 94.422a6.53 6.53 0 0 1-.15.765c-.559 2.138-2.318 4.153-5.26 5.683-6.395 3.33-16.174 3.227-22.917-.028a18.708 18.708 0 0 1-1.901-1.056c-2.214-1.41-3.663-3.057-4.356-4.762a4.547 4.547 0 0 1 .429-1.775c.829-1.745 2.545-2.908 4.322-3.666 1.778-.757 3.68-1.195 5.448-1.972 1.04-.458 2.043-1.035 3.155-1.267a6.192 6.192 0 0 1 1.735-.102c1.725.128 3.445.844 5.145 1.314 1.71.472 3.486.7 5.26.674.824-.012 1.663-.078 2.466.085.074.015.148.032.222.05.73.19 1.389.582 2.015 1.002 1.393.942 2.688 2.075 3.6 3.49l.069.11c.285.458.529.948.718 1.455" fill="#F6F6F7"/>
        <path d="M114.65 95.713a14.267 14.267 0 0 0 6.029 2.991c-3.46-.604-6.937-1.397-9.8-3.391-.364-.253-.736-.555-.856-.983-.134-.486.097-.995.361-1.424.69-1.125 2.519-2.515 4.056-3.065l.001-.002c.303-.11.593-.185.862-.22.18 1.161-2.793 1.857-2.566 3.494.11.788.66 1.439 1.235 1.99.22.212.445.415.678.61" fill="#FEFEFE"/>
        <path d="M111.927 92.416c-.345.321-.63.645-.811.94-.283.459-.287.664-.265.742.051.185.39.42.52.51.661.46 1.363.855 2.088 1.194l-.083-.079c-.614-.59-1.338-1.406-1.49-2.492a2.1 2.1 0 0 1 .041-.815" fill="#DFE0E0"/>
        <path d="M134.408 88.315c-.274.137-.554.26-.834.372-2.338.945-5.067 1.413-7.34.319-.623-.3-1.188-.706-1.764-1.088-.944-.626-1.927-1.165-2.933-1.676.76.056 1.517.227 2.272.439.962.271 1.92.611 2.873.875 1.71.472 3.486.7 5.259.674h.032c.815-.014 1.642-.076 2.435.085M141.032 94.422a6.53 6.53 0 0 1-.238 1.067c-.64 2.025-2.369 3.923-5.172 5.38-4.522 2.354-10.735 2.993-16.37 2.015-2.335-.405-4.572-1.089-6.547-2.042 1.192.235 2.409.355 3.622.42 4.917.263 9.92-.295 14.52-2.057 3.558-1.363 6.864-3.472 9.467-6.238.285.458.529.948.718 1.455" fill="#FEFEFE"/>
        <path d="M132.853 92.448c.538-.035 1.158-.07 1.528.322.328.348.307.922.067 1.336-.24.413-.652.695-1.068.93-1.7.96-3.702 1.36-5.647 1.188 1.247-.235 2.522-.479 3.616-1.12.292-.17.59-.403.646-.736.064-.39-.234-.748-.553-.981-.737-.54-1.364-.5-2.24-.758-.407-.12-.87-.176-1.25-.365-.236-.118-1.092-.253-1.073-.683.762.495 2.021.624 2.912.75 1.013.144 2.04.184 3.062.117M122.27 92.967c-.889.105-1.765.314-2.606.624-.18.067-.367.143-.496.286a.323.323 0 0 0-.094.207c0 .158.16.261.302.333l.815.414a7.495 7.495 0 0 0-2.572-.52c-.162-.005-.34-.008-.439-.17a.384.384 0 0 1-.018-.345c.093-.224.312-.337.523-.43.833-.367 1.318-.595 2.09-.683a5.69 5.69 0 0 1 2.256.213l.24.07z" fill="#FEFEFE"/>
        <path d="M123.81 86.68c.288.207.603.393.875.575.47.316.957.608 1.47.851a8.536 8.536 0 0 0 2.177.69c.305.052.613.088.922.102a5.32 5.32 0 0 0 1.338-.102c.489-.103.964-.292 1.38-.566h-.03a18.802 18.802 0 0 1-5.26-.674c-.952-.264-1.911-.604-2.873-.875M140.795 95.489l-.051.042c-3.617 3.023-7.974 5.117-12.549 6.26a35.75 35.75 0 0 1-3.933.748c-1.66.223-3.335.335-5.01.345 1.257.218 2.542.356 3.831.412 4.49.196 9.026-.598 12.539-2.426 2.803-1.458 4.532-3.356 5.173-5.381" fill="#DFE0E0"/>
        <path d="M127.055 92.439c-.586 1.437-1.964 2.487-3.621 2.73a5.14 5.14 0 0 1-.587.051s-.368.019-.79.035c-.422.016-.9.03-1.114.021-.43-.019-1.893-.221-1.893-.221-1.91-.224-3.449-1.495-3.956-3.159a1.898 1.898 0 0 1-.167-.845c.024-.549.306-1.086.836-1.56.102-.128 1.188-.824 1.188-.824 1.779-.97 3.974-5.874 5.192-7.366a.217.217 0 0 1 .054-.075c.18-.245.798-.989 1.775-1.225l.003-.001s-.422.764-.483 1.72l-.001.014a.214.214 0 0 1-.013.12c-.206 1.869.225 6.01 1.832 7.152.69.49 1.263.906 1.299.959.745.788.889 1.677.446 2.474" fill="#F6F6F7"/>
        <path d="M127.055 92.439c-.586 1.437-1.964 2.487-3.621 2.73 2.279-1.683 1.82-4.337-.32-6.472-2.598-2.59.78-8.61.858-8.696l.003-.001s-.422.764-.483 1.72l-.001.014a.214.214 0 0 1-.013.12c-.206 1.869.225 6.01 1.832 7.152.69.49 1.263.906 1.299.959.745.788.889 1.677.446 2.474" fill="#FEFEFE"/>
        <path stroke="#D35C9D" stroke-width="15" stroke-linecap="round" d="M37.6 114.453 122.453 29.6"/>
    </g>
</svg>
