<svg width="315" height="189" viewBox="0 0 315 189" xmlns="http://www.w3.org/2000/svg" xmlns:xlink="http://www.w3.org/1999/xlink">
    <defs>
        <path id="qz7uwkj2ya" d="M0 0h315v189H0z"/>
        <path id="f28l3qtwge" d="M0 0h15.795v15.795H0z"/>
        <path id="kypisg15gg" d="M0 0h76.883v79.426H0z"/>
        <path id="d2ob6uuqwi" d="M0 0h7.821v7.438H0z"/>
        <filter x="-.5%" y="-1.2%" width="101.1%" height="102.4%" filterUnits="objectBoundingBox" id="jrwk4iuikc">
            <feGaussianBlur stdDeviation=".5" in="SourceGraphic"/>
        </filter>
        <filter x="-2.9%" y="-5.7%" width="105.9%" height="111.4%" filterUnits="objectBoundingBox" id="lmbqn4kqid">
            <feOffset dy="2" in="SourceAlpha" result="shadowOffsetOuter1"/>
            <feGaussianBlur stdDeviation="1" in="shadowOffsetOuter1" result="shadowBlurOuter1"/>
            <feColorMatrix values="0 0 0 0 0 0 0 0 0 0 0 0 0 0 0 0 0 0 0.2 0" in="shadowBlurOuter1" result="shadowMatrixOuter1"/>
            <feMerge>
                <feMergeNode in="shadowMatrixOuter1"/>
                <feMergeNode in="SourceGraphic"/>
            </feMerge>
        </filter>
        <linearGradient x1="55.603%" y1="52.53%" x2="50%" y2="40.59%" id="mqcjhpsnwb">
            <stop stop-color="#436F62" stop-opacity="0" offset="0%"/>
            <stop stop-color="#203C33" offset="100%"/>
        </linearGradient>
    </defs>
    <g fill="none" fill-rule="evenodd">
        <path d="m81.065 174.304-55.649-55.829h45.187l52.744-47.68h53.461l13.075-13.116 15.692 15.743h54.887l10.36-10.394 39.594 39.722-1.298 78.57H90.476l-9.411-7.016z" fill="url(#mqcjhpsnwb)" opacity=".2" filter="url(#jrwk4iuikc)"/>
        <g filter="url(#lmbqn4kqid)" transform="translate(22 18)">
            <path fill="#203C33" d="M169.33 98.181h59.141V69.47h-59.14zM63.71 22.199a5.32 5.32 0 0 0 1.908 1.382 5.46 5.46 0 0 0 3.068.332l-1.31-.488-.273.213-3.393-1.44zm3.392 8.32a6.885 6.885 0 0 1-4.218-1.445 6.884 6.884 0 0 1-4.55-9.015l1.16-3.12c.066-.204.14-.406.224-.604l.523-1.232c1.256-2.956 4.181-4.862 7.455-4.862 1.129 0 2.233.223 3.28.664a8.412 8.412 0 0 1 4.248 3.954 7.968 7.968 0 0 1 .233 6.704l-2.019 4.762a6.882 6.882 0 0 1-6.336 4.194z"/>
            <path d="M63.496 29.145c-.252 0-.505-.014-.76-.042l-.195-.02a57.373 57.373 0 0 0-1.078-.1l-.057-.005-.05-.004c-.41-.036-.835-.089-1.267-.145l-.399-.051a6.88 6.88 0 0 1-5.59-9.244l4.11-10.968c1.163-3.121 4.24-5.227 7.654-5.227 1.013 0 2.011.18 2.968.537a8.411 8.411 0 0 1 4.535 3.975 8.05 8.05 0 0 1 .659 5.793l-.023.085c-.176.634-2.732 7.363-2.758 7.431l-1.303 3.503a6.881 6.881 0 0 1-6.446 4.482" fill="#203C33"/>
            <path d="M69.568 55.422c-.433 0-.868-.041-1.3-.124l-9.546-1.838a6.882 6.882 0 0 1-5.575-6.485l-.276-6.992c-2.077-1.74-4.064-4.21-4.235-7.352-.166-3.036.646-6.414 1.003-7.726.92-3.38 2.369-6.995 6.144-8.193.843-.268 1.717-.42 2.672-.465l.06-.002c.435-.018.882-.014 1.334.012.3.017.638.047.978.084.275.03.534.063.79.096l.073.01c.252.032.5.067.738.087l.114.01a84.125 84.125 0 0 1 1.267.12 30.866 30.866 0 0 1 .842.097c.315.041.583.083.838.127l.074.013c4.3.766 6.172 3.149 6.986 5.03.113.26.212.525.296.794a6.817 6.817 0 0 1 1.228.81 6.88 6.88 0 0 1 6.61 4.996c.06.2.17.574.253 1.057.526 3.104-.648 5.95-1.895 8.604-.106.225-.2.422-.264.57a6.9 6.9 0 0 1-.406.804c-1.536 7.125-1.872 9.052-1.94 9.49a6.882 6.882 0 0 1-6.863 6.366z" fill="#203C33"/>
            <path d="M70.794 25.956a5.598 5.598 0 0 0 3.222-.527 5.607 5.607 0 0 0-.264-.944 5.486 5.486 0 0 0-2.671-2.986c-1.545-.771-3.413-.741-4.921 0 .046.245.108.487.187.725a5.488 5.488 0 0 0 2.75 3.205 5.518 5.518 0 0 0 1.688.525l-2.719-1.362 2.728 1.364zm-2.169 8.725a8.348 8.348 0 0 1-3.709-.878 8.244 8.244 0 0 1-4.046-4.478 8.002 8.002 0 0 1 .32-6.37l.723-1.443.003-.005 2.434-4.858c1.361-2.716 4.12-4.402 7.201-4.402 1.276 0 2.557.302 3.705.875 1.962.985 3.47 2.72 4.152 4.767.677 2.045.521 4.208-.433 6.103l-3.15 6.284c-1.36 2.717-4.119 4.405-7.2 4.405z" fill="#203C33"/>
            <path d="M69.14 24.017c.034.46.124.917.27 1.359l5.169-1.718a5.697 5.697 0 0 0-2.402-.535 5.66 5.66 0 0 0-3.037.894m5.44-.358-5.169 1.72a5.696 5.696 0 0 0 2.832 3.27 5.706 5.706 0 0 0 2.538.601c1.088 0 2.141-.323 3.037-.893a5.658 5.658 0 0 0-3.238-4.698m-2.403 13.226a8.148 8.148 0 0 1-3.617-.853c-4.002-2.009-5.623-6.883-3.63-10.874l2.605-5.198a8.066 8.066 0 0 1 7.246-4.472c1.247 0 2.496.294 3.614.85a8.066 8.066 0 0 1 4.074 4.695l.001.003a8.059 8.059 0 0 1-.441 6.178l-2.605 5.196a8.06 8.06 0 0 1-7.247 4.475M44.45 23.447a6.06 6.06 0 0 0-2.233 4.68c0 1.688.707 3.299 1.94 4.418a6 6 0 0 0 1.125.806 6.032 6.032 0 0 0 2.23-4.678 5.99 5.99 0 0 0-1.897-4.38 6.028 6.028 0 0 0-1.165-.846m-2.983 12.988a7.69 7.69 0 0 1-5.216-2.057 7.815 7.815 0 0 1-2.502-5.705c0-4.105 3.117-7.434 7.25-7.742l.304-.023c2.062-.153 4.195-.31 6.248-.51a7.636 7.636 0 0 1 5.858 1.96 7.816 7.816 0 0 1 2.57 5.768c0 4.014-3.051 7.337-7.097 7.729-2.174.211-4.35.373-6.454.53l-.407.03c-.185.013-.37.02-.554.02" fill="#203C33"/>
            <path d="M51.484 28.557a7.434 7.434 0 0 1-2.849-.56 318.561 318.561 0 0 1-3.711-1.573l-.004-.001a7.595 7.595 0 0 1-4.137-4.445 7.89 7.89 0 0 1 .459-6.293 7.757 7.757 0 0 1 4.785-3.825c1.737-.479 3.496-.342 5.227.404.557.24 1.118.48 1.679.717l.219.093.052.022.012.006 1.136.475c1.575.653 2.808 1.67 3.689 3.03 1.136 1.77 1.494 3.875 1.02 5.95a7.75 7.75 0 0 1-3.63 4.928 7.862 7.862 0 0 1-3.947 1.072z" fill="#203C33"/>
            <path d="M42.83 23.472c.433.052.868.059 1.301.02l.976-4.408-.206 4.29a6.033 6.033 0 0 0 1.584-.591l-1.027-3.714 1.14 3.65a6.029 6.029 0 0 0 2.327-2.423c.747-1.417.881-3.113.377-4.668-.422-1.303-1.31-2.424-2.497-3.182l-2.756 4.31 1.953-4.491a6.222 6.222 0 0 0-1.305-.02l-.975 4.407.205-4.29a5.962 5.962 0 0 0-1.573.586l1.017 3.72-1.158-3.64a6.026 6.026 0 0 0-2.306 2.407 6.054 6.054 0 0 0-.38 4.674 5.894 5.894 0 0 0 1.711 2.59l1.923-4.422-1.918 4.426c.242.214.503.41.78.588l2.756-4.311-1.95 4.492zm2.421 2.509c-.353 0-.706-.025-1.057-.074a7.579 7.579 0 0 1-2.383-.714l-1.388-.603c-1.985-.861-3.521-2.582-4.213-4.72-.642-1.98-.448-4.115.548-6.005a7.754 7.754 0 0 1 4.668-3.797 7.547 7.547 0 0 1 3.21-.238 7.557 7.557 0 0 1 2.382.714l1.389.604c1.983.859 3.52 2.58 4.212 4.718.641 1.979.448 4.11-.545 6a7.77 7.77 0 0 1-6.823 4.115z" fill="#203C33"/>
            <path d="M48.943 15.852a5.924 5.924 0 0 0 2.026.896 6.099 6.099 0 0 0 4.678-.823 5.932 5.932 0 0 0 2.672-5.761 5.917 5.917 0 0 0-2.972-1.047l-3.75 2.232 3.75-2.232a6.138 6.138 0 0 0-3.744.96c-1.966 1.266-2.934 3.555-2.66 5.775m5.984 7.013a7.844 7.844 0 0 1-6.66-3.717c-.966-1.569-1.888-3.11-2.583-4.278-2.146-3.605-1.048-8.22 2.5-10.508a7.727 7.727 0 0 1 5.922-1.014 7.828 7.828 0 0 1 4.922 3.592c.726 1.22 1.59 2.662 2.48 4.108 2.19 3.566 1.09 8.317-2.45 10.597a7.598 7.598 0 0 1-4.13 1.22" fill="#203C33"/>
            <g transform="translate(42.674)">
                <mask id="y9lf6jibhf" fill="#fff">
                    <use xlink:href="#f28l3qtwge"/>
                </mask>
                <path d="M7.898 2.033a5.871 5.871 0 0 0-5.865 5.864 5.871 5.871 0 0 0 5.865 5.865 5.871 5.871 0 0 0 5.864-5.865 5.871 5.871 0 0 0-5.864-5.864m0 13.762C3.543 15.795 0 12.252 0 7.897 0 3.543 3.543 0 7.898 0c4.355 0 7.897 3.543 7.897 7.897 0 4.355-3.542 7.898-7.897 7.898" fill="#203C33" mask="url(#y9lf6jibhf)"/>
            </g>
            <path fill="#FFED01" d="M118.678 96.773H69.224l8.353-43.616h49.454l-1.644 8.586H85.823l-1.684 8.792h39.565l-1.71 8.93H82.43l-1.605 8.38h39.563z"/>
            <g transform="translate(0 6.881)">
                <path d="M118.678 96.773H69.224a6.883 6.883 0 0 1-6.758-8.175l8.352-43.616a6.882 6.882 0 0 1 6.759-5.587h49.454a6.881 6.881 0 0 1 6.758 8.175l-1.644 8.586a6.871 6.871 0 0 1-2.466 4.085 6.88 6.88 0 0 1 .782 4.707l-1.71 8.93a6.866 6.866 0 0 1-2.258 3.91 6.882 6.882 0 0 1 .653 4.469l-1.71 8.93a6.882 6.882 0 0 1-6.758 5.586" fill="#203C33"/>
                <path d="M58.509 107.73c.693-.36 1.4-.691 2.118-.997l-1.058.447c3.173-1.333 6.537-2.12 9.94-2.582l-1.177.158c8.963-1.191 18.068-.332 27.052.135 7.695.4 15.375.413 23.048-.359 2.512-.252 5.022-.568 7.513-.978 1.92-.316 3.84-.692 5.703-1.258 1.084-.329 2.07-1.048 2.647-2.035.555-.949.79-2.348.446-3.412-.347-1.071-1.01-2.105-2.035-2.646-1.039-.549-2.259-.797-3.412-.446-2.668.809-5.446 1.256-8.204 1.63l1.177-.159c-7.863 1.054-15.802 1.286-23.724.956-9.492-.395-19.066-1.468-28.555-.48-2.786.29-5.577.7-8.289 1.417a37.514 37.514 0 0 0-7.66 2.962c-.957.497-1.754 1.627-2.035 2.646-.292 1.06-.16 2.472.446 3.413.61.945 1.518 1.777 2.646 2.034 1.196.272 2.317.123 3.413-.446" fill="#FFED01"/>
                <path d="M56.224 115.187c-.881 0-1.77-.1-2.653-.3-2.774-.633-5.224-2.414-6.903-5.014-1.63-2.529-2.126-5.965-1.298-8.97.806-2.93 2.914-5.585 5.499-6.927a44.351 44.351 0 0 1 9.071-3.507c2.714-.717 5.68-1.229 9.336-1.61 7.707-.802 15.298-.352 22.64.081 2.278.135 4.633.275 6.913.37 7.88.327 15.058.059 21.921-.822 2.193-.306 4.473-.687 6.547-1.316 2.795-.85 5.86-.514 8.625.948 2.508 1.325 4.414 3.672 5.365 6.61.927 2.863.523 6.314-1.054 9.007-1.443 2.465-3.782 4.292-6.585 5.143-2.425.736-4.794 1.169-6.586 1.463-2.49.41-5.087.749-7.942 1.035-7.314.736-14.97.858-24.093.384-1.44-.075-2.883-.16-4.328-.244-7.268-.427-14.145-.832-20.84-.02-2.676.398-5 .99-7.073 1.802-.378.171-.748.35-1.105.536h-.002a11.783 11.783 0 0 1-5.455 1.351" fill="#203C33"/>
                <path fill="#FFED01" d="M189.414 59.917h39.563L231.2 48.31h-39.563l1.644-8.586h49.454l-8.339 43.547h-9.891l2.762-14.424h-39.564z"/>
                <path d="M234.396 90.151h-9.891a6.883 6.883 0 0 1-6.759-8.175l1.197-6.249h-31.24a6.88 6.88 0 0 1-6.758-8.175l1.71-8.93a6.881 6.881 0 0 1 4.407-5.172 6.882 6.882 0 0 1-2.184-6.435l1.645-8.586a6.881 6.881 0 0 1 6.758-5.587h49.454a6.882 6.882 0 0 1 6.758 8.176l-8.339 43.546a6.882 6.882 0 0 1-6.758 5.587" fill="#203C33"/>
                <path fill="#FFED01" d="m151.709 54.85-2.11-.04-9.4.04h-12.035l-.92 8.96h11.6l-19.179 49.595h9.432l6.876-18 3.087 18h9.343l-6.585-29.158z"/>
                <path d="M148.403 120.287h-9.343c-1.941 0-3.72-.81-4.982-2.135a6.878 6.878 0 0 1-4.981 2.135h-9.432a6.88 6.88 0 0 1-6.417-9.363l15.558-40.234h-1.562a6.882 6.882 0 0 1-6.845-7.584l.92-8.958a6.881 6.881 0 0 1 6.845-6.178H140.2l9.37-.042c.053-.001.11 0 .165.002l2.11.041a6.881 6.881 0 0 1 6.386 9.074l-9.276 27.568 6.16 27.277a6.883 6.883 0 0 1-6.712 8.397" fill="#203C33"/>
                <path d="M151.224 76.842h6.8l4.565-23.834h9.89l-11.838 61.818h-9.891l5.564-29.054h-6.8l1.71-8.93zm24.69-23.834h9.891l-11.839 61.818h-9.89l11.838-61.818z" fill="#FFED01"/>
                <path d="M173.966 121.707h-9.89c-.586 0-1.161-.074-1.717-.217a6.883 6.883 0 0 1-1.719.217h-9.89a6.882 6.882 0 0 1-6.758-8.175l4.03-21.043a6.882 6.882 0 0 1-5.266-8.011l1.71-8.93a6.881 6.881 0 0 1 6.758-5.587h1.112l3.495-18.247a6.88 6.88 0 0 1 6.758-5.587h9.89c.586 0 1.161.075 1.716.217a6.884 6.884 0 0 1 1.719-.217h9.892a6.88 6.88 0 0 1 6.758 8.176l-11.84 61.818a6.882 6.882 0 0 1-6.758 5.586" fill="#203C33"/>
                <path d="M176.277 97.245a22.772 22.772 0 0 1 2.409-1.197l-1.058.447c2.376-.997 4.89-1.594 7.438-1.936l-1.176.158c4.54-.596 9.15-.432 13.703-.07 4.961.394 9.897 1.043 14.845 1.56 7.885.82 15.855 1.343 23.724.119 2.202-.343 4.387-.852 6.48-1.625 1.339-.494 2.669-1.052 3.928-1.726 1.285-.688 2.435-1.539 3.576-2.445.83-.658 1.297-2.125 1.297-3.13 0-1.087-.483-2.384-1.297-3.132-.844-.774-1.952-1.35-3.13-1.297l-1.178.158c-.75.21-1.402.59-1.954 1.139l-.185.146.896-.692c-1.33 1.023-2.803 1.832-4.347 2.485l1.058-.446c-2.692 1.122-5.554 1.772-8.438 2.16l1.178-.157c-3.042.402-6.117.518-9.182.424a167.146 167.146 0 0 1-11.813-.775c-4.611-.47-9.21-1.067-13.827-1.484-4.3-.388-8.642-.637-12.956-.313-5.04.378-10.037 1.442-14.46 3.982-.962.551-1.742 1.581-2.035 2.646-.292 1.06-.16 2.471.446 3.412.61.946 1.517 1.778 2.646 2.035 1.168.266 2.355.16 3.412-.446" fill="#FFED01"/>
                <path d="M174.033 104.706c-.894 0-1.797-.101-2.695-.305-2.774-.633-5.224-2.414-6.902-5.015-1.63-2.53-2.125-5.966-1.297-8.97.772-2.807 2.732-5.345 5.243-6.786 4.815-2.765 10.497-4.36 17.37-4.876 5.06-.38 9.962-.051 14.09.322 2.787.252 5.574.568 8.269.873 1.878.214 3.757.427 5.638.619 3.677.374 7.488.624 11.326.742 2.63.08 5.144-.019 7.485-.295 2.124-.32 3.953-.778 5.559-1.39a13.21 13.21 0 0 0 1.656-.914 11.22 11.22 0 0 1 4.204-2.207c.31-.087.627-.152.947-.195l1.177-.158c.2-.027.402-.045.603-.054 2.89-.135 5.77.97 8.092 3.1 2.209 2.03 3.526 5.095 3.526 8.202 0 2.503-1.022 6.236-3.9 8.52-1.252.995-2.78 2.145-4.604 3.122-1.404.751-2.971 1.442-4.795 2.116-2.374.876-4.927 1.52-7.806 1.968-8.735 1.359-17.415.767-25.494-.075-1.721-.18-3.441-.375-5.16-.57-3.135-.356-6.376-.725-9.516-.974-3.532-.28-7.66-.499-11.693-.037-1.68.26-3.161.637-4.498 1.144-.4.187-.786.388-1.155.599a11.358 11.358 0 0 1-5.67 1.494" fill="#203C33"/>
                <path d="M140.39 61.894a3.542 3.542 0 0 1-3.361-2.422l-4.251-12.753a3.543 3.543 0 0 1 6.721-2.24l2.02 6.058 13.3-19.085a3.543 3.543 0 0 1 5.813 4.051l-17.336 24.874a3.544 3.544 0 0 1-2.906 1.517" fill="#FFED01"/>
                <path d="M140.39 68.775c-.496 0-.997-.036-1.489-.107a10.367 10.367 0 0 1-8.4-7.022l-4.251-12.751c-1.817-5.452 1.14-11.366 6.591-13.184a10.421 10.421 0 0 1 9.544 1.548l6.79-9.741c3.288-4.715 9.797-5.877 14.511-2.591 4.714 3.284 5.878 9.794 2.592 14.51L148.941 64.31a10.43 10.43 0 0 1-8.551 4.464" fill="#203C33"/>
                <path d="M8.59 79.144h53.783l-5.036 25.825h-9.892l3.327-16.896H6.88l1.71-8.93zm5.913-39.839h29.742l-1.71 8.93h-3.297L35.686 66.78h3.297l-1.71 8.93H7.531l1.71-8.93h3.298l3.551-18.545h-3.297l1.71-8.93zm7.789 27.475h3.64l3.552-18.545h-3.64L22.292 66.78zm24.494-27.475h9.89l-2.643 13.806h3.434l2.644-13.806h9.891L63.031 75.71H53.14l2.617-13.669h-3.434l-2.618 13.67h-9.89l6.971-36.405z" fill="#FFED01"/>
                <g transform="translate(0 32.424)">
                    <mask id="8mykt7r7wh" fill="#fff">
                        <use xlink:href="#kypisg15gg"/>
                    </mask>
                    <path d="M57.337 79.426h-9.892a6.882 6.882 0 0 1-6.751-8.21l1.71-8.686H6.88a6.881 6.881 0 0 1-6.758-8.175L1.58 46.74a6.88 6.88 0 0 1-.808-4.75l1.71-8.929a6.881 6.881 0 0 1 4.279-5.125l1.355-7.078a6.88 6.88 0 0 1-2.082-6.343l1.71-8.929A6.88 6.88 0 0 1 14.503 0h29.742c.429 0 .854.04 1.269.118A6.86 6.86 0 0 1 46.786 0h9.89c.585 0 1.161.074 1.717.217A6.883 6.883 0 0 1 60.112 0h9.89a6.883 6.883 0 0 1 6.759 8.175L69.789 44.58a6.909 6.909 0 0 1-.55 1.677c.039.589.003 1.187-.112 1.78L64.09 73.862a6.882 6.882 0 0 1-6.754 5.564" fill="#203C33" mask="url(#8mykt7r7wh)"/>
                </g>
                <path d="M48.676 103.378c-.324 3.322-.005 6.673-.438 9.99l.158-1.177c-.174 1.285-.455 2.555-.955 3.756l.447-1.058a9.079 9.079 0 0 1-1.144 1.974c.23-.3.462-.598.693-.897a7.97 7.97 0 0 1-1.37 1.35l.896-.693a7.696 7.696 0 0 1-1.532.903c.352-.15.705-.298 1.058-.447-.49.203-.99.345-1.515.418l1.178-.159c-.45.053-.898.053-1.348-.005l1.177.159a5.373 5.373 0 0 1-1.25-.344l1.057.446a5.553 5.553 0 0 1-1.194-.705l.897.693a5.94 5.94 0 0 1-.987-1.005l.692.896a6.366 6.366 0 0 1-.73-1.258l.446 1.058a6.776 6.776 0 0 1-.46-1.685l.159 1.177a7.424 7.424 0 0 1 .012-1.88l-.158 1.176c.105-.71.305-1.394.578-2.058l-.446 1.058c.361-.851.831-1.641 1.394-2.374l-.693.896a13.838 13.838 0 0 1 2.387-2.355l-.896.692c1.46-1.126 3.089-2.003 4.782-2.725l-1.058.447c2.066-.87 4.22-1.509 6.406-1.997 1.054-.236 2.112-1.12 2.647-2.035.555-.949.79-2.348.446-3.412-.346-1.072-1.01-2.105-2.035-2.647-1.083-.571-2.206-.715-3.412-.445a39.328 39.328 0 0 0-5.173 1.506c-2.08.775-4.158 1.673-6.014 2.903-2.107 1.395-3.844 3.013-5.308 5.07-1.476 2.073-2.36 4.712-2.373 7.26-.013 2.746 1.025 5.364 2.87 7.384 1.75 1.917 4.464 3.072 7.057 3.006 2.874-.074 5.693-1.412 7.65-3.51 1.63-1.747 2.727-3.923 3.3-6.236.58-2.335.738-4.788.785-7.187.04-1.974-.019-3.957.173-5.924.104-1.064-.569-2.403-1.297-3.131-.768-.768-2.028-1.346-3.13-1.297-1.146.052-2.334.427-3.132 1.297l-.692.896c-.401.69-.602 1.436-.605 2.235" fill="#FFED01"/>
                <path d="M45.408 133.119c-4.472 0-8.903-1.944-11.921-5.25-3.034-3.321-4.692-7.603-4.67-12.058.019-3.956 1.314-7.94 3.648-11.217 1.907-2.68 4.235-4.91 7.115-6.816 2.228-1.477 4.544-2.504 6.47-3.256 1.837-1.473 4.179-2.33 6.745-2.446a9.963 9.963 0 0 1 1.735.077 11.67 11.67 0 0 1 6.66 1.313c2.515 1.33 4.42 3.679 5.37 6.615.925 2.86.521 6.31-1.056 9.005a11.034 11.034 0 0 1-1.307 1.787c-.087 2.153-.309 4.71-.944 7.272-.877 3.538-2.587 6.745-4.947 9.274-3.265 3.499-7.822 5.574-12.504 5.695-.131.003-.263.005-.394.005" fill="#203C33"/>
                <path fill="#FEFEFE" d="M118.678 89.892H69.224l8.353-43.616h49.454l-1.644 8.586H85.823l-1.684 8.792h39.565l-1.71 8.93H82.43l-1.605 8.379h39.563zM58.509 107.73c.693-.36 1.4-.691 2.118-.997l-1.058.447c3.173-1.333 6.537-2.12 9.94-2.582l-1.177.158c8.963-1.191 18.068-.332 27.052.135 7.695.4 15.375.413 23.048-.359 2.512-.252 5.022-.568 7.513-.978 1.92-.316 2.603-.692 4.467-1.258 1.084-.329 1.812-1.048 2.39-2.035.555-.949 1.047-2.348.703-3.412-.347-1.071.225-2.105-.8-2.646-1.038-.549-2.258-.797-3.411-.446-2.668.809-5.446 1.256-8.204 1.63l1.177-.159c-7.863 1.054-15.802 1.286-23.724.956-9.492-.395-19.066-1.468-28.555-.48-2.786.29-5.577.7-8.289 1.417a37.514 37.514 0 0 0-7.66 2.962c-.957.497-1.754 1.627-2.035 2.646-.292 1.06-.16 2.472.446 3.413.61.945 1.518 1.777 2.646 2.034 1.196.272 2.317.123 3.413-.446"/>
                <path fill="#FFE400" d="M189.414 59.917h39.563L231.2 48.31h-39.563l1.644-8.586h49.454l-8.339 43.547h-9.891l2.762-14.424h-39.564zM151.709 54.85l-2.11-.04-9.4.04h-12.035l-.92 8.96h11.6l-19.179 49.595h9.432l6.876-18 3.087 18h9.343l-6.585-29.158z"/>
                <path d="M151.224 76.842h6.8l4.565-23.834h9.89l-11.838 61.818h-9.891l5.564-29.054h-6.8l1.71-8.93zm24.69-23.834h9.891l-11.839 61.818h-9.89l11.838-61.818z" fill="#FFE400"/>
                <path d="M176.277 97.245a22.772 22.772 0 0 1 2.409-1.197l-1.058.447c2.376-.997 4.89-1.594 7.438-1.936l-1.176.158c4.54-.596 9.15-.432 13.703-.07 4.961.394 9.897 1.043 14.845 1.56 7.885.82 15.855 1.343 23.724.119 2.202-.343 4.387-.852 6.48-1.625 1.339-.494 2.669-1.052 3.928-1.726 1.285-.688 2.435-1.539 3.576-2.445.83-.658 1.297-2.125 1.297-3.13 0-1.087-.483-2.384-1.297-3.132-.844-.774-1.952-1.35-3.13-1.297l-1.178.158c-.75.21-1.402.59-1.954 1.139l-.185.146.896-.692c-1.33 1.023-2.803 1.832-4.347 2.485l1.058-.446c-2.692 1.122-5.554 1.772-8.438 2.16l1.178-.157c-3.042.402-6.117.518-9.182.424a167.146 167.146 0 0 1-11.813-.775c-4.611-.47-9.21-1.067-13.827-1.484-4.3-.388-8.642-.637-12.956-.313-5.04.378-10.037 1.442-14.46 3.982-.962.551-1.742 1.581-2.035 2.646-.292 1.06-.16 2.471.446 3.412.61.946 1.517 1.778 2.646 2.035 1.168.266 2.355.16 3.412-.446" fill="#FFE400"/>
                <path d="M8.59 79.144h53.783l-5.036 25.825h-9.892l3.327-16.896H6.88l1.71-8.93zm5.913-39.839h29.742l-1.71 8.93h-3.297L35.686 66.78h3.297l-1.71 8.93H7.531l1.71-8.93h3.298l3.551-18.545h-3.297l1.71-8.93zm7.789 27.475h3.64l3.552-18.545h-3.64L22.292 66.78zm24.494-27.475h9.89l-2.643 13.806h3.434l2.644-13.806h9.792L63.031 75.71H53.14l2.617-13.669h-3.434l-2.618 13.67h-9.89l6.971-36.405z" fill="#FEFEFE"/>
                <path d="m48.238 113.368.158-1.177c-.174 1.285-.455 2.555-.955 3.756l.447-1.058a9.079 9.079 0 0 1-1.144 1.974c.23-.3.462-.598.693-.897a7.97 7.97 0 0 1-1.37 1.35l.896-.693a7.696 7.696 0 0 1-1.532.903c.352-.15.705-.298 1.058-.447-.49.203-.99.345-1.515.418l1.178-.159c-.45.053-.898.053-1.348-.005l1.177.159a5.373 5.373 0 0 1-1.25-.344l1.057.446a5.553 5.553 0 0 1-1.194-.705l.897.693a5.94 5.94 0 0 1-.987-1.005l.692.896a6.366 6.366 0 0 1-.73-1.258l.446 1.058a6.776 6.776 0 0 1-.46-1.685l.159 1.177a7.424 7.424 0 0 1 .012-1.88l-.158 1.176c.105-.71.305-1.394.578-2.058l-.446 1.058c.361-.851.831-1.641 1.394-2.374l-.693.896a13.838 13.838 0 0 1 2.387-2.355l-.896.692c1.46-1.126 3.089-2.003 4.782-2.725l-1.058.447c2.066-.87-1.669-10.598 6.406-1.997.778.828 2.112-1.12 2.647-2.035.555-.949.79-2.348.446-3.412-.346-1.072-1.01-2.105-2.035-2.647-1.083-.571-2.206-.715-3.412-.445a39.328 39.328 0 0 0-5.173 1.506c-2.08.775-4.158 1.673-6.014 2.903-2.107 1.395-3.844 3.013-5.308 5.07-1.476 2.073-2.36 4.712-2.372 7.26-.014 2.746 1.024 5.364 2.87 7.384 1.75 1.917 4.463 3.072 7.056 3.006 2.874-.074 5.693-1.412 7.65-3.51 1.63-1.747 2.727-3.923 3.3-6.236.58-2.335.738-4.788.785-7.187.04-1.974-.019-3.957.173-5.924.104-1.064-.569-2.403-1.297-3.131-.768-.768-2.028-1.346-3.13-1.297-1.146.052-2.334.427-3.132 1.297-.231.299.668 8.59.437 8.889-.4.69-1.74.915-2.172 4.232z" fill="#FEFEFE"/>
                <ellipse fill="#FFF" cx="52" cy="108" rx="3" ry="4"/>
                <path d="m67.103 16.757 2.022-4.766c.253-.597-.113-1.326-.816-1.624a1.573 1.573 0 0 0-.613-.126c-.517 0-.946.256-1.12.668l-.523 1.232c-.015.047-.027.093-.044.14l-1.227 3.297c1.008.206 1.825.545 2.321 1.179M61.947 15.237l.084.006c.434.038.858.076 1.268.12l.194.02 1.32-3.547c.012-.032 2.551-6.8 2.56-6.832a1.157 1.157 0 0 0-.1-.84 1.547 1.547 0 0 0-.842-.721 1.623 1.623 0 0 0-.567-.105c-.563 0-1.038.3-1.21.762l-4.112 10.968.417.054c.337.044.669.087.988.115M74.066 23.535a2.485 2.485 0 0 1-1.89.865c-.39 0-.766-.09-1.117-.265a2.495 2.495 0 0 1-1.366-2.175 2.54 2.54 0 0 1-1.068.235c-.413 0-.83-.099-1.206-.287a2.643 2.643 0 0 1-1.303-1.433 2.521 2.521 0 0 1-.108-.409c-1.046.34-2.544.34-4.337-.035a.638.638 0 0 1-.498-.722l.003-.033a.637.637 0 0 1 .756-.495c.373.079.713.132 1.037.174.207.027.412.053.598.067a7.02 7.02 0 0 0 1.37-.018c.626-.075 1.039-.245 1.235-.442a.556.556 0 0 0 .09-.121l.003-.005c.054-.097.084-.228.04-.436a1.096 1.096 0 0 0-.069-.212c-.232-.543-.876-.818-1.905-.998-.002 0-.005 0-.007-.002-.2-.034-.41-.066-.638-.095l-.02-.003c-.2-.025-.412-.048-.634-.07-.005-.002-.011-.002-.017-.003a78.986 78.986 0 0 0-1.094-.1l-.083-.008a24.092 24.092 0 0 1-1.043-.121c-.237-.03-.475-.06-.712-.087-.215-.024-.43-.044-.64-.056a6.104 6.104 0 0 0-.66-.006c-.323.016-.632.06-.919.15-.915.291-2.527 5.891-2.358 8.986.069 1.252 2.372 3.024 3.807 3.847l.298.17.412 10.43 9.823-.09c-.022-.803 1.974-9.304 1.974-9.314-.008-.272.144-.512.462-.983.071-.106.137-.2.167-.256.089-.208.22-.486.365-.796.579-1.23 1.547-3.291 1.34-4.51-.02-.117-.057-.226-.088-.338" fill="#FEFEFE"/>
                <path d="m68.066 17.71-.172.346-.12.237-.291.582-.136.271c-.135.27-.147.582-.035.881.119.317.36.58.679.74.198.099.418.152.634.152.46 0 .861-.232 1.048-.605l.281-.56.285-.57.288-.573 2.302-4.594c.128-.253.146-.55.051-.835a1.382 1.382 0 0 0-.696-.784 1.426 1.426 0 0 0-.633-.151c-.46 0-.862.231-1.05.604l-2.314 4.618-.12.241zM75.94 16.325a1.215 1.215 0 0 0-1.159-.837c-.466 0-.885.258-1.094.675l-1.63 3.252-.288.573-.286.57-.397.792a1.228 1.228 0 0 0 .544 1.643 1.216 1.216 0 0 0 1.64-.545l.123-.243.31-.621.308-.612 1.862-3.713c.146-.292.17-.624.067-.934M41.51 22.672c2.237-.167 4.475-.33 6.707-.547.473-.046.88-.371.88-.88 0-.44-.404-.926-.88-.88-2.232.217-4.47.38-6.707.546-.474.036-.88.38-.88.88 0 .45.404.916.88.88M47.642 13.222c1.206.519 2.415 1.033 3.628 1.536.196.081.504.013.678-.088a.9.9 0 0 0 .405-.526c.051-.226.04-.479-.089-.679-.133-.205-.302-.311-.526-.404-.27-.112-.54-.224-.808-.337l-.413-.174a24.535 24.535 0 0 1-.268-.114c-.574-.243-1.147-.488-1.719-.734-.226-.098-.43-.157-.678-.089a.898.898 0 0 0-.526.405c-.2.378-.136 1.01.316 1.204M43.16 11.396l1.62.703c.1.064.21.099.327.104a.67.67 0 0 0 .35-.015.902.902 0 0 0 .527-.405c.107-.204.162-.452.088-.678-.065-.203-.2-.437-.404-.526l-1.619-.703a.655.655 0 0 0-.327-.105.664.664 0 0 0-.35.016.898.898 0 0 0-.527.405c-.108.204-.162.451-.089.678.066.203.2.437.405.526M51.596 4.468a336.864 336.864 0 0 0 2.532 4.195c.241.391.799.577 1.204.315.394-.253.574-.784.316-1.203a336.922 336.922 0 0 1-2.532-4.195c-.235-.396-.802-.575-1.204-.316-.398.257-.568.78-.316 1.204M51.588 1.016a1.016 1.016 0 1 1-2.033 0 1.016 1.016 0 0 1 2.033 0" fill="#FEFEFE"/>
                <path d="M140.39 61.894a3.542 3.542 0 0 1-3.361-2.422l-4.251-12.753a3.543 3.543 0 0 1 6.721-2.24l2.02 6.058 13.3-19.085a3.543 3.543 0 0 1 5.814 4.052l-17.337 24.873a3.544 3.544 0 0 1-2.906 1.517" fill="#FFE400"/>
                <path d="M120.27 108.965a1.514 1.514 0 0 1-1.408-2.068l6.148-15.65a1.514 1.514 0 1 1 2.818 1.107l-6.149 15.651c-.234.596-.805.96-1.409.96M239.222 8.914l1.209 2.448 2.702.393-1.955 1.906.461 2.692-2.417-1.271-2.417 1.27.462-2.69-1.956-1.907 2.703-.393z" fill="#203C33"/>
                <g transform="translate(264.021 37.624)">
                    <mask id="efbaatsknj" fill="#fff">
                        <use xlink:href="#d2ob6uuqwi"/>
                    </mask>
                    <path fill="#203C33" mask="url(#efbaatsknj)" d="m3.91 0 1.21 2.448 2.701.393-1.955 1.906.462 2.691-2.417-1.27-2.417 1.27.461-2.69L0 2.84l2.702-.393z"/>
                </g>
                <path fill="#203C33" d="m259.325 17.125 1.208 2.448 2.702.393-1.955 1.906.461 2.691-2.416-1.27-2.417 1.27.461-2.691-1.955-1.906 2.702-.393zM218.723 17.125l1.208 2.448 2.702.393-1.955 1.906.461 2.691-2.416-1.27-2.417 1.27.461-2.691-1.955-1.906 2.702-.393zM259.325 58.123l1.208 2.449 2.702.393-1.955 1.906.461 2.69-2.416-1.27-2.417 1.27.461-2.69-1.955-1.906 2.702-.393z"/>
            </g>
        </g>
    </g>
</svg>
