<svg width="200" height="200" viewBox="0 0 200 200" xmlns="http://www.w3.org/2000/svg" xmlns:xlink="http://www.w3.org/1999/xlink">
    <defs>
        <path id="3osz46paia" d="M0 0h1.031v27.403H0z"/>
    </defs>
    <g fill="none" fill-rule="evenodd">
        <path d="M104.61 8.565c-48.923 0-74.82 43.97-88.583 88.583-13.764 44.612 33.325 77.79 88.583 88.583 55.258 10.793 83.349-37.221 88.583-88.583 5.234-51.362-39.66-88.583-88.583-88.583z" fill="#353252" opacity=".2"/>
        <path d="M97.61 187.263c48.922 0 74.818-43.971 88.582-88.583 13.764-44.613-33.325-77.79-88.583-88.583C42.351-.697 14.26 47.317 9.026 98.68c-5.234 51.362 39.66 88.583 88.583 88.583z" fill="#FFF"/>
        <path d="M57.87 67.448a.515.515 0 0 0 .515-.516V37.154a.515.515 0 1 0-1.032 0v29.778c0 .285.231.516.516.516M65.865 56.153a.516.516 0 0 0 .516-.516V30.736a.515.515 0 0 0-1.031 0v24.901c0 .285.23.516.515.516M72.45 62.827a.516.516 0 0 0 .516-.515V44.598a.516.516 0 0 0-1.031 0v17.714c0 .284.23.515.515.515M143.087 62.459a.516.516 0 0 0 .516-.516V29.206a.515.515 0 1 0-1.031 0v32.737c0 .285.23.516.515.516M136.721 38.133a.516.516 0 0 0 .516-.516V3.516a.516.516 0 0 0-1.031 0v34.101c0 .285.23.516.515.516" fill="#312F4B"/>
        <g transform="translate(152.12 23.689)">
            <mask id="6ki3r9g84b" fill="#fff">
                <use xlink:href="#3osz46paia"/>
            </mask>
            <path d="M.516 27.403a.516.516 0 0 0 .515-.516V.515A.515.515 0 0 0 0 .515v26.372c0 .285.231.516.516.516" fill="#312F4B" mask="url(#6ki3r9g84b)"/>
        </g>
        <path d="M128.81 167.06S96.967 175.588 97.014 179c.048 3.41-.902 17.76-.902 17.76 14.613 0 30.73.103 44.358-4.174.719-.226 1.43-.463 2.134-.714 0 0-.261-18.307-3.05-25.626-3.072-8.064-2.72-7.127-10.744.814" fill="#9C9C9C"/>
        <path d="M96.112 196.76c-7.17.186-39.672-2.817-41.263-3.865-.56-.368-.212-10.564 1.576-17.384.923-3.519 2.149-3.972 3.426-4.669 3.75-2.045 37.284 2.218 37.284 2.218s-.734 23.669-1.023 23.7" fill="#89CABA"/>
        <path d="m142.604 192.388.033-.001a.515.515 0 0 0 .482-.547c-.01-.144-.916-14.411-1.821-20.335a.516.516 0 0 0-1.02.156c.899 5.879 1.803 20.1 1.812 20.243a.515.515 0 0 0 .514.484M54.849 193.41h.006a.516.516 0 0 0 .51-.521c-.001-.106-.104-10.691 1.55-16.678a.515.515 0 1 0-.994-.274c-1.693 6.128-1.592 16.525-1.588 16.964.004.283.234.51.516.51" fill="#312F4B"/>
        <path d="M125.27 86.899s-16.37-7.276-18.37-6.002c-2 1.273-16.182 28.146-18.632 36.213-.38 1.253-.65 2.96-.102 3.78 4.72 7.078 30.555 10.386 30.555 10.386L125.27 86.9z" fill="#CB6071"/>
        <path d="M88.099 118.251a.517.517 0 0 0 .502-.4c.005-.021.506-2.153 2.353-6.209a.517.517 0 0 0-.938-.427c-1.898 4.166-2.4 6.317-2.42 6.406a.515.515 0 0 0 .503.63" fill="#312F4B"/>
        <path d="M112.115 80.556s1.438-4.447 1.89-5c.453-.554-3.982 2.363-4.573 6.637-.59 4.274.319 7.139.5 6.183.182-.955-.097-5.037 2.183-7.82" fill="#FEFEFE"/>
        <path d="M109.737 89.069c-.222-.037-.685-.113-.924-2.273-.154-1.395-.115-3.055.108-4.673.557-4.023 4.34-7.005 4.986-7.138a.532.532 0 0 1 .57.242c.047.076.178.35-.072.655-.252.32-1.113 2.708-1.8 4.832a.512.512 0 0 1-.091.168c-1.727 2.108-1.898 5.053-1.99 6.634-.025.428-.043.737-.085.957-.102.536-.453.602-.618.602-.042 0-.072-.005-.084-.006m3.006-11.917c-1.11 1.1-2.495 2.901-2.8 5.111-.136.988-.19 1.88-.193 2.656.253-1.492.769-3.19 1.904-4.613.212-.654.657-2 1.089-3.154" fill="#312F4B"/>
        <path d="M83.983 96.72s-16.206 2.964-19.46 9.276c-3.254 6.311-16.2 21.29-16.2 21.29s-2.917-16.614 1.767-23.162c1.434-2.006 2.6-4.614 4.862-6.206 5.148-3.625 11.115-6.976 12.535-11.537 2.048-6.575 4.582-17.7 11.252-21.832 6.67-4.133 11.227-7.139 20.967-1.398 9.74 5.742 8.46 7.848 10.332 15.256 1.873 7.409 1.632 12.255-.881 14.205-2.513 1.949-6.15 3.681-9.07 3.942-2.92.26-16.104.166-16.104.166" fill="#564762"/>
        <path d="M100.578 99.344c.198-1.062.31-3.71-.491-2.79-6.064 6.965.293 3.852.491 2.79" fill="#E7B9BC"/>
        <path d="M100.578 99.344c.198-1.062.31-3.71-.491-2.79-6.064 6.965.293 3.852.491 2.79" fill="#E7B9BC"/>
        <path d="M81.038 106.855s-.133 3.092-3.766 2.69c-3.632-.404-4.944-2.861-6.051-5.161-1.108-2.3-11.967 2.55-5.965-3.27 6.001-5.82 7.656-3.163 10.349-5.139 2.693-1.975 6.22-5.77 6.904-7.216.683-1.446-.552-2.685-.301-3.966.25-1.282.404-3.19 1.68-3.666 1.274-.476 2.885-.584 2.913.93.029 1.514-.51 4.175.49 5.14.999.966 2.37 2.818 3.884 3.516 1.512.698 3.812-.523 5.774-1.517 1.962-.995 6.63-5.273 8.523-4.455 1.893.817 2.453 1.547 1.834 3.09-.619 1.545-2.828 4.286-4.773 5.509-1.946 1.222-1.976 1.514-1.934 3.247.042 1.733.879 3.344-1.368 3.82-2.248.476-4.821 2.429-6.352 4.05-1.531 1.62-3.179 2.705-4.57 2.152-1.39-.554-2.283-2.84-4.317-4.14-2.035-1.3-2.932-1.846-3.434-.983-.5.864-.831 3.137.48 5.37" fill="#FAD8C9"/>
        <path d="M89.008 107.194c.313 0 .62-.037.91-.114.815-.217 2.33-1.43 4.38-3.12a57.48 57.48 0 0 1 1.817-1.462 8.898 8.898 0 0 1 1.781-1.07c.473-.208.932-.352 1.417-.506.202-.064.41-.13.625-.202 1.305-.436 1.254-1.628 1.2-2.89-.023-.525-.048-1.119.003-1.754.109-1.306 1.526-2.24 2.896-3.145.59-.388 1.146-.756 1.615-1.158 1.687-1.448 2.605-5.302 2.643-5.466a.515.515 0 1 0-1.004-.235c-.009.037-.88 3.69-2.31 4.918-.42.36-.95.71-1.511 1.08-1.504.992-3.207 2.115-3.356 3.922-.057.699-.03 1.327-.007 1.882.058 1.34.006 1.7-.495 1.869-.211.07-.413.134-.61.196-.512.162-.997.315-1.522.546a9.95 9.95 0 0 0-1.984 1.188c-.503.378-1.159.918-1.853 1.491-1.405 1.158-3.329 2.743-3.99 2.919-.887.237-2.097-.08-2.814-.736-.27-.247-.68-.828-1.115-1.442-.821-1.163-1.67-2.364-2.456-2.671-1.441-.562-2.793-.263-3.618.8-.806 1.039-1.786 2.886-1.828 2.964a.516.516 0 0 0 .912.482c.01-.018.979-1.846 1.73-2.814.735-.947 1.837-.702 2.429-.47.498.193 1.36 1.413 1.99 2.304.488.69.908 1.286 1.26 1.608.755.69 1.842 1.086 2.865 1.086" fill="#312F4B"/>
        <path d="M98.646 100.103c.033-.208-.018-.925.348-1.733.412-.911 1.262-1.87 1.608-1.054.342.805-.463 4.061-1.956 2.787" fill="#E7B9BC"/>
        <path d="M89.008 107.194c.313 0 .62-.037.91-.114.815-.217 2.33-1.43 4.38-3.12a57.48 57.48 0 0 1 1.817-1.462 8.898 8.898 0 0 1 1.781-1.07c.473-.208.932-.352 1.417-.506.202-.064.41-.13.625-.202 1.305-.436 1.254-1.628 1.2-2.89-.023-.525-.048-1.119.003-1.754.109-1.306 1.526-2.24 2.896-3.145.59-.388 1.146-.756 1.615-1.158 1.687-1.448 2.605-5.302 2.643-5.466a.515.515 0 1 0-1.004-.235c-.009.037-.88 3.69-2.31 4.918-.42.36-.95.71-1.511 1.08-1.504.992-3.207 2.115-3.356 3.922-.057.699-.03 1.327-.007 1.882.058 1.34.006 1.7-.495 1.869-.211.07-.413.134-.61.196-.512.162-.997.315-1.522.546a9.95 9.95 0 0 0-1.984 1.188c-.503.378-1.159.918-1.853 1.491-1.405 1.158-3.329 2.743-3.99 2.919-.887.237-2.097-.08-2.814-.736-.27-.247-.68-.828-1.115-1.442-.821-1.163-1.67-2.364-2.456-2.671-1.441-.562-2.793-.263-3.618.8-.806 1.039-1.786 2.886-1.828 2.964a.516.516 0 0 0 .912.482c.01-.018.979-1.846 1.73-2.814.735-.947 1.837-.702 2.429-.47.498.193 1.36 1.413 1.99 2.304.488.69.908 1.286 1.26 1.608.755.69 1.842 1.086 2.865 1.086M83.63 88.354a.516.516 0 0 0 .37-.876c-.008-.007-.79-.82-1.173-1.869-.26-.706-.037-1.827.628-3.158.232-.465.741-1.049 1.313-1.229.312-.099.61-.067.911.096.973.526.65 2.13.647 2.146a.515.515 0 0 0 1.008.215c.02-.097.49-2.374-1.164-3.268a2.162 2.162 0 0 0-1.714-.173c-.92.292-1.612 1.127-1.924 1.753-.814 1.633-1.04 2.97-.674 3.973.463 1.262 1.366 2.195 1.404 2.234.1.104.234.156.368.156" fill="#312F4B"/>
        <path d="M83.63 88.354a.516.516 0 0 0 .37-.876c-.008-.007-.79-.82-1.173-1.869-.26-.706-.037-1.827.628-3.158.232-.465.741-1.049 1.313-1.229.312-.099.61-.067.911.096.973.526.65 2.13.647 2.146a.515.515 0 0 0 1.008.215c.02-.097.49-2.374-1.164-3.268a2.162 2.162 0 0 0-1.714-.173c-.92.292-1.612 1.127-1.924 1.753-.814 1.633-1.04 2.97-.674 3.973.463 1.262 1.366 2.195 1.404 2.234.1.104.234.156.368.156" fill="#312F4B"/>
        <path d="m84.272 85.509-.01.022c.002-.005.173-.456.113-1.892a.515.515 0 1 1 1.03-.042c.07 1.672-.143 2.238-.21 2.372l-.923-.46z" fill="#312F4B"/>
        <path d="m84.272 85.509-.01.022c.002-.005.173-.456.113-1.892a.515.515 0 1 1 1.03-.042c.07 1.672-.143 2.238-.21 2.372l-.923-.46zM80.48 93.675c.265 0 .494-.206.833-.507.431-.384 1.153-1.028 1.7-1.038 2.465-.049 4.09.455 5.523.901 3.084.958 5.12 1.591 11.265-4.215 1.866-1.762 4.228-3.758 5.96-3.544.662.082 1.214.483 1.688 1.227a.516.516 0 0 0 .87-.554c-.642-1.006-1.46-1.576-2.432-1.696-2.14-.265-4.53 1.679-6.793 3.818-5.707 5.392-7.417 4.86-10.251 3.98-1.434-.446-3.218-1-5.85-.948-.425.008-.835.174-1.21.399.013-.018.028-.036.043-.054.683-.855 1.617-.89 4.55-.165.351.087.674.17.974.249 2.192.57 3.4.884 6.345-.205 3.427-1.269 3.939-4.495 3.96-4.632a.516.516 0 0 0-1.02-.151c-.018.112-.457 2.764-3.297 3.815-2.642.978-3.546.743-5.728.175-.305-.08-.63-.164-.988-.252-2.994-.74-4.514-.84-5.602.522-.869 1.088-1.178 1.754-1.1 2.373.028.216.161.389.358.463a.576.576 0 0 0 .203.039" fill="#312F4B"/>
        <path d="M103.035 83.398s-2.844 3.882-4.014 5.442c-1.17 1.56-5.046 4.055-6.358 4.171-1.313.116-4.18-.837-6.334-1.108-2.154-.27-3.848-.402-4.712.334-.863.736-1.333-1.04.199-1.512 1.53-.472 3.952-.126 5.424.241 1.472.368 6.904 1.363 8.644-1.761 1.74-3.125 4.832-7.99 7.151-5.807" fill="#564762"/>
        <path d="M80.48 93.675c.265 0 .494-.206.833-.507.431-.384 1.153-1.028 1.7-1.038 2.465-.049 4.09.455 5.523.901 3.084.958 5.12 1.591 11.265-4.215 1.866-1.762 4.228-3.758 5.96-3.544.662.082 1.214.483 1.688 1.227a.516.516 0 0 0 .87-.554c-.642-1.006-1.46-1.576-2.432-1.696-2.14-.265-4.53 1.679-6.793 3.818-5.707 5.392-7.417 4.86-10.251 3.98-1.434-.446-3.218-1-5.85-.948-.425.008-.835.174-1.21.399.013-.018.028-.036.043-.054.683-.855 1.617-.89 4.55-.165.351.087.674.17.974.249 2.192.57 3.4.884 6.345-.205 3.427-1.269 3.939-4.495 3.96-4.632a.516.516 0 0 0-1.02-.151c-.018.112-.457 2.764-3.297 3.815-2.642.978-3.546.743-5.728.175-.305-.08-.63-.164-.988-.252-2.994-.74-4.514-.84-5.602.522-.869 1.088-1.178 1.754-1.1 2.373.028.216.161.389.358.463a.576.576 0 0 0 .203.039" fill="#312F4B"/>
        <path d="M91.435 89.922c.75 0 1.52-.176 2.242-.584a.515.515 0 0 0-.507-.898c-1.581.893-3.583.33-4.605-.732-.51-.53-1.228-1.642-.302-3.146a.516.516 0 1 0-.878-.54c-.929 1.508-.765 3.154.437 4.402.836.868 2.19 1.498 3.613 1.498" fill="#312F4B"/>
        <path d="M91.435 89.922c.75 0 1.52-.176 2.242-.584a.515.515 0 0 0-.507-.898c-1.581.893-3.583.33-4.605-.732-.51-.53-1.228-1.642-.302-3.146a.516.516 0 1 0-.878-.54c-.929 1.508-.765 3.154.437 4.402.836.868 2.19 1.498 3.613 1.498M103.246 91.659a.516.516 0 0 0 .049-1.029c-.026-.002-1.978-.21-2.759-1.312a.516.516 0 1 0-.841.597c1.056 1.49 3.402 1.732 3.5 1.741a.38.38 0 0 0 .05.003M99.263 94.639a.516.516 0 0 0 .022-1.03c-.027-.002-1.119-.082-2.358-1.186a.516.516 0 0 0-.685.77c1.545 1.376 2.942 1.444 3.002 1.445h.019M93.752 102.31a.515.515 0 0 0 .394-.847c-.058-.07-1.443-1.697-2.933-1.999a.516.516 0 0 0-.205 1.01c.944.192 2.016 1.258 2.35 1.652a.512.512 0 0 0 .394.183" fill="#312F4B"/>
        <path d="M93.164 102.146s-.91-.429-1.159-.884c-.25-.455-.274-1.457.59-1.321.864.136 2.441 1.613.569 2.205" fill="#DA9198"/>
        <path d="M93.752 102.31a.515.515 0 0 0 .394-.847c-.003-.005-.094-.113-.248-.274-.524-.547-1.57-1.499-2.685-1.725a.516.516 0 0 0-.205 1.01c.87.177 1.79 1.058 2.145 1.429.13.134.204.223.205.223a.514.514 0 0 0 .394.183" fill="#312F4B"/>
        <path d="M51.393 129.614a.516.516 0 0 0 .452-.761c-3.912-7.231-4.852-14.814-2.646-21.353 2.037-6.036 6.62-10.809 13.254-13.802 3.632-1.638 7.366-10.84 10.092-17.558.817-2.014 1.523-3.753 2.08-4.925 2.11-4.43 5.074-7.498 9.324-9.653 1.57-.796 3.245-1.164 5.119-1.13 2.146.04 4.508.617 7.219 1.764 4.369 1.848 8.158 7.221 10.665 10.777.38.538.746 1.149 1.088 1.813 1.843 3.585 2.89 8.5 2.669 12.523-.313 5.686-5.127 7.298-6.594 7.657-3.577.874-3.881 2.41-3.905 2.583l1.023.136-.005.026c.003-.012.288-1.05 3.132-1.744 4.382-1.07 7.14-4.286 7.378-8.602.231-4.192-.86-9.315-2.781-13.05a16.373 16.373 0 0 0-1.163-1.937c-2.574-3.65-6.466-9.169-11.106-11.132-2.834-1.199-5.32-1.802-7.601-1.845-2.019-.037-3.905.38-5.604 1.241-4.465 2.264-7.575 5.483-9.788 10.13-.571 1.199-1.283 2.951-2.106 4.98-2.51 6.187-6.304 15.537-9.56 17.006-6.901 3.114-11.675 8.098-13.806 14.412-2.3 6.813-1.335 14.688 2.716 22.175.094.172.271.27.454.27" fill="#312F4B"/>
        <path d="M56.588 98.15a.516.516 0 0 0 .285-.086c.059-.038 4-2.554 10.782-.887 7.833 1.925 11.84-3.324 13.199-5.67 1.563-2.698 2.052-3.347 2.057-3.353a.515.515 0 0 0-.816-.63c-.02.025-.513.669-2.134 3.466-1.543 2.664-5.162 6.88-12.06 5.185-7.27-1.787-11.426.915-11.6 1.031a.515.515 0 0 0 .287.945" fill="#312F4B"/>
        <path d="M70.925 97.593c5.705 0 8.773-4.092 9.929-6.086 1.563-2.698 2.052-3.347 2.057-3.353a.517.517 0 0 0-.816-.63c-.02.025-.513.669-2.134 3.466-1.543 2.664-5.162 6.88-12.06 5.185a.517.517 0 0 0-.246 1.002c1.174.289 2.263.416 3.27.416" fill="#312F4B"/>
        <path d="M96.585 94.328c-.883-.792-2.053-.964-2.614-.384-.562.581-.302 1.694.581 2.486.883.792 2.054.964 2.615.384.561-.581.301-1.694-.582-2.486" fill="#E7B9BC"/>
        <path d="M96.585 94.328c-.883-.792-2.053-.964-2.614-.384-.562.581-.302 1.694.581 2.486.883.792 2.054.964 2.615.384.561-.581.301-1.694-.582-2.486" fill="#E7B9BC"/>
        <path d="M98.257 93.329c-.386-.275-.98-.102-1.328.385-.347.488-.316 1.107.07 1.382.385.274.98.102 1.328-.386.347-.488.316-1.106-.07-1.381" fill="#312F4B"/>
        <path d="M98.257 93.329c-.386-.275-.98-.102-1.328.385-.347.488-.316 1.107.07 1.382.385.274.98.102 1.328-.386.347-.488.316-1.106-.07-1.381" fill="#312F4B"/>
        <path d="M68.694 100.073s-6.365 1.727-9.73 7.002c-3.364 5.275-3.027 9.629-3.309 12.01-.28 2.383-1.198 12.047.559 21.278 1.757 9.231 4.32 20.302 3.537 23.44-.785 3.14-3.333 12.272-3.333 12.272s-.61 3.654 12.533 4.813c13.142 1.159 22.858 2.742 25.533.875 2.674-1.87 4.143-.847 3.955-12.486-.19-11.64-2.046-8.912 2.826-14.681 4.872-5.769-12.828-37.507-17.093-44.768-4.266-7.26-10.576-9.55-15.478-9.755" fill="#FBD9BF"/>
        <path d="M94.055 129.239a.516.516 0 0 0 .444-.778c-.055-.093-5.529-9.408-7.13-13.68-1.637-4.362-5.07-10.082-7.764-11.718-1.304-.792-2.366-1.363-3.345-1.798-1.407-.627-2.624-.955-3.72-1.005a.515.515 0 1 0-.047 1.03c.966.045 2.06.344 3.348.917.925.411 1.98.98 3.228 1.737 2.428 1.473 5.751 6.98 7.333 11.199 1.634 4.357 6.982 13.456 7.209 13.842a.515.515 0 0 0 .444.254M91.258 110.285c.19 0 .372-.104.463-.285.017-.036 1.772-3.561 3.332-6.72a.516.516 0 0 0-.924-.457c-1.56 3.157-3.315 6.682-3.331 6.717a.515.515 0 0 0 .46.745" fill="#312F4B"/>
        <path d="M118.975 56.184s10.41-8.293 7.189-18.94c-.7-2.312-1.07-4.963-2.763-7.187-5.287-6.941-16.791-10.05-23.502-6.93-7.852 3.652-6.247 4.864-8.334 6.995-2.57 2.626-5.528 5.468-6.265 7.862-1.336 4.338-1.365 16.92 4.155 17.923 5.52 1.004 29.52.277 29.52.277" fill="#564762"/>
        <path d="M81.461 131.845s-3.902-2.487-5.547-3.546c-1.645-1.06-7.003-2.729-8.185-4.82-1.182-2.092-1.637-5.639-2.728-7.457-1.09-1.819-3.91-4.092-5.82-6.093-1.91-2-2.546-3.183-3.183-3.82-.637-.636-1.727-.181-1.636 2.092.09 2.273 1.273 4.638 2.728 5.911 1.454 1.273 2.182 1.91-1.455.727-3.638-1.182-5.82-2.045-6.275-.182-.455 1.865 1.364 2.91 0 3.547s-1.819 2.82-.91 4.365c.91 1.546-.363 1.637-.545 2.638-.182 1 1.09 2.182 1.364 2.637.273.455-1.091 1.819-.546 3 .546 1.183 3.547 3.82 8.003 4.457 4.456.636 7.457 1.546 10.185 2.273 2.728.727 9.367 3.274 9.367 3.274l5.183-9.003z" fill="#FAD8C9"/>
        <path d="M76.093 141.329c-.066-.025-6.644-2.545-9.315-3.257-.38-.1-.764-.205-1.157-.312-2.42-.66-5.162-1.405-8.968-1.949-4.695-.67-7.786-3.425-8.398-4.75-.428-.928.02-1.888.316-2.525.077-.164.177-.38.209-.496-.058-.08-.149-.192-.242-.307-.527-.646-1.321-1.623-1.14-2.619.088-.486.354-.805.566-1.06.316-.379.447-.535.042-1.224a4.107 4.107 0 0 1-.364-3.251c.267-.861.8-1.515 1.5-1.842.29-.135.29-.135.029-.783-.237-.589-.562-1.394-.312-2.419.14-.573.431-.987.865-1.229 1.073-.595 2.772-.038 5.344.806l.726.237c.504.164.9.284 1.208.372l-.252-.221c-1.644-1.439-2.81-3.962-2.904-6.279-.081-2.049.736-2.632 1.09-2.788.478-.209 1.026-.09 1.427.312.27.27.528.612.854 1.046a28.366 28.366 0 0 0 2.337 2.782c.625.655 1.37 1.36 2.09 2.04 1.492 1.41 3.034 2.868 3.8 4.143.577.963.965 2.305 1.376 3.728.39 1.348.794 2.742 1.358 3.74.727 1.287 3.51 2.526 5.542 3.43 1.032.46 1.923.856 2.473 1.21a1705.91 1705.91 0 0 0 5.545 3.546.515.515 0 0 1 .17.692l-5.183 9.003a.516.516 0 0 1-.632.224m-.458-12.597c-.484-.312-1.341-.694-2.335-1.136-2.283-1.016-5.125-2.28-6.02-3.863-.623-1.104-1.043-2.558-1.45-3.963-.392-1.355-.763-2.635-1.27-3.483-.693-1.153-2.183-2.562-3.624-3.925-.73-.69-1.484-1.403-2.128-2.077a29.255 29.255 0 0 1-2.415-2.874c-.302-.401-.54-.718-.76-.937-.069-.07-.175-.144-.283-.096-.186.081-.523.563-.474 1.802.081 2.02 1.131 4.3 2.554 5.545 1.094.957 1.593 1.393 1.289 1.928-.288.507-.864.45-3.244-.323a779.04 779.04 0 0 0-.728-.238c-2.148-.704-3.844-1.26-4.521-.884-.113.063-.272.189-.365.572-.172.702.061 1.28.266 1.789.25.62.626 1.554-.55 2.103-.433.202-.77.633-.951 1.213-.247.794-.144 1.722.269 2.423.714 1.213.342 1.83-.138 2.406-.17.205-.305.366-.345.584-.096.53.543 1.315.925 1.785.162.198.29.356.374.495.25.416.029.891-.205 1.394-.254.545-.542 1.164-.315 1.657.448.969 3.272 3.542 7.608 4.161 3.869.553 6.644 1.308 9.093 1.974.39.107.774.211 1.151.312 2.362.63 7.504 2.563 9.007 3.133l4.718-8.194c-1.051-.67-3.824-2.438-5.133-3.283" fill="#312F4B"/>
        <path d="M132.754 65.797s7.431 7.559 12.13 16.837c4.7 9.28 6.306 17.447 2.487 35.634-3.82 18.188-6.318 33.713-6.58 38.478-.087 1.582-.461 4.931-.258 7.328.255 3.015 1.049 5.158.255 7.509-.475 1.408-1.86 2.382-3.002 2.968-4.565 2.346-14.779 5.632-22.603 6.102-7.823.471-15.449.15-18.177.15-.877 0 1.121-4.614 1.384-9.034.223-3.743-1.225-8.677-1.409-10.814-.197-2.298 3.71-6.235 4.041-7.899.52-2.625-2.275-2.388-2.275-2.388l-31.554-10.995s2.318-2.458 3.847-8.46l1.528-6s4.5 3.032 15.52 3.078c1.712.008 6.194 1.49 6.823.899 3.425-3.217-9.636-15.71-.702-18.683 16.556-5.508 12.681-13.302 18.032-21.555 1.287-1.984-2.466-6.017-1.136-7.552 1.149-1.326.017-1.036 1.183-1.883 8.13-5.906 20.466-13.72 20.466-13.72" fill="#CB6071"/>
        <path d="M133.484 66.271s-13.101 15.077-18.068 15.989c-4.743 1.725-4.615-3.258-4.615-3.258s.862-.815 1.98-2.172c.431-1.45.3-1.691-.353-2.885-.417-.762-2.18-.56-3.401-1.02-5.781-2.185-8.866-5.848-10.467-8.964-1.01-1.967-2.103-3.724-3.113-5.444-.402-.683-.182-1.538-.866-2.126-2.977-2.56-.395-3.935-.395-3.935s-3.419-.439-3.517-2.565c-.1-2.126-.843-3.945.707-5.027 1.55-1.082 5.435-5.501 6.495-4.958 1.058.543 6.685 5.959 8.825 6.74 2.14.78 7.18.046 8.24.574 1.06.527 1.609 1.77 1.609 1.77s2.125-.3 2.188-1.405c.064-1.105 1.013-2.915.96-3.505-.051-.591 1.037-3.153 3.038-2.463 2 .69 3.47 2.042 3.634 4.26.165 2.216.456 2.916-.305 4.898-.761 1.981.27 1.936 1.158 5.23.888 3.295 4.111 9.166 6.266 10.266" fill="#FAD8C9"/>
        <path d="M111.688 73.898c1.686 0 3.253-.69 5.397-2.657 3.012-2.763 5.013-8.342 5.097-8.578a.515.515 0 1 0-.972-.345c-.019.055-2 5.575-4.822 8.164-2.811 2.578-4.338 2.714-6.905 2.04-2.516-.661-6.591-3.815-7.949-4.974-1.366-1.167-2.588-2.936-3.35-4.853-.914-2.292-3.693-6.932-4.79-8.326a.515.515 0 1 0-.81.637c1.037 1.318 3.773 5.892 4.641 8.071.823 2.067 2.15 3.983 3.64 5.254.05.044 5.098 4.332 8.356 5.187.892.235 1.692.38 2.467.38" fill="#312F4B"/>
        <path d="M105.2 61.21s-1.257-2.903-2.039-3.235c-.782-.33-1.552 3.775 2.038 3.236" fill="#E7B9BC"/>
        <path d="M104.995 62.263a.516.516 0 0 0 .201-.99c-.733-.31-1.618-.732-1.826-.892-.066-.166-.028-.731-.002-1.109.02-.279.04-.567.044-.861.02-1.23-1.463-2.394-1.633-2.523a.516.516 0 0 0-.624.821c.404.308 1.235 1.126 1.226 1.686-.004.266-.023.54-.04.806-.06.865-.107 1.549.323 1.933.37.33 1.724.917 2.13 1.088.066.028.134.041.201.041M95.225 57.083c.02 0 .039 0 .059-.003 1.772-.198 3.596-1.87 4.057-2.534a.515.515 0 1 0-.846-.59c-.359.516-1.925 1.942-3.327 2.1a.516.516 0 0 0 .057 1.027M106.785 66.988c.15 0 .297-.064.4-.189 1.183-1.443 4.726-2.995 4.761-3.01a.516.516 0 0 0-.41-.946c-.155.068-3.808 1.667-5.15 3.303a.516.516 0 0 0 .4.842M123.356 53.917c.059 0 .118-.01.176-.03.133-.049 3.262-1.214 3.37-4.273.077-2.157-.102-5.056-1.388-6.61-1.079-1.304-2.894-2.546-4.458-1.755-1.523.768-2.322 2.148-1.99 3.432a.516.516 0 0 0 .998-.258c-.204-.79.395-1.718 1.457-2.254.951-.48 2.325.436 3.198 1.492.83 1.003 1.251 3.16 1.153 5.917-.084 2.355-2.586 3.3-2.692 3.34a.516.516 0 0 0 .176 1" fill="#312F4B"/>
        <path d="M122.598 48.481a.516.516 0 0 0 .51-.595c-.189-1.211.698-2.483.707-2.495a.516.516 0 0 0-.84-.598c-.047.065-1.14 1.62-.886 3.252.04.254.26.436.509.436M118.606 48.572a.513.513 0 0 0 .493-.37c.11-.377.376-2.7-1.065-3.939a.516.516 0 0 0-.672.782c.99.852.808 2.656.747 2.87a.516.516 0 0 0 .497.657M116.416 49.978c.25 0 .47-.183.51-.436.001-.012.005-.026.009-.043.416-1.812-.686-3.311-3.103-4.223-1.489-.56-2.633-.806-3.552-1.003-1.342-.288-1.903-.43-2.31-1.075a.515.515 0 1 0-.871.55c.653 1.038 1.623 1.245 2.966 1.533.885.19 1.986.426 3.403.96 1.928.727 2.756 1.746 2.462 3.027-.013.055-.02.096-.025.122a.516.516 0 0 0 .511.588M110.51 48.612c.795 0 1.315-.107 1.372-.12a.516.516 0 0 0-.217-1.007c-.047.01-3.466.69-6.374-1.878l-.678-.599c-2.864-2.533-5.126-4.533-6.693-5.113-2.171-.805-3.83-.547-4.549.707a.515.515 0 1 0 .895.513c.646-1.128 2.687-.479 3.296-.253 1.386.514 3.585 2.458 6.368 4.919l.678.599a8.844 8.844 0 0 0 5.902 2.232M94.304 53.194a.516.516 0 0 0 .042-1.029c-.007 0-.848-.08-2.173-.618-1.134-.459-1.557-2.16-1.983-5.344-.29-2.172.967-3.03 2.072-3.368a1.61 1.61 0 0 0 .065-.021.515.515 0 1 0-.328-.977l-.038.011c-2.072.634-3.09 2.27-2.793 4.492.422 3.159.857 5.45 2.618 6.163 1.486.602 2.435.686 2.475.69a.544.544 0 0 0 .043.001" fill="#312F4B"/>
        <path d="M90.826 56.653c.552 0 .933-.09.974-.101a.515.515 0 0 0-.247-1c-.097.022-2.152.488-3.463-1.279-.234-.314-.455-.598-.67-.874-1.18-1.515-1.96-2.515-1.992-5.135-.014-1.133-.113-2.237-.21-3.304-.179-2.008-.35-3.905.107-5.519.698-2.468 2.778-5.5 4.282-6.781a.515.515 0 1 0-.669-.785c-1.613 1.374-3.832 4.55-4.605 7.286-.508 1.796-.33 3.785-.14 5.89.093 1.049.19 2.132.204 3.226.037 2.967.996 4.197 2.21 5.756.21.27.428.55.655.855 1.103 1.485 2.596 1.765 3.564 1.765M92.286 41.615c-.825-1.095-1.083-2.587-.813-4.696.256-2.005 3.093-3.425 3.947-3.509.499-.048.644.308.668.38a.516.516 0 0 1-.638.657c-.588.13-2.783 1.26-2.955 2.602-.23 1.8-.03 3.09.614 3.946a.516.516 0 0 1-.823.62z" fill="#312F4B"/>
        <path d="M89.726 46.985c.424 0 .95-.44 1.635-1.361.704-.947 1.326-.866 1.331-.865a.515.515 0 0 0 .212-1.01c-.05-.01-1.254-.242-2.37 1.26-.523.703-.794.897-.874.944a.515.515 0 0 0-.12 1.002c.06.02.122.03.186.03M126.719 44.275l.033-.001a.516.516 0 0 0 .482-.548c-.02-.292-.036-.656-.055-1.07-.071-1.542-.167-3.653-.508-5.506-.404-2.202-1.509-6.335-4.359-9.276-2.777-2.867-7.977-5.028-11.918-6.095-4.617-1.25-9.748.329-13.24 1.873-4.49 1.987-6.011 6.122-6.073 6.296a.515.515 0 1 0 .97.347c.027-.072 1.465-3.905 5.52-5.7 3.34-1.477 8.228-2.992 12.554-1.821 3.634.984 8.812 3.098 11.447 5.817 2.66 2.747 3.702 6.659 4.085 8.746.327 1.783.423 3.854.492 5.367.02.423.036.788.056 1.089a.515.515 0 0 0 .514.482M133.315 66.973a.515.515 0 0 0 .334-.908c-4.799-4.082-5.79-8.273-7.161-14.072a.515.515 0 1 0-1.004.237c1.417 5.99 2.44 10.319 7.497 14.62a.516.516 0 0 0 .334.123M113.5 77.814a.515.515 0 0 0 .492-.668 163.68 163.68 0 0 0-1.275-3.961.515.515 0 1 0-.977.33c.4 1.182.826 2.506 1.267 3.935a.516.516 0 0 0 .492.364M65.614 181.048l-.885-.096c-6.943-.751-8.71-4.507-8.78-4.666a.506.506 0 0 1-.046-.18c-.007-.124-.164-3.093 2.044-8.062 1.546-3.478 1.398-4.502 1.128-6.36-.1-.688-.213-1.466-.262-2.5-.175-3.68-2.776-17.514-4.316-24.253a.516.516 0 1 1 1.006-.229c1.373 6.01 4.15 20.46 4.34 24.433.047.984.156 1.736.252 2.4.278 1.914.462 3.178-1.206 6.928-1.873 4.216-1.962 6.935-1.959 7.479.294.52 2.153 3.362 7.91 3.985l.886.096c7.188.78 20.569 2.231 25.91 1.542a90.11 90.11 0 0 1 2.818-.318c.794-.08 1.274-.127 1.471-.215.088-.039.124-.095.3-.466.109-.226.257-.536.488-.932 1.154-1.98 1.512-14.056.77-18.137a.516.516 0 1 1 1.015-.184c.733 4.033.485 16.475-.895 18.84-.21.36-.34.636-.446.857-.503 1.054-.741 1.077-2.601 1.263-.654.065-1.55.155-2.788.315-1.012.13-2.299.186-3.77.186-6.468 0-16.492-1.087-22.384-1.726m-8.085-72.36a.515.515 0 0 1-.387-.617c.657-2.86 3.29-4.531 6.078-6.3 1.507-.956 3.064-1.945 4.498-3.2a.516.516 0 0 1 .68.776c-1.494 1.307-3.086 2.317-4.626 3.294-2.716 1.725-5.062 3.214-5.625 5.66a.516.516 0 0 1-.618.387" fill="#312F4B"/>
        <path d="M96.13 197c.266 0 .491-.203.514-.471.008-.094.81-9.454.877-15.72a.515.515 0 0 0-.51-.522h-.005a.516.516 0 0 0-.516.51c-.067 6.228-.865 15.55-.874 15.643a.515.515 0 0 0 .515.56M98.768 59.056c-.328.237-.338.784-.021 1.224.317.44.84.604 1.167.367.329-.236.338-.784.021-1.224-.316-.439-.84-.604-1.167-.367" fill="#312F4B"/>
        <path d="M99.915 61.223c-1.123.544-1.752 1.568-1.404 2.287.348.719 1.541.86 2.665.316s1.753-1.568 1.404-2.287c-.348-.719-1.541-.86-2.665-.316M111.005 54.995c-1.125.544-1.753 1.568-1.405 2.287.348.719 1.541.86 2.665.316s1.753-1.568 1.405-2.287c-.349-.719-1.542-.86-2.665-.316" fill="#E7B9BC"/>
        <path d="M95.002 162.102c.984 0 2.023-.471 3.082-1.884 1.941-2.587 3.756-8.284 3.832-8.525a.515.515 0 1 0-.982-.312c-.018.057-1.84 5.771-3.674 8.218-1.62 2.159-2.815 1.625-4.788.498-6.248-3.57-8.513-6.824-11.941-11.75-1.062-1.525-2.265-3.254-3.723-5.183a.516.516 0 0 0-.823.621c1.446 1.914 2.644 3.634 3.7 5.152 3.508 5.04 5.826 8.37 12.275 12.056.913.52 1.943 1.11 3.042 1.11" fill="#312F4B"/>
        <path d="M96.51 114.9s7.82 2.456 6.639 10.64c-1.182 8.185-9.094 3.183-9.094 3.183-4.298-10.092-4.906-11.283 2.455-13.823" fill="#FAD8C9"/>
        <path d="M93.78 129.159a.516.516 0 0 1-.2-.234l-.148-.35c-2.443-5.732-3.668-8.61-2.766-10.642.689-1.55 2.526-2.433 5.676-3.52a.518.518 0 0 1 .323-.005c.084.027 2.084.667 3.954 2.361 1.742 1.577 3.683 4.393 3.04 8.845-.35 2.425-1.311 4.015-2.855 4.727-.64.295-1.325.41-2.007.41-2.462 0-4.889-1.51-5.018-1.592m-2.171-10.808c-.72 1.623.447 4.362 2.772 9.82l.083.196c.673.39 3.741 2.038 5.91 1.036 1.207-.556 1.968-1.88 2.265-3.936.463-3.201-.44-5.862-2.685-7.909a11.091 11.091 0 0 0-3.444-2.112c-2.708.943-4.379 1.73-4.901 2.905" fill="#312F4B"/>
        <path d="M102.694 129.496s2.183-3.274 2.728-6.184c.546-2.91 1.091-2.273-.364-5.001s-2.728-4.638-4.183-6.002c-1.455-1.364-1.455-1.41-2.637-1.683-1.182-.272-5.366-1.318-6.82.137-1.984 1.983-3.383 6.343-1.354 5.296.836-.432.187 1.973 1.444 1.524.946-.337.11 1.586 1.792 1.314 1.682-.273-.518.96.164 1.596.682.636 5.956.636 6.956 1 1.001.364 1.547 3.91 1.365 5.184-.182 1.273.909 2.82.909 2.82" fill="#FAD8C9"/>
        <path d="M102.273 129.794c-.05-.07-1.207-1.73-.999-3.19.2-1.397-.474-4.424-1.03-4.626-.346-.126-1.572-.22-2.655-.305-2.68-.208-3.996-.355-4.477-.803-.5-.467-.287-1.03-.039-1.433a1.956 1.956 0 0 1-.08.002c-1.075 0-1.303-.86-1.407-1.249a28.2 28.2 0 0 1-.022-.083c-.308.085-.584.059-.822-.076-.458-.262-.563-.807-.647-1.245a7.393 7.393 0 0 0-.032-.162c-.76.293-1.143-.075-1.28-.262-.773-1.06.669-4.363 2.27-5.964 1.437-1.436 4.771-.863 7.155-.308l.146.034c1.256.29 1.39.415 2.66 1.609l.214.2c1.42 1.331 2.702 3.167 4.285 6.135 1.126 2.11 1.146 2.408.781 3.768-.104.389-.234.872-.365 1.572-.558 2.979-2.715 6.237-2.806 6.374a.516.516 0 0 1-.422.23h-.007a.516.516 0 0 1-.421-.218m-10.491-18.667c-1.506 1.506-2.338 3.99-2.189 4.568.048-.012.124-.037.234-.094.324-.167.577-.113.731-.038.388.188.474.635.55 1.03.03.152.082.427.142.528a.58.58 0 0 0 .086-.023c.277-.1.528-.093.742.02.337.177.43.527.505.808.116.437.144.54.634.461.313-.05.898-.145 1.156.275.24.39-.032.765-.25 1.065-.074.102-.216.298-.264.414.48.246 2.552.407 3.81.505 1.519.117 2.473.197 2.927.363 1.428.519 1.872 4.527 1.7 5.74-.08.55.158 1.224.412 1.745.653-1.103 1.836-3.297 2.207-5.276.139-.738.28-1.265.383-1.65.294-1.097.306-1.14-.695-3.015-1.527-2.863-2.747-4.618-4.08-5.868l-.214-.2c-1.201-1.128-1.201-1.128-2.187-1.356l-.148-.035c-1.634-.38-2.969-.57-3.997-.57-1.058 0-1.792.2-2.195.603" fill="#312F4B"/>
        <path d="M104.149 120.372a.515.515 0 0 0 .365-.88c-.028-.028-.697-.691-1.833-1.353-.951-.555-2.582-.583-4.02-.607-.397-.006-.77-.013-1.074-.031-1.284-.079-4.13 1.252-4.352 1.68a.52.52 0 0 0 .058.564.523.523 0 0 0 .551.172.519.519 0 0 0 .245-.148c.465-.288 2.491-1.3 3.436-1.24.326.02.71.027 1.117.034 1.182.02 2.801.047 3.52.466 1.012.59 1.617 1.187 1.623 1.193.1.1.232.15.364.15M92.013 118.265c.118 0 .236-.041.333-.124.771-.656 3.044-2.429 4.29-2.74 1.226-.307 3.987.415 4.947.719a.517.517 0 0 0 .312-.984c-.382-.12-3.78-1.168-5.51-.736-1.734.434-4.587 2.854-4.708 2.957a.515.515 0 0 0 .336.908" fill="#312F4B"/>
        <path d="M90.443 116.415a.515.515 0 0 1-.207-.7c.768-1.408 2.802-3.361 4.273-3.767.918-.253 2.361-.114 2.94-.043 2.031.251 2.182.603 2.263.791a.515.515 0 0 1-.853.553c-.482-.232-3.016-.6-4.076-.307-1.159.32-3.001 2.094-3.641 3.267a.515.515 0 0 1-.7.206z" fill="#312F4B"/>
        <path d="M103.508 137.721s2.938-9.536-.358-9.48c-3.295.058-19.112-.326-24.617-1.62-5.506-1.293-6.58-.722-5.944 4.644.636 5.365 30.919 6.456 30.919 6.456" fill="#CB6071"/>
        <path d="M104.034 181.699c7.83 0 20.346-1.023 26.656-3.276 5.563-1.987 12.741-5.253 10.862-10.658-.246-.707-.407-1.76-.48-3.128-.254-4.827.645-12.452 1.182-17.008.09-.763.17-1.441.233-2.008.2-1.801 1.156-6.386 2.265-11.694 1.976-9.474 4.437-21.265 5.01-28.151.886-10.613-2.02-17.608-4.143-22.716l-.258-.622c-2.19-5.29-11.807-16.503-12.216-16.978a.516.516 0 0 0-.782.673c.1.115 9.919 11.56 12.045 16.699l.259.624c2.198 5.289 4.932 11.871 4.069 22.234-.57 6.824-3.126 19.078-4.994 28.026-1.16 5.554-2.074 9.94-2.28 11.791-.063.565-.142 1.24-.233 2.002-.54 4.588-1.445 12.268-1.186 17.181.078 1.488.253 2.604.535 3.414 1.202 3.455-2.05 6.425-10.235 9.348-7.488 2.674-24.628 3.6-30.7 3.064a.516.516 0 0 0-.09 1.028c1.166.102 2.703.155 4.481.155" fill="#312F4B"/>
        <path d="M113.792 154.822c3.143 0 6.003-.795 7.343-2.987 2.074-3.395 6.586-11.9 9.861-20.27.698-1.783 1.773-4.356 3.018-7.335 4.9-11.723 11.608-27.778 11.018-32.206-.734-5.503-6.206-14.379-6.439-14.753a.516.516 0 1 0-.876.543c.056.09 5.588 9.063 6.292 14.346.554 4.152-6.645 21.38-10.946 31.672-1.248 2.985-2.325 5.563-3.027 7.357-3.25 8.308-7.725 16.743-9.78 20.108-1.842 3.012-7.706 2.968-12.701 1.59-5.525-1.524-37.488-12.16-39.348-13.227-.132-.075-.221-.225-.276-.378.81-.177 1.905-1.417 2.297-2.626.126-.391.29-.864.464-1.364.93-2.683 2.328-6.722 1.914-9.217.166-.002.37.008.625.034.987.1 2.391.406 4.169.794.475.104.977.214 1.505.327 4.485.96 8.192 1.55 11.016 1.752 3.061.218 5.864.06 8.337-.08 3.726-.212 6.942-.393 9.686.768 2.512 1.062 3.872 2.409 5.072 3.597 1.027 1.017 1.997 1.977 3.48 2.588a.515.515 0 1 0 .394-.953c-1.296-.534-2.154-1.383-3.148-2.368-1.266-1.253-2.702-2.674-5.396-3.814-2.965-1.254-6.293-1.066-10.146-.848-2.443.138-5.21.295-8.205.081-2.777-.198-6.436-.781-10.874-1.732a361.06 361.06 0 0 1-1.501-.325c-4.043-.883-6.073-1.327-6.638-.073-.07.157-.258.572.094.839.207.157.409.12.565.043.145 2.276-1.087 5.834-1.923 8.25-.176.505-.341.982-.471 1.384-.31.955-1.076 1.716-1.43 1.897a.58.58 0 0 0-.493-.127c-.121.025-.411.134-.48.575-.08.512.135 1.46.85 1.87 2.124 1.219 34.498 11.923 39.587 13.328 2.032.56 4.34.94 6.51.94" fill="#312F4B"/>
        <path d="M107.126 126.714c.373-.336.797-1.72 1.163-3.795.35-1.978 2.828-12.027 5.016-20.893 1.2-4.868 2.335-9.466 2.98-12.179 1.748-7.338 6.258-10.013 6.304-10.04a.515.515 0 1 0-.515-.893c-.201.116-4.942 2.929-6.792 10.694-.644 2.709-1.778 7.305-2.979 12.171-2.19 8.882-4.674 18.949-5.029 20.96-.475 2.692-.863 3.229-.878 3.25.024-.033.04-.042.04-.042l.69.767z" fill="#312F4B"/>
        <path d="M134.955 68.134c1.077 0 .33-1.37-.481-2.513-1.571-2.215-3.233-2.166-3.04-2.003.469.396-1.855 2.895-2.761 3.597-6.037 4.673-17 12.985-17.568 14.185-.567 1.2 2.048 7.196 2.477 8.986.429 1.79-.577-9.566 21.373-22.252" fill="#FEFEFE"/>
        <path d="M113.65 91.089c-.432-.008-.535-.44-.57-.582-.129-.539-.475-1.505-.877-2.623-1.234-3.438-2.01-5.761-1.564-6.705.498-1.052 6.425-5.67 14.745-12.078a1513.44 1513.44 0 0 0 2.973-2.294c.828-.64 2.398-2.4 2.604-2.972a.53.53 0 0 1-.04-.38.566.566 0 0 1 .47-.406c.434-.079 2.013.172 3.504 2.273.987 1.392 1.297 2.265 1.005 2.83-.088.169-.304.443-.795.49-11.555 6.7-18.743 14.174-20.786 21.62-.127.461-.227.827-.656.827h-.012zm20.403-25.17c-.814-1.148-1.638-1.613-2.117-1.777-.41 1.14-2.396 3.053-2.948 3.48-.899.697-1.908 1.474-2.976 2.296-5.212 4.015-13.937 10.736-14.44 11.702-.297.627.986 4.2 1.602 5.916.175.49.34.95.484 1.364 2.493-7.369 9.737-14.68 21.039-21.212a.581.581 0 0 1 .272-.07c-.028-.176-.178-.659-.916-1.7zM103.096 52.624c.018 0 .037 0 .055-.003.146-.015 3.594-.404 5.106-2.338a.516.516 0 0 0-.813-.635c-1.246 1.595-4.37 1.945-4.402 1.948a.516.516 0 0 0 .054 1.028M98.044 59.88c1.792 0 2.74-1.522 2.783-1.591a.516.516 0 0 0-.88-.538c-.035.057-.796 1.246-2.172 1.082a.515.515 0 1 0-.123 1.024c.135.016.266.023.392.023M106.42 55.305c1.793 0 2.742-1.522 2.784-1.59a.516.516 0 0 0-.88-.539c-.036.057-.795 1.247-2.172 1.082a.516.516 0 1 0-.123 1.024c.135.016.265.023.391.023" fill="#312F4B"/>
        <path d="M106.67 54.79c-.265.307-.147.841.264 1.195.41.354.956.392 1.22.086.264-.305.146-.84-.264-1.195-.41-.353-.956-.392-1.22-.086" fill="#312F4B"/>
    </g>
</svg>
