<svg width="200" height="200" viewBox="0 0 200 200" xmlns="http://www.w3.org/2000/svg" xmlns:xlink="http://www.w3.org/1999/xlink">
    <defs>
        <filter x="-6.6%" y="-5.4%" width="113.3%" height="112.3%" filterUnits="objectBoundingBox" id="3uyhnnmygc">
            <feMorphology radius=".5" operator="dilate" in="SourceAlpha" result="shadowSpreadOuter1"/>
            <feOffset dy="2" in="shadowSpreadOuter1" result="shadowOffsetOuter1"/>
            <feGaussianBlur stdDeviation="2" in="shadowOffsetOuter1" result="shadowBlurOuter1"/>
            <feComposite in="shadowBlurOuter1" in2="SourceAlpha" operator="out" result="shadowBlurOuter1"/>
            <feColorMatrix values="0 0 0 0 0 0 0 0 0 0 0 0 0 0 0 0 0 0 0.5 0" in="shadowBlurOuter1"/>
        </filter>
        <filter x="-20%" y="-19.5%" width="140%" height="138.9%" filterUnits="objectBoundingBox" id="ekxhj7l6we">
            <feOffset dy="2" in="SourceAlpha" result="shadowOffsetOuter1"/>
            <feGaussianBlur stdDeviation="2" in="shadowOffsetOuter1" result="shadowBlurOuter1"/>
            <feColorMatrix values="0 0 0 0 0 0 0 0 0 0 0 0 0 0 0 0 0 0 0.2 0" in="shadowBlurOuter1" result="shadowMatrixOuter1"/>
            <feMerge>
                <feMergeNode in="shadowMatrixOuter1"/>
                <feMergeNode in="SourceGraphic"/>
            </feMerge>
        </filter>
        <path id="vhtkwur8a" d="M0 0h16.444v16.444H0z"/>
        <path d="M56.5 145.06c31.204 0 56.5-25.295 56.5-56.5 0-20.334-10.743-38.16-26.862-48.111-1.66-1.025 1.532-11.798 9.576-32.319-15.631 17.374-24.508 25.82-26.63 25.337A56.684 56.684 0 0 0 56.5 32.06C25.296 32.06 0 57.356 0 88.56c0 31.204 25.296 56.5 56.5 56.5z" id="ci7hq4btgd"/>
    </defs>
    <g fill="none" fill-rule="evenodd">
        <path d="M109.528.551v1.252l-3.924.873a16.785 16.785 0 0 0-9.233 5.63c-1.756 2.103-4.08 4.41-6.5 5.487-4.466 1.984-9.666 3.78-14.554 3.795-.608.004-1.21-.023-1.806-.078-.401-.04-.733-.059-1-.06-3.328-.038 3.151 2.519 7.033 4.978 4.192 2.658 8.514 4.052 10.326 9.907 1.813 5.855-2.927 6.831 0 14.778 2.928 7.947 8.226 12.827 5.995 20.912-2.23 8.086-3.485 18.264-1.115 27.744 2.324 9.298 3.308 34.823 7.817 36.59-1.98-.16-3.652-1.696-4.087-3.809-.996-4.836-2.571-13.232-2.809-19.033-.351-8.588-4.922-20.71-4.805-26.645.117-5.935 2.226-17.553 0-24.244-2.227-6.694-8.32-15.533-7.852-23.615.468-8.082-8.673-12.501-8.673-12.501S52.718 12.22 41.232 9.443c-11.486-2.779-14.59 7.134-12.833 13.7 1.758 6.567 7.41 9.84 12.775 5.81 6.973-5.241 10.724-.948 10.724-.948-3.721 0-11.943 5.719-12.07 5.808 2.399-.922 7.083 2.643 9.43 4.627.39.332.114 1.008-.378.917L37.95 37.35s-2.26.585 1.641 4.167c3.165 2.904 4.57 7.071 4.57 7.071-6.913-.632-4.862-7.008-13.418-11.302-8.556-4.293-16.232-23.171-3.282-31.568 14.46-9.377 30.355 4.672 40.316 8.712 9.963 4.042 18.753.127 23.557-6.692 1.894-2.685 5.202-4.42 8.52-5.535a31.675 31.675 0 0 1 9.674-1.652" fill="#E3ACB1"/>
        <path d="M84.015 33.171s-4.14.033-7.878 6.77l-.017.031c-1.577 2.851-5.605 3.628-8.468 3.803a9.774 9.774 0 0 0-5.447 2.064c-3.356 2.642-9.953 6.562-17.182 3.92-8.005-2.926-10.314-13.7-4.375-20.042l.127-.134a14.288 14.288 0 0 1 2.897-2.359c.78-.478 1.59-.867 2.418-1.168 5.946-2.167 12.865.169 16.452 6.421 2.394 4.177 5.357 8.09 7.708 7.338 5.957-1.903 2.426-6.298 10.558-10.965.352-.203.677-.375.977-.522 6.159-3.013 2.23 4.843 2.23 4.843" fill="#FBD9BF"/>
        <path d="m82.508 28.834-1.327-.194a17.46 17.46 0 0 0-.373.21c-8.132 4.667-4.6 9.062-10.558 10.965-2.352.751-5.314-3.16-7.708-7.338-3.587-6.252-10.506-8.588-16.452-6.421-.112.04-.222.082-.333.126l-.134.055-.195.08-.159.07a8.589 8.589 0 0 0-.338.155 8.923 8.923 0 0 0-.33.162l-.136.071a8.368 8.368 0 0 0-.29.156 14.154 14.154 0 0 0-3.4 2.652l-.127.134c-5.939 6.343-3.63 17.116 4.375 20.042 7.229 2.642 13.826-1.278 17.182-3.92a9.77 9.77 0 0 1 5.447-2.064c2.863-.175 6.89-.952 8.468-3.803.006-.01.01-.02.017-.03a10.43 10.43 0 0 1-.8.786 7.318 7.318 0 0 1-5.372 1.744c-1.817-.159-3.549-1.001-5.37-.957-4.459.11-7.296 5.248-11.668 6.136-2.283.463-5.906-.45-7.81-1.793-2.95-2.081-4.694-5.325-5.018-8.922-.336-3.731.837-5.577 3.207-8.226l.005-.006c.407-.455.905-.82 1.458-1.078 1.714-.796 3.533-1.36 5.411-1.523 2.535-.22 5.186.34 7.239 1.843 1.28.94 2.283 2.202 3.269 3.448 1.16 1.465 2.321 2.932 3.338 4.499.834 1.286 1.187 2.201 2.283 3.273 1.096 1.074 3.113 1.767 4.6 1.394 1.674-.418 2.426-1.424 3.347-2.509 1.073-1.266 2.018-3.073 2.928-4.461 1.157-1.767 2.361-2.68 4.345-3.626.77-.368 1.446-.628.98-1.13" fill="#F9C69F"/>
        <path d="M47.66 27.975c-1.599.871-2.96 2.278-3.509 4.015-.42 1.327-.35 2.77-.039 4.127.536 2.334 1.818 4.531 3.742 5.956 1.924 1.425 4.508 2.006 6.8 1.314 3.168-.958 5.624-4.156 8.932-4.026.072.003.146.007.216-.015.362-.112.209-.66-.013-.967-2.19-3.04-3.055-4.088-4.73-7.438-.697-1.395-2.37-3.207-5.158-3.904-1.558-.39-4.857.186-6.24.938" fill="#FDECDF"/>
        <path d="M135.857 33.171s4.14.033 7.879 6.77l.016.031c1.577 2.851 5.605 3.628 8.468 3.803a9.774 9.774 0 0 1 5.448 2.064c3.355 2.642 9.952 6.562 17.181 3.92 8.006-2.926 10.314-13.7 4.375-20.042l-.127-.134a14.288 14.288 0 0 0-2.897-2.359c-.78-.478-1.589-.867-2.417-1.168-5.947-2.167-12.866.169-16.453 6.421-2.394 4.177-5.356 8.09-7.708 7.338-5.957-1.903-2.426-6.298-10.558-10.965a16.26 16.26 0 0 0-.977-.522c-6.159-3.013-2.23 4.843-2.23 4.843" fill="#FBD9BF"/>
        <path d="m137.364 28.834 1.327-.194c.121.067.245.136.373.21 8.132 4.667 4.6 9.062 10.558 10.965 2.352.751 5.314-3.16 7.708-7.338 3.587-6.252 10.506-8.588 16.452-6.421.112.04.223.082.333.126l.135.055.194.08.16.07.167.075.17.08.152.073c.06.03.12.059.178.09.046.022.091.046.136.07a8.366 8.366 0 0 1 .29.156 14.154 14.154 0 0 1 3.4 2.652l.127.134c5.939 6.343 3.63 17.116-4.375 20.042-7.229 2.642-13.826-1.278-17.182-3.92a9.77 9.77 0 0 0-5.446-2.064c-2.864-.175-6.891-.952-8.468-3.803l-.017-.03c.253.274.517.54.799.786a7.318 7.318 0 0 0 5.372 1.744c1.817-.159 3.549-1.001 5.37-.957 4.46.11 7.297 5.248 11.669 6.136 2.282.463 5.905-.45 7.808-1.793 2.951-2.081 4.696-5.325 5.02-8.922.335-3.731-.837-5.577-3.208-8.226l-.005-.006a4.493 4.493 0 0 0-1.458-1.078c-1.714-.796-3.533-1.36-5.41-1.523-2.536-.22-5.187.34-7.24 1.843-1.28.94-2.283 2.202-3.268 3.448-1.16 1.465-2.322 2.932-3.338 4.499-.835 1.286-1.188 2.201-2.284 3.273-1.095 1.074-3.113 1.767-4.6 1.394-1.674-.418-2.425-1.424-3.347-2.509-1.073-1.266-2.018-3.073-2.927-4.461-1.158-1.767-2.362-2.68-4.346-3.626-.77-.368-1.446-.628-.98-1.13" fill="#F9C69F"/>
        <path d="M172.212 27.975c1.6.871 2.96 2.278 3.51 4.015.42 1.327.35 2.77.038 4.127-.536 2.334-1.817 4.531-3.741 5.956-1.924 1.425-4.508 2.006-6.8 1.314-3.169-.958-5.625-4.156-8.933-4.026-.072.003-.146.007-.215-.015-.363-.112-.21-.66.013-.967 2.189-3.04 3.054-4.088 4.729-7.438.697-1.395 2.37-3.207 5.158-3.904 1.558-.39 4.858.186 6.24.938" fill="#FDECDF"/>
        <path d="M189.257 37.35c-7.89 3.958-6.76 9.689-11.958 11.053-.64.167-1.192-.477-.917-1.078.671-1.466 1.981-3.87 4.026-5.746 3.902-3.58 1.641-4.167 1.641-4.167l-10.928 2.008c-.493.09-.77-.585-.379-.917 2.347-1.984 7.031-5.548 9.43-4.627-.116-.082-6.922-4.816-10.954-5.676a.489.489 0 0 1-.153-.897c1.526-.937 4.841-1.985 9.761 1.712 5.365 4.031 11.017.758 12.775-5.809 1.757-6.566-1.348-16.479-12.834-13.7-11.485 2.778-33.108 13.068-33.108 13.068s-9.142 4.421-8.673 12.502c.468 8.082-5.626 16.922-7.852 23.614-2.227 6.692-.117 18.31 0 24.244.117 5.937-4.454 18.06-4.805 26.646-.238 5.8-1.813 14.196-2.81 19.032-.46 2.235-2.3 3.823-4.425 3.823h-7.182v-.063h-7.006a3.373 3.373 0 0 1-.34-.014c-1.979-.159-3.65-1.694-4.085-3.808-.997-4.837-2.573-13.232-2.81-19.033-.351-8.588-4.923-20.71-4.805-26.646.117-5.934 2.226-17.551 0-24.244-2.227-6.693-8.32-15.532-7.852-23.614.469-8.082-8.673-12.501-8.673-12.501S52.718 12.22 41.233 9.443c-11.487-2.779-14.592 7.134-12.834 13.7 1.759 6.567 7.41 9.84 12.775 5.81 5.311-3.992 8.753-2.453 10.092-1.492.246.176.159.563-.14.612-3.975.645-11.179 5.656-11.3 5.74 2.4-.922 7.085 2.643 9.431 4.627.392.332.114 1.008-.377.918L37.95 37.35s-2.26.585 1.641 4.167c3.165 2.904 4.57 7.07 4.57 7.07-6.913-.63-4.862-7.008-13.418-11.301S14.51 14.115 27.46 5.718c14.46-9.377 30.355 4.671 40.316 8.712 9.963 4.041 18.753.127 23.557-6.692 1.894-2.685 5.202-4.42 8.52-5.535a31.657 31.657 0 0 1 9.674-1.652c.047 0 .094-.003.14-.003a31.69 31.69 0 0 1 10.307 1.635c3.373 1.127 6.765 2.886 8.69 5.618 4.805 6.819 13.595 10.733 23.558 6.693 9.961-4.042 25.856-18.09 40.316-8.714 12.95 8.398 5.274 27.276-3.282 31.57" fill="#ECC8CA"/>
        <path d="M192.539 5.78c-14.46-9.376-30.355 4.672-40.316 8.714-9.963 4.04-18.753.125-23.557-6.693-1.926-2.732-5.318-4.49-8.691-5.618A31.69 31.69 0 0 0 109.667.548l-.139.003a31.657 31.657 0 0 0-9.674 1.652c-3.318 1.115-6.626 2.85-8.52 5.535C86.53 14.556 77.74 18.47 67.778 14.43 57.816 10.39 41.92-3.66 27.46 5.718c-12.95 8.397-5.274 27.275 3.282 31.567 8.454 4.243 6.552 10.52 13.177 11.278a.152.152 0 0 0 .158-.204c-.344-.911-1.764-4.344-4.487-6.842-3.578-3.284-1.973-4.05-1.682-4.154a.148.148 0 0 1 .08-.006l10.89 2c.493.09.77-.585.378-.917-2.13-1.801-6.19-4.907-8.714-4.772-.154.008-.219-.194-.091-.28 1.932-1.29 7.864-5.093 11.092-5.368.137-.011.195-.178.092-.267-.962-.84-4.557-3.238-10.462 1.2-5.365 4.03-11.017.757-12.775-5.81-1.758-6.566 1.347-16.478 12.833-13.7 11.486 2.777 33.109 13.069 33.109 13.069s9.141 4.42 8.673 12.501c-.469 8.082 5.625 16.921 7.852 23.614 2.226 6.692.117 18.31 0 24.244-.117 5.935 4.454 18.058 4.806 26.646.237 5.8 1.812 14.196 2.808 19.033.434 2.107 2.097 3.64 4.068 3.807.013 0 .025.004.037.008.082.032.227.034.148.003-4.532-1.677-5.514-27.284-7.844-36.599-2.37-9.48-1.115-19.657 1.116-27.744 2.23-8.086-3.067-12.965-5.995-20.912-2.928-7.946 1.812-8.923 0-14.778-1.813-5.856-6.134-7.25-10.327-9.907-3.824-2.423-10.173-4.942-7.173-4.979.289-.004.667.016 1.141.06.55.052 1.105.077 1.666.079 4.928.02 10.185-1.792 14.693-3.795 2.42-1.077 4.744-3.384 6.5-5.486a16.786 16.786 0 0 1 9.233-5.631c2.663-.76 5.281-.789 7.849 0a16.784 16.784 0 0 1 9.232 5.63c1.757 2.103 4.08 4.41 6.501 5.487 5.019 2.23 10.97 4.225 16.359 3.716 5.39-.51-1.84 2.262-6.032 4.919-4.193 2.657-8.515 4.051-10.327 9.907-1.813 5.855 2.928 6.832 0 14.778-2.928 7.947-8.225 12.826-5.995 20.912 2.23 8.087 3.485 18.264 1.115 27.744-2.258 9.036-3.251 33.397-7.444 36.385-.123.088-.067.281.086.281h.007c2.124 0 3.965-1.588 4.425-3.823.997-4.836 2.572-13.232 2.81-19.032.35-8.587 4.922-20.709 4.805-26.646-.117-5.934-2.227-17.552 0-24.244s8.32-15.532 7.852-23.614c-.468-8.08 8.673-12.502 8.673-12.502s21.623-10.29 33.109-13.069c11.486-2.778 14.59 7.134 12.833 13.701-1.758 6.567-7.41 9.84-12.775 5.81-5.106-3.838-8.484-2.564-9.927-1.607a.419.419 0 0 0 .152.758c3.316.628 8.679 4.07 10.497 5.284.128.086.063.288-.091.28-2.524-.134-6.583 2.97-8.714 4.772-.392.332-.115 1.008.377.917l10.891-2a.148.148 0 0 1 .08.006c.291.104 1.896.87-1.683 4.153-1.962 1.801-3.248 4.088-3.942 5.565-.32.682.315 1.414 1.038 1.202 4.964-1.46 3.968-7.09 11.753-10.996 8.556-4.294 16.232-23.172 3.282-31.57" fill="#E3ACB1"/>
        <path d="M189.724 35.08c-7.502 5.535-7.384 6.918-9.611 9.308l-.617.662c-.298.32-.814-.03-.627-.425.99-2.096 3.296-4.376 4.13-5.04.504-.4.666-.985.671-1.555.01-.985-.886-1.738-1.86-1.585-1.558.243-3.975.612-5.33.774-.928.11-1.945.343-2.794.567-.194.052-.295-.22-.115-.308l6.913-3.388a.536.536 0 0 0 .076-.916l-6.587-4.744c-.446-.322-.05-1.008.453-.785 2.733 1.209 6.361 4.703 8.851 4.417 3.282-.378 11.251-3.774 10.549-13.963-.703-10.187-11.523-10.748-14.767-10.314-5.626.756-21.448 7.421-29.183 11.32-7.736 3.9-11.003 3.506-15.94 3.65-4.336.125-7.923 1.35-9.962 4.904-2.812 4.906-4.453 6.918-3.984 16.98.246 5.283-4.102 3.76-5.04 8.916-.828 4.556-4.922 8.923-4.922 8.923h-.012c-.06 1.466.075 3.672.708 6.505a36.647 36.647 0 0 0 .405 1.634 14.263 14.263 0 0 1 .48 3.1c.036.771.006 1.515-.06 2.234-.04.427-.093.844-.154 1.255-.176 1.165-.423 2.273-.623 3.344-.017.087-.034.172-.049.258-.053.286-.087.56-.108.821l.025.175c.06.412.123.834.187 1.258.09.593.241 1.102.444 1.533.24.51.549.915.914 1.227 2.504 2.137 7.58-.012 9.934-1.2.643-.325 1.307.392 1.013 1.09l-.01.023a.868.868 0 0 0-.062.474c.027.188.041.375.043.56a4.02 4.02 0 0 1-.247 1.39 5.376 5.376 0 0 1-.098.25c-.058.137-.078.289-.058.436.124.91-.011 1.79-.428 2.635-.044.09-.09.18-.14.267a.879.879 0 0 0-.096.605c.034.166.058.33.074.496.084.855-.05 1.714-.392 2.58a.887.887 0 0 0-.041.486l.012.056c.102.42.12.833.074 1.243-.078.71-.348 1.407-.701 2.097a.887.887 0 0 0-.07.613c.07.285.118.564.14.834.041.492-.005.958-.162 1.389a2.694 2.694 0 0 1-.248.503.831.831 0 0 0-.115.554c.104.75.054 1.563-.374 2.53a.875.875 0 0 0-.031.626c.124.388.174.77.16 1.144-.021.648-.229 1.276-.565 1.892a.897.897 0 0 0-.078.653c.07.266.118.538.14.814.036.426.015.86-.068 1.308-.09.5-.256 1.016-.504 1.546a.895.895 0 0 0-.053.59c.09.362.137.708.138 1.034.001.505-.105.966-.32 1.384v.002a3.014 3.014 0 0 1-.246.392.872.872 0 0 0-.142.693c.16.763.14 1.574-.05 2.428-.09.411-.22.834-.39 1.266a.696.696 0 0 0-.038.138v.002a.83.83 0 0 0 .041.454c.435 1.164-.68 2.572-.603 2.886.022.088.056.247.088.449.053.336.099.792.071 1.255-.034.6-.189 1.205-.608 1.568a.815.815 0 0 0-.253.828c.095.346.115.705.092 1.05-.029.471-.135.91-.236 1.236a.768.768 0 0 1-.024.065.76.76 0 0 1-.699.495h-12.193c-.327 0-.618-.225-.722-.56-.018-.056-.035-.116-.053-.179-.1-.361-.19-.82-.193-1.297 0-.269.029-.544.1-.81a.813.813 0 0 0-.251-.828c-.445-.383-.593-1.04-.615-1.672a6.391 6.391 0 0 1 .164-1.6c.078-.314-1.037-1.722-.602-2.886a.835.835 0 0 0 .009-.575l-.008-.019a8.65 8.65 0 0 1-.408-1.356c-.17-.822-.184-1.6-.03-2.338a.866.866 0 0 0-.143-.693 2.874 2.874 0 0 1-.263-.431 2.962 2.962 0 0 1-.302-1.348v-.002c.002-.326.048-.669.139-1.031a.895.895 0 0 0-.054-.59 6.107 6.107 0 0 1-.542-1.779 4.823 4.823 0 0 1 .11-1.89.9.9 0 0 0-.078-.652c-.344-.631-.553-1.275-.566-1.939-.008-.36.043-.725.162-1.097a.868.868 0 0 0-.032-.626c-.428-.967-.477-1.78-.374-2.53a.831.831 0 0 0-.114-.554 2.682 2.682 0 0 1-.237-.473 3.208 3.208 0 0 1-.18-1.352c.02-.29.071-.592.147-.9a.89.89 0 0 0-.07-.614c-.33-.642-.586-1.29-.682-1.95a3.627 3.627 0 0 1 .055-1.39.914.914 0 0 0-.03-.542c-.358-.91-.488-1.811-.378-2.708.015-.123.037-.245.06-.368a.875.875 0 0 0-.094-.605 4.652 4.652 0 0 1-.197-.384 4.463 4.463 0 0 1-.373-2.518c.02-.147 0-.3-.058-.436-.023-.053-.043-.106-.064-.159a4.124 4.124 0 0 1-.28-1.353 3.84 3.84 0 0 1 .043-.688.88.88 0 0 0-.073-.498c-.294-.697.37-1.414 1.014-1.09 2.38 1.204 7.545 3.387 10.017 1.124.342-.31.63-.707.853-1.201.191-.42.335-.913.421-1.482.049-.317.094-.622.137-.922a7.749 7.749 0 0 0-.127-1.332l-.059-.315c-.203-1.073-.448-2.182-.623-3.35a24.3 24.3 0 0 1-.152-1.263 16.315 16.315 0 0 1-.05-2.232c.02-.409.057-.824.116-1.25.078-.576.196-1.169.362-1.781a35.29 35.29 0 0 0 .412-1.67c.626-2.815.76-5.01.7-6.47h-.012s-3.985-3.765-4.923-8.922c-.938-5.157-5.285-3.633-5.04-8.915.47-10.063-1.172-12.075-3.984-16.981-2.038-3.554-5.625-4.78-9.963-4.905-4.935-.143-8.203.251-15.938-3.648C62.21 15.206 46.39 8.54 40.762 7.785c-3.242-.434-14.062.127-14.766 10.314-.703 10.189 7.266 13.585 10.548 13.963 2.694.31 7.568-3.504 9.893-4.526.212-.093.377.198.19.335l-6.47 4.659a1.197 1.197 0 0 0 .17 2.045l6.531 3.201c.111.055.046.224-.073.19-.94-.27-2.265-.607-3.443-.747-1.435-.172-4.062-.575-5.596-.816-1.014-.159-1.921.737-1.703 1.74.07.314.24.62.57.884 1.01.803 3.57 4.88 4.73 6.777.075.12-.088.244-.184.14l-1.45-1.556c-2.227-2.39-2.11-3.773-9.61-9.308-7.502-5.535-8.674-15.974-7.15-21.006 1.344-4.439 6.328-10.061 15.587-10.061 8.206 0 21.098 8.389 28.831 11.571 3.545 1.46 7.213 2.256 10.295 2.688 3.788.531 7.628.443 11.394-.245 6.578-1.2 14.62-2.365 18.602-1.778.088.014.62.021 1.322.021 1.118 0 2.669-.02 3.555-.068 4.095-.469 11.852.66 18.23 1.825 3.766.688 7.607.776 11.396.245 3.08-.432 6.748-1.228 10.293-2.688 7.735-3.182 20.627-11.571 28.831-11.571 9.258 0 14.243 5.622 15.588 10.061 1.523 5.032.352 15.471-7.15 21.006" fill="#D17682"/>
        <path d="M117.232 63.253c-1.332-1.754-4.087-1.375-4.854.69-.445 1.194-.645 2.709-.188 4.528 1.272 5.068-1.072 13.664 1.13 14.875 2.203 1.21 4.624 1.704 9.443-2.485 3.604-3.134-1.969-12.919-5.53-17.608M102.595 63.253c1.332-1.754 4.087-1.375 4.855.69.444 1.194.644 2.709.188 4.528-1.272 5.068 1.071 13.664-1.131 14.875-2.202 1.21-4.623 1.704-9.442-2.485-3.605-3.134 1.968-12.919 5.53-17.608M98.97 9.665c-.358.105-.596-.46-.322-.77 1.532-1.738 5.13-4.861 11.214-4.861 5.37 0 8.76 2.433 10.512 4.2.376.378.067 1.133-.395.966-3.133-1.135-10.199-2.693-21.009.465" fill="#F1D8D9"/>
        <path d="M120.97 102.146a29.418 29.418 0 0 1-3.769 1.035c-3.173.647-6.432.794-9.655.533-2.906-.236-5.777-.778-8.587-1.538a3.21 3.21 0 0 1-.18-1.352 50.46 50.46 0 0 0 5.804 1.284l.632.095.157.02c.009.003.032.005.053.01h.017c.002.002.005.002.008.002 0 0 .002 0 .002.002h.015c.09.013.18.024.272.036.805.102 1.614.18 2.424.231 1.602.105 3.21.11 4.813-.004a33.235 33.235 0 0 0 1.77-.174l.145-.02.009-.001.033-.004.023-.003.235-.034a30.854 30.854 0 0 0 2.277-.424 29.1 29.1 0 0 0 3.665-1.083c.04.493-.006.958-.163 1.389M121.763 97.213c-1.459.52-2.956.932-4.474 1.231-3.269.643-6.62.79-9.937.532-3.104-.241-6.172-.813-9.178-1.616a3.627 3.627 0 0 1 .032-1.291 54.32 54.32 0 0 0 4.77 1.085c.423.076.848.147 1.275.211a39.106 39.106 0 0 0 .72.105h.002a.044.044 0 0 0 .013.001l.004.001h.006l.004.002.16.02.285.036c.839.103 1.682.182 2.527.236a38.14 38.14 0 0 0 4.986-.007 35.39 35.39 0 0 0 1.836-.176l.233-.03h.01c.002 0 .004 0 .005-.002l.015-.002h.014a.206.206 0 0 1 .025-.005l.146-.02a31.235 31.235 0 0 0 6.435-1.61l.012.056c.102.42.12.834.074 1.243M122.131 91.747a.877.877 0 0 0-.095.605c.034.166.058.33.074.496a34.824 34.824 0 0 1-3.954.989c-3.464.65-7.008.797-10.52.538-3.314-.246-6.596-.831-9.815-1.655.015-.123.037-.246.06-.368a.874.874 0 0 0-.094-.605 4.652 4.652 0 0 1-.197-.384c1.78.473 3.58.873 5.395 1.184a46.9 46.9 0 0 0 2.64.38 47.1 47.1 0 0 0 2.697.238c1.737.103 3.483.107 5.22-.006 1.752-.114 3.2-.302 4.916-.658a34.334 34.334 0 0 0 3.814-1.02c-.043.089-.09.178-.14.266M123.103 86.77a4.01 4.01 0 0 1-.247 1.39 38.88 38.88 0 0 1-4.575 1.081c-3.713.648-7.497.792-11.254.532-3.346-.233-6.665-.769-9.932-1.522a4.139 4.139 0 0 1-.279-1.355c1.743.419 3.502.776 5.276 1.057a55.128 55.128 0 0 0 5.688.61c1.861.104 3.729.108 5.59-.005a42.25 42.25 0 0 0 2.748-.252l.31-.039h.002l.01-.001c.001 0 .006 0 .01-.002l.022-.002.069-.01.177-.025a45.768 45.768 0 0 0 1.927-.322 38.714 38.714 0 0 0 4.458-1.135M112.185 85.822a38.67 38.67 0 0 1-4.369-.077c.341-.31.63-.707.853-1.202.414.024.828.04 1.242.046.453.012.907.013 1.36.006.24.51.549.914.914 1.227M110.723 80.808c-.053.286-.086.56-.108.822l.026.174c-.243-.003-.486-.01-.73-.017-.231-.008-.464-.017-.697-.028a7.984 7.984 0 0 0-.114-.95l-.059-.315c.29.016.58.029.87.037.288.011.573.018.86.02-.016.086-.033.171-.048.257M111.55 75.951c-.041.427-.094.844-.155 1.255-.494.005-.989.003-1.483-.009-.498-.01-.996-.028-1.494-.054-.06-.414-.113-.834-.152-1.263.548.03 1.096.052 1.646.063.545.012 1.091.015 1.637.008M111.61 73.718a49.692 49.692 0 0 1-3.394-.07c.02-.409.057-.824.116-1.25a47.889 47.889 0 0 0 3.169.069c.056.425.091.842.108 1.25M111.028 70.238a50.663 50.663 0 0 1-2.222-.046c.112-.428.21-.843.3-1.245a46.765 46.765 0 0 0 1.619.036c.09.406.19.824.303 1.255M118.615 120.24a8.55 8.55 0 0 1-.39 1.265.696.696 0 0 0-.04.138v.001c-.327.077-.654.151-.983.218-3.174.648-6.433.795-9.657.534a45.725 45.725 0 0 1-5.847-.871c-.001-.007-.004-.013-.006-.02a8.65 8.65 0 0 1-.409-1.357 49.433 49.433 0 0 0 3.3.642l.631.095.158.02.053.009h.002l.015.001c.003.002.005.002.008.002l.001.001a.06.06 0 0 1 .016.002l.271.034c.807.102 1.615.18 2.425.232a35.63 35.63 0 0 0 4.812-.004 33.14 33.14 0 0 0 1.77-.175c.048-.007.098-.012.146-.02h.009c.008-.002.022-.003.033-.004l.022-.003.236-.034a30.87 30.87 0 0 0 3.424-.707M119.372 115.34c.001.505-.104.966-.32 1.385v.001a31.36 31.36 0 0 1-1.763.4c-3.27.643-6.619.789-9.937.532a48.319 48.319 0 0 1-6.506-.971 2.962 2.962 0 0 1-.3-1.348 52.636 52.636 0 0 0 4.402.81l.023.003h.003a.044.044 0 0 0 .012 0c.001.002.003.002.004.002h.006l.004.002.16.02.284.035c.84.103 1.683.183 2.528.236a36.719 36.719 0 0 0 6.821-.182l.233-.03.011-.001c.002 0 .003 0 .005-.002h.015c.006-.003.01-.003.014-.003.007 0 .016-.002.025-.004l.147-.019a32.842 32.842 0 0 0 2.345-.42 33.05 33.05 0 0 0 1.784-.446M119.792 112.17c-.543.13-1.088.245-1.636.349-3.464.65-7.008.797-10.52.537a54.09 54.09 0 0 1-7.548-1.119 4.799 4.799 0 0 1-.007-1.283c.964.217 1.933.41 2.904.575.947.162 1.758.278 2.641.38.896.105 1.794.185 2.696.237a42.14 42.14 0 0 0 5.22-.005c1.752-.114 3.2-.303 4.915-.658.47-.098.937-.204 1.402-.321a4.9 4.9 0 0 1-.067 1.308M120.362 107.504c-.69.158-1.383.298-2.082.42-3.712.646-7.496.791-11.253.53a61.506 61.506 0 0 1-7.473-.998 3.34 3.34 0 0 1 .162-1.097.962.962 0 0 0 .032-.14c.778.153 1.558.292 2.343.416 1.003.16 1.777.264 2.786.372.965.105 1.932.186 2.903.239 1.86.103 3.73.107 5.59-.006a42.29 42.29 0 0 0 3.058-.291h.003l.009-.002h.01c.007-.003.015-.003.022-.004.03-.004.063-.008.068-.01a32.868 32.868 0 0 0 .823-.122 41.373 41.373 0 0 0 2.813-.55l.026.098c.124.388.174.77.16 1.145M117.015 130.135c-.03.471-.136.91-.237 1.236a.768.768 0 0 1-.024.065c-3.014.446-6.079.527-9.118.302a51.99 51.99 0 0 1-4.55-.546 4.99 4.99 0 0 1-.191-1.297l.09.015c.947.162 1.759.28 2.64.38.897.106 1.795.185 2.697.238 1.737.103 3.483.108 5.22-.006 1.242-.08 2.332-.199 3.473-.387M102.128 126.585c1.625.251 3.26.438 4.899.55 3.59.25 7.204.13 10.756-.446a5.969 5.969 0 0 0-.071-1.255l-.35.059c-.214.034-.43.067-.645.097l-.177.025-.068.01c-.007.001-.015.001-.022.003l-.01.001-.01.001h-.002c-.103.015-.207.027-.31.04-.913.114-1.829.197-2.748.252-1.86.113-3.73.108-5.59.006a55.106 55.106 0 0 1-2.903-.239 51.938 51.938 0 0 1-2.656-.351l-.093 1.247zM88.476 21.39c.267-.016.537-.013.803-.006a16.753 16.753 0 0 1 1.763.134l.073.01.037.004c.033.005-.034-.004 0 0l.159.023c.957.139 1.904.355 2.823.658 1.066.35 2.08.817 3.03 1.427a10.995 10.995 0 0 1 2.753 2.505c.89 1.15 1.53 2.478 1.94 3.87.321 1.093.593 2.202.874 3.305a223.647 223.647 0 0 1 2.883 12.954c.121.642.241 1.285.352 1.928l.015.082c.044.265.447.152.403-.111a86.136 86.136 0 0 0-.24-1.336 192.092 192.092 0 0 0-.714-3.634c-.37-1.796-.76-3.587-1.174-5.373a211.6 211.6 0 0 0-1.623-6.553c-.238-.897-.469-1.795-.822-2.656a11.953 11.953 0 0 0-1.02-1.962 11.323 11.323 0 0 0-2.685-2.872 12.974 12.974 0 0 0-3.087-1.699 15.989 15.989 0 0 0-2.952-.83 18.07 18.07 0 0 0-2.362-.277c-.39-.02-.785-.032-1.176-.011l-.053.003c-.267.016-.269.435 0 .418M99.993 19.928c.042.014.084.031.125.048.029.012.04.02-.014-.006l.038.016.08.036a6.417 6.417 0 0 1 .726.402 7.511 7.511 0 0 1 .487.339c.016.01.03.022.046.034l.009.007.093.073a9.581 9.581 0 0 1 1.54 1.565 12.016 12.016 0 0 1 .77 1.12c.278.459.526.935.746 1.423.54 1.202.909 2.479 1.16 3.77.16.816.261 1.639.343 2.465a1037.516 1037.516 0 0 0 .727 7.084 590.003 590.003 0 0 0 .543 4.888c.03.248.059.498.09.746l.004.03c.014.111.086.208.21.208.101 0 .223-.096.208-.209l-.061-.503a499.076 499.076 0 0 1-.494-4.39 806.855 806.855 0 0 1-.693-6.696c-.09-.904-.166-1.81-.299-2.709-.206-1.404-.538-2.795-1.053-4.12a13.464 13.464 0 0 0-1.513-2.878 10.371 10.371 0 0 0-1.604-1.813 8.145 8.145 0 0 0-1.343-.974 4.097 4.097 0 0 0-.729-.348l-.03-.011c-.258-.084-.367.32-.112.403M131.276 20.973a9.444 9.444 0 0 0-.815-.007c-.713.017-1.425.083-2.13.185-.966.141-1.92.36-2.847.666-1.088.36-2.142.842-3.107 1.462a11.376 11.376 0 0 0-2.819 2.546 12.121 12.121 0 0 0-2.024 3.94c-.33 1.077-.592 2.177-.871 3.268a226.966 226.966 0 0 0-2.096 8.995 203.949 203.949 0 0 0-.827 4.112 116.118 116.118 0 0 0-.371 2.033c-.045.263.358.376.403.111.075-.44.156-.878.237-1.317.222-1.197.458-2.392.703-3.585.364-1.773.75-3.543 1.156-5.307.5-2.168 1.033-4.329 1.6-6.481.242-.915.47-1.837.82-2.718a11.47 11.47 0 0 1 .983-1.927 10.758 10.758 0 0 1 2.587-2.8 12.687 12.687 0 0 1 3.009-1.666c.946-.369 1.93-.639 2.929-.822.22-.04.442-.077.665-.11l.149-.02.036-.005.082-.01a16.56 16.56 0 0 1 1.333-.117c.389-.02.776-.02 1.164-.01l.051.002c.269.017.268-.401 0-.418M119.649 19.525c-.18.059-.355.144-.522.23-.436.223-.84.5-1.224.803a9.555 9.555 0 0 0-1.556 1.571 12.51 12.51 0 0 0-1.57 2.594 17.467 17.467 0 0 0-1.206 3.811c-.344 1.717-.456 3.474-.633 5.214a879.006 879.006 0 0 1-.8 7.563c-.07.624-.141 1.247-.215 1.87-.03.251-.073.505-.091.757 0 .01-.003.02-.004.03-.014.111.106.208.21.208.124 0 .194-.096.209-.209l.06-.495a357.2 357.2 0 0 0 .485-4.315 778.846 778.846 0 0 0 .682-6.578c.09-.893.16-1.791.287-2.68.2-1.41.526-2.807 1.033-4.14a13.11 13.11 0 0 1 1.47-2.821 9.983 9.983 0 0 1 1.552-1.763c.119-.106.24-.208.366-.307l.087-.07a.408.408 0 0 0 .008-.006l.051-.038.166-.121c.193-.137.391-.266.597-.383.144-.082.291-.16.442-.229l.083-.037c.07-.031-.04.016.02-.009l.092-.035a.679.679 0 0 1 .032-.012c.254-.083.145-.487-.111-.403M109.528 18.603v16.05c0 .217-.005.434 0 .651v.028c0 .27.418.27.418 0v-16.05c0-.217.005-.434 0-.651v-.028c0-.27-.418-.27-.418 0" fill="#CB6071"/>
        <path d="M117.094 132.881h-7.627v-.063h-6.603a.695.695 0 0 1-.395-.02l-.028-.004-.05-.005-.073-.008-.08-.012-.05-.007a3.064 3.064 0 0 1-.153-.027l-.05-.01a2.326 2.326 0 0 1-.068-.013l-.076-.017-.055-.014-.065-.016a2.405 2.405 0 0 1-.077-.021l-.049-.014a1.294 1.294 0 0 1-.146-.046l-.044-.014a1.565 1.565 0 0 1-.068-.023l-.075-.028-.048-.018-.066-.026a2.57 2.57 0 0 1-.074-.031l-.044-.018-.066-.03a3.997 3.997 0 0 1-.072-.033l-.045-.022a1.588 1.588 0 0 1-.134-.068l-.042-.022-.065-.035a4.793 4.793 0 0 1-.067-.039l-.046-.027c-.02-.01-.039-.022-.058-.033l-.066-.042-.042-.028-.06-.039a4.342 4.342 0 0 1-.066-.045l-.04-.027-.06-.043a3.638 3.638 0 0 1-.063-.048l-.04-.03a2.003 2.003 0 0 1-.116-.092l-.04-.033-.055-.045-.057-.052-.042-.037a1.824 1.824 0 0 1-.05-.045l-.055-.053-.041-.04-.049-.048a1.723 1.723 0 0 1-.056-.058l-.035-.037-.05-.051-.051-.059-.035-.04a3.82 3.82 0 0 1-.098-.115l-.035-.042-.043-.053-.047-.062-.032-.044a1.076 1.076 0 0 1-.044-.058l-.046-.065-.032-.046a3.336 3.336 0 0 1-.082-.125l-.032-.049-.036-.058-.041-.07-.03-.05c-.01-.019-.023-.038-.034-.057l-.04-.074-.027-.052-.031-.058a4.67 4.67 0 0 1-.038-.078l-.024-.05-.03-.061a10.308 10.308 0 0 1-.035-.079l-.022-.05a2.885 2.885 0 0 1-.06-.145l-.02-.05a2.97 2.97 0 0 1-.025-.066l-.03-.083-.019-.055-.022-.063a4.522 4.522 0 0 1-.026-.083l-.017-.057-.02-.065a10.289 10.289 0 0 1-.034-.128l-.01-.035-.012-.046a6.233 6.233 0 0 1-.048-.213c-.95-4.605-2.577-13.21-2.818-19.105-.178-4.364-1.44-9.575-2.66-14.615-1.133-4.685-2.204-9.11-2.146-12.057.033-1.654.221-3.777.421-6.024.528-5.932 1.184-13.315-.398-18.07-.695-2.089-1.775-4.398-2.917-6.842-2.477-5.295-5.284-11.296-4.957-16.94a9.75 9.75 0 0 0 .006-.997c-1.466.598-3.818 2.149-6.048 6.168l-.006.008c-.004.01-.009.019-.014.027-.909 1.644-3.18 3.68-8.828 4.027a9.282 9.282 0 0 0-5.198 1.97c-2.587 2.036-7.171 4.89-12.525 4.892-1.635 0-3.341-.267-5.086-.904a11.816 11.816 0 0 1-3.045-1.652l-.115-.046-.126-.052a5.368 5.368 0 0 1-.237-.108l-.112-.055a10.686 10.686 0 0 1-.222-.118 3.681 3.681 0 0 1-.322-.191 9.696 9.696 0 0 1-.299-.203l-.099-.073a5.474 5.474 0 0 1-.276-.22 5.905 5.905 0 0 1-.267-.237l-.082-.078-.086-.084-.08-.081a5.857 5.857 0 0 1-.24-.258l-.075-.085c-.026-.03-.053-.06-.078-.091l-.073-.086a10.646 10.646 0 0 1-.076-.094l-.07-.088-.075-.095-.07-.09c-.023-.033-.048-.065-.072-.097-.022-.03-.045-.06-.067-.092a6.03 6.03 0 0 1-.072-.098l-.066-.093-.071-.1-.065-.094-.07-.102-.602-.918-.894-1.364-.382-.543-.073-.1-.088-.12-.08-.106-.015-.019-.071-.093-.07-.09-.025-.03a6.436 6.436 0 0 0-.147-.186l-.037-.045-.072-.088-.076-.091-.033-.039a5.118 5.118 0 0 0-.147-.172l-.049-.056-.071-.08-.077-.086-.051-.056a8.636 8.636 0 0 0-.072-.078l-.082-.088L35 40.92a5.27 5.27 0 0 0-.078-.083l-.082-.083-.057-.058a9.522 9.522 0 0 0-.077-.077l-.087-.085-.058-.056a3.277 3.277 0 0 0-.08-.077l-.09-.085-.062-.058-.081-.075-.092-.082-.07-.062-.082-.072-.096-.082-.074-.062a10.77 10.77 0 0 0-.084-.072l-.1-.081-.079-.063a4.897 4.897 0 0 0-.192-.152l-.08-.062-.09-.069-.106-.079-.09-.066-.091-.067-.112-.079-.095-.066-.093-.065-.12-.08-.1-.066c-.03-.02-.06-.042-.092-.062l-.133-.084-.102-.065-.09-.058-.146-.087-.104-.063-.09-.054-.158-.09-.11-.063a4.042 4.042 0 0 0-.085-.049c-.071-.04-.144-.079-.218-.118l-.082-.045-.068-.037a17.816 17.816 0 0 0-.382-.197c-2.564-1.286-5.049-3.806-6.996-7.095-2.001-3.38-3.214-7.24-3.414-10.867-.159-2.873.302-5.523 1.369-7.876 1.19-2.627 3.114-4.815 5.717-6.502 5.069-3.288 10.731-4.063 17.31-2.37 5.64 1.45 11.04 4.47 15.804 7.133 2.758 1.541 5.364 2.998 7.612 3.91 4.559 1.85 9.195 2.097 13.406.716 3.837-1.258 7.162-3.766 9.619-7.252 1.693-2.402 4.635-4.32 8.742-5.7a32.098 32.098 0 0 1 9.81-1.676h.07c.025 0 .05-.003.076-.003 3.544-.03 7.06.528 10.448 1.658 4.198 1.403 7.197 3.348 8.914 5.784 2.456 3.486 5.782 5.994 9.619 7.252 4.211 1.381 8.847 1.134 13.406-.715 2.247-.912 4.852-2.368 7.61-3.91 4.765-2.663 10.166-5.682 15.805-7.134 6.58-1.693 12.242-.918 17.311 2.37 2.603 1.687 4.526 3.874 5.717 6.501 1.067 2.353 1.527 5.002 1.369 7.876-.2 3.627-1.412 7.486-3.414 10.867-1.947 3.29-4.432 5.81-6.996 7.097-.12.06-.237.121-.353.182-.021.011-.043.022-.063.034l-.087.047-.19.102-.08.045-.099.056-.15.085-.083.05-.103.061a25.22 25.22 0 0 0-.215.13l-.098.061c-.04.025-.081.05-.12.076l-.085.055-.091.06c-.04.024-.079.05-.117.076l-.085.057-.091.062-.106.073-.089.063-.082.06-.1.071-.085.063-.079.06-.098.073a4.036 4.036 0 0 0-.09.07l-.063.049-.099.077a21.54 21.54 0 0 1-.082.067l-.066.054-.094.077-.083.07-.059.05-.091.079-.085.074-.052.047-.088.079c-.026.023-.05.047-.077.07l-.06.056-.078.074c-.027.024-.053.05-.078.074l-.046.043-.085.084a3.72 3.72 0 0 0-.068.068l-.047.047-.086.086-.07.072-.05.053c-.024.025-.05.051-.073.077l-.078.083-.019.021-.09.098-.069.078-.037.04-.073.084-.086.099-.014.017c-.025.029-.05.057-.073.086l-.067.08-.03.036-.072.086-.08.1-.007.009-.075.094-.157.202-.076.1-.077.1-.074.101-.288.402-.07.1-.785 1.186-.914 1.392-.126.178-.066.093a14.201 14.201 0 0 1-.191.257l-.069.088-.063.083-.07.087-.065.08-.072.086a7.813 7.813 0 0 1-.285.321l-.07.075a5.076 5.076 0 0 1-.079.08l-.072.074a5.059 5.059 0 0 1-.08.078l-.076.071-.082.076-.01.008c-.023.02-.045.042-.068.061l-.08.068-.014.012-.072.061-.08.063-.016.013-.076.06a4.632 4.632 0 0 1-.086.064l-.012.01-.08.058-.085.059-.026.017-.073.05-.084.053-.034.021-.073.046-.085.05-.033.02-.08.045-.088.048-.038.02a3.407 3.407 0 0 1-.173.087l-.036.018-.084.04a7.674 7.674 0 0 1-.095.042l-.043.019-.081.035a4.876 4.876 0 0 1-.098.04l-.047.018a3.557 3.557 0 0 1-.083.033l-.098.035-.053.019-.085.03-.103.033-.02.006c-.85.6-1.78 1.087-2.767 1.448-7.454 2.724-14.233-1.33-17.61-3.99a9.286 9.286 0 0 0-5.199-1.968c-5.647-.346-7.919-2.383-8.83-4.032l-.017-.03c-2.178-3.924-4.48-5.49-5.92-6.114-.016.337-.014.673.005 1.006.327 5.644-2.48 11.646-4.957 16.943-1.143 2.443-2.222 4.75-2.917 6.838-1.582 4.756-.926 12.139-.398 18.07.2 2.248.388 4.37.42 6.025.059 2.947-1.012 7.373-2.146 12.06-1.22 5.038-2.48 10.249-2.66 14.612-.24 5.896-1.868 14.5-2.817 19.104a5.406 5.406 0 0 1-1.734 2.997 4.796 4.796 0 0 1-3.128 1.182zm-6.735-.892h6.728c1.935 0 3.576-1.425 3.995-3.467.944-4.577 2.563-13.128 2.8-18.96.183-4.451 1.455-9.705 2.684-14.787 1.12-4.628 2.178-9 2.122-11.832-.032-1.624-.22-3.731-.417-5.962-.536-6.014-1.2-13.5.44-18.431.711-2.137 1.8-4.468 2.955-6.936 2.432-5.2 5.189-11.094 4.875-16.512-.034-.574-.02-1.157.041-1.734l.058-.55.526.173c1.474.488 4.338 2.01 6.96 6.734a.358.358 0 0 1 .012.023l.005.009c1.456 2.632 5.211 3.396 8.105 3.573 2.094.129 4.063.875 5.696 2.158 2.482 1.955 6.878 4.699 11.976 4.7 1.54 0 3.142-.25 4.776-.848a10.925 10.925 0 0 0 2.612-1.377l.06-.042.155-.049a2.08 2.08 0 0 0 .085-.027l.069-.024.057-.02.08-.029.067-.026.05-.02.081-.032c.022-.01.043-.02.065-.028l.045-.02.08-.036.066-.032.04-.02.076-.036.064-.034.04-.021.072-.039.065-.037.035-.02a1.657 1.657 0 0 0 .129-.079l.035-.022.069-.044c.02-.012.04-.027.06-.04l.026-.018c.024-.017.048-.032.071-.05.023-.015.045-.032.067-.048l.014-.01.072-.054.065-.05.017-.014.066-.053.062-.052.014-.012.068-.058.06-.053.008-.008.072-.066.066-.063.07-.068.065-.065.069-.07.059-.063.071-.078.062-.069a8.86 8.86 0 0 1 .067-.076l.06-.07.064-.078.06-.074a6.45 6.45 0 0 0 .064-.08l.057-.072a9.099 9.099 0 0 0 .124-.162l.062-.084.058-.08.063-.086.532-.786 1.286-1.96c.023-.035.048-.07.072-.104l.222-.313.078-.106.077-.105.08-.106.08-.105.166-.212.079-.1.007-.009.084-.104.076-.092.031-.038.07-.084.08-.092.013-.016a7.243 7.243 0 0 1 .17-.195l.036-.04.076-.085.095-.104.018-.02.084-.09.08-.083.049-.052.076-.08.093-.092.046-.046.074-.075.094-.09.043-.042.084-.081.087-.081.059-.055.084-.077a6.59 6.59 0 0 1 .096-.085l.05-.045.092-.082.1-.085.057-.049.091-.077.103-.084.063-.051.09-.074.108-.085.06-.046.099-.077.108-.081.076-.057.093-.07.11-.079.08-.056c.031-.024.064-.046.097-.07l.115-.079.088-.06.094-.064.127-.083.088-.057.094-.061.13-.082.095-.059.095-.059.14-.083.098-.059.095-.055.16-.091.093-.053.09-.05.2-.11.083-.043.073-.04c.121-.064.244-.127.37-.19 2.377-1.193 4.793-3.655 6.628-6.754 1.93-3.26 3.099-6.976 3.29-10.462.151-2.728-.283-5.238-1.29-7.459-1.12-2.468-2.933-4.528-5.39-6.121-10.934-7.091-22.723-.5-32.196 4.795-2.783 1.555-5.41 3.024-7.71 3.957-4.757 1.93-9.605 2.184-14.02.736-4.02-1.318-7.501-3.941-10.069-7.586-1.605-2.276-4.454-4.11-8.468-5.45A31.212 31.212 0 0 0 109.671.993l-.065.002-.078.001c-3.235.043-6.444.59-9.532 1.629-3.924 1.319-6.715 3.125-8.298 5.369-2.567 3.644-6.049 6.267-10.069 7.585-4.415 1.448-9.262 1.193-14.02-.737-2.299-.933-4.927-2.402-7.71-3.958C50.425 5.591 38.636-.998 27.703 6.092c-2.458 1.593-4.27 3.653-5.39 6.122-1.007 2.22-1.441 4.73-1.29 7.46.192 3.486 1.36 7.2 3.29 10.46 1.835 3.099 4.251 5.56 6.629 6.753a22.944 22.944 0 0 1 .478.249l.077.041.23.125.096.055.104.06.17.097.101.061.1.06.155.094.102.064.098.062.143.091.103.07.095.063.131.087.103.072.091.064a5.026 5.026 0 0 1 .224.16l.087.064.116.086.1.077.077.06.115.089c.033.025.064.051.096.077l.076.06.109.09.094.079.07.06a3.985 3.985 0 0 1 .196.17l.068.06.1.09.09.082.06.056.099.092.087.084.056.055.095.093.084.084.056.057a6.534 6.534 0 0 1 .175.18l.044.048.09.096.078.085.05.055.084.092.077.088.048.055.078.089.081.097.032.037a6.587 6.587 0 0 1 .159.193l.036.044.074.092.083.106.024.03.074.095.076.1.011.014.088.116.072.097.02.027.076.105.473.675 1.42 2.172.068.098.062.089.067.095.063.088.067.093.063.086.068.09.064.083.069.087.064.081.07.086.066.078.07.083.068.076.072.08.069.073.074.077.07.071.075.075.073.068.077.071.075.067.08.068c.024.021.05.043.076.063l.082.066c.026.02.053.041.08.06a4.511 4.511 0 0 0 .167.122l.088.06.085.055c.03.02.061.038.092.057l.088.053a7.86 7.86 0 0 0 .188.104l.098.05a3.646 3.646 0 0 0 .2.096l.1.045.108.044.104.042.113.043.053.04c.867.659 1.83 1.185 2.862 1.562 7.048 2.576 13.522-1.308 16.753-3.852a10.177 10.177 0 0 1 5.696-2.158c2.893-.177 6.649-.941 8.105-3.573l.005-.01.014-.027c2.675-4.819 5.594-6.312 7.097-6.772l.518-.16.056.54c.059.57.072 1.145.039 1.711-.314 5.418 2.442 11.311 4.874 16.51 1.155 2.469 2.245 4.8 2.956 6.938 1.64 4.932.975 12.417.44 18.431-.198 2.231-.385 4.34-.417 5.963-.056 2.83 1.001 7.201 2.121 11.83 1.23 5.081 2.502 10.336 2.684 14.788.239 5.831 1.857 14.383 2.8 18.96l.04.18.02.072.028.105.013.043.021.067.02.062.014.042.023.065.021.062.017.043.024.062.025.06.018.043.026.06.026.058.02.042.03.06a2.52 2.52 0 0 0 .048.095l.032.06.03.055.022.038.034.059.03.05.025.04.036.057.032.049.027.04.038.054a2.249 2.249 0 0 0 .062.086l.04.052c.01.015.021.03.033.044l.029.036.04.05.037.045.033.037.042.047.036.041.035.036.042.044.04.042.032.032.048.047.04.037.033.03.048.043a1.21 1.21 0 0 0 .079.068l.047.039.043.035.038.029.048.036.045.035.041.03.047.032c.016.01.03.022.047.032l.042.027.05.032.047.03.038.023.053.03.049.029.044.023.05.026.05.028.043.02.052.025a1.051 1.051 0 0 0 .097.044l.052.022.053.022.045.018.055.021.053.02.046.015.054.018a1.55 1.55 0 0 0 .1.03l.057.017.055.016.043.01.063.015.052.013.047.009.056.011a1.204 1.204 0 0 0 .107.018l.058.009.057.008.05.006.062.006.044.005.032.003.136.007c.05.003.1.004.152.004h7.453v.062zM69.654 40.353c-2.066 0-4.583-2.568-7.499-7.654-1.676-2.923-4.136-5.057-7.11-6.173a12.709 12.709 0 0 0-8.803-.052l-.235.089-.065.065h-.097c-.083.033-.163.066-.242.1l-.011.004-.125.055c-.09.04-.176.078-.262.119l-.083.038-.003.002-.01.004c-.17.082-.346.17-.52.264l-.026.014-.058.03-.032.021-.019.007a13.148 13.148 0 0 0-.63.369l-.215.138a11.935 11.935 0 0 0-.379.255l-.016.011-.082.059a13.599 13.599 0 0 0-.368.272l-.031.024-.056.042-.036.025-.089.057-.103.066-.498.335c-.04.03-.08.058-.122.087l-.132.095c-.084.06-.169.124-.255.188-2.357 1.77-4.968 2.293-7.352 1.469-2.835-.979-5.123-3.79-6.121-7.52-.982-3.667-.57-8.806 2.566-12.018 3.16-3.239 7.62-3 10.802-2.23 11.399 2.756 32.979 12.996 33.195 13.1.186.089 4.517 2.216 7.097 6.251l.26.405-.633.342-.225.128c-4.11 2.36-5.125 4.588-6.02 6.554-.848 1.866-1.581 3.477-4.625 4.45a2.383 2.383 0 0 1-.732.113zm-19.09-15.53c1.622 0 3.246.289 4.793.869 3.172 1.188 5.79 3.458 7.572 6.563 2.946 5.14 5.498 7.674 7.186 7.135 2.667-.852 3.262-2.16 4.086-3.97.902-1.985 2.027-4.455 6.385-6.957.01-.005.02-.01.03-.017-2.472-3.566-6.428-5.513-6.47-5.533-.213-.101-21.71-10.302-33.018-13.037-4.242-1.026-7.685-.34-9.955 1.986-1.284 1.316-2.17 3.133-2.563 5.254-.36 1.94-.281 4.04.22 5.912.922 3.443 2.997 6.025 5.55 6.907 2.127.734 4.383.271 6.526-1.339.09-.068.18-.133.268-.198l.137-.098.129-.091.524-.353.109-.07.073-.047.047-.036.03-.022.088-.067a14.788 14.788 0 0 1 .392-.286l.016-.01.267-.183.137-.09c.076-.05.153-.099.23-.146l.032-.02.054-.035c.197-.12.4-.238.606-.35l.008-.006.009-.004.036-.02.05-.026.023-.012c.183-.098.368-.19.548-.278l.035-.015.074-.036c.092-.042.184-.084.276-.124l.069-.031.07-.07h.095l.168-.07h.002l.076-.03a.078.078 0 0 1 .01-.005l.08-.03a13.514 13.514 0 0 1 4.89-.914zm99.655 15.53a2.38 2.38 0 0 1-.732-.114c-3.044-.972-3.778-2.583-4.626-4.449-.895-1.966-1.91-4.195-6.019-6.554a13.897 13.897 0 0 0-.227-.128l-.505-.275.258-.404c2.58-4.038 6.913-6.167 7.097-6.256.22-.104 21.8-10.343 33.198-13.1 3.182-.77 7.64-1.009 10.802 2.23 3.136 3.212 3.548 8.35 2.566 12.019-.998 3.73-3.287 6.54-6.12 7.519a6.91 6.91 0 0 1-2.266.38c-1.711 0-3.46-.627-5.087-1.849a16.292 16.292 0 0 0-.229-.17l-.084-.06-.141-.101-.113-.079-.11-.076-.12-.08a5.177 5.177 0 0 0-.101-.068l-.12-.079a25.396 25.396 0 0 0-.098-.063l-.122-.076-.093-.058-.132-.083-.07-.053a15.303 15.303 0 0 0-.362-.264l-.022-.014a14.382 14.382 0 0 0-.249-.17c-.042-.029-.086-.057-.129-.085a9.499 9.499 0 0 0-.215-.137l-.045-.03-.036-.022a12.975 12.975 0 0 0-.58-.335l-.004-.002-.08-.043-.022-.012a13.297 13.297 0 0 0-.506-.256l-.027-.013-.09-.041a15.638 15.638 0 0 0-.249-.113c-.047-.022-.093-.041-.139-.061-.08-.034-.161-.068-.242-.1h-.018l-.077-.039a12.706 12.706 0 0 0-9.105-.063c-2.975 1.116-5.434 3.25-7.11 6.173-2.916 5.086-5.433 7.654-7.5 7.654zm-10.84-11.836c4.282 2.483 5.397 4.933 6.293 6.904.824 1.81 1.419 3.117 4.086 3.969.149.048.305.071.467.071 1.674 0 4.033-2.52 6.718-7.205 1.782-3.106 4.4-5.376 7.572-6.564a13.6 13.6 0 0 1 9.684.044l.08.031.01.004.008.003.04.017.014.006a11.9 11.9 0 0 1 .684.296l.102.048c.184.087.372.183.561.283l.02.01.09.049h.003c.21.116.42.237.622.36l.054.035.032.02a11.76 11.76 0 0 1 .368.237c.09.06.178.12.266.182l.02.015a10.658 10.658 0 0 1 .389.282l.054.041.077.046.102.064.126.079.105.068.125.082.11.073.052.035c.023.016.047.031.07.048.04.026.079.054.118.081l.117.081.15.107.086.063.24.177c2.142 1.61 4.4 2.073 6.525 1.339 2.554-.882 4.629-3.464 5.551-6.907.501-1.872.58-3.972.22-5.913-.393-2.121-1.28-3.937-2.564-5.253-2.269-2.325-5.711-3.012-9.954-1.986-11.309 2.736-32.806 12.935-33.021 13.038-.039.019-4 1.969-6.471 5.54z" fill="#312F4B"/>
        <path d="M139.527 28.485c4.23 2.48 5.343 4.925 6.24 6.893.811 1.786 1.397 3.076 4.022 3.914.137.044.284.067.436.067 1.631 0 3.985-2.54 6.63-7.154 1.793-3.127 4.43-5.413 7.624-6.61a13.705 13.705 0 0 1 9.74.039l.018.006.122.049-.008.108.039-.096c.088.036.179.073.27.112l.15.066c.09.04.18.08.268.121l.102.048c.186.088.376.185.567.286l.11.059c.21.113.421.235.63.364l.089.056.23.146.124.081.282.193.106.075c.102.073.204.148.306.224l.583.376c.037.023.073.049.11.074l.597.416.242.18c2.114 1.588 4.338 2.045 6.43 1.323 2.52-.87 4.572-3.426 5.485-6.837.497-1.857.574-3.94.217-5.867-.388-2.1-1.265-3.899-2.535-5.2-2.243-2.298-5.65-2.975-9.857-1.959-11.2 2.71-32.116 12.611-33.001 13.032-.04.018-3.899 1.91-6.368 5.415zm10.698 11.079c-.173 0-.341-.026-.499-.077-2.71-.866-3.313-2.19-4.147-4.024-.89-1.956-1.998-4.39-6.25-6.857l-.097-.055.063-.092c2.502-3.616 6.472-5.556 6.511-5.574.886-.421 21.821-10.331 33.042-13.046 4.28-1.035 7.756-.338 10.052 2.014 1.299 1.331 2.194 3.166 2.59 5.307.363 1.956.284 4.07-.22 5.957-.932 3.477-3.032 6.085-5.618 6.978-2.16.746-4.449.278-6.62-1.354l-.239-.176-.59-.414a8.394 8.394 0 0 0-.107-.07l-.596-.385c-.1-.075-.2-.15-.3-.22l-.105-.074a19.262 19.262 0 0 0-.265-.182l-.136-.088c-.076-.05-.152-.099-.23-.146l-.083-.054a14.189 14.189 0 0 0-.619-.358l-.094-.05a13.667 13.667 0 0 0-.575-.29l-.101-.048a15.222 15.222 0 0 0-.68-.294l-.033-.014.01-.106-.044.092-.083-.032a13.496 13.496 0 0 0-9.61-.045c-3.15 1.18-5.75 3.435-7.52 6.52-2.72 4.747-5.075 7.257-6.807 7.257zM50.563 24.72c1.654 0 3.28.294 4.83.875 3.195 1.197 5.831 3.483 7.625 6.61 2.92 5.093 5.43 7.61 7.066 7.087 2.623-.838 3.21-2.128 4.023-3.913.904-1.989 2.028-4.46 6.36-6.966-2.475-3.51-6.326-5.388-6.365-5.408-.215-.102-21.647-10.284-32.999-13.03-4.206-1.016-7.613-.339-9.856 1.96-1.27 1.3-2.147 3.099-2.536 5.2A13.59 13.59 0 0 0 28.929 23c.913 3.41 2.963 5.966 5.485 6.837 2.092.723 4.316.265 6.43-1.324.091-.068.18-.134.27-.199l.267-.19.868-.593c.101-.076.203-.151.305-.224l.09-.064c.106-.073.195-.134.285-.194l.138-.09.232-.148.087-.056c.198-.12.403-.24.61-.353l.127-.068c.184-.098.37-.192.552-.279l.11-.051c.092-.044.185-.085.278-.127l.05-.022.088-.087h.116l.32-.129a13.567 13.567 0 0 1 4.927-.92zm19.084 14.844c-2.288 0-5.204-4.462-6.807-7.257-1.77-3.085-4.37-5.34-7.519-6.52a13.524 13.524 0 0 0-4.758-.862 13.363 13.363 0 0 0-4.852.907l-.373.142h-.052l-.071.062-.069.03c-.092.04-.183.082-.274.124l-.11.051c-.178.086-.362.179-.542.275l-.11.058c-.22.121-.422.238-.617.357l-.083.054c-.08.048-.156.097-.232.146l-.135.09c-.088.059-.177.119-.265.18l-.106.075c-.1.07-.2.145-.3.22l-.353.246-.785.54c-.088.064-.176.128-.266.196-2.172 1.632-4.462 2.1-6.62 1.354-2.587-.893-4.687-3.502-5.617-6.977a13.795 13.795 0 0 1-.222-5.958c.397-2.14 1.293-3.976 2.59-5.306 2.297-2.353 5.774-3.05 10.052-2.015 11.372 2.75 32.824 12.942 33.04 13.044.04.02 4.038 2.002 6.508 5.568l.064.092-.097.055-.077-.07h-.001l.05.087c-4.332 2.487-5.447 4.94-6.344 6.911-.835 1.834-1.438 3.159-4.148 4.024a1.618 1.618 0 0 1-.499.077zM50.563 25.611c1.529 0 3.06.273 4.517.82 2.998 1.123 5.476 3.273 7.164 6.217 2.892 5.045 5.385 7.603 7.41 7.603.24 0 .476-.037.7-.11 3.002-.957 3.726-2.55 4.565-4.393.9-1.98 1.921-4.225 6.06-6.601l.763-.418-.199-.312c-2.57-4.02-6.873-6.127-7.055-6.215-.215-.103-21.83-10.35-33.175-13.093-3.157-.764-7.577-1.002-10.704 2.203-3.107 3.184-3.515 8.28-2.541 11.92.99 3.697 3.253 6.482 6.055 7.449 2.35.812 4.929.295 7.257-1.454l.257-.19.255-.181.81-.548a14.356 14.356 0 0 1 .37-.274l.082-.058c.101-.07.185-.128.27-.184l.129-.086.218-.138.028-.018.056-.035c.177-.108.362-.217.55-.32l.135-.071c.176-.095.353-.184.526-.267l.096-.044c.086-.04.173-.08.264-.12l.125-.055.22-.091.074-.021h.055l.07-.059.237-.09a12.73 12.73 0 0 1 4.356-.766zm19.09 14.844c-2.103 0-4.656-2.592-7.587-7.705-1.664-2.902-4.105-5.02-7.058-6.127a12.602 12.602 0 0 0-8.944.028l-.079.08-.137.006c-.07.028-.137.056-.204.085l-.134.058c-.09.04-.176.078-.26.119l-.085.038c-.18.087-.355.175-.528.267l-.13.072c-.188.101-.371.207-.548.316l-.08.05-.215.137-.127.084-.248.17-.097.068c-.095.068-.19.137-.283.207-.028.02-.055.04-.08.062l-.324.22-.748.514-.239.175c-2.399 1.804-5.044 2.331-7.462 1.496-2.866-.99-5.18-3.827-6.186-7.59-.99-3.695-.572-8.875 2.592-12.117 3.194-3.273 7.69-3.034 10.9-2.258 11.365 2.748 33 13.004 33.215 13.107.184.088 4.537 2.22 7.139 6.29l.318.497-.952.52c-4.082 2.344-5.088 4.557-5.977 6.509-.858 1.887-1.6 3.518-4.688 4.504-.245.079-.501.118-.763.118zm68.603-11.66.409.223c.075.041.15.084.228.129 4.139 2.376 5.16 4.62 6.06 6.6.84 1.844 1.565 3.437 4.565 4.395.225.072.46.109.7.109 2.026 0 4.52-2.558 7.41-7.603 1.689-2.944 4.166-5.093 7.164-6.217a12.804 12.804 0 0 1 9.178.063l.096.039c.082.032.162.066.244.1l.141.062.251.114.117.054c.167.08.337.167.51.259l.104.056c.21.113.407.228.588.339l.08.051c.074.046.146.091.219.139l.128.084c.085.057.17.115.252.173l.1.07c.096.069.192.139.287.21l.629.408c.035.022.07.046.104.07l.57.398.23.17c1.593 1.197 3.33 1.83 5.025 1.83.76 0 1.51-.127 2.232-.376 2.802-.968 5.066-3.752 6.056-7.45.973-3.639.565-8.736-2.542-11.92-3.127-3.203-7.546-2.965-10.704-2.202-11.323 2.739-32.96 12.99-33.178 13.094-.181.087-4.483 2.193-7.054 6.219l-.2.31zm11.963 11.66c-.262 0-.519-.04-.764-.118-3.087-.986-3.828-2.617-4.688-4.504-.888-1.952-1.894-4.165-5.976-6.508a13.646 13.646 0 0 0-.225-.127l-.601-.327.317-.497c2.601-4.074 6.955-6.205 7.138-6.293.218-.104 21.876-10.365 33.219-13.108 3.209-.776 7.705-1.015 10.899 2.258 3.164 3.241 3.582 8.421 2.592 12.117-1.006 3.763-3.32 6.6-6.186 7.59a7.013 7.013 0 0 1-2.299.386c-1.74 0-3.52-.647-5.149-1.87a15.054 15.054 0 0 0-.227-.168l-.564-.394a2.747 2.747 0 0 0-.101-.068l-.64-.416c-.094-.07-.188-.14-.283-.207l-.098-.069a16.866 16.866 0 0 0-.248-.17l-.128-.084c-.07-.046-.142-.09-.213-.135l-.081-.052c-.177-.11-.37-.22-.575-.332l-.105-.057c-.17-.09-.338-.175-.502-.253l-.116-.054a23.165 23.165 0 0 0-.248-.113l-.138-.06a10.86 10.86 0 0 0-.221-.092l-.044-.01-.077-.039c-.091-.035-.19-.074-.292-.11a12.6 12.6 0 0 0-8.73.052c-2.953 1.106-5.394 3.225-7.059 6.127-2.93 5.113-5.483 7.705-7.587 7.705zm-50.33 89.866.707.7.777.469.044.02.901.266.276.034.024.107.005-.103.136.007c.05.002.097.003.146.003h7.556v.063h6.625c1.885 0 3.486-1.392 3.896-3.385.943-4.573 2.56-13.116 2.799-18.945.182-4.457 1.453-9.712 2.682-14.794 1.122-4.634 2.179-8.999 2.122-11.818-.031-1.615-.217-3.713-.415-5.933-.538-6.045-1.204-13.54.444-18.495.715-2.148 1.805-4.479 2.96-6.946 2.426-5.189 5.177-11.07 4.864-16.463-.033-.58-.02-1.168.042-1.75l.072-.677.646.213c1.488.492 4.379 2.027 7.017 6.78l.015.027c1.436 2.597 5.156 3.351 8.025 3.526 2.114.13 4.103.885 5.752 2.18 2.71 2.134 6.976 4.678 11.913 4.678a13.77 13.77 0 0 0 4.741-.841 10.807 10.807 0 0 0 2.587-1.364l.089-.057.155-.049a1.68 1.68 0 0 0 .082-.026l.865-.372.17-.095a1.15 1.15 0 0 0 .067-.038l.61-.433.06-.051.541-.517.806-1 .53-.784 1.285-1.96c.024-.036.05-.07.075-.106l1.134-1.473.107-.123.305-.34.085-.09.42-.431.095-.092.043-.04c.027-.028.056-.056.085-.083l1.247-1.06.109-.081.36-.264.099-.07 1.264-.806.703-.388c.123-.065.246-.128.372-.192 2.36-1.184 4.761-3.631 6.587-6.715 1.921-3.246 3.085-6.945 3.276-10.415.15-2.71-.281-5.204-1.281-7.41-1.112-2.452-2.913-4.497-5.353-6.078-10.882-7.057-22.64-.484-32.089 4.798-2.796 1.562-5.421 3.03-7.722 3.963-4.78 1.94-9.652 2.195-14.09.739-4.041-1.326-7.541-3.963-10.122-7.625-1.592-2.258-4.424-4.08-8.416-5.413a31.165 31.165 0 0 0-10.129-1.606l-.144.003c-3.227.042-6.423.589-9.5 1.623-3.902 1.312-6.677 3.106-8.246 5.331-2.58 3.662-6.08 6.298-10.12 7.624-4.438 1.454-9.31 1.2-14.091-.74-2.304-.935-4.935-2.405-7.72-3.962C50.399 5.694 38.64-.88 27.76 6.178c-2.441 1.582-4.242 3.627-5.354 6.079-1 2.206-1.431 4.699-1.281 7.41.19 3.47 1.355 7.169 3.277 10.415 1.824 3.081 4.224 5.529 6.586 6.713.137.069.27.138.402.208l.156.084.23.126.238.135.135.078.202.12.157.096.544.352.132.088.194.136c.042.028.083.058.124.087l.6.452.097.078.185.151.096.08.07.06c.035.03.072.06.106.091l.655.603.096.094.23.233.087.09.044.048.091.096.53.602c.028.032.056.066.083.1l.188.231c.029.035.057.072.084.107l.444.587.473.676 2.205 3.218.865.86.082.064c.025.02.05.04.077.059l.083.062.08.056.089.06c.026.018.054.037.082.054l.27.16.09.05.078.04a3.223 3.223 0 0 0 .214.102l.1.046.105.043.24.098.054.04c.86.653 1.813 1.174 2.835 1.548 7 2.559 13.44-1.305 16.654-3.836a10.284 10.284 0 0 1 5.753-2.18c2.869-.176 6.589-.93 8.022-3.52l.013-.024c2.699-4.864 5.646-6.37 7.163-6.835l.638-.195.068.663c.06.573.072 1.154.04 1.728-.313 5.393 2.438 11.273 4.864 16.46 1.158 2.476 2.249 4.808 2.96 6.95 1.648 4.952.981 12.449.446 18.472l-.004.037c-.196 2.215-.382 4.308-.414 5.919-.056 2.816 1 7.179 2.118 11.798 1.232 5.091 2.504 10.35 2.687 14.813.239 5.823 1.856 14.37 2.798 18.945l.04.175.02.07.026.103.174.494-.076.084.094-.041.478.843.027.038.072.096-.063.085.08-.065zm17.197 1.77h-6.83v-.062h-7.35c-.053 0-.104-.001-.156-.003h-.009v.024l-.049-.012.006-.015-.28-.025-.062-.009-.808-.205-.21-.086a.727.727 0 0 1-.05-.022l-.583-.324a.548.548 0 0 1-.038-.026l-.1-.07a.997.997 0 0 1-.05-.038l-.216-.173a2.138 2.138 0 0 1-.043-.038l-.46-.473-.16-.204a.733.733 0 0 1-.033-.044l-.194-.29-.027-.046-.062-.106a1.296 1.296 0 0 1-.03-.057l-.287-.64-.099-.304-.029-.107-.018-.07a4.617 4.617 0 0 1-.042-.185c-.944-4.582-2.564-13.14-2.803-18.978-.182-4.443-1.452-9.693-2.68-14.769-1.123-4.637-2.18-9.013-2.125-11.855.032-1.618.218-3.714.415-5.933l.003-.037c.534-6.005 1.199-13.478-.436-18.39-.707-2.13-1.795-4.456-2.947-6.919-2.44-5.217-5.203-11.123-4.887-16.567.032-.563.02-1.132-.039-1.695l-.043-.415-.399.123c-1.488.456-4.38 1.936-7.037 6.724l-.104-.023.088.055c-1.482 2.677-5.272 3.451-8.192 3.63a10.075 10.075 0 0 0-5.638 2.137c-3.25 2.558-9.758 6.46-16.852 3.868a11.042 11.042 0 0 1-2.89-1.578l-.04-.03-.206-.081-.11-.045-.088-.04a4.93 4.93 0 0 1-.218-.103l-.099-.05a5.792 5.792 0 0 1-.086-.048l-.289-.171c-.03-.018-.058-.038-.087-.057l-.09-.062a2.832 2.832 0 0 1-.25-.185l-.765-.71-.879-1.116-.13-.188-1.422-2.174-.908-1.251a4.094 4.094 0 0 0-.083-.105l-.186-.23a6.97 6.97 0 0 0-.08-.097l-.526-.596a6.691 6.691 0 0 0-.089-.094l-.045-.048-.084-.088-.228-.23-.093-.093-.648-.596a3.52 3.52 0 0 0-.102-.087l-.073-.062-.092-.078-.185-.15a3.778 3.778 0 0 0-.093-.075l-.594-.447a2.82 2.82 0 0 0-.121-.086l-.194-.134a6.26 6.26 0 0 0-.13-.088l-.538-.347a8.896 8.896 0 0 0-.147-.09l-.207-.124-.132-.077-.237-.134c-.067-.038-.137-.076-.207-.113l-.175-.094c-.13-.07-.263-.138-.398-.206-2.396-1.203-4.828-3.678-6.67-6.792-1.94-3.274-3.113-7.006-3.306-10.508-.152-2.745.285-5.27 1.3-7.507 1.127-2.488 2.954-4.563 5.427-6.166 10.986-7.123 22.804-.518 32.3 4.79 2.783 1.555 5.408 3.022 7.7 3.952 4.735 1.92 9.558 2.175 13.95.735 3.999-1.312 7.463-3.922 10.017-7.547 1.594-2.262 4.403-4.081 8.349-5.407a31.258 31.258 0 0 1 9.563-1.634l.144-.002a31.103 31.103 0 0 1 10.194 1.616c4.035 1.347 6.902 3.194 8.52 5.489 2.555 3.626 6.019 6.236 10.018 7.548 4.39 1.44 9.214 1.186 13.948-.734 2.29-.93 4.91-2.393 7.684-3.943 9.512-5.318 21.33-11.926 32.317-4.8 2.473 1.603 4.3 3.677 5.428 6.165 1.013 2.237 1.45 4.762 1.299 7.507-.193 3.502-1.367 7.234-3.305 10.508-1.845 3.116-4.276 5.592-6.67 6.794a23.75 23.75 0 0 0-.368.188l-1.833 1.104-.115.079a6.83 6.83 0 0 0-.096.068l-.356.26a4.26 4.26 0 0 0-.107.081l-1.23 1.044-.084.082-.045.043-.091.089-.416.425-.082.089-.832.973-.477.631-.222.312a3.991 3.991 0 0 0-.072.102l-1.283 1.959-1.152 1.582-.748.748c-.036.03-.057.049-.079.066l-.068.055-.083.065-.422.291-.06.038-.074.043-.859.408-.21.074c-.027.01-.058.02-.088.029l-.139.043-.045.033a11.025 11.025 0 0 1-2.637 1.39c-1.549.566-3.168.853-4.81.853-4.997 0-9.306-2.568-12.04-4.721a10.073 10.073 0 0 0-5.64-2.136c-2.919-.18-6.71-.954-8.188-3.627l.073-.08-.087.055c-2.607-4.7-5.446-6.21-6.905-6.692l-.405-.134-.045.424c-.06.571-.074 1.15-.04 1.717.315 5.445-2.448 11.351-4.885 16.562-1.152 2.462-2.24 4.787-2.95 6.924-1.635 4.914-.97 12.386-.436 18.39.2 2.246.386 4.347.418 5.97.056 2.845-1.003 7.222-2.125 11.857-1.23 5.085-2.5 10.33-2.68 14.767-.239 5.843-1.86 14.398-2.803 18.977-.43 2.09-2.114 3.549-4.097 3.549zm-7.516.688h7.524c1.11 0 2.197-.411 3.061-1.157a5.301 5.301 0 0 0 1.7-2.94c.949-4.6 2.576-13.197 2.817-19.089.178-4.372 1.44-9.588 2.661-14.632 1.133-4.684 2.202-9.1 2.144-12.033-.033-1.66-.221-3.776-.42-6.017-.53-5.941-1.187-13.335.402-18.113.699-2.097 1.779-4.405 2.922-6.85 2.472-5.285 5.273-11.274 4.948-16.892a9.771 9.771 0 0 1-.006-1.016l.006-.149.137.06c1.533.662 3.812 2.269 5.97 6.157l.016.03c.9 1.626 3.147 3.637 8.747 3.98a9.39 9.39 0 0 1 5.257 1.99c3.36 2.646 10.102 6.681 17.511 3.974.978-.358 1.9-.84 2.742-1.435l.027-.014.356-.122c.027-.01.054-.02.08-.032l.478-.21a2.19 2.19 0 0 0 .091-.044l.314-.172c.029-.015.056-.031.083-.048l.981-.738.778-.826.52-.681.126-.178 1.769-2.677.751-1.006.1.04-.081-.063.312-.376.101-.117 1.418-1.417 1.18-.926.09-.064 1.201-.766.33-.187.191-.103.087-.047.064-.034c.117-.061.235-.122.355-.182 2.547-1.28 5.017-3.785 6.954-7.058 1.993-3.367 3.2-7.21 3.4-10.821.157-2.857-.3-5.49-1.36-7.827-1.182-2.609-3.093-4.782-5.68-6.459-5.044-3.27-10.68-4.042-17.23-2.355-5.624 1.447-11.017 4.462-15.776 7.121-2.761 1.544-5.365 3-7.625 3.918-4.582 1.858-9.243 2.106-13.477.718-3.858-1.265-7.202-3.787-9.671-7.291-1.703-2.417-4.685-4.35-8.863-5.745A31.826 31.826 0 0 0 109.67.206l-.147.001a32.009 32.009 0 0 0-9.778 1.67c-4.086 1.374-7.01 3.28-8.69 5.663-2.47 3.505-5.814 6.026-9.67 7.29-4.236 1.39-8.896 1.14-13.478-.718-2.252-.914-4.858-2.37-7.616-3.912-4.771-2.667-10.163-5.68-15.786-7.127-6.55-1.684-12.186-.914-17.23 2.356-2.586 1.678-4.497 3.85-5.679 6.46-1.06 2.336-1.517 4.97-1.36 7.827.2 3.612 1.407 7.454 3.4 10.82 1.938 3.273 4.408 5.78 6.954 7.057.131.065.259.13.384.198l.152.082c.073.04.147.078.218.119.029.016.059.032.088.05l.108.062.159.09.08.049 1.666 1.131 1.108.951.082.08 1.151 1.245.18.22.079.1.423.562.383.544 1.768 2.67c.023.033.046.066.07.097l.65.81.08.088c.025.028.05.055.076.081.027.03.054.058.081.085l.23.227.102.094.247.212c.047.039.078.063.11.088l.091.07c.031.024.064.048.096.07l.093.068.203.134c.033.022.069.043.104.064.034.021.068.042.102.061l.933.449c.916.689 1.932 1.24 3.02 1.638 1.63.595 3.328.897 5.05.897 5.187 0 9.639-2.649 12.461-4.87a9.386 9.386 0 0 1 5.256-1.991c5.6-.344 7.846-2.351 8.745-3.975l.016-.03c2.212-3.985 4.54-5.58 6.102-6.218l.135-.054.006.145c.016.33.014.668-.005 1.007-.326 5.618 2.475 11.607 4.947 16.89 1.15 2.462 2.227 4.766 2.921 6.853 1.59 4.777.932 12.171.403 18.112-.2 2.255-.388 4.37-.42 6.017-.058 2.932 1.01 7.348 2.141 12.023 1.225 5.063 2.486 10.273 2.664 14.643.241 5.89 1.868 14.487 2.817 19.088.014.07.03.14.046.21l.022.078.136.444.029.08.044.115.032.079.44.835.156.23c.013.02.027.037.04.055l.157.2.05.061.214.235.055.057.046.045.097.095.046.04.043.039.057.05.735.521.172.095c.022.013.045.024.067.035l.06.03.224.101.073.031.185.07.064.022.047.015c.025.009.05.018.074.025l.064.018.434.105.08.015.346.046a.65.65 0 0 0 .358.024l.067-.004h6.665v.063zm7.524.204h-7.73v-.062h-6.487a.799.799 0 0 1-.44-.026l-.133-.012-.083-.013-.122-.018-.085-.016-.319-.071a3.768 3.768 0 0 1-.081-.023l-.047-.014a.827.827 0 0 1-.07-.02l-.082-.027-.042-.014a.934.934 0 0 1-.072-.024l-.065-.024-.126-.048a1.73 1.73 0 0 1-.078-.033l-.23-.106a1.566 1.566 0 0 1-.138-.069l-.455-.27-.068-.047-.42-.324c-.021-.018-.042-.035-.061-.054l-.04-.036a1.54 1.54 0 0 1-.052-.046l-.098-.094a4.036 4.036 0 0 1-.05-.05l-.058-.06-.22-.242a1.715 1.715 0 0 1-.055-.067l-.159-.203a1.72 1.72 0 0 1-.045-.06l-.437-.714-.065-.132c-.016-.034-.024-.049-.03-.065l-.084-.19-.036-.088-.045-.116-.029-.08-.164-.548a5.799 5.799 0 0 1-.05-.217c-.95-4.607-2.578-13.217-2.82-19.12-.177-4.35-1.436-9.55-2.653-14.58-1.14-4.712-2.21-9.14-2.152-12.099.032-1.654.22-3.772.42-6.015.528-5.938 1.183-13.308-.393-18.046-.69-2.076-1.764-4.374-2.902-6.806-2.492-5.329-5.305-11.343-4.976-17.012.016-.282.02-.563.011-.84-1.53.661-3.745 2.252-5.862 6.066l-.109-.015.09.05c-.923 1.668-3.218 3.73-8.911 4.08a9.181 9.181 0 0 0-5.142 1.947c-2.848 2.241-7.342 4.913-12.588 4.914-1.746 0-3.469-.306-5.121-.91a11.942 11.942 0 0 1-3.06-1.658l-.35-.146-.122-.057-.023-.011-.43-.229a6.197 6.197 0 0 1-.214-.13l-.206-.137a3.392 3.392 0 0 1-.099-.071l-.1-.072-.094-.073a4.23 4.23 0 0 1-.096-.077l-.271-.233a3.692 3.692 0 0 1-.09-.082l-.252-.248a4.064 4.064 0 0 1-.084-.086l-.077-.084-.083-.09-.662-.826c-.023-.03-.047-.065-.071-.098l-.273-.391-1.498-2.284-.799-1.095a3.991 3.991 0 0 0-.077-.097l-1.313-1.448a4.534 4.534 0 0 0-.078-.075l-.974-.845.029-.109-.064.081-1.473-1.028-.248-.15a8.968 8.968 0 0 0-.246-.144l-.11-.062a4.206 4.206 0 0 0-.083-.048l-.217-.118-.128-.07a16.235 16.235 0 0 0-.402-.207c-2.58-1.295-5.08-3.83-7.038-7.135-2.01-3.394-3.227-7.27-3.428-10.913-.16-2.891.304-5.557 1.377-7.924 1.2-2.646 3.135-4.848 5.755-6.547 5.094-3.303 10.784-4.082 17.392-2.382 5.65 1.453 11.053 4.473 15.82 7.138 2.768 1.547 5.368 3 7.608 3.909 4.536 1.84 9.148 2.087 13.336.713 3.815-1.25 7.123-3.745 9.567-7.213 1.706-2.42 4.665-4.352 8.793-5.74a32.214 32.214 0 0 1 9.842-1.68h.147a32.055 32.055 0 0 1 10.48 1.661c4.22 1.41 7.237 3.368 8.966 5.822 2.443 3.468 5.751 5.962 9.567 7.213 4.187 1.374 8.799 1.128 13.336-.712 2.248-.913 4.847-2.366 7.598-3.905 4.773-2.667 10.179-5.689 15.83-7.143 6.608-1.7 12.297-.922 17.392 2.382 2.62 1.699 4.556 3.901 5.754 6.546 1.074 2.367 1.538 5.033 1.378 7.923-.2 3.643-1.418 7.52-3.427 10.915-1.957 3.306-4.457 5.84-7.039 7.136-.12.06-.236.12-.351.18l-.06.033-.09.048-.19.102-1.512.941-.088.063-1.523 1.237-1.04 1.074a6.22 6.22 0 0 0-.084.098l-.798 1.006-.357.5-2.494 3.616-.845.845-.154.126-.096-.055.064.08c-.038.03-.058.047-.079.062l-.56.383-.087.052-.325.177c-.03.016-.063.032-.096.047l-.489.215a2.182 2.182 0 0 1-.086.033l-.343.118c-.85.598-1.788 1.09-2.783 1.454-7.501 2.741-14.315-1.333-17.709-4.006a9.184 9.184 0 0 0-5.14-1.946c-5.695-.35-7.991-2.415-8.915-4.085l-.017-.03c-2.065-3.723-4.234-5.322-5.734-6.008-.008.284-.005.568.012.844.329 5.67-2.485 11.684-4.966 16.99-1.142 2.44-2.22 4.744-2.914 6.83-1.576 4.736-.92 12.106-.393 18.029.2 2.244.388 4.365.421 6.03.059 2.96-1.013 7.388-2.147 12.078-1.22 5.043-2.48 10.248-2.659 14.601-.24 5.906-1.87 14.515-2.82 19.121a5.51 5.51 0 0 1-1.766 3.054 4.902 4.902 0 0 1-3.196 1.206z" fill="#312F4B"/>
        <g>
            <g transform="translate(91.556 45)">
                <mask id="gd0c37nncb" fill="#fff">
                    <use xlink:href="#vhtkwur8a"/>
                </mask>
                <path d="M8.222 14.23a6.008 6.008 0 1 1 0-12.016 6.008 6.008 0 0 1 0 12.016m0-14.23a8.223 8.223 0 1 0 .001 16.445A8.223 8.223 0 0 0 8.223 0" fill="#F1D8D9" mask="url(#gd0c37nncb)"/>
            </g>
            <path d="M99.778 47.215a6.008 6.008 0 1 0 0 12.015 6.008 6.008 0 0 0 0-12.015" fill="#E3ACB1"/>
            <path d="M103.648 53.222a3.87 3.87 0 1 1-7.74 0 3.87 3.87 0 0 1 7.74 0" fill="#CB6071"/>
            <path d="M99.778 50.062a3.164 3.164 0 0 0-3.16 3.16 3.164 3.164 0 0 0 3.16 3.16 3.164 3.164 0 0 0 3.16-3.16 3.164 3.164 0 0 0-3.16-3.16m0 7.74a4.585 4.585 0 0 1-4.58-4.58 4.585 4.585 0 0 1 4.58-4.58 4.585 4.585 0 0 1 4.58 4.58 4.585 4.585 0 0 1-4.58 4.58" fill="#312F4B"/>
            <g stroke-linejoin="round" transform="translate(4 45)">
                <use fill="#000" filter="url(#3uyhnnmygc)" xlink:href="#ci7hq4btgd"/>
                <use stroke="#312F4B" fill-opacity=".95" fill="#FFF" xlink:href="#ci7hq4btgd"/>
            </g>
            <g filter="url(#ekxhj7l6we)" transform="translate(29.917 90.664)">
                <path d="M20.265 44.054a4.814 4.814 0 1 1-9.629 0 4.814 4.814 0 0 1 9.629 0" fill="#F39C5E"/>
                <path d="M18.56 44.054a3.109 3.109 0 1 1-6.218 0 3.109 3.109 0 0 1 6.218 0" fill="#CB6071"/>
                <path d="M24.477 50.673a4.814 4.814 0 1 1-9.629 0 4.814 4.814 0 0 1 9.629 0" fill="#F39C5E"/>
                <path d="M22.772 50.673a3.109 3.109 0 1 1-6.218 0 3.109 3.109 0 0 1 6.218 0" fill="#CB6071"/>
                <path d="M12.442 21.49a4.814 4.814 0 1 1-9.628 0 4.814 4.814 0 0 1 9.628 0" fill="#F39C5E"/>
                <path d="M10.737 21.49a3.109 3.109 0 1 1-6.217 0 3.109 3.109 0 0 1 6.217 0" fill="#CB6071"/>
                <path d="M31.623 56.86a4.814 4.814 0 1 1-9.628 0 4.814 4.814 0 0 1 9.628 0" fill="#F39C5E"/>
                <path d="M29.919 56.86a3.109 3.109 0 1 1-6.218 0 3.109 3.109 0 0 1 6.218 0" fill="#CB6071"/>
                <path d="M39.82 53.682a4.814 4.814 0 1 1-9.627 0 4.814 4.814 0 0 1 9.628 0" fill="#F39C5E"/>
                <path d="M38.116 53.682a3.109 3.109 0 1 1-6.218 0 3.109 3.109 0 0 1 6.218 0" fill="#CB6071"/>
                <path d="M33.15 48.734a4.813 4.813 0 1 1-9.54-1.295 4.813 4.813 0 1 1 9.54 1.295" fill="#F39C5E"/>
                <path d="M31.461 48.504a3.109 3.109 0 1 1-6.161-.836 3.109 3.109 0 0 1 6.161.836" fill="#CB6071"/>
                <path d="M42.817 46.858a4.814 4.814 0 1 1-9.54-1.296 4.814 4.814 0 0 1 9.54 1.296" fill="#F39C5E"/>
                <path d="M41.128 46.628a3.109 3.109 0 1 1-6.162-.836 3.109 3.109 0 0 1 6.162.836" fill="#CB6071"/>
                <path d="M50.307 40.891a4.814 4.814 0 1 1-9.541-1.296 4.814 4.814 0 0 1 9.54 1.296" fill="#F39C5E"/>
                <path d="M48.617 40.662a3.109 3.109 0 1 1-6.161-.837 3.109 3.109 0 0 1 6.161.837" fill="#CB6071"/>
                <path d="M43.387 38.986a4.814 4.814 0 1 1-9.541-1.296 4.814 4.814 0 0 1 9.541 1.296" fill="#F39C5E"/>
                <path d="M41.698 38.756a3.109 3.109 0 1 1-6.162-.836 3.109 3.109 0 0 1 6.162.836" fill="#CB6071"/>
                <path d="M52.513 32.868a4.814 4.814 0 1 1-9.541-1.296 4.814 4.814 0 0 1 9.541 1.296" fill="#F39C5E"/>
                <path d="M50.824 32.639a3.109 3.109 0 1 1-6.162-.837 3.109 3.109 0 0 1 6.162.837" fill="#CB6071"/>
                <path d="M50.106 19.23a4.814 4.814 0 1 1-9.54-1.295 4.814 4.814 0 0 1 9.54 1.294" fill="#F39C5E"/>
                <path d="M48.417 19a3.109 3.109 0 1 1-6.162-.837 3.109 3.109 0 0 1 6.162.837" fill="#CB6071"/>
                <path d="M26.539 40.49a4.814 4.814 0 1 1-9.541-1.296 4.814 4.814 0 0 1 9.541 1.296" fill="#F39C5E"/>
                <path d="M24.85 40.26a3.109 3.109 0 1 1-6.162-.836 3.109 3.109 0 0 1 6.162.837" fill="#CB6071"/>
                <path d="M18.416 35.676a4.813 4.813 0 1 1-9.54-1.295 4.813 4.813 0 1 1 9.54 1.295" fill="#F39C5E"/>
                <path d="M16.726 35.447a3.109 3.109 0 1 1-6.161-.837 3.109 3.109 0 0 1 6.161.837" fill="#CB6071"/>
                <path d="M42.785 23.04a4.814 4.814 0 1 1-9.54-1.296 4.814 4.814 0 0 1 9.54 1.296" fill="#F39C5E"/>
                <path d="M41.096 22.81a3.109 3.109 0 1 1-6.162-.836 3.109 3.109 0 0 1 6.162.837" fill="#CB6071"/>
                <path d="M35.49 40.358a4.814 4.814 0 1 1-9.54-1.296 4.814 4.814 0 0 1 9.54 1.296" fill="#F39C5E"/>
                <path d="M33.801 40.128a3.109 3.109 0 1 1-6.161-.836 3.109 3.109 0 0 1 6.161.836" fill="#CB6071"/>
                <path d="M47.643 52.78a4.814 4.814 0 1 1-9.628 0 4.814 4.814 0 0 1 9.628 0" fill="#F39C5E"/>
                <path d="M45.938 52.78a3.108 3.108 0 1 1-6.218 0 3.109 3.109 0 0 1 6.218 0" fill="#CB6071"/>
                <path d="M53.058 46.461a4.814 4.814 0 1 1-9.628 0 4.814 4.814 0 0 1 9.628 0" fill="#F39C5E"/>
                <path d="M51.353 46.461a3.109 3.109 0 1 1-6.217 0 3.109 3.109 0 0 1 6.217 0" fill="#CB6071"/>
                <path d="M53.537 35.032a4.814 4.814 0 1 1-.357 9.622 4.814 4.814 0 0 1 .357-9.622" fill="#F39C5E"/>
                <path d="M53.474 36.736a3.109 3.109 0 1 1-.23 6.213 3.109 3.109 0 0 1 .23-6.213" fill="#CB6071"/>
                <path d="M55.365 26.605a4.813 4.813 0 1 1-.357 9.621 4.814 4.814 0 0 1 .357-9.621" fill="#F39C5E"/>
                <path d="M55.302 28.308a3.109 3.109 0 1 1-.23 6.214 3.109 3.109 0 0 1 .23-6.214" fill="#CB6071"/>
                <path d="M38.294 9.76a4.814 4.814 0 1 1-.357 9.622 4.814 4.814 0 0 1 .357-9.622" fill="#F39C5E"/>
                <path d="M38.23 11.463a3.109 3.109 0 1 1-.23 6.214 3.109 3.109 0 0 1 .23-6.214" fill="#CB6071"/>
                <path d="M51.233 20.475a4.814 4.814 0 1 1-.357 9.623 4.814 4.814 0 0 1 .357-9.623" fill="#F39C5E"/>
                <path d="M51.17 22.18a3.109 3.109 0 1 1-.23 6.213 3.109 3.109 0 0 1 .23-6.214" fill="#CB6071"/>
                <path d="M48.139 17.549a4.814 4.814 0 1 1 9.49 1.618 4.814 4.814 0 0 1-9.49-1.618" fill="#F39C5E"/>
                <path d="M49.82 17.836a3.11 3.11 0 1 1 6.13 1.046 3.11 3.11 0 0 1-6.13-1.046" fill="#CB6071"/>
                <path d="M42.032 10.404a4.814 4.814 0 1 1 9.49 1.618 4.814 4.814 0 0 1-9.49-1.618" fill="#F39C5E"/>
                <path d="M43.713 10.69a3.109 3.109 0 1 1 6.13 1.045 3.109 3.109 0 0 1-6.13-1.045" fill="#CB6071"/>
                <path d="M33.89 5.353a4.814 4.814 0 1 1 9.49 1.618 4.814 4.814 0 0 1-9.49-1.618" fill="#F39C5E"/>
                <path d="M35.57 5.64a3.109 3.109 0 1 1 6.13 1.044 3.109 3.109 0 0 1-6.13-1.045" fill="#CB6071"/>
                <path d="M24.201 4.005a4.814 4.814 0 1 1 9.49 1.619 4.814 4.814 0 0 1-9.49-1.619" fill="#F39C5E"/>
                <path d="M25.882 4.292a3.109 3.109 0 1 1 6.129 1.045 3.109 3.109 0 0 1-6.13-1.045" fill="#CB6071"/>
                <path d="M18.251 12.028a4.813 4.813 0 1 1 1.969-9.423 4.813 4.813 0 0 1-1.969 9.423" fill="#F39C5E"/>
                <path d="M18.6 10.36a3.11 3.11 0 1 1 1.272-6.087 3.11 3.11 0 0 1-1.272 6.086" fill="#CB6071"/>
                <path d="M39.137 33.724a4.814 4.814 0 1 1 1.969-9.424 4.814 4.814 0 0 1-1.97 9.424" fill="#F39C5E"/>
                <path d="M39.485 32.055a3.108 3.108 0 1 1 1.271-6.086 3.108 3.108 0 0 1-1.27 6.086" fill="#CB6071"/>
                <path d="M32.957 33.77a4.814 4.814 0 1 1-9.541-1.295 4.814 4.814 0 0 1 9.541 1.296" fill="#F39C5E"/>
                <path d="M31.268 33.541a3.109 3.109 0 1 1-6.162-.836 3.109 3.109 0 0 1 6.162.836" fill="#CB6071"/>
                <path d="M30.55 20.132a4.814 4.814 0 1 1-9.54-1.296 4.814 4.814 0 0 1 9.54 1.296" fill="#F39C5E"/>
                <path d="M28.86 19.902a3.109 3.109 0 1 1-6.16-.836 3.109 3.109 0 0 1 6.16.836" fill="#CB6071"/>
                <path d="M31.353 11.006A4.814 4.814 0 1 1 21.81 9.71a4.814 4.814 0 0 1 9.542 1.296" fill="#F39C5E"/>
                <path d="M29.663 10.776a3.109 3.109 0 1 1-6.161-.836 3.109 3.109 0 0 1 6.161.836" fill="#CB6071"/>
                <path d="M23.23 23.943a4.814 4.814 0 1 1-9.542-1.296 4.814 4.814 0 0 1 9.541 1.296" fill="#F39C5E"/>
                <path d="M21.54 23.713a3.109 3.109 0 1 1-6.161-.836 3.109 3.109 0 0 1 6.161.836" fill="#CB6071"/>
                <path d="M18.738 10.662a4.813 4.813 0 1 1-.356 9.62 4.813 4.813 0 0 1 .356-9.62" fill="#F39C5E"/>
                <path d="M18.675 12.366a3.109 3.109 0 1 1-.23 6.214 3.109 3.109 0 0 1 .23-6.214" fill="#CB6071"/>
                <path d="M31.677 21.378A4.814 4.814 0 1 1 31.32 31a4.814 4.814 0 0 1 .357-9.622" fill="#F39C5E"/>
                <path d="M31.614 23.082a3.109 3.109 0 1 1-.23 6.214 3.109 3.109 0 0 1 .23-6.214" fill="#CB6071"/>
                <path d="M19.58 34.626a4.813 4.813 0 1 1 1.969-9.423 4.813 4.813 0 0 1-1.968 9.423" fill="#F39C5E"/>
                <path d="M19.93 32.957a3.108 3.108 0 1 1 1.27-6.086 3.108 3.108 0 0 1-1.27 6.086" fill="#CB6071"/>
                <path d="M30.111 21.388a4.814 4.814 0 1 1 1.97-9.424 4.814 4.814 0 0 1-1.97 9.424" fill="#F39C5E"/>
                <path d="M30.46 19.72a3.108 3.108 0 1 1 1.27-6.086 3.108 3.108 0 0 1-1.27 6.085" fill="#CB6071"/>
                <path d="M11.157 20.486a4.813 4.813 0 1 1 1.968-9.424 4.813 4.813 0 0 1-1.968 9.424" fill="#F39C5E"/>
                <path d="M11.505 18.817a3.108 3.108 0 1 1 1.271-6.086 3.108 3.108 0 0 1-1.27 6.086" fill="#CB6071"/>
                <path d="M10.555 31.317a4.814 4.814 0 1 1 1.97-9.424 4.814 4.814 0 0 1-1.97 9.424" fill="#F39C5E"/>
                <path d="M10.904 29.648a3.108 3.108 0 1 1 1.272-6.086 3.109 3.109 0 1 1-1.272 6.086" fill="#CB6071"/>
                <path d="M3.83 35.448a4.814 4.814 0 1 1 1.97-9.424 4.814 4.814 0 0 1-1.97 9.424" fill="#F39C5E"/>
                <path d="M4.179 33.779a3.109 3.109 0 1 1 1.27-6.086 3.109 3.109 0 0 1-1.27 6.086" fill="#CB6071"/>
                <path d="M5.367 44.272a4.813 4.813 0 1 1 1.968-9.423 4.813 4.813 0 0 1-1.968 9.423" fill="#F39C5E"/>
                <path d="M5.715 42.603a3.109 3.109 0 1 1 1.271-6.086 3.109 3.109 0 0 1-1.27 6.086" fill="#CB6071"/>
            </g>
        </g>
        <text font-family="NotoSansKR-Black, Noto Sans KR" font-size="16" font-weight="800" letter-spacing="-1" fill="#40395B">
                            <tspan x="33.56" y="171"></tspan>
                        </text>
    </g>
</svg>
