<svg width="200" height="200" viewBox="0 0 200 200" xmlns="http://www.w3.org/2000/svg" xmlns:xlink="http://www.w3.org/1999/xlink">
    <defs>
        <path id="ogqmka2oza" d="M0 0h35.817v55.802H0z"/>
        <path id="xbam6zip4c" d="M0 0h12.301v12.3H0z"/>
    </defs>
    <g fill="none" fill-rule="evenodd">
        <path d="M104.61 8.565c-48.923 0-74.82 43.97-88.583 88.583-13.764 44.612 33.325 77.79 88.583 88.583 55.258 10.793 83.349-37.221 88.583-88.583 5.234-51.362-39.66-88.583-88.583-88.583z" fill="#353252" opacity=".2"/>
        <path d="M97.61 187.263c48.922 0 74.818-43.971 88.582-88.583 13.764-44.613-33.325-77.79-88.583-88.583C42.351-.697 14.26 47.317 9.026 98.68c-5.234 51.362 39.66 88.583 88.583 88.583z" fill="#FFF"/>
        <path d="M177.489 70.568c0-4.303 3.664-7.735 7.968-7.735 4.303 0 8.38 4.558 8.38 8.86 0 4.304-4.061 7.007-8.364 7.007-2.619 0-4.84-1.488-6.252-3.468-.909-1.275-1.732-2.979-1.732-4.664" fill="#CEE9F6"/>
        <path d="M187.327 55.463c.084-3.475 2.372-5.548 5.401-5.548 3.03 0 5.694 3.142 5.694 5.673 0 2.53-2.392 5.004-5.422 5.004-3.029 0-5.734-2.6-5.673-5.13" fill="#3F89B7"/>
        <path d="M185.278 77.893c-4.53 0-8.214-3.44-8.214-7.669 0-4.229 3.685-7.669 8.214-7.669s8.213 3.44 8.213 7.67c0 4.228-3.684 7.668-8.213 7.668m0-14.362c-3.99 0-7.238 3.003-7.238 6.693 0 3.69 3.247 6.693 7.238 6.693 3.99 0 7.237-3.002 7.237-6.693 0-3.69-3.247-6.693-7.237-6.693" fill="#312F4B"/>
        <path d="M186.007 79.235c-2.3 0-4.181-.78-5.75-2.385-1.298-1.326-2.3-3.134-2.341-3.21a.488.488 0 0 1 .855-.471c.01.018.981 1.769 2.183 2.998 1.376 1.407 3.03 2.09 5.053 2.09 3.99 0 7.237-3.001 7.237-6.692 0-1.303-.416-2.744-1.142-3.952-.691-1.148-1.691-2.108-1.702-2.117a.489.489 0 0 1 .674-.708c.045.043 1.103 1.058 1.864 2.323.816 1.355 1.282 2.979 1.282 4.454 0 4.23-3.684 7.67-8.213 7.67" fill="#312F4B"/>
        <path d="M180.4 75.713a.488.488 0 0 1-.374-.802l9.104-10.839a.487.487 0 1 1 .748.628l-9.104 10.838a.485.485 0 0 1-.374.175M181.348 76.463a.487.487 0 0 1-.374-.802l9.105-10.838a.488.488 0 1 1 .747.628l-9.104 10.838a.485.485 0 0 1-.374.174M192.307 60.338a5.863 5.863 0 0 1-2.785-.695c-1.327-.714-2.26-1.882-2.629-3.29-.756-2.895 1.145-5.908 4.24-6.717 3.09-.807 6.226.888 6.982 3.782.369 1.41.127 2.886-.681 4.157-.801 1.26-2.065 2.17-3.558 2.56a6.227 6.227 0 0 1-1.57.203m.387-9.927c-.432 0-.873.055-1.313.17-2.574.672-4.162 3.15-3.542 5.524.299 1.144 1.062 2.095 2.146 2.678 1.096.59 2.39.734 3.645.407 1.254-.328 2.312-1.087 2.98-2.139.661-1.04.86-2.242.562-3.385-.515-1.968-2.388-3.255-4.478-3.255" fill="#312F4B"/>
        <path d="M193.054 61.108c-.983 0-1.914-.27-2.816-.81-1.112-.668-2.106-1.71-2.148-1.755a.488.488 0 0 1 .708-.672c.01.01.948.992 1.943 1.588 1.122.675 2.302.837 3.607.496 2.573-.673 4.162-3.15 3.542-5.524-.22-.841-.733-1.701-1.407-2.36a7.865 7.865 0 0 0-1.467-1.089.489.489 0 0 1 .473-.853c.037.02.936.52 1.677 1.244.796.779 1.405 1.804 1.668 2.81.756 2.895-1.146 5.908-4.24 6.717a6.07 6.07 0 0 1-1.54.208" fill="#312F4B"/>
        <path d="M189.7 59.587a.488.488 0 0 1-.44-.697l4.17-8.793a.489.489 0 0 1 .883.418l-4.171 8.793a.488.488 0 0 1-.442.28M190.812 60.155a.49.49 0 0 1-.44-.697l4.17-8.793a.489.489 0 0 1 .883.418l-4.171 8.793a.488.488 0 0 1-.442.28" fill="#312F4B"/>
        <path d="M154.145 33.335s-1.085-5.068 2.949-7.468c4.144-2.464 8.251 1.046 8.251 1.046l6.062 11.91-2.576 9.218-8.638-3.095-6.048-11.611z" fill="#CB6071"/>
        <path d="M159.94 45.084s4.568-1.255 7.483-2.862c2.914-1.608 4.177-3.568 4.177-3.568l6.788 13.767s.26 4.947-2.82 6.617c-4.36 2.367-8.095-.607-8.095-.607l-7.532-13.347z" fill="#F6B17F"/>
        <path d="M171.887 60.623a7.082 7.082 0 0 1-2.171-.343 7.01 7.01 0 0 1-4.115-3.498l-11.437-22.306c-1.775-3.463-.402-7.724 3.06-9.499l.277.54-.277-.54a7.064 7.064 0 0 1 9.498 3.06l11.436 22.306c1.775 3.463.402 7.724-3.06 9.499a7.023 7.023 0 0 1-3.211.78m-11.453-35.208c-.896 0-1.805.206-2.657.642a5.852 5.852 0 0 0-2.534 7.866l11.436 22.306a5.806 5.806 0 0 0 3.409 2.896 5.799 5.799 0 0 0 4.457-.362 5.85 5.85 0 0 0 2.535-7.865L165.644 28.59a5.852 5.852 0 0 0-5.21-3.176" fill="#312F4B"/>
        <path d="M160.463 45.213a.607.607 0 0 1 0-1.212c2.61 0 8.542-2.58 10.248-5.328a.606.606 0 1 1 1.03.64c-1.986 3.2-8.34 5.9-11.278 5.9" fill="#312F4B"/>
        <path d="M52.834 130.16c.254-4.081 1.238-11.378 1.966-18.238.91-8.586 1.813-17.016 4.921-23.672 2.853-6.11 9.567-7.803 12.825-8.912 2.366-.805 4.909-1.126 7.607-2.151 2.993-1.137 6.088-2.962 7.418-3.414 2.868-.973 33.33.915 36.423 1.507 5.373 1.03 14.992 2.99 19.304 6.38 2.002 1.575 4.37 5.452 6.786 11.033 1.715 3.965 3.991 10.95 3.927 13.436-.065 2.485-12.537 50.927-12.007 61.377.613 12.065 2.144 25.336 2.144 25.336-4.545 2.669-15.996 4.01-34.353 4.02-18.357.01-30.019-1.317-34.985-3.98 0 0 .94-24.943.938-26.853-.003-4.794.216-14.621-.038-16.053-.822-4.634-1.7-9.979-2.068-13.36-.44-4.017-21.27.967-20.808-6.456z" fill="#93D3EC"/>
        <path d="M76.271 40.721c2.699-5.605 2.803-15.05 8.2-22.212 4.879-6.436 12.664-9.965 17.334-9.965 2.388 0 6.124 3.217 8.72 3.01 3.113-.207 7.888.207 10.171 3.53.935 1.348 4.256 5.812 5.294 9.549 1.038 3.632 3.114 12.974 4.464 15.777 1.349 2.802 5.708 10.172 4.67 13.909-.207.83-3.736 6.435-7.265 8.303-3.426 1.869-1.764 1.765-2.492 2.18-1.868 1.038-4.67-1.453-4.67-1.453s-1.454 1.868-5.086 2.906c-8.2 2.595-17.854.623-25.223-.83-2.595-.519-3.53-2.699-3.53-2.699s-.415.727-1.764 1.038c-1.661.311-3.84-.311-5.709-2.284-1.869-1.868-5.501-1.764-6.54-7.68-.933-4.567 3.426-12.975 3.426-13.079" fill="#564762"/>
        <path d="M92.049 63.141s-1.35-1.868-2.492-4.567c-1.141-2.802-2.076-6.746-2.076-6.746s-1.141-.105-2.284-.935c0 0-.622-1.349 2.492-6.435 1.35-2.18 3.01-4.36 4.878-6.85 2.595-3.53 3.218-8.201 6.747-9.654 5.19-2.18 9.446.208 10.069.519.623.311 2.906.934 4.36 3.114 2.075 3.218 3.943 8.511 5.812 11.625.83 1.453 1.141 5.502 1.141 5.502l-.622 2.906s-.52 3.113-1.765 6.124c-1.245 3.01-3.218 5.812-3.218 5.812s-.825 1.399-.692 3.606c.12 2.012 1.262 4.905 2.471 5.949 1.51 1.302 3.844 1.97 5.615 2.122 1.163.1 2.198-.827 1.875.607-.388 1.724-3.16 3.299-5.472 5.315-4.377 3.818-9.536 7.86-10.825 7.945-.768.05-8.337-3.252-13.877-7.262-3.587-2.595-5.734-5.93-6.624-7.347-1.106-1.765.081-.736 1.942-.627 1.433.084 3.458-.746 3.953-1.536.727-1.165.993-4.292.56-6.07-.554-2.275-1.968-3.117-1.968-3.117" fill="#FAD8C9"/>
        <path d="M105.127 49.232c0-.726-.727-1.038-1.142-1.66-.311-.519-.311-1.35-.727-1.35-.934 0-1.453 2.284-1.453 3.53 0 1.245.83 1.868 1.661 1.868.83 0 1.66-1.142 1.66-2.388M90.907 49.129c.103-1.039 1.765-1.66 3.529-1.453 1.765.208 3.217 1.245 3.114 2.283-.104 1.038-1.765 1.661-3.53 1.454-1.764-.208-3.217-1.246-3.113-2.284M115.818 49.129c-.104-1.039-1.765-1.66-3.529-1.453-1.868.208-3.218 1.245-3.114 2.283.104 1.038 1.764 1.661 3.53 1.454 1.763-.208 3.217-1.246 3.113-2.284" fill="#E7B9BC"/>
        <path d="M120.385 22.764c-.415-.726-.207-1.038-1.245-2.076-.935-1.038-1.35-2.283-.312-2.595.623-.208 1.246.208 1.765 1.038.311.52.622 1.35.726 2.076.415 2.076-.623 2.18-.934 1.557M118.413 23.906c-.208-.208-.415-.623-.934-1.246-.519-.727-1.35-1.038-1.453-1.764-.104-.623.726-1.038 1.35-.727.83.519 1.556 2.076 1.764 2.906.103.623-.105 1.246-.727.83" fill="#443956"/>
        <path d="M88.208 17.678c1.453-1.142 3.114-1.66 3.321-1.038.208.623-1.141 1.142-2.283 2.284-1.142 1.141-1.35 2.49-2.18 2.075-.83-.415-.311-2.179 1.142-3.321M89.973 19.754c1.037-1.038 2.386-1.557 2.594-1.038.208.519-.83.934-1.66 1.972-.83.934-.83 1.972-1.557 1.765-.623-.312-.416-1.765.623-2.7" fill="#7E6C81"/>
        <path d="M100.248 58.263c0-.935 1.558-1.246 3.426-1.246s3.425.208 3.425 1.142c0 .934-1.557 2.699-3.322 2.699-1.868 0-3.529-1.557-3.529-2.595" fill="#DA9198"/>
        <path d="M122.98 44.561c-.415-1.556-.934-3.114-.934-3.114s2.906-.519 3.321 1.973c.52 2.491-1.037 5.501-1.557 5.501 0-.104-.415-2.802-.83-4.36" fill="#FAD8C9"/>
        <path d="M82.603 47.987s.83-.519 2.18-2.283c1.453-1.766 5.5-4.464 7.37-7.267 1.453-2.283 4.463-9.549 4.982-9.549.726 0-.831 6.85-2.388 9.238-2.595 4.152-3.529 3.737-6.124 7.784-1.765 2.804-1.142 5.71-1.142 5.71s-1.453-.104-2.698-.935c-1.142-.934-2.18-2.698-2.18-2.698M109.59 28.784c.415 0 1.972.312 3.737 2.699 1.869 2.595 3.633 7.888 4.567 9.757 1.35 2.595 6.85 6.851 6.85 6.851s-2.075 3.114-3.944 2.49c-.83-.31.208-2.387-2.18-5.293-2.387-2.906-2.906-3.426-4.982-7.785-2.076-4.36-4.774-8.615-4.048-8.719M94.022 64.672c1.084.502 2.58 1.663 3.974 2.477 2.756 1.61 5.677 2.859 8.184 1.936 2.255-.83 4.287-2.227 6.278-3.582.346-.235 1.82-1.867 2.123-1.81.008.002-.264 1.554-.269 1.643-.062.98-.094 2.026.037 3 .108.8 2.089 3.708 1.722 4.19-.575.754-3.137.783-3.98.85-4.536.356-9.671-1-13.56-3.314-1.56-.927-3.354-1.88-4.233-3.537-.147-.278-.825-2.108-.276-1.853" fill="#F8C197"/>
        <path d="M52.63 130.54s1.577-.383 3.313-.812c1.735-.43 4.698-.782 6.077-.713 1.38.069 2.928.245 5.03.673 2.103.43 2.771.478 4.07.984 1.298.505 1.503 1.22 1.795 2.48.293 1.258.367 1.874.066 3.285-.3 1.412-.452 3.642-.602 5.457-.15 1.816-.389 5.121-.389 5.121s1.898.315 3.558.7c1.659.383 7.79 1.412 9.92 1.696 2.129.283 7.261 1.013 9.773 1.067 2.51.053 7.629.254 9.692-.115 2.063-.369 3.306-.385 4.023-.648.719-.262 1.491-1.855 1.962-2.953.47-1.098 2.24-4.402 3.427-6.654 1.186-2.251 3.144-5.175 4.756-7.045s2.287-2.494 4.158-4.3c1.871-1.805 4.729-3.66 4.729-3.66l-6.345 25.084s-5.998 8.23-7.256 9.012c-1.259.781-2.35.812-3.868.946-1.517.134-5.845.775-9.182 1.359-3.337.584-10.122 1.794-14.118 2.427-3.995.631-10.815 1.317-13.978 1.374-3.163.058-6.186-.516-8.02-.544-1.834-.028-5.56-.165-7.772-.47-2.212-.304-3.244-.48-4.192-1.347-.95-.87-1.455-2.476-1.895-4.885-.44-2.41-.734-4.015-.44-8.245.293-4.23.705-9.784.899-11.342.194-1.559.228-3.64.329-4.648.1-1.01.182-1.49.264-2.184.082-.693.216-1.1.216-1.1" fill="#FAD8C9"/>
        <path fill="#9C9C9C" d="m130.923 114.286 38.428-13.52-21.896 63.116-34.974 19.84z"/>
        <path d="M160.068 128.017s1.533 3.982 2.154 5.793c.622 1.813 1.347 4.229 2.104 6.396.758 2.168.69 3.126 1.016 5.199.326 2.072.134 2.936-.6 4.028-.733 1.092-2.277 3.198-4.063 4.499-1.786 1.302-5.39 4.15-7.978 5.384s-6.453 3.788-9.161 4.465c-2.709.677-5.469 2.11-7.834 2.388-2.366.277-7.41 1.293-9.571 1.124-2.163-.169-5.388-.701-6.651-1.235-1.263-.534-2.452-.681-3.59-1.43-1.139-.75-2.216-1.375-1.452-2.405.764-1.03.347-1.017-.262-2.413-.608-1.394-.016-2.07.53-2.761.545-.69.562-1.047.216-2.3-.347-1.255.301-1.188 1.187-1.816.884-.627.763-1.03.91-2.218.148-1.19.749-.984 1.787-1.456 1.038-.472 3.277-1.079 3.277-1.079l-.545 1.755s-.147.54.971 1.168c1.119.628 1.686.912 3.034 1.41 1.348.497 2.624.781 2.268-.155-.358-.936-1.492-2.213-2.313-2.63-.82-.42-1.662-.294-2.472-1.225-.809-.931-1.314-1.327-1.45-2.364-.136-1.037.195-1.301.67-1.623.474-.322 1.587 1.573 3.613 2.131 2.024.558 2.553 1.027 4.197 1.233 1.644.205 2.084.293 3.258 1.262 1.175.969 1.673 1.79 2.495 2.906.823 1.115.793 1.614 1.292 2.524.498.91.235 1.556 1.643.763 1.41-.793 2.232-1.585 4.492-3.933 2.26-2.347 3.904-5.284 5.724-7.25 1.82-1.967 2.29-3.23 4.373-4.286 2.084-1.057 3.17-1.82 3.17-1.82l3.561-10.029z" fill="#FAD8C9"/>
        <path fill="#FEFEFE" d="m113.36 103.976 21.263.126.681 8.88-4.24 1.287-1.22 4.102-16.596-.056z"/>
        <path fill="#C6C5C5" d="m123.28 101.155 2.494-.065.26 6.582-2.739-.163z"/>
        <g>
            <path d="M103.882 69.926h-.017c-.152-.005-3.762-.153-8.928-3.949-3.555-2.585-4.756-5.331-5.474-6.972-1.364-2.954-2.215-6.993-2.737-9.774a.557.557 0 0 1 1.094-.204c.51 2.721 1.341 6.67 2.658 9.522.72 1.647 1.803 4.12 5.115 6.53 4.86 3.57 8.273 3.733 8.306 3.734a.558.558 0 0 1-.017 1.113M103.155 52.695a.556.556 0 0 1-.28-1.037c.465-.272 1.657-1.173 1.593-2.074-.026-.303-.197-.467-.552-.78-.497-.439-1.177-1.04-1.315-2.422-.1-.691.032-1.717.429-3.305a.557.557 0 0 1 1.08.27c-.35 1.402-.483 2.351-.405 2.9.098.972.511 1.336.948 1.722.404.356.86.76.924 1.529.129 1.786-2.05 3.07-2.144 3.123a.561.561 0 0 1-.278.074M94.124 44.976c0-1.141.623-2.076 1.454-2.179.83 0 1.557.83 1.557 2.076s-.624 2.076-1.454 2.18c-.83.103-1.453-.934-1.557-2.077M84.16 65.463a.556.556 0 0 1-.143-1.095c.62-.166 1.51-.722 1.97-1.747.48-1.064.357-2.378-.353-3.798a.556.556 0 1 1 .996-.498c1.093 2.186.806 3.791.372 4.753-.621 1.38-1.843 2.137-2.699 2.366a.555.555 0 0 1-.143.019" fill="#312F4B"/>
            <g transform="translate(72.046 8)">
                <mask id="i8y98zfs1b" fill="#fff">
                    <use xlink:href="#ogqmka2oza"/>
                </mask>
                <path d="M8.066 55.802a.558.558 0 0 1-.518-.353c-.643-1.629-1.952-2.694-3.337-3.82C2.425 50.178.58 48.677.146 45.885-.51 41.67 1.17 37.907 2.654 34.587c.222-.496.44-.984.644-1.462 1.033-2.515 1.809-5.223 2.63-8.09 1.057-3.692 2.15-7.51 3.916-11.334C12.578 7.84 18.017 3.076 24.394.95 32.458-1.737 35.57 2.113 35.7 2.278a.558.558 0 0 1-.877.686c-.111-.14-2.81-3.381-10.077-.958-6.092 2.03-11.286 6.578-13.892 12.163-1.729 3.745-2.81 7.52-3.856 11.172-.83 2.898-1.614 5.635-2.673 8.215-.21.49-.43.983-.655 1.485C2.25 38.22.64 41.824 1.246 45.714c.368 2.369 1.97 3.672 3.667 5.051 1.436 1.168 2.92 2.375 3.67 4.276a.557.557 0 0 1-.517.761" fill="#312F4B" mask="url(#i8y98zfs1b)"/>
            </g>
            <path d="M92.36 38.682a.557.557 0 0 1-.306-1.022c.147-.095 3.64-2.336 7.416-.337a.556.556 0 1 1-.52.984c-3.184-1.686-6.161.204-6.286.285a.554.554 0 0 1-.303.09M92.983 44.6a.557.557 0 0 1-.342-.996c1.092-.85 3.855-1.32 5.433-.226a.557.557 0 1 1-.634.915c-1.11-.77-3.318-.431-4.115.189a.558.558 0 0 1-.342.117M103.745 59.52c-1.874 0-3.703-.527-4.961-1.427a.556.556 0 1 1 .646-.906c1.938 1.384 6.248 1.947 8.866-.283a.557.557 0 0 1 .721.848c-1.446 1.231-3.382 1.768-5.272 1.768M104.01 69.926h-.044a.556.556 0 0 1-.538-.576.543.543 0 0 1 .573-.537c.032.006 2.933.014 7.751-3.525 3.43-2.495 5-5.287 5.632-6.73 1.32-2.86 2.151-6.809 2.662-9.532a.557.557 0 0 1 1.094.205c-.522 2.782-1.373 6.821-2.74 9.784-.672 1.536-2.35 4.523-5.991 7.171-4.914 3.61-7.984 3.74-8.4 3.74M112.704 44.976c0-1.141-.622-2.076-1.452-2.179-.831 0-1.558.83-1.558 2.076 0 1.141.623 2.076 1.453 2.18.83.103 1.454-.934 1.557-2.077M114.053 38.682a.548.548 0 0 1-.305-.091c-.124-.08-3.1-1.97-6.285-.284a.556.556 0 1 1-.52-.984c3.776-2 7.27.24 7.416.338a.556.556 0 0 1-.306 1.021" fill="#312F4B"/>
            <path d="M113.845 44.6a.558.558 0 0 1-.341-.118c-.761-.593-2.962-1.076-4.094-.206a.556.556 0 0 1-.679-.882c1.57-1.207 4.323-.673 5.456.21a.557.557 0 0 1-.342.995M83.745 62.867a.555.555 0 0 1-.394-.163c-3.184-3.184-3.409-7.484-2.633-10.199a.558.558 0 0 1 1.07.306c-.692 2.424-.493 6.263 2.35 9.106a.556.556 0 0 1-.393.95" fill="#312F4B"/>
            <path d="M78.97 56.847a.557.557 0 0 1-.545-.443c-1.078-5.193 3.168-8.768 4.98-10.294.234-.197.434-.365.585-.504a98.007 98.007 0 0 1 2.608-2.326c3.201-2.787 5.73-4.986 7.84-10.34 1.624-4.124 4.25-9.095 7.539-9.36 1.715-.135 3.32 1.028 4.77 3.467a.557.557 0 0 1-.957.568c-1.214-2.043-2.464-3.028-3.724-2.926-2.089.168-4.492 3.324-6.594 8.659-2.208 5.607-4.828 7.885-8.144 10.77-.823.718-1.675 1.46-2.581 2.304-.162.15-.375.33-.625.54-1.801 1.516-5.55 4.673-4.607 9.216a.557.557 0 0 1-.546.67M127.652 49.374l-.03-.001c-.255-.014-6.282-.42-10.532-8.497-.618-1.181-1.15-2.508-1.666-3.79-1.533-3.817-2.981-7.422-6.555-8.065a.557.557 0 0 1 .197-1.095c4.18.752 5.812 4.815 7.391 8.744.506 1.258 1.028 2.558 1.619 3.689 3.958 7.521 9.548 7.9 9.604 7.902a.556.556 0 0 1-.028 1.113M126.924 64.113a.557.557 0 0 1-.425-.916c3.611-4.275.881-9.676-.46-11.799a.557.557 0 0 1 .94-.595c1.473 2.332 4.456 8.275.37 13.113a.555.555 0 0 1-.425.197" fill="#312F4B"/>
            <path d="M130.557 63.075a.556.556 0 0 1-.544-.442c-.378-1.793.618-2.863 1.58-3.898.274-.294.557-.598.81-.92 1.414-1.885 2.857-4.16 1.98-7.182-.632-2.366-1.577-4.106-2.578-5.948-.983-1.81-2-3.682-2.916-6.38-1.397-4.008-1.972-6.84-2.48-9.34-.648-3.195-1.161-5.718-3.185-9.246-5.929-10.21-13.195-6.675-13.266-6.637a.557.557 0 0 1-.528-.98c2.259-1.216 9.313-2.317 14.758 7.061 2.115 3.686 2.643 6.287 3.313 9.58.5 2.465 1.067 5.258 2.44 9.2.887 2.612 1.88 4.441 2.843 6.21 1.033 1.902 2.009 3.699 2.67 6.181.97 3.336-.469 5.894-2.168 8.16-.29.367-.588.688-.877.999-1 1.075-1.554 1.74-1.307 2.91a.557.557 0 0 1-.545.672M109.072 23.01l-.044-.002a.556.556 0 0 1-.512-.598c.156-2.024-.378-3.639-1.588-4.8-1.41-1.35-3.633-1.958-6.095-1.663a.557.557 0 0 1-.132-1.106c2.798-.331 5.348.384 6.997 1.967 1.441 1.382 2.108 3.348 1.928 5.687a.556.556 0 0 1-.554.514M87.481 52.177c-.4 0-.775-.125-1.106-.236-1.787-.669-3.147-1.875-3.959-3.498a.556.556 0 1 1 .996-.497c.683 1.366 1.835 2.384 3.33 2.945.26.086.52.173.739.173a.556.556 0 1 1 0 1.113M86.132 47.194a.556.556 0 0 1-.497-.307c-.002-.004-.192-.38-.467-.746a.556.556 0 1 1 .89-.668c.338.45.562.897.572.916a.556.556 0 0 1-.498.805" fill="#312F4B"/>
            <path d="M120.281 51.865a.557.557 0 1 1 0-1.113c.223 0 .483-.087.758-.18 1.412-.44 2.584-1.483 3.311-2.938a.557.557 0 0 1 .996.498c-.864 1.729-2.272 2.971-3.965 3.5-.32.107-.696.233-1.1.233M125.58 65.987c-.656 0-2.091-.35-3.203-1.107-.932-.635-1.488-1.462-1.61-2.393a.557.557 0 0 1 1.104-.145c.176 1.349 1.732 2.067 2.785 2.366-.612-1.069-1.303-3.087-.018-6.536a.556.556 0 0 1 1.043.388c-1.399 3.755-.214 5.42.293 6.131.194.274.362.51.284.824a.627.627 0 0 1-.445.45.989.989 0 0 1-.233.022" fill="#312F4B"/>
            <path d="M115.09 66.812a.556.556 0 0 1-.032-1.112c2.203-.133 3.858-.877 4.92-2.214 1.14-1.437 1.523-3.499 1.104-5.96a.557.557 0 0 1 1.097-.187c.474 2.782.014 5.147-1.33 6.84-1.249 1.571-3.228 2.482-5.724 2.632l-.034.001M91.843 66.303c-3.222 0-5.28-1.76-5.54-4.775a.557.557 0 0 1 1.11-.095c.296 3.447 3.148 3.827 4.816 3.747a.556.556 0 1 1 .054 1.112c-.15.008-.296.01-.44.01M125.47 48.751a.55.55 0 0 1-.35-.125c-3.187-2.585-3.925-5.553-4.78-8.99-.687-2.767-1.467-5.902-3.653-9.636a.556.556 0 1 1 .96-.563c2.267 3.873 3.068 7.091 3.774 9.93.839 3.377 1.502 6.044 4.4 8.395a.556.556 0 0 1-.35.99" fill="#312F4B"/>
            <path d="M125.264 48.233a.557.557 0 0 1-.535-.71c.566-1.982.481-3.539-.24-4.384-.644-.756-1.648-.81-2.377-.724a.557.557 0 0 1-.133-1.105c1.413-.17 2.605.224 3.358 1.107.686.805 1.323 2.397.461 5.412a.557.557 0 0 1-.534.404M87.977 74.692a.557.557 0 0 1-.16-1.09c.607-.181 1.231-.251 1.835-.318.858-.096 1.669-.187 2.351-.58 2.005-1.153 1.704-4.043 1.463-6.366-.044-.416-.085-.811-.112-1.177a.557.557 0 0 1 .516-.595.564.564 0 0 1 .595.515c.026.354.066.739.108 1.141.26 2.504.617 5.934-2.014 7.447-.884.509-1.85.616-2.783.72-.58.066-1.129.127-1.639.28a.548.548 0 0 1-.16.023M124.242 76.068h-.017c-3.546-.11-6.216-1.123-7.937-3.011-1.815-1.993-2.612-5.009-2.365-8.964a.556.556 0 1 1 1.111.07c-.227 3.642.472 6.383 2.077 8.144 1.51 1.657 3.915 2.548 7.148 2.648a.557.557 0 0 1-.017 1.113" fill="#312F4B"/>
            <path d="M108.138 89.688h-.011c-2.205-.015-5.452-1.9-9.212-4.082l-.713-.414c-3.295-1.908-6.634-4.703-9.927-8.308l-.149-.163c-.095-.102-1.56-2.45-.941-3.119.04-.044.413-.42.942-.002a.556.556 0 0 1 .078.8c.175.516.58 1.383.74 1.568l.152.166c3.216 3.52 6.467 6.243 9.663 8.095l.714.414c3.472 2.015 6.752 3.919 8.66 3.931h.005c.808 0 2.642-1.38 3.961-2.68.716-.705 2.354-2.015 4.25-3.53 2.7-2.159 5.76-4.604 7.139-6.08.355-.38.357-.55.357-.552-.036-.035-.248-.104-.374-.113a.557.557 0 0 1-.262-1.071c.313-.126 1.188.032 1.562.58.255.37.38 1.004-.47 1.915-1.434 1.536-4.527 4.008-7.257 6.19-1.794 1.434-3.49 2.788-4.163 3.453-.509.503-3.125 3.002-4.744 3.002zm-20.355-15.65-.352.43.008.005.344-.436z" fill="#312F4B"/>
            <path d="M73.396 165.897c-2.144 0-4.255-.122-6.323-.402-.84-.114-2.352-.192-4.103-.281-5.016-.257-8.637-.502-9.549-1.332-3.929-3.58-3.188-12.917-2.79-17.934l.07-.89c.552-7.294 3.618-35.006 4.748-41.508.145-.83.274-1.783.41-2.79.853-6.268 2.14-15.739 10.475-19.646 2.563-1.202 5.327-1.987 8-2.746 2.557-.727 5.201-1.478 7.587-2.582.29-.134.818-.455 1.429-.828 2.448-1.492 4.251-2.51 5.177-2.012a.557.557 0 0 1-.519.985c-.57-.164-3.028 1.337-4.079 1.977-.667.407-1.194.728-1.541.888-2.464 1.14-5.15 1.904-7.75 2.642-2.63.748-5.35 1.52-7.832 2.684-7.786 3.65-8.975 12.399-9.843 18.787a80.344 80.344 0 0 1-.417 2.831c-1.127 6.482-4.184 34.124-4.736 41.402l-.07.894c-.383 4.826-1.095 13.81 2.43 17.023.689.626 5.802.887 8.857 1.043 1.776.09 3.31.169 4.196.289 8.959 1.217 18.882-.625 28.479-2.407 5.214-.969 10.14-1.884 14.896-2.333a.55.55 0 0 1 .606.502.555.555 0 0 1-.501.606c-4.708.445-9.61 1.355-14.798 2.32-7.492 1.39-15.182 2.818-22.51 2.818" fill="#312F4B"/>
            <path d="M99.266 151.166c-9.998 0-20.238-2.078-26.509-3.352-2.237-.453-4.003-.812-4.804-.866-3.103-.21-7.394-.174-8.845 2.521a.557.557 0 0 1-.98-.527c1.755-3.261 6.492-3.331 9.9-3.105.875.06 2.585.406 4.95.887 8.45 1.714 24.179 4.907 36.57 2.408a.556.556 0 1 1 .22 1.091c-3.337.673-6.905.943-10.502.943" fill="#312F4B"/>
            <path d="M75.052 147.643a.556.556 0 0 1-.552-.49c-.615-5.032-1.225-8.645-1.764-11.832-1.02-6.044-1.695-10.037-1.317-17.755l.01-.2c.623-12.516-.63-15.213-1.196-15.791a.557.557 0 0 1 .794-.78c1.48 1.508 1.988 7.102 1.514 16.627l-.01.198c-.372 7.598.294 11.543 1.303 17.515.54 3.2 1.152 6.825 1.771 11.884a.557.557 0 0 1-.553.624M74.971 192.863a.557.557 0 0 1-.556-.536c-.118-3.188.098-11.212.326-14.575.257-3.796.523-7.72.36-12.17a.556.556 0 0 1 .536-.577.553.553 0 0 1 .576.535c.166 4.509-.102 8.463-.361 12.287-.227 3.334-.44 11.328-.324 14.459a.557.557 0 0 1-.557.577" fill="#312F4B"/>
            <path d="M72.423 131.95a.562.562 0 0 1-.248-.058c-5.587-2.794-13.462-3.158-19.149-.881a.556.556 0 1 1-.414-1.034c6.057-2.423 14.118-2.053 20.061.92a.556.556 0 0 1-.25 1.053M71.975 147.238a.557.557 0 0 1-.557-.556c0-1.733.276-3.489.544-5.187.264-1.67.535-3.395.535-5.066a.557.557 0 0 1 1.114 0c0 1.758-.28 3.528-.55 5.239-.26 1.656-.53 3.369-.53 5.014 0 .307-.25.556-.556.556M153.9 106.14a.557.557 0 0 1-.548-.465c-.567-3.406-5.658-21.234-11.84-24.325-3.732-1.866-8.112-3.13-12.348-4.352-2.004-.578-4.076-1.177-6.015-1.823a.557.557 0 1 1 .352-1.056c1.918.64 3.978 1.234 5.972 1.81 4.284 1.236 8.713 2.515 12.537 4.425 7.102 3.552 12.032 22.688 12.44 25.138a.556.556 0 0 1-.55.648M137.666 111.311h-.01a.557.557 0 0 1-.547-.566c.036-2.053.127-4.14.215-6.158.113-2.588.23-5.264.23-7.869a.556.556 0 1 1 1.112 0c0 2.629-.117 5.317-.23 7.917-.088 2.011-.178 4.09-.214 6.13a.557.557 0 0 1-.556.546M138.886 165.725a.557.557 0 0 1-.13-1.098c8.554-2.08 23.577-10.034 26.01-16.337 1.121-2.906-3.1-14.525-4.688-18.898a.556.556 0 0 1 1.046-.38c2.943 8.102 5.8 16.776 4.68 19.679-2.552 6.613-18.009 14.883-26.786 17.018a.555.555 0 0 1-.132.016" fill="#312F4B"/>
            <path d="M137.994 156.392a.556.556 0 0 1-.205-1.074c3.062-1.214 6.54-5.783 9.333-9.455 1.456-1.912 2.713-3.563 3.695-4.464 1.973-1.808 2.91-2.234 3.902-2.683.504-.229 1.025-.465 1.733-.913a.556.556 0 1 1 .595.941 13.87 13.87 0 0 1-1.868.985c-.948.43-1.767.802-3.61 2.49-.91.834-2.138 2.449-3.561 4.319-2.877 3.78-6.458 8.486-9.81 9.815a.544.544 0 0 1-.204.04" fill="#312F4B"/>
            <path d="M137.81 156.347a.556.556 0 0 1-.487-.286l-.305-.553c-1.297-2.358-3.073-5.587-5.38-6.57-.953-.405-1.928-.644-2.96-.898-.767-.188-1.56-.382-2.344-.652-1.438-.494-2.543-1.286-3.611-2.052-.162-.115-.362-.145-.412-.125-.666 1.853.604 2.709 2.774 3.898 1.744.956 3.72 2.04 3.225 4.222a.556.556 0 1 1-1.085-.246c.288-1.273-.818-1.983-2.675-3-1.926-1.056-4.324-2.37-3.288-5.233a1.11 1.11 0 0 1 .72-.704c.51-.158 1.066.053 1.388.283 1.004.72 2.042 1.463 3.326 1.905.736.253 1.504.441 2.247.624 1.03.252 2.095.513 3.131.955 2.66 1.133 4.544 4.556 5.92 7.056l.302.55a.556.556 0 0 1-.486.826" fill="#312F4B"/>
            <path d="M127.554 153.91a.548.548 0 0 1-.225-.048c-.464-.206-.931-.398-1.397-.59-1.61-.666-3.274-1.353-4.716-2.523a.557.557 0 0 1 .702-.864c1.315 1.068 2.833 1.694 4.439 2.357.473.196.95.393 1.422.602a.557.557 0 0 1-.225 1.065" fill="#312F4B"/>
            <path d="M124.24 158.7a.558.558 0 0 1-.33-.107c-.72-.53-1.524-1.023-2.301-1.498-1.914-1.171-3.893-2.381-5.125-4.394-.463-.756-.423-1.6.111-2.377 1.04-1.508 3.845-2.58 5.26-2.32a.556.556 0 1 1-.204 1.095c-.93-.176-3.326.678-4.139 1.857-.375.545-.225.925-.078 1.164 1.092 1.784 2.871 2.873 4.756 4.025.797.488 1.622.992 2.38 1.55a.557.557 0 0 1-.33 1.006" fill="#312F4B"/>
            <path d="M122.868 162.489a.556.556 0 0 1-.352-.125c-.376-.306-1.369-.88-2.167-1.34-.529-.306-.985-.57-1.212-.725-1.93-1.324-5.133-3.874-4.878-6.068.109-.927.783-1.638 2.006-2.112a.557.557 0 0 1 .402 1.038c-.807.314-1.245.718-1.302 1.203-.16 1.368 2.272 3.56 4.402 5.022.191.131.65.396 1.138.678.876.505 1.869 1.078 2.314 1.44a.556.556 0 0 1-.351.989" fill="#312F4B"/>
            <path d="M121.386 164.958a.563.563 0 0 1-.256-.062c-.149-.078-.376-.186-.661-.322-3.238-1.542-6.614-3.398-7.096-5.467-.153-.659 0-1.304.444-1.867l.092-.116c.201-.26.43-.556.804-.773a.558.558 0 0 1 .558.963c-.185.107-.316.277-.482.491l-.098.126c-.237.3-.31.593-.234.924.426 1.826 4.832 3.925 6.49 4.715.3.142.54.257.696.338a.557.557 0 0 1-.257 1.05" fill="#312F4B"/>
            <path d="M125.62 167.825c-1.912 0-3.81-.226-5.6-.875-.249-.09-.509-.18-.777-.275-1.542-.538-3.29-1.149-4.495-2.137-.605-.496-.955-1.124-.96-1.723-.003-.34.104-.84.631-1.288a.557.557 0 1 1 .72.849c-.215.182-.239.333-.238.43.002.26.214.593.553.87 1.052.865 2.701 1.44 4.156 1.949.272.095.536.187.788.279 3.739 1.354 8.14.716 12.024.152l1.012-.146c1.154-.164 3.52-.637 4.957-1.212a.557.557 0 1 1 .414 1.033c-1.538.616-3.962 1.103-5.215 1.28l-1.008.146c-2.218.322-4.6.668-6.962.668M110.506 160.763a.557.557 0 0 1-.026-1.112l.153-.008c1.142-.054 1.833-.087 2.725-.589a.556.556 0 1 1 .546.97c-1.123.632-2.002.674-3.22.731l-.15.007h-.028M109.641 150.209a.556.556 0 0 1-.509-.78c3.594-8.15 7.083-15.338 13.418-20.777.313-.269.68-.631 1.068-1.015 1.159-1.146 2.471-2.444 3.78-2.772a.556.556 0 1 1 .271 1.08c-1.013.253-2.263 1.49-3.268 2.482-.403.4-.783.775-1.126 1.07-6.157 5.287-9.586 12.357-13.124 20.38a.557.557 0 0 1-.51.332M118.377 149.045a.556.556 0 0 1-.49-.819c.928-1.73 1.19-3.252 1.47-4.862.21-1.213.426-2.466.947-3.795.63-1.612 1.863-2.823 3.054-3.994.432-.424.84-.825 1.22-1.242a.557.557 0 1 1 .823.748c-.4.44-.838.871-1.262 1.288-1.109 1.089-2.255 2.215-2.798 3.605-.48 1.225-.678 2.368-.888 3.58-.281 1.627-.573 3.31-1.585 5.198a.556.556 0 0 1-.49.293" fill="#312F4B"/>
            <path d="M118.072 137.402a.556.556 0 0 1-.536-.707c.69-2.458 2.987-3.886 5.21-5.267 1.283-.797 2.495-1.55 3.311-2.448a.555.555 0 1 1 .824.747c-.92 1.015-2.197 1.808-3.548 2.647-2.042 1.268-4.153 2.58-4.725 4.62a.557.557 0 0 1-.536.408M143.881 192.82a.556.556 0 0 1-.553-.5c-.085-.818-.205-6.756-.344-8.02-.542-4.925-1.36-12.367-1.514-16.556a.556.556 0 0 1 .536-.576c.304-.024.566.228.577.535.152 4.149.968 11.567 1.508 16.476.139 1.267.26 7.206.344 8.026a.557.557 0 0 1-.496.611l-.058.003M121.622 150.289a.557.557 0 0 1-.539-.699l.307-1.157a.557.557 0 0 1 1.076.285l-.307 1.156a.557.557 0 0 1-.537.415" fill="#312F4B"/>
            <path d="M112.556 184.496a.559.559 0 0 1-.538-.7l4.701-17.737a.556.556 0 1 1 1.077.285l-4.359 16.442 33.617-19.45.41-1.17a.556.556 0 1 1 1.051.368l-.48 1.365a.555.555 0 0 1-.246.297l-34.954 20.224a.557.557 0 0 1-.279.076M123.18 144.407a.557.557 0 0 1-.539-.699l7.856-29.639a.556.556 0 0 1 .353-.382l38.602-13.568a.556.556 0 0 1 .71.709l-13.043 37.18a.556.556 0 1 1-1.05-.37l12.658-36.085-37.23 13.086-7.779 29.354a.557.557 0 0 1-.538.414" fill="#312F4B"/>
            <path d="M128.825 118.877h-15.553a.556.556 0 0 1-.556-.557v-14.086c0-.308.249-.557.556-.557h9.077a.556.556 0 1 1 0 1.114h-8.52v12.973h14.996a.557.557 0 1 1 0 1.113M134.783 112.497a.557.557 0 0 1-.557-.557v-7.15h-7.738a.557.557 0 1 1 0-1.113h8.295c.307 0 .556.25.556.557v7.706c0 .308-.25.557-.556.557" fill="#312F4B"/>
            <path d="M125.855 108.155h-.014l-2.611-.066a.557.557 0 0 1-.543-.56l.047-6.374c0-.149.061-.291.168-.395a.591.591 0 0 1 .4-.157l2.533.053a.556.556 0 0 1 .545.553l.032 6.387a.554.554 0 0 1-.557.56zm-2.05-1.165 1.49.038-.025-5.27-1.427-.03-.038 5.262z" fill="#312F4B"/>
            <path d="m49.355 36.596.717-1.87s-6.355 1.015-8.845 7.61c-.54 1.432-.521 2.713-.513 4.046 1.903-4.14 4.464-8.067 8.641-9.786" fill="#FEFEFE"/>
            <path d="M40.714 46.382c.012 1.826.006 3.745-1.483 6.274l3.45 1.324 6.674-17.384c-4.177 1.718-6.738 5.646-8.64 9.786" fill="#D9D9D9"/>
            <path d="m42.963 54.611-4.444-1.705.292-.498c1.439-2.445 1.426-4.3 1.414-6.094-.008-1.307-.017-2.66.546-4.15 2.56-6.783 8.953-7.875 9.225-7.919l.836-.134-7.87 20.5zm-3.03-2.209 2.468.948 6.878-17.92c-1.771.544-5.78 2.27-7.594 7.078-.5 1.322-.491 2.526-.483 3.8.011 1.72.024 3.655-1.269 6.094z" fill="#312F4B"/>
            <path d="M38.654 52.434c-.024.05-.047.099-.067.15L27.5 78.097a2.266 2.266 0 0 0 1.304 2.928l.931.358a2.267 2.267 0 0 0 2.929-1.304l9.959-25.945c.02-.052.035-.104.051-.157l-4.02-1.543z" fill="#F6B17F"/>
            <path d="m29.56 81.839-.931-.358a2.758 2.758 0 0 1-1.585-3.56L38.14 52.39c.014-.037.038-.091.064-.145a.506.506 0 0 1 .625-.266l4.021 1.543c.24.091.366.353.292.598-.023.075-.04.132-.063.188L33.12 80.254a2.759 2.759 0 0 1-3.559 1.585zm9.353-28.782L27.948 78.291c-.343.896.116 1.927 1.03 2.279l.932.357a1.78 1.78 0 0 0 2.297-1.023l9.844-25.642-3.138-1.205z" fill="#312F4B"/>
            <path d="m39.313 62.757-2.582-.99a.488.488 0 1 1 .35-.913l2.582.991a.488.488 0 1 1-.35.912M38.079 64.813l-1.687-.647a.488.488 0 1 1 .35-.912l1.687.648a.488.488 0 1 1-.35.911M37.323 66.783l-.903-.347a.488.488 0 1 1 .35-.912l.903.347a.488.488 0 1 1-.35.912M36.763 68.242l-2.194-.842a.487.487 0 1 1 .35-.912l2.194.843a.488.488 0 1 1-.35.911M36.442 70.236l-1.291-.496a.487.487 0 1 1 .35-.911l1.29.495a.488.488 0 1 1-.35.912M35.373 71.863l-2.194-.842a.487.487 0 1 1 .35-.912l2.194.843a.488.488 0 1 1-.35.911" fill="#312F4B"/>
            <path d="M24.07 35.758s1.328-6.961 4.826-9.468l-2.61 10.62-2.318-.89" fill="#D9D9D9"/>
            <path d="m26.628 37.565-2.834-1.088a.488.488 0 0 1-.212-.755c.002-.019.004-.038.008-.056.056-.292 1.407-7.183 5.022-9.773l1.074-.77-3.058 12.442zm-2.054-1.835 1.37.526 2.088-8.496c-2.254 2.632-3.29 7.176-3.458 7.97z" fill="#312F4B"/>
            <path d="M28.703 37.537s3.671-6.063 2.749-10.266l-5.167 9.64 2.317.889" fill="#D9D9D9"/>
            <path d="m28.427 38.255-2.833-1.087 6.052-11.292.283 1.29c.953 4.344-2.654 10.37-2.808 10.624a.429.429 0 0 1-.032.046.49.49 0 0 1-.662.42zm-1.45-1.602 1.37.525c.407-.702 2.675-4.774 2.763-8.235l-4.132 7.71z" fill="#312F4B"/>
        </g>
        <path fill="#D9D9D9" d="M20.434 66.315 25.82 43.13l-2.42.986-5.832 22.939z"/>
        <path d="m16.892 67.735 6.096-23.977 3.522-1.435-5.668 24.39-3.95 1.022zm6.921-23.259-5.568 21.9 1.78-.46 5.107-21.977-1.319.537z" fill="#312F4B"/>
        <path fill="#D9D9D9" d="m10.39 62.46 11.509-20.834 1.501 2.49-11.377 20.81z"/>
        <path d="m12.063 65.871-2.245-3.389L21.88 40.65l2.084 3.456-11.901 21.766zm-1.103-3.435 1.023 1.546 10.854-19.853-.92-1.527L10.96 62.436z" fill="#312F4B"/>
        <path fill="#D9D9D9" d="m24.993 47.202-3.44-4.887 2.415-6.294 4.634 1.778z"/>
        <path d="m25.121 48.232-4.118-5.85 2.685-6.992 5.545 2.129-4.112 10.713zm-3.019-5.985 2.763 3.925 3.107-8.092-3.723-1.428-2.147 5.595z" fill="#312F4B"/>
        <g>
            <path d="M9.18 61.854a5.662 5.662 0 1 0-4.058 10.572A5.662 5.662 0 0 0 9.18 61.854m-3.407 8.874A3.844 3.844 0 1 1 8.53 63.55a3.844 3.844 0 0 1-2.756 7.177" fill="#D9D9D9"/>
            <g transform="translate(1 60.99)">
                <mask id="96r0pa19yd" fill="#fff">
                    <use xlink:href="#xbam6zip4c"/>
                </mask>
                <path d="M3.947 11.892A6.157 6.157 0 0 1 .409 3.946 6.157 6.157 0 0 1 8.355.409a6.156 6.156 0 0 1 3.538 7.945 6.157 6.157 0 0 1-7.946 3.538M8.005 1.32A5.18 5.18 0 0 0 1.32 4.296a5.18 5.18 0 0 0 2.976 6.684 5.179 5.179 0 0 0 6.683-2.976A5.179 5.179 0 0 0 8.005 1.32m-3.407 8.874a4.336 4.336 0 0 1-2.49-5.596 4.336 4.336 0 0 1 5.595-2.491 4.336 4.336 0 0 1 2.491 5.595 4.336 4.336 0 0 1-5.596 2.492m2.755-7.176a3.359 3.359 0 0 0-4.334 1.93 3.359 3.359 0 0 0 1.93 4.334 3.359 3.359 0 0 0 4.334-1.93 3.359 3.359 0 0 0-1.93-4.334" fill="#312F4B" mask="url(#96r0pa19yd)"/>
            </g>
            <path d="M21.517 66.59a5.662 5.662 0 1 0-4.058 10.572 5.662 5.662 0 0 0 4.058-10.572m-3.406 8.874a3.843 3.843 0 1 1 2.755-7.176 3.843 3.843 0 0 1-2.755 7.176" fill="#D9D9D9"/>
            <path d="M17.284 77.617a6.157 6.157 0 0 1-3.537-7.946 6.157 6.157 0 0 1 7.945-3.537 6.156 6.156 0 0 1 3.538 7.946 6.156 6.156 0 0 1-7.946 3.537m4.058-10.571a5.18 5.18 0 0 0-6.683 2.975 5.18 5.18 0 0 0 2.975 6.685 5.18 5.18 0 0 0 6.684-2.976 5.18 5.18 0 0 0-2.976-6.684m-3.406 8.873a4.336 4.336 0 0 1-2.491-5.596 4.336 4.336 0 0 1 5.596-2.491 4.336 4.336 0 0 1 2.49 5.596 4.336 4.336 0 0 1-5.595 2.491m2.755-7.175a3.359 3.359 0 0 0-4.334 1.93 3.359 3.359 0 0 0 1.93 4.333 3.359 3.359 0 0 0 4.333-1.93 3.359 3.359 0 0 0-1.93-4.333" fill="#312F4B"/>
            <path d="M26.182 40.224a1.09 1.09 0 1 1-2.037-.783 1.09 1.09 0 1 1 2.037.783" fill="#D9D9D9"/>
            <path d="M24.598 41.307a1.582 1.582 0 0 1-.91-2.04 1.582 1.582 0 0 1 2.042-.909 1.581 1.581 0 0 1 .909 2.04 1.582 1.582 0 0 1-2.041.91m.782-2.038a.604.604 0 1 0-.431 1.127.604.604 0 0 0 .43-1.127" fill="#312F4B"/>
        </g>
    </g>
</svg>
