<svg width="200" height="200" viewBox="0 0 200 200" xmlns="http://www.w3.org/2000/svg" xmlns:xlink="http://www.w3.org/1999/xlink">
    <defs>
        <filter x="-4.8%" y="-2.7%" width="109.6%" height="107.7%" filterUnits="objectBoundingBox" id="waig3ohgta">
            <feMorphology radius=".5" operator="dilate" in="SourceAlpha" result="shadowSpreadOuter1"/>
            <feOffset dy="2" in="shadowSpreadOuter1" result="shadowOffsetOuter1"/>
            <feGaussianBlur stdDeviation="2" in="shadowOffsetOuter1" result="shadowBlurOuter1"/>
            <feComposite in="shadowBlurOuter1" in2="SourceAlpha" operator="out" result="shadowBlurOuter1"/>
            <feColorMatrix values="0 0 0 0 0 0 0 0 0 0 0 0 0 0 0 0 0 0 0.3 0" in="shadowBlurOuter1"/>
        </filter>
        <filter x="-6.1%" y="-4.4%" width="112.3%" height="112.3%" filterUnits="objectBoundingBox" id="j7lg890svc">
            <feOffset dy="2" in="SourceAlpha" result="shadowOffsetOuter1"/>
            <feGaussianBlur stdDeviation="2" in="shadowOffsetOuter1" result="shadowBlurOuter1"/>
            <feColorMatrix values="0 0 0 0 0 0 0 0 0 0 0 0 0 0 0 0 0 0 0.3 0" in="shadowBlurOuter1"/>
        </filter>
        <filter x="-10.2%" y="-7.3%" width="120.4%" height="120.4%" filterUnits="objectBoundingBox" id="sh7kz5m1ie">
            <feOffset dy="2" in="SourceAlpha" result="shadowOffsetOuter1"/>
            <feGaussianBlur stdDeviation="2" in="shadowOffsetOuter1" result="shadowBlurOuter1"/>
            <feColorMatrix values="0 0 0 0 0 0 0 0 0 0 0 0 0 0 0 0 0 0 0.3 0" in="shadowBlurOuter1"/>
        </filter>
        <filter x="-15.1%" y="-23.3%" width="130.3%" height="165.3%" filterUnits="objectBoundingBox" id="93ktrg555g">
            <feOffset dy="2" in="SourceAlpha" result="shadowOffsetOuter1"/>
            <feGaussianBlur stdDeviation="2" in="shadowOffsetOuter1" result="shadowBlurOuter1"/>
            <feColorMatrix values="0 0 0 0 0 0 0 0 0 0 0 0 0 0 0 0 0 0 0.5 0" in="shadowBlurOuter1"/>
        </filter>
        <filter x="-17.8%" y="-17.3%" width="135.5%" height="134.5%" filterUnits="objectBoundingBox" id="souq3nplji">
            <feOffset dy="2" in="SourceAlpha" result="shadowOffsetOuter1"/>
            <feGaussianBlur stdDeviation="2" in="shadowOffsetOuter1" result="shadowBlurOuter1"/>
            <feColorMatrix values="0 0 0 0 0 0 0 0 0 0 0 0 0 0 0 0 0 0 0.5 0" in="shadowBlurOuter1" result="shadowMatrixOuter1"/>
            <feMerge>
                <feMergeNode in="shadowMatrixOuter1"/>
                <feMergeNode in="SourceGraphic"/>
            </feMerge>
        </filter>
        <path d="M96.25.605a1 1 0 0 1 1.34 0l16.92 15.26a1 1 0 0 1-.669 1.743h-1.866a1 1 0 0 0-1 1v16.436c36.961 6.133 65.142 38.25 65.142 76.95 0 43.081-34.924 78.006-78.006 78.006s-78.007-34.925-78.007-78.006c0-37.96 27.114-69.585 63.03-76.57V18.609a1 1 0 0 0-1-1h-2.108a1 1 0 0 1-.67-1.742z" id="wvh3yaqunb"/>
        <path d="M98.11 55.003c-31.474 0-56.99 25.515-56.99 56.991s25.516 56.99 56.99 56.99c31.477 0 56.992-25.514 56.992-56.99 0-31.476-25.515-56.991-56.991-56.991" id="qql3tbbbjd"/>
        <path d="M132.49 111.994c0 18.987-15.392 34.38-34.38 34.38-18.986 0-34.378-15.393-34.378-34.38 0-18.987 15.392-34.38 34.379-34.38s34.38 15.393 34.38 34.38" id="4tltfkw9gf"/>
        <path d="M78.785 66.88h38.208a4 4 0 0 0 4-4V49.446a4 4 0 0 0-4-4H78.785a4 4 0 0 0-4 4V62.88a4 4 0 0 0 4 4z" id="astjdwd1ch"/>
    </defs>
    <g fill="none" fill-rule="evenodd">
        <g transform="translate(6.193 3)">
            <use fill="#000" filter="url(#waig3ohgta)" xlink:href="#wvh3yaqunb"/>
            <use stroke="#312F4B" fill-opacity=".95" fill="#FFF" xlink:href="#wvh3yaqunb"/>
        </g>
        <g opacity=".2" stroke="#312F4B" stroke-dasharray="2,4" stroke-linecap="round">
            <path d="M129.597 43.534 77.61 186.367M32.187 88.957l142.833 51.987M71.484 46.072l64.238 137.758M34.724 147.07l137.759-64.238"/>
        </g>
        <g transform="translate(6.193 3)">
            <use fill="#000" filter="url(#j7lg890svc)" xlink:href="#qql3tbbbjd"/>
            <use fill="#E3ACB1" xlink:href="#qql3tbbbjd"/>
        </g>
        <g transform="translate(6.193 3)">
            <use fill="#000" filter="url(#sh7kz5m1ie)" xlink:href="#4tltfkw9gf"/>
            <use fill="#312F4B" xlink:href="#4tltfkw9gf"/>
        </g>
        <path d="M104.304 81.263c-18.599 0-33.73 15.131-33.73 33.73 0 18.6 15.131 33.732 33.73 33.732 18.6 0 33.731-15.132 33.731-33.731 0-18.6-15.132-33.731-33.731-33.731m0 68.76c-19.314 0-35.028-15.714-35.028-35.03 0-19.314 15.714-35.027 35.028-35.027 19.315 0 35.028 15.713 35.028 35.028 0 19.315-15.713 35.028-35.028 35.028" fill="#312F4B"/>
        <g transform="translate(6.193 3)">
            <use fill="#000" filter="url(#93ktrg555g)" xlink:href="#astjdwd1ch"/>
            <use fill="#CB6071" xlink:href="#astjdwd1ch"/>
        </g>
        <text font-family="NotoSansKR-Black, Noto Sans KR" font-size="15" font-weight="800" letter-spacing="-.938" fill="#FFF" transform="translate(6.193 3)">
                                <tspan x="84.944" y="62">질병</tspan>
                            </text>
        <text font-family="NotoSansKR-Medium, Noto Sans KR" font-size="15" font-weight="400" letter-spacing="-.938" fill="#FFF" transform="translate(6.193 3)">
                                <tspan x="84.807" y="110">근종</tspan>
                                <tspan x="84.807" y="128">방치</tspan>
                            </text>
        <g filter="url(#souq3nplji)" transform="translate(2 119.671)">
            <path d="M22.832 49.636a5.424 5.424 0 1 1-10.847 0 5.424 5.424 0 0 1 10.847 0" fill="#F39C5E"/>
            <path d="M20.911 49.636a3.502 3.502 0 1 1-7.004 0 3.502 3.502 0 0 1 7.004 0" fill="#CB6071"/>
            <path d="M27.578 57.094a5.423 5.423 0 1 1-10.847 0 5.423 5.423 0 0 1 10.847 0" fill="#F39C5E"/>
            <path d="M25.657 57.094a3.502 3.502 0 1 1-7.005 0 3.502 3.502 0 0 1 7.005 0" fill="#CB6071"/>
            <path d="M14.019 24.213a5.424 5.424 0 1 1-10.848 0 5.424 5.424 0 0 1 10.848 0" fill="#F39C5E"/>
            <path d="M12.098 24.213a3.502 3.502 0 1 1-7.005 0 3.502 3.502 0 0 1 7.005 0" fill="#CB6071"/>
            <path d="M35.63 64.063a5.424 5.424 0 1 1-10.848 0 5.424 5.424 0 0 1 10.848 0" fill="#F39C5E"/>
            <path d="M33.71 64.063a3.502 3.502 0 1 1-7.005 0 3.502 3.502 0 0 1 7.004 0" fill="#CB6071"/>
            <path d="M44.866 60.483a5.424 5.424 0 1 1-10.848 0 5.424 5.424 0 0 1 10.848 0" fill="#F39C5E"/>
            <path d="M42.945 60.483a3.502 3.502 0 1 1-7.005 0 3.502 3.502 0 0 1 7.005 0" fill="#CB6071"/>
            <path d="M37.35 54.908a5.423 5.423 0 1 1-10.747-1.458 5.423 5.423 0 0 1 10.748 1.458" fill="#F39C5E"/>
            <path d="M35.447 54.65a3.503 3.503 0 1 1-6.942-.943 3.503 3.503 0 0 1 6.942.943" fill="#CB6071"/>
            <path d="M48.242 52.794a5.423 5.423 0 1 1-10.748-1.458 5.423 5.423 0 0 1 10.748 1.458" fill="#F39C5E"/>
            <path d="M46.339 52.536a3.503 3.503 0 1 1-6.943-.943 3.503 3.503 0 0 1 6.943.943" fill="#CB6071"/>
            <path d="M56.68 46.072a5.423 5.423 0 1 1-10.748-1.459 5.423 5.423 0 0 1 10.748 1.459" fill="#F39C5E"/>
            <path d="M54.777 45.813a3.503 3.503 0 1 1-6.942-.943 3.503 3.503 0 0 1 6.942.943" fill="#CB6071"/>
            <path d="M48.884 43.925a5.423 5.423 0 1 1-10.748-1.458 5.423 5.423 0 0 1 10.748 1.458" fill="#F39C5E"/>
            <path d="M46.98 43.667a3.503 3.503 0 1 1-6.942-.943 3.503 3.503 0 0 1 6.943.943" fill="#CB6071"/>
            <path d="M59.166 37.032a5.423 5.423 0 1 1-10.748-1.458 5.423 5.423 0 0 1 10.748 1.458" fill="#F39C5E"/>
            <path d="M57.263 36.774a3.502 3.502 0 1 1-6.94-.94 3.502 3.502 0 0 1 6.94.94" fill="#CB6071"/>
            <path d="M56.455 21.666a5.423 5.423 0 1 1-10.749-1.459 5.423 5.423 0 0 1 10.749 1.459" fill="#F39C5E"/>
            <path d="M54.551 21.407a3.503 3.503 0 1 1-6.942-.943 3.503 3.503 0 0 1 6.942.943" fill="#CB6071"/>
            <path d="M29.902 45.62a5.424 5.424 0 1 1-10.75-1.46 5.424 5.424 0 0 1 10.75 1.46" fill="#F39C5E"/>
            <path d="M27.998 45.362a3.503 3.503 0 1 1-6.942-.943 3.503 3.503 0 0 1 6.942.943" fill="#CB6071"/>
            <path d="M20.75 40.196A5.423 5.423 0 1 1 10 38.738a5.423 5.423 0 0 1 10.75 1.458" fill="#F39C5E"/>
            <path d="M18.846 39.938a3.503 3.503 0 1 1-6.943-.943 3.503 3.503 0 0 1 6.943.943" fill="#CB6071"/>
            <path d="M48.206 25.96a5.423 5.423 0 1 1-10.748-1.46 5.423 5.423 0 0 1 10.748 1.46" fill="#F39C5E"/>
            <path d="M46.303 25.7a3.502 3.502 0 1 1-6.941-.94 3.502 3.502 0 0 1 6.94.94" fill="#CB6071"/>
            <path d="M39.988 45.471a5.423 5.423 0 0 1-6.104 4.645 5.423 5.423 0 1 1 1.459-10.749 5.423 5.423 0 0 1 4.645 6.104" fill="#F39C5E"/>
            <path d="M38.084 45.213a3.503 3.503 0 1 1-6.941-.942 3.503 3.503 0 0 1 6.941.942" fill="#CB6071"/>
            <path d="M53.68 59.466a5.424 5.424 0 1 1-10.849 0 5.424 5.424 0 0 1 10.848 0" fill="#F39C5E"/>
            <path d="M51.758 59.466a3.502 3.502 0 1 1-7.005 0 3.502 3.502 0 0 1 7.005 0" fill="#CB6071"/>
            <path d="M59.78 52.348a5.424 5.424 0 1 1-10.847 0 5.424 5.424 0 0 1 10.848 0" fill="#F39C5E"/>
            <path d="M57.86 52.348a3.502 3.502 0 1 1-7.005 0 3.502 3.502 0 0 1 7.005 0" fill="#CB6071"/>
            <path d="M60.32 39.47a5.424 5.424 0 1 1-.402 10.841 5.424 5.424 0 0 1 .403-10.84" fill="#F39C5E"/>
            <path d="M60.25 41.39a3.503 3.503 0 1 1-.26 7 3.503 3.503 0 0 1 .26-7" fill="#CB6071"/>
            <path d="M62.38 29.975a5.423 5.423 0 1 1-.402 10.84 5.423 5.423 0 0 1 .401-10.84" fill="#F39C5E"/>
            <path d="M62.308 31.895a3.503 3.503 0 1 1-.26 7 3.503 3.503 0 0 1 .26-7" fill="#CB6071"/>
            <path d="M43.146 10.997a5.424 5.424 0 1 1-.403 10.84 5.424 5.424 0 0 1 .403-10.84" fill="#F39C5E"/>
            <path d="M43.075 12.916a3.502 3.502 0 1 1-.26 7 3.502 3.502 0 0 1 .26-7" fill="#CB6071"/>
            <path d="M62.943 28.69a5.424 5.424 0 1 1-10.84-.402 5.424 5.424 0 0 1 10.84.402z" fill="#F39C5E"/>
            <path d="M57.653 24.99a3.503 3.503 0 1 1-.26 7 3.503 3.503 0 0 1 .26-7" fill="#CB6071"/>
            <path d="M54.238 19.773a5.424 5.424 0 1 1 10.694 1.824 5.424 5.424 0 0 1-10.694-1.824" fill="#F39C5E"/>
            <path d="M56.131 20.095a3.503 3.503 0 1 1 6.907 1.178 3.503 3.503 0 0 1-6.907-1.178" fill="#CB6071"/>
            <path d="M47.358 11.722a5.425 5.425 0 1 1 10.694 1.825 5.425 5.425 0 0 1-10.694-1.825" fill="#F39C5E"/>
            <path d="M49.251 12.045a3.503 3.503 0 1 1 6.907 1.178 3.503 3.503 0 0 1-6.907-1.178" fill="#CB6071"/>
            <path d="M38.184 6.03a5.424 5.424 0 1 1 10.694 1.825A5.424 5.424 0 0 1 38.184 6.03" fill="#F39C5E"/>
            <path d="M40.078 6.354a3.503 3.503 0 1 1 6.906 1.178 3.503 3.503 0 0 1-6.906-1.178" fill="#CB6071"/>
            <path d="M27.267 4.513a5.424 5.424 0 1 1 10.694 1.823 5.424 5.424 0 0 1-10.694-1.823" fill="#F39C5E"/>
            <path d="M29.161 4.836a3.503 3.503 0 1 1 6.906 1.177 3.503 3.503 0 0 1-6.906-1.177" fill="#CB6071"/>
            <path d="M20.564 13.552a5.424 5.424 0 1 1 2.218-10.618 5.424 5.424 0 0 1-2.218 10.618" fill="#F39C5E"/>
            <path d="M20.957 11.672a3.503 3.503 0 1 1 1.434-6.858 3.503 3.503 0 0 1-1.434 6.858" fill="#CB6071"/>
            <path d="M44.095 37.996a5.424 5.424 0 1 1 2.219-10.618 5.424 5.424 0 0 1-2.219 10.618" fill="#F39C5E"/>
            <path d="M44.488 36.116a3.503 3.503 0 1 1 1.434-6.858 3.503 3.503 0 0 1-1.434 6.858" fill="#CB6071"/>
            <path d="M37.133 38.05a5.423 5.423 0 0 1-6.104 4.644 5.423 5.423 0 1 1 1.46-10.748 5.424 5.424 0 0 1 4.644 6.103" fill="#F39C5E"/>
            <path d="M35.23 37.791a3.503 3.503 0 1 1-6.943-.943 3.503 3.503 0 0 1 6.943.943" fill="#CB6071"/>
            <path d="M34.421 22.682a5.423 5.423 0 0 1-6.103 4.645 5.423 5.423 0 1 1 1.458-10.748 5.423 5.423 0 0 1 4.645 6.103" fill="#F39C5E"/>
            <path d="M32.518 22.424a3.503 3.503 0 1 1-6.943-.943 3.503 3.503 0 0 1 6.943.943" fill="#CB6071"/>
            <path d="M35.325 12.4a5.423 5.423 0 1 1-10.748-1.458A5.423 5.423 0 0 1 35.325 12.4" fill="#F39C5E"/>
            <path d="M33.422 12.142a3.503 3.503 0 1 1-6.943-.943 3.503 3.503 0 0 1 6.943.943" fill="#CB6071"/>
            <path d="M26.173 26.976a5.423 5.423 0 0 1-6.104 4.645 5.423 5.423 0 1 1 1.459-10.749 5.423 5.423 0 0 1 4.645 6.104" fill="#F39C5E"/>
            <path d="M24.27 26.718a3.503 3.503 0 1 1-6.942-.942 3.503 3.503 0 0 1 6.941.942" fill="#CB6071"/>
            <path d="M21.112 12.013a5.423 5.423 0 1 1-.402 10.84 5.423 5.423 0 0 1 .402-10.84" fill="#F39C5E"/>
            <path d="M21.041 13.933a3.503 3.503 0 1 1-.26 7 3.503 3.503 0 0 1 .26-7" fill="#CB6071"/>
            <path d="M35.69 24.087a5.424 5.424 0 1 1-.402 10.84 5.424 5.424 0 0 1 .403-10.84" fill="#F39C5E"/>
            <path d="M35.62 26.006a3.503 3.503 0 1 1-.26 7 3.503 3.503 0 0 1 .26-7" fill="#CB6071"/>
            <path d="M22.062 39.013a5.424 5.424 0 1 1 2.218-10.618 5.424 5.424 0 0 1-2.218 10.618" fill="#F39C5E"/>
            <path d="M22.455 37.133a3.502 3.502 0 1 1 1.431-6.857 3.502 3.502 0 0 1-1.431 6.857" fill="#CB6071"/>
            <path d="M33.926 24.098a5.423 5.423 0 1 1 2.219-10.617 5.423 5.423 0 0 1-2.219 10.617" fill="#F39C5E"/>
            <path d="M34.319 22.218a3.502 3.502 0 1 1 1.432-6.857 3.502 3.502 0 0 1-1.432 6.857" fill="#CB6071"/>
            <path d="M12.57 23.081a5.424 5.424 0 1 1 2.22-10.619 5.424 5.424 0 0 1-2.22 10.62" fill="#F39C5E"/>
            <path d="M12.963 21.201a3.503 3.503 0 1 1 1.433-6.857 3.503 3.503 0 0 1-1.433 6.857" fill="#CB6071"/>
            <path d="M11.893 35.284a5.424 5.424 0 1 1 2.218-10.618 5.424 5.424 0 0 1-2.218 10.618" fill="#F39C5E"/>
            <path d="M12.286 33.404a3.503 3.503 0 1 1 1.432-6.857 3.503 3.503 0 0 1-1.432 6.857" fill="#CB6071"/>
            <path d="M4.316 39.939A5.424 5.424 0 1 1 6.534 29.32 5.424 5.424 0 0 1 4.316 39.94" fill="#F39C5E"/>
            <path d="M4.709 38.059A3.503 3.503 0 1 1 6.14 31.2 3.503 3.503 0 0 1 4.71 38.06" fill="#CB6071"/>
            <path d="M6.047 49.881a5.424 5.424 0 1 1 2.218-10.618A5.424 5.424 0 0 1 6.047 49.88" fill="#F39C5E"/>
            <path d="M6.44 48a3.503 3.503 0 1 1 1.433-6.857 3.503 3.503 0 0 1-1.433 6.858" fill="#CB6071"/>
        </g>
    </g>
</svg>
