<svg width="200" height="200" viewBox="0 0 200 200" xmlns="http://www.w3.org/2000/svg" xmlns:xlink="http://www.w3.org/1999/xlink">
    <defs>
        <path id="d720jiw17a" d="M0 0h25.72v30.119H0z"/>
    </defs>
    <g fill="none" fill-rule="evenodd">
        <path d="M104.61 8.565c-48.923 0-74.82 43.97-88.583 88.583-13.764 44.612 33.325 77.79 88.583 88.583 55.258 10.793 83.349-37.221 88.583-88.583 5.234-51.362-39.66-88.583-88.583-88.583z" fill="#353252" opacity=".2"/>
        <path d="M97.61 187.263c48.922 0 74.818-43.971 88.582-88.583 13.764-44.613-33.325-77.79-88.583-88.583C42.351-.697 14.26 47.317 9.026 98.68c-5.234 51.362 39.66 88.583 88.583 88.583z" fill="#FFF"/>
        <path d="M114.215 117.17c.265-.56 2.608.452 4.107.899 7.752 2.308 27.945 14.686 35.446 14.24 1.738-.103 4.857-.412 7.88-3.438 2.84-2.844 5.67-8.35 4.987-10.414-1.542-4.67-10.612-8.872-15.582-9.81-1.366-.258-3.198 1.883-3.542 1.729-1.93-.87-6.456-3.569-11.004-6.857-7.677-5.552-16.17-12.593-17.824-13.97-2.089-1.74-6.238-4.086-10.048-5.33-2.836-.926-5.633-.876-6.448-1.463-1.53-1.105-4.766-1.657-6.402-2.502-2.586-1.334-4.53-4.175-7.293-4.54-4.052-.533-11.126 15.628-14.7 15.628-2.362 0-6.879-17.982-8.573-16.717-1.62 1.209-4.261 3.682-5.905 5.466-.397.431-7.56 2.596-13.465 4.797-3.838 1.43-7.28 3.158-7.53 3.466-2.802 3.442-15.032 24.831-22.025 39.357-2.954 6.137-5.73 11.819-5.242 13.158.185.507 2.044 4.753 3.542 7.07 5.637 8.723 18.026 24.292 21.394 27.41.81.75.644-1.89 1.613-2.764 2.883-2.601 6.823-7.93 5.767-9.24-3.897-4.838-6.97-10.654-10.228-16.259-1.425-2.45-3.128-4.312-2.856-4.468.972-.557 5.087-9.654 8.652-16.183 2.717-4.98 5.202-7.97 5.202-7.462 0 .583-.097 3.227-.09 3.957.058 6.363 1.907 17.738 2.1 27.444.187 9.372-1.274 17.167-1.684 18.523-.885 2.923-1.064 5.956-1.35 8.181-.959 7.457-.909 15.951-.909 15.951s13.18 3.712 29.929 3.761c16.749.047 37.066-3.57 37.066-3.57s-1.288-10.776-2.728-22.071c-1.181-9.266-2.623-19.202-2.181-21.108.733-3.162 2.642-8.838 3.185-11.923.813-4.636 3.258-12.667 4.978-17.282.596-1.602 1.631-3.393 1.76-3.667" fill="#FEFEFE"/>
        <path d="M38.715 175.087s.722.858 1.365.714c.644-.143 1.352-.311 1.686.141.333.454 1.12 1.883 1.834 2.693.715.81 1.199 1.853 2.01 1.543.809-.309 1.112-.613.493-1.996-.62-1.382-2.05-3.193-2.622-3.884-.572-.69-.31-.833-.048-1.787.263-.953.715-1.668 1.383-1.358.667.31 2.478 2.025 2.859 2.335.381.31 1.978 1.763 2.597 2.026.62.261 1.693.595 1.978.095.286-.5.501-.858-.095-1.835-.595-.977-1.668-2.336-2.811-3.67-1.145-1.335-2.765-2.86-3.456-3.074-.691-.214-.81-.882-.262-1.096.548-.214 1.143-.071 1.859.334.714.405 2.787 2.216 3.645 2.811.858.597 1.835 1.526 2.646 1.43.81-.095 1.381-.81 1.191-1.572-.19-.763-.881-2.025-1.812-2.908a136.332 136.332 0 0 0-3.764-3.383c-.81-.692-.573-1.478-.119-1.454.452.024 1.072.19 1.906 1.072.834.882 2.193 2.407 3.121 2.716.93.31 1.716.549 2.097-.07.382-.62.334-1.573-.31-2.193-.643-.62-2.406-2.788-3.216-3.503-.81-.715-2.407-1.573-2.978-1.763-.573-.19-1.669.238-2.145.715-.477.476-1.613 2.02-2.482 3.45-.87 1.427-2.16 2.758-2.732 3.259-.572.5-1.912.249-2.269 1.607-.358 1.358-.906 3.86-1.358 5.172-.454 1.31-.191 3.433-.191 3.433" fill="#FAD8C9"/>
        <path d="M84.423 166.781s-.667-8.802-.667-10.85c0-2.044-.619-11.56-.332-15.89.285-4.331.095-10.66.142-14.037.048-3.38.524-14.751.714-17.415.19-2.665 1.047-12.086 1.285-13.37.237-1.285.57-5.234 1.142-6.757.57-1.523 2.093-5.9 2.427-7.471.333-1.57.713-2.379-.048-3.759-.762-1.38-.857-1.903-2.141-2.664-1.285-.761-4.045.904-5.806.76-1.76-.142-12.56-2.14-13.845-1.95-1.286.19-2.057.851-2.39 1.948-.335 1.097-.668 2.862-.764 4.292-.095 1.431-.333 6.868-.619 9.348-.287 2.48-.573 11.684-.858 13.973-.287 2.289-.382 12.638-.668 15.928-.287 3.291-.525 14.88-.811 17.646-.287 2.765-.525 10.348-.62 12.208-.096 1.86-.179 10.142-.288 12.343-.11 2.2.11 7.318.11 7.318s5.758.79 11.767.39c6.01-.4 12.27-1.99 12.27-1.99M38.718 174.728s1.418-4.568 1.73-5.583c.312-1.016 1.644-4.376 1.644-4.376s-1.762 1.345-2.078 1.917c-.316.572-1.265 2.787-1.668 3.625-.402.84-.919 2.191-1.153 2.773-.234.581.058.699.456 1.077.399.378 1.069.567 1.069.567" fill="#93D3EC"/>
        <path d="M98.2 49.624c-.916-4.541-2.124-10.353-4.891-15.077-1.921-3.28-4.98-5.999-7.609-7.561-3.575-2.123-8.452-3.461-12.208-2.71-2.146.428-4.04 2.135-5.103 2.875-.329.23-1.539-.51-3.324.147-1.673.617-3.88 2.57-5.517 4.566-1.29 1.573-2.513 3.972-3.189 6.655-.502 1.995-.562 4.23-.871 5.96-1.316 7.358-1.17 12.35-.311 17.784.11.704 1.087 4.139 1.897 5.36.821 1.235 1.403.263 1.684.837.708 1.45 3.015 1.997 5.113 2.785 1.568.589 2.959 1.594 3.798 1.686 3.065.338 14.58-2.198 17.867-.856 1.618.661 3.687.139 5.262.013 1.399-.111 3.958-1.345 4.99-2.46 1.2-1.296 2.72-4.021 3.121-7.875.467-4.47-.313-10.159-.71-12.13" fill="#564762"/>
        <path d="M92.914 56.751c0-.977.156-2.133-.26-3.031-.19-.411-1.004.224-2.039.16-1.214-.074-2.684-.835-3.083-1.26-1.281-1.365-3.25-3.87-5.302-6.874-2.804-4.108-5.875-8.957-8.585-11.367-1.373-1.22-2.706-1.2-4.043-.725-.369.131-.829 1.699-1.302 3.674-.397 1.654-1.968 6.486-3.42 9.84-1.203 2.775-2.256 4.13-3.1 5.478-.386.615.212 2.69-.234 2.956-.745.444-2.087-1.636-2.918-1.855-.778-.205-1.071 1.434-1.071 2.227 0 .575.799 3.076 1.712 4.362 1.059 1.491 2.387 1.608 3.094 2.11.092.064.815 2.427 2.073 4.337 1.082 1.643 2.539 2.85 2.92 4.214.25.889-.604 6.26-1.207 7.791-.2.508.614 1.523 1.493 3.635 1.086 2.608 3.268 5.267 4.747 7.539.934 1.435 1.199 3.182 1.961 3.182.693 0 2.725-4.721 3.405-5.589 1.324-1.687 8.015-5.048 9.001-8.26.437-1.423.286-2.902-.92-4.216-.807-.88-.045-4.211.096-5.7.113-1.19 1.796-2.408 2.51-3.678.912-1.622.951-3.246 1.748-4.12.654-.72 1.673-.45 2.173-1.11.92-1.216.551-2.777.551-3.72" fill="#FAD8C9"/>
        <path d="M87.173 56.856c0-1.118-1.432-2.023-3.2-2.023-1.766 0-3.198.905-3.198 2.023 0 1.116 1.432 2.022 3.198 2.022 1.768 0 3.2-.906 3.2-2.022M70.445 56.97c0-1.117-1.433-2.023-3.2-2.023-1.766 0-3.198.906-3.198 2.022 0 1.118 1.432 2.023 3.198 2.023 1.767 0 3.2-.905 3.2-2.023M76.455 57.027c0-.464-.21-1.225-.53-2.002-.453-1.092-1.06-2.128-1.024-1.631.092 1.279-.869 2.745-.869 3.861 0 1.117.428 1.714 1.28 1.714.853 0 1.143-.825 1.143-1.942" fill="#E7B9BC"/>
        <g transform="translate(60.239 166.881)">
            <mask id="rp1sl6ezdb" fill="#fff">
                <use xlink:href="#d720jiw17a"/>
            </mask>
            <path d="M25.72 29.434 24.245 0S17.932 1.302 11.87 1.595c-2.304.111-5.595.517-7.522.432C1.21 1.887 0 1.172 0 1.172L.068 29.46s5.563.676 11.933.66c6.37-.016 13.719-.685 13.719-.685" fill="#636362" mask="url(#rp1sl6ezdb)"/>
        </g>
        <path d="M189.653 33.036c0-16.266-13.192-29.452-29.465-29.452-16.272 0-29.465 13.186-29.465 29.452 0 16.266 13.193 29.452 29.465 29.452 16.273 0 29.465-13.186 29.465-29.452" fill="#FEFEFE"/>
        <path fill="#C6C5C5" d="m162.68 134.441-.067-71.941-4.027.134.093 71.552.76 1.299 2.287-.007z"/>
        <path d="M162.734 121.43s.968-1.387 1.774-2.128c.806-.742 2.999-2.45 3.836-3.45.84-1 1.903-3.097 2-4.257.096-1.161-.193-2.128.354-2.902.548-.775 1.387-2.193 1.033-3.064-.355-.87-.645-1.226-.226-2.225.419-1 .58-1.838-.065-2.677-.645-.838-1.644-1.773-2.257-2.096-.612-.322-.839-.902-.71-1.903.13-.999-.612-1.837-1.29-2.128-.677-.29-2.192-.548-3.353-.451-1.161.097-2.612.226-3.58.483-.967.26-1.45.13-2.418-.547-.967-.678-2.418-1.484-3.128-1.516-.71-.032-1.967-.129-2.676.419-.71.549-1.355 1.42-1.451 2.418-.097 1-.161 2.065-.356 3.032-.193.967-.74 1.935-.806 3.128-.064 1.193.097 2 .452 3.257.354 1.258.838 2.064.742 3.257-.097 1.193-.323 1.161-.355 2.612-.033 1.451-.13 1.902.451 3.031.581 1.129 1.484 2.451 2.161 3.418.678.968 2.128 2.548 2.773 3.032.645.483 2.935 1.548 2.935 1.548l.128-6.515 1.871-1.064 2.096-.064.065 7.352z" fill="#FAD8C9"/>
        <path d="M79.543 63.99c-1.39-1.499-4.594-1.432-6.578-.999-.685.149-1.282.475-1.931.718-.332.125-1.226.173-.975.424.295.294 2.322-.058 2.668-.094.846-.087 1.703-.241 2.558-.203 1.074.048 2.188-.038 3.255.09.228.027 1.17.244 1.003.064M78.965 65.232c-1.38 2.301-5.249 2.489-7.322 1.108-.481-.32-.852-1.375-1.363-1.545-.156-.052.148.294.221.441.162.325.308.62.515.92.54.779 1.426 1.713 2.357 1.986 2.41.707 5.37-1.1 6.088-3.26l-.496.35zM75.015 42.714l-.422.202.422-.202z" fill="#DA9198"/>
        <path d="M79.71 64.11s-2.359-.233-4.968-.233c-2.607 0-4.621.282-4.621.282s1.207 3.102 4.642 3.195c3.31.088 4.947-3.244 4.947-3.244" fill="#CB6071"/>
        <path d="M75.533 75.367c2.707 0 6.083-1.656 9.089-4.47 3.382-3.165 5.46-6.982 5.559-10.208a.532.532 0 0 0-.515-.546h-.016a.53.53 0 0 0-.53.513c-.088 2.907-2.09 6.534-5.223 9.467-2.847 2.666-6.133 4.267-8.558 4.18-6.483-.234-12.865-9.419-13.255-13.829a.53.53 0 1 0-1.057.093c.428 4.842 7.156 14.54 14.273 14.796.077.003.155.004.233.004" fill="#312F4B"/>
        <path d="M75.533 75.422a5.56 5.56 0 0 1-.235-.005c-7.144-.257-13.896-9.987-14.325-14.845a.586.586 0 0 1 1.165-.103c.389 4.394 6.746 13.546 13.203 13.78 2.418.085 5.682-1.51 8.519-4.166 3.123-2.923 5.117-6.536 5.205-9.428a.583.583 0 0 1 .605-.567c.32.01.574.28.565.603-.099 3.24-2.183 7.071-5.576 10.247-3 2.807-6.412 4.484-9.126 4.484M61.556 60.045l-.043.002a.475.475 0 0 0-.43.516c.426 4.824 7.129 14.49 14.22 14.745.075.003.153.004.23.004 2.687 0 6.07-1.665 9.051-4.455 3.372-3.156 5.443-6.958 5.541-10.17a.477.477 0 0 0-.46-.49l-.015-.054v.054a.474.474 0 0 0-.476.46c-.088 2.921-2.095 6.564-5.24 9.506-2.857 2.675-6.153 4.28-8.597 4.195-6.51-.235-12.916-9.453-13.308-13.879a.47.47 0 0 0-.169-.322.472.472 0 0 0-.304-.112M84.719 53.153a.425.425 0 0 0 .146-.822c-1.983-.728-3.575-.732-4.73-.012a.424.424 0 1 0 .449.72c.921-.575 2.264-.545 3.988.088a.41.41 0 0 0 .147.026" fill="#312F4B"/>
        <path d="M84.719 53.208a.456.456 0 0 1-.166-.03c-1.709-.627-3.034-.658-3.94-.092a.477.477 0 0 1-.66-.154.478.478 0 0 1 .153-.66c1.17-.73 2.778-.727 4.778.007a.48.48 0 0 1-.165.929m-2.538-.634c.695 0 1.5.167 2.41.501a.373.373 0 0 0 .475-.22.37.37 0 0 0-.22-.473c-1.967-.722-3.542-.727-4.682-.016a.367.367 0 0 0-.118.508.366.366 0 0 0 .509.119c.447-.28.99-.42 1.626-.42" fill="#312F4B"/>
        <path d="M83.392 54.287c.02-.705-.466-1.29-1.089-1.31-.622-.019-1.143.538-1.165 1.241-.021.706.466 1.293 1.089 1.311.622.02 1.144-.537 1.165-1.242" fill="#312F4B"/>
        <path d="M82.258 55.584h-.034a1.11 1.11 0 0 1-.825-.418 1.414 1.414 0 0 1-.316-.949c.023-.734.57-1.32 1.222-1.295.651.02 1.163.633 1.142 1.367-.01.354-.143.684-.372.928a1.115 1.115 0 0 1-.817.367zm.014-2.552c-.577 0-1.058.526-1.08 1.188-.01.328.094.639.29.876.196.236.46.37.746.378a.999.999 0 0 0 .766-.332c.211-.225.333-.529.343-.856.02-.674-.444-1.236-1.035-1.254h-.03zM74.595 59.24a.424.424 0 0 0 .201-.799c-1.047-.564-.835-1.187-.334-2.33.175-.4.357-.815.428-1.222.156-.896.054-1.692-.147-2.612a.425.425 0 0 0-.828.18c.184.846.271 1.525.139 2.287-.053.306-.206.656-.369 1.026-.454 1.037-1.077 2.457.71 3.419.063.034.132.05.2.05" fill="#312F4B"/>
        <path d="M74.595 59.294a.472.472 0 0 1-.227-.057c-1.83-.986-1.196-2.432-.733-3.489.16-.367.313-.714.365-1.014.131-.753.044-1.426-.14-2.266a.478.478 0 1 1 .936-.203c.203.926.306 1.728.148 2.633-.072.413-.253.829-.43 1.23-.503 1.148-.698 1.723.309 2.265a.48.48 0 0 1-.228.901m-.265-7.297a.369.369 0 0 0-.362.448c.186.853.274 1.537.14 2.308-.054.313-.209.666-.372 1.04-.446 1.016-1.057 2.41.685 3.347a.367.367 0 0 0 .5-.15.37.37 0 0 0-.15-.5c-1.089-.586-.859-1.26-.359-2.401.176-.4.355-.81.424-1.21.155-.887.053-1.677-.146-2.59a.369.369 0 0 0-.36-.292M60.853 59.506a.424.424 0 0 0 .392-.587c-.443-1.063-1.236-1.916-2.12-2.28a.424.424 0 1 0-.323.785c.802.33 1.383 1.157 1.66 1.82a.423.423 0 0 0 .391.262" fill="#312F4B"/>
        <path d="M60.853 59.56a.478.478 0 0 1-.442-.294c-.273-.654-.844-1.468-1.63-1.791a.477.477 0 0 1-.26-.626.48.48 0 0 1 .625-.26c.898.37 1.701 1.232 2.15 2.308a.477.477 0 0 1-.443.664m-1.888-2.898a.37.37 0 0 0-.142.71c.817.336 1.408 1.176 1.69 1.85a.367.367 0 0 0 .482.2.37.37 0 0 0 .199-.484c-.437-1.05-1.218-1.89-2.09-2.249a.363.363 0 0 0-.14-.027M61.602 57.096a.53.53 0 0 0 .527-.596c-.292-2.326-.154-3.15-.082-3.395a.528.528 0 0 0-.358-.659.528.528 0 0 0-.658.358c-.203.685-.187 1.972.045 3.827a.531.531 0 0 0 .526.465" fill="#312F4B"/>
        <path d="M61.602 57.15a.586.586 0 0 1-.58-.512c-.234-1.864-.249-3.16-.044-3.85a.579.579 0 0 1 .727-.395.58.58 0 0 1 .395.728c-.072.243-.207 1.057.083 3.371a.583.583 0 0 1-.581.659m-.065-4.672a.476.476 0 0 0-.454.34c-.2.676-.184 1.957.047 3.805a.476.476 0 0 0 .944-.118c-.292-2.334-.153-3.167-.08-3.416a.474.474 0 0 0-.457-.611M65.568 53.305c.052 0 .103-.009.153-.028 1.713-.66 3.055-.71 3.986-.15a.424.424 0 0 0 .438-.727c-1.169-.704-2.759-.675-4.73.085a.424.424 0 0 0 .153.82" fill="#312F4B"/>
        <path d="M65.568 53.36a.477.477 0 0 1-.173-.926c1.988-.766 3.595-.794 4.778-.081a.475.475 0 0 1 .163.657.476.476 0 0 1-.657.164c-.917-.552-2.242-.5-3.938.154a.471.471 0 0 1-.173.032m2.605-1.412c-.805 0-1.72.196-2.737.588a.368.368 0 0 0-.212.478.371.371 0 0 0 .477.212c1.73-.667 3.087-.717 4.034-.147a.367.367 0 0 0 .507-.125.372.372 0 0 0-.125-.508c-.553-.332-1.202-.498-1.944-.498" fill="#312F4B"/>
        <path d="M69.148 54.4c.02-.705-.466-1.29-1.089-1.31-.622-.018-1.144.538-1.165 1.243-.021.704.466 1.291 1.089 1.31.622.018 1.144-.538 1.165-1.243" fill="#312F4B"/>
        <path d="m68.014 55.698-.034-.001a1.11 1.11 0 0 1-.825-.418 1.412 1.412 0 0 1-.316-.948c.022-.734.569-1.315 1.222-1.296.651.02 1.163.634 1.142 1.367-.01.354-.143.684-.373.929a1.115 1.115 0 0 1-.816.367zm.016-2.553c-.58 0-1.061.527-1.082 1.19-.009.327.094.637.291.875.195.235.46.369.745.377.284.009.557-.109.766-.332.211-.224.333-.528.343-.856.02-.673-.444-1.236-1.035-1.254h-.028zM90.29 54.542h.023a.53.53 0 0 0-.004-1.061h-.02c-2.93 0-6.278-5.189-9.515-10.209-3.979-6.167-7.736-11.996-11.57-10.053a.53.53 0 0 0 .48.946c2.981-1.51 6.65 4.181 10.199 9.682 3.547 5.5 6.899 10.694 10.406 10.695" fill="#312F4B"/>
        <path d="M90.29 54.597c-3.54-.001-6.898-5.208-10.454-10.72-3.535-5.483-7.19-11.15-10.127-9.663a.584.584 0 0 1-.82-.704.58.58 0 0 1 .29-.34c3.876-1.965 7.647 3.88 11.638 10.068 3.233 5.011 6.571 10.188 9.472 10.188h.023a.586.586 0 0 1 .001 1.17h-.024zm0-.11h.023a.473.473 0 0 0 .472-.479.477.477 0 0 0-.476-.472h-.02c-2.96 0-6.316-5.203-9.56-10.234-3.968-6.15-7.71-11.954-11.5-10.034a.474.474 0 1 0 .43.848c3.025-1.532 6.707 4.178 10.268 9.7 3.54 5.488 6.884 10.67 10.362 10.671zM89.895 61.916a.54.54 0 0 0 .153-.022 6.238 6.238 0 0 0 1.779-.864.53.53 0 1 0-.608-.869 5.163 5.163 0 0 1-1.477.717.53.53 0 0 0 .153 1.038" fill="#312F4B"/>
        <path d="M89.895 61.971a.586.586 0 0 1-.169-1.146 5.08 5.08 0 0 0 1.461-.71.58.58 0 0 1 .815.145.58.58 0 0 1 .097.438.58.58 0 0 1-.24.377 6.261 6.261 0 0 1-1.795.871.593.593 0 0 1-.169.025m1.627-1.852a.47.47 0 0 0-.271.087c-.46.322-.962.565-1.493.725a.476.476 0 0 0 .274.91 6.162 6.162 0 0 0 1.763-.856.475.475 0 0 0-.273-.866M91.212 54.552a.53.53 0 0 0 .427-.216c.089-.12.18-.23.275-.327a.53.53 0 0 0-.767-.733 4.577 4.577 0 0 0-.361.43.53.53 0 0 0 .426.846" fill="#312F4B"/>
        <path d="M91.212 54.607a.579.579 0 0 1-.347-.115.585.585 0 0 1-.123-.819c.118-.159.241-.306.366-.436a.585.585 0 0 1 .845.81 3.431 3.431 0 0 0-.27.322.58.58 0 0 1-.471.238m.318-1.44c-.125 0-.25.05-.343.146-.121.127-.241.27-.357.426a.476.476 0 0 0 .765.565c.089-.12.183-.233.279-.333a.477.477 0 0 0-.344-.804M61.386 62.745a.531.531 0 0 0 .09-1.053c-.932-.163-1.883-.978-2.608-2.237-.95-1.65-1.32-3.717-.877-4.916.055-.153.15-.337.276-.35.438-.047 1.486.973 1.806 1.51a.53.53 0 1 0 .912-.542c-.213-.356-1.547-2.142-2.815-2.023-.375.034-.882.242-1.175 1.038-.55 1.493-.158 3.883.954 5.812.896 1.555 2.084 2.532 3.345 2.753.031.005.062.008.092.008" fill="#312F4B"/>
        <path d="M61.386 62.8a.543.543 0 0 1-.102-.01c-1.278-.223-2.48-1.21-3.382-2.779-1.12-1.941-1.514-4.35-.958-5.858.302-.823.83-1.038 1.22-1.074 1.286-.118 2.608 1.614 2.868 2.05.08.134.102.291.063.443a.58.58 0 0 1-.268.359.583.583 0 0 1-.801-.204c-.327-.55-1.357-1.525-1.753-1.482-.077.007-.16.12-.23.313-.438 1.184-.07 3.232.872 4.87.717 1.244 1.654 2.05 2.571 2.21a.586.586 0 0 1-.1 1.162m-3.094-9.617c-.04 0-.078.002-.117.005-.359.033-.845.234-1.128 1.003-.545 1.479-.154 3.85.95 5.766.886 1.54 2.061 2.508 3.307 2.726a.476.476 0 0 0 .163-.937c-.949-.166-1.913-.991-2.647-2.264-.957-1.663-1.328-3.75-.88-4.962.089-.244.197-.373.322-.385.474-.05 1.538.998 1.858 1.536a.475.475 0 1 0 .817-.486c-.203-.34-1.448-2.002-2.645-2.002M90.732 58.478c.182 0 .35-.118.406-.3.139-.454.32-.767.59-1.016a.424.424 0 1 0-.575-.624c-.381.351-.644.794-.827 1.392a.425.425 0 0 0 .406.548" fill="#312F4B"/>
        <path d="M90.732 58.533a.48.48 0 0 1-.459-.619c.187-.608.454-1.058.843-1.416a.48.48 0 0 1 .65.704c-.262.241-.44.547-.575.991a.478.478 0 0 1-.459.34m.709-2.052a.37.37 0 0 0-.25.098c-.374.344-.632.779-.813 1.367a.37.37 0 0 0 .708.215c.142-.464.328-.784.604-1.04a.367.367 0 0 0 .022-.521.366.366 0 0 0-.271-.12M85.407 47.592a.424.424 0 0 0 .178-.81c-1.902-.88-5.37-1.477-7.122-.054a.424.424 0 1 0 .536.659c1.39-1.13 4.51-.63 6.23.165a.42.42 0 0 0 .178.04" fill="#312F4B"/>
        <path d="M85.407 47.646a.475.475 0 0 1-.201-.044c-1.706-.79-4.8-1.289-6.172-.173a.481.481 0 0 1-.78-.42.477.477 0 0 1 .175-.324c1.77-1.438 5.264-.838 7.18.047a.48.48 0 0 1-.202.914m-3.984-.972c1.341 0 2.824.363 3.83.828a.371.371 0 0 0 .49-.18.37.37 0 0 0-.181-.49c-1.89-.874-5.33-1.47-7.064-.061a.368.368 0 1 0 .466.573c.59-.48 1.488-.67 2.459-.67M64.686 47.777a.426.426 0 0 0 .225-.065c2-1.25 4.952-1.345 6.158-.592a.424.424 0 1 0 .449-.72c-1.445-.902-4.698-.882-7.057.593a.424.424 0 0 0 .225.784" fill="#312F4B"/>
        <path d="M64.686 47.831a.478.478 0 0 1-.254-.885c2.375-1.484 5.656-1.503 7.115-.592a.478.478 0 0 1-.147.874.47.47 0 0 1-.36-.061c-1.192-.744-4.117-.648-6.1.592a.477.477 0 0 1-.254.072m4.145-1.987c-1.407 0-3.016.367-4.34 1.195a.37.37 0 1 0 .391.626c2.016-1.26 4.997-1.352 6.216-.592a.368.368 0 0 0 .555-.396.369.369 0 0 0-.164-.23c-.621-.388-1.58-.603-2.658-.603M68.409 33.745a.53.53 0 0 0 .463-.788c-.926-1.668-1.28-3.063-.945-3.73a.53.53 0 1 0-.95-.474c-.646 1.293.17 3.28.967 4.719a.531.531 0 0 0 .465.273" fill="#312F4B"/>
        <path d="M68.409 33.8a.588.588 0 0 1-.513-.302c-.804-1.45-1.625-3.456-.967-4.77a.586.586 0 0 1 1.048.523c-.327.652.026 2.027.943 3.68a.587.587 0 0 1-.511.869m-.96-5.286a.472.472 0 0 0-.422.264c-.636 1.271.174 3.24.965 4.667a.478.478 0 0 0 .646.185.477.477 0 0 0 .186-.646c-.934-1.685-1.288-3.098-.946-3.781a.476.476 0 0 0-.428-.69M60.664 53.544c.07 0 .141-.014.209-.042 3.743-1.605 7.502-15.621 7.947-18.74a.53.53 0 0 0-1.05-.15c-.633 4.437-4.495 16.706-7.315 17.914a.531.531 0 0 0 .209 1.018" fill="#312F4B"/>
        <path d="M60.664 53.6a.585.585 0 0 1-.23-1.124c2.804-1.202 6.65-13.443 7.282-17.872a.577.577 0 0 1 .229-.386.585.585 0 0 1 .93.551c-.446 3.125-4.219 17.17-7.98 18.783a.581.581 0 0 1-.231.047m7.63-19.388a.472.472 0 0 0-.469.409c-.635 4.446-4.513 16.742-7.348 17.956a.477.477 0 0 0 .187.913.473.473 0 0 0 .187-.038c3.724-1.596 7.47-15.584 7.915-18.697a.476.476 0 0 0-.473-.543M90.635 64.27a.528.528 0 0 0 .354-.135c3.43-3.06 2.294-12.323-.788-19.511a.53.53 0 1 0-.974.418c2.87 6.695 4.09 15.596 1.055 18.301a.531.531 0 0 0 .353.926" fill="#312F4B"/>
        <path d="M90.635 64.324a.586.586 0 0 1-.389-1.022c3.016-2.689 1.792-11.561-1.07-18.239a.586.586 0 0 1 1.076-.46c3.09 7.205 4.223 16.497.773 19.573a.58.58 0 0 1-.39.148m-.922-19.966a.476.476 0 0 0-.436.662c2.877 6.712 4.094 15.642 1.042 18.364a.473.473 0 0 0-.038.671.489.489 0 0 0 .67.039c3.413-3.043 2.274-12.278-.8-19.448a.475.475 0 0 0-.438-.288" fill="#312F4B"/>
        <path d="M94.622 70.718c.08 0 .16-.018.236-.055 1.495-.748 2.627-2.35 3.364-4.764 2.419-7.923 0-23.315-5.074-32.293-2.269-4.015-8.224-8.847-14.794-9.896-4.165-.665-7.866.353-10.704 2.943a.53.53 0 0 0 .715.784c2.592-2.366 5.988-3.293 9.822-2.68 6.242.997 11.891 5.572 14.037 9.37 4.958 8.772 7.334 23.767 4.984 31.462-.649 2.124-1.6 3.512-2.824 4.124a.53.53 0 0 0 .238 1.005" fill="#312F4B"/>
        <path d="M94.622 70.773a.584.584 0 0 1-.262-1.108c1.21-.606 2.151-1.983 2.795-4.092 2.346-7.682-.027-22.657-4.979-31.418-2.139-3.787-7.772-8.35-13.998-9.343-3.816-.61-7.197.312-9.776 2.666a.586.586 0 0 1-.79-.865c2.852-2.602 6.57-3.625 10.75-2.957 6.586 1.052 12.559 5.897 14.834 9.923 5.08 8.989 7.501 24.402 5.078 32.336-.74 2.428-1.882 4.042-3.391 4.797a.594.594 0 0 1-.26.061M75.937 24.52c.733 0 1.487.061 2.258.184 6.259 1 11.924 5.589 14.076 9.399 4.964 8.781 7.341 23.797 4.988 31.503-.653 2.14-1.613 3.539-2.851 4.158a.472.472 0 0 0-.213.638.475.475 0 0 0 .637.212c1.482-.74 2.604-2.332 3.336-4.73 2.416-7.911 0-23.282-5.069-32.25-2.262-4.003-8.203-8.822-14.754-9.869-4.148-.662-7.833.351-10.66 2.93a.473.473 0 0 0-.03.671.476.476 0 0 0 .672.031c2.084-1.9 4.683-2.877 7.61-2.877" fill="#312F4B"/>
        <path d="M57.771 69.485a.529.529 0 0 0 .393-.887c-3.825-4.2-4.45-13.983-1.863-29.078.576-3.359 3.436-8.516 6.776-10.84 1.385-.963 2.698-1.339 3.898-1.113a.531.531 0 0 0 .196-1.043c-1.489-.28-3.07.153-4.7 1.286-3.674 2.555-6.606 7.975-7.216 11.53-2.683 15.651-1.987 25.455 2.124 29.972a.53.53 0 0 0 .392.173" fill="#312F4B"/>
        <path d="M57.771 69.54a.587.587 0 0 1-.432-.19C53.214 64.818 52.515 55 55.2 39.33c.612-3.567 3.554-9.003 7.239-11.566 1.641-1.141 3.237-1.578 4.742-1.295a.586.586 0 0 1-.217 1.15c-1.186-.222-2.483.15-3.857 1.106-3.328 2.315-6.179 7.455-6.753 10.804-2.585 15.077-1.962 24.844 1.849 29.03a.587.587 0 0 1-.433.98m8.513-43.044c-1.214 0-2.482.455-3.781 1.359-3.662 2.547-6.586 7.95-7.193 11.495-2.68 15.633-1.99 25.421 2.11 29.925.17.187.486.2.672.031a.476.476 0 0 0 .031-.671c-3.835-4.213-4.467-14.012-1.876-29.125.578-3.37 3.448-8.543 6.798-10.874 1.4-.974 2.725-1.351 3.94-1.123a.473.473 0 0 0 .555-.38.477.477 0 0 0-.379-.555 4.736 4.736 0 0 0-.877-.082M74.752 67.778c-3.674-.099-4.973-3.327-5.027-3.465a.423.423 0 0 1 .337-.574 37.016 37.016 0 0 1 4.68-.287c2.6 0 4.986.233 5.01.235a.425.425 0 0 1 .34.61c-.072.144-1.751 3.483-5.197 3.483-.047 0-.095 0-.143-.002m-.01-3.477c-1.718 0-3.188.125-3.967.208.488.82 1.707 2.36 4 2.42 2.205.052 3.613-1.57 4.217-2.455a57.31 57.31 0 0 0-4.25-.173" fill="#312F4B"/>
        <path d="M74.895 67.835c-.047 0-.096 0-.145-.002-3.707-.1-5.022-3.362-5.076-3.5a.477.477 0 0 1 .38-.649 37.319 37.319 0 0 1 4.688-.287c2.62 0 4.992.234 5.015.235a.481.481 0 0 1 .384.688c-.071.144-1.77 3.515-5.246 3.515m-.153-4.328c-2.594 0-4.589.274-4.673.286a.369.369 0 0 0-.293.5c.053.136 1.342 3.332 4.977 3.43.048.002.096.002.142.002 3.408 0 5.078-3.312 5.147-3.453a.37.37 0 0 0-.295-.53 57.266 57.266 0 0 0-5.005-.235m.135 3.48-.104-.002c-2.288-.062-3.516-1.56-4.045-2.448l-.044-.074.086-.009a39.028 39.028 0 0 1 3.972-.208c1.747 0 3.416.109 4.254.174l.095.007-.053.078c-.638.933-2.02 2.481-4.16 2.481m-4.011-2.431c.54.875 1.736 2.261 3.909 2.32 2.083.045 3.458-1.418 4.117-2.354a57.816 57.816 0 0 0-4.15-.165c-1.677 0-3.117.12-3.876.199M86.033 77.129a.529.529 0 0 0 .461-.792c-1.01-1.787-.75-4.49-.362-6.898a.53.53 0 1 0-1.047-.168c-.418 2.59-.686 5.516.486 7.588.097.173.277.27.462.27" fill="#312F4B"/>
        <path d="M86.033 77.183a.588.588 0 0 1-.51-.297c-1.18-2.087-.911-5.025-.492-7.624a.58.58 0 0 1 .236-.38.58.58 0 0 1 .816.131.58.58 0 0 1 .103.435c-.386 2.399-.646 5.09.356 6.862a.583.583 0 0 1-.221.797.581.581 0 0 1-.288.076m-.424-8.303a.473.473 0 0 0-.278.091.47.47 0 0 0-.192.309c-.416 2.58-.684 5.494.48 7.552a.476.476 0 0 0 .827-.468c-1.018-1.802-.758-4.516-.368-6.933a.476.476 0 0 0-.47-.55M66.048 78.842a.53.53 0 0 0 .493-.334c.58-1.448 1.131-6.29 1.053-7.807a.542.542 0 0 0-.557-.502.53.53 0 0 0-.502.557c.07 1.367-.462 6.068-.979 7.358a.53.53 0 0 0 .492.728" fill="#312F4B"/>
        <path d="M66.048 78.897a.586.586 0 0 1-.544-.803c.515-1.286 1.046-5.973.976-7.336a.584.584 0 0 1 .554-.614.596.596 0 0 1 .615.554c.078 1.52-.475 6.378-1.057 7.83a.582.582 0 0 1-.544.369m1.005-8.643h-.014a.472.472 0 0 0-.45.5c.072 1.369-.463 6.085-.982 7.38a.477.477 0 0 0 .882.354c.58-1.443 1.129-6.271 1.05-7.784a.485.485 0 0 0-.486-.45" fill="#312F4B"/>
        <path d="m72.952 92.449-.058-.119a41.87 41.87 0 0 0-2.024-3.221c-.237-.341-.489-.698-.75-1.068-2.842-4.023-6.734-9.534-4.268-14.412a.53.53 0 1 1 .946.479c-2.178 4.309 1.501 9.517 4.189 13.321.263.373.517.732.755 1.076a42.59 42.59 0 0 1 2.074 3.302c.016.029.048.093.091.18.093.191.17.344.235.466.074-.193.145-.392.183-.503.07-.195.126-.349.159-.415.811-1.602 1.52-2.832 2.298-3.99.84-1.247 2.438-2.415 4.131-3.65 4.146-3.028 6.905-5.427 4.645-8.746a.53.53 0 0 1 .877-.597c3.013 4.424-1.373 7.626-4.896 10.199-1.616 1.18-3.141 2.294-3.877 3.386-.753 1.12-1.442 2.316-2.229 3.873-.024.052-.06.16-.106.29-.342.974-.548 1.446-.97 1.563a.655.655 0 0 1-.172.024c-.538 0-.89-.73-1.233-1.438z" fill="#312F4B"/>
        <path d="M74.185 93.942c-.572 0-.933-.747-1.282-1.469l.049-.024-.05.024-.057-.119a41.76 41.76 0 0 0-2.02-3.214c-.237-.34-.488-.697-.75-1.068-2.85-4.034-6.753-9.56-4.273-14.468a.585.585 0 1 1 1.045.529c-2.163 4.279 1.505 9.473 4.184 13.265l.06.084c.242.343.476.674.695.992a42.601 42.601 0 0 1 2.078 3.307c.017.028.049.093.092.181.065.135.125.254.178.357.059-.156.11-.304.14-.387.077-.222.13-.359.16-.421.813-1.605 1.523-2.838 2.302-3.996.846-1.257 2.449-2.427 4.144-3.665 4.121-3.009 6.866-5.391 4.632-8.67a.577.577 0 0 1-.09-.439.58.58 0 0 1 .245-.374.586.586 0 0 1 .813.154c3.044 4.468-1.366 7.687-4.91 10.274-1.612 1.178-3.132 2.288-3.863 3.373-.753 1.12-1.439 2.312-2.225 3.867a2.774 2.774 0 0 0-.074.201l-.03.083c-.348.992-.56 1.473-1.006 1.596a.708.708 0 0 1-.187.027zm-7.86-20.549a.47.47 0 0 0-.423.261c-2.452 4.849 1.429 10.343 4.263 14.355.262.37.513.727.75 1.068.737 1.065 1.4 2.12 2.026 3.226l.06.123c.335.691.68 1.406 1.184 1.407.05 0 .103-.008.158-.023.395-.11.597-.572.932-1.528l.029-.082c.033-.095.06-.17.08-.213.788-1.56 1.476-2.757 2.232-3.88.741-1.1 2.27-2.217 3.888-3.4 3.507-2.56 7.869-5.744 4.885-10.124a.475.475 0 0 0-.786.535c2.289 3.36-.487 5.775-4.658 8.821-1.688 1.232-3.283 2.396-4.118 3.637-.776 1.155-1.484 2.384-2.294 3.984-.029.058-.08.191-.156.408-.036.104-.108.308-.184.505l-.043.112-.057-.106a13.101 13.101 0 0 1-.235-.468 4.674 4.674 0 0 0-.09-.177 42.572 42.572 0 0 0-2.072-3.297c-.22-.318-.453-.649-.694-.992l-.06-.084c-2.695-3.815-6.386-9.04-4.193-13.378a.473.473 0 0 0-.21-.639.476.476 0 0 0-.215-.05zm7.59 19.591-.007-.11h.008v.11z" fill="#312F4B"/>
        <path d="M82.498 97c.437 0 .686-.598 1.668-3.147.1-.265.174-.458.2-.514a31.3 31.3 0 0 1 .813-1.626c.145-.277.29-.554.429-.83a.53.53 0 1 0-.946-.478c-.137.27-.28.543-.423.815-.287.549-.584 1.115-.84 1.683-.028.062-.11.275-.224.568-.144.376-.48 1.248-.75 1.888-.097-.195-.186-.383-.241-.498-.085-.178-.148-.31-.168-.345-.112-.196-.249-.47-.41-.79-.8-1.588-2.009-3.99-3.517-4.45a1.742 1.742 0 0 0-1.394.158.531.531 0 0 0 .522.924.676.676 0 0 1 .564-.066c1.073.326 2.247 2.659 2.878 3.912.17.337.315.626.433.835.019.034.069.14.135.278.676 1.417.776 1.571 1.07 1.651.072.02.138.032.2.032" fill="#312F4B"/>
        <path d="M82.498 97.055a.814.814 0 0 1-.215-.034c-.316-.087-.42-.243-1.105-1.68l-.038-.078a6.528 6.528 0 0 0-.096-.197 21.492 21.492 0 0 1-.434-.837c-.628-1.247-1.795-3.565-2.846-3.885a.62.62 0 0 0-.52.062.579.579 0 0 1-.444.054.587.587 0 0 1-.133-1.073c.45-.255.947-.311 1.437-.163 1.532.466 2.747 2.88 3.552 4.478l.015.03c.153.304.285.568.392.757.02.033.073.144.17.348l.053.111.135.278c.262-.626.568-1.423.703-1.774.122-.316.198-.511.225-.57.255-.567.55-1.13.835-1.674l.007-.013c.143-.273.284-.544.422-.815.07-.139.19-.243.339-.291a.577.577 0 0 1 .446.033.58.58 0 0 1 .293.34.578.578 0 0 1-.034.446c-.137.272-.28.545-.423.82-.27.514-.57 1.086-.818 1.634a13.05 13.05 0 0 0-.164.418l-.035.092c-.991 2.575-1.243 3.183-1.72 3.183m-4.931-6.852c.074 0 .15.012.23.036 1.096.334 2.277 2.679 2.912 3.939.16.32.312.621.432.834.015.028.051.103.1.204l.037.078c.666 1.395.763 1.547 1.035 1.62.075.022.134.032.186.032.401 0 .667-.646 1.616-3.113l.036-.092c.086-.225.142-.373.166-.424.249-.551.55-1.124.815-1.63.148-.283.291-.557.428-.828a.473.473 0 0 0-.21-.639.475.475 0 0 0-.638.21c-.138.271-.28.543-.423.816l-.007.012c-.284.544-.579 1.105-.832 1.668-.028.063-.122.304-.223.566-.143.372-.479 1.247-.751 1.889l-.047.11-.053-.107c-.07-.142-.135-.28-.187-.389l-.053-.11c-.095-.2-.15-.311-.167-.341a20.232 20.232 0 0 1-.395-.763l-.015-.03c-.797-1.58-2-3.97-3.486-4.422a1.688 1.688 0 0 0-1.35.153.477.477 0 0 0 .107.873.47.47 0 0 0 .36-.045.756.756 0 0 1 .377-.107M66.221 94.714l.058-.001c.434-.022.616-.438.948-1.191.048-.11.087-.199.11-.242l.084-.132c.744-1.175 1.983-3.141 3.32-2.774a.53.53 0 1 0 .283-1.022c-2.085-.579-3.597 1.804-4.5 3.229l-.091.145c-.02.03-.054.1-.096.19a26.586 26.586 0 0 1-.274-1.386c-.267-1.47-.61-2.904-.942-4.29-.286-1.199-.583-2.438-.823-3.665a.53.53 0 1 0-1.041.203c.244 1.25.544 2.5.832 3.71.329 1.371.668 2.79.925 4.202.462 2.666.733 3.024 1.207 3.024" fill="#312F4B"/>
        <path d="M66.221 94.769c-.538 0-.81-.464-1.261-3.07-.26-1.427-.613-2.9-.924-4.199l-.01-.04a91.769 91.769 0 0 1-.823-3.67.586.586 0 0 1 1.15-.225c.238 1.222.533 2.458.819 3.653l.007.028c.33 1.38.671 2.809.938 4.274.08.462.16.875.24 1.23a.555.555 0 0 1 .03-.054l.091-.144c.91-1.438 2.433-3.844 4.56-3.253a.587.587 0 0 1 .132 1.074.577.577 0 0 1-.444.054c-1.294-.355-2.52 1.582-3.251 2.74l-.092.142c-.016.032-.045.098-.082.18l-.024.055c-.342.776-.529 1.2-.996 1.224h-.06m-2.445-11.566a.476.476 0 0 0-.465.566c.242 1.233.536 2.47.822 3.665l.01.042c.312 1.3.665 2.774.925 4.205.445 2.565.704 2.98 1.153 2.98l.048-.002c.406-.02.583-.422.906-1.153l.026-.06c.038-.085.068-.154.087-.191l.087-.135c.755-1.194 2.008-3.175 3.38-2.798a.47.47 0 0 0 .36-.044.476.476 0 0 0-.106-.872c-2.049-.568-3.544 1.794-4.438 3.205l-.092.145a2.026 2.026 0 0 0-.092.184l-.068.145-.036-.156c-.09-.39-.182-.858-.274-1.388-.266-1.463-.607-2.89-.937-4.269l-.004-.017c-.289-1.206-.585-2.444-.823-3.668a.48.48 0 0 0-.47-.384M88.663 78.294l.028-.001a.531.531 0 0 0 .502-.557c-.067-1.334-1.853-3.961-3.324-4.07a.533.533 0 0 0-.568.49.532.532 0 0 0 .49.569c.795.058 2.298 2.165 2.343 3.065a.53.53 0 0 0 .53.504" fill="#312F4B"/>
        <path d="M88.663 78.348a.584.584 0 0 1-.583-.555c-.044-.853-1.533-2.958-2.293-3.014a.587.587 0 0 1-.541-.627.589.589 0 0 1 .626-.54c1.495.11 3.308 2.77 3.377 4.121a.587.587 0 0 1-.556.615h-.03zm-2.832-4.628a.477.477 0 0 0-.476.44.477.477 0 0 0 .44.51c.378.028.936.491 1.493 1.24.525.706.879 1.443.901 1.877a.475.475 0 0 0 .474.452h.02a.478.478 0 0 0 .455-.5c-.066-1.318-1.825-3.91-3.274-4.018h-.033zM64.01 78.363a.53.53 0 0 0 .528-.492c.108-1.489 1.07-3.476 2.275-3.948a.53.53 0 1 0-.386-.987c-1.84.72-2.83 3.274-2.947 4.858a.53.53 0 0 0 .53.569" fill="#312F4B"/>
        <path d="m64.01 78.418-.045-.002a.582.582 0 0 1-.54-.627c.117-1.598 1.12-4.176 2.982-4.904a.58.58 0 0 1 .448.009.582.582 0 0 1-.022 1.08c-1.186.465-2.133 2.43-2.24 3.9a.587.587 0 0 1-.583.544m2.61-5.464a.473.473 0 0 0-.174.033c-1.817.71-2.796 3.24-2.91 4.81a.472.472 0 0 0 .44.51l.034.001a.477.477 0 0 0 .473-.441c.11-1.505 1.086-3.516 2.31-3.995a.47.47 0 0 0 .263-.252.47.47 0 0 0 .007-.364.471.471 0 0 0-.443-.302M85.613 196.678a.53.53 0 0 0 .53-.53c0-8.104-.623-17.4-1.225-26.39-.484-7.21-.983-14.664-1.132-21.218-.253-11.094-.104-22.573.45-35.095.401-8.988 1.119-16.36 2.259-23.204.263-1.582.843-3.283 1.458-5.082.844-2.475 1.718-5.033 1.718-7.319a.53.53 0 0 0-1.061 0c0 2.11-.845 4.583-1.66 6.976-.602 1.762-1.224 3.583-1.502 5.251-1.147 6.886-1.868 14.299-2.27 23.332-.557 12.544-.705 24.047-.453 35.165.15 6.578.65 14.044 1.134 21.265.601 8.972 1.223 18.25 1.223 26.319 0 .292.238.53.53.53" fill="#312F4B"/>
        <path d="M85.613 196.733a.586.586 0 0 1-.585-.586c0-8.062-.622-17.335-1.223-26.301-.484-7.225-.985-14.682-1.135-21.281-.252-11.128-.104-22.632.453-35.168.402-9.037 1.124-16.453 2.27-23.34.28-1.674.902-3.497 1.504-5.26.816-2.391 1.658-4.859 1.658-6.957a.586.586 0 0 1 1.17 0c0 2.291-.872 4.85-1.716 7.326l-.006.018c-.613 1.795-1.192 3.49-1.454 5.066-1.14 6.841-1.857 14.213-2.257 23.198-.556 12.52-.704 23.999-.452 35.09.15 6.56.649 14.01 1.132 21.216.603 8.985 1.226 18.277 1.226 26.393a.586.586 0 0 1-.585.586M89.14 77.365a.476.476 0 0 0-.475.475c0 2.117-.845 4.593-1.662 6.987-.603 1.765-1.223 3.583-1.501 5.25-1.146 6.881-1.868 14.293-2.27 23.324-.556 12.535-.704 24.036-.452 35.161.15 6.598.65 14.053 1.133 21.263.603 8.982 1.225 18.256 1.225 26.322a.476.476 0 0 0 .95 0c0-8.112-.623-17.402-1.226-26.385-.483-7.207-.982-14.659-1.131-21.221-.252-11.094-.105-22.575.451-35.098.4-8.99 1.118-16.366 2.259-23.211.263-1.584.843-3.284 1.457-5.084h.059l-.052-.017c.84-2.467 1.71-5.017 1.71-7.291a.476.476 0 0 0-.475-.475M60.057 196.608a.53.53 0 0 0 .53-.53c0-3.097-.007-6.331-.016-9.655-.039-16.313-.083-34.803.76-49.974.168-3.024.396-8.081.662-13.936.704-15.572 1.669-36.9 2.594-45.157a.531.531 0 0 0-1.054-.118c-.93 8.292-1.896 29.64-2.6 45.228-.265 5.851-.494 10.906-.662 13.924-.844 15.202-.8 33.708-.76 50.035.008 3.324.015 6.556.015 9.652 0 .293.238.53.53.53" fill="#312F4B"/>
        <path d="M60.057 196.663a.585.585 0 0 1-.585-.585c0-3.059-.007-6.181-.016-9.653-.04-16.324-.084-34.827.76-50.038.17-3.038.398-8.083.662-13.924.705-15.585 1.67-36.93 2.6-45.231a.58.58 0 0 1 .218-.392.586.586 0 0 1 .946.523c-.926 8.259-1.89 29.582-2.595 45.152l-.008.184c-.261 5.774-.487 10.76-.653 13.753-.843 15.177-.799 33.662-.76 49.97.01 3.473.016 6.596.016 9.656a.586.586 0 0 1-.585.585M64.06 76.822a.47.47 0 0 0-.295.104.47.47 0 0 0-.177.318c-.93 8.297-1.895 29.64-2.6 45.224-.264 5.841-.493 10.886-.661 13.925-.845 15.207-.8 33.709-.761 50.032.008 3.472.016 6.594.016 9.653a.476.476 0 0 0 .95 0c0-3.06-.007-6.183-.016-9.656-.038-16.31-.083-34.796.76-49.976.166-2.992.392-7.978.654-13.752l.007-.183c.705-15.572 1.67-36.898 2.595-45.161a.475.475 0 0 0-.472-.528M83.342 141.764a.53.53 0 0 0 .51-.384l.311-1.083c1.66-5.788 4.746-16.56 10.115-27.693.754-1.564-.964-2.7-2.48-3.7-1.607-1.063-2.72-1.887-2.376-2.806 1.14-3.05 5.039-9.364 8.171-14.437 2.825-4.575 4.571-7.43 4.864-8.446.183-.632-.176-.836-4.267-2.424a67.511 67.511 0 0 1-1.824-.724c-.7-.3-1.679-1.092-2.715-1.93-1.91-1.544-3.882-3.144-5.443-2.853a.53.53 0 0 0 .193 1.043c1.07-.198 3.022 1.371 4.582 2.634 1.096.886 2.13 1.722 2.964 2.08.426.183 1.108.448 1.86.74 1.107.429 2.86 1.109 3.513 1.454-.545 1.253-2.534 4.476-4.629 7.869-3.321 5.378-7.086 11.476-8.262 14.622-.666 1.782 1.167 2.993 2.785 4.063 1.486.982 2.436 1.675 2.108 2.354-5.407 11.214-8.51 22.044-10.179 27.862l-.31 1.081a.53.53 0 0 0 .51.678" fill="#312F4B"/>
        <path d="M83.342 141.819a.587.587 0 0 1-.563-.748l.312-1.081c1.668-5.82 4.773-16.653 10.182-27.87.308-.639-.627-1.32-2.09-2.286-1.634-1.08-3.487-2.304-2.805-4.127 1.179-3.154 4.944-9.252 8.267-14.632 2.072-3.358 4.033-6.532 4.604-7.815-.687-.352-2.419-1.023-3.462-1.428a68.684 68.684 0 0 1-1.861-.74c-.841-.361-1.877-1.199-2.974-2.085-1.473-1.192-3.486-2.822-4.54-2.626a.584.584 0 1 1-.213-1.151c1.58-.295 3.557 1.304 5.469 2.85l.017.014c1.036.838 2.01 1.625 2.702 1.923.404.172 1.058.427 1.75.696l.072.028c4.135 1.603 4.497 1.813 4.301 2.49-.294 1.02-2.043 3.88-4.87 8.459-3.131 5.07-7.028 11.38-8.167 14.426-.33.883.769 1.693 2.356 2.742 1.535 1.014 3.273 2.162 2.498 3.77-5.366 11.128-8.453 21.898-10.111 27.684l-.311 1.084a.589.589 0 0 1-.563.423m5.254-65.564c1.13 0 2.946 1.469 4.422 2.664 1.094.884 2.124 1.717 2.951 2.072.425.182 1.12.453 1.857.738 1.07.416 2.861 1.11 3.52 1.458l.044.023-.02.047c-.546 1.259-2.531 4.473-4.632 7.875-3.32 5.376-7.082 11.47-8.257 14.613-.651 1.741 1.162 2.94 2.763 3.997 1.51.999 2.474 1.706 2.128 2.425-5.405 11.21-8.508 22.036-10.175 27.853l-.312 1.081a.477.477 0 0 0 .325.59.48.48 0 0 0 .59-.326l.311-1.083c1.659-5.79 4.747-16.565 10.118-27.702.732-1.52-.964-2.641-2.46-3.63-1.63-1.078-2.757-1.914-2.398-2.872 1.143-3.057 5.042-9.371 8.175-14.446 2.823-4.571 4.568-7.424 4.859-8.432.17-.588-.186-.786-4.236-2.357l-.07-.028c-.694-.27-1.35-.524-1.755-.698-.706-.302-1.686-1.095-2.724-1.934l-.022-.018c-1.892-1.53-3.848-3.111-5.38-2.827a.473.473 0 0 0-.38.553.472.472 0 0 0 .553.382c.066-.012.134-.018.205-.018M59.408 146.191c-1.581-5.518-6.605-31.799-6.113-35.32.2-1.421 2.065-2.552 3.711-3.55.557-.337 1.09-.66 1.435-.927-.345-.995-1.975-4.578-3.427-7.772C49.65 86.825 49.5 86.11 49.83 85.63c.306-.444 1.685-1.35 4.76-3.31 1.597-1.018 3.247-2.071 4.057-2.681.866-.654 1.65-1.495 2.408-2.31 1.059-1.137 2.154-2.314 3.545-3.082a.53.53 0 0 1 .513.929c-1.243.686-2.234 1.75-3.281 2.876-.79.848-1.605 1.724-2.546 2.433-.843.636-2.512 1.7-4.125 2.729-1.633 1.042-3.825 2.44-4.362 2.92.267 1.242 3.209 7.71 5.182 12.049 3.817 8.395 3.81 8.403 3.413 8.79-.393.381-1.062.786-1.838 1.256-1.3.787-3.08 1.866-3.208 2.787-.435 3.112 4.341 28.814 6.08 34.882a.532.532 0 0 1-.51.677.53.53 0 0 1-.51-.384z" fill="#312F4B"/>
        <path d="M59.917 146.63a.588.588 0 0 1-.562-.424c-1.582-5.52-6.607-31.817-6.114-35.344.203-1.446 2.08-2.583 3.736-3.587.544-.33 1.056-.64 1.4-.9-.373-1.045-1.987-4.594-3.413-7.73-5.393-11.86-5.532-12.536-5.18-13.046.31-.452 1.694-1.36 4.776-3.326 1.595-1.017 3.244-2.068 4.053-2.678.862-.65 1.644-1.49 2.4-2.303 1.063-1.141 2.16-2.321 3.559-3.093a.585.585 0 0 1 .566 1.025c-1.236.682-2.223 1.743-3.267 2.865-.794.854-1.61 1.73-2.553 2.44-.843.636-2.51 1.699-4.122 2.727l-.044.027c-1.575 1.006-3.725 2.377-4.293 2.87.307 1.31 3.23 7.738 5.17 12.003 3.835 8.435 3.835 8.435 3.403 8.855-.398.386-1.069.793-1.846 1.263-1.293.784-3.06 1.855-3.185 2.75-.434 3.106 4.34 28.792 6.079 34.859a.587.587 0 0 1-.563.747zm4.937-72.394a.473.473 0 0 0-.229.06c-1.383.763-2.475 1.936-3.53 3.07-.76.817-1.547 1.66-2.416 2.316-.812.613-2.463 1.666-4.06 2.684-3.069 1.957-4.445 2.86-4.744 3.295-.31.45-.147 1.204 5.19 12.938 1.444 3.177 3.08 6.777 3.428 7.776l.012.038-.03.024c-.348.27-.877.59-1.438.93-1.638.993-3.492 2.116-3.687 3.51-.492 3.518 4.53 29.783 6.11 35.299a.477.477 0 0 0 .588.326.477.477 0 0 0 .326-.589c-1.74-6.072-6.517-31.79-6.081-34.905.131-.946 1.925-2.033 3.234-2.825.774-.47 1.44-.873 1.828-1.25.37-.36.305-.523-3.425-8.727-1.96-4.308-4.917-10.813-5.185-12.06l-.007-.031.024-.022c.535-.48 2.73-1.88 4.331-2.902l.038-.024c1.617-1.03 3.281-2.092 4.12-2.725.935-.705 1.748-1.578 2.535-2.422 1.055-1.135 2.048-2.201 3.299-2.892a.476.476 0 0 0-.23-.892zm-14.15 12.05-.009-.11h.008v.11zM147.27 111.02a.53.53 0 0 0 .196-1.023c-6.013-2.395-15.013-9.705-18.856-12.825a344.95 344.95 0 0 1-3.15-2.599c-6.87-5.714-12.804-10.65-22.66-11.98a.53.53 0 0 0-.142 1.05c9.554 1.291 15.1 5.905 22.124 11.745 1.022.85 2.07 1.722 3.16 2.607 4.21 3.418 12.968 10.532 19.132 12.987.065.026.13.038.196.038" fill="#312F4B"/>
        <path d="M147.27 111.074a.58.58 0 0 1-.217-.042c-6.168-2.456-14.93-9.57-19.14-12.99a345.33 345.33 0 0 1-3.136-2.586l-.03-.025c-7.016-5.836-12.558-10.445-22.097-11.732a.584.584 0 0 1-.501-.658.584.584 0 0 1 .659-.502c9.87 1.332 15.81 6.271 22.685 11.99 1.013.843 2.058 1.712 3.152 2.6 3.84 3.12 12.836 10.424 18.842 12.817a.586.586 0 0 1-.217 1.128m-44.546-28.431a.475.475 0 0 0-.06.947c9.571 1.292 15.123 5.91 22.152 11.755l.031.027c1.009.838 2.05 1.704 3.129 2.58 4.212 3.42 12.965 10.528 19.119 12.979a.471.471 0 0 0 .617-.265.476.476 0 0 0-.266-.618c-6.022-2.4-15.026-9.711-18.87-12.834a343.39 343.39 0 0 1-3.151-2.6c-6.865-5.709-12.793-10.638-22.632-11.966a.486.486 0 0 0-.069-.005M152.425 132.904c1.81 0 3.664-.347 5.591-1.175a.53.53 0 0 0-.418-.975c-6.21 2.67-11.787-.119-17.69-3.073l-.852-.426c-1.565-.78-3.12-1.588-4.765-2.445-8.054-4.192-16.384-8.527-25.291-9.039a.53.53 0 0 0-.56.5.53.53 0 0 0 .499.56c8.68.499 16.906 4.78 24.862 8.92 1.65.86 3.208 1.67 4.781 2.454l.851.425c4.357 2.18 8.543 4.274 12.992 4.274" fill="#312F4B"/>
        <path d="M152.425 132.959c-4.461 0-8.616-2.08-13.016-4.28l-.85-.425c-1.618-.807-3.227-1.644-4.784-2.454-7.949-4.138-16.17-8.417-24.84-8.914a.587.587 0 0 1-.344-1.033.558.558 0 0 1 .414-.136c8.919.512 17.252 4.85 25.31 9.044 1.644.856 3.195 1.663 4.765 2.446l.852.425c5.891 2.948 11.455 5.732 17.644 3.072a.582.582 0 0 1 .768.306.582.582 0 0 1-.307.77c-1.846.793-3.682 1.179-5.612 1.179m-43.469-17.135a.45.45 0 0 0-.293.112.478.478 0 0 0 .279.84c8.694.5 16.924 4.783 24.884 8.926 1.556.81 3.165 1.648 4.78 2.454l.851.424c4.389 2.196 8.532 4.27 12.968 4.27 1.915 0 3.737-.384 5.57-1.172a.476.476 0 1 0-.375-.874c-1.77.761-3.488 1.08-5.176 1.08-4.258.001-8.325-2.034-12.561-4.154l-.852-.425c-1.57-.783-3.123-1.591-4.766-2.446-8.048-4.19-16.37-8.521-25.269-9.033a.409.409 0 0 0-.04-.002M162.3 128.927a.53.53 0 0 0 .492-.334c.506-1.27 1.196-2.492 1.863-3.674.69-1.222 1.402-2.487 1.943-3.845.009-.019.578-2.142.397-2.56a.561.561 0 0 0-.3-.289.808.808 0 0 0-.67.016c-.415.202-.561.696-.704 1.174-.071.24-.16.54-.25.655-.326.409-1.395.872-2.151 1.032a.53.53 0 0 0-.41.63c.061.286.342.472.629.408.593-.125 1.584-.47 2.266-.957-.479 1.096-1.085 2.171-1.674 3.215-.684 1.212-1.391 2.466-1.923 3.802a.53.53 0 0 0 .492.727" fill="#312F4B"/>
        <path d="M162.3 128.982a.586.586 0 0 1-.544-.801c.535-1.341 1.242-2.596 1.927-3.81.555-.984 1.128-2 1.594-3.036-.652.418-1.538.734-2.126.859a.582.582 0 0 1-.694-.452.584.584 0 0 1 .451-.693c.747-.158 1.802-.613 2.12-1.013.084-.107.175-.413.24-.636.147-.491.297-.996.733-1.208a.858.858 0 0 1 .715-.017.615.615 0 0 1 .33.319c.192.443-.39 2.585-.397 2.602-.543 1.364-1.257 2.627-1.947 3.85-.667 1.183-1.354 2.402-1.859 3.667a.581.581 0 0 1-.543.369zm3.235-7.96-.079.183c-.482 1.101-1.09 2.178-1.677 3.22-.683 1.21-1.39 2.462-1.92 3.795a.476.476 0 0 0 .441.652.47.47 0 0 0 .441-.3c.507-1.271 1.197-2.493 1.864-3.675.69-1.224 1.402-2.485 1.942-3.843.04-.127.563-2.136.397-2.517a.5.5 0 0 0-.268-.26.75.75 0 0 0-.627.013c-.393.191-.536.672-.674 1.138-.073.248-.164.552-.262.676-.332.418-1.416.89-2.182 1.052a.473.473 0 0 0-.367.564.474.474 0 0 0 .563.366c.628-.132 1.598-.486 2.247-.948l.161-.115zM157.714 122.12a.53.53 0 0 0 .196-1.023c-3.332-1.328-9.022-8.193-7.455-12.13a.53.53 0 0 0-.984-.392c-1.867 4.683 4.33 12.025 8.047 13.506.064.026.13.038.196.038" fill="#312F4B"/>
        <path d="M157.714 122.174a.576.576 0 0 1-.217-.042c-1.92-.764-4.387-3.004-6.142-5.571-2.816-4.123-2.421-6.786-1.936-8.006a.582.582 0 0 1 .76-.327.582.582 0 0 1 .327.76c-1.557 3.91 4.108 10.736 7.425 12.058a.582.582 0 0 1 .326.76.581.581 0 0 1-.543.368m-7.752-13.878a.47.47 0 0 0-.44.3c-.479 1.2-.864 3.821 1.924 7.902 1.743 2.552 4.192 4.775 6.092 5.532a.472.472 0 0 0 .617-.265.476.476 0 0 0-.265-.617c-3.35-1.335-9.063-8.24-7.486-12.2a.472.472 0 0 0-.265-.618.472.472 0 0 0-.177-.034" fill="#312F4B"/>
        <path d="M143.266 122.62a.53.53 0 0 0 .52-.64 17.48 17.48 0 0 0-.267-1.054c-.174-.631-.34-1.228-.366-1.894-.109-2.785 3.384-7.068 6.895-10.078a.53.53 0 1 0-.69-.805c-3.434 2.943-7.396 7.57-7.264 10.924.03.79.22 1.475.403 2.137.089.32.18.646.252.988a.53.53 0 0 0 .517.421" fill="#312F4B"/>
        <path d="M143.266 122.674a.587.587 0 0 1-.571-.464 16.095 16.095 0 0 0-.249-.978c-.186-.673-.376-1.36-.407-2.157-.133-3.373 3.84-8.016 7.282-10.967a.588.588 0 0 1 .826.063.582.582 0 0 1-.064.825c-3.5 3-6.983 7.268-6.875 10.034.026.659.19 1.251.363 1.88.094.338.19.686.269 1.058a.586.586 0 0 1-.574.706m6.436-14.597c-.11 0-.22.037-.31.114-3.423 2.935-7.375 7.546-7.243 10.88.03.783.218 1.465.4 2.124.09.324.181.65.253.992a.477.477 0 0 0 .563.367.476.476 0 0 0 .367-.564c-.078-.367-.173-.714-.266-1.049-.176-.637-.341-1.235-.368-1.907-.11-2.803 3.393-7.103 6.914-10.122a.474.474 0 0 0-.31-.835" fill="#312F4B"/>
        <path d="M149.99 112.147a.53.53 0 0 0 .518-.647c-.074-.327.04-.765.16-1.229.136-.52.276-1.058.214-1.616-.108-.98-.336-1.947-.557-2.882-.216-.913-.44-1.858-.543-2.794-.128-1.175.12-2.24.382-3.366.144-.618.293-1.256.38-1.925l.074-.611c.207-1.756.356-3.025 1.993-3.914.736-.402 2.677.087 4.153 1.045.906.588 1.468 1.256 1.432 1.702-.028.349-.462.613-.822.772-.9.399-1.755.123-2.66-.17-.792-.255-1.61-.524-2.48-.326a.53.53 0 1 0 .233 1.035c.586-.13 1.234.078 1.922.3 1.004.324 2.144.693 3.414.13 1.13-.5 1.413-1.177 1.45-1.657.07-.88-.609-1.83-1.911-2.676-1.601-1.038-3.98-1.77-5.239-1.088-2.117 1.153-2.322 2.887-2.539 4.723l-.072.598c-.08.617-.223 1.23-.361 1.82-.272 1.164-.552 2.368-.403 3.724.11 1 .34 1.978.565 2.921.223.946.434 1.84.535 2.756.04.363-.07.786-.185 1.233-.148.565-.3 1.15-.17 1.728a.53.53 0 0 0 .516.414" fill="#312F4B"/>
        <path d="M149.99 112.202a.588.588 0 0 1-.57-.458c-.134-.592.02-1.182.17-1.753.114-.443.223-.86.184-1.213-.101-.915-.312-1.805-.535-2.749-.223-.943-.454-1.918-.565-2.928-.15-1.366.131-2.574.403-3.741.138-.592.28-1.202.36-1.815l.073-.599c.219-1.85.425-3.598 2.567-4.764 1.278-.693 3.682.044 5.295 1.09 1.32.858 2.008 1.826 1.936 2.726-.038.495-.328 1.192-1.483 1.704-1.288.57-2.436.2-3.45-.127-.68-.22-1.318-.428-1.896-.3a.583.583 0 0 1-.622-.884.582.582 0 0 1 .366-.258c.876-.2 1.697.065 2.49.321l.019.006c.893.289 1.737.562 2.62.172.345-.153.764-.405.79-.726.033-.426-.52-1.075-1.408-1.651-1.461-.95-3.375-1.437-4.097-1.044-1.612.876-1.76 2.133-1.964 3.872l-.075.612c-.088.68-.244 1.344-.38 1.93-.262 1.122-.51 2.182-.381 3.348.102.932.325 1.875.54 2.786.223.937.451 1.906.56 2.89.063.568-.079 1.11-.215 1.636-.12.457-.232.89-.161 1.203a.583.583 0 0 1-.572.714m3.344-20.184c-.457 0-.87.08-1.203.26-2.093 1.14-2.296 2.86-2.511 4.68l-.073.6c-.08.62-.223 1.232-.362 1.826-.27 1.16-.55 2.358-.401 3.705.11 1.003.34 1.976.563 2.915.224.946.436 1.84.537 2.762.041.373-.07.8-.187 1.251-.147.56-.297 1.137-.17 1.704a.478.478 0 0 0 .568.36.473.473 0 0 0 .36-.568c-.077-.34.04-.785.161-1.256.135-.515.273-1.048.212-1.596-.107-.978-.335-1.942-.556-2.876-.216-.915-.44-1.86-.544-2.8-.13-1.185.12-2.253.384-3.384.135-.584.29-1.245.378-1.92l.075-.61c.208-1.773.359-3.053 2.02-3.957.752-.41 2.72.08 4.21 1.049.922.598 1.494 1.286 1.457 1.751-.03.376-.482.653-.856.819-.92.407-1.783.127-2.697-.168l-.018-.006c-.78-.252-1.585-.512-2.433-.32a.47.47 0 0 0-.36.568.474.474 0 0 0 .568.36c.606-.134 1.29.088 1.95.303.999.321 2.126.685 3.376.131 1.105-.489 1.382-1.147 1.418-1.611.068-.858-.602-1.791-1.887-2.625-1.16-.753-2.733-1.347-3.98-1.347M162.71 121.6a.528.528 0 0 0 .483-.314c.318-.705 1.035-1.28 1.73-1.835.249-.2.493-.396.715-.594l.314-.279c2.814-2.498 5.473-4.858 4.507-9.172a.53.53 0 1 0-1.035.232c.83 3.704-1.38 5.664-4.177 8.148l-.315.28c-.208.184-.438.368-.673.557-.755.604-1.61 1.29-2.033 2.228a.53.53 0 0 0 .484.748" fill="#312F4B"/>
        <path d="M162.71 121.654a.588.588 0 0 1-.547-.377.582.582 0 0 1 .014-.449c.427-.95 1.288-1.64 2.047-2.248l.033-.026c.227-.182.44-.354.64-.53l.314-.28c2.783-2.47 4.982-4.422 4.16-8.094a.584.584 0 0 1 .883-.623.585.585 0 0 1 .259.367c.973 4.346-1.697 6.716-4.525 9.226l-.313.279c-.224.199-.464.39-.719.595-.688.55-1.4 1.121-1.712 1.815a.586.586 0 0 1-.534.345m7.234-12.607a.479.479 0 0 0-.466.58c.836 3.733-1.384 5.705-4.194 8.2l-.315.28c-.2.177-.415.35-.643.532l-.033.027c-.75.6-1.6 1.28-2.016 2.208a.47.47 0 0 0 .238.628.47.47 0 0 0 .628-.238c.323-.718 1.046-1.297 1.745-1.856.253-.203.493-.394.714-.591l.313-.28c2.803-2.487 5.45-4.837 4.49-9.119a.472.472 0 0 0-.461-.371" fill="#312F4B"/>
        <path d="M170.15 109.724a.531.531 0 0 0 .449-.247c1.385-2.183 1.89-3.163.477-5.514a.53.53 0 1 0-.91.547c1.134 1.882.795 2.415-.464 4.4a.53.53 0 0 0 .448.814" fill="#312F4B"/>
        <path d="M170.15 109.78a.588.588 0 0 1-.494-.899c1.245-1.962 1.579-2.49.464-4.343a.585.585 0 0 1 1.003-.604c1.43 2.379.92 3.369-.478 5.573a.584.584 0 0 1-.495.272m.471-6.02a.476.476 0 0 0-.407.721c1.15 1.913.808 2.452-.465 4.459a.477.477 0 0 0 .4.73.474.474 0 0 0 .403-.22c1.373-2.165 1.874-3.136.477-5.458a.472.472 0 0 0-.408-.231" fill="#312F4B"/>
        <path d="M170.532 104.617a.526.526 0 0 0 .273-.076c.968-.582 1.414-1.487 1.255-2.545-.272-1.817-2.329-3.83-3.821-4.2a.53.53 0 0 0-.256 1.03c1.013.251 2.811 1.876 3.028 3.327.096.634-.15 1.118-.753 1.48a.53.53 0 0 0 .274.984" fill="#312F4B"/>
        <path d="M170.532 104.672a.586.586 0 0 1-.303-1.086c.582-.35.82-.815.728-1.424-.215-1.431-1.987-3.035-2.987-3.284a.58.58 0 0 1-.427-.709.58.58 0 0 1 .71-.426c1.507.374 3.586 2.407 3.862 4.245.162 1.082-.293 2.006-1.281 2.6a.581.581 0 0 1-.302.084m-2.422-6.838a.472.472 0 0 0-.406.72c.065.11.17.187.293.218 1.027.255 2.848 1.903 3.069 3.373.1.658-.156 1.16-.78 1.535a.477.477 0 0 0 .246.883c.086 0 .171-.024.244-.069.949-.57 1.386-1.455 1.23-2.49-.27-1.799-2.304-3.788-3.78-4.155a.493.493 0 0 0-.116-.015" fill="#312F4B"/>
        <path d="M168.165 98.83a.53.53 0 0 0 .53-.518c.006-.223.028-.458.05-.696.08-.834.168-1.779-.344-2.553-1.456-2.195-7.803-.973-9.713-.547a.532.532 0 0 0-.403.633.536.536 0 0 0 .633.403c3.695-.826 7.833-1.058 8.598.096.306.463.239 1.177.174 1.868-.025.265-.05.524-.055.77a.531.531 0 0 0 .517.543h.013z" fill="#312F4B"/>
        <path d="M168.165 98.884h-.013a.588.588 0 0 1-.573-.6c.007-.249.032-.515.056-.773.064-.681.13-1.386-.165-1.832-.569-.859-3.685-1.16-8.54-.074a.59.59 0 0 1-.699-.444.586.586 0 0 1 .445-.699c1.92-.428 8.296-1.652 9.77.57.523.79.433 1.744.354 2.587-.02.22-.044.468-.05.694a.583.583 0 0 1-.585.571m-3.706-4.078c1.542 0 2.723.24 3.103.812.316.479.249 1.203.182 1.903-.023.256-.048.52-.054.766a.477.477 0 0 0 .463.487l.012.055v-.055c.26 0 .469-.204.475-.464.006-.229.03-.479.051-.7.077-.826.165-1.76-.336-2.517-1.435-2.164-7.753-.948-9.655-.524a.477.477 0 0 0-.362.568.48.48 0 0 0 .569.36c1.904-.425 3.928-.691 5.552-.691M153.962 104.432a.53.53 0 0 0 .127-1.045c-.36-.089-.416-.246-.439-.313-.354-1.007 1.718-3.726 2.399-4.62.21-.277.37-.487.441-.6a.53.53 0 0 0-.896-.568c-.063.1-.204.282-.389.525-1.61 2.113-3.034 4.256-2.557 5.614.123.348.428.804 1.186.992a.503.503 0 0 0 .128.015" fill="#312F4B"/>
        <path d="M153.962 104.487a.56.56 0 0 1-.142-.017c-.78-.194-1.096-.665-1.223-1.027-.485-1.383.946-3.54 2.564-5.665l.05-.066c.157-.206.281-.368.337-.456a.581.581 0 0 1 .807-.181.586.586 0 0 1 .181.807c-.075.12-.246.344-.443.605-.677.889-2.736 3.59-2.392 4.568.021.059.07.197.401.279a.582.582 0 0 1 .427.709.583.583 0 0 1-.567.444m2.08-7.394a.473.473 0 0 0-.402.222c-.058.092-.177.248-.34.463l-.051.066c-1.6 2.102-3.017 4.23-2.549 5.563.119.336.414.774 1.147.956a.474.474 0 1 0 .228-.922c-.389-.097-.45-.274-.477-.35-.364-1.033 1.721-3.77 2.407-4.67.197-.259.366-.482.439-.597a.477.477 0 0 0-.402-.73" fill="#312F4B"/>
        <path d="M155.405 107.607a.531.531 0 0 0 .284-.979c-.607-.385-.93-.803-.955-1.241-.04-.675.574-1.549 1.775-2.527.407-.332.8-.737 1.181-1.13.652-.674 1.326-1.368 2.057-1.692 1.23-.546 2.659-.514 4.172-.479 1.14.026 2.318.053 3.413-.193a.53.53 0 1 0-.232-1.034c-.969.218-2.032.193-3.157.166-1.563-.036-3.179-.072-4.625.57-.92.408-1.667 1.178-2.389 1.923-.377.388-.732.755-1.09 1.047-1.519 1.237-2.226 2.353-2.164 3.411.047.8.534 1.496 1.447 2.076a.531.531 0 0 0 .283.082" fill="#312F4B"/>
        <path d="M155.405 107.662a.587.587 0 0 1-.313-.09c-.928-.59-1.424-1.303-1.472-2.12-.063-1.078.652-2.209 2.185-3.457.355-.29.71-.655 1.085-1.042.725-.749 1.475-1.522 2.405-1.936 1.462-.648 3.083-.61 4.649-.574 1.124.027 2.183.051 3.144-.165a.585.585 0 1 1 .256 1.142c-1.101.247-2.283.22-3.426.194-1.505-.035-2.927-.068-4.148.474-.723.32-1.392 1.012-2.04 1.68-.384.396-.778.802-1.186 1.135-1.187.966-1.794 1.824-1.755 2.48.024.42.337.823.93 1.199a.586.586 0 0 1-.314 1.08m7.442-9.126c-1.202 0-2.404.092-3.507.582-.91.404-1.653 1.17-2.371 1.91-.378.39-.735.758-1.094 1.052-1.505 1.224-2.207 2.326-2.146 3.366.047.78.526 1.463 1.422 2.033a.474.474 0 0 0 .656-.148.477.477 0 0 0-.147-.657c-.624-.395-.954-.827-.98-1.284-.042-.693.579-1.583 1.795-2.573.403-.328.794-.732 1.173-1.123.658-.678 1.335-1.378 2.077-1.707 1.245-.551 2.678-.518 4.195-.483 1.137.026 2.312.054 3.4-.191a.47.47 0 0 0 .36-.568.473.473 0 0 0-.568-.36c-.974.22-2.04.195-3.167.168a46.903 46.903 0 0 0-1.098-.017" fill="#312F4B"/>
        <path d="M155.729 112.837a.53.53 0 0 0 .226-1.01c-.661-.31-1.009-.726-1.063-1.269-.093-.93.705-2.22 1.94-3.135.209-.155.43-.324.66-.498 1.077-.818 2.417-1.836 3.542-2.262 1.282-.485 2.658-.403 4.117-.315 1.206.073 2.454.148 3.663-.124a.53.53 0 1 0-.232-1.035c-1.063.238-2.183.172-3.368.1-1.507-.09-3.062-.184-4.556.382-1.267.48-2.617 1.505-3.807 2.409a78.32 78.32 0 0 1-.652.491c-1.19.883-2.523 2.485-2.363 4.093.064.641.406 1.53 1.667 2.123a.52.52 0 0 0 .226.05" fill="#312F4B"/>
        <path d="M155.729 112.892a.58.58 0 0 1-.25-.056c-1.284-.603-1.632-1.51-1.697-2.167-.163-1.63 1.183-3.25 2.385-4.142.206-.153.424-.319.65-.49 1.195-.908 2.547-1.934 3.822-2.417 1.503-.57 3.065-.476 4.574-.386 1.186.072 2.302.138 3.357-.098a.58.58 0 0 1 .7.444.582.582 0 0 1-.444.698c-1.22.274-2.47.198-3.679.125-1.45-.088-2.821-.17-4.094.311-1.117.423-2.453 1.439-3.527 2.254-.231.176-.453.344-.662.5-1.22.904-2.008 2.173-1.917 3.085.052.522.39.923 1.032 1.225a.581.581 0 0 1 .28.778.59.59 0 0 1-.53.336m7.78-9.616c-.952 0-1.905.095-2.831.447-1.26.477-2.606 1.498-3.793 2.4-.228.173-.446.339-.653.492-1.179.875-2.499 2.458-2.34 4.044.062.627.396 1.497 1.634 2.078a.476.476 0 0 0 .406-.86c-.68-.32-1.038-.75-1.094-1.313-.095-.949.71-2.258 1.96-3.185.21-.155.43-.323.66-.497 1.08-.821 2.424-1.841 3.557-2.27 1.293-.49 2.676-.406 4.139-.319 1.2.073 2.443.148 3.648-.122a.473.473 0 0 0 .36-.568.475.475 0 0 0-.568-.36c-1.071.24-2.194.172-3.383.1-.563-.033-1.133-.067-1.703-.067" fill="#312F4B"/>
        <path d="M157.175 116.17c.578 0 1.308-.442 2.069-.903.315-.19.67-.407.823-.457 1.831-.606 5.122-.27 7.09-.07l.117.012a.53.53 0 0 0 .108-1.055l-.118-.012c-2.184-.223-5.485-.559-7.53.119-.266.087-.608.294-1.04.556-.39.236-1.182.716-1.475.748-.466-.347-.696-.756-.704-1.245-.014-.897.717-1.856 1.45-2.407 2.213-1.673 4.264-1.808 6.638-1.963 1.286-.084 2.613-.171 4.092-.503a.53.53 0 1 0-.231-1.034c-1.4.313-2.686.397-3.93.478-2.438.16-4.742.311-7.21 2.175-.875.661-1.89 1.914-1.87 3.27.01.59.226 1.442 1.209 2.137a.862.862 0 0 0 .512.154" fill="#312F4B"/>
        <path d="M157.175 116.225a.92.92 0 0 1-.544-.164c-1-.709-1.222-1.577-1.231-2.18-.021-1.377 1.005-2.647 1.891-3.316 2.48-1.873 4.79-2.025 7.236-2.186 1.248-.081 2.531-.165 3.924-.477a.58.58 0 0 1 .7.443.581.581 0 0 1-.444.699c-1.481.332-2.81.42-4.097.503-2.369.155-4.41.289-6.613 1.952-.72.543-1.44 1.484-1.427 2.363.007.466.225.855.664 1.19.297-.052 1.06-.513 1.43-.738.437-.264.781-.473 1.052-.563 2.06-.682 5.366-.343 7.554-.12l.116.012a.58.58 0 0 1 .395.212.587.587 0 0 1-.087.828.566.566 0 0 1-.427.123l-.116-.01c-1.962-.201-5.246-.536-7.067.066-.145.049-.494.26-.804.447-.783.475-1.512.916-2.105.916m11.407-8.228a.489.489 0 0 0-.107.012c-1.401.314-2.689.398-3.934.48-2.435.16-4.73.31-7.183 2.164-.865.653-1.87 1.89-1.849 3.225.009.578.221 1.411 1.186 2.093a.803.803 0 0 0 .48.144c.562 0 1.278-.434 2.037-.892.325-.197.68-.413.838-.465 1.844-.61 5.141-.273 7.113-.072l.116.011a.459.459 0 0 0 .346-.099.477.477 0 0 0-.25-.847l-.117-.01c-2.178-.223-5.47-.56-7.508.114-.259.086-.598.292-1.027.552-.418.253-1.193.722-1.498.756l-.022.002-.017-.012c-.48-.36-.718-.78-.726-1.29-.014-.916.728-1.892 1.47-2.452 2.23-1.682 4.287-1.817 6.67-1.973 1.285-.084 2.61-.171 4.084-.501a.473.473 0 0 0 .36-.568.475.475 0 0 0-.462-.372M108.929 193.566a.532.532 0 0 0 .528-.593c-1.185-9.939-2.292-18.004-3.18-24.486-1.439-10.487-2.308-16.816-1.754-18.718.28-.964.796-2.927 1.45-5.412 2.187-8.32 6.259-23.808 8.1-26.654a.532.532 0 0 0-.89-.577c-1.934 2.99-5.88 17.995-8.237 26.961-.651 2.477-1.166 4.435-1.442 5.387-.616 2.118.214 8.17 1.722 19.157.888 6.477 1.993 14.538 3.176 24.468.033.27.262.467.527.467" fill="#312F4B"/>
        <path d="M108.929 193.621a.586.586 0 0 1-.581-.516c-1.182-9.92-2.287-17.976-3.174-24.45l-.003-.016c-1.508-10.995-2.34-17.05-1.72-19.18.276-.95.789-2.901 1.438-5.372l.009-.033c2.357-8.963 6.301-23.963 8.238-26.958a.586.586 0 0 1 .984.636c-1.837 2.838-5.906 18.314-8.092 26.628-.628 2.388-1.167 4.441-1.453 5.425-.55 1.89.317 8.206 1.753 18.671l.003.025c.888 6.476 1.994 14.538 3.18 24.486a.587.587 0 0 1-.582.654m4.7-76.682a.474.474 0 0 0-.4.217c-1.928 2.98-5.87 17.97-8.225 26.926l-.009.032c-.649 2.472-1.162 4.424-1.438 5.374-.613 2.109.217 8.156 1.723 19.136l.002.017c.888 6.473 1.993 14.53 3.175 24.451a.48.48 0 0 0 .53.416.477.477 0 0 0 .415-.528c-1.186-9.947-2.291-18.008-3.18-24.485l-.003-.024c-1.438-10.48-2.305-16.805-1.749-18.717.284-.982.825-3.034 1.449-5.411 2.19-8.33 6.263-23.818 8.108-26.67a.477.477 0 0 0-.398-.734M35.66 175.926c-.73-.29-7.802-8.484-13.438-15.753-8.349-10.766-12.437-17.74-12.153-20.727.438-4.608 24.905-49.003 27.386-51.223 2.276-2.039 7.475-3.723 12.501-5.353 2.656-.86 5.165-1.673 7.006-2.47a.531.531 0 0 1 .422.975c-1.887.816-4.42 1.637-7.1 2.505-4.693 1.52-10.012 3.244-12.121 5.133-3.18 2.846-26.68 46.767-27.038 50.534-.574 6.036 20.964 31.46 24.566 35.04.092-.253.202-.57.31-.88.55-1.59 1.381-3.99 2.522-5.973.903-1.568 2.155-3.013 3.726-4.3-3.272-3.964-5.763-8.502-7.969-12.522-2.186-3.982-4.073-7.42-5.985-8.845-1.257-.94-2.64-1.576-4.103-2.25-1.19-.548-2.421-1.115-3.566-1.856a.53.53 0 0 1 .576-.89c1.082.7 2.277 1.25 3.433 1.783 1.45.667 2.948 1.357 4.295 2.362 2.096 1.563 4.035 5.096 6.28 9.186 2.26 4.117 4.82 8.783 8.196 12.76.093.11.137.254.123.398-.023.23-.154.333-.334.475-1.601 1.26-2.863 2.682-3.752 4.228-1.091 1.896-1.903 4.24-2.44 5.79-.492 1.422-.595 1.717-.905 1.86a.566.566 0 0 1-.438.013z" fill="#312F4B"/>
        <path d="M35.862 176.017a.594.594 0 0 1-.222-.04c-.736-.291-7.822-8.496-13.461-15.77-8.357-10.779-12.45-17.765-12.165-20.767.439-4.61 24.923-49.037 27.405-51.258 2.283-2.046 7.485-3.731 12.515-5.362 2.66-.862 5.168-1.674 7.007-2.47a.584.584 0 1 1 .465 1.075c-1.886.816-4.411 1.634-7.086 2.501l-.02.006c-4.687 1.519-10 3.24-12.101 5.121-3.178 2.845-26.662 46.736-27.02 50.498-.568 5.98 20.886 31.308 24.49 34.937.086-.239.183-.52.28-.8l.006-.017c.55-1.586 1.38-3.984 2.52-5.965.897-1.558 2.14-2.998 3.697-4.28-3.26-3.96-5.746-8.49-7.94-12.488-2.184-3.977-4.067-7.41-5.97-8.828-1.252-.935-2.632-1.57-4.093-2.243-1.198-.552-2.428-1.118-3.573-1.86a.586.586 0 0 1 .636-.982c1.082.7 2.274 1.248 3.427 1.779 1.45.669 2.952 1.36 4.303 2.367 2.106 1.57 4.047 5.106 6.294 9.2l-.042.04.048-.027c2.258 4.112 4.816 8.773 8.186 12.743.102.12.151.28.136.438-.026.253-.17.368-.354.513-1.596 1.255-2.854 2.672-3.74 4.212-1.087 1.889-1.897 4.228-2.433 5.776-.5 1.444-.603 1.744-.936 1.897a.63.63 0 0 1-.259.054zm21.31-95.605a.47.47 0 0 0-.188.04c-1.843.797-4.353 1.61-7.01 2.47-5.025 1.63-10.215 3.311-12.482 5.341-2.48 2.22-26.93 46.583-27.368 51.188-.283 2.973 3.802 9.933 12.141 20.689 5.632 7.262 12.691 15.449 13.415 15.735.115.046.28.042.395-.011.29-.134.391-.426.876-1.829.54-1.557 1.352-3.901 2.444-5.8.893-1.552 2.16-2.98 3.765-4.243.177-.14.294-.23.314-.437a.477.477 0 0 0-.11-.357c-3.377-3.98-5.938-8.645-8.198-12.761l-.007-.013c-2.24-4.083-4.176-7.609-6.263-9.165-1.341-1-2.837-1.69-4.283-2.355-1.156-.533-2.352-1.083-3.44-1.787a.477.477 0 0 0-.658.14.477.477 0 0 0 .14.659c1.14.737 2.366 1.301 3.551 1.847 1.475.68 2.86 1.318 4.123 2.26 1.92 1.431 3.81 4.874 5.998 8.86 2.2 4.01 4.694 8.554 7.965 12.516l.035.043-.043.034c-1.566 1.282-2.815 2.725-3.713 4.285-1.135 1.972-1.964 4.364-2.513 5.946l-.005.017c-.108.312-.218.629-.31.883l-.03.08-.06-.06c-1.72-1.71-7.994-8.92-13.854-16.606-5.065-6.642-11.037-15.239-10.728-18.48.357-3.769 23.873-47.721 27.055-50.57 2.118-1.896 7.443-3.621 12.141-5.143l.02-.007c2.672-.866 5.195-1.684 7.075-2.497a.476.476 0 0 0-.19-.912zm-21.317 95.075-.007-.11h.007v.11z" fill="#312F4B"/>
        <path d="M45.422 161.952a.53.53 0 0 0 .526-.471c.902-8.122.014-17.207-.845-25.992-.432-4.409-.839-8.573-1.022-12.552-.088-1.928.282-4.052.674-6.3.672-3.864 1.368-7.86-.277-11.215a.532.532 0 0 0-.953.467c1.494 3.046.829 6.869.184 10.566-.401 2.307-.781 4.486-.687 6.53.184 4.007.593 8.184 1.025 12.607.853 8.731 1.736 17.76.847 25.771a.53.53 0 0 0 .528.589" fill="#312F4B"/>
        <path d="M45.422 162.007c-.022 0-.045 0-.067-.004a.582.582 0 0 1-.515-.646c.888-8.006.005-17.031-.848-25.76-.432-4.421-.84-8.598-1.025-12.609-.094-2.045.285-4.221.685-6.524l.003-.019c.643-3.688 1.307-7.5-.18-10.532a.587.587 0 0 1 1.052-.515c1.653 3.37.956 7.374.282 11.245-.392 2.248-.761 4.37-.673 6.292.183 3.97.59 8.126 1.02 12.526l.001.023c.86 8.788 1.748 17.875.846 26.002a.584.584 0 0 1-.581.52M44 105.18a.477.477 0 0 0-.426.685c1.503 3.063.835 6.894.189 10.6l-.003.017c-.4 2.298-.777 4.468-.683 6.502.184 4.007.592 8.183 1.025 12.603.853 8.734 1.736 17.765.846 25.782a.476.476 0 0 0 .945.106c.902-8.117.014-17.198-.845-25.98l-.002-.023c-.43-4.402-.837-8.559-1.02-12.532-.088-1.935.282-4.061.674-6.313.672-3.857 1.366-7.842-.271-11.18a.478.478 0 0 0-.43-.267M42.016 192.314c.285 0 .52-.225.53-.512.037-1.091.059-2.254.082-3.453.063-3.256.133-6.946.541-10.06a.531.531 0 0 0-1.052-.138c-.414 3.173-.487 6.894-.55 10.178-.022 1.194-.044 2.35-.082 3.437-.01.293.22.538.513.548h.018z" fill="#312F4B"/>
        <path d="M42.016 192.37h-.018a.588.588 0 0 1-.568-.606c.038-1.092.06-2.284.083-3.436.062-3.282.134-7.002.55-10.185a.586.586 0 0 1 1.161.152c-.408 3.118-.479 6.804-.54 10.055l-.004.144a240.268 240.268 0 0 1-.079 3.31.584.584 0 0 1-.585.565m.628-14.625a.478.478 0 0 0-.473.414c-.415 3.176-.486 6.893-.548 10.172-.023 1.153-.045 2.346-.082 3.438a.477.477 0 0 0 .459.492h.016a.475.475 0 0 0 .475-.46c.035-1.047.057-2.146.08-3.308l.002-.144c.062-3.254.133-6.943.542-10.066a.476.476 0 0 0-.471-.538M30.175 142.992a.529.529 0 0 0 .331-.116c.8-.64 1.957-2.963 4.105-7.357 2.476-5.067 5.866-12.007 9.348-16.624a.53.53 0 1 0-.847-.638c-3.543 4.698-6.96 11.69-9.455 16.796-1.626 3.329-3.163 6.474-3.814 6.994a.53.53 0 0 0 .332.945" fill="#312F4B"/>
        <path d="M30.175 143.047a.586.586 0 0 1-.366-1.042c.64-.513 2.172-3.647 3.793-6.964 2.5-5.118 5.917-12.11 9.467-16.817a.584.584 0 1 1 .934.704c-3.479 4.613-6.868 11.55-9.343 16.615-2.152 4.401-3.312 6.73-4.12 7.376a.584.584 0 0 1-.365.128M43.537 118.1a.474.474 0 0 0-.38.19c-3.544 4.697-6.957 11.685-9.45 16.787-1.633 3.34-3.17 6.486-3.83 7.013a.477.477 0 0 0 .595.743c.789-.632 1.945-2.95 4.09-7.338 2.476-5.07 5.868-12.011 9.353-16.633a.476.476 0 0 0-.378-.762M38.311 175.23a.746.746 0 0 0 .102-.005c.473-.052.523-.232 1.37-3.242.617-2.196 1.463-5.204 2.101-6.37a.53.53 0 0 0-.93-.508c-.696 1.271-1.526 4.221-2.192 6.591-.241.859-.507 1.803-.677 2.32a9.759 9.759 0 0 1-.325-.297c-.217-.204-.421-.396-.64-.508a.53.53 0 0 0-.486.942c.086.044.26.207.4.338.37.348.786.74 1.277.74" fill="#312F4B"/>
        <path d="M38.311 175.285c-.514 0-.94-.4-1.315-.754-.13-.121-.307-.288-.388-.33a.586.586 0 0 1-.25-.788.588.588 0 0 1 .788-.251c.224.116.432.31.652.517.055.052.16.151.26.24.176-.547.439-1.48.651-2.238.667-2.373 1.498-5.326 2.197-6.603a.588.588 0 0 1 .794-.232.587.587 0 0 1 .233.795c-.637 1.162-1.481 4.165-2.097 6.357-.856 3.044-.907 3.226-1.418 3.281a.965.965 0 0 1-.107.006m-1.432-2.078a.476.476 0 0 0-.22.897c.093.048.27.214.412.348.36.34.77.724 1.24.724a.767.767 0 0 0 .095-.006c.437-.047.487-.225 1.323-3.196.62-2.203 1.465-5.214 2.107-6.386a.477.477 0 0 0-.189-.646.477.477 0 0 0-.646.19c-.692 1.265-1.52 4.211-2.186 6.58a67.676 67.676 0 0 1-.678 2.32l-.026.079-.062-.054c-.12-.102-.26-.235-.327-.298-.213-.201-.415-.391-.626-.5a.476.476 0 0 0-.217-.052M43.64 173.313c.018 0 .037 0 .057-.002a.532.532 0 0 0 .47-.584c-.03-.279.15-.864.27-1.25.039-.126.075-.243.103-.344a.532.532 0 0 0-1.022-.286c-.026.093-.06.201-.095.317-.162.526-.364 1.18-.31 1.675.03.273.26.474.526.474" fill="#312F4B"/>
        <path d="M43.64 173.368a.585.585 0 0 1-.582-.522c-.055-.509.15-1.169.313-1.698l.026-.085c.025-.083.049-.16.068-.23a.586.586 0 0 1 1.128.316c-.026.09-.057.192-.091.302l-.013.041c-.11.36-.296.96-.267 1.228a.587.587 0 0 1-.583.648m.392-2.853a.479.479 0 0 0-.46.347l-.069.233-.026.085c-.161.52-.361 1.168-.309 1.654a.477.477 0 0 0 .946-.102c-.032-.29.15-.881.271-1.272l.013-.04c.034-.11.065-.211.09-.301a.477.477 0 0 0-.456-.604M72.2 168.532a.53.53 0 0 0 .526-.609c-1.039-6.986.823-58.86 1.418-74.593a.53.53 0 0 0-.51-.55.519.519 0 0 0-.55.51c-.765 20.194-2.43 67.906-1.408 74.79.04.263.267.452.525.452" fill="#312F4B"/>
        <path d="M72.2 168.587a.59.59 0 0 1-.578-.5c-1.024-6.895.643-54.606 1.407-74.799a.594.594 0 0 1 .192-.417.56.56 0 0 1 .416-.145.586.586 0 0 1 .561.606c-.595 15.734-2.454 67.61-1.418 74.583a.587.587 0 0 1-.58.672m1.401-75.752a.45.45 0 0 0-.307.117.482.482 0 0 0-.155.34c-.764 20.19-2.432 67.892-1.408 74.78a.485.485 0 0 0 .541.4.477.477 0 0 0 .4-.54c-1.039-6.984.822-58.868 1.416-74.604a.477.477 0 0 0-.456-.493h-.03" fill="#312F4B"/>
        <path d="M66.833 169.331c7.015 0 15.956-1.25 17.31-2.2a.53.53 0 0 0-.609-.868c-1.271.891-17.637 3.2-23.325 1.339a.53.53 0 1 0-.33 1.007c1.576.517 4.107.722 6.954.722" fill="#312F4B"/>
        <path d="M66.833 169.386c-3.113 0-5.523-.25-6.971-.724a.581.581 0 0 1-.375-.739.579.579 0 0 1 .293-.34.58.58 0 0 1 .446-.033c5.68 1.857 22.009-.443 23.277-1.332a.578.578 0 0 1 .437-.097.587.587 0 0 1 .234 1.056c-1.347.944-10.167 2.21-17.341 2.21m-6.79-1.757a.477.477 0 0 0-.147.927c1.437.471 3.836.72 6.937.72 5.92 0 15.729-1.104 17.278-2.19a.476.476 0 0 0-.545-.779c-1.275.893-17.675 3.21-23.374 1.346a.462.462 0 0 0-.149-.024M89.996 72.57c3.792 0 6.047-3.431 6.537-6.617a.53.53 0 1 0-1.049-.162c-.438 2.846-2.304 5.717-5.488 5.717a.53.53 0 0 0 0 1.061" fill="#312F4B"/>
        <path d="M89.996 72.624a.586.586 0 0 1 0-1.17c3.151 0 5-2.849 5.434-5.672a.583.583 0 0 1 .667-.489.581.581 0 0 1 .49.668c-.494 3.209-2.767 6.663-6.591 6.663m6.014-7.227a.472.472 0 0 0-.471.402c-.441 2.87-2.327 5.764-5.543 5.764a.476.476 0 0 0 0 .951c3.76 0 5.996-3.406 6.483-6.57a.472.472 0 0 0-.469-.547" fill="#312F4B"/>
        <path d="M85.832 72.723c3.635 0 6.265-1.91 7.217-5.24a.53.53 0 1 0-1.02-.292c-.824 2.884-3.025 4.471-6.197 4.471a.53.53 0 0 0 0 1.061" fill="#312F4B"/>
        <path d="M85.832 72.778a.586.586 0 0 1 0-1.17c3.145 0 5.328-1.574 6.145-4.432a.587.587 0 0 1 1.074-.124.582.582 0 0 1 .05.445c-.958 3.356-3.608 5.281-7.269 5.281m6.709-5.917c-.208 0-.4.137-.458.345-.833 2.909-3.052 4.511-6.25 4.511a.476.476 0 0 0 0 .951c3.608 0 6.219-1.895 7.163-5.2a.472.472 0 0 0-.455-.606M62.783 71.721a.53.53 0 0 0 .128-1.045c-3.294-.823-4.712-2.48-5.232-6.113a.53.53 0 1 0-1.05.15c.579 4.041 2.324 6.067 6.025 6.992.043.01.087.016.13.016" fill="#312F4B"/>
        <path d="M62.783 71.776a.581.581 0 0 1-.143-.018c-3.726-.931-5.483-2.97-6.065-7.037a.586.586 0 0 1 .496-.662.588.588 0 0 1 .663.496c.516 3.607 1.923 5.251 5.19 6.068a.587.587 0 0 1-.14 1.153m-5.632-7.613a.476.476 0 0 0-.468.542c.574 4.016 2.308 6.029 5.983 6.947a.475.475 0 1 0 .23-.923c-3.319-.83-4.748-2.499-5.272-6.158a.478.478 0 0 0-.473-.408" fill="#312F4B"/>
        <path d="M66.488 73.151a.53.53 0 0 0 .144-1.041c-3.794-1.067-5.568-6.26-5.641-6.48a.53.53 0 1 0-1.006.335c.202.608 2.104 5.97 6.36 7.166.048.013.097.02.143.02" fill="#312F4B"/>
        <path d="M66.488 73.206a.597.597 0 0 1-.158-.022c-4.288-1.206-6.194-6.592-6.397-7.201a.581.581 0 0 1 .815-.709.58.58 0 0 1 .295.338c.073.22 1.849 5.389 5.604 6.445a.586.586 0 0 1-.159 1.149m-6.001-7.884a.469.469 0 0 0-.424.264.47.47 0 0 0-.026.362c.201.604 2.09 5.94 6.322 7.13a.482.482 0 0 0 .587-.328.476.476 0 0 0-.33-.587c-3.81-1.072-5.603-6.294-5.678-6.516a.47.47 0 0 0-.24-.275.473.473 0 0 0-.211-.05M129.828 33.037c0-16.532 13.456-29.982 29.995-29.982s29.995 13.45 29.995 29.982c0 16.533-13.456 29.982-29.995 29.982-16.54 0-29.995-13.45-29.995-29.982" fill="#312F4B"/>
        <path d="M159.823 63.074c-16.57 0-30.05-13.475-30.05-30.037 0-16.562 13.48-30.037 30.05-30.037s30.05 13.475 30.05 30.037c0 16.562-13.48 30.037-30.05 30.037m0-59.965c-16.509 0-29.94 13.426-29.94 29.928 0 16.502 13.431 29.927 29.94 29.927s29.94-13.425 29.94-29.927S176.332 3.11 159.823 3.11m0 58.904c-15.984 0-28.99-12.998-28.99-28.976S143.84 4.06 159.824 4.06c15.984 0 28.989 13 28.989 28.977 0 15.978-13.005 28.976-28.989 28.976m0-57.843c-15.924 0-28.88 12.95-28.88 28.867 0 15.917 12.956 28.867 28.88 28.867s28.879-12.95 28.879-28.867c0-15.917-12.955-28.867-28.879-28.867" fill="#312F4B"/>
        <path d="M162.266 94.858a.53.53 0 0 0 .53-.53V62.404a.53.53 0 0 0-1.06 0v31.922c0 .293.237.53.53.53" fill="#312F4B"/>
        <path d="M162.266 94.913a.586.586 0 0 1-.585-.586V62.405a.586.586 0 0 1 1.17 0v31.922a.586.586 0 0 1-.585.586m0-32.984a.476.476 0 0 0-.475.476v31.922a.476.476 0 0 0 .95 0V62.405a.476.476 0 0 0-.475-.476M159.44 135.95h1.686c.921 0 1.67-.891 1.67-1.986v-19.93a.53.53 0 0 0-1.06 0v19.93c0 .493-.285.924-.61.924h-1.686c-.325 0-.61-.431-.61-.924v-18.591a.53.53 0 1 0-1.06 0v18.59c0 1.096.75 1.986 1.67 1.986" fill="#312F4B"/>
        <path d="M161.126 136.004h-1.686c-.95 0-1.725-.915-1.725-2.04v-18.592a.586.586 0 0 1 1.17 0v18.592c0 .455.265.87.555.87h1.686c.29 0 .555-.415.555-.87v-19.93a.586.586 0 0 1 1.17 0v19.93c0 1.125-.774 2.04-1.725 2.04m-2.826-21.107a.476.476 0 0 0-.475.475v18.592c0 1.064.725 1.93 1.615 1.93h1.686c.89 0 1.615-.866 1.615-1.93v-19.93a.476.476 0 0 0-.95 0v19.93c0 .522-.311.98-.665.98h-1.686c-.353 0-.665-.458-.665-.98v-18.592a.476.476 0 0 0-.475-.475M158.3 94.989a.53.53 0 0 0 .53-.53V62.523a.53.53 0 0 0-1.06 0v31.934c0 .293.237.53.53.53" fill="#312F4B"/>
        <path d="M158.3 95.044a.586.586 0 0 1-.585-.586V62.524a.586.586 0 0 1 1.17 0v31.934a.586.586 0 0 1-.585.586m0-32.996a.476.476 0 0 0-.475.476v31.934a.476.476 0 0 0 .95 0V62.524a.476.476 0 0 0-.475-.476M55.765 165.867c.204 0 .398-.031.578-.1.407-.156.91-.563 1.003-1.616.075-.866-.665-1.625-1.156-2.126l-.179-.185c-.22-.236-.479-.536-.766-.87-1.6-1.853-4.019-4.651-6.377-4.09-.8.19-1.651.94-2.606 2.286-.396.56-.75 1.096-1.086 1.607-1.064 1.613-1.904 2.887-3.335 3.811a.531.531 0 0 0 .576.892c1.617-1.046 2.557-2.47 3.644-4.12.331-.5.678-1.027 1.067-1.577.981-1.386 1.621-1.781 1.986-1.868 1.731-.413 3.983 2.194 5.327 3.753.299.346.567.657.797.902l.194.2c.333.34.89.912.857 1.292-.035.407-.145.649-.325.718-.679.258-2.507-.939-3.504-1.869-1.16-1.086-3.042-2.843-4.216-1.715a.53.53 0 0 0 .734.766c.3-.289 1.217.28 2.721 1.69.14.13 2.398 2.218 4.066 2.219" fill="#312F4B"/>
        <path d="M55.765 165.922c-1.697 0-4.005-2.143-4.103-2.234-1.941-1.818-2.49-1.84-2.645-1.691a.587.587 0 0 1-.991-.433.583.583 0 0 1 .18-.411c1.214-1.167 3.14.637 4.292 1.714 1.007.94 2.806 2.102 3.446 1.857.157-.06.257-.292.29-.67.031-.358-.536-.938-.842-1.25l-.193-.2c-.227-.241-.483-.538-.78-.881l-.02-.023c-1.336-1.549-3.573-4.142-5.272-3.736-.355.085-.982.474-1.954 1.847-.383.541-.723 1.056-1.052 1.555l-.014.021c-1.091 1.654-2.033 3.083-3.66 4.134a.587.587 0 0 1-.89-.614.582.582 0 0 1 .254-.369c1.42-.917 2.256-2.184 3.315-3.788l.012-.02c.337-.51.686-1.04 1.079-1.596.963-1.358 1.826-2.114 2.638-2.308 2.393-.568 4.823 2.246 6.431 4.109l.025.029c.282.327.527.61.74.838l.178.185c.498.508 1.25 1.275 1.171 2.168-.094 1.082-.615 1.502-1.037 1.662-.18.07-.38.105-.598.105m-6.587-4.09c.445 0 1.289.586 2.56 1.776.095.09 2.373 2.203 4.027 2.204.204 0 .392-.033.559-.097.392-.15.877-.544.967-1.569.074-.843-.657-1.589-1.14-2.083l-.18-.185c-.215-.23-.46-.514-.743-.843l-.025-.028c-1.59-1.843-3.993-4.628-6.323-4.074-.784.188-1.627.929-2.573 2.265-.392.554-.74 1.083-1.077 1.593l-.008.013c-1.07 1.621-1.912 2.897-3.351 3.827a.476.476 0 0 0 .516.798c1.608-1.039 2.544-2.459 3.628-4.103l.014-.02c.33-.5.67-1.016 1.054-1.559.992-1.4 1.645-1.8 2.018-1.89 1.764-.42 4.03 2.203 5.382 3.771l.02.022c.295.343.551.64.775.879l.193.2c.34.346.909.925.873 1.334-.038.43-.16.687-.36.764-.707.269-2.554-.94-3.561-1.88-1.123-1.051-3.002-2.81-4.141-1.715a.473.473 0 0 0-.014.672.478.478 0 0 0 .673.014.328.328 0 0 1 .237-.086" fill="#312F4B"/>
        <path d="M54.007 170.992c.669 0 1.034-.3 1.212-.522.483-.603.42-1.6-.164-2.599-1.365-2.34-3.575-4.11-5.35-5.53-.768-.616-2.198-1.761-3.653-.82a.531.531 0 0 0 .576.891c.68-.44 1.399-.057 2.414.755 1.796 1.44 3.831 3.07 5.097 5.238.377.644.41 1.204.252 1.402-.132.165-.508.17-1.004.011-.426-.135-2.696-1.762-3.546-2.443-.125-.1-.264-.217-.413-.343-.61-.514-1.369-1.156-2.172-1.513-1.364-.609-2.203-.085-2.663.462a.53.53 0 1 0 .81.684c.246-.29.605-.54 1.421-.177.665.296 1.361.883 1.92 1.355.157.132.302.255.434.36.487.39 3.15 2.392 3.888 2.627.366.116.677.162.94.162" fill="#312F4B"/>
        <path d="M54.007 171.047c-.292 0-.614-.056-.958-.165-.746-.238-3.417-2.245-3.906-2.637-.126-.101-.267-.22-.417-.346l-.017-.014c-.556-.47-1.247-1.053-1.907-1.347-.778-.346-1.112-.127-1.357.162a.583.583 0 0 1-.824.07.586.586 0 0 1-.07-.824c.473-.562 1.33-1.1 2.728-.477.808.36 1.57 1.002 2.18 1.518l.106.088c.11.093.214.18.31.258.85.68 3.11 2.3 3.53 2.433.466.149.828.152.943.006.126-.158.13-.677-.256-1.339-1.262-2.161-3.293-3.788-5.085-5.223-.994-.795-1.697-1.174-2.35-.751a.587.587 0 0 1-.809-.174.586.586 0 0 1 .174-.809c1.489-.964 2.938.198 3.717.821 1.779 1.425 3.993 3.198 5.363 5.546.597 1.02.657 2.04.16 2.66-.198.249-.577.544-1.255.544m-7.897-4.796c.198 0 .438.054.737.187.674.3 1.372.89 1.932 1.363l.018.014c.15.126.289.244.415.345.486.389 3.139 2.384 3.87 2.617.334.106.645.16.925.16.635 0 .986-.272 1.169-.502.469-.584.404-1.557-.168-2.537-1.36-2.33-3.566-4.096-5.338-5.515-.757-.607-2.166-1.736-3.588-.815a.477.477 0 0 0 .517.798c.707-.458 1.444-.069 2.477.759 1.8 1.44 3.839 3.073 5.11 5.253.394.672.422 1.245.248 1.463-.15.187-.537.198-1.063.03-.437-.14-2.688-1.75-3.565-2.453-.096-.078-.2-.165-.312-.259l-.102-.085c-.61-.515-1.364-1.151-2.159-1.505-1.334-.596-2.15-.086-2.6.448a.476.476 0 0 0 .728.613c.168-.199.386-.379.749-.379" fill="#312F4B"/>
        <path d="M51.644 176.283c.155 0 .303-.021.44-.066.354-.116.8-.426.911-1.25.157-1.153-.665-2.08-1.325-2.823-.13-.148-.256-.289-.365-.423l-.167-.206c-1.632-2.016-4.363-5.39-7.078-5.476a.539.539 0 0 0-.547.514.531.531 0 0 0 .514.547c2.23.07 4.869 3.33 6.287 5.082l.167.207c.118.146.253.298.395.459.543.611 1.158 1.306 1.068 1.977-.03.224-.094.353-.19.384-.776.253-3.275-1.697-4.168-2.623-1.53-1.591-2.832-2.31-3.956-2.199-.755.075-1.391.51-1.892 1.293a.53.53 0 1 0 .894.572c.32-.503.681-.767 1.103-.81.774-.071 1.815.557 3.087 1.88.031.033 2.976 2.96 4.822 2.96" fill="#312F4B"/>
        <path d="M51.644 176.338c-1.889 0-4.833-2.948-4.862-2.979-1.257-1.306-2.282-1.932-3.042-1.861-.403.04-.75.296-1.062.784a.586.586 0 0 1-.986-.631c.51-.798 1.16-1.242 1.933-1.318 1.151-.114 2.459.61 4 2.215.992 1.029 3.41 2.838 4.113 2.609.071-.023.125-.144.152-.34.087-.646-.52-1.33-1.054-1.933-.149-.166-.28-.316-.397-.46l-.168-.207c-1.412-1.745-4.041-4.992-6.246-5.062a.587.587 0 0 1-.567-.603.59.59 0 0 1 .6-.567h.002c2.743.087 5.483 3.473 7.121 5.496l.167.206c.095.117.203.24.318.37l.045.05c.667.753 1.498 1.688 1.339 2.868-.116.852-.58 1.174-.949 1.294-.139.046-.292.069-.457.069m-7.787-4.955c.78 0 1.79.639 3.004 1.9.028.03 2.96 2.945 4.783 2.945.153 0 .295-.022.423-.063.339-.11.766-.41.874-1.205.153-1.13-.66-2.044-1.312-2.78l-.045-.05c-.115-.13-.224-.255-.322-.374l-.166-.206c-1.626-2.009-4.347-5.37-7.038-5.456h-.001a.481.481 0 0 0-.49.461.477.477 0 0 0 .462.49c2.254.072 4.904 3.344 6.328 5.103l.167.207c.115.142.247.291.394.456.55.621 1.174 1.324 1.08 2.021-.033.25-.107.39-.226.43-.833.269-3.372-1.75-4.226-2.638-1.517-1.578-2.795-2.293-3.91-2.182-.738.073-1.36.5-1.852 1.267a.474.474 0 0 0 .145.657.476.476 0 0 0 .656-.143c.331-.518.705-.791 1.144-.834.042-.004.084-.006.128-.006" fill="#312F4B"/>
        <path d="M45.57 180.726c.129 0 .257-.016.383-.056.25-.077.585-.272.77-.761.34-.909-.233-1.949-.611-2.637l-.117-.212c-.301-.567-.692-1.119-1.105-1.703-.836-1.18-1.7-2.402-1.7-3.652a.53.53 0 0 0-1.061 0c0 1.588 1.006 3.01 1.895 4.265.393.556.765 1.081 1.036 1.589l.123.224c.285.518.716 1.301.546 1.753-.04.106-.076.117-.09.12-.145.047-.52-.07-.906-.34-.505-.355-.845-.972-1.205-1.625-.405-.737-.824-1.499-1.54-1.976-.543-.362-1.126-.43-1.641-.491-.769-.09-1.185-.168-1.504-.806a.53.53 0 0 0-.949.474c.59 1.18 1.554 1.294 2.329 1.385.435.052.845.1 1.176.32.5.334.84.951 1.2 1.606.403.73.819 1.486 1.526 1.98.257.182.848.543 1.445.543" fill="#312F4B"/>
        <path d="M45.57 180.78c-.623 0-1.24-.385-1.477-.551-.716-.501-1.135-1.261-1.54-1.996-.36-.655-.697-1.265-1.185-1.59-.319-.212-.722-.26-1.149-.31-.79-.094-1.771-.21-2.374-1.416a.582.582 0 0 1 .708-.817c.148.05.269.154.339.294.307.613.69.684 1.462.776.523.062 1.112.131 1.664.5.727.484 1.15 1.252 1.558 1.994.357.649.694 1.26 1.189 1.606.406.285.753.368.858.335.011-.004.032-.03.055-.088.16-.428-.263-1.198-.543-1.707l-.124-.225c-.27-.508-.64-1.03-1.032-1.583-.893-1.261-1.906-2.691-1.906-4.297a.586.586 0 0 1 1.17 0c0 1.234.86 2.447 1.692 3.62l.018.026c.407.576.792 1.121 1.091 1.683l.116.211c.384.698.963 1.75.613 2.683-.191.512-.543.714-.803.794a1.34 1.34 0 0 1-.4.059m-7.203-6.602a.472.472 0 0 0-.45.327c-.04.12-.03.248.026.361.577 1.154 1.524 1.266 2.287 1.356.443.052.859.102 1.2.33.51.34.852.96 1.214 1.618.405.733.817 1.482 1.512 1.968.228.16.822.532 1.414.532.13 0 .253-.018.367-.054.238-.072.557-.258.733-.727.333-.885-.232-1.913-.606-2.592l-.116-.212c-.296-.556-.68-1.098-1.085-1.671l-.018-.026c-.841-1.187-1.71-2.415-1.71-3.684a.476.476 0 0 0-.952 0c0 1.571 1.002 2.986 1.886 4.234.393.555.765 1.08 1.039 1.594l.123.224c.29.527.728 1.323.55 1.798-.044.116-.09.143-.125.154-.182.058-.583-.089-.954-.35-.516-.36-.859-.982-1.221-1.64-.403-.733-.819-1.488-1.524-1.958-.53-.354-1.105-.422-1.613-.482-.77-.091-1.22-.175-1.55-.836a.47.47 0 0 0-.427-.264" fill="#312F4B"/>
        <path d="M96.513 121.274c-.072.932-.39 5.627-1.272 5.972-.453.177-.613-1.194-.613-1.493 0-1.827.3-3.663.47-5.473.234-2.452.296-11.897-4.522-12.9-4.8-1-8.187 6.506-8.794 8.641-.51 1.794-1.237 4.477-1.565 5.201-.33.724-.84 1.224-1.258.51-.418-.715.325-3.842.608-5.04.55-2.322 4.07-13.248 11.494-11.385 6.161 1.546 5.636 13.611 5.452 15.967" fill="#B2B1B1"/>
        <path d="M64.626 120.066c0-2.454-2.013-4.444-4.497-4.444s-4.498 1.99-4.498 4.444c0 2.455 2.014 4.444 4.498 4.444 2.484 0 4.497-1.99 4.497-4.444" fill="#D9D9D9"/>
        <path d="M94.975 118.67s-3.334-1.889-5.347-2.264c-2.822-.527-8.036-.264-8.036-.264l-.56 1.7s1.664-.547 2.72-.748c1.055-.202 3.31-.008 4.313.205 1.005.212 3.769 1.312 4.539 1.655.77.343 2.56 1.234 2.56 1.234l.07-.804-.259-.714zM91.515 105.386s.395-2.37.863-4.686c.467-2.316.881-6.596 1.086-8.407.205-1.811.226-5.756.055-7.536-.171-1.78-.555-4.056-.923-5.134-.368-1.078-1.047-1.929-1.75-2.764-.703-.834-1.666-.526-2.215-.88-.55-.352-.076.398.559 1.26.635.863 1.93 3.539 2.19 5.07.26 1.53.36 6.341.286 7.787-.072 1.446-.5 3.872-.688 5.81-.188 1.938-.696 4.04-.917 5.293-.22 1.252-.769 3.883-.769 3.883l2.223.304zM60.122 115.604s-.647-2.17-.775-4.268-1-6.57-.897-8.4c.105-1.83-.01-8.115.291-10.254.303-2.139 1.024-7.944 1.444-9.484.42-1.54 1.253-4.592 2.037-5.8.785-1.208 3.517-3.6 2.848-3.56-.67.04-1.924.74-2.418 1.273-.495.534-1.4 1.622-1.937 2.683-.538 1.062-1.73 4.113-2.177 5.406-.447 1.294-1.378 6.387-1.572 7.984-.195 1.597-.475 5.778-.242 7.812.233 2.035.354 6.287.575 7.78.22 1.492.519 5.28.699 6.224.18.944.632 2.824.632 2.824l1.492-.22z" fill="#B2B1B1"/>
        <path d="M94.748 127.662c-.623-.425-.65-1.895-.65-1.91 0-1.317.153-2.64.3-3.92.06-.535.123-1.07.173-1.603.278-2.919.118-11.451-4.104-12.33-4.536-.945-7.734 6.718-8.174 8.267l-.282.998c-.48 1.708-1.024 3.643-1.311 4.278-.336.737-.766 1.14-1.246 1.165-.218.014-.629-.053-.953-.608-.376-.644-.223-2.164.551-5.429.018-.08 1.952-8.055 6.738-10.964 1.676-1.019 3.49-1.292 5.4-.813 6.662 1.672 6.043 14.057 5.852 16.522v.001l-.01.142c-.39 5.125-.998 6.047-1.598 6.281a.736.736 0 0 1-.686-.077zm1.236-6.428c.111-1.42.907-13.917-5.051-15.412-1.623-.407-3.168-.174-4.591.69-4.412 2.683-6.241 10.227-6.26 10.314-.868 3.663-.754 4.465-.665 4.638l.016.027c.073-.078.183-.229.3-.488.255-.561.81-2.538 1.256-4.125l.283-1.002c.585-2.055 4.094-10.122 9.412-9.015 5.005 1.041 5.266 10.076 4.944 13.469-.051.54-.114 1.08-.177 1.624-.143 1.25-.292 2.543-.292 3.799 0 .142.03.38.073.597.207-.575.509-1.906.741-4.973l.011-.144v.001z" fill="#312F4B"/>
        <path d="M95.162 127.847a.797.797 0 0 1-.445-.14c-.645-.44-.674-1.939-.674-1.954 0-1.315.151-2.635.298-3.91l.006-.051c.059-.515.12-1.047.169-1.568.276-2.906.124-11.4-4.06-12.271-1.31-.273-3.34.056-5.568 3.176-1.39 1.948-2.313 4.244-2.543 5.052l-.289 1.026c-.477 1.698-1.019 3.622-1.306 4.257-.346.758-.793 1.173-1.293 1.198-.182.012-.648-.025-1.003-.635-.385-.658-.232-2.191.544-5.47.005-.019.487-2.033 1.586-4.43.99-2.162 2.69-5.056 5.178-6.568 1.688-1.026 3.52-1.302 5.442-.82 6.702 1.683 6.085 14.107 5.893 16.58l-.011.143c-.391 5.154-1.016 6.088-1.632 6.328a.789.789 0 0 1-.292.057zm-.383-.23a.68.68 0 0 0 .635.071c.986-.385 1.334-3.224 1.563-6.234l.01-.142c.191-2.459.807-14.805-5.81-16.466-1.893-.475-3.696-.204-5.358.807-1.36.827-3.354 2.628-5.136 6.519-1.093 2.388-1.573 4.391-1.578 4.411-.769 3.247-.925 4.758-.556 5.39.313.535.7.593.902.579.457-.023.871-.415 1.198-1.133.285-.628.825-2.548 1.301-4.241l.29-1.027c.442-1.557 3.654-9.262 8.238-8.306 4.263.888 4.427 9.458 4.148 12.39-.05.522-.11 1.055-.17 1.57l-.006.05c-.146 1.273-.297 2.59-.297 3.898 0 .014.029 1.456.626 1.863zm.437-1.062-.038-.194a3.595 3.595 0 0 1-.074-.608c0-1.254.148-2.543.291-3.79l.016-.134c.056-.494.115-1.005.162-1.505.32-3.38.064-12.376-4.9-13.41-5.27-1.097-8.766 6.931-9.348 8.977l-.283 1.002c-.449 1.596-1.003 3.569-1.259 4.133a1.866 1.866 0 0 1-.31.503l-.05.053-.054-.09c-.115-.225-.182-1.13.659-4.678.017-.076 1.865-7.66 6.285-10.348 1.437-.874 2.996-1.108 4.633-.697 6.003 1.506 5.204 14.044 5.093 15.47l-.01.142c-.233 3.057-.534 4.4-.746 4.988l-.067.186zm-5.524-19.853c.327 0 .661.034 1.003.104 5.044 1.05 5.31 10.122 4.987 13.529-.047.5-.106 1.012-.162 1.506l-.016.135c-.142 1.243-.29 2.53-.29 3.777 0 .09.012.227.034.372.203-.67.463-2.024.67-4.752l.012-.144c.11-1.419.904-13.87-5.011-15.354-1.607-.404-3.137-.173-4.55.684-4.38 2.664-6.217 10.204-6.234 10.28-.811 3.422-.755 4.32-.688 4.55.06-.077.145-.206.236-.409.253-.556.806-2.524 1.25-4.106l.286-1.013c.55-1.934 3.683-9.159 8.473-9.159z" fill="#312F4B"/>
        <path d="M84.231 143.64c-.263 0-.927-.046-1.402-.47a1.348 1.348 0 0 1-.458-1.026c-.004-.662.293-.989.543-1.148.789-.5 1.998.076 2.97.54.195.093.474.225.524.24a.5.5 0 0 1 .103.022 8.228 8.228 0 0 0 1.597-1.067c3.824-3.241 5.355-8.267 6.595-13.136a.588.588 0 0 1 1.07-.155c.08.135.102.293.063.445-1.286 5.052-2.885 10.274-6.97 13.739-1.333 1.13-2.89 1.84-4.386 2.002-.08.01-.164.014-.249.014m-.587-2.727c-.247 0-.475.052-.671.177-.227.143-.496.442-.492 1.053.002.375.147.702.42.945.448.399 1.08.442 1.33.442.08 0 .16-.004.238-.013 1.474-.16 3.01-.861 4.326-1.976 4.061-3.445 5.653-8.649 6.935-13.683a.473.473 0 0 0-.343-.579.477.477 0 0 0-.578.343c-1.244 4.887-2.781 9.93-6.63 13.193a8.313 8.313 0 0 1-1.639 1.091l-.02.01-.023-.007a.484.484 0 0 0-.11-.026c-.065-.017-.273-.117-.54-.243-.703-.336-1.525-.727-2.203-.727m.582 1.667c-.248 0-.54-.067-.691-.202a.297.297 0 0 1-.104-.24c0-.144.026-.221.048-.244l.01-.008c.066-.039.263-.158 1.612.455l.144.065-.153.038a5.53 5.53 0 0 1-.726.128 1.189 1.189 0 0 1-.14.008m-.666-.607a.528.528 0 0 0-.018.164c0 .074.018.117.065.16.156.138.51.194.747.166.183-.02.368-.05.552-.089-.98-.434-1.264-.433-1.346-.4" fill="#312F4B"/>
        <path d="M81.757 144.094c-.529 0-1.039-.235-1.364-.63-.946-1.146-1.662-2.762-2.016-4.55-.942-4.736-.514-9.626-.1-14.355l.012-.127c.065-.748.13-1.493.189-2.234a.596.596 0 0 1 .627-.537.587.587 0 0 1 .54.63c-.062.77-.127 1.529-.202 2.37-.407 4.653-.827 9.456.082 14.026.117.589.276 1.158.474 1.695a.57.57 0 0 1 .462.249c.137.193.672.331 1.062.433.652.168 1.325.342 1.639.9.17.3.196.648.08 1.034a1.485 1.485 0 0 1-1.155 1.063 1.666 1.666 0 0 1-.33.033m-1.28-.7c.3.364.791.59 1.28.59.105 0 .21-.01.308-.03a1.378 1.378 0 0 0 1.073-.987c.107-.357.082-.676-.072-.949-.29-.517-.941-.685-1.57-.848-.43-.112-.964-.25-1.124-.476a.458.458 0 0 0-.405-.2l-.042.003-.015-.04a11.284 11.284 0 0 1-.493-1.749c-.912-4.585-.49-9.396-.084-14.05.075-.848.141-1.607.202-2.376a.476.476 0 0 0-.436-.512.484.484 0 0 0-.512.437c-.059.74-.124 1.487-.19 2.234l-.01.128c-.413 4.721-.841 9.603.098 14.324.35 1.77 1.058 3.369 1.992 4.502m1.275-.36a.723.723 0 0 1-.541-.246h-.001a7.056 7.056 0 0 1-.542-.763l-.077-.124.14.043c.168.052.338.097.503.14l.023.006c.468.12.895.241.981.394.03.052.005.153-.012.208a.436.436 0 0 1-.35.33.609.609 0 0 1-.124.012m-.457-.316a.612.612 0 0 0 .56.196c.139-.029.223-.109.266-.253a.286.286 0 0 0 .02-.127c-.069-.12-.638-.268-.91-.338l-.024-.006c-.121-.032-.245-.064-.368-.1.144.225.297.435.456.628M94.858 119a.53.53 0 0 0 .272-.985c-4.236-2.52-8.115-2.791-13.002-2.417a.53.53 0 0 0-.488.57.543.543 0 0 0 .57.488c4.678-.362 8.382-.106 12.377 2.27.085.05.18.075.271.075" fill="#312F4B"/>
        <path d="M94.858 119.056a.584.584 0 0 1-.298-.083c-3.988-2.37-7.68-2.623-12.346-2.262a.597.597 0 0 1-.628-.54.587.587 0 0 1 .538-.628c4.9-.375 8.79-.1 13.034 2.424a.586.586 0 0 1-.3 1.089m-9.566-2.589c3.318 0 6.231.573 9.323 2.412a.48.48 0 0 0 .652-.165.476.476 0 0 0-.165-.652c-4.219-2.51-8.09-2.783-12.97-2.41a.478.478 0 0 0-.438.512c.02.251.25.45.514.437a40.25 40.25 0 0 1 3.084-.134" fill="#312F4B"/>
        <path d="M94.59 120.324a.53.53 0 0 0 .276-.984c-3.287-1.98-9.668-3.934-13.567-2.067a.531.531 0 0 0 .458.957c3.503-1.677 9.566.213 12.56 2.018a.53.53 0 0 0 .274.076" fill="#312F4B"/>
        <path d="M94.59 120.38a.587.587 0 0 1-.301-.085c-2.985-1.799-9.024-3.684-12.509-2.016a.587.587 0 0 1-.506-1.056c3.916-1.874 10.322.082 13.62 2.07a.587.587 0 0 1-.303 1.086m-9.506-2.853c3.27 0 7.078 1.36 9.261 2.675a.475.475 0 0 0 .492-.814c-3.278-1.975-9.638-3.921-13.516-2.065a.477.477 0 0 0 .41.858c.965-.461 2.121-.654 3.353-.654M91.544 105.747a.53.53 0 0 0 .519-.422c1.563-7.563 2.222-13.76 2.071-19.502-.106-4.083-.71-7.318-3.309-9.842a.531.531 0 0 0-.739.761c2.342 2.274 2.888 5.286 2.988 9.109.148 5.658-.503 11.778-2.05 19.258a.53.53 0 0 0 .52.638" fill="#312F4B"/>
        <path d="M91.544 105.802a.586.586 0 0 1-.574-.704c1.546-7.475 2.197-13.59 2.049-19.246-.1-3.81-.642-6.81-2.97-9.07a.587.587 0 0 1-.013-.828.587.587 0 0 1 .827-.011c2.614 2.535 3.22 5.783 3.326 9.879.15 5.744-.508 11.945-2.073 19.513a.587.587 0 0 1-.572.467m-1.088-29.915a.475.475 0 0 0-.331.816c2.355 2.287 2.904 5.31 3.004 9.146.148 5.664-.503 11.787-2.051 19.271a.476.476 0 0 0 .93.193c1.564-7.56 2.222-13.752 2.072-19.489-.107-4.068-.707-7.293-3.293-9.803a.476.476 0 0 0-.33-.134" fill="#312F4B"/>
        <path d="M89.526 105.074a.53.53 0 0 0 .518-.424c1.24-5.994 2.449-13.046 2.02-19.894-.175-2.801-1.157-6.858-3.345-9.076a.53.53 0 0 0-.756.745c1.984 2.009 2.879 5.779 3.043 8.397.42 6.724-.775 13.688-2 19.615a.529.529 0 0 0 .52.637" fill="#312F4B"/>
        <path d="M89.526 105.129a.582.582 0 0 1-.574-.704c1.224-5.922 2.419-12.882 1.999-19.6-.163-2.608-1.054-6.363-3.026-8.361a.586.586 0 0 1 .833-.822c2.199 2.227 3.185 6.3 3.362 9.11.428 6.86-.782 13.914-2.022 19.91a.587.587 0 0 1-.572.467m-1.185-29.55a.474.474 0 0 0-.338.808c1.994 2.02 2.893 5.804 3.057 8.432.421 6.73-.775 13.7-2 19.628a.473.473 0 0 0 .466.572c.223 0 .419-.16.464-.38 1.239-5.988 2.447-13.033 2.02-19.88-.176-2.792-1.153-6.835-3.33-9.04a.477.477 0 0 0-.34-.14M59.985 115.83a.53.53 0 0 0 .522-.628c-2.675-14.324-1.942-33.276 3.914-40.197a.531.531 0 0 0-.81-.685c-6.06 7.162-6.867 26.51-4.146 41.076a.53.53 0 0 0 .52.434" fill="#312F4B"/>
        <path d="M59.985 115.884c-.28 0-.523-.2-.574-.477-2.724-14.58-1.912-33.948 4.159-41.123a.585.585 0 1 1 .893.756c-5.846 6.91-6.575 25.84-3.902 40.152a.586.586 0 0 1-.576.692m4.033-41.698-.04.002a.473.473 0 0 0-.324.167c-6.05 7.15-6.854 26.477-4.136 41.031a.475.475 0 1 0 .935-.174c-2.677-14.336-1.94-33.309 3.927-40.243a.475.475 0 0 0-.362-.783" fill="#312F4B"/>
        <path d="M58.464 116.026a.53.53 0 0 0 .523-.624c-5.61-31.136 3.404-40.43 6.125-41.214a.53.53 0 0 0-.294-1.019c-4.503 1.298-12.108 13.375-6.875 42.42a.53.53 0 0 0 .521.437" fill="#312F4B"/>
        <path d="M58.464 116.081a.585.585 0 0 1-.575-.482c-5.24-29.082 2.395-41.18 6.914-42.483a.582.582 0 0 1 .724.4c.09.31-.09.636-.4.725-2.71.78-11.689 10.055-6.086 41.152a.586.586 0 0 1-.577.688m6.502-42.879a.488.488 0 0 0-.133.02c-4.487 1.293-12.062 13.349-6.836 42.358a.476.476 0 0 0 .936-.168c-5.617-31.177 3.433-40.49 6.164-41.277a.476.476 0 0 0-.13-.933" fill="#312F4B"/>
        <path d="M55.1 120.067c0-2.743 2.256-4.975 5.029-4.975 2.772 0 5.028 2.232 5.028 4.975 0 2.742-2.256 4.974-5.028 4.974-2.773 0-5.029-2.232-5.029-4.974m1.06 0c0 2.157 1.781 3.913 3.969 3.913 2.188 0 3.967-1.756 3.967-3.913 0-2.158-1.78-3.914-3.967-3.914-2.188 0-3.968 1.756-3.968 3.914" fill="#312F4B"/>
        <path d="M60.129 125.095c-2.803 0-5.084-2.255-5.084-5.028 0-2.774 2.28-5.03 5.084-5.03 2.803 0 5.082 2.256 5.082 5.03 0 2.773-2.28 5.028-5.082 5.028m0-9.948c-2.743 0-4.974 2.207-4.974 4.92 0 2.712 2.231 4.919 4.974 4.919 2.742 0 4.973-2.207 4.973-4.919 0-2.713-2.231-4.92-4.973-4.92m0 8.888c-2.218 0-4.023-1.78-4.023-3.968 0-2.189 1.805-3.97 4.023-3.97s4.022 1.781 4.022 3.97c0 2.187-1.804 3.968-4.022 3.968m0-7.827c-2.158 0-3.913 1.731-3.913 3.86 0 2.126 1.755 3.857 3.913 3.857 2.157 0 3.912-1.731 3.912-3.858 0-2.128-1.755-3.86-3.912-3.86" fill="#312F4B"/>
        <path d="M57.573 120.067c0-1.396 1.146-2.532 2.556-2.532 1.41 0 2.555 1.136 2.555 2.532 0 1.395-1.146 2.531-2.555 2.531-1.41 0-2.556-1.136-2.556-2.531m1.06 0c0 .81.671 1.47 1.496 1.47.824 0 1.495-.66 1.495-1.47 0-.81-.67-1.471-1.495-1.471-.825 0-1.495.66-1.495 1.47" fill="#312F4B"/>
        <path d="M60.129 122.653c-1.44 0-2.61-1.16-2.61-2.586s1.17-2.587 2.61-2.587 2.61 1.16 2.61 2.587c0 1.426-1.17 2.586-2.61 2.586m0-5.063c-1.38 0-2.501 1.111-2.501 2.477 0 1.365 1.122 2.476 2.5 2.476 1.38 0 2.502-1.111 2.502-2.476 0-1.366-1.122-2.477-2.501-2.477m0 4.002c-.855 0-1.55-.684-1.55-1.525a1.54 1.54 0 0 1 1.55-1.526c.854 0 1.55.685 1.55 1.526s-.696 1.525-1.55 1.525m0-2.941a1.43 1.43 0 0 0-1.44 1.416c0 .78.646 1.415 1.44 1.415.794 0 1.44-.635 1.44-1.415a1.43 1.43 0 0 0-1.44-1.416" fill="#312F4B"/>
        <path d="M81.484 143.352c.648 0 1.173-.424 1.173-.948s-.525-.95-1.173-.95c-.647 0-1.172.426-1.172.95s.525.948 1.172.948M84.335 143.166c.647 0 1.172-.424 1.172-.948 0-.525-.525-.95-1.172-.95-.647 0-1.172.425-1.172.95 0 .524.525.948 1.172.948" fill="#878786"/>
        <path d="M80.435 143.43c-.94-1.14-1.652-2.747-2.004-4.526-.94-4.727-.513-9.614-.1-14.34.07-.79.14-1.578.202-2.362a.54.54 0 0 1 .57-.487.53.53 0 0 1 .487.571c-.063.787-.132 1.578-.201 2.37-.407 4.653-.828 9.463.082 14.042.12.609.287 1.193.49 1.74a.51.51 0 0 1 .455.224c.149.21.673.346 1.094.455.64.165 1.302.337 1.605.874.161.287.187.62.076.99a1.433 1.433 0 0 1-1.115 1.027 1.738 1.738 0 0 1-1.641-.578m.817-.676c.14.169.4.26.614.214.159-.031.26-.127.308-.29.027-.088.027-.147.016-.166-.081-.145-.623-.284-.946-.368a11.074 11.074 0 0 1-.53-.147c.169.273.349.527.538.757" fill="#312F4B"/>
        <path d="M82.865 143.13a1.292 1.292 0 0 1-.439-.986c-.004-.636.279-.95.517-1.101.766-.486 1.964.087 2.927.547.209.1.469.223.522.239a.519.519 0 0 1 .123.028 8.268 8.268 0 0 0 1.629-1.084c3.836-3.252 5.37-8.286 6.612-13.164a.53.53 0 0 1 1.027.262c-1.284 5.043-2.88 10.257-6.953 13.712-1.323 1.12-2.87 1.828-4.355 1.989a2.173 2.173 0 0 1-.244.013c-.436 0-.984-.116-1.366-.456m.653-1.196s-.032.05-.031.204c0 .09.025.147.084.2.167.149.53.21.79.18.236-.025.477-.067.718-.126-.879-.4-1.405-.552-1.56-.458" fill="#312F4B"/>
        <path d="M35.868 32.064s-.172 5.982-2.802 9.735c-2.629 3.752-7.715 5.275-7.715 5.275s4.362.312 6.735 4.09c2.371 3.78 2.756 11.028 2.756 11.028s.597-6.867 3.224-10.62c2.628-3.752 7.292-4.387 7.292-4.387s-3.938-.793-6.31-4.573c-2.373-3.779-3.18-10.548-3.18-10.548" fill="#F39C5E"/>
        <path d="M42.998 61.936s-.071 2.46-1.153 4.003c-1.08 1.542-3.172 2.17-3.172 2.17s1.793.128 2.769 1.684c.976 1.553 1.136 4.535 1.136 4.535s.242-2.825 1.324-4.367c1.083-1.545 3-1.807 3-1.807s-1.62-.325-2.597-1.88c-.975-1.554-1.307-4.338-1.307-4.338" fill="#FBD9BF"/>
        <path d="M115.284 45.229s-.101 3.57-1.646 5.81c-1.545 2.239-4.533 3.15-4.533 3.15s2.562.184 3.956 2.44c1.394 2.257 1.62 6.583 1.62 6.583s.35-4.1 1.895-6.339c1.543-2.24 4.283-2.618 4.283-2.618s-2.314-.474-3.708-2.73c-1.393-2.255-1.867-6.296-1.867-6.296" fill="#F39C5E"/>
        <path d="M106.559 32.808s-.061 2.198-1.012 3.576c-.952 1.378-2.79 1.938-2.79 1.938s1.578.115 2.435 1.504c.858 1.388.997 4.05.997 4.05s.215-2.522 1.166-3.901c.95-1.378 2.636-1.613 2.636-1.613s-1.424-.29-2.282-1.68c-.857-1.387-1.15-3.874-1.15-3.874M107.117 66.02s-.052 1.813-.835 2.95c-.785 1.138-2.302 1.6-2.302 1.6s1.301.094 2.009 1.24.822 3.342.822 3.342.179-2.082.962-3.22c.784-1.136 2.176-1.33 2.176-1.33s-1.175-.24-1.883-1.385c-.709-1.146-.949-3.197-.949-3.197" fill="#FBD9BF"/>
        <path stroke="#FFF" stroke-width="6" stroke-linecap="round" stroke-linejoin="round" d="m149.305 29.934 8.62 11.859 15.38-15.38"/>
    </g>
</svg>
