<svg width="80" height="80" viewBox="0 0 80 80" xmlns="http://www.w3.org/2000/svg" xmlns:xlink="http://www.w3.org/1999/xlink">
    <defs>
        <circle id="mv526cj94a" cx="38" cy="38" r="38"/>
        <path id="sftd40rxlb" d="M0 0h21.553v24.651H0z"/>
    </defs>
    <g fill="none" fill-rule="evenodd">
        <use fill="#FFF" xlink:href="#mv526cj94a" transform="translate(2 4)"/>
        <path d="M46.495 37.872c-.167-.395-.276-.816-.48-1.195a1.619 1.619 0 0 0-.395-.502 2.425 2.425 0 0 0-.52-.308 6.248 6.248 0 0 0-1.334-.416 14.333 14.333 0 0 0-1.509-.223.068.068 0 0 0-.071.038l-.551-.087a1.245 1.245 0 0 1-.853-.602c-.087-.158-.14-.337-.099-.514.173.105.358.18.561.195.266.02.528-.062.781-.144l3.148-1.018c.389-.125.81-.275 1.024-.623.289-.47.077-1.076-.14-1.583-.211.149-.424.297-.637.446-.17.12-.345.24-.543.306-.411.138-.905.034-1.255.29.123-.09.275-.677.29-.825-.258.08-.495.226-.764.288-.287.066-.587.063-.874.125a6.8 6.8 0 0 0-1.21.399l-.03-.001a4.486 4.486 0 0 0-.59.032l.108-.16c.142-.106.308-.215.504-.33 1.28-.746 1.033-2.142 1.033-2.142-.118.074-1.997 1.438-3.188 1.698-1.318.287-1.489 1.23-1.57 1.463l1.927 1.238.406-.605c.111.033.21.082.288.153a.14.14 0 0 0-.022.04c-.022.08.041.154.099.212l.091.09a.893.893 0 0 1-.005.233c.49.017.4.43.251.72-.247.494-.846.628-1.35.68-1.255.42-3.306.1-3.794 1.722-.247.677-1.217 2.149-.776 2.706.844-.435 1.198-1.539 2.162-1.807l-.073.084c4.56-2.004 5.236-.716.962 1.321-1.032.706-1.976 1.125-2.253 2.259-.181.957-.548 2.878-.837 4.31.104-.054.205-.118.3-.2.708-.532.664-.037 1.46-.922.93-1.062 1.859-3.332 2.08-3.952.752-1.814 2.212-1.446 4.026-1.224.885.132 1.763.692 2.294 2.285.31.973.796 1.827 1.372 2.89.181.337.427.538.732.79-.276-1.381-.6-3.079-.766-3.96a1.855 1.855 0 0 0-.595-1.045 10.574 10.574 0 0 0-1.659-1.212s-1.478-.698-2.368-1.381c-.619-.475-.64-1.02-.19-1 .83.037 2.503.654 3.266.951.369.3.717.627 1.114.892.24.16.5.291.726.47.187.146.373.318.605.388.047.014.113-.026.106-.08-.071-.568-.192-1.125-.415-1.653" fill="#4F4862"/>
        <path d="M46.671 45.502c-.306-.252-.551-.453-.733-.79-.575-1.062-1.061-1.917-1.37-2.89-.532-1.593-1.41-2.153-2.295-2.286-1.814-.22-3.274-.589-4.026 1.226-.221.62-1.15 2.89-2.08 3.951-.796.885-.752.39-1.46.921a1.506 1.506 0 0 1-.3.201c-.14.695-.262 1.274-.337 1.57-.12.483-.721 1.372-1.374 2.239l.374.46c.004 0 1.106.53 1.106.53s.31 1.593.84 2.788a6.636 6.636 0 0 0 1.328 1.947v.017a.074.074 0 0 1 .046.024c.387.416.892.684 1.388.947.219.116.498.406.722.51.142.068.594.21.901.336l.124.054c.089.042.153.08.17.112.14.25.514.553.621.817.05.12.115.25.224.328.123.086.284.074.411.002.309-.173.44-.553.681-.797.302-.305.761-.42 1.158-.546.453-.144.88-.353 1.3-.577.858-.457 1.644-1.041 2.188-1.859a.08.08 0 0 1 .04-.032c.236-.322.534-.771.822-1.328.62-1.194.84-2.876.84-2.876s.365-.033.837-.323c-.766-.996-1.591-2.166-1.739-2.755a53.835 53.835 0 0 1-.407-1.921" fill="#FAD9C7"/>
        <path d="M69.26 62.703c-1.714-3.428-7.1-7.872-9.48-9.815-2.38-1.943-5.133-5.22-5.133-5.22h-.19s-.942.38-2.376 1.878l-1.876 2.353s-1.139-1.512-1.828-2.403c-.008-.01-.023-.015-.035-.009-.236.117-.078.994-.354 1.136-.004-.078-.228 1.56-.848 2.754a10.326 10.326 0 0 1-.822 1.329.08.08 0 0 0-.04.03c-.544.818-1.33 1.403-2.187 1.86-.42.223-.847.433-1.302.577-.396.126-.855.24-1.157.546-.242.243-.372.624-.68.798-.128.071-.29.083-.412-.003-.109-.077-.174-.208-.223-.328-.108-.264-.482-.567-.621-.818-.018-.03-.082-.069-.171-.11-.024 0-.048.002-.071.004l-.053-.059c-.307-.126-.758-.268-.902-.335-.223-.104-.503-.395-.72-.51-.496-.264-1.002-.532-1.388-.948a.073.073 0 0 0-.047-.024v-.018s-.796-.752-1.327-1.947c-.53-1.194-.84-2.787-.84-2.787l-1.103-.529c-.253-.101-.459-.198-.492-.253-.16.285-1.607 2.219-1.698 2.033-.255-.52-.518-.948-1.574-2.1a20.28 20.28 0 0 0-.245-.26c-.519-.422-1.082-.804-1.492-1.334-.556-.41-.88-.54-.88-.54h-.19s-2.754 3.276-5.134 5.219c-2.38 1.942-7.766 6.387-9.48 9.815-1.713 3.426-2.427 7.52 0 8.662 2.428 1.143 6.76-1.19 8.616-2.713 1.709-1.402 5.167-4.657 5.704-5.165.444.322.633.983.745 1.557.35 1.788.7 3.575 1.048 5.363 0 0 25.45.065 25.55-.143.147-2.283.654-4.6 1.262-6.816l.052-.012s3.921 3.711 5.778 5.235c1.857 1.522 6.188 3.855 8.615 2.712 2.427-1.142 1.714-5.235 0-8.662" fill="#9DD3C5"/>
        <path d="M34.407 45.835c.29-1.432.656-3.354.837-4.31.277-1.133 1.222-1.552 2.253-2.26 4.274-2.036 3.598-3.324-.962-1.32l.073-.084c-.964.268-1.318 1.372-2.162 1.807-.44-.557.53-2.029.776-2.706.488-1.622 2.54-1.303 3.793-1.723.505-.05 1.105-.184 1.351-.68.15-.289.238-.702-.251-.719.103-.713-.548-.824-1.118-.772l.147-.095c-.088-.21-.444-.316-.94-.355-1.573-.123-4.575.447-5.068.682-1.26 1.365-2.432 4.778-3.064 6.395-.3 1.19-.343 5.381-.718 6.484l-1.781 2.011c.41.53.973.912 1.492 1.334.16.131.317.266.464.41.027-.003.053.018.067.043.528.55.932 1.195 1.365 1.818a49.21 49.21 0 0 0 1.735-2.151c.653-.866 1.253-1.756 1.374-2.238.075-.297.196-.877.337-1.571" fill="#FAD9C7"/>
        <path d="M51.696 45.9c-.19-.951-.381-5.188-.62-6.187-.11-.466-.311-.93-.548-1.383-.33-.873-1.684-4.367-2.515-5.012-.453-.352-3.708-.648-4.765-.691a5.248 5.248 0 0 0-.215-.006c-1.028 0-1.028.37-1.028.37l.147.095a2.292 2.292 0 0 0-.582.024c-.48.09-.536.297-.536.748-.186.026-.307.07-.333.143-.072.196-.016.4.082.576.175.319.496.53.852.602l.55.087a.068.068 0 0 1 .072-.038c.506.05 1.01.119 1.509.223.455.096.909.221 1.333.416.183.084.365.181.521.308.167.135.295.313.396.502.203.379.312.8.479 1.195.223.528.344 1.085.415 1.652.007.055-.059.095-.106.081-.232-.07-.418-.242-.605-.389-.226-.178-.486-.31-.726-.469-.397-.265-.745-.591-1.114-.892-.763-.297-2.436-.914-3.266-.95-.45-.02-.429.524.19.999.89.683 2.368 1.38 2.368 1.38.671.386 1.267.867 1.659 1.213.31.273.518.64.595 1.046.166.88.49 2.578.766 3.958.17.848.321 1.577.408 1.923.147.588.972 1.758 1.737 2.754l.085.11a49.52 49.52 0 0 0 1.304 1.612l1.876-2.354 1.325-1.5c-1.344-1.097-1.691-2.049-1.71-2.145" fill="#FAD9C7"/>
        <path d="M41.205 57.805c-.068 0-.115-.003-.138-.006h-.026c-.147.01-1.662.065-3.801-1.463-1.539-1.073-2.032-2.2-2.327-2.874-.449-.936-.82-2.203-1.164-3.982a.21.21 0 0 1 .412-.08c.338 1.743.697 2.978 1.134 3.887.28.64.744 1.7 2.187 2.706 2.069 1.478 3.521 1.388 3.536 1.387h.06l.028.001c.01.002 1.245.128 3.304-1.3 1.484-1.035 2.144-2.19 2.405-2.788.44-.915.799-2.15 1.136-3.893a.21.21 0 0 1 .413.079c-.345 1.78-.716 3.048-1.167 3.99-.276.63-.979 1.863-2.548 2.956-1.808 1.255-3.03 1.38-3.444 1.38" fill="#1E2F4E"/>
        <path d="M41.205 57.922c-.075 0-.126-.004-.151-.007-.175.01-1.722.058-3.882-1.485-1.565-1.09-2.066-2.237-2.366-2.922-.452-.944-.825-2.218-1.17-4.007a.326.326 0 0 1 .257-.382.33.33 0 0 1 .382.259c.336 1.735.694 2.961 1.125 3.859.275.628.731 1.672 2.148 2.66 2.019 1.442 3.45 1.367 3.462 1.367h.074l.035.002c.013.001 1.226.107 3.225-1.281 1.46-1.018 2.108-2.153 2.364-2.738.436-.907.794-2.135 1.13-3.87a.328.328 0 0 1 .381-.258.324.324 0 0 1 .259.382c-.346 1.79-.72 3.066-1.176 4.018-.282.642-.994 1.892-2.586 3.001-1.822 1.265-3.062 1.402-3.51 1.402zm-.167-.239h.029c.034.003.076.006.138.006.427 0 1.61-.133 3.378-1.36 1.545-1.076 2.234-2.283 2.507-2.907.45-.937.818-2.196 1.16-3.965a.094.094 0 0 0-.184-.035c-.34 1.754-.704 3-1.146 3.922-.265.604-.937 1.781-2.443 2.832-2.072 1.437-3.332 1.324-3.383 1.321h-.075c-.007-.002-1.506.09-3.605-1.41-1.47-1.024-1.943-2.107-2.225-2.754-.439-.912-.802-2.156-1.142-3.911a.096.096 0 0 0-.11-.074.097.097 0 0 0-.06.04.094.094 0 0 0-.014.07c.342 1.768.71 3.024 1.155 3.953.291.666.776 1.775 2.288 2.829 2.096 1.497 3.57 1.456 3.728 1.443h.004z" fill="#1E2F4E"/>
        <path d="M34.027 50.249c-.326-.044-.807-.268-1.216-.703l-.142.158c-.042.057-.087.113-.13.168.475.49 1.033.74 1.432.793l.029.002a.21.21 0 0 0 .027-.418" fill="#1E2F4E"/>
        <path d="m34 50.783-.041-.003c-.39-.05-.987-.295-1.505-.827l-.071-.073.064-.08a5.27 5.27 0 0 0 .129-.165l.233-.26.086.092c.409.433.873.63 1.147.667a.323.323 0 0 1 .281.366.328.328 0 0 1-.323.283m-1.306-.92c.457.44.962.643 1.293.687.06 0 .1-.035.105-.08a.094.094 0 0 0-.08-.105c-.306-.042-.77-.234-1.197-.65l-.058.067a5.95 5.95 0 0 1-.063.081M41.167 52.355a.21.21 0 0 1-.159-.347c.28-.321.414-.564.403-.719-.01-.12-.118-.218-.293-.367-.224-.19-.501-.427-.598-.854-.282-1.072.471-2.598.504-2.662a.21.21 0 0 1 .376.188c-.201.4-.675 1.605-.473 2.374.068.297.26.46.463.634.204.174.416.355.439.655.021.283-.134.6-.504 1.025a.208.208 0 0 1-.158.073" fill="#1E2F4E"/>
        <path d="M41.167 52.433a.287.287 0 0 1-.217-.476c.346-.4.389-.586.383-.662-.007-.09-.105-.177-.266-.315-.231-.197-.52-.443-.623-.895-.282-1.07.428-2.548.51-2.713a.28.28 0 0 1 .167-.145.287.287 0 0 1 .348.401c-.197.393-.663 1.574-.467 2.32.063.276.245.43.438.594.207.178.441.377.466.71.023.304-.138.638-.522 1.081a.286.286 0 0 1-.217.1m.043-5.066a.134.134 0 0 0-.118.073c-.03.064-.77 1.573-.497 2.609.092.404.358.631.573.814.19.162.308.27.32.42.013.18-.125.434-.421.776a.133.133 0 0 0 .013.187c.054.047.14.039.187-.014.355-.41.504-.708.485-.969-.02-.268-.21-.43-.411-.601-.205-.175-.415-.354-.49-.677-.208-.79.275-2.02.479-2.426a.132.132 0 0 0-.06-.178.127.127 0 0 0-.06-.014M38.861 46.362c-.324 0-.674-.167-1.043-.343-.496-.236-1.06-.504-1.607-.38a.21.21 0 1 1-.093-.409c.69-.156 1.322.145 1.88.41.34.162.659.316.891.301a.21.21 0 0 1 .024.419.824.824 0 0 1-.052.002" fill="#1E2F4E"/>
        <path d="M38.861 46.44c-.34 0-.696-.17-1.072-.35-.49-.232-1.04-.496-1.56-.374a.282.282 0 0 1-.218-.038.285.285 0 0 1-.09-.396.29.29 0 0 1 .18-.127c.717-.16 1.362.144 1.93.416.34.161.647.308.854.293a.271.271 0 0 1 .208.072.286.286 0 0 1 .023.406.282.282 0 0 1-.198.095l-.057.002m-2.36-.909c.47 0 .932.22 1.349.418.384.183.734.356 1.057.335a.13.13 0 0 0 .126-.14.131.131 0 0 0-.044-.092.14.14 0 0 0-.095-.033c-.25.008-.57-.137-.912-.3-.563-.268-1.18-.564-1.847-.411a.127.127 0 0 0-.082.058.129.129 0 0 0-.017.1.13.13 0 0 0 .058.082c.03.019.065.025.1.017.102-.023.205-.034.306-.034M42.97 46.362a.21.21 0 0 1 0-.42c.439 0 .802-.222 1.187-.457.424-.26.862-.527 1.432-.527a.21.21 0 0 1 0 .42c-.452 0-.822.226-1.213.465-.418.255-.85.519-1.405.519" fill="#1E2F4E"/>
        <path d="M42.97 46.44a.287.287 0 1 1 0-.575c.417 0 .771-.216 1.146-.445.433-.265.879-.54 1.473-.54a.287.287 0 0 1 0 .575c-.43 0-.791.221-1.172.454-.43.263-.87.53-1.446.53m2.618-1.403c-.55 0-.978.262-1.39.516-.397.24-.769.468-1.228.468a.133.133 0 0 0 0 .265c.532 0 .953-.257 1.36-.505.406-.248.784-.479 1.258-.479a.133.133 0 1 0 0-.265" fill="#1E2F4E"/>
        <path d="M46.568 45.064c-.718-.586-1.127-1.619-1.528-2.632-.577-1.46-1.172-2.972-2.722-2.835a.21.21 0 0 0-.191.227c.01.116.108.203.228.191 1.231-.111 1.726 1.133 2.295 2.572.475 1.2.994 2.513 2.058 3.087a3.119 3.119 0 0 0-.14-.61" fill="#1E2F4E"/>
        <path d="m46.852 45.883-.2-.107c-1.1-.593-1.637-1.95-2.11-3.146-.552-1.397-1.03-2.606-2.177-2.5a.33.33 0 0 1-.237-.071.324.324 0 0 1-.117-.224.322.322 0 0 1 .076-.24.322.322 0 0 1 .22-.114c1.64-.147 2.247 1.404 2.839 2.902.395.998.8 2.024 1.496 2.59l.025.022.011.032c.07.205.118.418.145.632l.029.224zm-4.347-5.991c1.204 0 1.714 1.29 2.253 2.652.426 1.077.905 2.288 1.793 2.898a3.036 3.036 0 0 0-.083-.31c-.725-.608-1.138-1.65-1.536-2.657-.563-1.425-1.143-2.888-2.604-2.762a.092.092 0 0 0-.063.032.096.096 0 0 0-.022.069.1.1 0 0 0 .033.066c.013.01.031.022.068.02.055-.006.108-.008.16-.008zM40.48 39.446c-.437-.266-.821-.34-1.174-.224-.72.235-1.123 1.209-1.59 2.336-.672 1.622-1.425 3.43-3.237 3.777a17.3 17.3 0 0 1-.067.438c2.14-.311 2.993-2.366 3.691-4.054.427-1.032.797-1.923 1.333-2.098.23-.075.5-.015.826.183a.21.21 0 1 0 .218-.358" fill="#1E2F4E"/>
        <path d="m34.271 45.91.026-.156c.024-.146.046-.29.067-.435l.011-.082.082-.016c1.756-.336 2.497-2.127 3.151-3.707.479-1.154.89-2.15 1.662-2.403.386-.126.802-.05 1.27.235a.328.328 0 0 1 .11.449.327.327 0 0 1-.449.109c-.295-.18-.534-.237-.729-.172-.485.158-.845 1.026-1.261 2.032-.702 1.695-1.574 3.803-3.782 4.124l-.158.023zm.311-.478c-.009.067-.02.133-.03.2 1.963-.38 2.783-2.36 3.444-3.957.438-1.06.816-1.973 1.404-2.164.265-.088.566-.023.922.194a.094.094 0 0 0 .128-.03.095.095 0 0 0-.03-.13c-.407-.248-.759-.316-1.079-.212-.668.218-1.062 1.169-1.517 2.269-.667 1.611-1.422 3.433-3.242 3.83zM41.742 39.88l-.01-.001a.21.21 0 0 1-.2-.22c.02-.37-.158-.78-.464-1.07-.267-.253-.593-.38-.897-.348a.21.21 0 0 1-.044-.418c.426-.044.873.124 1.23.461.398.378.621.9.595 1.396a.21.21 0 0 1-.21.2" fill="#1E2F4E"/>
        <path d="m41.742 39.996-.03-.003a.324.324 0 0 1-.296-.341c.018-.335-.146-.711-.428-.979-.243-.23-.537-.343-.804-.317a.316.316 0 0 1-.238-.07.322.322 0 0 1-.12-.22.325.325 0 0 1 .289-.359c.46-.049.941.132 1.321.493.424.4.66.957.632 1.487a.326.326 0 0 1-.326.309m-1.477-1.876c.305 0 .621.136.883.384.33.314.522.758.5 1.16a.094.094 0 0 0 .09.099l.004.116v-.116c.05 0 .09-.04.093-.089.025-.462-.184-.95-.558-1.306-.332-.313-.744-.47-1.138-.43a.09.09 0 0 0-.063.035.091.091 0 0 0-.02.069.091.091 0 0 0 .035.063c.02.016.043.019.067.02a.988.988 0 0 1 .107-.005M37.866 48.41c-.215.011-.45.007-.662-.046-.044-.007-.087-.02-.13-.029-.053 0-.1-.01-.145-.022-.005.038-.01.076-.01.116 0 .442.31.796.664.796.354 0 .664-.354.664-.796 0-.022-.004-.042-.006-.063a2.233 2.233 0 0 1-.375.044M44.786 48.342c-.153.014-.306.03-.46.034-.212.006-.466.005-.64-.135a.647.647 0 0 0-.041.232c0 .443.265.796.663.796.354 0 .664-.353.664-.796a.943.943 0 0 0-.012-.144c-.058.005-.116.01-.174.013M43.022 54.428a.203.203 0 0 1-.098-.025c-.496-.262-.858-.195-1.276-.118-.23.043-.465.087-.74.083-.326-.005-.52-.067-.692-.122-.273-.088-.508-.163-1.365.055a.21.21 0 0 1-.103-.407c.973-.247 1.276-.15 1.596-.048.158.05.306.098.57.102.232.005.439-.035.658-.075.454-.084.924-.171 1.548.16a.21.21 0 0 1-.098.395" fill="#1E2F4E"/>
        <path d="M43.022 54.66a.246.246 0 0 1-.135-.04c-.473-.296-.822-.22-1.225-.13a3.535 3.535 0 0 1-.755.099 1.889 1.889 0 0 1-.712-.148c-.264-.1-.49-.186-1.324.066-.152.044-.311-.066-.35-.246-.04-.182.054-.368.208-.415.994-.297 1.307-.179 1.638-.055.152.06.294.114.548.118.218 0 .414-.037.622-.083l.021-.004c.466-.102.95-.21 1.599.198.14.088.193.294.119.46-.05.11-.148.18-.254.18m-.814-.433c.23 0 .472.056.752.231.062.04.145.01.18-.064.033-.077.009-.172-.056-.212-.6-.376-1.057-.276-1.498-.18l-.02.005c-.217.047-.42.093-.654.085-.278-.004-.437-.066-.592-.125-.309-.116-.601-.227-1.553.058-.07.021-.114.107-.096.19.019.085.09.135.162.113.877-.263 1.122-.17 1.407-.062.169.063.357.134.669.14a3.55 3.55 0 0 0 .717-.095c.196-.042.384-.084.582-.084M37.551 48.622c-.399 0-.766-.104-1.031-.238a.21.21 0 0 1 .19-.375c.313.16 1.012.338 1.639-.003a.21.21 0 1 1 .2.369 2.076 2.076 0 0 1-.998.247" fill="#1E2F4E"/>
        <path d="M37.551 48.903c-.368 0-.757-.113-1.066-.31a.35.35 0 0 1-.143-.21.439.439 0 0 1 .017-.275.318.318 0 0 1 .167-.18.233.233 0 0 1 .22.022c.3.192.967.405 1.566-.003a.234.234 0 0 1 .218-.03.31.31 0 0 1 .171.173c.076.176.024.396-.114.49a1.804 1.804 0 0 1-1.036.323m-.937-.798a.109.109 0 0 0-.04.008.144.144 0 0 0-.077.083.196.196 0 0 0-.008.126c.011.043.035.078.066.098.287.183.651.289.996.289.348 0 .672-.101.961-.299.064-.044.088-.145.053-.226a.138.138 0 0 0-.078-.08.108.108 0 0 0-.101.014c-.656.448-1.384.214-1.711.005a.115.115 0 0 0-.06-.018M44.4 48.622c-.4 0-.767-.104-1.032-.238a.21.21 0 0 1 .19-.375c.314.16 1.012.338 1.64-.003a.21.21 0 1 1 .2.369 2.076 2.076 0 0 1-.998.247" fill="#1E2F4E"/>
        <path d="M44.4 48.903c-.369 0-.758-.113-1.067-.31a.343.343 0 0 1-.143-.21.444.444 0 0 1 .017-.275.318.318 0 0 1 .169-.18.234.234 0 0 1 .218.022c.299.192.966.407 1.567-.003a.232.232 0 0 1 .218-.03.31.31 0 0 1 .171.174c.076.174.024.395-.115.49a1.802 1.802 0 0 1-1.035.322m-.937-.798a.102.102 0 0 0-.04.008.141.141 0 0 0-.078.083.205.205 0 0 0-.008.127.16.16 0 0 0 .066.097c.288.183.652.289.997.289.348 0 .671-.101.961-.299.064-.044.088-.145.053-.226a.142.142 0 0 0-.079-.08.115.115 0 0 0-.1.014c-.656.447-1.385.213-1.712.005a.115.115 0 0 0-.06-.018M42.089 46.68a.21.21 0 0 1-.15-.063c-.292-.298-.33-.77-.356-1.08l-.006-.083a.21.21 0 0 1 .19-.228c.12-.01.217.074.228.19l.007.086c.02.252.052.632.237.822a.21.21 0 0 1-.15.357" fill="#1E2F4E"/>
        <path d="M42.17 46.758a.351.351 0 0 1-.233-.086c-.354-.318-.4-.805-.43-1.128l-.007-.083a.262.262 0 0 1 .074-.21.34.34 0 0 1 .222-.102c.179-.009.34.1.356.26l.008.086c.021.227.055.604.245.775a.267.267 0 0 1 .093.203.273.273 0 0 1-.099.204.352.352 0 0 1-.228.081m-.345-1.455h-.015a.153.153 0 0 0-.101.048.118.118 0 0 0-.034.096l.007.083c.029.302.071.756.38 1.034a.17.17 0 0 0 .213.001.123.123 0 0 0 .046-.093.12.12 0 0 0-.043-.093c-.235-.211-.27-.608-.294-.87l-.01-.086c-.007-.07-.07-.12-.15-.12M27.742 48.237a.21.21 0 0 1-.13-.375c.406-.319 1.492-1.304 1.636-2.02.084-.426.171-1.55.263-2.74.11-1.426.224-2.9.357-3.456.218-.918.775-1.832 1.267-2.637.107-.178.213-.352.313-.521.428-.726.776-1.275 1.128-1.778.05-.072.1-.148.15-.225.209-.32.446-.684.835-.882.383-.196.815-.22 1.234-.244.16-.01.31-.018.455-.036.355-.045.71-.087 1.067-.13.706-.082 1.436-.169 2.15-.274.375-.056.774-.104 1.15-.034.654.123.707.506.708.955a.206.206 0 0 1-.21.21.21.21 0 0 1-.21-.21c0-.402-.028-.478-.365-.542-.313-.059-.658-.017-1.013.036-.72.106-1.452.193-2.161.277-.355.042-.71.084-1.064.128-.158.02-.324.03-.484.039-.374.02-.762.043-1.066.199-.29.147-.476.434-.674.737-.053.08-.105.16-.158.237a25.854 25.854 0 0 0-1.11 1.75c-.1.171-.208.347-.317.526-.475.78-1.014 1.662-1.217 2.516-.125.524-.242 2.047-.346 3.39-.093 1.204-.181 2.34-.271 2.79-.203 1.017-1.723 2.218-1.787 2.27a.21.21 0 0 1-.13.044" fill="#1E2F4E"/>
        <path d="M27.742 48.354a.322.322 0 0 1-.257-.127.324.324 0 0 1 .056-.456c.551-.433 1.47-1.346 1.592-1.953.084-.42.17-1.54.262-2.726.112-1.439.225-2.91.36-3.473.223-.938.785-1.858 1.28-2.67l.039-.064c.094-.155.187-.307.274-.456.429-.729.778-1.279 1.133-1.785.037-.054.074-.11.11-.166l.038-.057c.205-.315.461-.708.879-.922.407-.208.851-.232 1.28-.256.157-.01.306-.018.447-.035.356-.045.712-.087 1.068-.13.768-.09 1.46-.173 2.146-.275.386-.056.796-.105 1.19-.032.739.14.801.604.803 1.069 0 .09-.038.177-.102.24a.312.312 0 0 1-.23.087.325.325 0 0 1-.32-.326c-.001-.378-.017-.38-.271-.428-.296-.058-.63-.016-.975.035-.7.105-1.414.19-2.105.271l-.06.007c-.354.042-.709.084-1.062.128-.15.02-.306.029-.457.038l-.035.002c-.362.02-.737.042-1.02.186-.262.133-.44.407-.629.697l-.026.039c-.044.068-.09.136-.135.201a26.01 26.01 0 0 0-1.105 1.742c-.087.149-.179.3-.272.453l-.046.076c-.47.77-1.003 1.644-1.203 2.482-.121.511-.238 2.016-.341 3.345-.095 1.234-.183 2.374-.275 2.832-.2.998-1.556 2.12-1.826 2.335a.332.332 0 0 1-.205.072m11.466-15.388c-.242 0-.488.033-.724.067-.69.103-1.383.185-2.154.276-.355.042-.711.084-1.066.13-.146.018-.3.026-.463.035-.405.023-.824.047-1.187.232-.363.186-.59.534-.79.843l-.038.057a9.356 9.356 0 0 1-.115.171 26.11 26.11 0 0 0-1.123 1.77c-.088.15-.181.303-.276.459l-.038.063c-.487.798-1.038 1.701-1.253 2.604-.13.545-.244 2.007-.352 3.421-.094 1.21-.18 2.336-.268 2.77-.18.905-1.661 2.077-1.676 2.09a.093.093 0 0 0-.016.132c.03.039.09.047.132.014.16-.126 1.557-1.26 1.744-2.2.09-.444.177-1.576.269-2.776.105-1.364.223-2.879.349-3.407.208-.875.752-1.765 1.23-2.55l.047-.076c.092-.153.184-.302.27-.45.422-.717.766-1.258 1.114-1.757.045-.063.089-.13.132-.196l.025-.038c.207-.317.402-.616.718-.776.327-.167.726-.19 1.112-.212l.034-.002c.147-.01.298-.018.443-.036.354-.045.71-.087 1.064-.128l.06-.007c.688-.082 1.4-.167 2.098-.27.366-.055.72-.097 1.052-.035.421.08.46.235.46.657 0 .053.051.092.098.093.03 0 .048-.013.06-.023a.098.098 0 0 0 .03-.07c-.002-.44-.045-.735-.614-.841a2.13 2.13 0 0 0-.388-.034" fill="#1E2F4E"/>
        <path d="M31.071 51.908a.21.21 0 0 1-.16-.347c.028-.03 2.685-3.125 2.955-4.207.224-.895.894-4.402 1.171-5.868.085-.45.32-.862.663-1.165a10.78 10.78 0 0 1 1.693-1.237l.014-.008c.015-.006 1.47-.696 2.33-1.356.35-.27.443-.527.414-.605-.005-.015-.047-.02-.086-.019-.875.038-2.797.777-3.365 1.002a1.515 1.515 0 0 0-.367.209l-1.834 1.432a.325.325 0 0 1-.406 0 .324.324 0 0 1-.098-.394l1.02-2.723c.24-.633.675-1.044 1.227-1.155l3.239-.513c.303-.062.562-.243.701-.496.079-.143.105-.268.078-.374-.505-.265-4.73.368-5.7.67-.418.131-1.617 2.423-2.534 4.563a.21.21 0 1 1-.386-.165c.324-.757 1.983-4.545 2.796-4.798.41-.129 1.877-.403 3.225-.58 2.802-.365 2.916-.05 2.984.137.084.23.052.483-.095.75a1.448 1.448 0 0 1-.995.705l-3.239.514c-.51.103-.776.541-.907.89l-.916 2.44 1.582-1.235c.145-.111.303-.2.47-.267.748-.297 2.587-.992 3.502-1.032.24-.01.427.1.498.296.114.311-.103.736-.552 1.08-.873.67-2.268 1.339-2.399 1.4a10.38 10.38 0 0 0-1.616 1.184c-.273.24-.46.57-.528.927-.278 1.47-.95 4.988-1.176 5.894-.294 1.177-2.931 4.248-3.044 4.379a.21.21 0 0 1-.159.072" fill="#1E2F4E"/>
        <path d="M31.071 52.025a.324.324 0 0 1-.213-.08.322.322 0 0 1-.034-.459c.74-.859 2.71-3.28 2.93-4.16.224-.895.892-4.397 1.169-5.861.09-.475.338-.911.7-1.23.395-.35 1.014-.85 1.712-1.252l.026-.014c.012-.005 1.456-.69 2.305-1.342.218-.167.32-.322.357-.412-.877.06-2.727.771-3.28.991-.121.048-.235.113-.34.193L34.57 39.83a.438.438 0 0 1-.549-.002.438.438 0 0 1-.133-.532l1.02-2.715c.253-.673.719-1.11 1.31-1.228l3.245-.516a.901.901 0 0 0 .617-.436.492.492 0 0 0 .074-.234c-.64-.174-4.568.388-5.559.697-.298.093-1.359 1.923-2.462 4.499a.326.326 0 0 1-.6-.258c.46-1.075 2.027-4.6 2.868-4.863.413-.13 1.888-.407 3.244-.584 2.893-.378 3.019-.037 3.11.212.096.264.061.549-.103.846-.215.39-.607.669-1.074.763l-3.244.515c-.455.092-.695.495-.816.816l-.771 2.054 1.257-.982c.155-.118.321-.213.497-.283.755-.3 2.61-1 3.54-1.04.293-.006.526.13.613.372.132.36-.1.836-.59 1.213-.9.69-2.359 1.384-2.42 1.413-.637.367-1.217.836-1.59 1.165-.253.223-.427.53-.49.862-.278 1.47-.95 4.987-1.177 5.9-.283 1.132-2.6 3.88-3.063 4.42a.33.33 0 0 1-.253.12m9.012-15.046c.116 0 .16.05.177.095.055.153-.083.454-.452.738-.88.674-2.34 1.365-2.354 1.371-.685.394-1.29.884-1.678 1.225a1.96 1.96 0 0 0-.625 1.1c-.277 1.465-.947 4.973-1.172 5.875-.278 1.113-2.952 4.223-2.979 4.255a.093.093 0 0 0 .01.13c.06.054.104.025.133-.009.284-.331 2.742-3.226 3.018-4.33.227-.907.897-4.419 1.175-5.887.072-.383.273-.736.565-.993.38-.336.973-.815 1.636-1.197.068-.033 1.504-.716 2.385-1.392.402-.308.609-.69.514-.948-.054-.148-.192-.226-.384-.219-.895.038-2.721.728-3.465 1.023a1.838 1.838 0 0 0-.44.252l-1.908 1.488 1.06-2.827c.143-.377.43-.849.994-.963l3.244-.515c.395-.08.729-.316.912-.647.13-.236.159-.455.087-.653-.041-.114-.15-.414-2.86-.061-1.345.175-2.802.448-3.206.575-.555.173-1.767 2.502-2.723 4.732a.095.095 0 0 0 .049.123.093.093 0 0 0 .123-.048c.759-1.77 2.079-4.464 2.607-4.629.9-.28 5.22-.959 5.788-.662l.046.024.012.05c.036.135.006.29-.088.46a1.14 1.14 0 0 1-.78.552l-3.244.515c-.507.102-.911.486-1.135 1.081l-1.021 2.722a.212.212 0 0 0 .06.261c.08.063.184.063.263.001l1.834-1.432c.122-.094.255-.17.396-.225.573-.227 2.51-.971 3.402-1.01h.024" fill="#1E2F4E"/>
        <path d="M30.547 38.72a.21.21 0 0 1-.197-.282c.067-.185 1.67-4.537 2.658-5.304.58-.451 4.571-.741 5.108-.741 1.178 0 1.238.483 1.238.58a.21.21 0 0 1-.418.028c-.015-.025-.145-.189-.82-.189-.824 0-4.448.34-4.85.653-.743.576-2.072 3.89-2.522 5.118a.21.21 0 0 1-.197.137" fill="#1E2F4E"/>
        <path d="M30.547 38.837a.328.328 0 0 1-.307-.439c.172-.467 1.704-4.585 2.697-5.356.634-.493 4.782-.766 5.18-.766 1.288 0 1.353.58 1.353.697a.326.326 0 0 1-.642.08c-.036-.027-.197-.124-.712-.124-.893 0-4.43.357-4.78.628-.637.495-1.862 3.37-2.483 5.066a.328.328 0 0 1-.306.214m7.57-6.328c-.662 0-4.508.305-5.038.716-.957.744-2.553 5.07-2.62 5.253a.094.094 0 0 0 .055.12c.057.022.104-.009.121-.056.016-.043 1.641-4.456 2.559-5.168.459-.357 4.176-.678 4.922-.678.698 0 .875.171.92.245l.015.044a.094.094 0 0 0 .187-.013c0-.046-.032-.463-1.122-.463M13.398 71.859c-.578 0-1.12-.097-1.598-.322-.689-.324-1.174-.881-1.442-1.655-.59-1.702-.088-4.428 1.344-7.291 1.775-3.55 7.412-8.152 9.534-9.884 2.337-1.907 5.078-5.159 5.105-5.191a.21.21 0 0 1 .161-.075h.19c.027 0 .054.005.08.015.043.018 1.109.459 2.693 2.188 1.086 1.185 1.66 2.2 1.905 2.698a.696.696 0 0 1-.206.845l-.049.04c-.642.522-1.44 1.172-2.922 3.157-.899 1.205-2.04 2.667-3.247 4.216-1.75 2.243-3.56 4.563-4.554 6.011-1.678 2.446-3.664 3.41-3.748 3.45a.21.21 0 0 1-.18-.379c.019-.01 1.971-.961 3.582-3.308 1.001-1.46 2.815-3.785 4.57-6.033 1.205-1.546 2.345-3.007 3.241-4.208 1.512-2.027 2.334-2.695 2.993-3.231l.05-.04c.091-.075.156-.207.093-.335-.235-.479-.786-1.453-1.837-2.6-1.357-1.48-2.319-1.977-2.508-2.066h-.049c-.428.501-2.93 3.402-5.097 5.171-2.104 1.717-7.69 6.277-9.425 9.746-1.361 2.723-1.868 5.392-1.323 6.966.23.664.642 1.139 1.225 1.413 2.434 1.146 6.782-1.364 8.393-2.685 1.83-1.5 5.727-5.188 5.766-5.225a.21.21 0 1 1 .289.305c-.04.038-3.949 3.734-5.789 5.244-1.368 1.123-4.657 3.063-7.24 3.063" fill="#1E2F4E"/>
        <g transform="translate(10 47.324)">
            <mask id="assry3xroc" fill="#fff">
                <use xlink:href="#sftd40rxlb"/>
            </mask>
            <path d="M3.397 24.651c-.623 0-1.178-.112-1.646-.332-.719-.34-1.224-.919-1.503-1.724-.6-1.73-.096-4.49 1.35-7.38 1.786-3.573 7.437-8.186 9.565-9.922C13.5 3.385 16.226.15 16.253.117A.325.325 0 0 1 16.501 0h.19c.044 0 .086.009.124.025.043.017 1.126.46 2.735 2.216 1.098 1.198 1.676 2.222 1.923 2.726a.811.811 0 0 1-.236.986l-.049.04c-.637.518-1.43 1.162-2.902 3.136-.905 1.213-2.044 2.673-3.25 4.218-1.754 2.249-3.559 4.563-4.548 6.005-1.693 2.467-3.71 3.449-3.795 3.49a.327.327 0 0 1-.434-.154.327.327 0 0 1 .154-.435c.02-.01 1.95-.958 3.537-3.269 1.003-1.463 2.818-3.79 4.573-6.039l.027-.035a267.958 267.958 0 0 0 3.213-4.17c1.522-2.04 2.348-2.712 3.013-3.253l.05-.04c.04-.033.101-.113.062-.193-.232-.473-.777-1.436-1.819-2.573-1.257-1.37-2.167-1.888-2.426-2.018-.57.665-2.97 3.422-5.068 5.136-2.098 1.71-7.67 6.258-9.395 9.706C.834 18.202.328 20.835.864 22.382c.22.632.611 1.085 1.164 1.346 2.385 1.121 6.678-1.364 8.27-2.67 1.665-1.366 5.07-4.568 5.736-5.196l.025-.024a.357.357 0 0 1 .234-.088.326.326 0 0 1 .214.563c-.033.032-3.967 3.749-5.795 5.249-1.455 1.194-4.728 3.09-7.315 3.09zM16.502.233a.09.09 0 0 0-.071.033c-.026.031-2.758 3.278-5.121 5.207-2.117 1.728-7.74 6.318-9.505 9.845C.388 18.155-.112 20.846.467 22.52c.258.743.723 1.277 1.383 1.588.437.206.958.31 1.547.31 2.393 0 5.631-1.775 7.167-3.036 1.849-1.516 5.747-5.204 5.782-5.238a.094.094 0 0 0 .004-.133c-.017-.018-.048-.026-.067-.029a.096.096 0 0 0-.065.025l-.024.024c-.667.63-4.078 3.835-5.749 5.206-1.627 1.336-6.032 3.87-8.516 2.701-.611-.288-1.044-.786-1.285-1.48-.555-1.602-.046-4.307 1.33-7.056 1.746-3.494 7.346-8.064 9.454-9.784 2.144-1.749 4.61-4.603 5.083-5.157l.035-.041.151.01c.183.087 1.168.594 2.544 2.094 1.063 1.159 1.62 2.144 1.856 2.628.091.184.003.372-.124.475l-.05.04c-.654.533-1.468 1.195-2.973 3.211-.89 1.194-2.02 2.641-3.216 4.175l-.027.036c-1.753 2.246-3.566 4.57-4.565 6.026-1.627 2.372-3.608 3.338-3.628 3.348a.095.095 0 0 0-.044.125.093.093 0 0 0 .125.044c.082-.04 2.043-.996 3.702-3.411.994-1.449 2.8-3.765 4.548-6.005A271.18 271.18 0 0 0 18.1 8.991c1.49-1.998 2.295-2.652 2.942-3.178l.048-.04a.58.58 0 0 0 .175-.703c-.24-.493-.807-1.495-1.885-2.672C17.806.681 16.739.244 16.728.24a.089.089 0 0 0-.035-.007h-.191z" fill="#1E2F4E" mask="url(#assry3xroc)"/>
        </g>
        <path d="M53.6 48.4a.207.207 0 0 1-.128-.044c-.073-.057-1.78-1.397-1.982-2.414-.09-.45-.178-1.587-.271-2.79-.104-1.344-.222-2.867-.346-3.39-.204-.854-.742-1.737-1.217-2.516-.11-.18-.216-.355-.318-.527a26.134 26.134 0 0 0-1.109-1.75c-.054-.076-.105-.156-.158-.236-.198-.304-.385-.59-.674-.738-.305-.156-.692-.178-1.067-.2a7.078 7.078 0 0 1-.483-.038c-.355-.044-.71-.086-1.064-.128-.71-.084-1.442-.17-2.162-.277-.355-.052-.7-.095-1.012-.036-.338.063-.365.14-.366.542a.21.21 0 1 1-.42 0c.002-.45.055-.831.708-.954.377-.071.775-.023 1.152.033.713.106 1.443.191 2.149.275.356.042.711.084 1.067.129.144.018.295.026.455.036.418.024.85.048 1.234.244.388.198.626.562.835.883.05.076.1.152.15.225.352.503.7 1.051 1.127 1.777.1.17.207.344.315.521.49.806 1.047 1.719 1.266 2.637.132.556.246 2.03.357 3.456.091 1.19.178 2.314.263 2.74.144.718 1.369 1.806 1.829 2.165a.21.21 0 0 1-.13.375" fill="#1E2F4E"/>
        <path d="M53.6 48.517a.32.32 0 0 1-.2-.07c-.074-.057-1.812-1.423-2.024-2.483-.092-.46-.18-1.597-.273-2.803-.105-1.354-.222-2.861-.343-3.373-.2-.837-.733-1.711-1.203-2.481l-.068-.11c-.086-.143-.17-.282-.25-.42a26.17 26.17 0 0 0-1.105-1.74 9.186 9.186 0 0 1-.16-.241c-.19-.291-.37-.564-.63-.698-.281-.144-.654-.166-1.014-.186a7.196 7.196 0 0 1-.498-.04l-1.063-.128-.06-.007c-.69-.082-1.403-.166-2.105-.27-.345-.05-.68-.092-.974-.037-.255.048-.27.05-.27.428a.326.326 0 1 1-.653 0c.001-.465.064-.93.802-1.069.397-.075.806-.025 1.19.033.69.102 1.396.186 2.079.267l.218.025.917.11c.142.018.29.028.448.037.43.025.875.05 1.28.256.415.212.662.59.88.922.049.077.097.151.147.223.357.51.705 1.06 1.133 1.785.1.17.205.343.313.52.495.813 1.057 1.734 1.28 2.67.135.565.249 2.043.36 3.473.087 1.134.177 2.305.262 2.727.12.605 1.159 1.607 1.785 2.097a.324.324 0 0 1 .057.457.328.328 0 0 1-.257.126M41.94 33.17c.225 0 .459.031.698.067.697.103 1.41.187 2.098.269l.06.006c.354.043.71.085 1.064.13.155.018.318.028.475.036.392.023.79.046 1.114.212.316.162.51.46.717.776.054.081.104.16.157.236.35.5.693 1.042 1.115 1.757.08.136.164.274.25.415l.066.11c.48.786 1.023 1.676 1.231 2.55.125.529.243 2.045.347 3.382.09 1.172.182 2.356.271 2.801.156.782 1.336 1.877 1.94 2.346.037.031.1.025.131-.016a.092.092 0 0 0-.017-.13c-.017-.014-1.69-1.33-1.87-2.235-.088-.437-.175-1.562-.267-2.754-.109-1.421-.223-2.891-.353-3.438-.215-.901-.766-1.805-1.252-2.603-.11-.179-.215-.353-.316-.523-.424-.72-.77-1.266-1.122-1.77a6.405 6.405 0 0 1-.152-.229c-.202-.308-.43-.658-.791-.842-.361-.184-.78-.208-1.186-.231a6.783 6.783 0 0 1-.465-.037c-.304-.038-.61-.075-.915-.11l-.219-.026a72.968 72.968 0 0 1-2.084-.268c-.365-.055-.753-.102-1.113-.034-.569.107-.612.403-.613.84a.093.093 0 1 0 .188 0c0-.422.038-.577.46-.657.114-.02.232-.03.352-.03" fill="#1E2F4E"/>
        <path d="M50.205 52.11a.208.208 0 0 1-.16-.074c-.117-.138-2.876-3.385-3.17-4.562-.228-.913-.899-4.425-1.176-5.892a1.658 1.658 0 0 0-.528-.928c-.375-.331-.96-.805-1.617-1.183-.13-.063-1.525-.73-2.398-1.4-.45-.345-.666-.77-.553-1.082.071-.195.255-.305.5-.294.914.04 2.753.734 3.5 1.031.168.067.326.156.469.266l1.584 1.237-.917-2.441c-.13-.349-.396-.787-.915-.892l-3.222-.51a1.455 1.455 0 0 1-1.003-.707c-.147-.267-.18-.52-.096-.75.068-.187.183-.501 2.985-.136 1.348.176 2.814.45 3.225.58.812.253 2.471 4.04 2.796 4.797a.21.21 0 0 1-.386.165c-.918-2.14-2.117-4.431-2.535-4.563-.97-.303-5.194-.935-5.7-.67-.026.106 0 .232.078.375.14.252.398.433.711.496l3.221.51c.561.114.996.524 1.235 1.157l1.025 2.734a.32.32 0 0 1-.102.383.324.324 0 0 1-.406 0l-1.835-1.433a1.523 1.523 0 0 0-.366-.208c-.569-.225-2.49-.964-3.365-1.002-.04-.002-.08.005-.086.02-.029.077.063.335.413.603.861.662 2.315 1.35 2.33 1.358a10.831 10.831 0 0 1 1.708 1.245c.342.301.578.715.662 1.164.277 1.464.946 4.967 1.171 5.869.225.897 2.301 3.473 3.083 4.39a.21.21 0 0 1-.16.346z" fill="#1E2F4E"/>
        <path d="M50.205 52.226a.322.322 0 0 1-.249-.116c-.118-.138-2.892-3.402-3.194-4.608-.24-.958-.961-4.757-1.177-5.899a1.539 1.539 0 0 0-.49-.862c-.37-.326-.947-.794-1.6-1.17-.355-.17-1.596-.783-2.41-1.409-.49-.375-.722-.85-.59-1.212.088-.245.313-.376.612-.372.934.041 2.786.74 3.54 1.04.178.07.345.166.496.283l1.259.983-.772-2.056c-.12-.32-.363-.723-.83-.818l-3.216-.509c-.476-.096-.871-.374-1.087-.766-.164-.297-.199-.582-.103-.845.09-.248.214-.59 3.11-.212 1.352.176 2.828.453 3.244.583.814.254 2.277 3.486 2.868 4.863a.327.327 0 0 1-.6.257c-1.104-2.575-2.165-4.405-2.463-4.498-.989-.309-4.915-.87-5.559-.697 0 .066.025.145.074.235a.916.916 0 0 0 .632.438l3.216.51c.603.122 1.073.558 1.325 1.23l1.026 2.735a.432.432 0 0 1-.14.514.437.437 0 0 1-.549 0l-1.834-1.432a1.407 1.407 0 0 0-.338-.192c-.556-.22-2.414-.932-3.283-.992.036.085.137.243.36.413.845.65 2.293 1.337 2.308 1.344.723.415 1.34.915 1.735 1.264.361.319.61.755.7 1.23.276 1.46.943 4.96 1.169 5.861.219.875 2.282 3.432 3.058 4.344a.323.323 0 0 1-.037.459.325.325 0 0 1-.211.079M41.07 36.81c-.178 0-.307.079-.359.219-.094.26.113.641.515.949.816.628 2.122 1.265 2.375 1.387.678.39 1.269.869 1.646 1.202.292.258.493.61.565.993.216 1.14.937 4.935 1.175 5.886.23.923 2.159 3.356 3.146 4.514.028.034.07.063.13.01a.09.09 0 0 0 .034-.063.091.091 0 0 0-.022-.068c-.029-.034-2.83-3.333-3.106-4.438-.228-.908-.896-4.412-1.173-5.876a1.954 1.954 0 0 0-.625-1.098 10.69 10.69 0 0 0-1.673-1.224c-.022-.01-1.492-.708-2.359-1.373-.369-.284-.506-.585-.452-.737.027-.068.094-.103.202-.095.859.038 2.665.719 3.402 1.01.142.057.275.132.394.224l1.835 1.432c.08.064.183.064.262 0 .078-.06.107-.16.07-.241l-1.03-2.742c-.223-.595-.63-.98-1.148-1.083l-3.216-.51a1.15 1.15 0 0 1-.794-.555c-.094-.17-.124-.324-.09-.46l.014-.05.046-.024c.568-.298 4.89.381 5.787.662.528.166 1.849 2.859 2.608 4.628.02.048.076.07.122.05a.094.094 0 0 0 .05-.123c-.887-2.068-2.133-4.549-2.724-4.733-.406-.128-1.863-.4-3.205-.574-2.71-.353-2.82-.053-2.86.06-.072.198-.043.418.087.654.183.33.52.568.925.65l3.216.509c.577.116.865.589 1.007.964l1.031 2.747.03.081-.075-.059-.163.078-.018-.045.163-.047L45 38.084a1.811 1.811 0 0 0-.44-.25c-.742-.294-2.565-.984-3.464-1.023h-.026" fill="#1E2F4E"/>
        <path d="M50.528 38.54a.21.21 0 0 1-.197-.137c-.43-1.173-1.705-4.343-2.447-4.92-.403-.313-4.027-.653-4.851-.653-.675 0-.805.165-.82.189a.21.21 0 0 1-.418-.028c0-.097.06-.58 1.238-.58.537 0 4.527.29 5.108.74.988.768 2.52 4.93 2.584 5.107a.21.21 0 0 1-.197.282" fill="#1E2F4E"/>
        <path d="M50.528 38.656a.326.326 0 0 1-.306-.214c-.593-1.618-1.77-4.37-2.41-4.866-.35-.272-3.886-.629-4.78-.629-.507 0-.671.095-.712.127a.326.326 0 0 1-.641-.083c0-.116.065-.697 1.354-.697.397 0 4.544.273 5.18.766 1.033.803 2.605 5.115 2.621 5.159a.325.325 0 0 1-.306.437m-7.495-5.942c.745 0 4.463.322 4.922.678.919.713 2.47 4.928 2.485 4.97a.09.09 0 0 0 .121.056.086.086 0 0 0 .051-.047.092.092 0 0 0 .003-.073c-.432-1.192-1.73-4.422-2.545-5.054-.53-.411-4.376-.717-5.037-.717-1.09 0-1.122.417-1.122.464a.094.094 0 0 0 .187.012l.017-.046c.046-.073.228-.243.918-.243M67.729 71.884c-1.701 0-3.593-.842-4.74-1.452-.916-.487-1.82-1.077-2.478-1.617-1.841-1.51-5.75-5.207-5.79-5.244a.21.21 0 0 1 .29-.306c.039.038 3.937 3.724 5.766 5.225.638.524 1.517 1.097 2.41 1.571 1.178.627 4.121 1.99 5.983 1.115.582-.274.995-.75 1.224-1.414.546-1.573.04-4.242-1.322-6.966-1.735-3.469-7.322-8.029-9.425-9.745-2.168-1.77-4.67-4.67-5.098-5.172h-.048c-.188.088-1.15.586-2.508 2.067-1.05 1.146-1.602 2.12-1.837 2.6-.063.127.001.26.093.334l.05.04c.66.536 1.48 1.204 2.993 3.231.896 1.202 2.035 2.662 3.242 4.209 1.754 2.248 3.567 4.573 4.568 6.032 1.616 2.353 3.563 3.3 3.582 3.308a.21.21 0 1 1-.18.38c-.084-.04-2.069-1.005-3.748-3.45-.994-1.45-2.803-3.769-4.553-6.012a264.864 264.864 0 0 1-3.248-4.216c-1.481-1.985-2.28-2.635-2.921-3.156l-.05-.04a.695.695 0 0 1-.205-.845c.245-.5.818-1.514 1.905-2.7 1.584-1.728 2.649-2.169 2.694-2.187a.203.203 0 0 1 .078-.015h.19a.21.21 0 0 1 .161.075c.028.033 2.768 3.284 5.105 5.191 2.123 1.733 7.76 6.334 9.535 9.884 1.432 2.863 1.934 5.589 1.344 7.291-.268.774-.754 1.331-1.443 1.656-.493.232-1.046.328-1.62.328" fill="#1E2F4E"/>
        <path d="M67.729 72c-1.688 0-3.538-.797-4.794-1.466-.923-.49-1.834-1.084-2.498-1.63-1.832-1.503-5.756-5.212-5.796-5.25a.326.326 0 0 1 .45-.473c.038.037 3.945 3.73 5.76 5.219.631.518 1.502 1.086 2.39 1.559 1.163.619 4.065 1.966 5.88 1.111.553-.26.944-.713 1.163-1.346.536-1.544.032-4.18-1.316-6.876-1.725-3.45-7.297-7.995-9.395-9.707-2.143-1.749-4.621-4.613-5.068-5.136-.259.13-1.169.648-2.427 2.02-1.041 1.136-1.586 2.099-1.818 2.572-.04.08.02.159.062.192l.05.041c.664.54 1.49 1.21 3.013 3.252.88 1.18 1.996 2.611 3.179 4.127l.061.08c1.758 2.252 3.57 4.576 4.574 6.037 1.593 2.321 3.516 3.26 3.535 3.27a.327.327 0 0 1 .155.433.323.323 0 0 1-.185.168.319.319 0 0 1-.25-.013c-.084-.04-2.094-1.014-3.793-3.489-.999-1.454-2.804-3.768-4.55-6.006-1.207-1.547-2.348-3.008-3.249-4.217-1.475-1.977-2.266-2.62-2.902-3.136l-.05-.04a.812.812 0 0 1-.236-.987c.248-.504.826-1.529 1.924-2.726 1.597-1.743 2.69-2.198 2.736-2.217a.32.32 0 0 1 .122-.024h.19c.097 0 .188.043.25.117.027.032 2.752 3.27 5.09 5.176 2.127 1.736 7.778 6.348 9.565 9.922 1.445 2.89 1.95 5.65 1.35 7.381-.279.805-.785 1.385-1.503 1.723-.478.225-1.04.339-1.67.339m-12.862-8.676c-.025 0-.05.01-.068.03a.094.094 0 0 0 .003.132c.04.037 3.957 3.74 5.784 5.239.652.536 1.55 1.12 2.459 1.604 1.009.538 2.96 1.438 4.685 1.438.595 0 1.123-.106 1.57-.317.66-.31 1.125-.844 1.382-1.588.58-1.674.08-4.366-1.338-7.201-1.764-3.53-7.388-8.118-9.505-9.846-2.355-1.922-5.095-5.176-5.12-5.208a.095.095 0 0 0-.071-.032h-.19a.08.08 0 0 0-.034.006c-.045.019-1.09.454-2.653 2.16-1.079 1.175-1.645 2.178-1.887 2.67a.58.58 0 0 0 .174.704l.05.04c.646.525 1.45 1.178 2.941 3.178.9 1.206 2.04 2.667 3.247 4.214 1.747 2.24 3.555 4.556 4.557 6.017 1.664 2.424 3.62 3.371 3.702 3.41.024.012.05.012.072.004a.093.093 0 0 0 .053-.048.095.095 0 0 0-.044-.125c-.02-.009-1.987-.957-3.628-3.348-.999-1.455-2.81-3.776-4.56-6.02l-.067-.085a261.504 261.504 0 0 1-3.181-4.13c-1.505-2.019-2.32-2.68-2.974-3.211l-.05-.042c-.127-.102-.215-.29-.124-.475.237-.484.794-1.469 1.856-2.627 1.376-1.501 2.361-2.007 2.544-2.094l.05-.01h.102l.035.04c.287.337 2.868 3.35 5.082 5.158 2.108 1.72 7.708 6.29 9.455 9.783 1.376 2.751 1.885 5.454 1.33 7.056-.24.695-.673 1.193-1.285 1.481-1.913.898-4.894-.481-6.088-1.117-.9-.479-1.786-1.056-2.429-1.585-1.822-1.494-5.733-5.192-5.773-5.229a.091.091 0 0 0-.064-.026M27.946 70.34a.21.21 0 0 1-.205-.165c-.008-.035-.781-3.607-1.11-5.065-.324-1.43-1.303-3.26-1.313-3.278a.21.21 0 1 1 .37-.199c.04.077 1.016 1.898 1.352 3.385.33 1.46 1.103 5.033 1.112 5.069a.21.21 0 0 1-.206.254" fill="#1E2F4E"/>
        <path d="M27.946 70.457a.329.329 0 0 1-.319-.257c-.004-.022-.777-3.591-1.11-5.064-.312-1.38-1.26-3.172-1.301-3.248a.324.324 0 0 1 .132-.443.323.323 0 0 1 .441.133c.01.018 1.02 1.894 1.365 3.414.26 1.154.795 3.612 1.09 4.975l.021.095a.325.325 0 0 1-.32.396m-2.443-8.82a.093.093 0 0 0-.044.013.092.092 0 0 0-.038.126c.104.194 1.01 1.921 1.324 3.308a880.362 880.362 0 0 1 1.11 5.066c.012.049.058.085.113.071a.092.092 0 0 0 .07-.11l-.02-.095c-.295-1.363-.83-3.82-1.09-4.973-.336-1.49-1.332-3.337-1.342-3.355a.093.093 0 0 0-.056-.046.095.095 0 0 0-.027-.005M39.544 32.535a.21.21 0 0 1-.122-.38c.566-.407 1.258-.476 1.99-.548.806-.08 1.638-.162 2.381-.708a.21.21 0 1 1 .248.339c-.835.613-1.766.705-2.588.787-.674.066-1.311.13-1.787.471a.208.208 0 0 1-.122.04" fill="#1E2F4E"/>
        <path d="M39.544 32.652a.327.327 0 0 1-.19-.591c.592-.426 1.299-.496 2.047-.57.79-.078 1.606-.16 2.323-.685a.324.324 0 0 1 .456.07.327.327 0 0 1-.07.455c-.861.633-1.809.727-2.645.81-.66.065-1.281.126-1.73.45a.328.328 0 0 1-.19.06m4.372-1.676a.094.094 0 0 0-.055.018c-.768.564-1.617.648-2.438.73-.716.07-1.392.137-1.935.526a.095.095 0 0 0-.02.131c.028.04.09.05.13.022.5-.36 1.151-.425 1.84-.493.81-.08 1.724-.17 2.533-.765.042-.03.051-.09.021-.131a.095.095 0 0 0-.076-.038M37.33 32.69a.21.21 0 0 1-.198-.28c.007-.017.013-.04.021-.067.104-.34.378-1.243 1.704-1.532.468-.102 1.372-.463 3.02-1.603l.1-.068a.21.21 0 1 1 .223.356 5.84 5.84 0 0 0-.083.057c-1.37.947-2.436 1.508-3.17 1.668-1.085.237-1.3.943-1.392 1.245l-.026.083a.21.21 0 0 1-.198.14" fill="#1E2F4E"/>
        <path d="M37.33 32.806a.327.327 0 0 1-.307-.434l.012-.04c.116-.38.405-1.331 1.797-1.634.459-.101 1.348-.457 2.98-1.585l.104-.072a.323.323 0 0 1 .246-.04.325.325 0 0 1 .1.594c-.01.006-.037.024-.079.054-1.381.955-2.461 1.522-3.212 1.686-1.02.222-1.219.883-1.304 1.164l-.03.09a.326.326 0 0 1-.307.217m4.759-3.581a.091.091 0 0 0-.05.014c-.014.008-.046.03-.095.065-1.663 1.15-2.584 1.515-3.063 1.62-1.258.275-1.518 1.13-1.616 1.453l-.022.07a.094.094 0 0 0 .057.121.096.096 0 0 0 .12-.057l.017-.056c.096-.317.332-1.096 1.485-1.347.72-.158 1.772-.713 3.128-1.65l.087-.06a.093.093 0 0 0-.027-.17.095.095 0 0 0-.021-.003M46.063 32.967a.21.21 0 0 1-.172-.33c.288-.416.275-.861.18-1.38-.378.412-.94.616-1.377.715a8.63 8.63 0 0 1-.264.055c-.319.064-.57.115-1.044.358a.21.21 0 0 1-.192-.374c.526-.27.831-.331 1.154-.395.08-.016.163-.033.252-.054.357-.081 1-.289 1.295-.765a.29.29 0 0 1 .529.09c.154.718.246 1.363-.188 1.99a.21.21 0 0 1-.173.09" fill="#1E2F4E"/>
        <path d="M46.063 33.083a.326.326 0 0 1-.268-.512c.223-.321.25-.669.196-1.076-.391.334-.895.505-1.272.59-.095.022-.182.04-.266.056-.312.063-.556.112-1.014.347a.326.326 0 0 1-.298-.58c.54-.278.853-.34 1.184-.407.079-.015.161-.031.249-.052.34-.077.95-.273 1.222-.713a.405.405 0 0 1 .741.126c.16.745.255 1.415-.206 2.08a.328.328 0 0 1-.268.141zm.08-2.077.042.23c.103.56.108 1.024-.199 1.467-.03.043-.02.1.024.13a.096.096 0 0 0 .13-.023c.408-.589.318-1.208.17-1.9a.173.173 0 0 0-.317-.052c-.317.512-.993.732-1.367.818a7.82 7.82 0 0 1-.256.053c-.314.064-.611.123-1.122.386a.095.095 0 0 0-.047.055.094.094 0 0 0 .132.11 3.46 3.46 0 0 1 1.071-.366c.087-.017.172-.034.264-.055.4-.091.953-.283 1.317-.68l.158-.173zM37.148 32.69a.21.21 0 0 1-.179-.1c-.24-.389-.657-1.421.633-2.616a.21.21 0 1 1 .286.308c-1.024.948-.792 1.715-.562 2.088a.21.21 0 0 1-.178.32" fill="#1E2F4E"/>
        <path d="M37.148 32.806a.326.326 0 0 1-.277-.154c-.256-.414-.701-1.51.653-2.763a.325.325 0 1 1 .443.478c-.963.892-.753 1.6-.542 1.942a.325.325 0 0 1-.277.497m.597-2.772a.09.09 0 0 0-.063.025c-1.228 1.136-.839 2.106-.614 2.47a.097.097 0 0 0 .129.03.095.095 0 0 0 .03-.128c-.249-.404-.503-1.23.581-2.234a.095.095 0 0 0 .005-.133.092.092 0 0 0-.068-.03M36.754 60.332a.28.28 0 0 1-.056-.006c-.125-.028-.314-.07-1.294-2.14a60.518 60.518 0 0 1-1.453-3.326c-.96-2.432-.702-4.31-.69-4.39a.21.21 0 0 1 .415.061c-.003.018-.252 1.853.665 4.175.713 1.806 1.973 4.52 2.401 5.122a5.64 5.64 0 0 0 .28-.46c.347-.602.821-1.427 1.63-1.554.587-.092 1.232.19 1.97.86a.21.21 0 0 1-.282.31c-.63-.571-1.175-.826-1.622-.756-.611.097-1.01.792-1.331 1.35-.166.29-.31.539-.47.69a.238.238 0 0 1-.163.064" fill="#1E2F4E"/>
        <path d="M36.754 60.449a.342.342 0 0 1-.082-.01c-.173-.039-.369-.084-1.373-2.202a60.827 60.827 0 0 1-1.457-3.335c-.97-2.458-.708-4.368-.697-4.448.027-.178.195-.308.37-.275.177.025.302.19.276.369-.002.019-.246 1.827.658 4.115.687 1.74 1.818 4.173 2.294 4.953.06-.097.122-.205.18-.305.357-.623.847-1.476 1.712-1.612.622-.097 1.3.193 2.065.889a.325.325 0 0 1 .022.46.325.325 0 0 1-.46.023c-.602-.547-1.112-.788-1.526-.728-.556.088-.939.755-1.247 1.291-.174.303-.32.556-.491.718a.354.354 0 0 1-.244.097m-3.286-10.041a.093.093 0 0 0-.093.08c-.01.077-.265 1.928.684 4.33.366.928.949 2.263 1.45 3.32.847 1.787 1.094 2.047 1.215 2.075a.12.12 0 0 0 .114-.03c.146-.138.284-.379.445-.656.337-.588.75-1.308 1.417-1.413.483-.077 1.063.188 1.718.785a.094.094 0 0 0 .156-.075.093.093 0 0 0-.03-.065c-.71-.645-1.323-.917-1.873-.83-.755.118-1.213.915-1.547 1.497-.091.16-.194.34-.287.47l-.095.131-.094-.132c-.454-.636-1.729-3.408-2.415-5.147-.923-2.337-.675-4.215-.672-4.234a.094.094 0 0 0-.08-.105l-.013-.001" fill="#1E2F4E"/>
        <path d="M44.359 60.527c-.148 0-.235-.12-.438-.397-.539-.737-1.66-2.273-3.321-1.128a.21.21 0 0 1-.239-.346c1.997-1.376 3.38.515 3.9 1.227.022.032.047.065.07.096l.279-.453c.685-1.109 1.83-2.965 2.415-4.443.92-2.33.748-4.542.747-4.564a.21.21 0 1 1 .418-.035c.008.094.183 2.328-.775 4.753-.597 1.513-1.755 3.388-2.448 4.51-.166.27-.306.496-.405.664a.231.231 0 0 1-.189.115h-.014" fill="#1E2F4E"/>
        <path d="M44.359 60.643c-.206 0-.313-.146-.526-.437-.563-.77-1.6-2.188-3.167-1.108a.327.327 0 0 1-.37-.538c2.05-1.414 3.465.443 4.027 1.21l.188-.305c.682-1.105 1.824-2.954 2.406-4.425.895-2.266.746-4.421.739-4.512a.328.328 0 0 1 .297-.352.335.335 0 0 1 .353.297c.019.242.16 2.42-.783 4.806-.6 1.52-1.759 3.398-2.451 4.52-.176.284-.313.506-.41.671a.347.347 0 0 1-.283.172l-.02.001zm-2.597-2.166c1.096 0 1.867 1.056 2.253 1.584.191.262.26.35.344.35v.116l.004-.117a.118.118 0 0 0 .099-.058c.097-.166.235-.39.4-.655.7-1.136 1.853-3.003 2.445-4.503.923-2.337.786-4.466.767-4.701-.004-.05-.043-.083-.102-.085a.094.094 0 0 0-.084.101c.007.095.16 2.301-.755 4.617-.589 1.49-1.738 3.35-2.424 4.46l-.279.454-.092.15-.173-.241c-.5-.685-1.833-2.51-3.738-1.198a.094.094 0 0 0 .107.155c.445-.307.855-.43 1.228-.43zM53.553 70.457a.211.211 0 0 1-.209-.237c.198-1.574.391-3.011.753-4.66.281-1.277.603-2.56.958-3.815a.21.21 0 1 1 .403.114 66.342 66.342 0 0 0-.95 3.791c-.359 1.631-.551 3.06-.747 4.623a.21.21 0 0 1-.208.184" fill="#1E2F4E"/>
        <path d="m53.553 70.573-.04-.003a.32.32 0 0 1-.218-.123.33.33 0 0 1-.067-.24c.2-1.582.394-3.025.755-4.672.283-1.284.606-2.57.96-3.822a.32.32 0 0 1 .155-.196.32.32 0 0 1 .248-.028.322.322 0 0 1 .224.402 67.02 67.02 0 0 0-.95 3.784c-.358 1.634-.549 3.056-.744 4.612a.326.326 0 0 1-.323.286m1.703-8.865a.092.092 0 0 0-.09.068 67.435 67.435 0 0 0-.956 3.81c-.36 1.636-.553 3.073-.75 4.649a.094.094 0 0 0 .08.104h.013a.093.093 0 0 0 .093-.08c.195-1.563.387-2.99.747-4.634.28-1.268.6-2.546.953-3.797a.091.091 0 0 0-.064-.116.087.087 0 0 0-.026-.004M40.608 59.074a.208.208 0 0 1-.192-.126 3.969 3.969 0 0 0-1.107-1.473.21.21 0 0 1 .267-.324c.456.377.833.847 1.103 1.372.431-.382.849-.789 1.242-1.21a.21.21 0 0 1 .307.287c-.467.5-.966.978-1.483 1.423a.208.208 0 0 1-.137.05" fill="#1E2F4E"/>
        <path d="M40.608 59.19a.324.324 0 0 1-.3-.197 3.858 3.858 0 0 0-1.074-1.429.326.326 0 0 1 .416-.503c.426.353.79.793 1.061 1.276.391-.351.77-.722 1.126-1.104.059-.064.14-.1.226-.103a.326.326 0 0 1 .25.549c-.47.503-.972.985-1.492 1.432a.322.322 0 0 1-.213.079m-1.166-1.97a.094.094 0 0 0-.06.165c.493.407.886.931 1.14 1.516a.091.091 0 0 0 .065.054l.021.002a.09.09 0 0 0 .06-.022c.515-.442 1.01-.918 1.475-1.415a.094.094 0 0 0-.005-.132.115.115 0 0 0-.067-.026.093.093 0 0 0-.065.03c-.394.422-.815.832-1.25 1.218l-.112.1-.068-.134a4.305 4.305 0 0 0-1.074-1.335.091.091 0 0 0-.06-.022" fill="#1E2F4E"/>
        <path d="M40.675 70.496a.21.21 0 0 1-.21-.198c-.02-.34-.472-8.356-.065-11.461a.21.21 0 0 1 .416.054c-.402 3.066.064 11.3.069 11.383a.21.21 0 0 1-.198.222h-.012" fill="#1E2F4E"/>
        <path d="M40.747 70.612c-.195 0-.356-.135-.367-.307-.006-.083-.54-8.332-.074-11.483a.318.318 0 0 1 .143-.217.398.398 0 0 1 .271-.064c.096.01.183.054.243.124.06.069.086.155.073.241-.453 3.066.073 11.28.08 11.361a.303.303 0 0 1-.095.236.384.384 0 0 1-.253.108l-.021.001zM40.67 58.77a.111.111 0 0 0-.063.02.09.09 0 0 0-.04.061c-.463 3.131.07 11.358.075 11.44.003.05.05.088.105.088v.117l.002-.117a.118.118 0 0 0 .077-.03.09.09 0 0 0 .027-.068c-.006-.081-.534-8.319-.077-11.405a.085.085 0 0 0-.021-.07.105.105 0 0 0-.07-.035.146.146 0 0 0-.015 0z" fill="#1E2F4E"/>
        <path d="M63.088 70.496H17.95a.21.21 0 0 1 0-.42h45.137a.21.21 0 0 1 0 .42" fill="#1E2F4E"/>
        <path d="M63.088 70.96H17.95c-.179 0-.325-.225-.325-.5 0-.276.146-.5.325-.5h45.138c.18 0 .327.224.327.5 0 .275-.148.5-.327.5zm-45.138-.644c-.051 0-.093.065-.093.144 0 .08.042.143.093.143h45.138c.052 0 .094-.064.094-.143 0-.08-.042-.144-.094-.144H17.95z" fill="#1E2F4E"/>
        <path d="M50.193 9.307c-.511.055-1.42.082-2.727.082-.316 0-.474-.152-.474-.457 0-.305.158-.457.474-.457.297 0 .741-.014 1.335-.042a31.728 31.728 0 0 1 1.335-.04c.334 0 .502.152.502.457 0 .27-.148.422-.445.457M55.488 8.128v3.05c.399-.14.731-.348.998-.622.297-.312.445-.65.445-1.014 0-.68-.48-1.151-1.443-1.414m-1.002-1.237V4.786c-.748.293-1.121.747-1.121 1.36 0 .38.373.628 1.12.745m1.003-4.392v.991h.023c.36 0 .772.064 1.234.194.605.167.907.382.907.644 0 .345-.167.516-.501.516-.15 0-.415-.041-.792-.125-.377-.085-.668-.125-.87-.12v2.386c.83.078 1.48.362 1.949.85.428.454.642 1.001.642 1.642 0 .786-.261 1.437-.783 1.953-.462.454-1.065.753-1.809.897v1.56a.524.524 0 0 1-.143.379.482.482 0 0 1-.363.149c-.331 0-.496-.172-.496-.516v-1.496c-1.833-.027-2.75-.521-2.75-1.483 0-.352.156-.528.468-.528.177 0 .346.073.507.217.24.215.423.356.547.423.3.156.71.246 1.228.27V7.975h-.045c-.582-.023-1.086-.172-1.51-.445-.526-.337-.789-.804-.789-1.402 0-.536.24-1.04.721-1.513a3.928 3.928 0 0 1 1.623-.956V2.534c0-.153.05-.28.149-.381a.496.496 0 0 1 .37-.153c.322 0 .483.166.483.499M43.487 22.927c-.328.034-.912.05-1.752.05-.203 0-.304-.094-.304-.282 0-.188.101-.282.304-.282.19 0 .477-.009.858-.025.381-.017.667-.026.858-.026.215 0 .322.094.322.283 0 .166-.095.26-.286.282M46.89 22.199v1.882c.255-.087.468-.215.64-.383.19-.194.286-.402.286-.627 0-.42-.31-.71-.927-.872m-.644-.764v-1.299c-.48.181-.72.461-.72.84 0 .234.24.387.72.46m.644-2.712v.612h.015c.231 0 .495.04.792.12.39.103.583.236.583.397 0 .213-.107.32-.322.32-.097 0-.266-.027-.508-.078a2.674 2.674 0 0 0-.56-.075v1.473c.533.048.951.223 1.252.525.275.28.413.618.413 1.014 0 .484-.168.886-.503 1.205-.297.28-.684.464-1.162.554v.962a.314.314 0 0 1-.326.326c-.212 0-.318-.106-.318-.318v-.923c-1.178-.017-1.766-.323-1.766-.916 0-.217.1-.326.3-.326.113 0 .222.045.326.134.154.133.271.22.351.26.193.097.456.153.79.167v-2.052h-.03a1.954 1.954 0 0 1-.97-.275c-.338-.208-.507-.496-.507-.865 0-.33.155-.642.463-.934.285-.27.633-.467 1.043-.59v-.695a.325.325 0 0 1 .332-.33c.208 0 .312.103.312.308" fill="#DBDCDC"/>
        <path d="M27.974 17.371c-.531.055-1.478.082-2.838.082-.329 0-.493-.152-.493-.457 0-.305.164-.458.493-.458.309 0 .772-.013 1.39-.04a34.398 34.398 0 0 1 1.39-.042c.347 0 .521.153.521.458 0 .27-.154.422-.463.457M33.487 16.192v3.05c.414-.141.76-.348 1.038-.622.308-.312.463-.65.463-1.014 0-.68-.5-1.151-1.501-1.414m-1.044-1.237V12.85c-.778.293-1.167.747-1.167 1.36 0 .38.389.628 1.167.745m1.044-4.392v.99h.023c.375 0 .804.065 1.285.194.629.168.944.383.944.645 0 .345-.174.516-.522.516-.157 0-.431-.041-.824-.126-.393-.084-.695-.124-.906-.12v2.387c.864.078 1.54.362 2.029.85.445.454.669 1.001.669 1.642 0 .786-.272 1.437-.816 1.953-.48.454-1.108.752-1.882.897v1.56a.514.514 0 0 1-.528.528c-.344 0-.516-.172-.516-.516v-1.496c-1.908-.027-2.862-.521-2.862-1.483 0-.352.162-.528.487-.528.184 0 .36.073.527.217.25.215.44.356.57.423.312.156.738.246 1.278.27V16.04h-.047c-.606-.023-1.13-.172-1.571-.445-.548-.337-.822-.804-.822-1.402 0-.536.25-1.04.751-1.513a4.13 4.13 0 0 1 1.689-.956v-1.126a.528.528 0 0 1 .54-.534c.335 0 .504.166.504.499M55.573 28.267c-.423.044-1.175.065-2.257.065-.262 0-.392-.12-.392-.363 0-.242.13-.364.392-.364.245 0 .614-.01 1.105-.033.491-.021.86-.032 1.105-.032.276 0 .415.121.415.364 0 .214-.123.335-.368.363M59.956 27.33v2.425c.33-.112.605-.276.825-.495.246-.248.369-.517.369-.806 0-.54-.398-.915-1.194-1.124m-.83-.984v-1.674c-.619.233-.928.594-.928 1.082 0 .301.31.499.928.592m.83-3.493v.788h.019c.298 0 .639.052 1.021.154.5.134.75.305.75.513 0 .274-.137.41-.414.41-.124 0-.343-.033-.656-.1a3.453 3.453 0 0 0-.72-.095v1.897c.688.063 1.225.288 1.614.677.354.36.531.796.531 1.305 0 .625-.216 1.143-.648 1.553-.382.361-.881.599-1.497.714v1.24a.41.41 0 0 1-.118.301.41.41 0 0 1-.302.119c-.273 0-.41-.137-.41-.41v-1.19c-1.517-.021-2.275-.414-2.275-1.18 0-.279.129-.419.387-.419.146 0 .286.058.42.172.198.172.349.284.451.336.249.125.588.196 1.017.215v-2.644h-.037c-.482-.019-.899-.137-1.25-.354-.435-.268-.653-.64-.653-1.115 0-.426.2-.827.597-1.203a3.288 3.288 0 0 1 1.343-.76v-.896a.418.418 0 0 1 .429-.424c.267 0 .401.132.401.396M20.63 36.094c-.307.032-.855.048-1.642.048-.19 0-.285-.089-.285-.265 0-.176.095-.264.285-.264.179 0 .447-.009.804-.024.358-.016.626-.024.805-.024.2 0 .301.088.301.265 0 .156-.089.244-.268.264M23.82 35.412v1.765c.24-.081.44-.202.602-.36.178-.18.268-.376.268-.587 0-.394-.29-.666-.87-.818m-.603-.716v-1.218c-.45.17-.676.432-.676.787 0 .22.226.363.676.43m.604-2.541v.574h.013c.217 0 .465.037.743.112.365.097.547.221.547.373 0 .2-.1.299-.302.299-.09 0-.25-.025-.477-.074a2.495 2.495 0 0 0-.524-.07v1.383c.5.044.891.208 1.174.492.258.262.387.579.387.95 0 .454-.157.831-.472 1.13-.278.263-.641.435-1.09.52v.902a.298.298 0 0 1-.086.219.298.298 0 0 1-.219.086c-.199 0-.298-.1-.298-.298v-.866c-1.104-.016-1.657-.301-1.657-.859 0-.203.094-.305.282-.305.107 0 .208.042.306.125.144.125.254.207.329.245.18.09.427.143.74.156v-1.924h-.027a1.83 1.83 0 0 1-.91-.258c-.317-.195-.475-.465-.475-.811 0-.31.145-.602.434-.876.267-.253.593-.438.978-.553v-.652a.303.303 0 0 1 .312-.309c.194 0 .292.097.292.289" fill="#9F9FA0"/>
        <path d="M16.816 24.448v2.438c.331-.112.608-.278.83-.497.247-.25.37-.52.37-.811 0-.544-.4-.92-1.2-1.13m-.835-.99v-1.683c-.622.234-.933.597-.933 1.088 0 .303.31.501.933.595m.835-3.512v.792h.018c.3 0 .643.052 1.027.155.504.134.755.307.755.516 0 .275-.139.413-.417.413-.125 0-.344-.034-.659-.101a3.467 3.467 0 0 0-.724-.096v1.908c.69.063 1.232.29 1.622.68.357.363.535.8.535 1.313 0 .629-.217 1.15-.652 1.562-.384.362-.886.602-1.505.717v1.247a.409.409 0 0 1-.422.423c-.275 0-.413-.138-.413-.413v-1.195c-1.526-.023-2.288-.418-2.288-1.187 0-.282.13-.422.389-.422.147 0 .287.058.422.173.2.172.352.285.455.338.25.125.59.197 1.022.216v-2.66h-.037c-.485-.018-.904-.137-1.257-.355-.438-.27-.657-.643-.657-1.121 0-.428.2-.832.6-1.21.37-.35.82-.605 1.35-.765v-.9a.42.42 0 0 1 .431-.426c.27 0 .405.132.405.398" fill="#DBDCDC"/>
    </g>
</svg>
