<svg width="200" height="200" viewBox="0 0 200 200" xmlns="http://www.w3.org/2000/svg" xmlns:xlink="http://www.w3.org/1999/xlink">
    <defs>
        <path d="M90 12c45.287 0 82 35.817 82 80s-36.713 80-82 80S8 136.183 8 92s36.713-80 82-80zm0 2.051c-44.167 0-79.95 34.91-79.95 77.949 0 43.038 35.783 77.949 79.95 77.949s79.95-34.91 79.95-77.949c0-43.038-35.783-77.949-79.95-77.949z" id="eg8p6j8djf"/>
        <path id="uol11avarh" d="M0 0h69.368v29.955H0z"/>
        <path id="fnj18926pj" d="M0 0h72v132H0z"/>
        <path id="im2p0dge8l" d="M0 0h69.368v29.955H0z"/>
        <path id="zb1hp6nnzn" d="M0 0h37.232v70H0z"/>
        <filter x="-5.6%" y="-2.8%" width="111.1%" height="111.1%" filterUnits="objectBoundingBox" id="465mqtd10b">
            <feOffset dy="5" in="SourceAlpha" result="shadowOffsetOuter1"/>
            <feGaussianBlur stdDeviation="2.5" in="shadowOffsetOuter1" result="shadowBlurOuter1"/>
            <feComposite in="shadowBlurOuter1" in2="SourceAlpha" operator="out" result="shadowBlurOuter1"/>
            <feColorMatrix values="0 0 0 0 0 0 0 0 0 0 0 0 0 0 0 0 0 0 0.2 0" in="shadowBlurOuter1"/>
        </filter>
        <filter x="-.3%" y="-.3%" width="100.6%" height="100.6%" filterUnits="objectBoundingBox" id="l9zs5u27ug">
            <feOffset dy="1" in="SourceAlpha" result="shadowOffsetInner1"/>
            <feComposite in="shadowOffsetInner1" in2="SourceAlpha" operator="arithmetic" k2="-1" k3="1" result="shadowInnerInner1"/>
            <feColorMatrix values="0 0 0 0 0 0 0 0 0 0 0 0 0 0 0 0 0 0 0.2 0" in="shadowInnerInner1"/>
        </filter>
        <circle id="7tv9p21qca" cx="90" cy="90" r="90"/>
        <circle id="d759uzdw6d" cx="90" cy="90" r="90"/>
    </defs>
    <g fill="none" fill-rule="evenodd">
        <g transform="translate(10 10)">
            <mask id="vm7zq9xs1c" fill="#fff">
                <use xlink:href="#7tv9p21qca"/>
            </mask>
            <g fill="#000">
                <use filter="url(#465mqtd10b)" xlink:href="#7tv9p21qca"/>
                <use fill-opacity=".5" xlink:href="#7tv9p21qca"/>
            </g>
            <g mask="url(#vm7zq9xs1c)">
                <g transform="translate(0 -6)">
                    <mask id="mca92nqzne" fill="#fff">
                        <use xlink:href="#d759uzdw6d"/>
                    </mask>
                    <circle stroke="#D95555" cx="90" cy="90" r="89.5"/>
                    <path d="M90 176.25a.75.75 0 0 1 .743.648l.007.102v10a.75.75 0 0 1-1.493.102L89.25 187v-10a.75.75 0 0 1 .75-.75zm-5.842-.204a.75.75 0 0 1 .696.698v.102l-.698 9.976a.75.75 0 0 1-1.496-.003v-.102l.697-9.975a.75.75 0 0 1 .8-.696zm22.675-.84.027.098 1.908 9.817a.75.75 0 0 1-1.447.384l-.026-.098-1.908-9.816a.75.75 0 0 1 1.446-.385zm-38.51-1.81a.75.75 0 0 1 .551.819l-.02.1-2.588 9.66a.75.75 0 0 1-1.469-.289l.02-.1 2.588-9.66a.75.75 0 0 1 .919-.53zm44.239.434.033.097 2.588 9.659a.75.75 0 0 1-1.416.485l-.033-.097-2.588-9.66a.75.75 0 0 1 1.416-.484zm-49.828-2.143a.75.75 0 0 1 .491.855l-.026.098-3.256 9.456a.75.75 0 0 1-1.445-.39l.027-.099 3.255-9.455a.75.75 0 0 1 .954-.465zm64.932-3.656.05.088 4.384 8.988a.75.75 0 0 1-1.297.746l-.051-.088-4.384-8.988a.75.75 0 0 1 1.298-.746zm-79.541-3.001a.75.75 0 0 1 .32.933l-.045.091-5 8.66a.75.75 0 0 1-1.344-.658l.044-.092 5-8.66a.75.75 0 0 1 1.025-.274zm84.718.19.057.084 5 8.66a.75.75 0 0 1-1.243.835l-.057-.085-5-8.66a.75.75 0 0 1 1.243-.835zm-89.675-3.288a.75.75 0 0 1 .257.945l-.055.096-5.592 8.29a.75.75 0 0 1-1.299-.742l.055-.096 5.592-8.29a.75.75 0 0 1 1.042-.203zm102.756-6.23.079.079 6.56 7.547a.75.75 0 0 1-1.053 1.062l-.078-.078-6.561-7.547a.75.75 0 0 1 1.053-1.062zm4.273-4.054.084.072 7.07 7.071a.75.75 0 0 1-.976 1.134l-.084-.073-7.07-7.071a.75.75 0 0 1 .976-1.133zm-119.417.072a.75.75 0 0 1 .072.977l-.072.084-7.071 7.07a.75.75 0 0 1-1.134-.976l.073-.084 7.071-7.07a.75.75 0 0 1 1.06 0zm-3.987-4.275a.75.75 0 0 1 .004.98l-.078.078-7.547 6.56a.75.75 0 0 1-1.062-1.053l.078-.078 7.547-6.561a.75.75 0 0 1 1.058.074zm133.584-8.37.096.055 8.29 5.592a.75.75 0 0 1-.742 1.299l-.096-.055-8.29-5.592a.75.75 0 0 1 .742-1.3zm-142.907-4.7a.75.75 0 0 1-.19.968l-.084.057-8.66 5a.75.75 0 0 1-.835-1.243l.085-.057 8.66-5a.75.75 0 0 1 1.024.275zm145.993-.32.091.045 8.66 5a.75.75 0 0 1-.658 1.344l-.092-.044-8.66-5a.75.75 0 0 1 .659-1.344zm-148.737-4.841a.75.75 0 0 1-.257.952l-.088.05-8.988 4.384a.75.75 0 0 1-.746-1.297l.088-.051 8.988-4.384a.75.75 0 0 1 1.003.346zm155.316-9.94.098.027 9.456 3.256a.75.75 0 0 1-.39 1.445l-.099-.027-9.455-3.255a.75.75 0 0 1 .39-1.445zm1.673-5.648.1.02 9.66 2.588a.75.75 0 0 1-.289 1.469l-.1-.02-9.66-2.588a.75.75 0 0 1 .289-1.469zm-162.611.55a.75.75 0 0 1-.434.886l-.097.033-9.659 2.588a.75.75 0 0 1-.485-1.416l.097-.033 9.66-2.588a.75.75 0 0 1 .918.53zm-1.315-5.696a.75.75 0 0 1-.495.853l-.098.027-9.817 1.908a.75.75 0 0 1-.384-1.447l.098-.026 9.816-1.908a.75.75 0 0 1 .88.593zm166.455-10.834h.102l9.976.698a.75.75 0 0 1-.003 1.496h-.102l-9.975-.697a.75.75 0 0 1 .002-1.497zM5.5 91.75a.75.75 0 0 1 .102 1.493l-.102.007h-10a.75.75 0 0 1-.102-1.493l.102-.007h10zm179 0a.75.75 0 0 1 .102 1.493l-.102.007h-10a.75.75 0 0 1-.102-1.493l.102-.007h10zM-4.217 85.16l9.975.697a.75.75 0 0 1-.002 1.497h-.102l-9.976-.698a.75.75 0 0 1 .003-1.496h.102zM183.5 74.325a.75.75 0 0 1-.495.854l-.098.026-9.816 1.908a.75.75 0 0 1-.385-1.446l.098-.027 9.817-1.908a.75.75 0 0 1 .879.593zM-1.186 67.297l.1.02 9.66 2.588a.75.75 0 0 1-.289 1.469l-.1-.02-9.66-2.588a.75.75 0 0 1 .289-1.469zm183.19.55a.75.75 0 0 1-.433.886l-.097.033-9.66 2.588a.75.75 0 0 1-.484-1.416l.097-.033 9.659-2.588a.75.75 0 0 1 .918.53zM.794 60.998l.099.027 9.455 3.255a.75.75 0 0 1-.39 1.445L9.86 65.7.404 62.443a.75.75 0 0 1 .39-1.445zM175.61 50.745a.75.75 0 0 1-.257.952l-.088.051-8.988 4.384a.75.75 0 0 1-.746-1.298l.088-.05 8.988-4.384a.75.75 0 0 1 1.003.345zm-3.121-5.87a.75.75 0 0 1-.19.968l-.085.057-8.66 5a.75.75 0 0 1-.835-1.243l.085-.057 8.66-5a.75.75 0 0 1 1.025.275zm-164.045-.32.092.045 8.66 5a.75.75 0 0 1-.659 1.344l-.091-.044-8.66-5a.75.75 0 0 1 .658-1.344zm3.535-5.576.096.055 8.29 5.592a.75.75 0 0 1-.742 1.3l-.096-.056-8.29-5.592a.75.75 0 0 1 .742-1.299zm149.907-8.969a.75.75 0 0 1 .004.98l-.078.078-7.547 6.561a.75.75 0 0 1-1.062-1.053l.078-.079 7.547-6.56a.75.75 0 0 1 1.058.073zM23.625 25.075l.084.073 7.07 7.071a.75.75 0 0 1-.976 1.133l-.084-.072-7.07-7.071a.75.75 0 0 1 .976-1.134zm133.727.073a.75.75 0 0 1 .073.977l-.073.084-7.071 7.07a.75.75 0 0 1-1.133-.976l.072-.084 7.071-7.07a.75.75 0 0 1 1.06 0zM28.49 20.61l.078.078 6.561 7.547a.75.75 0 0 1-1.053 1.062l-.079-.078-6.56-7.547a.75.75 0 0 1 1.053-1.062zm114.773-7.076a.75.75 0 0 1 .258.945l-.055.096-5.592 8.29a.75.75 0 0 1-1.3-.742l.056-.096 5.592-8.29a.75.75 0 0 1 1.041-.203zm-5.638-3.523a.75.75 0 0 1 .32.933l-.045.092-5 8.66a.75.75 0 0 1-1.344-.659l.044-.091 5-8.66a.75.75 0 0 1 1.025-.275zm-94.282.19.057.085 5 8.66a.75.75 0 0 1-1.243.835l-.057-.085-5-8.66a.75.75 0 0 1 1.243-.835zm5.854-3.054.051.088 4.384 8.988a.75.75 0 0 1-1.298.746l-.05-.088L47.9 7.893a.75.75 0 0 1 1.297-.746zm71.813-4.708a.75.75 0 0 1 .492.855l-.027.099-3.255 9.455a.75.75 0 0 1-1.445-.39l.026-.098 3.256-9.456a.75.75 0 0 1 .953-.465zM66.233.93l.033.097 2.588 9.66a.75.75 0 0 1-1.416.484l-.033-.097-2.588-9.659A.75.75 0 0 1 66.233.93zm48.42-.433a.75.75 0 0 1 .55.818l-.02.1-2.588 9.66a.75.75 0 0 1-1.469-.289l.02-.1 2.588-9.66a.75.75 0 0 1 .919-.53zM72.679-.505l.026.098 1.908 9.816a.75.75 0 0 1-1.446.385l-.027-.098-1.908-9.817a.75.75 0 0 1 1.447-.384zm23.863-2.013h.102a.75.75 0 0 1 .696.699v.102l-.697 9.975a.75.75 0 0 1-1.497-.002v-.102l.698-9.976a.75.75 0 0 1 .698-.696zM90-2.75a.75.75 0 0 1 .743.648L90.75-2V8a.75.75 0 0 1-1.493.102L89.25 8V-2a.75.75 0 0 1 .75-.75z" fill="#D95555" fill-rule="nonzero" mask="url(#mca92nqzne)"/>
                </g>
                <g fill-rule="nonzero" transform="translate(0 -6)">
                    <use fill="#D95555" xlink:href="#eg8p6j8djf"/>
                    <use fill="#000" filter="url(#l9zs5u27ug)" xlink:href="#eg8p6j8djf"/>
                </g>
            </g>
            <g mask="url(#vm7zq9xs1c)">
                <path d="m136.644 138.04-31.71-13.983 40.614-8.508 3.705-6.234-54.113 8.557-67.62 4.13-.167 5.042s.77 4.096 4.674 7.063c5.993 4.554 17.919 8.964 34.455 11.456 11.544 1.74 26.391 2.558 39.068 1.864 17.31-.947 31.037-3.92 31.037-3.92l.057-5.467z" fill="#F39F59"/>
                <path d="M150.343 107.877s-4.828-2.362-14.371-4.388c-9.841-2.09-24.652-3.846-41.39-3.846-13.33 0-33.964 2.55-44.62 5.506-15.699 4.356-22.491 10.19-22.491 16.282 0 2.461 2.405 5.719 6.26 8.273 4.142 2.744 9.942 4.76 15.714 6.631 5.692 1.845 12.365 3.194 19.79 4.048 7.153.823 15.007 1.176 23.097 1.576 6.568.325 18.29-.098 27.818-1.198 9.225-1.064 16.365-2.8 16.365-2.8l-40.18-17.76 52.992-10.902 1.016-1.422z" fill="#F7BD8A"/>
                <path d="m188.425 124.448-68.56-2.134.01 5.574 40.761 17.836s2.622-.586 6.002-1.631c4.435-1.37 10.275-3.497 14.21-5.792 6.932-4.044 7.52-8.755 7.52-8.755l.057-5.098z" fill="#9F9FA0"/>
                <path d="M188.5 123.078c0-2.065-1.385-4.794-3.553-6.793-3.564-3.286-8.635-5.416-8.635-5.416l-56.253 11.44 40.598 17.597s12.634-2.523 21.227-7.982c4.09-2.598 6.615-6.042 6.615-8.846" fill="#C8C9C9"/>
                <path d="M150.308 108.085a.273.273 0 0 0 .1-.527c-13.144-5.22-32.93-8.214-54.282-8.214-7.688 0-15.237.39-22.436 1.158a.274.274 0 0 0-.243.3.27.27 0 0 0 .3.243c7.18-.767 14.71-1.156 22.38-1.156 21.285 0 40.996 2.98 54.08 8.177a.278.278 0 0 0 .101.02" fill="#1E2F4E"/>
                <path d="M150.308 108.144a.346.346 0 0 1-.121-.023c-13.078-5.194-32.782-8.173-54.06-8.173-7.67 0-15.197.389-22.373 1.155a.314.314 0 0 1-.241-.068.33.33 0 0 1-.124-.227.331.331 0 0 1 .294-.364c7.206-.77 14.756-1.159 22.443-1.159 21.36 0 41.152 2.996 54.304 8.22a.326.326 0 0 1 .182.176.33.33 0 0 1-.304.463M96.126 99.83c21.294 0 41.013 2.982 54.103 8.181a.22.22 0 0 0 .279-.121.211.211 0 0 0-.003-.164.21.21 0 0 0-.117-.114c-13.139-5.219-32.917-8.211-54.262-8.211-7.682 0-15.229.39-22.43 1.157a.216.216 0 0 0-.19.238.215.215 0 0 0 .079.147c.044.035.097.05.156.043 7.18-.767 14.712-1.156 22.385-1.156" fill="#1E2F4E"/>
                <path d="M96.126 99.817c21.295 0 41.016 2.982 54.109 8.182a.2.2 0 0 0 .148-.373c-13.138-5.217-32.913-8.21-54.257-8.21-7.684 0-15.23.39-22.429 1.158a.2.2 0 0 0-.134.074.2.2 0 0 0-.043.148.2.2 0 0 0 .074.136c.04.033.091.047.145.041 7.181-.767 14.713-1.156 22.387-1.156m54.182 8.341a.364.364 0 0 1-.126-.023c-13.077-5.194-32.779-8.173-54.056-8.173-7.669 0-15.195.389-22.37 1.155a.324.324 0 0 1-.253-.07.347.347 0 0 1 .179-.617c7.204-.77 14.755-1.16 22.444-1.16 21.361 0 41.157 2.997 54.31 8.22a.347.347 0 0 1-.128.668" fill="#1E2F4E"/>
                <path d="M150.308 108.217a.43.43 0 0 1-.146-.028c-13.071-5.191-32.766-8.168-54.036-8.168-7.668 0-15.192.388-22.364 1.154a.38.38 0 0 1-.295-.083.407.407 0 0 1 .21-.72c7.205-.77 14.759-1.16 22.45-1.16 21.367 0 41.17 2.998 54.331 8.224a.405.405 0 0 1-.15.78m-54.182-8.312c21.284 0 40.994 2.98 54.078 8.176a.288.288 0 0 0 .21-.535c-13.147-5.222-32.934-8.216-54.288-8.216-7.686 0-15.235.39-22.438 1.158a.286.286 0 0 0-.255.318.289.289 0 0 0 .106.196c.063.05.137.07.207.059 7.18-.767 14.708-1.156 22.38-1.156m54.18 8.167a.254.254 0 0 1-.092-.018c-13.086-5.198-32.8-8.178-54.088-8.178-7.675 0-15.206.389-22.38 1.156a.255.255 0 0 1-.284-.23.257.257 0 0 1 .23-.284c7.2-.77 14.748-1.159 22.434-1.159 21.35 0 41.134 2.994 54.278 8.214a.258.258 0 0 1-.098.499m-54.18-8.312c21.302 0 41.031 2.983 54.13 8.186a.145.145 0 0 0 .184-.081.14.14 0 0 0-.08-.184c-13.13-5.214-32.898-8.206-54.234-8.206-7.682 0-15.226.39-22.422 1.158a.14.14 0 0 0-.095.052.139.139 0 0 0-.031.106.14.14 0 0 0 .155.125c7.18-.767 14.714-1.156 22.393-1.156M96.126 142.34c14.72 0 28.758-1.418 40.595-4.101a.274.274 0 0 0 .05-.517L97.14 120.294l52.178-10.715a.272.272 0 1 0-.11-.535l-53.017 10.887a.273.273 0 0 0-.056.517l39.654 17.439c-11.626 2.558-25.317 3.908-39.663 3.908-37.692 0-68.358-9.4-68.358-20.953 0-6.088 8.711-11.88 23.9-15.888a.274.274 0 0 0-.14-.529c-15.447 4.078-24.306 10.061-24.306 16.417 0 5.8 7.207 11.223 20.294 15.27 12.988 4.017 30.251 6.229 48.61 6.229" fill="#1E2F4E"/>
                <path d="M96.126 142.4c-18.365 0-35.634-2.214-48.627-6.233-13.113-4.055-20.335-9.498-20.335-15.325 0-6.384 8.875-12.388 24.35-16.473a.334.334 0 0 1 .405.236.334.334 0 0 1-.235.406c-15.162 4-23.858 9.77-23.858 15.831 0 11.522 30.64 20.895 68.3 20.895 14.252 0 27.896-1.338 39.476-3.868L96.112 120.5a.328.328 0 0 1-.196-.338.33.33 0 0 1 .263-.289l53.018-10.887a.333.333 0 0 1 .392.259.328.328 0 0 1-.05.249.327.327 0 0 1-.209.141l-52 10.678 39.464 17.355a.332.332 0 0 1-.06.627c-11.841 2.684-25.883 4.103-40.608 4.103m-44.53-37.924a.216.216 0 0 0-.053.007c-15.419 4.07-24.262 10.033-24.262 16.36 0 5.772 7.192 11.175 20.252 15.214 12.982 4.015 30.24 6.226 48.593 6.226 14.716 0 28.75-1.417 40.582-4.1a.215.215 0 0 0 .166-.19.213.213 0 0 0-.127-.217l-39.798-17.501.179-.037 52.179-10.715a.213.213 0 0 0 .167-.253.214.214 0 0 0-.253-.167L96.2 119.988a.214.214 0 0 0-.043.407l39.817 17.51-.174.039c-11.624 2.558-25.344 3.91-39.675 3.91-37.725 0-68.416-9.426-68.416-21.012 0-6.118 8.727-11.928 23.944-15.944a.216.216 0 0 0 .152-.263.216.216 0 0 0-.21-.16" fill="#1E2F4E"/>
                <path d="M51.596 104.49a.207.207 0 0 0-.05.006c-15.412 4.068-24.251 10.026-24.251 16.346 0 5.765 7.189 11.163 20.243 15.2 12.98 4.015 30.236 6.226 48.588 6.226 14.715 0 28.747-1.418 40.58-4.1a.2.2 0 0 0 .035-.379l-39.84-17.52.224-.047 52.18-10.714a.199.199 0 0 0 .155-.236.2.2 0 0 0-.237-.156l-53.018 10.886a.2.2 0 0 0-.04.38l39.858 17.528-.219.048c-11.625 2.558-25.346 3.91-39.678 3.91-37.733 0-68.431-9.432-68.431-21.026 0-6.125 8.731-11.94 23.955-15.958a.2.2 0 0 0-.054-.394m44.53 37.924c-18.366 0-35.637-2.214-48.631-6.233-13.12-4.057-20.346-9.504-20.346-15.34 0-6.39 8.88-12.4 24.361-16.486a.348.348 0 0 1 .423.247.348.348 0 0 1-.246.423c-15.155 3.999-23.847 9.764-23.847 15.817 0 11.514 30.634 20.88 68.286 20.88 14.232 0 27.86-1.334 39.429-3.858l-39.45-17.35a.345.345 0 0 1 .07-.655l53.02-10.886a.346.346 0 1 1 .139.677l-51.955 10.67 39.42 17.335a.345.345 0 0 1-.062.655c-11.843 2.684-25.886 4.104-40.61 4.104" fill="#1E2F4E"/>
                <path d="M96.126 142.472c-18.373 0-35.65-2.214-48.649-6.235-13.146-4.066-20.386-9.534-20.386-15.395 0-6.42 8.895-12.45 24.404-16.543a.41.41 0 0 1 .494.287.406.406 0 0 1-.287.495c-15.127 3.992-23.803 9.736-23.803 15.76 0 11.482 30.606 20.823 68.227 20.823 14.15 0 27.716-1.32 39.241-3.82l-39.285-17.276a.4.4 0 0 1-.238-.413.401.401 0 0 1 .32-.352l53.019-10.887a.405.405 0 1 1 .162.792L97.57 120.339l39.253 17.263a.403.403 0 0 1-.073.765c-11.847 2.685-25.894 4.105-40.624 4.105m-44.53-38.07a.27.27 0 0 0-.072.01c-15.453 4.079-24.317 10.067-24.317 16.43 0 5.806 7.211 11.234 20.305 15.283 12.987 4.018 30.252 6.23 48.614 6.23 14.721 0 28.76-1.418 40.598-4.102a.287.287 0 0 0 .052-.544L97.188 120.3l.18-.037 51.953-10.669a.284.284 0 0 0 .183-.123.29.29 0 0 0-.298-.44l-53.018 10.887a.285.285 0 0 0-.229.25.285.285 0 0 0 .17.295l39.613 17.42-.175.038c-11.571 2.526-25.21 3.86-39.44 3.86-37.686 0-68.345-9.392-68.345-20.938 0-6.081 8.708-11.867 23.89-15.874a.289.289 0 0 0 .204-.351.289.289 0 0 0-.28-.215m44.53 37.924c-18.358 0-35.62-2.212-48.605-6.228-13.08-4.045-20.285-9.463-20.285-15.256 0-6.349 8.856-12.327 24.295-16.403a.259.259 0 0 1 .134.501c-15.196 4.01-23.912 9.806-23.912 15.902 0 11.562 30.672 20.967 68.373 20.967 14.33 0 28.047-1.351 39.666-3.908l.044-.01-39.695-17.456a.258.258 0 0 1 .052-.49l53.018-10.886a.249.249 0 0 1 .193.036c.06.039.1.097.113.165a.256.256 0 0 1-.202.305l-52.223 10.724 39.673 17.447c.103.045.164.15.153.26a.257.257 0 0 1-.2.228c-11.838 2.684-25.874 4.102-40.592 4.102m-44.53-37.778a.144.144 0 0 0-.036.005c-15.384 4.06-24.207 9.998-24.207 16.289 0 5.738 7.175 11.116 20.202 15.144C60.53 140 77.78 142.21 96.126 142.21c14.71 0 28.737-1.418 40.566-4.099a.142.142 0 0 0 .026-.269L96.71 120.248l.404-.083 52.179-10.715a.138.138 0 0 0 .09-.06.138.138 0 0 0 .02-.106.136.136 0 0 0-.063-.092.13.13 0 0 0-.105-.019L96.217 120.06a.147.147 0 0 0-.114.126.143.143 0 0 0 .085.143l40.021 17.6-.392.087c-11.627 2.559-25.352 3.911-39.69 3.911-37.766 0-68.49-9.458-68.49-21.084 0-6.153 8.747-11.99 23.998-16.014a.144.144 0 0 0 .1-.174.143.143 0 0 0-.139-.106" fill="#1E2F4E"/>
                <path d="M160.62 140.263c.021 0 .042-.002.062-.007 17.829-4.081 28.055-10.4 28.055-17.338 0-4.459-4.268-8.72-12.342-12.324a.27.27 0 0 0-.165-.018l-7.596 1.54a.283.283 0 0 0-.225.323c.03.148.165.246.31.216l7.533-1.527c7.811 3.502 11.938 7.577 11.938 11.79 0 6.551-10.295 12.824-27.542 16.786l-39.841-17.334 23.682-4.802a.273.273 0 0 0-.108-.535l-24.532 4.974a.273.273 0 0 0-.054.518l40.717 17.715a.274.274 0 0 0 .109.023" fill="#1E2F4E"/>
                <path d="M160.62 140.321a.339.339 0 0 1-.13-.027l-40.72-17.717a.33.33 0 0 1 .067-.628l24.533-4.974c.18-.03.354.084.39.26a.326.326 0 0 1-.049.248.328.328 0 0 1-.21.142l-23.502 4.765 39.655 17.253c17.206-3.955 27.478-10.207 27.478-16.725 0-4.184-4.11-8.24-11.887-11.73l-7.515 1.525a.316.316 0 0 1-.235-.046.335.335 0 0 1-.143-.216.343.343 0 0 1 .27-.393l7.596-1.54a.336.336 0 0 1 .201.023c8.096 3.613 12.376 7.894 12.376 12.377 0 6.967-10.242 13.307-28.1 17.395a.306.306 0 0 1-.074.008m-16.189-23.235a.211.211 0 0 0-.04.004l-24.532 4.973a.217.217 0 0 0-.171.19.216.216 0 0 0 .128.218l40.718 17.716a.237.237 0 0 0 .133.013c17.802-4.075 28.01-10.374 28.01-17.282 0-4.434-4.255-8.677-12.306-12.27a.21.21 0 0 0-.131-.016l-7.596 1.54c-.12.025-.202.142-.179.256.012.06.046.11.093.142.044.028.095.04.148.028l7.552-1.53.017.007c7.832 3.511 11.973 7.606 11.973 11.843 0 6.578-10.313 12.875-27.588 16.843l-.019.004-.017-.008-40.011-17.408.181-.036 23.683-4.802a.213.213 0 0 0 .136-.092.212.212 0 0 0 .031-.161.217.217 0 0 0-.213-.172" fill="#1E2F4E"/>
                <path d="M144.432 117.1a.19.19 0 0 0-.038.004l-24.53 4.974a.201.201 0 0 0-.16.175c-.01.087.039.17.12.205l40.717 17.716a.2.2 0 0 0 .123.011c17.795-4.073 28-10.367 28-17.267 0-4.428-4.253-8.666-12.298-12.257a.194.194 0 0 0-.122-.014l-7.596 1.54c-.11.022-.188.134-.168.238.023.11.118.18.225.16l7.556-1.533.02.01c7.839 3.513 11.982 7.613 11.982 11.856 0 6.586-10.317 12.888-27.6 16.857l-.022.005-.023-.01-40.052-17.426.227-.046 23.681-4.801a.199.199 0 0 0 .157-.236.204.204 0 0 0-.2-.16m16.19 23.235a.35.35 0 0 1-.138-.028l-40.718-17.716a.346.346 0 0 1 .069-.657l24.533-4.974a.35.35 0 0 1 .407.271.345.345 0 0 1-.27.407l-23.456 4.757 39.606 17.232c17.198-3.954 27.463-10.2 27.463-16.71 0-4.178-4.106-8.228-11.873-11.714l-7.51 1.523a.335.335 0 0 1-.396-.273.356.356 0 0 1 .281-.41l7.596-1.54a.337.337 0 0 1 .21.024c8.102 3.616 12.384 7.9 12.384 12.39 0 6.974-10.246 13.32-28.111 17.409a.295.295 0 0 1-.077.009" fill="#1E2F4E"/>
                <g transform="translate(119.499 110.44)">
                    <mask id="6xnw8jyw9i" fill="#fff">
                        <use xlink:href="#uol11avarh"/>
                    </mask>
                    <path d="M41.122 29.955a.418.418 0 0 1-.16-.032L.243 12.206a.404.404 0 0 1 .08-.767l24.533-4.975a.41.41 0 0 1 .476.318.402.402 0 0 1-.316.476L1.742 11.977l39.419 17.15c17.157-3.946 27.4-10.17 27.4-16.648 0-4.15-4.088-8.179-11.823-11.653l-7.492 1.519a.392.392 0 0 1-.464-.318.393.393 0 0 1 .06-.299.42.42 0 0 1 .267-.18l7.596-1.54a.404.404 0 0 1 .246.027c8.124 3.627 12.418 7.93 12.418 12.444 0 7.003-10.263 13.37-28.157 17.465a.346.346 0 0 1-.09.011M24.932 6.574a.39.39 0 0 0-.054.005L.347 11.553a.287.287 0 0 0-.057.547l40.717 17.716c.06.023.13.029.176.015 17.84-4.084 28.07-10.408 28.07-17.352 0-4.465-4.27-8.731-12.35-12.337a.284.284 0 0 0-.175-.02l-7.596 1.54a.307.307 0 0 0-.193.13.28.28 0 0 0-.043.211c.033.16.17.256.328.228L56.75.705l.018.007c7.79 3.495 11.908 7.564 11.908 11.767 0 6.54-10.283 12.807-27.508 16.766l-.019.005-.017-.008L1.357 11.936l.18-.037 23.456-4.756a.285.285 0 0 0 .225-.338.29.29 0 0 0-.286-.231M41.124 29.81a.275.275 0 0 1-.104-.021L.3 12.072a.263.263 0 0 1-.155-.263.263.263 0 0 1 .207-.228l24.53-4.973a.259.259 0 1 1 .103.506L1.261 11.926 41.148 29.28h.004c17.253-3.964 27.554-10.244 27.554-16.801 0-4.218-4.132-8.3-11.946-11.803l-.005-.002-7.538 1.528a.25.25 0 0 1-.293-.204.268.268 0 0 1 .214-.307L56.734.15a.248.248 0 0 1 .158.018c8.066 3.601 12.331 7.858 12.331 12.31 0 6.93-10.222 13.244-28.045 17.324a.204.204 0 0 1-.054.007M24.934 6.72c-.01 0-.018 0-.028.003L.376 11.696a.145.145 0 0 0-.114.125c-.005.06.029.12.087.145l40.716 17.716a.152.152 0 0 0 .086.008c17.767-4.067 27.956-10.34 27.956-17.211 0-4.403-4.241-8.623-12.264-12.204a.135.135 0 0 0-.086-.01l-7.596 1.54c-.079.016-.137.097-.122.17.017.08.08.125.156.113L56.769.552l.038.017c7.86 3.524 12.015 7.642 12.015 11.91 0 6.615-10.334 12.937-27.644 16.913l-.042.01-.04-.017-40.223-17.5.41-.083L24.963 7a.14.14 0 0 0 .111-.167.144.144 0 0 0-.142-.113" fill="#1E2F4E" mask="url(#6xnw8jyw9i)"/>
                </g>
                <path d="M96.035 147.869c14.717 0 28.755-1.419 40.595-4.102a.273.273 0 0 0 .212-.262l.101-5.486a.273.273 0 0 0-.268-.279c-.14.006-.275.118-.278.268l-.097 5.273c-11.757 2.645-25.673 4.042-40.265 4.042-37.693 0-68.358-9.4-68.358-20.953 0-2.944.095-5.532.095-5.558a.273.273 0 0 0-.263-.283c-.15-.017-.277.112-.282.263-.001.026-.096 2.624-.096 5.578 0 5.8 7.207 11.222 20.294 15.27 12.988 4.017 30.252 6.229 48.61 6.229" fill="#1E2F4E"/>
                <path d="M96.035 147.927c-18.365 0-35.634-2.213-48.627-6.232-13.114-4.055-20.335-9.498-20.335-15.325 0-2.956.095-5.556.096-5.58a.343.343 0 0 1 .117-.246.296.296 0 0 1 .23-.073c.084.003.166.04.226.106a.33.33 0 0 1 .089.237l-.001.03c-.022.645-.094 2.952-.094 5.526 0 11.521 30.639 20.895 68.299 20.895 14.562 0 28.465-1.394 40.208-4.03l.096-5.228a.344.344 0 0 1 .334-.325.33.33 0 0 1 .328.338l-.1 5.486a.332.332 0 0 1-.258.317c-11.844 2.685-25.886 4.104-40.608 4.104m-68.55-27.34a.185.185 0 0 0-.123.045.225.225 0 0 0-.077.162c0 .025-.095 2.622-.095 5.576 0 5.772 7.192 11.175 20.252 15.214 12.982 4.015 30.24 6.227 48.593 6.227 14.713 0 28.746-1.418 40.582-4.101a.215.215 0 0 0 .167-.206l.101-5.486a.215.215 0 0 0-.21-.22c-.103.005-.217.09-.22.211l-.098 5.319-.044.01c-11.761 2.645-25.689 4.043-40.278 4.043-37.725 0-68.416-9.426-68.416-21.011 0-2.576.072-4.884.094-5.53l.001-.029a.216.216 0 0 0-.057-.155.211.211 0 0 0-.15-.068l-.021-.001" fill="#1E2F4E"/>
                <path d="M27.486 120.602a.17.17 0 0 0-.114.042.214.214 0 0 0-.073.151c0 .024-.095 2.621-.095 5.574 0 5.765 7.189 11.164 20.242 15.201 12.981 4.015 30.237 6.226 48.589 6.226 14.711 0 28.743-1.418 40.579-4.1.09-.021.154-.1.155-.192l.101-5.487a.2.2 0 0 0-.196-.204c-.095.004-.202.083-.205.197l-.097 5.33-.056.012c-11.763 2.646-25.692 4.044-40.281 4.044-37.733 0-68.43-9.432-68.43-21.027 0-2.575.071-4.884.093-5.53l.001-.028a.199.199 0 0 0-.192-.208l-.021-.001m68.549 27.34c-18.366 0-35.637-2.214-48.632-6.233-13.12-4.057-20.345-9.505-20.345-15.34 0-2.956.095-5.555.096-5.58a.356.356 0 0 1 .123-.256.302.302 0 0 1 .24-.076.343.343 0 0 1 .327.358v.029c-.022.646-.094 2.952-.094 5.525 0 11.515 30.632 20.881 68.285 20.881 14.555 0 28.452-1.393 40.193-4.028l.096-5.215a.358.358 0 0 1 .348-.34.346.346 0 0 1 .344.353l-.1 5.486a.346.346 0 0 1-.27.332c-11.846 2.685-25.889 4.104-40.611 4.104" fill="#1E2F4E"/>
                <path d="M96.035 148c-18.372 0-35.65-2.214-48.649-6.235C34.24 137.7 27 132.231 27 126.37c0-2.947.095-5.56.096-5.583a.413.413 0 0 1 .142-.298.358.358 0 0 1 .288-.09.402.402 0 0 1 .377.417v.03c-.017.454-.095 2.856-.095 5.524 0 11.481 30.607 20.822 68.227 20.822 14.531 0 28.41-1.389 40.136-4.017l.095-5.169a.417.417 0 0 1 .405-.397.406.406 0 0 1 .403.413l-.1 5.486a.404.404 0 0 1-.316.387C124.808 146.58 110.761 148 96.035 148zM27.48 120.513a.246.246 0 0 0-.166.064.295.295 0 0 0-.103.214c0 .024-.095 2.634-.095 5.579 0 5.806 7.21 11.234 20.304 15.284 12.988 4.017 30.253 6.23 48.614 6.23 14.718 0 28.757-1.419 40.597-4.103a.287.287 0 0 0 .225-.275l.1-5.487a.287.287 0 0 0-.285-.293.299.299 0 0 0-.29.283l-.096 5.26-.045.01c-11.745 2.636-25.648 4.03-40.206 4.03-37.685 0-68.344-9.393-68.344-20.94 0-2.669.079-5.072.094-5.527l.001-.029a.284.284 0 0 0-.27-.298.288.288 0 0 0-.035-.002zm68.554 27.342c-18.358 0-35.62-2.213-48.606-6.23-13.08-4.044-20.284-9.463-20.284-15.255 0-2.976.095-5.555.096-5.577a.273.273 0 0 1 .093-.194.215.215 0 0 1 .181-.054.25.25 0 0 1 .174.081.26.26 0 0 1 .068.187v.027c-.022.647-.095 2.956-.095 5.53 0 11.562 30.672 20.968 68.373 20.968 14.584 0 28.509-1.398 40.269-4.042l.01-.003.097-5.284c.003-.147.137-.25.261-.254a.26.26 0 0 1 .257.262l-.102 5.488a.256.256 0 0 1-.2.247c-11.84 2.684-25.877 4.103-40.592 4.103zm-68.55-27.195a.111.111 0 0 0-.075.028.155.155 0 0 0-.052.11c-.001.022-.096 2.608-.096 5.572 0 5.737 7.175 11.115 20.202 15.144 12.975 4.014 30.224 6.224 48.57 6.224 14.707 0 28.735-1.418 40.567-4.099a.141.141 0 0 0 .11-.136l.101-5.488a.139.139 0 0 0-.04-.1.14.14 0 0 0-.099-.044c-.065.003-.144.061-.146.14l-.098 5.375-.1.023c-11.768 2.647-25.701 4.045-40.294 4.045-37.765 0-68.49-9.458-68.49-21.084 0-2.575.073-4.887.095-5.534l.001-.027a.144.144 0 0 0-.038-.104.136.136 0 0 0-.098-.045h-.02zM104.967 124.19a.253.253 0 0 0 .055-.006l40.53-8.322a.278.278 0 0 0 .219-.323.266.266 0 0 0-.315-.215l-40.543 8.325a.272.272 0 0 0 .054.54" fill="#1E2F4E"/>
                <path d="M104.967 124.248a.332.332 0 0 1-.066-.656l40.543-8.326a.322.322 0 0 1 .384.261.339.339 0 0 1-.264.392l-40.53 8.322a.299.299 0 0 1-.067.007m40.543-8.872a.196.196 0 0 0-.042.005l-40.544 8.325a.213.213 0 0 0-.166.253.214.214 0 0 0 .251.168l40.532-8.323a.22.22 0 0 0 .173-.254.216.216 0 0 0-.092-.14.205.205 0 0 0-.112-.034" fill="#1E2F4E"/>
                <path d="M145.51 115.39a.202.202 0 0 0-.04.005l-40.543 8.325a.198.198 0 0 0-.155.236.2.2 0 0 0 .235.157l40.53-8.323a.206.206 0 0 0 .162-.237.2.2 0 0 0-.085-.13.189.189 0 0 0-.105-.032m-40.542 8.871a.347.347 0 0 1-.069-.684l40.543-8.325a.333.333 0 0 1 .254.048.349.349 0 0 1-.128.631l-40.53 8.323a.327.327 0 0 1-.07.007" fill="#1E2F4E"/>
                <path d="M104.967 124.32a.405.405 0 0 1-.337-.627.4.4 0 0 1 .257-.172l40.543-8.326a.387.387 0 0 1 .297.058.405.405 0 0 1 .113.56.41.41 0 0 1-.262.177l-40.53 8.322a.35.35 0 0 1-.08.009m40.543-9.017a.278.278 0 0 0-.058.006l-40.543 8.325a.283.283 0 0 0-.224.339.287.287 0 0 0 .337.224l40.532-8.323a.293.293 0 0 0 .188-.126.281.281 0 0 0 .042-.213.288.288 0 0 0-.123-.186.267.267 0 0 0-.151-.046m-40.544 8.871a.257.257 0 0 1-.252-.208.254.254 0 0 1 .036-.192.251.251 0 0 1 .164-.111l40.544-8.326a.257.257 0 0 1 .187.036.26.26 0 0 1 .11.168.266.266 0 0 1-.206.306l-40.531 8.322a.246.246 0 0 1-.052.005m40.543-8.726a.124.124 0 0 0-.028.003l-40.544 8.326a.134.134 0 0 0-.088.06.138.138 0 0 0-.021.106c.014.076.096.128.166.111l40.531-8.322a.148.148 0 0 0 .116-.168.145.145 0 0 0-.06-.094.136.136 0 0 0-.072-.022M160.615 145.933c.02 0 .041-.002.061-.007 17.538-4.015 27.733-10.28 27.97-17.19.034-1.008.083-6.04.083-6.09a.273.273 0 0 0-.27-.276h-.003c-.15 0-.272.12-.273.27 0 .05-.05 5.075-.084 6.077-.227 6.632-10.233 12.7-27.458 16.657l-40.47-17.61-.002-5.474a.273.273 0 0 0-.547 0l.003 5.654c0 .108.064.206.164.25l40.717 17.716a.274.274 0 0 0 .109.023" fill="#1E2F4E"/>
                <path d="M160.615 145.991a.323.323 0 0 1-.132-.028l-40.718-17.716a.33.33 0 0 1-.198-.303l-.003-5.654a.331.331 0 1 1 .663 0l.002 5.437 40.418 17.586c17.183-3.95 27.168-9.999 27.394-16.598.033-.953.079-5.546.084-6.066a.334.334 0 0 1 .331-.337.332.332 0 0 1 .331.334c-.005.528-.05 5.128-.083 6.092-.238 6.938-10.45 13.223-28.015 17.245a.304.304 0 0 1-.074.008m-40.72-23.916a.215.215 0 0 0-.214.215l.002 5.654c0 .085.051.162.13.197l40.716 17.716a.22.22 0 0 0 .134.013c17.51-4.01 27.689-10.255 27.924-17.136.033-.963.079-5.561.084-6.082a.215.215 0 1 0-.43-.011c-.005.53-.05 5.123-.083 6.078-.228 6.659-10.253 12.75-27.504 16.711l-.018.005-.018-.008-40.506-17.624-.002-5.513a.215.215 0 0 0-.215-.215" fill="#1E2F4E"/>
                <path d="M119.895 122.09a.2.2 0 0 0-.2.2l.003 5.653a.2.2 0 0 0 .12.184l40.717 17.717c.04.017.087.02.125.011 17.504-4.007 27.678-10.248 27.913-17.122.033-.984.082-5.877.084-6.084a.204.204 0 0 0-.058-.146.2.2 0 0 0-.14-.06.202.202 0 0 0-.204.198c-.004.532-.05 5.128-.083 6.079-.228 6.665-10.257 12.76-27.515 16.724l-.023.006-.022-.01-40.514-17.627-.002-5.524a.2.2 0 0 0-.2-.2m40.719 23.917a.344.344 0 0 1-.139-.03l-40.716-17.715a.347.347 0 0 1-.208-.318l-.003-5.654a.346.346 0 0 1 .692 0l.002 5.428 40.405 17.58c17.175-3.948 27.153-9.99 27.379-16.583.032-.948.078-5.542.083-6.063a.35.35 0 0 1 .346-.354.347.347 0 0 1 .346.349c-.002.212-.05 5.106-.084 6.092-.237 6.945-10.452 13.236-28.026 17.259a.314.314 0 0 1-.077.009" fill="#1E2F4E"/>
                <path d="M160.615 146.064a.407.407 0 0 1-.161-.033l-40.717-17.717a.404.404 0 0 1-.243-.37l-.003-5.654a.404.404 0 0 1 .808 0l.003 5.389 40.351 17.557c17.136-3.942 27.091-9.964 27.316-16.523.013-.398.038-1.74.08-5.864l.003-.199a.407.407 0 0 1 .404-.411.407.407 0 0 1 .404.407c0 .05-.05 5.094-.083 6.094-.239 6.974-10.47 13.284-28.072 17.313a.332.332 0 0 1-.09.01m-40.72-24.06a.288.288 0 0 0-.287.287l.002 5.654c0 .114.068.218.173.264l40.716 17.716c.06.025.13.028.178.017 17.548-4.018 27.747-10.288 27.983-17.205.034-1 .084-6.04.084-6.09a.285.285 0 0 0-.083-.205.291.291 0 0 0-.205-.086c-.16 0-.286.13-.288.296l-.002.2c-.034 3.312-.061 5.285-.081 5.866-.226 6.619-10.222 12.683-27.424 16.637l-.019.005-.018-.009-40.439-17.595-.002-5.465a.288.288 0 0 0-.288-.288m40.721 23.917a.26.26 0 0 1-.104-.022l-40.717-17.716a.257.257 0 0 1-.156-.237l-.002-5.654a.259.259 0 0 1 .517 0l.002 5.485 40.484 17.614.004-.001c17.231-3.957 27.243-10.033 27.47-16.67.033-.947.078-5.467.083-6.077a.26.26 0 0 1 .443-.18c.05.052.075.116.075.188 0 .05-.05 5.087-.084 6.086-.236 6.903-10.426 13.163-27.958 17.177a.235.235 0 0 1-.057.007m-40.721-23.77a.142.142 0 0 0-.141.14l.002 5.655c0 .056.034.108.085.13l40.718 17.716c.026.012.06.015.088.008 17.476-4 27.633-10.22 27.867-17.067.034-.998.084-6.033.084-6.083a.145.145 0 0 0-.04-.105.141.141 0 0 0-.1-.042.144.144 0 0 0-.144.14c-.006.61-.05 5.133-.084 6.08-.229 6.694-10.274 12.81-27.56 16.78l-.042.01-.04-.018-40.548-17.642-.002-5.561a.142.142 0 0 0-.143-.142" fill="#1E2F4E"/>
                <path d="M160.607 145.69c.15 0 .272-.121.273-.271l.032-5.32a.273.273 0 0 0-.27-.275h-.002a.273.273 0 0 0-.273.272l-.033 5.32a.273.273 0 0 0 .271.274h.002z" fill="#1E2F4E"/>
                <path d="M160.752 145.748h-.002a.595.595 0 0 1-.337-.098c-.09-.063-.138-.147-.138-.235l.048-5.32c0-.182.214-.33.476-.33.13.001.25.037.339.1.089.063.138.146.137.235l-.046 5.319c-.002.182-.216.33-.477.33m.049-5.867c-.171 0-.31.096-.31.214l-.048 5.32c0 .057.03.11.089.152a.386.386 0 0 0 .218.064l.002.058v-.058c.17 0 .307-.096.309-.214l.046-5.32c.001-.057-.03-.11-.088-.151a.38.38 0 0 0-.218-.065" fill="#1E2F4E"/>
                <path d="M160.785 139.897c-.153 0-.277.09-.278.199l-.045 5.32c0 .053.027.103.08.142.051.038.12.059.195.06l.001.072v-.073c.151 0 .275-.09.277-.199l.045-5.32c0-.053-.027-.104-.08-.142a.336.336 0 0 0-.195-.06m-.047 5.867h-.002a.571.571 0 0 1-.338-.104c-.09-.065-.138-.152-.137-.245l.045-5.319c.001-.19.215-.344.477-.344.131 0 .25.037.34.103.09.066.139.153.138.245l-.045 5.32c-.002.19-.217.344-.478.344" fill="#1E2F4E"/>
                <path d="M160.683 145.821h-.002a.527.527 0 0 1-.34-.12.37.37 0 0 1-.138-.287l.039-5.32c0-.22.216-.401.48-.401a.53.53 0 0 1 .343.12c.09.077.138.179.138.287l-.039 5.32c-.001.22-.217.401-.48.401zm.038-6.011c-.187 0-.34.128-.34.285l-.04 5.32a.261.261 0 0 0 .099.203c.063.055.15.086.242.086l.001.059v-.059c.188 0 .342-.128.343-.285l.038-5.32a.265.265 0 0 0-.098-.204.376.376 0 0 0-.245-.085zm-.107 5.88v-.021a.323.323 0 0 1-.15-.07.237.237 0 0 1-.088-.184l.04-5.32c0-.141.138-.257.307-.257.084 0 .16.029.219.078a.238.238 0 0 1 .088.183l-.04 5.32c0 .121-.102.223-.238.25v.02l-.138.001zm.069-.131c.093 0 .168-.063.169-.141l.04-5.32a.13.13 0 0 0-.049-.1.19.19 0 0 0-.12-.043c-.093 0-.169.063-.17.14l-.039 5.32c0 .039.017.074.05.101a.184.184 0 0 0 .119.043zM51.697 104.657s13.768-3.133 22.51-3.934" fill="#1E2F4E"/>
                <path d="m51.71 104.713-.027-.113c.138-.032 13.873-3.143 22.52-3.935l.01.116c-8.639.792-22.366 3.901-22.503 3.932" fill="#1E2F4E"/>
                <path d="M51.696 104.99a.333.333 0 0 1-.073-.657c.138-.031 13.89-3.147 22.554-3.94a.332.332 0 1 1 .061.66c-8.62.79-22.33 3.897-22.468 3.928a.306.306 0 0 1-.074.008" fill="#1E2F4E"/>
                <path d="M51.696 105.048a.39.39 0 0 1-.086-.771c.137-.031 13.883-3.148 22.562-3.943a.393.393 0 0 1 .336.639.39.39 0 0 1-.265.139c-8.241.755-21.014 3.6-22.444 3.922l-.016.003a.321.321 0 0 1-.087.01m22.51-4.598-.024.001c-8.67.795-22.41 3.909-22.546 3.94a.274.274 0 0 0 .12.534l.018-.004c1.43-.322 14.21-3.168 22.459-3.925a.271.271 0 0 0 .247-.297.275.275 0 0 0-.273-.249" fill="#1E2F4E"/>
                <path d="M176.713 72.842c-.284-.345-.858-1.231-2.235-1.605-1.971-.535-4.95-.521-7.111-.48-1.458.026-2.45-.102-2.86.256-.737.644-1.417 1.43-2.043 2.317-.223.317 1.883 1.737 1.883 1.737s1.072.05 2.418.17c1.316.116 2.82.525 2.82.525s-1.553 1.782-3.587 2.965c-2.033 1.183-4.547 1.766-4.547 1.766l-.975-1.27-6.139.85-.573.543s-1.758-.303-4.042-1.395c-2.283-1.092-5.09-2.973-5.09-2.973s2.26-.514 4.098-1.086c.793-.247 2.03-.592 2.03-.592s.227-1.646.038-2.526c-.15-.697-.47-1.046-.6-1.083-.792-.223-3.321.182-5.886.535-2.397.33-4.822.577-5.943 1.321-1.42.944-.469 2.873-.274 3.392.452 1.206 2.59 3.71 4.87 5.872 2.74 2.598 5.65 4.787 5.65 4.787l1.707 17.18s-.345 1.186.207 2.279c.56 1.107 2.03 2.124 4.358 2.536 2.86.505 7.557-.864 10.208-2.243 1.637-.852 2.072-1.917 2.072-1.917s-.05-1.041-.145-1.886c-.083-.74-.216-1.19-.195-2.566.032-2.294.41-5.691.864-8.411.244-1.46.348-3.57.822-4.791.451-1.164 1.027-1.668 1.745-2.475.958-1.078 2.104-2.378 2.912-3.447 2.821-3.728 4.722-6.858 3.543-8.285" fill="#FEFEFE"/>
                <path d="m164.68 69.282-.8-.117-1.71-.75s-.688-.695-1.732-1.087c-.577-.216-.817-.267-2.079-.464-1.261-.197-1.743.204-2.287.378-.586.186-1.083.078-1.083.078l-.966 2.344 4.06 8.099 2.892.75s.25-.952.894-1.661c.582-.643 1.169-1.13 1.169-1.13l.795-5.763.848-.677z" fill="#4F4862"/>
                <path d="m163.768 68.857-1.199-1.039s-.814.109-.078.91c.262.286.184.638.184.638l-1.124 1.195s-.676.496-.89 1.24c-.176.619-.027 1.35-.356 1.175-.277-.147-.492-.16-.84-.832-.29-.561-.219-.882-.219-.882s-.352-.272-.683-.796c-.46-.728-.144-1.859-.933-1.784-.789.076-3.166.954-3.166.954l-.067-.627.428-1.116-1.022.183s-.284 1.64-1.108 2.447c-.824.808-2.188.784-2.188.784s.255.536.347 1.246c.093.71.023 1.592.023 1.592l1.756-.327s-.072 1.592.15 2.505c.62 2.55 1.478 2.08 1.478 2.08l.241 2.532 1.09 1.549s.005 1.147.272 2.144c.268.997.798 1.843.798 1.843l.454-1.519.4-2.238s.998-.681 1.693-1.33c.694-.65 1.085-1.268 1.085-1.268l.413-2.9s.834-.189 1.226-.628c.39-.439.338-1.128.338-1.128s.942.047 1.33-.155c.388-.204.221-.657.221-.657s-.159-.68-.076-1.472c.083-.792.39-1.98.39-1.98l.238-1.386-.69.045.084-.998z" fill="#FAD9C7"/>
                <path d="M156.65 75.05c0-.477-.574-.674-1.239-.674-.309 0-.957-.214-1.257-.053a.87.87 0 0 0-.44.888c.095.579.493.363 1.158.363.314 0 1.366.628 1.628.487.293-.157.15-.76.15-1.012" fill="#CD6170"/>
                <path d="M156.553 75.194c0-.18-.385-.217-.994-.1-.61.115-.712.327-.712.327s.915.642 1.398.606c.484-.037.308-.655.308-.833" fill="#CD6170"/>
                <path d="M166.988 105.133s-1.157 1.339-3.197 2.18c-1.926.794-4.54 1.41-6.532 1.596-4.103.387-6.543-2.123-6.543-2.123s-5.094 7.24-7.336 12.27c-1.317 2.956-2.157 4.729-2.23 6.04-.053.919.48 1.742.6 2.025.35.827 2.69 2.077 4.564 1.47 2.372-.767 5.273-3.416 7.311-5.009 1.712-1.338 2.733-1.91 2.733-1.91s-.582 3.582-.73 6.587c-.107 2.22-.043 4.083 1.182 4.973 1.034.752 2.232.87 3.345.732 2.587-.318 4.667-3.479 6.285-6.171 1.02-1.696 2.166-3.439 2.166-3.439s.075-1.352-.258-2.617c-.332-1.266-1.072-2.445-1.072-2.445s1.22-4.676 1.072-6.864c-.262-3.92-1.36-7.295-1.36-7.295" fill="#3988B7"/>
                <path d="M176.992 120.504c-.64-.547-2.521-1.099-3.992-1.558-1.448-.452-2.367-1.096-3.362-1.346-.851-.214-1.892-.068-1.892-.068l-1.053 3.447s.635.211 1.095.825c.459.614.742 1.63.742 1.63s1.891-.305 3.88.289c2.56.764 4.334.908 4.334.908s.936-.24 1.208-1.16c.238-.805-.116-2.247-.96-2.967" fill="#4F4862"/>
                <path d="M162.135 71.674h.008l2.049-.053a.274.274 0 0 0-.013-.546l-2.05.052a.274.274 0 0 0 .006.547" fill="#1E2F4E"/>
                <path d="M162.867 75.715c.966 0 1.227-.542 1.296-.788a.273.273 0 1 0-.526-.147c-.109.39-.645.406-.954.382-.72-.057-1.257-.182-1.527-.609-.151-.239-.16-.498-.173-.798-.006-.156-.012-.317-.039-.486l-.037-.226c-.074-.44-.138-.82-.008-1.208.077-.229.352-.526.795-.992l.122-.129c1.018-1.064 1.323-1.471 1.119-1.786a2.12 2.12 0 0 0-.176-.215c-.086-.097-.347-.39-.335-.494.062-.05.239.088.483.29.135.11.289.237.46.35.18.12.18.242-.004.771-.07.2-.148.427-.19.671a.273.273 0 1 0 .538.093c.035-.2.103-.396.168-.585.16-.458.357-1.03-.21-1.405a5.087 5.087 0 0 1-.415-.317c-.349-.287-.782-.643-1.194-.27-.458.415.048.985.29 1.258.029.032.055.06.077.087-.125.254-.734.891-1.005 1.175l-.125.13c-.508.536-.802.855-.916 1.195-.173.516-.091 1.002-.012 1.472l.036.219c.021.138.027.276.033.423.012.331.027.707.257 1.069.414.655 1.18.8 1.946.86.079.007.154.01.226.01" fill="#1E2F4E"/>
                <path d="M163.803 74.908a.273.273 0 0 0 .04-.544c-.266-.039-.605-.054-.933-.07a9.588 9.588 0 0 1-.852-.06.273.273 0 1 0-.078.54c.258.038.587.052.906.067a9.666 9.666 0 0 1 .917.067M163.805 71.538a.274.274 0 0 0 .221-.111c.328-.447.71-1.047.661-1.368-.025-.168-.135-.332-.337-.5a.274.274 0 0 0-.385.035.274.274 0 0 0 .035.385c.13.108.147.164.147.164-.008.107-.27.564-.562.96a.273.273 0 0 0 .22.435M163.395 130.19a.272.272 0 0 0 .252-.167c.187-.446 4.578-10.966 4.953-16.053.246-3.332-1.014-8.008-1.27-8.91a.273.273 0 1 0-.525.149c.692 2.452 1.436 6.208 1.25 8.72-.368 5-4.866 15.775-4.912 15.883a.274.274 0 0 0 .252.379" fill="#1E2F4E"/>
                <path d="M159.43 134.305c.107 0 .214-.004.323-.01 1.511-.101 2.99-.918 4.06-2.242 1.234-1.53 2.558-3.717 3.526-5.314.513-.848.918-1.518 1.141-1.81.42-.55.474-1.497.136-2.411-.338-.918-.968-1.539-1.727-1.703a.274.274 0 0 0-.115.534c.564.122 1.061.63 1.33 1.357.265.721.242 1.5-.058 1.892-.24.316-.653.997-1.175 1.858-.959 1.584-2.272 3.752-3.484 5.254-.973 1.206-2.31 1.949-3.67 2.04-1.213.08-2.354-.354-3.303-1.254-1.32-1.253.32-12.082 1.57-17.536.138-.604 2.106-1.243 3.459-1.504a.273.273 0 1 0-.104-.536c-.602.115-3.62.753-3.887 1.918-.601 2.62-3.262 16.3-1.413 18.054.977.928 2.144 1.413 3.39 1.413M148.301 125.405c.081 0 .16-.036.215-.103 2.004-2.534 3.391-3.82 5.148-5.448.806-.748 1.72-1.595 2.806-2.668a.273.273 0 0 0-.384-.388c-1.08 1.066-1.99 1.91-2.793 2.655-1.774 1.644-3.176 2.943-5.205 5.51a.273.273 0 0 0 .213.442" fill="#1E2F4E"/>
                <path d="M145.41 129.025c1.553 0 3.39-1.099 4.283-1.797.927-.723 1.731-1.407 2.508-2.067 1.38-1.172 2.684-2.279 4.43-3.399a.273.273 0 1 0-.296-.46c-1.775 1.14-3.093 2.258-4.487 3.443-.773.656-1.573 1.336-2.49 2.053-.84.655-2.81 1.845-4.254 1.662-2.571-.323-3.764-1.487-3.647-3.558.141-2.512 5.89-13.36 9.463-17.857a.274.274 0 0 0-.428-.34c-3.417 4.301-9.42 15.33-9.58 18.166-.093 1.637.548 3.681 4.124 4.132.122.015.247.022.373.022M156.988 113.754c.012 0 .024 0 .036-.003a.273.273 0 0 0 .235-.306c-.241-1.811-.402-4.174-.403-4.198a.274.274 0 0 0-.546.037c.002.024.164 2.404.407 4.233a.273.273 0 0 0 .27.237M176.379 124.981c.494 0 .931-.117 1.227-.454.252-.286.35-.705.285-1.21-.13-1.014-.874-2.19-1.77-2.795-.93-.628-1.944-.863-2.925-1.09-.38-.088-.74-.171-1.087-.275-.347-.105-.742-.275-1.16-.456-1.112-.48-2.372-1.025-3.47-.654a.31.31 0 1 0 .199.586c.872-.295 2.016.2 3.026.636.434.188.846.366 1.226.48.367.11.753.2 1.127.287.925.213 1.882.434 2.717.999.75.507 1.396 1.521 1.504 2.36.028.227.028.535-.137.723-.425.485-1.692.144-2.618-.104-.2-.053-.391-.104-.562-.144-.206-.05-.462-.13-.758-.222-1.178-.369-2.957-.925-4.66-.439a.31.31 0 0 0 .17.595c1.524-.435 3.198.089 4.305.435.307.096.573.179.8.233.166.039.35.088.545.14.644.173 1.377.37 2.016.37" fill="#1E2F4E"/>
                <path d="M177.328 124.665a.306.306 0 0 0 .166-.05c.586-.374.9-.928.909-1.6.014-1.163-.92-2.495-1.833-3.112-.93-.628-1.944-.863-2.925-1.09a17.09 17.09 0 0 1-1.087-.276c-.323-.097-.762-.32-1.226-.556-.755-.383-1.536-.78-2.196-.855-1.21-.133-1.559.254-1.637.376a.31.31 0 0 0 .505.357c.026-.023.265-.208 1.063-.117.549.061 1.312.449 1.984.791.49.249.952.484 1.33.597.365.11.751.2 1.125.286.925.214 1.882.436 2.717 1 .76.513 1.573 1.65 1.56 2.59-.005.468-.209.824-.622 1.088a.31.31 0 0 0 .167.57M160.522 77.48c.777 0 1.458-.333 1.782-.89a1.59 1.59 0 0 0 .17-1.202.272.272 0 0 0-.336-.19.272.272 0 0 0-.19.335c.068.249.025.54-.115.782-.254.435-.877.678-1.55.607a.273.273 0 0 0-.057.543c.1.01.199.016.296.016" fill="#1E2F4E"/>
                <path d="M160.683 76.226a.266.266 0 0 0 .099-.018c.002 0 .207-.08.404-.096a.273.273 0 0 0 .25-.295.278.278 0 0 0-.295-.249 2.225 2.225 0 0 0-.557.132.272.272 0 0 0 .1.526M160.36 80.118c.151 0 .274-.122.274-.273 0-.921.128-1.812.13-1.82a.273.273 0 0 0-.542-.079c-.005.038-.133.938-.134 1.899 0 .15.122.273.272.273zM155.271 78.764c1.077 0 2.171-.247 2.378-.296a.272.272 0 1 0-.126-.531c-1.278.302-3.469.512-3.91-.213-.664-1.087-.793-2.667-.768-3.35.024-.678.375-1.219.585-1.542l.086-.134c.172-.281.191-.542.21-.795.018-.232.036-.472.177-.774a5.118 5.118 0 0 1 1.063-1.467c.283-.279 1.079-.566 1.685-.682a.273.273 0 0 0-.102-.537c-.483.093-1.516.385-1.966.83a5.658 5.658 0 0 0-1.175 1.625c-.183.393-.207.71-.226.964-.017.222-.029.382-.132.55a4.546 4.546 0 0 1-.078.122c-.225.347-.643.991-.673 1.82-.028.795.118 2.459.847 3.655.358.587 1.236.755 2.125.755" fill="#1E2F4E"/>
                <path d="M154.496 81.147a.274.274 0 0 0 .272-.303c-.06-.528-.113-2.35-.113-2.367a.268.268 0 0 0-.281-.266.273.273 0 0 0-.265.282c.002.075.054 1.861.115 2.411.016.14.135.243.272.243M155.493 76.088c-.183-.106-.372-.216-.584-.28-.189-.056-.372-.03-.55-.005-.23.033-.492.07-.695-.13-.26-.255-.28-.995-.038-1.388.19-.307.51-.412.88-.287.302.101.621.132.929.16.484.046.94.09 1.243.413.256.274.355.73.34 1.039-.013.24-.09.428-.223.543a.798.798 0 0 1-.536.218c-.278 0-.54-.152-.766-.283m.785-1.145c-.16-.171-.5-.203-.894-.24-.324-.031-.69-.066-1.052-.188-.157-.053-.199 0-.224.031-.146.187-.113.65-.069.733.035.012.16-.005.244-.017.202-.03.48-.068.783.023.274.082.501.214.701.33.395.23.505.27.667.129.08-.094.044-.586-.156-.8M155.038 73.519a.272.272 0 0 0 .238-.408c-.246-.433-.213-.545-.211-.55.024-.026.16-.064.25-.088.067-.019.136-.039.204-.062.176-.06.713-.242.74-1.092a.273.273 0 0 0-.264-.282c-.15-.016-.277.113-.282.264-.015.472-.22.542-.37.593-.059.02-.118.036-.174.052-.222.062-.499.139-.61.407-.1.245-.029.552.242 1.027.05.089.142.139.237.139M158.564 72.699a.272.272 0 0 0 .171-.486 1.404 1.404 0 0 0-1.293-.262.272.272 0 1 0 .183.515.857.857 0 0 1 .769.173c.05.04.11.06.17.06" fill="#1E2F4E"/>
                <path d="M155.098 72.195a.273.273 0 0 0 .205-.453c-.326-.372-.816-.279-1.054-.165a.273.273 0 0 0 .235.493c.002 0 .273-.123.408.032.054.062.13.093.206.093M159.03 71.403a.273.273 0 0 0 .005-.547c-1-.017-1.124-.14-1.394-.41a.272.272 0 1 0-.386.386c.42.419.718.552 1.77.57h.005zM155.155 70.748c.25 0 .496-.077.665-.336a.273.273 0 0 0-.458-.298c-.093.144-.346.09-.69 0-.166-.043-.323-.084-.463-.084a.273.273 0 1 0 0 .546c.07 0 .199.033.324.066.18.048.403.106.622.106M156.167 109.228h.142c4.276-.07 9.002-1.946 10.57-3.588.387-.406.579-.794.567-1.155-.017-.583-.09-1.087-.167-1.62-.144-.997-.308-2.128-.18-4.205.2-3.252 1.386-10.791 1.685-11.492.461-1.078 1.806-2.642 3.107-4.154.818-.95 1.664-1.934 2.291-2.799 1.291-1.777 2.867-4.296 3.046-6.196.156-1.653-1.337-2.934-3.802-3.264-2.35-.314-7.688-.257-8.683-.087-.792.135-1.311 1.748-1.335 2.844-.021 1.004.331 1.658.969 1.796.352.076.824.109 1.369.146 1.022.07 2.295.156 3.71.561a.274.274 0 0 0 .15-.525c-1.47-.42-2.83-.513-3.823-.581-.524-.036-.977-.067-1.29-.135-.509-.11-.546-.91-.539-1.25.025-1.159.567-2.264.881-2.318.838-.144 6.14-.228 8.518.09 2.15.288 3.457 1.336 3.332 2.672-.132 1.386-1.177 3.491-2.945 5.927-.614.847-1.452 1.82-2.263 2.763-1.328 1.544-2.701 3.14-3.195 4.296-.353.824-1.533 8.515-1.728 11.673-.132 2.133.036 3.293.184 4.316.075.518.146 1.007.162 1.558.007.206-.137.47-.417.762-1.49 1.56-6.16 3.354-10.182 3.418-3.003.046-5.436-1.547-5.766-3.008-.037-.162-.027-.377-.013-.674.021-.454.052-1.14-.06-2.214-.085-.82-.192-1.779-.31-2.84-.449-4.01-1.062-9.502-1.296-14.55a.273.273 0 1 0-.545.025c.234 5.066.848 10.568 1.298 14.585.118 1.06.225 2.017.31 2.837.108 1.033.079 1.669.058 2.133-.016.339-.028.584.025.817.379 1.677 2.935 3.436 6.165 3.436" fill="#1E2F4E"/>
                <path d="m161.418 80.799.026-.001c.13-.012 3.202-.318 6.138-2.78 1.288-1.08 2.309-2.127 3.13-2.967.575-.59 1.03-1.057 1.364-1.312a.273.273 0 0 0-.331-.434c-.365.279-.833.758-1.425 1.365-.812.831-1.822 1.866-3.089 2.929-2.799 2.348-5.808 2.652-5.837 2.655a.273.273 0 0 0 .024.545M153.666 80.818a.273.273 0 0 0 .035-.544c-2.306-.3-5.66-1.953-10.253-5.054a.273.273 0 1 0-.305.453c4.665 3.149 8.095 4.831 10.487 5.143a.274.274 0 0 0 .036.002" fill="#1E2F4E"/>
                <path d="M148.596 87.24a.274.274 0 0 0 .169-.488c-.096-.075-9.6-7.556-10.786-11.582-.201-.685-.178-1.212.074-1.613.51-.814 1.956-1.113 3.52-1.372 2.827-.468 6.406-.794 7.752-.917.31-.028.515-.047.587-.056.053-.006.195-.024.353.233.468.752.402 2.52.253 2.864-2.144.728-5.878 1.642-5.915 1.651a.273.273 0 0 0 .13.53c.038-.008 3.868-.946 6.024-1.686.56-.192.447-2.106.277-2.847-.279-1.212-.865-1.326-1.189-1.287-.07.009-.269.027-.57.054-1.351.124-4.944.451-7.791.922-1.692.28-3.263.615-3.895 1.622-.338.54-.382 1.213-.134 2.057 1.236 4.192 10.576 11.546 10.973 11.857.05.04.11.058.168.058" fill="#1E2F4E"/>
                <path d="M150.941 74.404c.03 0 .059-.005.088-.014.777-.265 1.538-.343 1.545-.344.15-.015.26-.149.245-.299a.269.269 0 0 0-.299-.244 8.3 8.3 0 0 0-1.667.37.273.273 0 0 0 .088.531M150.583 71.577h.024c.297-.027 1.42-.304 2.084-.643.37-.189.65-.814 1.004-1.676.051-.125.1-.242.144-.345.245-.567.336-.705 1.187-.838a.273.273 0 1 0-.084-.54c-1.019.16-1.282.417-1.604 1.161-.046.106-.095.226-.148.354-.185.45-.53 1.286-.748 1.398-.59.301-1.66.565-1.882.585a.273.273 0 0 0 .023.544M156.34 108.228a.273.273 0 0 0 .269-.323c-.45-2.406-.389-3.61-.295-5.431.06-1.173.135-2.632.082-4.817-.144-6.04.113-10.063.429-10.782.568-1.295.674-2.294.75-3.024.03-.282.056-.525.103-.716.066-.264.359-.475.766-.767.699-.502 1.657-1.19 2.414-2.794a.273.273 0 0 0-.494-.232c-.697 1.475-1.588 2.115-2.24 2.583-.482.346-.863.62-.976 1.08-.056.227-.083.487-.115.789-.073.694-.174 1.644-.708 2.861-.412.94-.607 5.469-.475 11.014a57.71 57.71 0 0 1-.082 4.777c-.091 1.794-.158 3.09.304 5.56.025.13.14.222.268.222" fill="#1E2F4E"/>
                <path d="M159.608 84.76a.413.413 0 0 0 .174-.042c.57-.264 1.74-3.455 1.808-3.813.092-.492-.23-.984-.57-1.507a9.702 9.702 0 0 1-.3-.477.274.274 0 0 0-.473.273c.097.169.207.337.315.503.267.409.543.832.491 1.108-.089.47-1.029 2.75-1.426 3.318a6.488 6.488 0 0 1-.206-.415c-.286-.612-.678-1.45-1.394-1.487a.273.273 0 1 0-.03.545c.39.02.702.687.93 1.174.196.42.384.82.68.82M156.683 86.664a.273.273 0 0 0 .23-.42c-.006-.01-.576-.905-.801-1.782-.102-.399-.167-.954-.214-1.36a9.781 9.781 0 0 0-.064-.487c-.08-.444-.32-.753-.597-1.111-.265-.341-.564-.727-.844-1.355a.273.273 0 1 0-.5.223c.309.688.643 1.12.912 1.466.253.326.436.562.492.873.017.1.036.261.058.454.05.421.116.998.228 1.433.247.964.844 1.9.87 1.94.052.081.14.126.23.126" fill="#1E2F4E"/>
                <path d="M153.93 84.385c.252 0 .395-.292.584-.682.179-.365.477-.978.77-1.037a.273.273 0 1 0-.109-.535c-.556.112-.886.79-1.152 1.333a5.186 5.186 0 0 0-.036.075c-.074-.494-.123-1.36-.105-2.088.015-.687.625-1.228.631-1.233a.273.273 0 0 0-.357-.413c-.033.029-.8.701-.82 1.633-.025 1.042.007 2.81.503 2.935a.372.372 0 0 0 .092.012M162.472 69.083a.273.273 0 0 0 .222-.432c-.76-1.062-1.896-1.772-3.038-1.896-.717-.08-1.366.09-1.781.463a.273.273 0 1 0 .365.406c.3-.269.794-.39 1.357-.326.99.108 1.981.733 2.653 1.671a.271.271 0 0 0 .222.114M155.551 68.291a.273.273 0 0 0 .077-.535 1.282 1.282 0 0 1-.204-.078c.168.004.365-.013.584-.06.344-.076.573-.184.776-.28.269-.126.463-.22.867-.206.147.015.277-.114.28-.265a.272.272 0 0 0-.264-.281c-.538-.017-.83.124-1.116.259a2.843 2.843 0 0 1-.66.24c-.712.155-1.033-.114-1.046-.125a.276.276 0 0 0-.314-.033.273.273 0 0 0-.139.279c.005.033.138.798 1.083 1.075.025.007.051.01.076.01M161.092 78.972a.273.273 0 0 0 .23-.42c.002 0-.115-.27.171-.883.197-.42.49-.608.83-.826.404-.258.86-.55 1.11-1.264a.273.273 0 1 0-.515-.18c-.187.536-.512.744-.89.985-.358.23-.765.49-1.03 1.054-.114.245-.18.455-.214.633a.864.864 0 0 1-.037-.063.273.273 0 0 0-.482.256c.236.446.689.67.708.68.038.019.079.028.12.028M159.852 71.722c.035 0 .068-.002.1-.005a.272.272 0 0 0 .113-.506c-.019-.013-.586-.4-.442-1.78a.273.273 0 1 0-.544-.057c-.075.724.026 1.24.174 1.598-.261-.177-.539-.506-.702-1.117-.098-.364-.14-.648-.172-.855-.047-.315-.081-.542-.276-.675-.193-.133-.44-.091-.72-.029a.273.273 0 0 0 .119.533c.163-.037.244-.045.283-.045.019.06.038.185.055.298.033.22.078.52.183.914.368 1.376 1.306 1.726 1.83 1.726" fill="#1E2F4E"/>
                <path d="M154.504 69.876a.274.274 0 0 0 .26-.357c-.253-.785.48-1.38.488-1.386a.272.272 0 1 0-.34-.428c-.043.034-1.035.841-.668 1.982.037.116.145.189.26.189M163.793 70.129h.01c1.057-.038 1.304-.803 1.314-.835a.274.274 0 0 0-.097-.3c-.1-.074-.204-.06-.306-.047-.148.02-.423.056-.71-.094a.273.273 0 1 0-.252.485c.163.085.323.13.47.154a1.192 1.192 0 0 1-.439.091.273.273 0 0 0 .01.546M160.373 73.238a.273.273 0 0 0 .072-.537c-.737-.202-.872-1.277-.874-1.287a.273.273 0 1 0-.542.064c.007.058.183 1.451 1.271 1.75a.27.27 0 0 0 .073.01M166.976 66.996c.15 0 .273-.122.273-.273V61.87a.273.273 0 0 0-.546 0v4.854c0 .15.122.273.273.273M164.302 64.92c.15 0 .273-.122.273-.273v-4.854a.273.273 0 0 0-.546 0v4.854c0 .151.122.273.273.273M161.59 63.858c.15 0 .272-.122.272-.273v-4.854a.273.273 0 0 0-.546 0v4.854c0 .15.123.273.273.273M158.607 63.4c.151 0 .273-.122.273-.273v-4.854a.273.273 0 0 0-.545 0v4.854c0 .15.122.273.272.273M155.644 63.907c.15 0 .273-.122.273-.273V58.78a.273.273 0 0 0-.546 0v4.855c0 .15.123.273.273.273M152.932 64.953c.15 0 .273-.122.273-.273v-4.855a.273.273 0 0 0-.546 0v4.855c0 .15.122.273.273.273M150.239 67.029c.15 0 .273-.122.273-.273v-4.854a.273.273 0 0 0-.546 0v4.854c0 .15.122.273.273.273" fill="#1E2F4E"/>
            </g>
        </g>
        <g transform="translate(128 68)">
            <mask id="d7ry9bpkek" fill="#fff">
                <use xlink:href="#fnj18926pj"/>
            </mask>
            <g mask="url(#d7ry9bpkek)">
                <path d="m18.644 80.04-31.71-13.983 40.614-8.508 3.705-6.234-54.113 8.557-67.62 4.13-.167 5.042s.77 4.096 4.674 7.063c5.993 4.554 17.919 8.964 34.455 11.456 11.544 1.74 26.391 2.558 39.068 1.864 17.31-.947 31.037-3.92 31.037-3.92l.057-5.467z" fill="#F39F59"/>
                <path d="M32.343 49.877s-4.828-2.362-14.371-4.388c-9.841-2.09-24.652-3.846-41.39-3.846-13.33 0-33.964 2.55-44.62 5.506-15.699 4.356-22.491 10.19-22.491 16.282 0 2.461 2.405 5.719 6.26 8.273 4.142 2.744 9.942 4.76 15.714 6.631 5.692 1.845 12.365 3.194 19.79 4.048 7.153.823 15.007 1.176 23.097 1.576 6.568.325 18.29-.098 27.818-1.198 9.225-1.064 16.365-2.8 16.365-2.8l-40.18-17.76L31.327 51.3l1.016-1.422z" fill="#F7BD8A"/>
                <path d="m70.425 66.448-68.56-2.134.01 5.574 40.761 17.836s2.622-.586 6.002-1.631c4.435-1.37 10.275-3.497 14.21-5.792 6.932-4.044 7.52-8.755 7.52-8.755l.057-5.098z" fill="#9F9FA0"/>
                <path d="M70.5 65.078c0-2.065-1.385-4.794-3.553-6.793-3.564-3.286-8.635-5.416-8.635-5.416L2.059 64.31l40.598 17.597s12.634-2.523 21.227-7.982c4.09-2.598 6.615-6.042 6.615-8.846" fill="#C8C9C9"/>
                <path d="M32.308 50.085a.273.273 0 0 0 .1-.527c-13.144-5.22-32.93-8.214-54.282-8.214-7.688 0-15.237.39-22.436 1.158a.274.274 0 0 0-.243.3.27.27 0 0 0 .3.243c7.18-.767 14.71-1.156 22.38-1.156 21.285 0 40.996 2.98 54.08 8.177a.278.278 0 0 0 .101.02" fill="#1E2F4E"/>
                <path d="M32.308 50.144a.346.346 0 0 1-.121-.023c-13.078-5.194-32.782-8.173-54.06-8.173-7.67 0-15.197.389-22.373 1.155a.314.314 0 0 1-.241-.068.33.33 0 0 1-.124-.227.331.331 0 0 1 .294-.364c7.206-.77 14.756-1.159 22.443-1.159 21.36 0 41.152 2.996 54.304 8.22a.326.326 0 0 1 .182.176.33.33 0 0 1-.304.463m-54.182-8.313c21.294 0 41.013 2.982 54.103 8.181a.22.22 0 0 0 .279-.121.211.211 0 0 0-.003-.164.21.21 0 0 0-.117-.114C19.249 44.394-.53 41.402-21.874 41.402c-7.682 0-15.229.39-22.43 1.157a.216.216 0 0 0-.19.238.215.215 0 0 0 .079.147c.044.035.097.05.156.043 7.18-.767 14.712-1.156 22.385-1.156" fill="#1E2F4E"/>
                <path d="M-21.874 41.817c21.295 0 41.016 2.982 54.109 8.182a.2.2 0 0 0 .148-.373c-13.138-5.217-32.913-8.21-54.257-8.21-7.684 0-15.23.39-22.429 1.158a.2.2 0 0 0-.134.074.2.2 0 0 0-.043.148.2.2 0 0 0 .074.136c.04.033.091.047.145.041 7.181-.767 14.713-1.156 22.387-1.156m54.182 8.341a.364.364 0 0 1-.126-.023C19.105 44.94-.597 41.962-21.874 41.962c-7.669 0-15.195.389-22.37 1.155a.324.324 0 0 1-.253-.07.347.347 0 0 1 .179-.617c7.204-.77 14.755-1.16 22.444-1.16 21.361 0 41.157 2.997 54.31 8.22a.347.347 0 0 1-.128.668" fill="#1E2F4E"/>
                <path d="M32.308 50.217a.43.43 0 0 1-.146-.028c-13.071-5.191-32.766-8.168-54.036-8.168-7.668 0-15.192.388-22.364 1.154a.38.38 0 0 1-.295-.083.407.407 0 0 1 .21-.72c7.205-.77 14.759-1.16 22.45-1.16 21.367 0 41.17 2.998 54.331 8.224a.405.405 0 0 1-.15.78m-54.182-8.312c21.284 0 40.994 2.98 54.078 8.176a.288.288 0 0 0 .21-.535C19.268 44.323-.52 41.329-21.873 41.329c-7.686 0-15.235.39-22.438 1.158a.286.286 0 0 0-.255.318.289.289 0 0 0 .106.196c.063.05.137.07.207.059 7.18-.767 14.708-1.156 22.38-1.156m54.18 8.167a.254.254 0 0 1-.092-.018c-13.086-5.198-32.8-8.178-54.088-8.178-7.675 0-15.206.389-22.38 1.156a.255.255 0 0 1-.284-.23.257.257 0 0 1 .23-.284c7.2-.77 14.748-1.159 22.434-1.159 21.35 0 41.134 2.994 54.278 8.214a.258.258 0 0 1-.098.499m-54.18-8.312c21.302 0 41.031 2.983 54.13 8.186a.145.145 0 0 0 .184-.081.14.14 0 0 0-.08-.184c-13.13-5.214-32.898-8.206-54.234-8.206-7.682 0-15.226.39-22.422 1.158a.14.14 0 0 0-.095.052.139.139 0 0 0-.031.106.14.14 0 0 0 .155.125c7.18-.767 14.714-1.156 22.393-1.156M-21.874 84.34c14.72 0 28.758-1.418 40.595-4.101a.274.274 0 0 0 .05-.517L-20.86 62.294l52.178-10.715a.272.272 0 1 0-.11-.535l-53.017 10.887a.273.273 0 0 0-.056.517l39.654 17.439c-11.626 2.558-25.317 3.908-39.663 3.908-37.692 0-68.358-9.4-68.358-20.953 0-6.088 8.711-11.88 23.9-15.888a.274.274 0 0 0-.14-.529c-15.447 4.078-24.306 10.061-24.306 16.417 0 5.8 7.207 11.223 20.294 15.27 12.988 4.017 30.251 6.229 48.61 6.229" fill="#1E2F4E"/>
                <path d="M-21.874 84.4c-18.365 0-35.634-2.214-48.627-6.233-13.113-4.055-20.335-9.498-20.335-15.325 0-6.384 8.875-12.388 24.35-16.473a.334.334 0 0 1 .405.236.334.334 0 0 1-.235.406c-15.162 4-23.858 9.77-23.858 15.831 0 11.522 30.64 20.895 68.3 20.895 14.252 0 27.896-1.338 39.476-3.868L-21.888 62.5a.328.328 0 0 1-.196-.338.33.33 0 0 1 .263-.289l53.018-10.887a.333.333 0 0 1 .392.259.328.328 0 0 1-.05.249.327.327 0 0 1-.209.141l-52 10.678 39.464 17.355a.332.332 0 0 1-.06.627C6.893 82.98-7.149 84.399-21.874 84.399m-44.53-37.924a.216.216 0 0 0-.053.007c-15.419 4.07-24.262 10.033-24.262 16.36 0 5.772 7.192 11.175 20.252 15.214 12.982 4.015 30.24 6.226 48.593 6.226 14.716 0 28.75-1.417 40.582-4.1a.215.215 0 0 0 .166-.19.213.213 0 0 0-.127-.217l-39.798-17.501.179-.037 52.179-10.715a.213.213 0 0 0 .167-.253.214.214 0 0 0-.253-.167L-21.8 61.988a.214.214 0 0 0-.043.407l39.817 17.51-.174.039c-11.624 2.558-25.344 3.91-39.675 3.91-37.725 0-68.416-9.426-68.416-21.012 0-6.118 8.727-11.928 23.944-15.944a.216.216 0 0 0 .152-.263.216.216 0 0 0-.21-.16" fill="#1E2F4E"/>
                <path d="M-66.404 46.49a.207.207 0 0 0-.05.006c-15.412 4.068-24.251 10.026-24.251 16.346 0 5.765 7.189 11.163 20.243 15.2 12.98 4.015 30.236 6.226 48.588 6.226 14.715 0 28.747-1.418 40.58-4.1a.2.2 0 0 0 .035-.379l-39.84-17.52.224-.047 52.18-10.714a.199.199 0 0 0 .155-.236.2.2 0 0 0-.237-.156l-53.018 10.886a.2.2 0 0 0-.04.38L18.022 79.91l-.219.048c-11.625 2.558-25.346 3.91-39.678 3.91-37.733 0-68.431-9.432-68.431-21.026 0-6.125 8.731-11.94 23.955-15.958a.2.2 0 0 0-.054-.394m44.53 37.924c-18.366 0-35.637-2.214-48.631-6.233-13.12-4.057-20.346-9.504-20.346-15.34 0-6.39 8.88-12.4 24.361-16.486a.348.348 0 0 1 .423.247.348.348 0 0 1-.246.423c-15.155 3.999-23.847 9.764-23.847 15.817 0 11.514 30.634 20.88 68.286 20.88 14.232 0 27.86-1.334 39.429-3.858l-39.45-17.35a.345.345 0 0 1 .07-.655l53.02-10.886a.346.346 0 1 1 .139.677l-51.955 10.67 39.42 17.335a.345.345 0 0 1-.062.655c-11.843 2.684-25.886 4.104-40.61 4.104" fill="#1E2F4E"/>
                <path d="M-21.874 84.472c-18.373 0-35.65-2.214-48.649-6.235-13.146-4.066-20.386-9.534-20.386-15.395 0-6.42 8.895-12.45 24.404-16.543a.41.41 0 0 1 .494.287.406.406 0 0 1-.287.495c-15.127 3.992-23.803 9.736-23.803 15.76 0 11.482 30.606 20.823 68.227 20.823 14.15 0 27.716-1.32 39.241-3.82l-39.285-17.276a.4.4 0 0 1-.238-.413.401.401 0 0 1 .32-.352l53.019-10.887a.405.405 0 1 1 .162.792L-20.43 62.339l39.253 17.263a.403.403 0 0 1-.073.765c-11.847 2.685-25.894 4.105-40.624 4.105m-44.53-38.07a.27.27 0 0 0-.072.01c-15.453 4.079-24.317 10.067-24.317 16.43 0 5.806 7.211 11.234 20.305 15.283 12.987 4.018 30.252 6.23 48.614 6.23 14.721 0 28.76-1.418 40.598-4.102a.287.287 0 0 0 .052-.544L-20.812 62.3l.18-.037L31.32 51.593a.284.284 0 0 0 .183-.123.29.29 0 0 0-.298-.44l-53.018 10.887a.285.285 0 0 0-.229.25.285.285 0 0 0 .17.295l39.613 17.42-.175.038c-11.571 2.526-25.21 3.86-39.44 3.86-37.686 0-68.345-9.392-68.345-20.938 0-6.081 8.708-11.867 23.89-15.874a.289.289 0 0 0 .204-.351.289.289 0 0 0-.28-.215m44.53 37.924c-18.358 0-35.62-2.212-48.605-6.228-13.08-4.045-20.285-9.463-20.285-15.256 0-6.349 8.856-12.327 24.295-16.403a.259.259 0 0 1 .134.501c-15.196 4.01-23.912 9.806-23.912 15.902 0 11.562 30.672 20.967 68.373 20.967 14.33 0 28.047-1.351 39.666-3.908l.044-.01-39.695-17.456a.258.258 0 0 1 .052-.49l53.018-10.886a.249.249 0 0 1 .193.036c.06.039.1.097.113.165a.256.256 0 0 1-.202.305l-52.223 10.724 39.673 17.447c.103.045.164.15.153.26a.257.257 0 0 1-.2.228C6.88 82.908-7.156 84.326-21.874 84.326m-44.53-37.778a.144.144 0 0 0-.036.005c-15.384 4.06-24.207 9.998-24.207 16.289 0 5.738 7.175 11.116 20.202 15.144C-57.47 82-40.22 84.21-21.874 84.21c14.71 0 28.737-1.418 40.566-4.099a.142.142 0 0 0 .026-.269L-21.29 62.248l.404-.083L31.293 51.45a.138.138 0 0 0 .09-.06.138.138 0 0 0 .02-.106.136.136 0 0 0-.063-.092.13.13 0 0 0-.105-.019L-21.783 62.06a.147.147 0 0 0-.114.126.143.143 0 0 0 .085.143l40.021 17.6-.392.087c-11.627 2.559-25.352 3.911-39.69 3.911-37.766 0-68.49-9.458-68.49-21.084 0-6.153 8.747-11.99 23.998-16.014a.144.144 0 0 0 .1-.174.143.143 0 0 0-.139-.106" fill="#1E2F4E"/>
                <path d="M42.62 82.263c.021 0 .042-.002.062-.007 17.829-4.081 28.055-10.4 28.055-17.338 0-4.459-4.268-8.72-12.342-12.324a.27.27 0 0 0-.165-.018l-7.596 1.54a.283.283 0 0 0-.225.323c.03.148.165.246.31.216l7.533-1.527c7.811 3.502 11.938 7.577 11.938 11.79 0 6.551-10.295 12.824-27.542 16.786L2.807 64.37l23.682-4.802a.273.273 0 0 0-.108-.535L1.85 64.007a.273.273 0 0 0-.054.518L42.511 82.24a.274.274 0 0 0 .109.023" fill="#1E2F4E"/>
                <path d="M42.62 82.321a.339.339 0 0 1-.13-.027L1.77 64.577a.33.33 0 0 1 .067-.628l24.533-4.974c.18-.03.354.084.39.26a.326.326 0 0 1-.049.248.328.328 0 0 1-.21.142L2.999 64.39l39.655 17.253c17.206-3.955 27.478-10.207 27.478-16.725 0-4.184-4.11-8.24-11.887-11.73l-7.515 1.525a.316.316 0 0 1-.235-.046.335.335 0 0 1-.143-.216.343.343 0 0 1 .27-.393l7.596-1.54a.336.336 0 0 1 .201.023c8.096 3.613 12.376 7.894 12.376 12.377 0 6.967-10.242 13.307-28.1 17.395a.306.306 0 0 1-.074.008M26.432 59.086a.211.211 0 0 0-.04.004L1.86 64.063a.217.217 0 0 0-.171.19.216.216 0 0 0 .128.218l40.718 17.716a.237.237 0 0 0 .133.013c17.802-4.075 28.01-10.374 28.01-17.282 0-4.434-4.255-8.677-12.306-12.27a.21.21 0 0 0-.131-.016l-7.596 1.54c-.12.025-.202.142-.179.256.012.06.046.11.093.142.044.028.095.04.148.028l7.552-1.53.017.007c7.832 3.511 11.973 7.606 11.973 11.843 0 6.578-10.313 12.875-27.588 16.843l-.019.004-.017-.008L2.614 64.35l.181-.036 23.683-4.802a.213.213 0 0 0 .136-.092.212.212 0 0 0 .031-.161.217.217 0 0 0-.213-.172" fill="#1E2F4E"/>
                <path d="M26.432 59.1a.19.19 0 0 0-.038.004l-24.53 4.974a.201.201 0 0 0-.16.175c-.01.087.039.17.12.205L42.54 82.174a.2.2 0 0 0 .123.011c17.795-4.073 28-10.367 28-17.267 0-4.428-4.253-8.666-12.298-12.257a.194.194 0 0 0-.122-.014l-7.596 1.54c-.11.022-.188.134-.168.238.023.11.118.18.225.16l7.556-1.533.02.01c7.839 3.513 11.982 7.613 11.982 11.856 0 6.586-10.317 12.888-27.6 16.857l-.022.005-.023-.01L2.566 64.345l.227-.046 23.681-4.801a.199.199 0 0 0 .157-.236.204.204 0 0 0-.2-.16m16.19 23.235a.35.35 0 0 1-.138-.028L1.765 64.592a.346.346 0 0 1 .069-.657l24.533-4.974a.35.35 0 0 1 .407.271.345.345 0 0 1-.27.407L3.048 64.396l39.606 17.232c17.198-3.954 27.463-10.2 27.463-16.71 0-4.178-4.106-8.228-11.873-11.714l-7.51 1.523a.335.335 0 0 1-.396-.273.356.356 0 0 1 .281-.41l7.596-1.54a.337.337 0 0 1 .21.024c8.102 3.616 12.384 7.9 12.384 12.39 0 6.974-10.246 13.32-28.111 17.409a.295.295 0 0 1-.077.009" fill="#1E2F4E"/>
                <g transform="translate(1.499 52.44)">
                    <mask id="l5n7s3bfam" fill="#fff">
                        <use xlink:href="#im2p0dge8l"/>
                    </mask>
                    <path d="M41.122 29.955a.418.418 0 0 1-.16-.032L.243 12.206a.404.404 0 0 1 .08-.767l24.533-4.975a.41.41 0 0 1 .476.318.402.402 0 0 1-.316.476L1.742 11.977l39.419 17.15c17.157-3.946 27.4-10.17 27.4-16.648 0-4.15-4.088-8.179-11.823-11.653l-7.492 1.519a.392.392 0 0 1-.464-.318.393.393 0 0 1 .06-.299.42.42 0 0 1 .267-.18l7.596-1.54a.404.404 0 0 1 .246.027c8.124 3.627 12.418 7.93 12.418 12.444 0 7.003-10.263 13.37-28.157 17.465a.346.346 0 0 1-.09.011M24.932 6.574a.39.39 0 0 0-.054.005L.347 11.553a.287.287 0 0 0-.057.547l40.717 17.716c.06.023.13.029.176.015 17.84-4.084 28.07-10.408 28.07-17.352 0-4.465-4.27-8.731-12.35-12.337a.284.284 0 0 0-.175-.02l-7.596 1.54a.307.307 0 0 0-.193.13.28.28 0 0 0-.043.211c.033.16.17.256.328.228L56.75.705l.018.007c7.79 3.495 11.908 7.564 11.908 11.767 0 6.54-10.283 12.807-27.508 16.766l-.019.005-.017-.008L1.357 11.936l.18-.037 23.456-4.756a.285.285 0 0 0 .225-.338.29.29 0 0 0-.286-.231M41.124 29.81a.275.275 0 0 1-.104-.021L.3 12.072a.263.263 0 0 1-.155-.263.263.263 0 0 1 .207-.228l24.53-4.973a.259.259 0 1 1 .103.506L1.261 11.926 41.148 29.28h.004c17.253-3.964 27.554-10.244 27.554-16.801 0-4.218-4.132-8.3-11.946-11.803l-.005-.002-7.538 1.528a.25.25 0 0 1-.293-.204.268.268 0 0 1 .214-.307L56.734.15a.248.248 0 0 1 .158.018c8.066 3.601 12.331 7.858 12.331 12.31 0 6.93-10.222 13.244-28.045 17.324a.204.204 0 0 1-.054.007M24.934 6.72c-.01 0-.018 0-.028.003L.376 11.696a.145.145 0 0 0-.114.125c-.005.06.029.12.087.145l40.716 17.716a.152.152 0 0 0 .086.008c17.767-4.067 27.956-10.34 27.956-17.211 0-4.403-4.241-8.623-12.264-12.204a.135.135 0 0 0-.086-.01l-7.596 1.54c-.079.016-.137.097-.122.17.017.08.08.125.156.113L56.769.552l.038.017c7.86 3.524 12.015 7.642 12.015 11.91 0 6.615-10.334 12.937-27.644 16.913l-.042.01-.04-.017-40.223-17.5.41-.083L24.963 7a.14.14 0 0 0 .111-.167.144.144 0 0 0-.142-.113" fill="#1E2F4E" mask="url(#l5n7s3bfam)"/>
                </g>
                <path d="M-21.965 89.869c14.717 0 28.755-1.419 40.595-4.102a.273.273 0 0 0 .212-.262l.101-5.486a.273.273 0 0 0-.268-.279c-.14.006-.275.118-.278.268l-.097 5.273c-11.757 2.645-25.673 4.042-40.265 4.042-37.693 0-68.358-9.4-68.358-20.953 0-2.944.095-5.532.095-5.558a.273.273 0 0 0-.263-.283c-.15-.017-.277.112-.282.263-.001.026-.096 2.624-.096 5.578 0 5.8 7.207 11.222 20.294 15.27 12.988 4.017 30.252 6.229 48.61 6.229" fill="#1E2F4E"/>
                <path d="M-21.965 89.927c-18.365 0-35.634-2.213-48.627-6.232-13.114-4.055-20.335-9.498-20.335-15.325 0-2.956.095-5.556.096-5.58a.343.343 0 0 1 .117-.246.296.296 0 0 1 .23-.073c.084.003.166.04.226.106a.33.33 0 0 1 .089.237l-.001.03c-.022.645-.094 2.952-.094 5.526 0 11.521 30.639 20.895 68.299 20.895 14.562 0 28.465-1.394 40.208-4.03l.096-5.228a.344.344 0 0 1 .334-.325.33.33 0 0 1 .328.338l-.1 5.486a.332.332 0 0 1-.258.317c-11.844 2.685-25.886 4.104-40.608 4.104m-68.55-27.34a.185.185 0 0 0-.123.045.225.225 0 0 0-.077.162c0 .025-.095 2.622-.095 5.576 0 5.772 7.192 11.175 20.252 15.214 12.982 4.015 30.24 6.227 48.593 6.227 14.713 0 28.746-1.418 40.582-4.101a.215.215 0 0 0 .167-.206l.101-5.486a.215.215 0 0 0-.21-.22c-.103.005-.217.09-.22.211l-.098 5.319-.044.01C6.552 87.983-7.376 89.38-21.965 89.38c-37.725 0-68.416-9.426-68.416-21.011 0-2.576.072-4.884.094-5.53l.001-.029a.216.216 0 0 0-.057-.155.211.211 0 0 0-.15-.068l-.021-.001" fill="#1E2F4E"/>
                <path d="M-90.514 62.602a.17.17 0 0 0-.114.042.214.214 0 0 0-.073.151c0 .024-.095 2.621-.095 5.574 0 5.765 7.189 11.164 20.242 15.201 12.981 4.015 30.237 6.226 48.589 6.226 14.711 0 28.743-1.418 40.579-4.1.09-.021.154-.1.155-.192l.101-5.487a.2.2 0 0 0-.196-.204c-.095.004-.202.083-.205.197l-.097 5.33-.056.012c-11.763 2.646-25.692 4.044-40.281 4.044-37.733 0-68.43-9.432-68.43-21.027 0-2.575.071-4.884.093-5.53l.001-.028a.199.199 0 0 0-.192-.208l-.021-.001m68.549 27.34c-18.366 0-35.637-2.214-48.632-6.233-13.12-4.057-20.345-9.505-20.345-15.34 0-2.956.095-5.555.096-5.58a.356.356 0 0 1 .123-.256.302.302 0 0 1 .24-.076.343.343 0 0 1 .327.358v.029c-.022.646-.094 2.952-.094 5.525 0 11.515 30.632 20.881 68.285 20.881 14.555 0 28.452-1.393 40.193-4.028l.096-5.215a.358.358 0 0 1 .348-.34.346.346 0 0 1 .344.353l-.1 5.486a.346.346 0 0 1-.27.332C6.8 88.523-7.243 89.942-21.965 89.942" fill="#1E2F4E"/>
                <path d="M-21.965 90c-18.372 0-35.65-2.214-48.649-6.235C-83.76 79.7-91 74.231-91 68.37c0-2.947.095-5.56.096-5.583a.413.413 0 0 1 .142-.298.358.358 0 0 1 .288-.09.402.402 0 0 1 .377.417v.03c-.017.454-.095 2.856-.095 5.524 0 11.481 30.607 20.822 68.227 20.822 14.531 0 28.41-1.389 40.136-4.017l.095-5.169a.417.417 0 0 1 .405-.397.406.406 0 0 1 .403.413l-.1 5.486a.404.404 0 0 1-.316.387C6.808 88.58-7.239 90-21.965 90zM-90.52 62.513a.246.246 0 0 0-.166.064.295.295 0 0 0-.103.214c0 .024-.095 2.634-.095 5.579 0 5.806 7.21 11.234 20.304 15.284 12.988 4.017 30.253 6.23 48.614 6.23 14.718 0 28.757-1.419 40.597-4.103a.287.287 0 0 0 .225-.275l.1-5.487a.287.287 0 0 0-.285-.293.299.299 0 0 0-.29.283l-.096 5.26-.045.01c-11.745 2.636-25.648 4.03-40.206 4.03-37.685 0-68.344-9.393-68.344-20.94 0-2.669.079-5.072.094-5.527l.001-.029a.284.284 0 0 0-.27-.298.288.288 0 0 0-.035-.002zm68.554 27.342c-18.358 0-35.62-2.213-48.606-6.23-13.08-4.044-20.284-9.463-20.284-15.255 0-2.976.095-5.555.096-5.577a.273.273 0 0 1 .093-.194.215.215 0 0 1 .181-.054.25.25 0 0 1 .174.081.26.26 0 0 1 .068.187v.027c-.022.647-.095 2.956-.095 5.53 0 11.562 30.672 20.968 68.373 20.968 14.584 0 28.509-1.398 40.269-4.042l.01-.003.097-5.284c.003-.147.137-.25.261-.254a.26.26 0 0 1 .257.262l-.102 5.488a.256.256 0 0 1-.2.247c-11.84 2.684-25.877 4.103-40.592 4.103zm-68.55-27.195a.111.111 0 0 0-.075.028.155.155 0 0 0-.052.11c-.001.022-.096 2.608-.096 5.572 0 5.737 7.175 11.115 20.202 15.144 12.975 4.014 30.224 6.224 48.57 6.224 14.707 0 28.735-1.418 40.567-4.099a.141.141 0 0 0 .11-.136l.101-5.488a.139.139 0 0 0-.04-.1.14.14 0 0 0-.099-.044c-.065.003-.144.061-.146.14l-.098 5.375-.1.023c-11.768 2.647-25.701 4.045-40.294 4.045-37.765 0-68.49-9.458-68.49-21.084 0-2.575.073-4.887.095-5.534l.001-.027a.144.144 0 0 0-.038-.104.136.136 0 0 0-.098-.045h-.02zM-13.033 66.19a.253.253 0 0 0 .055-.006l40.53-8.322a.278.278 0 0 0 .219-.323.266.266 0 0 0-.315-.215l-40.543 8.325a.272.272 0 0 0 .054.54" fill="#1E2F4E"/>
                <path d="M-13.033 66.248a.332.332 0 0 1-.066-.656l40.543-8.326a.322.322 0 0 1 .384.261.339.339 0 0 1-.264.392l-40.53 8.322a.299.299 0 0 1-.067.007m40.543-8.872a.196.196 0 0 0-.042.005l-40.544 8.325a.213.213 0 0 0-.166.253.214.214 0 0 0 .251.168l40.532-8.323a.22.22 0 0 0 .173-.254.216.216 0 0 0-.092-.14.205.205 0 0 0-.112-.034" fill="#1E2F4E"/>
                <path d="M27.51 57.39a.202.202 0 0 0-.04.005l-40.543 8.325a.198.198 0 0 0-.155.236.2.2 0 0 0 .235.157l40.53-8.323a.206.206 0 0 0 .162-.237.2.2 0 0 0-.085-.13.189.189 0 0 0-.105-.032m-40.542 8.871a.347.347 0 0 1-.069-.684l40.543-8.325a.333.333 0 0 1 .254.048.349.349 0 0 1-.128.631l-40.53 8.323a.327.327 0 0 1-.07.007" fill="#1E2F4E"/>
                <path d="M-13.033 66.32a.405.405 0 0 1-.337-.627.4.4 0 0 1 .257-.172l40.543-8.326a.387.387 0 0 1 .297.058.405.405 0 0 1 .113.56.41.41 0 0 1-.262.177l-40.53 8.322a.35.35 0 0 1-.08.009m40.543-9.017a.278.278 0 0 0-.058.006l-40.543 8.325a.283.283 0 0 0-.224.339.287.287 0 0 0 .337.224l40.532-8.323a.293.293 0 0 0 .188-.126.281.281 0 0 0 .042-.213.288.288 0 0 0-.123-.186.267.267 0 0 0-.151-.046m-40.544 8.871a.257.257 0 0 1-.252-.208.254.254 0 0 1 .036-.192.251.251 0 0 1 .164-.111l40.544-8.326a.257.257 0 0 1 .187.036.26.26 0 0 1 .11.168.266.266 0 0 1-.206.306l-40.531 8.322a.246.246 0 0 1-.052.005M27.51 57.45a.124.124 0 0 0-.028.003l-40.544 8.326a.134.134 0 0 0-.088.06.138.138 0 0 0-.021.106c.014.076.096.128.166.111l40.531-8.322a.148.148 0 0 0 .116-.168.145.145 0 0 0-.06-.094.136.136 0 0 0-.072-.022M42.615 87.933c.02 0 .041-.002.061-.007 17.538-4.015 27.733-10.28 27.97-17.19.034-1.008.083-6.04.083-6.09a.273.273 0 0 0-.27-.276h-.003c-.15 0-.272.12-.273.27 0 .05-.05 5.075-.084 6.077-.227 6.632-10.233 12.7-27.458 16.657l-40.47-17.61-.002-5.474a.273.273 0 0 0-.547 0l.003 5.654c0 .108.064.206.164.25L42.506 87.91a.274.274 0 0 0 .109.023" fill="#1E2F4E"/>
                <path d="M42.615 87.991a.323.323 0 0 1-.132-.028L1.765 70.247a.33.33 0 0 1-.198-.303l-.003-5.654a.331.331 0 1 1 .663 0l.002 5.437 40.418 17.586c17.183-3.95 27.168-9.999 27.394-16.598.033-.953.079-5.546.084-6.066a.334.334 0 0 1 .331-.337.332.332 0 0 1 .331.334c-.005.528-.05 5.128-.083 6.092-.238 6.938-10.45 13.223-28.015 17.245a.304.304 0 0 1-.074.008M1.895 64.075a.215.215 0 0 0-.214.215l.002 5.654c0 .085.051.162.13.197l40.716 17.716a.22.22 0 0 0 .134.013c17.51-4.01 27.689-10.255 27.924-17.136.033-.963.079-5.561.084-6.082a.215.215 0 1 0-.43-.011c-.005.53-.05 5.123-.083 6.078-.228 6.659-10.253 12.75-27.504 16.711l-.018.005-.018-.008L2.112 69.803 2.11 64.29a.215.215 0 0 0-.215-.215" fill="#1E2F4E"/>
                <path d="M1.895 64.09a.2.2 0 0 0-.2.2l.003 5.653a.2.2 0 0 0 .12.184l40.717 17.717c.04.017.087.02.125.011 17.504-4.007 27.678-10.248 27.913-17.122.033-.984.082-5.877.084-6.084a.204.204 0 0 0-.058-.146.2.2 0 0 0-.14-.06.202.202 0 0 0-.204.198c-.004.532-.05 5.128-.083 6.079-.228 6.665-10.257 12.76-27.515 16.724l-.023.006-.022-.01L2.098 69.813l-.002-5.524a.2.2 0 0 0-.2-.2m40.719 23.917a.344.344 0 0 1-.139-.03L1.76 70.262a.347.347 0 0 1-.208-.318l-.003-5.654a.346.346 0 0 1 .692 0l.002 5.428 40.405 17.58c17.175-3.948 27.153-9.99 27.379-16.583.032-.948.078-5.542.083-6.063a.35.35 0 0 1 .346-.354.347.347 0 0 1 .346.349c-.002.212-.05 5.106-.084 6.092-.237 6.945-10.452 13.236-28.026 17.259a.314.314 0 0 1-.077.009" fill="#1E2F4E"/>
                <path d="M42.615 88.064a.407.407 0 0 1-.161-.033L1.737 70.314a.404.404 0 0 1-.243-.37L1.49 64.29a.404.404 0 0 1 .808 0l.003 5.389 40.351 17.557c17.136-3.942 27.091-9.964 27.316-16.523.013-.398.038-1.74.08-5.864l.003-.199a.407.407 0 0 1 .404-.411.407.407 0 0 1 .404.407c0 .05-.05 5.094-.083 6.094-.239 6.974-10.47 13.284-28.072 17.313a.332.332 0 0 1-.09.01m-40.72-24.06a.288.288 0 0 0-.287.287l.002 5.654c0 .114.068.218.173.264l40.716 17.716c.06.025.13.028.178.017 17.548-4.018 27.747-10.288 27.983-17.205.034-1 .084-6.04.084-6.09a.285.285 0 0 0-.083-.205.291.291 0 0 0-.205-.086c-.16 0-.286.13-.288.296l-.002.2c-.034 3.312-.061 5.285-.081 5.866-.226 6.619-10.222 12.683-27.424 16.637l-.019.005-.018-.009L2.185 69.755l-.002-5.465a.288.288 0 0 0-.288-.288M42.616 87.92a.26.26 0 0 1-.104-.022L1.795 70.18a.257.257 0 0 1-.156-.237l-.002-5.654a.259.259 0 0 1 .517 0l.002 5.485L42.64 87.389l.004-.001c17.231-3.957 27.243-10.033 27.47-16.67.033-.947.078-5.467.083-6.077a.26.26 0 0 1 .443-.18c.05.052.075.116.075.188 0 .05-.05 5.087-.084 6.086-.236 6.903-10.426 13.163-27.958 17.177a.235.235 0 0 1-.057.007M1.895 64.149a.142.142 0 0 0-.141.14l.002 5.655c0 .056.034.108.085.13L42.56 87.79c.026.012.06.015.088.008 17.476-4 27.633-10.22 27.867-17.067.034-.998.084-6.033.084-6.083a.145.145 0 0 0-.04-.105.141.141 0 0 0-.1-.042.144.144 0 0 0-.144.14c-.006.61-.05 5.133-.084 6.08-.229 6.694-10.274 12.81-27.56 16.78l-.042.01-.04-.018L2.04 69.851l-.002-5.561a.142.142 0 0 0-.143-.142" fill="#1E2F4E"/>
                <path d="M42.607 87.69c.15 0 .272-.121.273-.271l.032-5.32a.273.273 0 0 0-.27-.275h-.002a.273.273 0 0 0-.273.272l-.033 5.32a.273.273 0 0 0 .271.274h.002z" fill="#1E2F4E"/>
                <path d="M42.752 87.748h-.002a.595.595 0 0 1-.337-.098c-.09-.063-.138-.147-.138-.235l.048-5.32c0-.182.214-.33.476-.33.13.001.25.037.339.1.089.063.138.146.137.235l-.046 5.319c-.002.182-.216.33-.477.33m.049-5.867c-.171 0-.31.096-.31.214l-.048 5.32c0 .057.03.11.089.152a.386.386 0 0 0 .218.064l.002.058v-.058c.17 0 .307-.096.309-.214l.046-5.32c.001-.057-.03-.11-.088-.151a.38.38 0 0 0-.218-.065" fill="#1E2F4E"/>
                <path d="M42.785 81.897c-.153 0-.277.09-.278.199l-.045 5.32c0 .053.027.103.08.142.051.038.12.059.195.06l.001.072v-.073c.151 0 .275-.09.277-.199l.045-5.32c0-.053-.027-.104-.08-.142a.336.336 0 0 0-.195-.06m-.047 5.867h-.002a.571.571 0 0 1-.338-.104c-.09-.065-.138-.152-.137-.245l.045-5.319c.001-.19.215-.344.477-.344.131 0 .25.037.34.103.09.066.139.153.138.245l-.045 5.32c-.002.19-.217.344-.478.344" fill="#1E2F4E"/>
                <path d="M42.683 87.821h-.002a.527.527 0 0 1-.34-.12.37.37 0 0 1-.138-.287l.039-5.32c0-.22.216-.401.48-.401a.53.53 0 0 1 .343.12c.09.077.138.179.138.287l-.039 5.32c-.001.22-.217.401-.48.401zm.038-6.011c-.187 0-.34.128-.34.285l-.04 5.32a.261.261 0 0 0 .099.203c.063.055.15.086.242.086l.001.059v-.059c.188 0 .342-.128.343-.285l.038-5.32a.265.265 0 0 0-.098-.204.376.376 0 0 0-.245-.085zm-.107 5.88v-.021a.323.323 0 0 1-.15-.07.237.237 0 0 1-.088-.184l.04-5.32c0-.141.138-.257.307-.257.084 0 .16.029.219.078a.238.238 0 0 1 .088.183l-.04 5.32c0 .121-.102.223-.238.25v.02l-.138.001zm.069-.131c.093 0 .168-.063.169-.141l.04-5.32a.13.13 0 0 0-.049-.1.19.19 0 0 0-.12-.043c-.093 0-.169.063-.17.14l-.039 5.32c0 .039.017.074.05.101a.184.184 0 0 0 .119.043zM-66.303 46.657s13.768-3.133 22.51-3.934" fill="#1E2F4E"/>
                <path d="m-66.29 46.713-.027-.113c.138-.032 13.873-3.143 22.52-3.935l.01.116c-8.639.792-22.366 3.901-22.503 3.932" fill="#1E2F4E"/>
                <path d="M-66.304 46.99a.333.333 0 0 1-.073-.657c.138-.031 13.89-3.147 22.554-3.94a.332.332 0 1 1 .061.66c-8.62.79-22.33 3.897-22.468 3.928a.306.306 0 0 1-.074.008" fill="#1E2F4E"/>
                <path d="M-66.304 47.048a.39.39 0 0 1-.086-.771c.137-.031 13.883-3.148 22.562-3.943a.393.393 0 0 1 .336.639.39.39 0 0 1-.265.139c-8.241.755-21.014 3.6-22.444 3.922l-.016.003a.321.321 0 0 1-.087.01m22.51-4.598-.024.001c-8.67.795-22.41 3.909-22.546 3.94a.274.274 0 0 0 .12.534l.018-.004c1.43-.322 14.21-3.168 22.459-3.925a.271.271 0 0 0 .247-.297.275.275 0 0 0-.273-.249" fill="#1E2F4E"/>
                <path d="M58.713 14.842c-.284-.345-.858-1.231-2.235-1.605-1.971-.535-4.95-.521-7.111-.48-1.458.026-2.45-.102-2.86.256-.737.644-1.417 1.43-2.043 2.317-.223.317 1.883 1.737 1.883 1.737s1.072.05 2.418.17c1.316.116 2.82.525 2.82.525s-1.553 1.782-3.587 2.965c-2.033 1.183-4.547 1.766-4.547 1.766l-.975-1.27-6.139.85-.573.543s-1.758-.303-4.042-1.395c-2.283-1.092-5.09-2.973-5.09-2.973s2.26-.514 4.098-1.086c.793-.247 2.03-.592 2.03-.592s.227-1.646.038-2.526c-.15-.697-.47-1.046-.6-1.083-.792-.223-3.321.182-5.886.535-2.397.33-4.822.577-5.943 1.321-1.42.944-.469 2.873-.274 3.392.452 1.206 2.59 3.71 4.87 5.872 2.74 2.598 5.65 4.787 5.65 4.787l1.707 17.18s-.345 1.186.207 2.279c.56 1.107 2.03 2.124 4.358 2.536 2.86.505 7.557-.864 10.208-2.243 1.637-.852 2.072-1.917 2.072-1.917s-.05-1.041-.145-1.886c-.083-.74-.216-1.19-.195-2.566.032-2.294.41-5.691.864-8.411.244-1.46.348-3.57.822-4.791.451-1.164 1.027-1.668 1.745-2.475.958-1.078 2.104-2.378 2.912-3.447 2.821-3.728 4.722-6.858 3.543-8.285" fill="#FEFEFE"/>
                <path d="m46.68 11.282-.8-.117-1.71-.75s-.688-.695-1.732-1.087c-.577-.216-.817-.267-2.079-.464-1.261-.197-1.743.204-2.287.378-.586.186-1.083.078-1.083.078l-.966 2.344 4.06 8.099 2.892.75s.25-.952.894-1.661c.582-.643 1.169-1.13 1.169-1.13l.795-5.763.848-.677z" fill="#4F4862"/>
                <path d="M45.768 10.857 44.57 9.818s-.814.109-.078.91c.262.286.184.638.184.638L43.55 12.56s-.676.496-.89 1.24c-.176.619-.027 1.35-.356 1.175-.277-.147-.492-.16-.84-.832-.29-.561-.219-.882-.219-.882s-.352-.272-.683-.796c-.46-.728-.144-1.859-.933-1.784-.789.076-3.166.954-3.166.954l-.067-.627.428-1.116-1.022.183s-.284 1.64-1.108 2.447c-.824.808-2.188.784-2.188.784s.255.536.347 1.246c.093.71.023 1.592.023 1.592l1.756-.327s-.072 1.592.15 2.505c.62 2.55 1.478 2.08 1.478 2.08l.241 2.532 1.09 1.549s.005 1.147.272 2.144c.268.997.798 1.843.798 1.843l.454-1.519.4-2.238s.998-.681 1.693-1.33c.694-.65 1.085-1.268 1.085-1.268l.413-2.9s.834-.189 1.226-.628c.39-.439.338-1.128.338-1.128s.942.047 1.33-.155c.388-.204.221-.657.221-.657s-.159-.68-.076-1.472c.083-.792.39-1.98.39-1.98l.238-1.386-.69.045.084-.998z" fill="#FAD9C7"/>
                <path d="M38.65 17.05c0-.477-.574-.674-1.239-.674-.309 0-.957-.214-1.257-.053a.87.87 0 0 0-.44.888c.095.579.493.363 1.158.363.314 0 1.366.628 1.628.487.293-.157.15-.76.15-1.012" fill="#CD6170"/>
                <path d="M38.553 17.194c0-.18-.385-.217-.994-.1-.61.115-.712.327-.712.327s.915.642 1.398.606c.484-.037.308-.655.308-.833" fill="#CD6170"/>
                <path d="M48.988 47.133s-1.157 1.339-3.197 2.18c-1.926.794-4.54 1.41-6.532 1.596-4.103.387-6.543-2.123-6.543-2.123s-5.094 7.24-7.336 12.27c-1.317 2.956-2.157 4.729-2.23 6.04-.053.919.48 1.742.6 2.025.35.827 2.69 2.077 4.564 1.47 2.372-.767 5.273-3.416 7.311-5.009 1.712-1.338 2.733-1.91 2.733-1.91s-.582 3.582-.73 6.587c-.107 2.22-.043 4.083 1.182 4.973 1.034.752 2.232.87 3.345.732 2.587-.318 4.667-3.479 6.285-6.171 1.02-1.696 2.166-3.439 2.166-3.439s.075-1.352-.258-2.617c-.332-1.266-1.072-2.445-1.072-2.445s1.22-4.676 1.072-6.864c-.262-3.92-1.36-7.295-1.36-7.295" fill="#3988B7"/>
                <path d="M58.992 62.504c-.64-.547-2.521-1.099-3.992-1.558-1.448-.452-2.367-1.096-3.362-1.346-.851-.214-1.892-.068-1.892-.068l-1.053 3.447s.635.211 1.095.825c.459.614.742 1.63.742 1.63s1.891-.305 3.88.289c2.56.764 4.334.908 4.334.908s.936-.24 1.208-1.16c.238-.805-.116-2.247-.96-2.967" fill="#4F4862"/>
                <path d="M44.135 13.674h.008l2.049-.053a.274.274 0 0 0-.013-.546l-2.05.052a.274.274 0 0 0 .006.547" fill="#1E2F4E"/>
                <path d="M44.867 17.715c.966 0 1.227-.542 1.296-.788a.273.273 0 1 0-.526-.147c-.109.39-.645.406-.954.382-.72-.057-1.257-.182-1.527-.609-.151-.239-.16-.498-.173-.798-.006-.156-.012-.317-.039-.486l-.037-.226c-.074-.44-.138-.82-.008-1.208.077-.229.352-.526.795-.992l.122-.129c1.018-1.064 1.323-1.471 1.119-1.786a2.12 2.12 0 0 0-.176-.215c-.086-.097-.347-.39-.335-.494.062-.05.239.088.483.29.135.11.289.237.46.35.18.12.18.242-.004.771-.07.2-.148.427-.19.671a.273.273 0 1 0 .538.093c.035-.2.103-.396.168-.585.16-.458.357-1.03-.21-1.405a5.087 5.087 0 0 1-.415-.317c-.349-.287-.782-.643-1.194-.27-.458.415.048.985.29 1.258.029.032.055.06.077.087-.125.254-.734.891-1.005 1.175l-.125.13c-.508.536-.802.855-.916 1.195-.173.516-.091 1.002-.012 1.472l.036.219c.021.138.027.276.033.423.012.331.027.707.257 1.069.414.655 1.18.8 1.946.86.079.007.154.01.226.01" fill="#1E2F4E"/>
                <path d="M45.803 16.908a.273.273 0 0 0 .04-.544c-.266-.039-.605-.054-.933-.07a9.588 9.588 0 0 1-.852-.06.273.273 0 1 0-.078.54c.258.038.587.052.906.067a9.666 9.666 0 0 1 .917.067M45.805 13.538a.274.274 0 0 0 .221-.111c.328-.447.71-1.047.661-1.368-.025-.168-.135-.332-.337-.5a.274.274 0 0 0-.385.035.274.274 0 0 0 .035.385c.13.108.147.164.147.164-.008.107-.27.564-.562.96a.273.273 0 0 0 .22.435M45.395 72.19a.272.272 0 0 0 .252-.167c.187-.446 4.578-10.966 4.953-16.053.246-3.332-1.014-8.008-1.27-8.91a.273.273 0 1 0-.525.149c.692 2.452 1.436 6.208 1.25 8.72-.368 5-4.866 15.775-4.912 15.883a.274.274 0 0 0 .252.379" fill="#1E2F4E"/>
                <path d="M41.43 76.305c.107 0 .214-.004.323-.01 1.511-.101 2.99-.918 4.06-2.242 1.234-1.53 2.558-3.717 3.526-5.314.513-.848.918-1.518 1.141-1.81.42-.55.474-1.497.136-2.411-.338-.918-.968-1.539-1.727-1.703a.274.274 0 0 0-.115.534c.564.122 1.061.63 1.33 1.357.265.721.242 1.5-.058 1.892-.24.316-.653.997-1.175 1.858-.959 1.584-2.272 3.752-3.484 5.254-.973 1.206-2.31 1.949-3.67 2.04-1.213.08-2.354-.354-3.303-1.254-1.32-1.253.32-12.082 1.57-17.536.138-.604 2.106-1.243 3.459-1.504a.273.273 0 1 0-.104-.536c-.602.115-3.62.753-3.887 1.918-.601 2.62-3.262 16.3-1.413 18.054.977.928 2.144 1.413 3.39 1.413M30.301 67.405c.081 0 .16-.036.215-.103 2.004-2.534 3.391-3.82 5.148-5.448.806-.748 1.72-1.595 2.806-2.668a.273.273 0 0 0-.384-.388c-1.08 1.066-1.99 1.91-2.793 2.655-1.774 1.644-3.176 2.943-5.205 5.51a.273.273 0 0 0 .213.442" fill="#1E2F4E"/>
                <path d="M27.41 71.025c1.553 0 3.39-1.099 4.283-1.797.927-.723 1.731-1.407 2.508-2.067 1.38-1.172 2.684-2.279 4.43-3.399a.273.273 0 1 0-.296-.46c-1.775 1.14-3.093 2.258-4.487 3.443-.773.656-1.573 1.336-2.49 2.053-.84.655-2.81 1.845-4.254 1.662-2.571-.323-3.764-1.487-3.647-3.558.141-2.512 5.89-13.36 9.463-17.857a.274.274 0 0 0-.428-.34c-3.417 4.301-9.42 15.33-9.58 18.166-.093 1.637.548 3.681 4.124 4.132.122.015.247.022.373.022M38.988 55.754c.012 0 .024 0 .036-.003a.273.273 0 0 0 .235-.306c-.241-1.811-.402-4.174-.403-4.198a.274.274 0 0 0-.546.037c.002.024.164 2.404.407 4.233a.273.273 0 0 0 .27.237M58.379 66.981c.494 0 .931-.117 1.227-.454.252-.286.35-.705.285-1.21-.13-1.014-.874-2.19-1.77-2.795-.93-.628-1.944-.863-2.925-1.09-.38-.088-.74-.171-1.087-.275-.347-.105-.742-.275-1.16-.456-1.112-.48-2.372-1.025-3.47-.654a.31.31 0 1 0 .199.586c.872-.295 2.016.2 3.026.636.434.188.846.366 1.226.48.367.11.753.2 1.127.287.925.213 1.882.434 2.717.999.75.507 1.396 1.521 1.504 2.36.028.227.028.535-.137.723-.425.485-1.692.144-2.618-.104-.2-.053-.391-.104-.562-.144-.206-.05-.462-.13-.758-.222-1.178-.369-2.957-.925-4.66-.439a.31.31 0 0 0 .17.595c1.524-.435 3.198.089 4.305.435.307.096.573.179.8.233.166.039.35.088.545.14.644.173 1.377.37 2.016.37" fill="#1E2F4E"/>
                <path d="M59.328 66.665a.306.306 0 0 0 .166-.05c.586-.374.9-.928.909-1.6.014-1.163-.92-2.495-1.833-3.112-.93-.628-1.944-.863-2.925-1.09a17.09 17.09 0 0 1-1.087-.276c-.323-.097-.762-.32-1.226-.556-.755-.383-1.536-.78-2.196-.855-1.21-.133-1.559.254-1.637.376a.31.31 0 0 0 .505.357c.026-.023.265-.208 1.063-.117.549.061 1.312.449 1.984.791.49.249.952.484 1.33.597.365.11.751.2 1.125.286.925.214 1.882.436 2.717 1 .76.513 1.573 1.65 1.56 2.59-.005.468-.209.824-.622 1.088a.31.31 0 0 0 .167.57M42.522 19.48c.777 0 1.458-.333 1.782-.89a1.59 1.59 0 0 0 .17-1.202.272.272 0 0 0-.336-.19.272.272 0 0 0-.19.335c.068.249.025.54-.115.782-.254.435-.877.678-1.55.607a.273.273 0 0 0-.057.543c.1.01.199.016.296.016" fill="#1E2F4E"/>
                <path d="M42.683 18.226a.266.266 0 0 0 .099-.018c.002 0 .207-.08.404-.096a.273.273 0 0 0 .25-.295.278.278 0 0 0-.295-.249 2.225 2.225 0 0 0-.557.132.272.272 0 0 0 .1.526M42.36 22.118c.151 0 .274-.122.274-.273 0-.921.128-1.812.13-1.82a.273.273 0 0 0-.542-.079c-.005.038-.133.938-.134 1.899 0 .15.122.273.272.273zM37.271 20.764c1.077 0 2.171-.247 2.378-.296a.272.272 0 1 0-.126-.531c-1.278.302-3.469.512-3.91-.213-.664-1.087-.793-2.667-.768-3.35.024-.678.375-1.219.585-1.542l.086-.134c.172-.281.191-.542.21-.795.018-.232.036-.472.177-.774a5.118 5.118 0 0 1 1.063-1.467c.283-.279 1.079-.566 1.685-.682a.273.273 0 0 0-.102-.537c-.483.093-1.516.385-1.966.83a5.658 5.658 0 0 0-1.175 1.625c-.183.393-.207.71-.226.964-.017.222-.029.382-.132.55a4.546 4.546 0 0 1-.078.122c-.225.347-.643.991-.673 1.82-.028.795.118 2.459.847 3.655.358.587 1.236.755 2.125.755" fill="#1E2F4E"/>
                <path d="M36.496 23.147a.274.274 0 0 0 .272-.303c-.06-.528-.113-2.35-.113-2.367a.268.268 0 0 0-.281-.266.273.273 0 0 0-.265.282c.002.075.054 1.861.115 2.411.016.14.135.243.272.243M37.493 18.088c-.183-.106-.372-.216-.584-.28-.189-.056-.372-.03-.55-.005-.23.033-.492.07-.695-.13-.26-.255-.28-.995-.038-1.388.19-.307.51-.412.88-.287.302.101.621.132.929.16.484.046.94.09 1.243.413.256.274.355.73.34 1.039-.013.24-.09.428-.223.543a.798.798 0 0 1-.536.218c-.278 0-.54-.152-.766-.283m.785-1.145c-.16-.171-.5-.203-.894-.24-.324-.031-.69-.066-1.052-.188-.157-.053-.199 0-.224.031-.146.187-.113.65-.069.733.035.012.16-.005.244-.017.202-.03.48-.068.783.023.274.082.501.214.701.33.395.23.505.27.667.129.08-.094.044-.586-.156-.8M37.038 15.519a.272.272 0 0 0 .238-.408c-.246-.433-.213-.545-.211-.55.024-.026.16-.064.25-.088.067-.019.136-.039.204-.062.176-.06.713-.242.74-1.092a.273.273 0 0 0-.264-.282c-.15-.016-.277.113-.282.264-.015.472-.22.542-.37.593-.059.02-.118.036-.174.052-.222.062-.499.139-.61.407-.1.245-.029.552.242 1.027.05.089.142.139.237.139M40.564 14.699a.272.272 0 0 0 .171-.486 1.404 1.404 0 0 0-1.293-.262.272.272 0 1 0 .183.515.857.857 0 0 1 .769.173c.05.04.11.06.17.06" fill="#1E2F4E"/>
                <path d="M37.098 14.195a.273.273 0 0 0 .205-.453c-.326-.372-.816-.279-1.054-.165a.273.273 0 0 0 .235.493c.002 0 .273-.123.408.032.054.062.13.093.206.093M41.03 13.403a.273.273 0 0 0 .005-.547c-1-.017-1.124-.14-1.394-.41a.272.272 0 1 0-.386.386c.42.419.718.552 1.77.57h.005zM37.155 12.748c.25 0 .496-.077.665-.336a.273.273 0 0 0-.458-.298c-.093.144-.346.09-.69 0-.166-.043-.323-.084-.463-.084a.273.273 0 1 0 0 .546c.07 0 .199.033.324.066.18.048.403.106.622.106M38.167 51.228h.142c4.276-.07 9.002-1.946 10.57-3.588.387-.406.579-.794.567-1.155-.017-.583-.09-1.087-.167-1.62-.144-.997-.308-2.128-.18-4.205.2-3.252 1.386-10.791 1.685-11.492.461-1.078 1.806-2.642 3.107-4.154.818-.95 1.664-1.934 2.291-2.799 1.291-1.777 2.867-4.296 3.046-6.196.156-1.653-1.337-2.934-3.802-3.264-2.35-.314-7.688-.257-8.683-.087-.792.135-1.311 1.748-1.335 2.844-.021 1.004.331 1.658.969 1.796.352.076.824.109 1.369.146 1.022.07 2.295.156 3.71.561a.274.274 0 0 0 .15-.525c-1.47-.42-2.83-.513-3.823-.581-.524-.036-.977-.067-1.29-.135-.509-.11-.546-.91-.539-1.25.025-1.159.567-2.264.881-2.318.838-.144 6.14-.228 8.518.09 2.15.288 3.457 1.336 3.332 2.672-.132 1.386-1.177 3.491-2.945 5.927-.614.847-1.452 1.82-2.263 2.763-1.328 1.544-2.701 3.14-3.195 4.296-.353.824-1.533 8.515-1.728 11.673-.132 2.133.036 3.293.184 4.316.075.518.146 1.007.162 1.558.007.206-.137.47-.417.762-1.49 1.56-6.16 3.354-10.182 3.418-3.003.046-5.436-1.547-5.766-3.008-.037-.162-.027-.377-.013-.674.021-.454.052-1.14-.06-2.214-.085-.82-.192-1.779-.31-2.84-.449-4.01-1.062-9.502-1.296-14.55a.273.273 0 1 0-.545.025c.234 5.066.848 10.568 1.298 14.585.118 1.06.225 2.017.31 2.837.108 1.033.079 1.669.058 2.133-.016.339-.028.584.025.817.379 1.677 2.935 3.436 6.165 3.436" fill="#1E2F4E"/>
                <path d="m43.418 22.799.026-.001c.13-.012 3.202-.318 6.138-2.78 1.288-1.08 2.309-2.127 3.13-2.967.575-.59 1.03-1.057 1.364-1.312a.273.273 0 0 0-.331-.434c-.365.279-.833.758-1.425 1.365-.812.831-1.822 1.866-3.089 2.929-2.799 2.348-5.808 2.652-5.837 2.655a.273.273 0 0 0 .024.545M35.666 22.818a.273.273 0 0 0 .035-.544c-2.306-.3-5.66-1.953-10.253-5.054a.273.273 0 1 0-.305.453c4.665 3.149 8.095 4.831 10.487 5.143a.274.274 0 0 0 .036.002" fill="#1E2F4E"/>
                <path d="M30.596 29.24a.274.274 0 0 0 .169-.488c-.096-.075-9.6-7.556-10.786-11.582-.201-.685-.178-1.212.074-1.613.51-.814 1.956-1.113 3.52-1.372 2.827-.468 6.406-.794 7.752-.917.31-.028.515-.047.587-.056.053-.006.195-.024.353.233.468.752.402 2.52.253 2.864-2.144.728-5.878 1.642-5.915 1.651a.273.273 0 0 0 .13.53c.038-.008 3.868-.946 6.024-1.686.56-.192.447-2.106.277-2.847-.279-1.212-.865-1.326-1.189-1.287-.07.009-.269.027-.57.054-1.351.124-4.944.451-7.791.922-1.692.28-3.263.615-3.895 1.622-.338.54-.382 1.213-.134 2.057 1.236 4.192 10.576 11.546 10.973 11.857.05.04.11.058.168.058" fill="#1E2F4E"/>
                <path d="M32.941 16.404c.03 0 .059-.005.088-.014.777-.265 1.538-.343 1.545-.344.15-.015.26-.149.245-.299a.269.269 0 0 0-.299-.244 8.3 8.3 0 0 0-1.667.37.273.273 0 0 0 .088.531M32.583 13.577h.024c.297-.027 1.42-.304 2.084-.643.37-.189.65-.814 1.004-1.676.051-.125.1-.242.144-.345.245-.567.336-.705 1.187-.838a.273.273 0 1 0-.084-.54c-1.019.16-1.282.417-1.604 1.161-.046.106-.095.226-.148.354-.185.45-.53 1.286-.748 1.398-.59.301-1.66.565-1.882.585a.273.273 0 0 0 .023.544M38.34 50.228a.273.273 0 0 0 .269-.323c-.45-2.406-.389-3.61-.295-5.431.06-1.173.135-2.632.082-4.817-.144-6.04.113-10.063.429-10.782.568-1.295.674-2.294.75-3.024.03-.282.056-.525.103-.716.066-.264.359-.475.766-.767.699-.502 1.657-1.19 2.414-2.794a.273.273 0 0 0-.494-.232c-.697 1.475-1.588 2.115-2.24 2.583-.482.346-.863.62-.976 1.08-.056.227-.083.487-.115.789-.073.694-.174 1.644-.708 2.861-.412.94-.607 5.469-.475 11.014a57.71 57.71 0 0 1-.082 4.777c-.091 1.794-.158 3.09.304 5.56.025.13.14.222.268.222" fill="#1E2F4E"/>
                <path d="M41.608 26.76a.413.413 0 0 0 .174-.042c.57-.264 1.74-3.455 1.808-3.813.092-.492-.23-.984-.57-1.507a9.702 9.702 0 0 1-.3-.477.274.274 0 0 0-.473.273c.097.169.207.337.315.503.267.409.543.832.491 1.108-.089.47-1.029 2.75-1.426 3.318a6.488 6.488 0 0 1-.206-.415c-.286-.612-.678-1.45-1.394-1.487a.273.273 0 1 0-.03.545c.39.02.702.687.93 1.174.196.42.384.82.68.82M38.683 28.664a.273.273 0 0 0 .23-.42c-.006-.01-.576-.905-.801-1.782-.102-.399-.167-.954-.214-1.36a9.781 9.781 0 0 0-.064-.487c-.08-.444-.32-.753-.597-1.111-.265-.341-.564-.727-.844-1.355a.273.273 0 1 0-.499.223c.308.688.642 1.12.91 1.466.254.326.437.562.493.873.017.1.036.261.058.454.05.421.116.998.228 1.433.247.964.844 1.9.87 1.94.052.081.14.126.23.126" fill="#1E2F4E"/>
                <path d="M35.93 26.385c.252 0 .395-.292.584-.682.179-.365.477-.978.77-1.037a.273.273 0 1 0-.109-.535c-.556.112-.886.79-1.152 1.333a5.186 5.186 0 0 0-.036.075c-.074-.494-.123-1.36-.105-2.088.015-.687.625-1.228.631-1.233a.273.273 0 0 0-.357-.413c-.033.029-.8.701-.82 1.633-.025 1.042.007 2.81.503 2.935a.372.372 0 0 0 .092.012M44.472 11.083a.273.273 0 0 0 .222-.432c-.76-1.062-1.896-1.772-3.038-1.896-.717-.08-1.366.09-1.781.463a.273.273 0 1 0 .365.406c.3-.269.794-.39 1.357-.326.99.108 1.981.733 2.653 1.671a.271.271 0 0 0 .222.114M37.551 10.291a.273.273 0 0 0 .077-.535 1.282 1.282 0 0 1-.204-.078c.168.004.365-.013.584-.06.344-.076.573-.184.776-.28.269-.126.463-.22.867-.206.147.015.277-.114.28-.265a.272.272 0 0 0-.264-.281c-.538-.017-.83.124-1.116.259a2.843 2.843 0 0 1-.66.24c-.712.155-1.033-.114-1.046-.125a.276.276 0 0 0-.314-.033.273.273 0 0 0-.139.279c.005.033.138.798 1.083 1.075.025.007.051.01.076.01M43.092 20.972a.273.273 0 0 0 .23-.42c.002 0-.115-.27.171-.883.197-.42.49-.608.83-.826.404-.258.86-.55 1.11-1.264a.273.273 0 1 0-.515-.18c-.187.536-.512.744-.89.985-.358.23-.765.49-1.03 1.054-.114.245-.18.455-.214.633a.864.864 0 0 1-.037-.063.273.273 0 0 0-.482.256c.236.446.689.67.708.68.038.019.079.028.12.028M41.852 13.722c.035 0 .068-.002.1-.005a.272.272 0 0 0 .113-.506c-.019-.013-.586-.4-.442-1.78a.273.273 0 1 0-.544-.057c-.075.724.026 1.24.174 1.598-.261-.177-.539-.506-.702-1.117-.098-.364-.14-.648-.172-.855-.047-.315-.081-.542-.276-.675-.193-.133-.44-.091-.72-.029a.273.273 0 0 0 .119.533c.163-.037.244-.045.283-.045.019.06.038.185.055.298.033.22.078.52.183.914.368 1.376 1.306 1.726 1.83 1.726" fill="#1E2F4E"/>
                <path d="M36.504 11.876a.274.274 0 0 0 .26-.357c-.253-.785.48-1.38.488-1.386a.272.272 0 1 0-.34-.428c-.043.034-1.035.841-.668 1.982.037.116.145.189.26.189M45.793 12.129h.01c1.057-.038 1.304-.803 1.314-.835a.274.274 0 0 0-.097-.3c-.1-.074-.204-.06-.306-.047-.148.02-.423.056-.71-.094a.273.273 0 1 0-.252.485c.163.085.323.13.47.154a1.192 1.192 0 0 1-.439.091.273.273 0 0 0 .01.546M42.373 15.238a.273.273 0 0 0 .072-.537c-.737-.202-.872-1.277-.874-1.287a.273.273 0 1 0-.542.064c.007.058.183 1.451 1.271 1.75a.27.27 0 0 0 .073.01M48.976 8.996c.15 0 .273-.122.273-.273V3.87a.273.273 0 0 0-.546 0v4.854c0 .15.122.273.273.273M46.302 6.92c.15 0 .273-.122.273-.273V1.793a.273.273 0 0 0-.546 0v4.854c0 .151.122.273.273.273M43.59 5.858c.15 0 .272-.122.272-.273V.731a.273.273 0 0 0-.546 0v4.854c0 .15.123.273.273.273M40.607 5.4c.151 0 .273-.122.273-.273V.273a.273.273 0 0 0-.545 0v4.854c0 .15.122.273.272.273M37.644 5.907c.15 0 .273-.122.273-.273V.78a.273.273 0 0 0-.546 0v4.855c0 .15.123.273.273.273M34.932 6.953c.15 0 .273-.122.273-.273V1.825a.273.273 0 0 0-.546 0V6.68c0 .15.122.273.273.273M32.239 9.029c.15 0 .273-.122.273-.273V3.902a.273.273 0 0 0-.546 0v4.854c0 .15.122.273.273.273" fill="#1E2F4E"/>
            </g>
        </g>
        <path d="M76.781 69.2c-2.997.309-8.332.463-16.003.463-1.852 0-2.778-.86-2.778-2.58 0-1.719.926-2.578 2.778-2.578 1.74 0 4.354-.077 7.837-.232 3.482-.153 6.094-.23 7.836-.23 1.962 0 2.943.859 2.943 2.578 0 1.521-.871 2.38-2.613 2.58" fill="#A64553"/>
        <g transform="translate(85.842 28)">
            <mask id="j6sgiz3xjo" fill="#fff">
                <use xlink:href="#zb1hp6nnzn"/>
            </mask>
            <path d="M22.022 2.81V8.4h.132c2.116 0 4.53.364 7.241 1.09 3.55.95 5.324 2.162 5.324 3.638 0 1.94-.98 2.91-2.943 2.91-.882 0-2.43-.236-4.646-.71-2.215-.475-3.918-.701-5.108-.68v13.459c4.871.441 8.685 2.04 11.44 4.794 2.513 2.558 3.77 5.644 3.77 9.259 0 4.43-1.533 8.101-4.597 11.011-2.71 2.558-6.249 4.243-10.613 5.06v8.795c0 .86-.282 1.57-.844 2.132S19.905 70 19.046 70c-1.94 0-2.91-.97-2.91-2.91V58.66C5.377 58.504 0 55.716 0 50.293c0-1.984.915-2.976 2.744-2.976 1.036 0 2.028.408 2.976 1.224 1.41 1.213 2.48 2.006 3.208 2.38 1.763.882 4.166 1.39 7.207 1.522V33.694h-.264c-3.417-.132-6.37-.97-8.862-2.513-3.085-1.895-4.629-4.53-4.629-7.902 0-3.02 1.411-5.864 4.233-8.532 2.601-2.468 5.775-4.265 9.522-5.39V3.01c0-.86.293-1.576.877-2.15C17.596.288 18.318 0 19.178 0c1.895 0 2.844.937 2.844 2.81m-5.887 24.767V15.706c-4.386 1.654-6.58 4.211-6.58 7.671 0 2.14 2.194 3.538 6.58 4.2m5.887 6.977v17.194c2.336-.794 4.287-1.961 5.852-3.505 1.742-1.763 2.612-3.67 2.612-5.72 0-3.836-2.821-6.492-8.464-7.969" fill="#A64553" mask="url(#j6sgiz3xjo)"/>
        </g>
    </g>
</svg>
