<svg width="200" height="200" viewBox="0 0 200 200" xmlns="http://www.w3.org/2000/svg" xmlns:xlink="http://www.w3.org/1999/xlink">
    <defs>
        <filter x="-5.6%" y="-2.8%" width="111.1%" height="111.1%" filterUnits="objectBoundingBox" id="uhjap42seb">
            <feOffset dy="5" in="SourceAlpha" result="shadowOffsetOuter1"/>
            <feGaussianBlur stdDeviation="2.5" in="shadowOffsetOuter1" result="shadowBlurOuter1"/>
            <feComposite in="shadowBlurOuter1" in2="SourceAlpha" operator="out" result="shadowBlurOuter1"/>
            <feColorMatrix values="0 0 0 0 0 0 0 0 0 0 0 0 0 0 0 0 0 0 0.2 0" in="shadowBlurOuter1"/>
        </filter>
        <filter x="-.3%" y="-.3%" width="100.6%" height="100.6%" filterUnits="objectBoundingBox" id="qeg6e7rhpg">
            <feOffset dy="1" in="SourceAlpha" result="shadowOffsetInner1"/>
            <feComposite in="shadowOffsetInner1" in2="SourceAlpha" operator="arithmetic" k2="-1" k3="1" result="shadowInnerInner1"/>
            <feColorMatrix values="0 0 0 0 0 0 0 0 0 0 0 0 0 0 0 0 0 0 0.2 0" in="shadowInnerInner1"/>
        </filter>
        <circle id="92chu671oa" cx="90" cy="90" r="90"/>
        <circle id="2l927v01sd" cx="90" cy="90" r="90"/>
        <path d="M90 12c45.287 0 82 35.817 82 80s-36.713 80-82 80S8 136.183 8 92s36.713-80 82-80zm0 2.051c-44.167 0-79.95 34.91-79.95 77.949 0 43.038 35.783 77.949 79.95 77.949s79.95-34.91 79.95-77.949c0-43.038-35.783-77.949-79.95-77.949z" id="rg2ag1ks8f"/>
    </defs>
    <g fill="none" fill-rule="evenodd">
        <g transform="translate(10 10)">
            <mask id="9y6kqmiacc" fill="#fff">
                <use xlink:href="#92chu671oa"/>
            </mask>
            <g fill="#000">
                <use filter="url(#uhjap42seb)" xlink:href="#92chu671oa"/>
                <use fill-opacity=".5" xlink:href="#92chu671oa"/>
            </g>
            <circle stroke="#D95555" fill="#FFF" mask="url(#9y6kqmiacc)" cx="90" cy="84" r="89.5"/>
            <g mask="url(#9y6kqmiacc)">
                <g transform="translate(0 -6)">
                    <mask id="0cmn4ltdde" fill="#fff">
                        <use xlink:href="#2l927v01sd"/>
                    </mask>
                    <circle stroke="#D95555" cx="90" cy="90" r="89.5"/>
                    <g fill-rule="nonzero" mask="url(#0cmn4ltdde)">
                        <use fill="#D95555" xlink:href="#rg2ag1ks8f"/>
                        <use fill="#000" filter="url(#qeg6e7rhpg)" xlink:href="#rg2ag1ks8f"/>
                    </g>
                    <path d="M90 176.25a.75.75 0 0 1 .743.648l.007.102v10a.75.75 0 0 1-1.493.102L89.25 187v-10a.75.75 0 0 1 .75-.75zm-5.842-.204a.75.75 0 0 1 .696.698v.102l-.698 9.976a.75.75 0 0 1-1.496-.003v-.102l.697-9.975a.75.75 0 0 1 .8-.696zm22.675-.84.027.098 1.908 9.817a.75.75 0 0 1-1.447.384l-.026-.098-1.908-9.816a.75.75 0 0 1 1.446-.385zm-38.51-1.81a.75.75 0 0 1 .551.819l-.02.1-2.588 9.66a.75.75 0 0 1-1.469-.289l.02-.1 2.588-9.66a.75.75 0 0 1 .919-.53zm44.239.434.033.097 2.588 9.659a.75.75 0 0 1-1.416.485l-.033-.097-2.588-9.66a.75.75 0 0 1 1.416-.484zm-49.828-2.143a.75.75 0 0 1 .491.855l-.026.098-3.256 9.456a.75.75 0 0 1-1.445-.39l.027-.099 3.255-9.455a.75.75 0 0 1 .954-.465zm64.932-3.656.05.088 4.384 8.988a.75.75 0 0 1-1.297.746l-.051-.088-4.384-8.988a.75.75 0 0 1 1.298-.746zm-79.541-3.001a.75.75 0 0 1 .32.933l-.045.091-5 8.66a.75.75 0 0 1-1.344-.658l.044-.092 5-8.66a.75.75 0 0 1 1.025-.274zm84.718.19.057.084 5 8.66a.75.75 0 0 1-1.243.835l-.057-.085-5-8.66a.75.75 0 0 1 1.243-.835zm-89.675-3.288a.75.75 0 0 1 .257.945l-.055.096-5.592 8.29a.75.75 0 0 1-1.299-.742l.055-.096 5.592-8.29a.75.75 0 0 1 1.042-.203zm102.756-6.23.079.079 6.56 7.547a.75.75 0 0 1-1.053 1.062l-.078-.078-6.561-7.547a.75.75 0 0 1 1.053-1.062zm4.273-4.054.084.072 7.07 7.071a.75.75 0 0 1-.976 1.134l-.084-.073-7.07-7.071a.75.75 0 0 1 .976-1.133zm-119.417.072a.75.75 0 0 1 .072.977l-.072.084-7.071 7.07a.75.75 0 0 1-1.134-.976l.073-.084 7.071-7.07a.75.75 0 0 1 1.06 0zm-3.987-4.275a.75.75 0 0 1 .004.98l-.078.078-7.547 6.56a.75.75 0 0 1-1.062-1.053l.078-.078 7.547-6.561a.75.75 0 0 1 1.058.074zm133.584-8.37.096.055 8.29 5.592a.75.75 0 0 1-.742 1.299l-.096-.055-8.29-5.592a.75.75 0 0 1 .742-1.3zm-142.907-4.7a.75.75 0 0 1-.19.968l-.084.057-8.66 5a.75.75 0 0 1-.835-1.243l.085-.057 8.66-5a.75.75 0 0 1 1.024.275zm145.993-.32.091.045 8.66 5a.75.75 0 0 1-.658 1.344l-.092-.044-8.66-5a.75.75 0 0 1 .659-1.344zm-148.737-4.841a.75.75 0 0 1-.257.952l-.088.05-8.988 4.384a.75.75 0 0 1-.746-1.297l.088-.051 8.988-4.384a.75.75 0 0 1 1.003.346zm155.316-9.94.098.027 9.456 3.256a.75.75 0 0 1-.39 1.445l-.099-.027-9.455-3.255a.75.75 0 0 1 .39-1.445zm1.673-5.648.1.02 9.66 2.588a.75.75 0 0 1-.289 1.469l-.1-.02-9.66-2.588a.75.75 0 0 1 .289-1.469zm-162.611.55a.75.75 0 0 1-.434.886l-.097.033-9.659 2.588a.75.75 0 0 1-.485-1.416l.097-.033 9.66-2.588a.75.75 0 0 1 .918.53zm-1.315-5.696a.75.75 0 0 1-.495.853l-.098.027-9.817 1.908a.75.75 0 0 1-.384-1.447l.098-.026 9.816-1.908a.75.75 0 0 1 .88.593zm166.455-10.834h.102l9.976.698a.75.75 0 0 1-.003 1.496h-.102l-9.975-.697a.75.75 0 0 1 .002-1.497zM5.5 91.75a.75.75 0 0 1 .102 1.493l-.102.007h-10a.75.75 0 0 1-.102-1.493l.102-.007h10zm179 0a.75.75 0 0 1 .102 1.493l-.102.007h-10a.75.75 0 0 1-.102-1.493l.102-.007h10zM-4.217 85.16l9.975.697a.75.75 0 0 1-.002 1.497h-.102l-9.976-.698a.75.75 0 0 1 .003-1.496h.102zM183.5 74.325a.75.75 0 0 1-.495.854l-.098.026-9.816 1.908a.75.75 0 0 1-.385-1.446l.098-.027 9.817-1.908a.75.75 0 0 1 .879.593zM-1.186 67.297l.1.02 9.66 2.588a.75.75 0 0 1-.289 1.469l-.1-.02-9.66-2.588a.75.75 0 0 1 .289-1.469zm183.19.55a.75.75 0 0 1-.433.886l-.097.033-9.66 2.588a.75.75 0 0 1-.484-1.416l.097-.033 9.659-2.588a.75.75 0 0 1 .918.53zM.794 60.998l.099.027 9.455 3.255a.75.75 0 0 1-.39 1.445L9.86 65.7.404 62.443a.75.75 0 0 1 .39-1.445zM175.61 50.745a.75.75 0 0 1-.257.952l-.088.051-8.988 4.384a.75.75 0 0 1-.746-1.298l.088-.05 8.988-4.384a.75.75 0 0 1 1.003.345zm-3.121-5.87a.75.75 0 0 1-.19.968l-.085.057-8.66 5a.75.75 0 0 1-.835-1.243l.085-.057 8.66-5a.75.75 0 0 1 1.025.275zm-164.045-.32.092.045 8.66 5a.75.75 0 0 1-.659 1.344l-.091-.044-8.66-5a.75.75 0 0 1 .658-1.344zm3.535-5.576.096.055 8.29 5.592a.75.75 0 0 1-.742 1.3l-.096-.056-8.29-5.592a.75.75 0 0 1 .742-1.299zm149.907-8.969a.75.75 0 0 1 .004.98l-.078.078-7.547 6.561a.75.75 0 0 1-1.062-1.053l.078-.079 7.547-6.56a.75.75 0 0 1 1.058.073zM23.625 25.075l.084.073 7.07 7.071a.75.75 0 0 1-.976 1.133l-.084-.072-7.07-7.071a.75.75 0 0 1 .976-1.134zm133.727.073a.75.75 0 0 1 .073.977l-.073.084-7.071 7.07a.75.75 0 0 1-1.133-.976l.072-.084 7.071-7.07a.75.75 0 0 1 1.06 0zM28.49 20.61l.078.078 6.561 7.547a.75.75 0 0 1-1.053 1.062l-.079-.078-6.56-7.547a.75.75 0 0 1 1.053-1.062zm114.773-7.076a.75.75 0 0 1 .258.945l-.055.096-5.592 8.29a.75.75 0 0 1-1.3-.742l.056-.096 5.592-8.29a.75.75 0 0 1 1.041-.203zm-5.638-3.523a.75.75 0 0 1 .32.933l-.045.092-5 8.66a.75.75 0 0 1-1.344-.659l.044-.091 5-8.66a.75.75 0 0 1 1.025-.275zm-94.282.19.057.085 5 8.66a.75.75 0 0 1-1.243.835l-.057-.085-5-8.66a.75.75 0 0 1 1.243-.835zm5.854-3.054.051.088 4.384 8.988a.75.75 0 0 1-1.298.746l-.05-.088L47.9 7.893a.75.75 0 0 1 1.297-.746zm71.813-4.708a.75.75 0 0 1 .492.855l-.027.099-3.255 9.455a.75.75 0 0 1-1.445-.39l.026-.098 3.256-9.456a.75.75 0 0 1 .953-.465zM66.233.93l.033.097 2.588 9.66a.75.75 0 0 1-1.416.484l-.033-.097-2.588-9.659A.75.75 0 0 1 66.233.93zm48.42-.433a.75.75 0 0 1 .55.818l-.02.1-2.588 9.66a.75.75 0 0 1-1.469-.289l.02-.1 2.588-9.66a.75.75 0 0 1 .919-.53zM72.679-.505l.026.098 1.908 9.816a.75.75 0 0 1-1.446.385l-.027-.098-1.908-9.817a.75.75 0 0 1 1.447-.384zm23.863-2.013h.102a.75.75 0 0 1 .696.699v.102l-.697 9.975a.75.75 0 0 1-1.497-.002v-.102l.698-9.976a.75.75 0 0 1 .698-.696zM90-2.75a.75.75 0 0 1 .743.648L90.75-2V8a.75.75 0 0 1-1.493.102L89.25 8V-2a.75.75 0 0 1 .75-.75z" fill="#D95555" fill-rule="nonzero" mask="url(#0cmn4ltdde)"/>
                </g>
            </g>
        </g>
        <path d="M162.907 154.93c0 2.685-22.279 4.856-49.736 4.856-13.917 0-26.492-.556-35.516-1.454-2.698 1.583-8.24 2.668-14.634 2.668-9.056 0-16.386-2.17-16.386-4.855 0-2.685 7.34-4.856 16.386-4.856 3.47 0 6.69.32 9.34.865 8.842-1.236 23.436-2.052 39.988-2.078h.822c27.457 0 49.736 2.17 49.736 4.855z" fill="#000" opacity=".2"/>
        <path d="m144.377 46.724 5.902-.028 1.136 2.993 1.14-3.004h.17l1.14 3.004 1.145-3.015.24-.001 1.145 3.016 1.15-3.028h.15l1.15 3.028 1.153-3.04.42-.002c.524 12.684-3.46 13.392-3.46 13.392h-12.7l.119-13.315z" fill="#FEFEFE"/>
        <path d="M151.192 60.325h-7.223l.125-13.885 6.382-.03.94 2.474.942-2.484.563-.002.944 2.487.948-2.496.634-.003.948 2.498.952-2.508.545-.002.953 2.51.956-2.519.89-.005.012.275c.529 12.786-3.523 13.654-3.696 13.685l-5.815.005zm-6.647-.571h12.413c-.018-.003 3.596-.897 3.19-12.693l-1.303 3.432-1.225-3.226-1.225 3.226-1.265-3.333-1.265 3.333-1.225-3.227-1.225 3.227-1.332-3.51-5.423.026-.115 12.745z" fill="#1E2F4E"/>
        <path d="M151.192 60.446h-7.346l.128-14.127 6.586-.03.855 2.253.86-2.262.73-.003.86 2.266.863-2.275.803-.004.864 2.278.869-2.286.712-.003.87 2.29.87-2.299 1.092-.006.017.393c.532 12.89-3.62 13.778-3.796 13.809l-5.837.006zm-7.1-.243 12.915-.004c.148-.028 4.099-.878 3.574-13.559l-.006-.158-.326.002.02.573c.367 10.655-2.551 12.503-3.184 12.777l.004.041h-12.666l.117-12.987 5.626-.027 1.25 3.29 1.224-3.227 1.225 3.227 1.265-3.332 1.265 3.332 1.225-3.226 1.225 3.227 1.392-3.668-.352.002-1.04 2.74-1.037-2.73-.377.001-1.036 2.73-1.03-2.72-.469.003-1.03 2.717-1.028-2.707-.397.001-1.026 2.706-1.022-2.696-6.178.03-.123 13.642zm.576-.57h12.269c.402-.143 3.353-1.547 3.107-11.957l-1.199 3.16-1.225-3.227-1.225 3.227-1.265-3.334-1.265 3.333-1.225-3.227-1.225 3.228L150 47.105l-5.218.025-.113 12.502z" fill="#1E2F4E"/>
        <path d="M139.711 38.145h7.744s4.628.402 4.628 7.636v7.34c0 6.47 2.569 6.918 2.569 6.918h-21.767l-.512-21.894h7.338z" fill="#DBDCDC"/>
        <path d="M154.651 60.325h-22.045l-.525-22.466h15.374c.076.006 1.288.122 2.5 1.175 1.101.956 2.413 2.903 2.413 6.747v7.34c0 6.09 2.313 6.633 2.336 6.638l2.761.565h-2.814zm-21.488-.571h20.47c-.812-.765-1.836-2.54-1.836-6.634v-7.339c0-6.866-4.19-7.335-4.368-7.352l-14.764.001.498 21.324z" fill="#1E2F4E"/>
        <path d="M154.651 60.446h-22.164l-.53-22.708h15.498c.062.004 1.318.108 2.58 1.205 1.12.972 2.455 2.948 2.455 6.838v7.34c0 5.924 2.219 6.514 2.241 6.52l3.93.804-4.01.001zm-21.926-.243h23.544l-1.59-.325c-.1-.021-2.432-.592-2.432-6.758v-7.339c0-3.798-1.29-5.715-2.37-6.655-1.203-1.044-2.419-1.144-2.43-1.146l-15.242.001.52 22.222zm21.214-.328h-20.894l-.505-21.566h14.89c.193.017 4.489.5 4.489 7.472v7.34c0 4.01.977 5.772 1.797 6.545l.223.21zm-20.657-.243h20.064c-.805-.896-1.67-2.737-1.67-6.512v-7.339c0-6.754-4.084-7.214-4.258-7.23H132.79l.493 21.081z" fill="#1E2F4E"/>
        <path d="M113.239 38.145H145.2s-3.536.927-3.536 8.265v31.378h-32.85V49.092c0-10.266 4.424-10.947 4.424-10.947" fill="#FEFEFE"/>
        <path d="M141.95 78.074h-33.42V49.092c0-10.392 4.475-11.2 4.665-11.23l.044-.003h34.179l-2.144.562c-.032.009-3.324.997-3.324 7.99v31.663zm-32.85-.571h32.28V46.41c0-5.001 1.61-7.116 2.721-7.98h-30.834c-.294.068-4.167 1.14-4.167 10.662v28.41z" fill="#1E2F4E"/>
        <path d="M142.072 78.195h-33.664V49.092c0-10.49 4.574-11.319 4.769-11.35l.052-.003h35.132l-3.057.8c-.03.008-3.232 1.027-3.232 7.871v31.785zm-33.42-.243h33.176V46.41c0-7.066 3.379-8.096 3.413-8.106l1.234-.323-33.27.003c-.178.028-4.554.824-4.554 11.108v28.86zm32.849-.328h-32.522V49.092c0-9.532 3.824-10.68 4.26-10.78l31.216-.003-.279.218c-.999.776-2.675 2.832-2.675 7.883v31.214zm-32.279-.243h32.036v-30.97c0-4.745 1.47-6.917 2.51-7.86h-30.501c-.14.036-4.045 1.036-4.045 10.541v28.29z" fill="#1E2F4E"/>
        <path d="M114.787 67.524h-3.174a.661.661 0 0 1 0-1.323h3.174a.662.662 0 0 1 0 1.323m6.349 0h-3.175a.661.661 0 0 1 0-1.323h3.175a.662.662 0 0 1 0 1.323m6.349 0h-3.175a.661.661 0 0 1 0-1.323h3.175a.662.662 0 0 1 0 1.323m6.349 0h-3.175a.662.662 0 1 1 0-1.323h3.175a.662.662 0 0 1 0 1.323m5.616 0h-2.442a.662.662 0 1 1 0-1.323h2.442a.661.661 0 0 1 0 1.323" fill="#1E2F4E"/>
        <path fill="#A64553" d="M93.32 1.623 79.996 17.06h5.107V153.43h16.43V17.06h5.107L96.975 1.623z"/>
        <path stroke="#1E2F4E" d="M93.32 1.623 79.996 17.06h5.107V153.43h16.43V17.06h5.107L96.975 1.623z"/>
        <path d="M101.82 153.714h-17V17.345h-5.447L93.19 1.337h3.945l.083.134 9.94 15.874h-5.338v136.37zm-16.43-.57h15.858V16.774h4.878L96.818 1.908H93.45L80.62 16.774h4.77v136.37z" fill="#1E2F4E"/>
        <path d="M101.94 153.836H84.699V17.466h-5.59l.173-.2 13.852-16.05H97.2l.12.19 10.056 16.06h-5.436v136.37zm-17-.243h16.758V17.224h5.24L97.067 1.458h-3.822L79.638 17.224h5.303v136.369zm16.43-.328H85.269V16.895h-4.914l.173-.2L93.394 1.787h3.492l.035.056 9.424 15.053h-4.975v136.37zm-15.858-.243h15.615V16.653h4.78L96.75 2.03h-3.244L80.884 16.653h4.628v136.369z" fill="#1E2F4E"/>
        <path fill="#A64553" d="M83.946 17.06h5.108V153.43h16.43V17.06h5.107L97.268 1.622z"/>
        <path d="M105.769 153.714h-17V17.345h-5.447l13.946-16.16 13.947 16.16h-5.446v136.37zm-16.429-.57h15.858V16.774h4.77L97.268 2.06l-12.7 14.715h4.772v136.37z" fill="#1E2F4E"/>
        <path d="M105.89 153.836H88.647V17.466h-5.59l.173-.2L97.268 1l14.212 16.467h-5.59v136.369zm-17-.243h16.757V17.224h5.303L97.268 1.371l-13.68 15.853h5.303v136.369zm16.43-.328H89.218V16.895h-4.914l.173-.2L97.268 1.874l12.965 15.022h-4.913v136.37zm-15.858-.243h15.614V16.653h4.628L97.268 2.245 84.834 16.653h4.628v136.369z" fill="#1E2F4E"/>
        <path fill="#CD6170" d="m94.347 54.21-13.58-21.685h-5.135L56.917 54.21h7.175v99.218h23.079V54.211z"/>
        <path stroke="#1E2F4E" d="m94.347 54.21-13.58-21.685h-5.135L56.917 54.21h7.175v99.218h23.079V54.211z"/>
        <path d="M87.456 153.714h-23.65V54.496h-7.513l19.21-22.257h5.423l.084.134 13.853 22.123h-7.407v99.218zm-23.078-.57h22.508V53.925h6.946L80.61 32.81h-4.847L57.54 53.925h6.838v99.219z" fill="#1E2F4E"/>
        <path d="M87.578 153.836H63.685V54.618h-7.657l19.418-22.5h5.547l.12.19 13.969 22.31h-7.504v99.218zm-23.65-.243h23.407V54.375h7.309L80.859 32.36h-5.302L56.56 54.375h7.37v99.218zm23.08-.328H64.255V54.047h-6.98l18.431-21.358h4.97l.037.057 13.337 21.3h-7.044v99.22zm-22.509-.243h22.265V53.804h6.848l-13.07-20.872h-4.724L57.805 53.804H64.5v99.218z" fill="#1E2F4E"/>
        <path fill="#CD6170" d="M99.895 54.21 81.18 32.526 62.465 54.21h7.176v99.218H92.72V54.211z"/>
        <path stroke="#1E2F4E" d="M99.895 54.21 81.18 32.526 62.465 54.21h7.176v99.218H92.72V54.211z"/>
        <path d="M93.005 153.714h-23.65V54.496h-7.513L81.18 32.088l19.338 22.408h-7.513v99.218zm-23.079-.57h22.508V53.925h6.838L81.18 32.962 63.089 53.925h6.837v99.219z" fill="#1E2F4E"/>
        <path d="M93.127 153.836H69.233V54.618h-7.656L81.18 31.902l19.603 22.716h-7.656v99.218zm-23.65-.243h23.407V54.375h7.37L81.18 32.273 62.107 54.375h7.37v99.218zm23.079-.328H69.804V54.047h-6.98l18.356-21.27 18.357 21.27h-6.981v99.218zm-22.508-.243h22.265V53.804h6.694L81.18 33.148 63.354 53.804h6.694v99.218z" fill="#1E2F4E"/>
        <path d="M150.896 153.429H101.82a2.032 2.032 0 0 1-2.026-2.026V79.168c0-1.114.911-2.026 2.026-2.026h49.075c1.114 0 2.025.912 2.025 2.026v72.235a2.031 2.031 0 0 1-2.025 2.026" fill="#B4B5B5"/>
        <path d="M150.896 153.714H101.82a2.314 2.314 0 0 1-2.312-2.311V79.168a2.314 2.314 0 0 1 2.312-2.31h49.075a2.313 2.313 0 0 1 2.31 2.31v72.235a2.314 2.314 0 0 1-2.31 2.311zM101.82 77.428c-.96 0-1.74.78-1.74 1.74v72.235c0 .96.78 1.74 1.74 1.74h49.075c.96 0 1.74-.78 1.74-1.74V79.168c0-.96-.78-1.74-1.74-1.74H101.82z" fill="#1E2F4E"/>
        <path d="M150.896 153.836H101.82a2.436 2.436 0 0 1-2.433-2.433V79.168a2.436 2.436 0 0 1 2.433-2.432h49.075a2.435 2.435 0 0 1 2.432 2.432v72.235a2.436 2.436 0 0 1-2.432 2.433zM101.82 76.979c-1.208 0-2.19.982-2.19 2.19v72.234c0 1.208.982 2.19 2.19 2.19h49.075c1.207 0 2.19-.982 2.19-2.19V79.168c0-1.207-.983-2.19-2.19-2.19H101.82zm49.075 76.286H101.82a1.864 1.864 0 0 1-1.862-1.862V79.168c0-1.026.835-1.862 1.862-1.862h49.075c1.026 0 1.861.836 1.861 1.862v72.235a1.864 1.864 0 0 1-1.861 1.862zM101.82 77.55a1.62 1.62 0 0 0-1.62 1.618v72.235c0 .893.727 1.619 1.62 1.619h49.075a1.62 1.62 0 0 0 1.618-1.62V79.169a1.62 1.62 0 0 0-1.618-1.618H101.82z" fill="#1E2F4E"/>
        <path d="M147.354 153.429H98.278a2.031 2.031 0 0 1-2.025-2.025V79.168c0-1.114.912-2.026 2.026-2.026h49.076c1.113 0 2.025.912 2.025 2.026v72.235a2.032 2.032 0 0 1-2.026 2.026" fill="#DBDCDC"/>
        <path d="M147.354 153.714H98.278a2.313 2.313 0 0 1-2.31-2.31V79.167a2.313 2.313 0 0 1 2.31-2.31h49.077a2.313 2.313 0 0 1 2.31 2.31v72.235a2.314 2.314 0 0 1-2.311 2.311zM98.279 77.428c-.96 0-1.74.78-1.74 1.74v72.235c0 .96.78 1.74 1.74 1.74h49.075c.96 0 1.74-.78 1.74-1.74V79.168c0-.96-.78-1.74-1.74-1.74H98.28z" fill="#1E2F4E"/>
        <path d="M147.354 153.836H98.278a2.435 2.435 0 0 1-2.432-2.433V79.168a2.435 2.435 0 0 1 2.433-2.432h49.076a2.435 2.435 0 0 1 2.432 2.432v72.235a2.436 2.436 0 0 1-2.433 2.433zM98.279 76.979c-1.208 0-2.19.982-2.19 2.19v72.234c0 1.208.982 2.19 2.19 2.19h49.075c1.207 0 2.19-.982 2.19-2.19V79.168c0-1.207-.983-2.19-2.19-2.19H98.28zm49.075 76.286H98.278a1.864 1.864 0 0 1-1.861-1.862V79.168c0-1.026.835-1.862 1.862-1.862h49.076c1.026 0 1.86.836 1.86 1.862v72.235a1.864 1.864 0 0 1-1.861 1.862zM98.279 77.55a1.62 1.62 0 0 0-1.619 1.618v72.235a1.62 1.62 0 0 0 1.618 1.619h49.076a1.62 1.62 0 0 0 1.619-1.62V79.169a1.62 1.62 0 0 0-1.618-1.618H98.279z" fill="#1E2F4E"/>
        <path d="M100.386 89.603V82.35c0-.854.692-1.547 1.546-1.547h41.838c.854 0 1.547.693 1.547 1.547v7.253c0 .855-.693 1.547-1.547 1.547h-41.838a1.547 1.547 0 0 1-1.546-1.547" fill="#F7C496"/>
        <path d="M143.77 91.435h-41.837a1.834 1.834 0 0 1-1.833-1.832V82.35c0-1.011.822-1.833 1.833-1.833h41.837c1.01 0 1.832.822 1.832 1.833v7.253c0 1.01-.821 1.832-1.832 1.832zm-41.837-10.347c-.696 0-1.262.566-1.262 1.262v7.253c0 .695.566 1.261 1.262 1.261h41.837c.695 0 1.261-.566 1.261-1.261V82.35c0-.696-.566-1.262-1.261-1.262h-41.837z" fill="#1E2F4E"/>
        <path d="M143.77 91.557h-41.837a1.956 1.956 0 0 1-1.954-1.954V82.35c0-1.078.876-1.954 1.954-1.954h41.837c1.077 0 1.954.876 1.954 1.954v7.253a1.956 1.956 0 0 1-1.954 1.954zm-41.837-10.918c-.944 0-1.711.767-1.711 1.71v7.254c0 .943.767 1.71 1.71 1.71h41.838c.943 0 1.71-.767 1.71-1.71V82.35c0-.944-.767-1.71-1.71-1.71h-41.837zm41.837 10.347h-41.837c-.763 0-1.383-.621-1.383-1.383V82.35c0-.763.62-1.383 1.383-1.383h41.837c.762 0 1.383.62 1.383 1.383v7.253c0 .762-.62 1.383-1.383 1.383zm-41.837-9.776a1.14 1.14 0 0 0-1.14 1.14v7.253c0 .628.511 1.14 1.14 1.14h41.837a1.14 1.14 0 0 0 1.14-1.14V82.35a1.14 1.14 0 0 0-1.14-1.14h-41.837z" fill="#1E2F4E"/>
        <path d="M121.825 99.763c0 .75-.607 1.359-1.358 1.359h-6.037a1.358 1.358 0 0 1 0-2.717h6.037c.75 0 1.358.608 1.358 1.358" fill="#F39F59"/>
        <path d="M120.467 101.407h-6.036a1.645 1.645 0 0 1 0-3.287h6.036c.906 0 1.644.737 1.644 1.643s-.738 1.644-1.644 1.644zm-6.036-2.717a1.073 1.073 0 0 0 0 2.146h6.036c.591 0 1.073-.482 1.073-1.073s-.482-1.073-1.073-1.073h-6.036z" fill="#1E2F4E"/>
        <path d="M120.467 101.529h-6.036a1.768 1.768 0 0 1-1.765-1.766c0-.973.792-1.765 1.765-1.765h6.036c.973 0 1.765.792 1.765 1.765 0 .973-.792 1.766-1.765 1.766zm-6.036-3.288a1.523 1.523 0 0 0 0 3.044h6.036c.84 0 1.522-.682 1.522-1.522 0-.839-.683-1.522-1.522-1.522h-6.036zm6.036 2.717h-6.036a1.196 1.196 0 0 1 0-2.389h6.036c.658 0 1.194.536 1.194 1.194 0 .658-.536 1.195-1.194 1.195zm-6.036-2.146a.952.952 0 0 0 0 1.902h6.036a.952.952 0 0 0 0-1.902h-6.036z" fill="#1E2F4E"/>
        <path d="M132.63 99.763c0 .75-.608 1.359-1.358 1.359h-6.037a1.358 1.358 0 0 1 0-2.717h6.037c.75 0 1.358.608 1.358 1.358" fill="#90D2EB"/>
        <path d="M131.272 101.407h-6.036a1.646 1.646 0 0 1-1.644-1.644c0-.906.737-1.643 1.644-1.643h6.036c.907 0 1.644.737 1.644 1.643s-.737 1.644-1.644 1.644zm-6.036-2.717a1.074 1.074 0 0 0 0 2.146h6.036c.592 0 1.073-.482 1.073-1.073s-.481-1.073-1.073-1.073h-6.036z" fill="#1E2F4E"/>
        <path d="M131.272 101.529h-6.036a1.768 1.768 0 0 1-1.766-1.766c0-.973.792-1.765 1.766-1.765h6.036c.974 0 1.766.792 1.766 1.765 0 .973-.792 1.766-1.766 1.766zm-6.036-3.288c-.84 0-1.522.683-1.522 1.522 0 .84.682 1.522 1.522 1.522h6.036c.84 0 1.522-.682 1.522-1.522 0-.839-.682-1.522-1.522-1.522h-6.036zm6.036 2.717h-6.036a1.196 1.196 0 0 1-1.195-1.195c0-.658.536-1.194 1.195-1.194h6.036c.659 0 1.195.536 1.195 1.194 0 .658-.536 1.195-1.195 1.195zm-6.036-2.146a.952.952 0 0 0 0 1.902h6.036a.952.952 0 0 0 0-1.902h-6.036z" fill="#1E2F4E"/>
        <path d="M143.435 99.763c0 .75-.609 1.359-1.358 1.359h-6.037a1.358 1.358 0 0 1 0-2.717h6.037c.75 0 1.358.608 1.358 1.358" fill="#3988B7"/>
        <path d="M142.077 101.407h-6.037a1.646 1.646 0 0 1-1.644-1.644c0-.906.737-1.643 1.644-1.643h6.037c.907 0 1.644.737 1.644 1.643s-.737 1.644-1.644 1.644zm-6.037-2.717a1.074 1.074 0 0 0 0 2.146h6.037c.592 0 1.073-.482 1.073-1.073s-.481-1.073-1.073-1.073h-6.037z" fill="#1E2F4E"/>
        <path d="M142.077 101.529h-6.037a1.768 1.768 0 0 1-1.765-1.766c0-.973.792-1.765 1.765-1.765h6.037c.974 0 1.766.792 1.766 1.765 0 .973-.792 1.766-1.766 1.766zm-6.037-3.288c-.84 0-1.522.683-1.522 1.522 0 .84.683 1.522 1.522 1.522h6.037c.84 0 1.522-.682 1.522-1.522 0-.839-.682-1.522-1.522-1.522h-6.037zm6.037 2.717h-6.037a1.196 1.196 0 0 1-1.194-1.195c0-.658.535-1.194 1.194-1.194h6.037c.659 0 1.195.536 1.195 1.194 0 .658-.536 1.195-1.195 1.195zm-6.037-2.146a.952.952 0 0 0 0 1.902h6.037a.952.952 0 0 0 0-1.902h-6.037z" fill="#1E2F4E"/>
        <path d="M111.02 99.763c0 .75-.607 1.359-1.358 1.359h-6.036a1.358 1.358 0 0 1 0-2.717h6.036c.75 0 1.359.608 1.359 1.358" fill="#CD6170"/>
        <path d="M109.662 101.407h-6.036a1.646 1.646 0 0 1-1.644-1.644c0-.906.737-1.643 1.644-1.643h6.036c.907 0 1.644.737 1.644 1.643s-.737 1.644-1.644 1.644zm-6.036-2.717a1.074 1.074 0 0 0 0 2.146h6.036c.592 0 1.073-.482 1.073-1.073s-.481-1.073-1.073-1.073h-6.036z" fill="#1E2F4E"/>
        <path d="M109.662 101.529h-6.036a1.768 1.768 0 0 1-1.766-1.766c0-.973.792-1.765 1.766-1.765h6.036c.974 0 1.766.792 1.766 1.765 0 .973-.792 1.766-1.766 1.766zm-6.036-3.288c-.84 0-1.522.683-1.522 1.522 0 .84.683 1.522 1.522 1.522h6.036c.84 0 1.522-.682 1.522-1.522 0-.839-.682-1.522-1.522-1.522h-6.036zm6.036 2.717h-6.036a1.196 1.196 0 0 1-1.195-1.195c0-.658.536-1.194 1.195-1.194h6.036c.659 0 1.195.536 1.195 1.194 0 .658-.536 1.195-1.195 1.195zm-6.036-2.146a.952.952 0 0 0 0 1.902h6.036a.952.952 0 0 0 0-1.902h-6.036z" fill="#1E2F4E"/>
        <path d="M110.123 113.006c0 .67-.543 1.214-1.214 1.214h-7.073c-.67 0-1.213-.543-1.213-1.213v-6.631c0-.67.544-1.214 1.215-1.214h7.071c.67 0 1.214.543 1.214 1.213v6.631z" fill="#FEFEFE"/>
        <path d="M108.91 114.506h-7.074a1.5 1.5 0 0 1-1.498-1.498v-6.632c0-.827.673-1.5 1.5-1.5h7.071c.827 0 1.5.673 1.5 1.5v6.63c0 .827-.673 1.5-1.5 1.5zm-7.073-9.058a.93.93 0 0 0-.928.928v6.632c0 .511.416.927.927.927h7.073a.93.93 0 0 0 .929-.929v-6.63a.93.93 0 0 0-.929-.928h-7.072z" fill="#1E2F4E"/>
        <path d="M108.91 114.627h-7.074c-.893 0-1.62-.726-1.62-1.62v-6.631c0-.894.728-1.62 1.621-1.62h7.072c.894 0 1.622.726 1.622 1.62v6.63c0 .894-.728 1.621-1.622 1.621zm-7.073-9.629a1.38 1.38 0 0 0-1.378 1.378v6.631c0 .76.617 1.377 1.377 1.377h7.073a1.38 1.38 0 0 0 1.378-1.378v-6.63a1.38 1.38 0 0 0-1.378-1.378h-7.072zm7.072 9.058h-7.073a1.05 1.05 0 0 1-1.05-1.049v-6.631c0-.579.473-1.05 1.051-1.05h7.072c.58 0 1.05.47 1.05 1.05v6.63c0 .58-.47 1.05-1.05 1.05zm-7.072-8.487a.808.808 0 0 0-.807.807v6.631c0 .445.362.806.806.806h7.073a.808.808 0 0 0 .807-.807v-6.63a.808.808 0 0 0-.807-.807h-7.072z" fill="#1E2F4E"/>
        <path d="M121.702 113.006c0 .67-.544 1.214-1.214 1.214h-7.074c-.67 0-1.213-.543-1.213-1.213v-6.631c0-.67.544-1.214 1.214-1.214h7.072c.67 0 1.215.544 1.215 1.214v6.63z" fill="#BBA0CA"/>
        <path d="M120.488 114.506h-7.074a1.5 1.5 0 0 1-1.498-1.499v-6.63a1.5 1.5 0 0 1 1.5-1.5h7.07c.828 0 1.501.673 1.501 1.5v6.63c0 .826-.672 1.499-1.499 1.499zm-7.073-9.058a.93.93 0 0 0-.928.928v6.631c0 .512.416.928.927.928h7.074a.93.93 0 0 0 .928-.929v-6.63a.93.93 0 0 0-.93-.928h-7.07z" fill="#1E2F4E"/>
        <path d="M120.488 114.627h-7.074c-.893 0-1.62-.727-1.62-1.62v-6.631c0-.894.728-1.62 1.621-1.62h7.072c.894 0 1.622.726 1.622 1.62v6.63c0 .894-.728 1.621-1.621 1.621zm-7.073-9.629c-.76 0-1.378.618-1.378 1.378v6.63c0 .76.618 1.378 1.377 1.378h7.074c.76 0 1.378-.618 1.378-1.378v-6.63a1.38 1.38 0 0 0-1.38-1.378h-7.07zm7.073 9.058h-7.074a1.05 1.05 0 0 1-1.049-1.05v-6.63c0-.579.472-1.05 1.05-1.05h7.072c.58 0 1.05.471 1.05 1.05v6.63c0 .58-.47 1.05-1.049 1.05zm-7.073-8.487a.808.808 0 0 0-.807.807v6.63c0 .446.362.807.806.807h7.074a.807.807 0 0 0 .807-.807v-6.63a.808.808 0 0 0-.808-.807h-7.072z" fill="#1E2F4E"/>
        <path d="M133.28 113.006c0 .67-.544 1.214-1.214 1.214h-7.073c-.67 0-1.213-.543-1.213-1.213v-6.63c0-.671.543-1.215 1.214-1.215h7.072c.67 0 1.214.544 1.214 1.214v6.63z" fill="#FEFEFE"/>
        <path d="M132.066 114.505h-7.074a1.5 1.5 0 0 1-1.498-1.498v-6.63a1.5 1.5 0 0 1 1.5-1.5h7.072a1.5 1.5 0 0 1 1.499 1.5v6.629c0 .827-.673 1.5-1.5 1.5zm-7.073-9.057a.93.93 0 0 0-.928.928v6.631c0 .511.416.927.927.927h7.074a.93.93 0 0 0 .928-.928v-6.63a.93.93 0 0 0-.928-.928h-7.073z" fill="#1E2F4E"/>
        <path d="M132.066 114.627h-7.074c-.893 0-1.62-.727-1.62-1.62v-6.63c0-.895.728-1.622 1.621-1.622h7.073c.893 0 1.62.727 1.62 1.621v6.63c0 .894-.727 1.62-1.62 1.62zm-7.073-9.629c-.76 0-1.377.618-1.377 1.378v6.631c0 .76.617 1.377 1.376 1.377h7.074c.76 0 1.377-.618 1.377-1.378v-6.63c0-.76-.617-1.378-1.377-1.378h-7.073zm7.073 9.058h-7.074a1.05 1.05 0 0 1-1.049-1.049v-6.63c0-.58.472-1.05 1.05-1.05h7.073c.579 0 1.05.47 1.05 1.05v6.629c0 .579-.471 1.05-1.05 1.05zm-7.073-8.487a.807.807 0 0 0-.806.807v6.631c0 .444.361.806.805.806h7.074a.808.808 0 0 0 .806-.807v-6.63a.807.807 0 0 0-.806-.807h-7.073z" fill="#1E2F4E"/>
        <path d="M144.858 113.006c0 .67-.543 1.214-1.213 1.214h-7.074c-.67 0-1.213-.544-1.213-1.213v-6.63c0-.671.543-1.215 1.214-1.215h7.071c.671 0 1.215.544 1.215 1.215v6.629z" fill="#BBA0CA"/>
        <path d="M143.645 114.505h-7.074a1.5 1.5 0 0 1-1.499-1.498v-6.63a1.5 1.5 0 0 1 1.5-1.5h7.071c.828 0 1.5.672 1.5 1.5v6.629c0 .827-.672 1.5-1.498 1.5zm-7.073-9.057a.93.93 0 0 0-.929.928v6.63c0 .512.417.928.928.928h7.074a.93.93 0 0 0 .928-.928v-6.629a.93.93 0 0 0-.93-.93h-7.071z" fill="#1E2F4E"/>
        <path d="M143.645 114.627h-7.074c-.893 0-1.62-.727-1.62-1.62v-6.63c0-.895.727-1.622 1.62-1.622h7.072c.895 0 1.622.728 1.622 1.622v6.629c0 .894-.727 1.62-1.62 1.62zm-7.073-9.629c-.76 0-1.378.618-1.378 1.378v6.63c0 .76.618 1.378 1.377 1.378h7.074c.76 0 1.377-.618 1.377-1.378v-6.629a1.38 1.38 0 0 0-1.379-1.379h-7.071zm7.073 9.058h-7.074a1.05 1.05 0 0 1-1.05-1.05v-6.63c0-.579.472-1.05 1.05-1.05h7.072c.58 0 1.052.472 1.052 1.051v6.629c0 .579-.472 1.05-1.05 1.05zm-7.073-8.487a.807.807 0 0 0-.807.807v6.63c0 .445.362.807.806.807h7.074a.808.808 0 0 0 .806-.807v-6.629a.809.809 0 0 0-.808-.808h-7.071z" fill="#1E2F4E"/>
        <path d="M110.123 124.518c0 .67-.543 1.213-1.214 1.213h-7.073c-.67 0-1.213-.542-1.213-1.212v-6.632c0-.67.544-1.214 1.215-1.214h7.071c.67 0 1.214.543 1.214 1.214v6.63z" fill="#C8C9C9"/>
        <path d="M108.91 126.017h-7.074a1.5 1.5 0 0 1-1.498-1.498v-6.631c0-.828.673-1.5 1.5-1.5h7.071c.827 0 1.5.672 1.5 1.499v6.63c0 .828-.673 1.5-1.5 1.5zm-7.073-9.058a.93.93 0 0 0-.928.929v6.631c0 .511.416.927.927.927h7.073a.93.93 0 0 0 .929-.928v-6.631a.93.93 0 0 0-.929-.928h-7.072z" fill="#1E2F4E"/>
        <path d="M108.91 126.139h-7.074c-.893 0-1.62-.727-1.62-1.62v-6.632c0-.893.728-1.62 1.621-1.62h7.072c.894 0 1.622.727 1.622 1.62v6.63c0 .895-.728 1.622-1.622 1.622zm-7.073-9.63a1.38 1.38 0 0 0-1.378 1.378v6.632c0 .76.617 1.376 1.377 1.376h7.073a1.38 1.38 0 0 0 1.378-1.377v-6.631a1.38 1.38 0 0 0-1.378-1.377h-7.072zm7.072 9.059h-7.073a1.05 1.05 0 0 1-1.05-1.05v-6.63c0-.58.473-1.05 1.051-1.05h7.072c.58 0 1.05.47 1.05 1.049v6.63c0 .58-.47 1.05-1.05 1.05zm-7.072-8.487a.808.808 0 0 0-.807.806v6.632c0 .444.362.805.806.805h7.073a.808.808 0 0 0 .807-.806v-6.631a.808.808 0 0 0-.807-.806h-7.072z" fill="#1E2F4E"/>
        <path d="M121.702 124.518c0 .67-.544 1.213-1.214 1.213h-7.074c-.67 0-1.213-.542-1.213-1.213v-6.63c0-.671.544-1.215 1.214-1.215h7.072c.67 0 1.215.544 1.215 1.215v6.63z" fill="#C8C9C9"/>
        <path d="M120.488 126.017h-7.074a1.5 1.5 0 0 1-1.498-1.499v-6.63a1.5 1.5 0 0 1 1.5-1.5h7.07c.828 0 1.501.673 1.501 1.5v6.63c0 .827-.672 1.5-1.499 1.5zm-7.073-9.058a.93.93 0 0 0-.928.929v6.63c0 .512.416.928.927.928h7.074a.93.93 0 0 0 .928-.928v-6.63a.93.93 0 0 0-.93-.929h-7.07z" fill="#1E2F4E"/>
        <path d="M120.488 126.139h-7.074c-.893 0-1.62-.727-1.62-1.62v-6.632c0-.893.728-1.62 1.621-1.62h7.072c.894 0 1.622.727 1.622 1.62v6.63c0 .895-.728 1.622-1.621 1.622zm-7.073-9.63c-.76 0-1.378.618-1.378 1.378v6.631c0 .76.618 1.377 1.377 1.377h7.074c.76 0 1.378-.617 1.378-1.377v-6.63a1.38 1.38 0 0 0-1.38-1.378h-7.07zm7.073 9.059h-7.074a1.05 1.05 0 0 1-1.049-1.05v-6.63c0-.58.472-1.05 1.05-1.05h7.072c.58 0 1.05.47 1.05 1.05v6.63c0 .579-.47 1.05-1.049 1.05zm-7.073-8.487a.808.808 0 0 0-.807.806v6.631c0 .444.362.806.806.806h7.074a.808.808 0 0 0 .807-.806v-6.63a.808.808 0 0 0-.808-.807h-7.072z" fill="#1E2F4E"/>
        <path d="M133.28 124.517c0 .67-.544 1.214-1.214 1.214h-7.073c-.67 0-1.213-.543-1.213-1.213v-6.63c0-.67.543-1.214 1.214-1.214h7.072c.67 0 1.214.543 1.214 1.214v6.63z" fill="#C8C9C9"/>
        <path d="M132.066 126.017h-7.074a1.5 1.5 0 0 1-1.498-1.5v-6.629a1.5 1.5 0 0 1 1.5-1.5h7.072a1.5 1.5 0 0 1 1.499 1.5v6.63c0 .826-.673 1.499-1.5 1.499zm-7.073-9.057a.93.93 0 0 0-.928.928v6.63c0 .512.416.928.927.928h7.074a.93.93 0 0 0 .928-.929v-6.629a.93.93 0 0 0-.928-.928h-7.073z" fill="#1E2F4E"/>
        <path d="M132.066 126.138h-7.074c-.893 0-1.62-.727-1.62-1.62v-6.63c0-.894.728-1.62 1.621-1.62h7.073c.893 0 1.62.726 1.62 1.62v6.63c0 .893-.727 1.62-1.62 1.62zm-7.073-9.628c-.76 0-1.377.618-1.377 1.378v6.63c0 .76.617 1.377 1.376 1.377h7.074c.76 0 1.377-.618 1.377-1.378v-6.629c0-.76-.617-1.378-1.377-1.378h-7.073zm7.073 9.057h-7.074a1.05 1.05 0 0 1-1.049-1.05v-6.629c0-.579.472-1.05 1.05-1.05h7.073c.579 0 1.05.471 1.05 1.05v6.63c0 .578-.471 1.05-1.05 1.05zm-7.073-8.486a.807.807 0 0 0-.806.807v6.63c0 .444.361.806.805.806h7.074a.808.808 0 0 0 .806-.807v-6.629a.807.807 0 0 0-.806-.807h-7.073z" fill="#1E2F4E"/>
        <path d="M144.858 124.517c0 .67-.543 1.214-1.213 1.214h-7.074c-.67 0-1.213-.543-1.213-1.213v-6.63c0-.67.543-1.214 1.214-1.214h7.071c.671 0 1.215.544 1.215 1.215v6.628z" fill="#C8C9C9"/>
        <path d="M143.645 126.017h-7.074a1.5 1.5 0 0 1-1.499-1.5v-6.629a1.5 1.5 0 0 1 1.5-1.5h7.071c.828 0 1.5.673 1.5 1.501v6.628c0 .827-.672 1.5-1.498 1.5zm-7.073-9.057a.93.93 0 0 0-.929.928v6.63c0 .512.417.928.928.928h7.074a.93.93 0 0 0 .928-.929v-6.628a.93.93 0 0 0-.93-.93h-7.071z" fill="#1E2F4E"/>
        <path d="M143.645 126.138h-7.074c-.893 0-1.62-.727-1.62-1.62v-6.63c0-.894.727-1.62 1.62-1.62h7.072c.895 0 1.622.727 1.622 1.621v6.628c0 .894-.727 1.621-1.62 1.621zm-7.073-9.628c-.76 0-1.378.618-1.378 1.378v6.63c0 .76.618 1.377 1.377 1.377h7.074c.76 0 1.377-.618 1.377-1.378v-6.628a1.38 1.38 0 0 0-1.379-1.379h-7.071zm7.073 9.057h-7.074a1.05 1.05 0 0 1-1.05-1.05v-6.629c0-.579.472-1.05 1.05-1.05h7.072c.58 0 1.052.472 1.052 1.051v6.628c0 .58-.472 1.05-1.05 1.05zm-7.073-8.486a.807.807 0 0 0-.807.807v6.63c0 .444.362.806.806.806h7.074a.808.808 0 0 0 .806-.807v-6.628a.809.809 0 0 0-.808-.808h-7.071z" fill="#1E2F4E"/>
        <path d="M110.123 136.03c0 .67-.543 1.213-1.214 1.213h-7.073c-.67 0-1.213-.543-1.213-1.213V129.4c0-.67.544-1.214 1.215-1.214h7.071c.67 0 1.214.543 1.214 1.213v6.631z" fill="#C8C9C9"/>
        <path d="M108.91 137.528h-7.074a1.5 1.5 0 0 1-1.498-1.498V129.4c0-.827.673-1.5 1.5-1.5h7.071c.827 0 1.5.673 1.5 1.5v6.63c0 .827-.673 1.5-1.5 1.5zm-7.073-9.057a.93.93 0 0 0-.928.928v6.631c0 .511.416.928.927.928h7.073a.93.93 0 0 0 .929-.929v-6.63a.93.93 0 0 0-.929-.928h-7.072z" fill="#1E2F4E"/>
        <path d="M108.91 137.65h-7.074c-.893 0-1.62-.726-1.62-1.62V129.4c0-.894.728-1.621 1.621-1.621h7.072c.894 0 1.622.727 1.622 1.62v6.631c0 .894-.728 1.621-1.622 1.621zm-7.073-9.629a1.38 1.38 0 0 0-1.378 1.378v6.631c0 .76.617 1.377 1.377 1.377h7.073a1.38 1.38 0 0 0 1.378-1.378v-6.63a1.38 1.38 0 0 0-1.378-1.378h-7.072zm7.072 9.058h-7.073a1.05 1.05 0 0 1-1.05-1.049V129.4c0-.58.473-1.05 1.051-1.05h7.072c.58 0 1.05.47 1.05 1.05v6.63c0 .58-.47 1.05-1.05 1.05zm-7.072-8.487a.808.808 0 0 0-.807.807v6.631c0 .444.362.806.806.806h7.073a.808.808 0 0 0 .807-.807v-6.63a.808.808 0 0 0-.807-.807h-7.072z" fill="#1E2F4E"/>
        <path d="M121.702 136.03c0 .67-.544 1.213-1.214 1.213h-7.074c-.67 0-1.213-.543-1.213-1.213v-6.631c0-.67.544-1.214 1.214-1.214h7.072c.67 0 1.215.543 1.215 1.215v6.63z" fill="#C8C9C9"/>
        <path d="M120.488 137.528h-7.074a1.5 1.5 0 0 1-1.498-1.498v-6.631c0-.827.672-1.5 1.5-1.5h7.07c.828 0 1.501.673 1.501 1.501v6.63c0 .826-.672 1.498-1.499 1.498zm-7.073-9.057a.93.93 0 0 0-.928.928v6.63c0 .512.416.929.927.929h7.074a.93.93 0 0 0 .928-.929V129.4a.93.93 0 0 0-.93-.93h-7.07z" fill="#1E2F4E"/>
        <path d="M120.488 137.65h-7.074c-.893 0-1.62-.727-1.62-1.62v-6.631c0-.894.728-1.621 1.621-1.621h7.072c.894 0 1.622.727 1.622 1.622v6.63c0 .893-.728 1.62-1.621 1.62zm-7.073-9.629c-.76 0-1.378.618-1.378 1.378v6.63c0 .76.618 1.378 1.377 1.378h7.074c.76 0 1.378-.618 1.378-1.378v-6.63a1.38 1.38 0 0 0-1.38-1.378h-7.07zm7.073 9.058h-7.074a1.05 1.05 0 0 1-1.049-1.05v-6.63c0-.58.472-1.05 1.05-1.05h7.072c.58 0 1.05.471 1.05 1.05v6.63c0 .58-.47 1.05-1.049 1.05zm-7.073-8.487a.808.808 0 0 0-.807.807v6.63c0 .445.362.807.806.807h7.074a.808.808 0 0 0 .807-.807v-6.63a.809.809 0 0 0-.808-.807h-7.072z" fill="#1E2F4E"/>
        <path d="M133.28 136.029c0 .67-.544 1.214-1.214 1.214h-7.073c-.67 0-1.213-.543-1.213-1.213v-6.631c0-.67.543-1.214 1.214-1.214h7.072c.67 0 1.214.544 1.214 1.214v6.63z" fill="#C8C9C9"/>
        <path d="M132.066 137.528h-7.074a1.5 1.5 0 0 1-1.498-1.498v-6.63a1.5 1.5 0 0 1 1.5-1.5h7.072a1.5 1.5 0 0 1 1.499 1.5v6.629c0 .826-.673 1.499-1.5 1.499zm-7.073-9.057a.93.93 0 0 0-.928.928v6.63c0 .512.416.928.927.928h7.074a.93.93 0 0 0 .928-.928v-6.63a.93.93 0 0 0-.928-.928h-7.073z" fill="#1E2F4E"/>
        <path d="M132.066 137.65h-7.074c-.893 0-1.62-.727-1.62-1.62v-6.63c0-.895.728-1.622 1.621-1.622h7.073c.893 0 1.62.727 1.62 1.621v6.63c0 .894-.727 1.62-1.62 1.62zm-7.073-9.628c-.76 0-1.377.617-1.377 1.377v6.63c0 .76.617 1.377 1.376 1.377h7.074c.76 0 1.377-.618 1.377-1.377v-6.63c0-.76-.617-1.377-1.377-1.377h-7.073zm7.073 9.057h-7.074a1.05 1.05 0 0 1-1.049-1.05v-6.63c0-.579.472-1.05 1.05-1.05h7.073c.579 0 1.05.471 1.05 1.05v6.63c0 .579-.471 1.05-1.05 1.05zm-7.073-8.486a.808.808 0 0 0-.806.806v6.63c0 .445.361.806.805.806h7.074a.808.808 0 0 0 .806-.806v-6.63a.808.808 0 0 0-.806-.806h-7.073z" fill="#1E2F4E"/>
        <path d="M144.858 136.029c0 .67-.543 1.214-1.213 1.214h-7.074c-.67 0-1.213-.544-1.213-1.214v-6.63c0-.67.543-1.214 1.214-1.214h7.071c.671 0 1.215.544 1.215 1.215v6.629z" fill="#C8C9C9"/>
        <path d="M143.645 137.528h-7.074a1.5 1.5 0 0 1-1.499-1.499v-6.63a1.5 1.5 0 0 1 1.5-1.499h7.071c.828 0 1.5.673 1.5 1.5v6.629c0 .826-.672 1.499-1.498 1.499zm-7.073-9.057a.93.93 0 0 0-.929.928v6.63c0 .512.417.928.928.928h7.074a.93.93 0 0 0 .928-.928V129.4a.93.93 0 0 0-.93-.93h-7.071z" fill="#1E2F4E"/>
        <path d="M143.645 137.65h-7.074c-.893 0-1.62-.727-1.62-1.62v-6.63c0-.895.727-1.622 1.62-1.622h7.072c.895 0 1.622.728 1.622 1.623v6.628c0 .894-.727 1.62-1.62 1.62zm-7.073-9.628c-.76 0-1.378.617-1.378 1.377v6.63c0 .76.618 1.377 1.377 1.377h7.074c.76 0 1.377-.618 1.377-1.377V129.4a1.38 1.38 0 0 0-1.379-1.38h-7.071zm7.073 9.057h-7.074a1.05 1.05 0 0 1-1.05-1.05v-6.63c0-.579.472-1.05 1.05-1.05h7.072c.58 0 1.052.472 1.052 1.052v6.628c0 .579-.472 1.05-1.05 1.05zm-7.073-8.486a.808.808 0 0 0-.807.806v6.63c0 .444.362.806.806.806h7.074a.808.808 0 0 0 .806-.806V129.4a.809.809 0 0 0-.808-.808h-7.071z" fill="#1E2F4E"/>
        <path d="M110.123 147.54c0 .67-.543 1.214-1.214 1.214h-7.073c-.67 0-1.213-.543-1.213-1.212v-6.632c0-.67.544-1.214 1.215-1.214h7.071c.67 0 1.214.543 1.214 1.214v6.63z" fill="#C8C9C9"/>
        <path d="M108.91 149.04h-7.074a1.5 1.5 0 0 1-1.498-1.498v-6.632c0-.827.673-1.5 1.5-1.5h7.071c.827 0 1.5.673 1.5 1.5v6.63c0 .827-.673 1.5-1.5 1.5zm-7.073-9.058a.93.93 0 0 0-.928.928v6.632c0 .51.416.927.927.927h7.073a.93.93 0 0 0 .929-.928v-6.631a.93.93 0 0 0-.929-.928h-7.072z" fill="#1E2F4E"/>
        <path d="M108.91 149.161h-7.074c-.893 0-1.62-.726-1.62-1.62v-6.63c0-.895.728-1.622 1.621-1.622h7.072c.894 0 1.622.727 1.622 1.62v6.632c0 .894-.728 1.62-1.622 1.62zm-7.073-9.629a1.38 1.38 0 0 0-1.378 1.378v6.632c0 .759.617 1.376 1.377 1.376h7.073a1.38 1.38 0 0 0 1.378-1.377v-6.631a1.38 1.38 0 0 0-1.378-1.378h-7.072zm7.072 9.058h-7.073a1.05 1.05 0 0 1-1.05-1.048v-6.632c0-.579.473-1.05 1.051-1.05h7.072c.58 0 1.05.47 1.05 1.05v6.63c0 .58-.47 1.05-1.05 1.05zm-7.072-8.487a.808.808 0 0 0-.807.807v6.632c0 .444.362.805.806.805h7.073a.808.808 0 0 0 .807-.806v-6.631a.808.808 0 0 0-.807-.807h-7.072z" fill="#1E2F4E"/>
        <path d="M121.702 147.54c0 .67-.544 1.214-1.214 1.214h-7.074c-.67 0-1.213-.543-1.213-1.213v-6.63c0-.671.544-1.215 1.214-1.215h7.072c.67 0 1.215.544 1.215 1.215v6.63z" fill="#C8C9C9"/>
        <path d="M120.488 149.04h-7.074a1.5 1.5 0 0 1-1.498-1.499v-6.63a1.5 1.5 0 0 1 1.5-1.5h7.07c.828 0 1.501.673 1.501 1.5v6.63c0 .826-.672 1.499-1.499 1.499zm-7.073-9.058a.93.93 0 0 0-.928.928v6.631c0 .512.416.928.927.928h7.074a.93.93 0 0 0 .928-.928v-6.63a.93.93 0 0 0-.93-.93h-7.07z" fill="#1E2F4E"/>
        <path d="M120.488 149.161h-7.074c-.893 0-1.62-.726-1.62-1.62v-6.63c0-.895.728-1.622 1.621-1.622h7.072c.894 0 1.622.728 1.622 1.622v6.63c0 .894-.728 1.62-1.621 1.62zm-7.073-9.629c-.76 0-1.378.618-1.378 1.378v6.631c0 .76.618 1.377 1.377 1.377h7.074c.76 0 1.378-.618 1.378-1.377v-6.63a1.38 1.38 0 0 0-1.38-1.379h-7.07zm7.073 9.058h-7.074a1.05 1.05 0 0 1-1.049-1.049v-6.63c0-.58.472-1.05 1.05-1.05h7.072c.58 0 1.05.47 1.05 1.05v6.63c0 .578-.47 1.05-1.049 1.05zm-7.073-8.487a.808.808 0 0 0-.807.807v6.631c0 .444.362.806.806.806h7.074a.808.808 0 0 0 .807-.806v-6.63a.808.808 0 0 0-.808-.808h-7.072z" fill="#1E2F4E"/>
        <path d="M133.28 147.54c0 .67-.544 1.214-1.214 1.214h-7.073c-.67 0-1.213-.543-1.213-1.213v-6.63c0-.67.543-1.214 1.214-1.214h7.072c.67 0 1.214.543 1.214 1.214v6.63z" fill="#C8C9C9"/>
        <path d="M132.066 149.04h-7.074a1.5 1.5 0 0 1-1.498-1.498v-6.631a1.5 1.5 0 0 1 1.5-1.5h7.072a1.5 1.5 0 0 1 1.499 1.5v6.63c0 .826-.673 1.499-1.5 1.499zm-7.073-9.058a.93.93 0 0 0-.928.929v6.63c0 .512.416.928.927.928h7.074a.93.93 0 0 0 .928-.928v-6.63a.93.93 0 0 0-.928-.929h-7.073z" fill="#1E2F4E"/>
        <path d="M132.066 149.161h-7.074c-.893 0-1.62-.726-1.62-1.62v-6.63c0-.894.728-1.621 1.621-1.621h7.073c.893 0 1.62.727 1.62 1.62v6.63c0 .895-.727 1.621-1.62 1.621zm-7.073-9.628c-.76 0-1.377.618-1.377 1.378v6.63c0 .76.617 1.377 1.376 1.377h7.074c.76 0 1.377-.618 1.377-1.377v-6.63c0-.76-.617-1.378-1.377-1.378h-7.073zm7.073 9.057h-7.074a1.05 1.05 0 0 1-1.049-1.048v-6.631c0-.58.472-1.05 1.05-1.05h7.073c.579 0 1.05.47 1.05 1.05v6.63c0 .578-.471 1.05-1.05 1.05zm-7.073-8.486a.808.808 0 0 0-.806.807v6.63c0 .445.361.806.805.806h7.074a.808.808 0 0 0 .806-.806v-6.63a.808.808 0 0 0-.806-.807h-7.073z" fill="#1E2F4E"/>
        <path d="M144.858 147.54c0 .67-.543 1.214-1.213 1.214h-7.074c-.67 0-1.213-.543-1.213-1.213v-6.63c0-.67.543-1.214 1.214-1.214h7.071c.671 0 1.215.544 1.215 1.215v6.628z" fill="#C8C9C9"/>
        <path d="M143.645 149.04h-7.074a1.5 1.5 0 0 1-1.499-1.499v-6.63a1.5 1.5 0 0 1 1.5-1.5h7.071c.828 0 1.5.673 1.5 1.5v6.63c0 .826-.672 1.499-1.498 1.499zm-7.073-9.058a.93.93 0 0 0-.929.929v6.63c0 .512.417.928.928.928h7.074a.93.93 0 0 0 .928-.928v-6.63a.93.93 0 0 0-.93-.929h-7.071z" fill="#1E2F4E"/>
        <path d="M143.645 149.161h-7.074c-.893 0-1.62-.726-1.62-1.62v-6.63c0-.894.727-1.621 1.62-1.621h7.072c.895 0 1.622.727 1.622 1.622v6.629c0 .894-.727 1.62-1.62 1.62zm-7.073-9.628c-.76 0-1.378.618-1.378 1.378v6.63c0 .76.618 1.377 1.377 1.377h7.074c.76 0 1.377-.618 1.377-1.377v-6.63a1.38 1.38 0 0 0-1.379-1.378h-7.071zm7.073 9.057h-7.074a1.05 1.05 0 0 1-1.05-1.049v-6.63c0-.58.472-1.05 1.05-1.05h7.072c.58 0 1.052.471 1.052 1.05v6.63c0 .578-.472 1.05-1.05 1.05zm-7.073-8.486a.808.808 0 0 0-.807.807v6.63c0 .444.362.806.806.806h7.074a.808.808 0 0 0 .806-.806v-6.63a.809.809 0 0 0-.808-.807h-7.071zM136.26 74.86a.44.44 0 0 1-.44-.442v-4.621a.44.44 0 1 1 .881 0v4.621a.44.44 0 0 1-.44.441" fill="#1E2F4E"/>
        <path d="M137.109 71.273a.44.44 0 0 1-.38-.216l-.468-.79-.469.79a.44.44 0 1 1-.758-.45l.847-1.43a.441.441 0 0 1 .759 0l.848 1.43a.441.441 0 0 1-.38.666M139.33 61.05h-27.94a.441.441 0 0 1 0-.882h27.94a.44.44 0 1 1 0 .882M139.33 57.863h-27.94a.441.441 0 0 1 0-.881h27.94a.44.44 0 1 1 0 .881M139.33 54.676h-27.94a.441.441 0 0 1 0-.881h27.94a.44.44 0 1 1 0 .881M139.33 51.49h-27.94a.441.441 0 0 1 0-.882h27.94a.44.44 0 1 1 0 .882M104.629 111.879v-1.515h-1.515v-.742h1.515v-1.515h.741v1.515h1.515v.742h-1.515v1.515z" fill="#1E2F4E"/>
        <path d="M105.492 112h-.985v-1.514h-1.515v-.986h1.515v-1.514h.985v1.514h1.515v.986h-1.515V112zm-.742-.243h.499v-1.514h1.515v-.5h-1.515v-1.514h-.499v1.515h-1.514v.499h1.514v1.514zM114.864 110.339h3.833v-.755h-3.833z" fill="#1E2F4E"/>
        <path d="M114.741 110.463h4.078v-1h-4.078v1zm.244-.244h3.59v-.512h-3.59v.512zM129.586 111.86l-1.4-1.41-1.397 1.41-.452-.246 1.501-1.514-1.501-1.52.448-.247 1.4 1.415 1.405-1.415.448.247-1.505 1.52 1.505 1.514z" fill="#1E2F4E"/>
        <path d="m126.811 112.01-.675-.367 1.532-1.543-1.53-1.55.669-.367 1.379 1.392 1.382-1.392.67.368-1.535 1.549 1.536 1.543-.675.368-1.378-1.39-1.375 1.39zm1.375-1.733 1.422 1.434.23-.126-1.477-1.485 1.478-1.491-.227-.126-1.426 1.437-1.423-1.437-.227.126 1.473 1.49-1.472 1.486.23.126 1.419-1.434zM138.191 110.302h3.834v-.754h-3.834z" fill="#1E2F4E"/>
        <path d="M138.069 110.427h4.077v-1h-4.077v1zm.243-.244h3.59v-.513h-3.59v.513zM140.662 108.412a.554.554 0 1 1-1.108 0 .554.554 0 0 1 1.108 0" fill="#1E2F4E"/>
        <path d="M140.108 109.089a.677.677 0 0 1 0-1.352.677.677 0 0 1 0 1.352m0-1.11a.433.433 0 1 0 0 .866.433.433 0 0 0 0-.865M140.662 111.44a.555.555 0 1 1-1.109-.001.555.555 0 0 1 1.11 0" fill="#1E2F4E"/>
        <path d="M140.108 112.115a.677.677 0 0 1 0-1.351.677.677 0 0 1 0 1.351m0-1.108a.433.433 0 1 0 0 .865.433.433 0 0 0 0-.865M126.509 70.895a.21.21 0 0 1 .113-.055.984.984 0 0 1 .165-.012h1.186c.041 0 .089 0 .141-.003a.653.653 0 0 1 .152.012c.048.01.09.027.127.05a.208.208 0 0 1 .08.114.368.368 0 0 1-.013.228.257.257 0 0 1-.065.096.17.17 0 0 1-.105.046.93.93 0 0 1-.26.011 3.144 3.144 0 0 0-.504-.002 2.508 2.508 0 0 1-.374.005.342.342 0 0 0-.125.01.101.101 0 0 0-.06.038.184.184 0 0 0-.031.064.294.294 0 0 0-.01.075v.067c0 .055-.002.11-.007.166l-.012.165c-.007.074.004.115.031.123.028.008.075.002.142-.017a1.558 1.558 0 0 1 .811.022c.141.043.263.109.368.196a.907.907 0 0 1 .244.332c.06.132.09.287.09.463 0 .032-.002.062-.004.091a.489.489 0 0 1-.011.086c-.026.202-.101.38-.226.533a1.035 1.035 0 0 1-.475.331 1.794 1.794 0 0 1-.706.118 1.308 1.308 0 0 1-.672-.209.802.802 0 0 1-.158-.127.46.46 0 0 1-.127-.38.21.21 0 0 1 .127-.16.251.251 0 0 1 .151-.026c.046.008.09.024.132.048a.837.837 0 0 1 .122.086c.04.034.081.061.122.084.074.035.151.065.231.089.08.024.165.036.255.036a.696.696 0 0 0 .477-.158.541.541 0 0 0 .18-.428.487.487 0 0 0-.187-.405c-.125-.098-.293-.147-.504-.147-.054 0-.109.003-.163.01a2.568 2.568 0 0 0-.315.077.69.69 0 0 1-.146.03.35.35 0 0 1-.142-.014.279.279 0 0 1-.131-.098.232.232 0 0 1-.063-.163c0-.064.003-.123.01-.178a7.52 7.52 0 0 0 .014-.279c.003-.092.008-.185.015-.278.006-.093.012-.185.016-.276.005-.09.01-.183.017-.276a.406.406 0 0 1 .024-.13.237.237 0 0 1 .053-.08M133.051 74.001c.055-.007.095-.024.12-.053a.29.29 0 0 0 .089-.173.878.878 0 0 0-.014-.367.217.217 0 0 0-.108-.146.31.31 0 0 0-.15-.04.306.306 0 0 0-.148.03.217.217 0 0 0-.098.091.32.32 0 0 0-.036.13 1.44 1.44 0 0 0-.015.139.756.756 0 0 0 .007.16.404.404 0 0 0 .051.145c.026.043.066.07.12.079a.48.48 0 0 0 .182.005zm.183.36c-.106.025-.208.04-.307.043a.696.696 0 0 1-.303-.063.524.524 0 0 1-.211-.174.844.844 0 0 1-.134-.248.91.91 0 0 1-.034-.307 2.73 2.73 0 0 1 .038-.312.68.68 0 0 1 .137-.267.504.504 0 0 1 .242-.17.856.856 0 0 1 .226-.046c.077-.004.152-.002.226.008.07.003.137.015.201.036a.54.54 0 0 1 .178.098c.026.022.05.052.072.09a.988.988 0 0 1 .12.352c.016.122.02.234.012.336-.008.102-.033.21-.074.322a.372.372 0 0 1-.154.204.856.856 0 0 1-.235.098zm-.053-3.346a.353.353 0 0 1-.039.197 1.91 1.91 0 0 1-.1.178l-.135.25-.134.249-.363.648c-.12.214-.24.432-.362.653-.05.092-.102.186-.15.28a9.589 9.589 0 0 1-.25.449 1.066 1.066 0 0 1-.116.168.5.5 0 0 1-.146.12.304.304 0 0 1-.188.029.167.167 0 0 1-.11-.063.208.208 0 0 1-.048-.12c0-.073.018-.143.053-.21a14.924 14.924 0 0 1 .247-.454l.147-.252c.121-.22.242-.44.365-.657l.364-.658c.045-.09.093-.18.144-.27.052-.089.1-.177.149-.263l.081-.14c.03-.048.061-.093.097-.136a.692.692 0 0 1 .115-.113.333.333 0 0 1 .144-.063.19.19 0 0 1 .154.03.18.18 0 0 1 .08.138v.01zm-1.891.888a.18.18 0 0 0 .115-.058.268.268 0 0 0 .079-.18c.005-.072.007-.138.007-.199a.87.87 0 0 0-.019-.17.178.178 0 0 0-.1-.132.386.386 0 0 0-.15-.046.236.236 0 0 0-.144.032.23.23 0 0 0-.105.093.498.498 0 0 0-.044.127 2.86 2.86 0 0 0-.006.137.939.939 0 0 0 .01.166.393.393 0 0 0 .05.146c.025.043.065.07.12.08l.089.009a.332.332 0 0 0 .098-.005zm.177.36a1.306 1.306 0 0 1-.319.038.792.792 0 0 1-.319-.066.417.417 0 0 1-.2-.171 1.026 1.026 0 0 1-.121-.242 1.086 1.086 0 0 1-.032-.313c.005-.102.017-.204.036-.307a.654.654 0 0 1 .14-.266.549.549 0 0 1 .244-.175.825.825 0 0 1 .226-.046c.076-.005.152-.005.225-.002.07.006.137.02.2.04.062.021.12.054.175.1a.465.465 0 0 1 .127.162c.03.064.049.13.055.197a1.716 1.716 0 0 1-.062.734.468.468 0 0 1-.151.204.716.716 0 0 1-.224.113z" fill="#1E2F4E"/>
        <path d="M49.133 115.722c0 1.829.21 3.05.634 3.659.32.477.765.712 1.327.712.575 0 1.02-.229 1.326-.692.425-.621.634-1.85.634-3.68s-.202-3.058-.614-3.679c-.32-.464-.771-.693-1.346-.693-.575 0-1.02.23-1.327.693-.425.621-.634 1.85-.634 3.68zm-4.195-.013c0-2.517.556-4.379 1.66-5.594 1.105-1.216 2.614-1.824 4.529-1.824 1.927 0 3.443.608 4.548 1.824 1.104 1.215 1.653 3.077 1.653 5.594 0 2.535-.549 4.404-1.653 5.62-1.105 1.215-2.607 1.822-4.496 1.822-1.954 0-3.476-.607-4.581-1.823-1.104-1.215-1.66-3.084-1.66-5.62zm-8.685 7.403h-3.98l14.945-29.681h3.895l-14.86 29.681zm-6.058-22.29c0 1.81.21 3.025.634 3.646.32.458.765.687 1.327.687.575 0 1.026-.23 1.346-.687.412-.62.615-1.836.615-3.646 0-1.81-.203-3.02-.615-3.627-.32-.47-.771-.705-1.346-.705-.562 0-1.006.228-1.327.685-.424.621-.634 1.837-.634 3.647zm-4.195 0c0-2.51.556-4.366 1.66-5.574 1.104-1.21 2.6-1.817 4.49-1.817 1.953 0 3.482.601 4.587 1.804 1.104 1.202 1.653 3.064 1.653 5.587 0 2.51-.549 4.365-1.653 5.574-1.105 1.21-2.607 1.817-4.496 1.817-1.954 0-3.477-.601-4.581-1.804-1.104-1.202-1.66-3.065-1.66-5.587z" fill="#7F4797"/>
        <path d="M81.505 140.585c0 6.703-3.618 12.556-9.008 15.716a18.081 18.081 0 0 1-9.216 2.504c-3.362 0-6.502-.91-9.21-2.504-5.39-3.16-9.008-9.013-9.008-15.716 0-10.063 8.155-18.218 18.218-18.218 10.066 0 18.224 8.155 18.224 18.218" fill="#F7C496"/>
        <path d="M63.281 159.256c-3.325 0-6.589-.887-9.44-2.566-5.691-3.337-9.229-9.508-9.229-16.104 0-10.295 8.375-18.67 18.67-18.67 10.297 0 18.674 8.375 18.674 18.67 0 6.596-3.536 12.767-9.23 16.105a18.618 18.618 0 0 1-9.445 2.565m0-36.438c-9.796 0-17.766 7.97-17.766 17.768 0 6.277 3.366 12.15 8.785 15.327a17.709 17.709 0 0 0 8.981 2.441c3.169 0 6.276-.844 8.987-2.44 5.42-3.179 8.786-9.051 8.786-15.328 0-9.797-7.973-17.768-17.773-17.768" fill="#1E2F4E"/>
        <path d="M63.281 159.378c-3.347 0-6.632-.893-9.5-2.583-5.73-3.36-9.29-9.57-9.29-16.21 0-10.361 8.43-18.79 18.79-18.79 10.365 0 18.797 8.429 18.797 18.79 0 6.64-3.56 12.85-9.292 16.21a18.736 18.736 0 0 1-9.505 2.583m0-37.34c-10.227 0-18.547 8.32-18.547 18.548 0 6.553 3.513 12.684 9.17 16a18.487 18.487 0 0 0 9.377 2.548c3.308 0 6.553-.88 9.382-2.548 5.658-3.316 9.172-9.447 9.172-16 0-10.228-8.323-18.549-18.554-18.549m0 36.439c-3.186 0-6.313-.85-9.043-2.459-5.456-3.198-8.844-9.112-8.844-15.431 0-9.864 8.024-17.89 17.887-17.89 9.867 0 17.895 8.026 17.895 17.89 0 6.319-3.39 12.233-8.847 15.432a17.838 17.838 0 0 1-9.048 2.458m0-35.536c-9.73 0-17.645 7.916-17.645 17.646 0 6.234 3.343 12.066 8.725 15.222a17.589 17.589 0 0 0 8.92 2.424c3.147 0 6.233-.838 8.926-2.424 5.382-3.156 8.725-8.988 8.725-15.222 0-9.73-7.918-17.646-17.65-17.646" fill="#1E2F4E"/>
        <path d="M68.35 142.913c.754.683 1.135 1.586 1.135 2.717 0 1.454-.512 2.673-1.544 3.674-1.027.998-2.338 1.51-3.917 1.55v-9.37c2.13.27 3.57.753 4.326 1.429M62.329 129.756v8.725c-1.307-.115-2.435-.443-3.374-.988-.942-.544-1.412-1.536-1.412-2.976 0-1.063.255-1.955.75-2.675.508-.72 1.09-1.227 1.752-1.525.665-.288 1.427-.478 2.284-.56" fill="#F7C496"/>
        <path d="M67.228 147.914c-.86.83-1.947 1.258-3.266 1.29v-7.807c1.774.225 2.974.627 3.604 1.19.633.57.948 1.323.948 2.266 0 1.213-.428 2.228-1.286 3.061zm-4.678-9.02c-1.088-.094-2.026-.368-2.814-.821-.785-.452-1.175-1.281-1.175-2.481 0-.886.211-1.63.63-2.228.422-.602.904-1.022 1.459-1.271a6.156 6.156 0 0 1 1.9-.468v7.269zm8.267 2.935c-.296-.558-.756-1.032-1.364-1.412-.61-.385-1.333-.67-2.155-.852-.825-.185-1.941-.355-3.336-.516v-7.476c1.735.025 3.083.485 4.026 1.369.145.636.24 1.41.29 2.34l.136.114h.68l.138-.13.135-1.472c.042-.462.093-.826.14-1.084.057-.258.123-.537.217-.828l-.066-.183c-1.05-.596-2.947-.98-5.696-1.166.028-1.074.047-1.65.071-1.726l-.17-.127h-1.215l-.168.127c.032.283.06.88.07 1.784-2.262.296-3.936.998-5.02 2.115-1.084 1.109-1.628 2.374-1.628 3.79 0 .74.141 1.394.427 1.966.285.57.722 1.058 1.322 1.47a5.617 5.617 0 0 0 2.01.865c.744.168 1.707.32 2.889.464v8.011c-1.15 0-2.098-.152-2.839-.452-.747-.3-1.463-.744-2.158-1.317-.032-.217-.066-1.06-.104-2.519l-.135-.131h-.766l-.149.117c-.132 1.659-.287 3.005-.484 4.033l.14.213c1.926.72 4.084 1.093 6.495 1.13-.023 1.524-.048 2.44-.07 2.75l.168.127h1.263l.158-.127c-.05-.427-.079-1.358-.107-2.8 1.75-.296 3.106-.714 4.077-1.256a6.406 6.406 0 0 0 2.332-2.212 5.608 5.608 0 0 0 .887-3.076c0-.717-.145-1.36-.44-1.923z" fill="#1E2F4E"/>
        <path d="M63.954 153.345h-1.347l-.253-.192.006-.066c.022-.31.046-1.24.066-2.62-2.37-.05-4.527-.432-6.412-1.137l-.038-.014-.19-.287.01-.049c.187-.972.344-2.286.482-4.02l.004-.052.224-.176h.857l.206.2.001.05c.035 1.363.068 2.19.098 2.458.684.56 1.387.986 2.088 1.267.701.284 1.6.433 2.673.443v-7.781c-1.166-.144-2.081-.292-2.795-.454a5.686 5.686 0 0 1-2.052-.883c-.61-.418-1.068-.928-1.361-1.516-.293-.583-.44-1.263-.44-2.02 0-1.442.56-2.745 1.662-3.875 1.078-1.11 2.754-1.828 4.984-2.136-.01-.762-.034-1.365-.067-1.665l-.008-.068.255-.193h1.296l.272.201-.026.083c-.022.09-.046.946-.062 1.577 2.736.192 4.579.576 5.63 1.174l.04.021.096.264-.013.04a8.18 8.18 0 0 0-.214.817c-.037.199-.09.55-.138 1.069l-.14 1.517-.205.196h-.774l-.21-.178-.002-.052c-.05-.919-.142-1.666-.28-2.282-.895-.825-2.171-1.266-3.793-1.31v7.245c1.378.162 2.439.327 3.24.505.837.186 1.574.478 2.193.868.629.392 1.103.883 1.407 1.458.302.575.456 1.24.456 1.98 0 1.142-.305 2.2-.907 3.142a6.557 6.557 0 0 1-2.375 2.252c-.96.536-2.31.956-4.013 1.251.027 1.346.055 2.265.104 2.685l.008.066-.243.197zm-1.265-.243h1.179l.074-.059c-.048-.467-.075-1.404-.101-2.746l-.002-.104.103-.018c1.724-.29 3.082-.707 4.038-1.24a6.322 6.322 0 0 0 2.288-2.17 5.515 5.515 0 0 0 .869-3.013c0-.699-.144-1.328-.427-1.866-.285-.537-.73-.996-1.322-1.366-.595-.375-1.307-.657-2.116-.837-.803-.178-1.922-.351-3.324-.513l-.107-.012v-7.709l.123.002c1.76.026 3.142.497 4.107 1.402l.027.026.008.036c.143.625.238 1.38.29 2.308l.063.052h.587l.07-.066.13-1.426c.049-.528.104-.887.142-1.095.052-.238.117-.515.208-.804l-.037-.101c-1.029-.567-2.915-.947-5.605-1.129l-.116-.008.003-.116c.028-1.049.043-1.49.062-1.67l-.08-.058H62.69l-.081.06c.032.341.055.963.063 1.729v.107l-.106.014c-2.227.291-3.891.99-4.948 2.078-1.058 1.083-1.594 2.33-1.594 3.706 0 .719.14 1.362.415 1.912.279.558.698 1.024 1.281 1.423a5.46 5.46 0 0 0 1.967.847c.729.165 1.67.316 2.878.463l.107.013v8.24h-.121c-1.158 0-2.129-.156-2.884-.462-.738-.296-1.474-.745-2.19-1.335l-.037-.03-.006-.046c-.032-.219-.066-1.032-.104-2.484l-.065-.062h-.674l-.074.057c-.135 1.688-.29 2.98-.472 3.946l.092.138c1.882.699 4.04 1.072 6.416 1.11l.121.001-.002.122a86.611 86.611 0 0 1-.065 2.69l.083.063zm1.152-3.773v-8.07l.136.017c1.782.227 3.017.637 3.67 1.22.655.59.988 1.383.988 2.357 0 1.237-.444 2.295-1.322 3.148v.001c-.875.844-2.001 1.29-3.347 1.325l-.125.002zm.243-7.794v7.544c1.228-.056 2.258-.477 3.06-1.252.84-.817 1.249-1.79 1.249-2.974 0-.915-.298-1.627-.909-2.177-.598-.534-1.742-.918-3.4-1.141zm-1.413-2.509-.132-.011c-1.1-.095-2.064-.376-2.864-.836-.82-.473-1.235-1.344-1.235-2.588 0-.905.219-1.677.65-2.296.438-.623.932-1.053 1.51-1.313a6.324 6.324 0 0 1 1.939-.478l.132-.012v7.534zm-.242-7.267c-.634.071-1.215.22-1.73.446-.537.24-.998.643-1.41 1.23-.402.576-.606 1.302-.606 2.156 0 1.151.374 1.95 1.113 2.377.737.424 1.622.69 2.633.793v-7.002z" fill="#1E2F4E"/>
    </g>
</svg>
