<svg width="315" height="189" viewBox="0 0 315 189" xmlns="http://www.w3.org/2000/svg" xmlns:xlink="http://www.w3.org/1999/xlink">
    <defs>
        <filter x="-10.3%" y="-13%" width="120.6%" height="125.9%" filterUnits="objectBoundingBox" id="kw2yqschya">
            <feOffset dy="5" in="SourceAlpha" result="shadowOffsetOuter1"/>
            <feColorMatrix values="0 0 0 0 0 0 0 0 0 0 0 0 0 0 0 0 0 0 0.2 0" in="shadowOffsetOuter1" result="shadowMatrixOuter1"/>
            <feMerge>
                <feMergeNode in="shadowMatrixOuter1"/>
                <feMergeNode in="SourceGraphic"/>
            </feMerge>
        </filter>
        <filter x="-5.5%" y="-12.7%" width="111.4%" height="126.2%" filterUnits="objectBoundingBox" id="o2s9kvmgmd">
            <feOffset dy="5" in="SourceAlpha" result="shadowOffsetOuter1"/>
            <feColorMatrix values="0 0 0 0 0 0 0 0 0 0 0 0 0 0 0 0 0 0 0.2 0" in="shadowOffsetOuter1" result="shadowMatrixOuter1"/>
            <feMerge>
                <feMergeNode in="shadowMatrixOuter1"/>
                <feMergeNode in="SourceGraphic"/>
            </feMerge>
        </filter>
        <path id="s5ju17ce1b" d="M0 81h102V0H0z"/>
        <path id="k2jgacm12e" d="M0 81h102V0H0z"/>
    </defs>
    <g fill="none" fill-rule="evenodd">
        <path d="M268.634 112.842c-2.2 47.789-14.633 66.94-105.6 67.156-94.842.225-114.468-17.743-116.63-65.534C43.484 49.904 53.763 10 165.468 10c108.982 0 105.437 53.53 103.166 102.842" fill-opacity=".5" fill="#86D9FF"/>
        <path d="M156.035 177.998c-94.843.225-112.972-20.978-116.63-65.534-5.292-64.45-17.792-96.816 93.907-96.816 80.19 0 130.593 45.882 128.322 95.194-2.2 47.789-14.633 66.94-105.6 67.156z" fill-opacity=".2" fill="#FFED2D"/>
        <path fill="#DBDCDC" d="M67.698 119.893h27.855V81.287H67.698z"/>
        <path stroke="#1E2F4E" stroke-width="1.6" d="M67.698 119.893h27.855V81.287H67.698z"/>
        <path fill="#FEFEFE" d="M66.54 81.521h29.95v-2.825H66.54z"/>
        <path stroke="#1E2F4E" stroke-width="1.6" d="M66.54 81.521h29.95v-2.825H66.54z"/>
        <path fill="#FEFEFE" d="M66.54 106.44h29.95v-2.825H66.54z"/>
        <path stroke="#1E2F4E" stroke-width="1.6" d="M66.54 106.44h29.95v-2.825H66.54z"/>
        <path fill="#90D2EB" d="M87.688 91.304h3.955v-6.602h-3.955z"/>
        <path stroke="#1E2F4E" stroke-width="1.6" d="M87.688 91.304h3.955v-6.602h-3.955z"/>
        <path fill="#90D2EB" d="M79.749 91.304h3.955v-6.602H79.75z"/>
        <path stroke="#1E2F4E" stroke-width="1.6" d="M79.749 91.304h3.955v-6.602H79.75z"/>
        <path fill="#90D2EB" d="M71.81 91.304h3.956v-6.602H71.81z"/>
        <path stroke="#1E2F4E" stroke-width="1.6" d="M71.81 91.304h3.956v-6.602H71.81z"/>
        <path fill="#90D2EB" d="M87.688 101.02h3.955v-6.602h-3.955z"/>
        <path stroke="#1E2F4E" stroke-width="1.6" d="M87.688 101.02h3.955v-6.602h-3.955z"/>
        <path fill="#90D2EB" d="M79.749 101.02h3.955v-6.602H79.75z"/>
        <path stroke="#1E2F4E" stroke-width="1.6" d="M79.749 101.02h3.955v-6.602H79.75z"/>
        <path fill="#90D2EB" d="M71.81 101.02h3.956v-6.602H71.81z"/>
        <path stroke="#1E2F4E" stroke-width="1.6" d="M71.81 101.02h3.956v-6.602H71.81z"/>
        <path fill="#90D2EB" d="M71.668 119.893H91.64v-11.315H71.67z"/>
        <path stroke="#1E2F4E" stroke-width="1.6" d="M71.668 119.893H91.64v-11.315H71.67zM55 120.124h205.039"/>
        <path d="M131.587 182.699h-.019a.516.516 0 0 1-.499-.535c.36-10.413-1.13-22.855-1.145-22.98a.517.517 0 1 1 1.027-.123c.015.125 1.514 12.644 1.152 23.138-.01.28-.24.5-.516.5" fill="#1E2F4E"/>
        <path d="M204.381 163.905v18.277c-14.49 4.285-60.996 3.19-72.192 0 .365-10.576-1.148-23.06-1.148-23.06l8.658-86.893c11.723-2.489 27.636-1.993 45.915.186l18.767 91.49z" fill="#E89A9D"/>
        <path d="M124.531 148.649s-6.154 1.032-6.564 3.083c-.41 2.05 2.871 6.616 5.06 7.753 2.188 1.136 3.766 0 3.766 0l-2.262-3.65s1.685 3.513 4.239 5.88c5.607 5.196 10.53 4.376 10.53 4.376l5.15 1.363.411-14.081-20.33-4.724z" fill="#FAD9C7"/>
        <path d="m196.007 144.62-51.556 8.663s-3.328 12.853 1.778 16.318c0 0 55.977.182 67.464-10.12 4.728-4.24 3.77-22.887 3.26-46.043-.472-21.391-3.126-32.768-7.19-36.593-6.2-5.835-26.52-5.342-26.52-5.342l12.764 73.118z" fill="#E89A9D"/>
        <path d="m146.522 44.903 2.158-4.207s-.432-9.494 4.1-17.153c4.207-7.12 13.054-12.407 17.8-11.328 4.855 1.079 13.054 11.436 15.967 21.253 1.726 5.717 2.373 11.112 1.618 14.133-.324 1.294-3.344 1.078-3.344 1.078s-.864 3.991-2.374 6.905c-1.51 2.913-3.668 4.53-3.668 4.53l.527 10.45s1.86.995 6.308 1.851c-.686 6.7-12.697 18.21-16.963 17.825-6.333-.572-16.962-19.193-16.962-19.193l4.65-1.028-.215-4.079-.108-6.688s-1.726-2.05-2.913-4.963c-1.295-2.913-1.942-6.15-1.942-6.15s-1.726.217-2.913-.97c-1.079-1.079-1.726-2.266-1.726-2.266" fill="#FAD9C7"/>
        <path d="M200.705 72.987s-12.228-1.406-17.462-1.483c-3.237-.048-3.928-2.22-4.036-2.543-.755-3.344-.108-8.846-.108-8.846s2.05-1.51 3.452-4.423c1.403-2.805 2.266-6.689 2.266-6.689s-1.295-5.933-1.403-8.738c-.108-4.532-4.854-8.523-6.472-9.817-1.619-1.295-3.561-3.237-4.64-4.963-1.079-1.727-2.265-4.963-4.854-5.286-2.05-.324-4.315 1.726-5.07 1.834-1.727.215-5.826 1.078-6.366 1.725-1.079 1.295-2.158 4.532-2.697 9.063-.324 2.589-1.726 6.15-3.02 8.091-1.295 1.834-3.992 4.207-3.992 4.207s.97 1.403 2.157 2.266 2.59 1.08 2.59 1.08.863 3.559 2.157 6.472c1.295 2.912 3.021 4.207 3.021 4.207s.373 8.433.572 11.263c-4.035.087-15.277.882-22.592 3.148.14-1.553-.657-3.418 0-4.292 1.188-1.726 2.774-2.74 2.881-5.005.324-4.855-1.25-6.516-1.25-7.919.107-6.041 1.51-10.14 3.452-16.83 1.725-5.61 3.344-12.406 3.344-12.406s1.618-6.257 3.991-10.357c2.59-4.53 6.258-5.718 11.112-8.307 3.237-1.726 9.817-3.668 13.593-2.696 1.727.431 6.473 1.078 9.17 3.236 2.158 1.618 6.366 6.041 7.768 8.199.647 1.078 3.992 8.954 5.826 15.427 1.834 6.041 2.373 11.543 2.373 13.162.108 4.1-.539 10.14.54 14.025 1.187 4.207 3.734 4.585 4.49 6.742.862 2.59-.793 6.453-.793 6.453" fill="#4F4862"/>
        <path d="M168.1 65.81h-.016c-.156-.004-3.88-.154-9.228-3.756-3.596-2.397-4.867-4.943-5.627-6.464l-.05-.1c-1.102-2.205-2.007-5.125-2.847-9.188a.517.517 0 1 1 1.012-.208c.822 3.971 1.699 6.811 2.761 8.935l.05.1c.759 1.521 1.907 3.82 5.276 6.066 5.078 3.42 8.649 3.58 8.684 3.582a.517.517 0 0 1-.016 1.033" fill="#1E2F4E"/>
        <path d="M168.207 65.81a.517.517 0 0 1-.002-1.034c.053 0 3.094-.076 8.133-3.368 3.643-2.429 5.233-5.031 5.856-6.367.957-1.808 1.606-4.192 2.235-6.498a.517.517 0 1 1 .998.272c-.643 2.36-1.308 4.8-2.307 6.687-.658 1.41-2.356 4.198-6.212 6.769-5.358 3.499-8.568 3.54-8.701 3.54M150.946 48.873l-.048-.002c-1.373-.125-3.328-1.184-4.601-3.266a.518.518 0 0 1 .882-.54c1.08 1.767 2.734 2.677 3.813 2.776a.516.516 0 0 1-.046 1.032M149.651 43.91a.517.517 0 0 1-.421-.217l-.54-.755a.517.517 0 1 1 .842-.601l.54.756a.517.517 0 0 1-.42.817M168.314 49.304a.517.517 0 0 1-.39-.856c.678-.782 1.008-1.37.978-1.749-.021-.29-.284-.528-.71-.892-.546-.464-1.224-1.042-1.46-2.084-.586-2.225.766-5.677 1.336-6.818a.516.516 0 1 1 .925.462c-.613 1.225-1.725 4.33-1.257 6.11.164.724.632 1.122 1.126 1.543.5.426 1.017.867 1.072 1.601.052.691-.327 1.464-1.229 2.504a.516.516 0 0 1-.391.179M164.215 55.07a.517.517 0 0 1-.02-1.033c.059-.002 5.884-.236 9.486-1.218a.518.518 0 0 1 .272.998c-3.717 1.013-9.475 1.244-9.718 1.253h-.02M157.033 34.885a.516.516 0 0 1-.111-1.023c.354-.077.72-.145 1.087-.211 1.841-.335 3.063-.634 3.277-1.706a.518.518 0 0 1 1.014.202c-.367 1.842-2.353 2.203-4.106 2.52-.353.065-.708.13-1.05.205a.495.495 0 0 1-.111.013M178.031 34.885a.495.495 0 0 1-.112-.013c-.342-.075-.696-.14-1.05-.204-1.752-.318-3.74-.68-4.106-2.521a.517.517 0 1 1 1.014-.202c.214 1.072 1.437 1.371 3.278 1.706.366.066.733.134 1.087.211a.517.517 0 0 1-.11 1.023M161.949 17.802a.517.517 0 0 1-.51-.432c-.02-.123-.04-.247-.058-.372-.17-1.132-.347-2.302-2.295-4.434a.517.517 0 1 1 .764-.698c2.16 2.365 2.37 3.753 2.554 4.977.018.12.036.239.056.357a.517.517 0 0 1-.511.602" fill="#1E2F4E"/>
        <path d="M144.473 46.823a.516.516 0 0 1-.232-.98c1.547-.773 3.127-2.075 4.697-3.87 2.095-2.425 3.472-5.58 3.977-9.118.65-5.032 2.133-11.668 7.47-11.121a.517.517 0 0 1-.106 1.028c-3.43-.353-5.381 2.804-6.34 10.233-.534 3.741-1.993 7.078-4.22 9.657-1.661 1.899-3.348 3.283-5.015 4.116a.518.518 0 0 1-.231.055M141.56 32.798a.517.517 0 0 1-.51-.61c2.645-14.418 7.658-21.93 15.328-22.966a.517.517 0 1 1 .138 1.024c-7.17.969-11.896 8.207-14.448 22.128a.517.517 0 0 1-.508.424M200.705 73.504a.516.516 0 0 1-.48-.71c1.725-4.275.22-6.423-1.52-8.91-.833-1.19-1.696-2.421-2.189-3.932-1.7-4.955-1.252-7.496-.82-9.953.237-1.339.48-2.724.368-4.524-.22-3.523-1.454-10.353-3.644-17.024-1.294-3.968-5.23-16.04-13.755-20.084-4.734-2.162-13.685-4.049-17.523.1a.516.516 0 1 1-.76-.702c4.208-4.55 13.715-2.62 18.72-.336 8.933 4.238 12.973 16.628 14.301 20.7 2.23 6.794 3.462 13.575 3.693 17.281.12 1.924-.135 3.37-.381 4.77-.428 2.434-.834 4.733.782 9.444.448 1.372 1.265 2.539 2.055 3.668 1.753 2.504 3.566 5.094 1.633 9.888a.518.518 0 0 1-.48.324M134.602 73.36a.518.518 0 0 1-.472-.304c-.988-2.196-.132-3.338.775-4.547 1.087-1.45 2.32-3.092 1.297-7.412-1.52-6.497.344-12.936 2.316-19.752.606-2.092 1.232-4.255 1.784-6.491a.517.517 0 0 1 1.004.248c-.557 2.256-1.186 4.43-1.794 6.53-2.018 6.973-3.76 12.996-2.304 19.228 1.135 4.79-.374 6.801-1.476 8.27-.871 1.161-1.397 1.863-.66 3.501a.517.517 0 0 1-.47.73M156.448 72.746c-.015 0-.03 0-.044-.002a.516.516 0 0 1-.471-.56c.44-5.176-.21-12.49-.216-12.562a.518.518 0 0 1 1.03-.093c.006.074.664 7.475.216 12.744a.517.517 0 0 1-.515.473M179.318 69.91a.517.517 0 0 1-.504-.409c-.656-3.056-.245-9.37-.227-9.637a.516.516 0 1 1 1.032.07c-.005.064-.42 6.435.205 9.35a.517.517 0 0 1-.506.626M158.066 39.725c0-1.079.647-1.942 1.618-1.942.863 0 1.619.863 1.619 1.942 0 1.08-.648 1.942-1.62 1.942-.97 0-1.617-.863-1.617-1.942M174.032 39.725c0-1.079.755-1.942 1.619-1.942.863 0 1.618.863 1.618 1.942 0 1.08-.755 1.942-1.618 1.942-.864 0-1.619-.863-1.619-1.942" fill="#1E2F4E"/>
        <path d="M189.89 53.188a.509.509 0 0 1-.153-.024c-5.026-1.563-6.28-5.412-6.62-10.709-.325-5.091-2.23-7.674-3.636-9.173-.736-.828-1.64-1.523-2.595-2.258-1.226-.944-2.493-1.92-3.386-3.193-.765-1.053-1.37-2.075-1.902-2.977-.667-1.126-1.242-2.099-1.923-2.78-1.177-1.177-2.71-2.13-5.147-.278a.516.516 0 1 1-.625-.823c2.345-1.782 4.473-1.66 6.503.37.774.773 1.38 1.798 2.082 2.985.521.882 1.112 1.881 1.854 2.902.807 1.152 2.01 2.078 3.175 2.974.951.732 1.936 1.49 2.728 2.38 1.505 1.607 3.559 4.382 3.905 9.805.328 5.14 1.398 8.39 5.895 9.788a.518.518 0 0 1-.154 1.01M143.387 119.5a.517.517 0 0 1-.517-.516l-.002-14.569h1.035v14.569c0 .285-.23.516-.516.516M169.219 90.8h-.017c-7.375-.017-17.542-19.18-17.971-19.996a.517.517 0 0 1 .915-.481c.102.194 10.302 19.428 17.059 19.444h.014c8.304 0 15.844-17.38 15.92-17.556a.517.517 0 0 1 .951.407c-.32.744-7.889 18.183-16.871 18.183" fill="#1E2F4E"/>
        <path d="M146.603 170.118h-.376a.516.516 0 0 1-.289-.09c-5.345-3.627-2.128-16.335-1.988-16.875a.516.516 0 0 1 .415-.38l51.556-8.662a.517.517 0 1 1 .171 1.02l-51.219 8.605c-.457 1.967-2.624 12.303 1.52 15.348 3.343-.003 56.048-.206 66.955-9.987 4.102-3.679 3.722-19.352 3.24-39.193-.052-2.106-.104-4.26-.153-6.455-.442-20.066-2.805-32.255-7.027-36.227-5.974-5.624-25.952-5.209-26.152-5.202h-.013a.517.517 0 0 1-.012-1.034c.836-.02 20.603-.43 26.886 5.482 4.43 4.17 6.904 16.604 7.352 36.959.048 2.194.1 4.347.152 6.451.508 20.895.875 35.992-3.582 39.988-11.135 9.986-62.107 10.252-67.436 10.252" fill="#1E2F4E"/>
        <path d="M194.381 145.41a.517.517 0 0 1-.517-.508c-.165-9.657.889-37.04.9-37.316a.517.517 0 0 1 1.033.04c-.011.276-1.064 27.63-.899 37.258a.517.517 0 0 1-.507.526h-.01zM204.381 182.699a.517.517 0 0 1-.516-.517v-18.277a.517.517 0 0 1 1.033 0v18.277a.517.517 0 0 1-.517.517" fill="#1E2F4E"/>
        <path d="M182.307 72.229c.298 3.85-3.19 6.537-3.001 12.696.095 2.084.67 9.118-4.116 15.683l-8.54-7.886c.474-4.263-.608-7.702-1.177-9.503-1.421-4.263-4.358-9.853-4.358-12.696 0-2.558 2.084-7.959 2.842-9.095.758-1.137 1.99-1.611 5.117-1.706 3.22-.094 5.116-.853 5.4.569.568 2.463-4.358 2.842-6.064 3.505-1.705.663-2.084 5.496-2.179 7.106l5.172-7.284c2.953-1.263 5.04-.93 6.247 1.028 0 0 4.358 3.732 4.657 7.583" fill="#FAD9C7"/>
        <path d="M166.651 93.24c-.02 0-.038 0-.058-.003a.516.516 0 0 1-.456-.571c.462-4.163-.591-7.499-1.157-9.29-.489-1.466-1.176-3.131-1.84-4.742-1.308-3.167-2.542-6.159-2.542-8.111 0-2.723 2.126-8.18 2.929-9.382.888-1.333 2.336-1.84 5.532-1.935.891-.027 1.677-.105 2.37-.173 1.82-.18 3.256-.323 3.552 1.157.545 2.361-2.676 3.138-4.807 3.653-.619.15-1.203.29-1.577.435-.721.28-1.587 2.177-1.85 6.654a.525.525 0 0 1-.546.486.517.517 0 0 1-.486-.547c.263-4.47 1.107-7.012 2.508-7.557.437-.17 1.026-.312 1.709-.477 2.296-.553 4.332-1.156 4.039-2.43-.102-.51-.584-.529-2.441-.346-.71.07-1.514.15-2.441.178-3.19.096-4.113.593-4.702 1.475-.75 1.126-2.755 6.407-2.755 8.809 0 1.747 1.253 4.782 2.463 7.717.672 1.627 1.366 3.309 1.869 4.816.591 1.872 1.687 5.344 1.2 9.724a.517.517 0 0 1-.513.46" fill="#1E2F4E"/>
        <path d="M165.852 72.746a.516.516 0 0 1-.478-.713c1.558-3.798 4.142-8.136 6.405-9.268 2.505-1.198 6.265.81 7.96 3.402a.517.517 0 1 1-.866.565c-1.561-2.388-4.849-3.892-6.64-3.038-1.914.957-4.42 5.118-5.903 8.731a.517.517 0 0 1-.478.32" fill="#1E2F4E"/>
        <path d="M169.926 74.072a.516.516 0 0 1-.491-.677c1.043-3.204 2.853-7.32 5.557-8.73 1.345-.733 3.855.696 5.593 2.145 1.87 1.558 1.89 3.626 1.89 3.713a.517.517 0 0 1-1.033 0c-.001-.066-.033-1.68-1.52-2.919-1.81-1.509-3.762-2.397-4.443-2.027-1.876.979-3.671 3.868-5.062 8.138a.516.516 0 0 1-.49.357" fill="#1E2F4E"/>
        <path d="M179.576 77.484c-.033 0-.066 0-.098-.002a.516.516 0 0 1-.5-.534.502.502 0 0 1 .536-.499c.667.01 1.227-.32 1.648-1.023.828-1.38.817-3.578.255-4.549-.67-1.253-2.688-1.858-3.558-1.569-.845.354-2.594 2.459-3.551 5.81a.517.517 0 1 1-.994-.284c1-3.502 2.901-5.96 4.182-6.494 1.417-.474 3.951.398 4.824 2.035.802 1.384.679 4-.271 5.583-.592.988-1.467 1.526-2.473 1.526" fill="#1E2F4E"/>
        <path d="M175.19 101.124a.516.516 0 0 1-.417-.821c4.478-6.142 4.153-12.624 4.03-15.064l-.014-.29c-.056-1.826-.186-3.382-.302-4.755-.279-3.335-.464-5.54.76-7.483a.517.517 0 0 1 .875.551c-1.04 1.651-.866 3.718-.604 6.846.116 1.386.248 2.957.304 4.801l.014.277c.115 2.298.466 9.289-4.228 15.726a.517.517 0 0 1-.418.212M144.451 167.971a.506.506 0 0 1-.133-.017l-5.05-1.337c-.816.098-5.53.405-10.85-4.523-2.595-2.406-4.283-5.89-4.353-6.036a.518.518 0 0 1 .932-.448c.017.035 1.676 3.456 4.125 5.726 5.358 4.966 10.047 4.252 10.093 4.244a.506.506 0 0 1 .217.01l5.151 1.364a.517.517 0 0 1-.132 1.017" fill="#1E2F4E"/>
        <path d="M139.3 102.227s-.862 21.992 5.287 15.497c7.681-8.123 20.854-25.395 20.854-25.395 3.21-.427 9.749 4.292 10.691 9.073 0 0-21.328 40.305-29.538 49.605-8.21 9.299-14.953 10.571-18.966 5.653-4.013-4.93-5.793-22.246-5.286-45.409.475-21.393.863-31.178 4.92-35.007 1.315-1.241 3.409-2.212 5.89-2.988 7.315-2.266 12.194-1.676 16.23-1.763l-.54 5.475-9.542 25.26z" fill="#E89A9D"/>
        <path d="m133.248 160.001-.154-.001c-2.297-.045-4.271-1.059-5.867-3.014-3.963-4.869-5.932-21.542-5.402-45.746.481-21.655.87-31.396 5.082-35.373 1.282-1.208 3.273-2.223 6.09-3.105 7.84-2.428 20.7-2.818 23.198-2.872a.517.517 0 1 1 .022 1.034c-2.474.053-15.206.439-22.912 2.825-2.626.822-4.54 1.788-5.689 2.87-3.9 3.684-4.295 13.845-4.757 34.644-.517 23.609 1.416 40.458 5.17 45.07 1.394 1.708 3.105 2.594 5.086 2.633 3.71.06 8.233-2.798 13.091-8.302 7.81-8.846 27.877-46.506 29.382-49.34-1.005-4.413-6.971-8.644-9.874-8.501-1.43 1.866-13.56 17.651-20.751 25.257-6.087 6.428-13.62 13.71-13.696 13.782a.517.517 0 1 1-.718-.744c.075-.073 7.592-7.338 13.663-13.75 7.574-8.01 20.686-25.18 20.818-25.353a.52.52 0 0 1 .343-.199c3.615-.477 10.288 4.524 11.267 9.486a.52.52 0 0 1-.05.341c-.872 1.648-21.451 40.466-29.608 49.705-5.002 5.665-9.746 8.653-13.734 8.653" fill="#1E2F4E"/>
        <path d="M124.372 160.509c-.63 0-1.372-.142-2.187-.565-2.214-1.15-5.816-5.872-5.328-8.314.457-2.285 5.9-3.309 6.985-3.49a.516.516 0 1 1 .171 1.019c-2.409.404-5.907 1.502-6.142 2.674-.36 1.799 2.747 6.132 4.79 7.193 1.86.966 3.175.075 3.23.036a.52.52 0 0 1 .72.125.515.515 0 0 1-.119.717c-.05.036-.862.605-2.12.605" fill="#1E2F4E"/>
        <path d="M124.885 156.169a.516.516 0 0 1-.22-.05l-3.283-1.55a.517.517 0 0 1 .442-.935l3.282 1.55a.517.517 0 0 1-.221.985" fill="#1E2F4E"/>
        <g filter="url(#kw2yqschya)" transform="translate(203 7)">
            <path d="M.642 71.638c0 3.513 2.832 5.433 6.371 5.433 3.538 0 6.441-1.92 6.441-5.433 0-3.514-2.96-5.978-6.497-5.978-3.538 0-6.315 2.464-6.315 5.978" fill="#FEFEFE"/>
            <path d="M.642 71.638c0 3.513 2.832 5.433 6.371 5.433 3.538 0 6.441-1.92 6.441-5.433 0-3.514-2.96-5.978-6.497-5.978-3.538 0-6.315 2.464-6.315 5.978z" stroke="#1E2F4E" stroke-width="1.28"/>
            <path d="M11.834 42.401c0 24.55 19.793 37.962 44.515 37.962S101.36 66.95 101.36 42.4c0-24.55-20.678-41.764-45.4-41.764-24.72 0-44.125 17.214-44.125 41.764" fill="#FEFEFE"/>
            <path d="M11.834 42.401c0 24.55 19.793 37.962 44.515 37.962S101.36 66.95 101.36 42.4c0-24.55-20.678-41.764-45.4-41.764-24.72 0-44.125 17.214-44.125 41.764z" stroke="#1E2F4E" stroke-width="1.28"/>
            <mask id="ii5eaysq2c" fill="#fff">
                <use xlink:href="#s5ju17ce1b"/>
            </mask>
            <path fill="#FEFEFE" mask="url(#ii5eaysq2c)" d="M49.914 61.642h30.314V19.464H49.914z"/>
            <path stroke="#1E2F4E" stroke-width="1.28" stroke-linecap="round" stroke-linejoin="round" mask="url(#ii5eaysq2c)" d="M49.914 61.642h30.314V19.464H49.914z"/>
            <path fill="#DBDCDC" mask="url(#ii5eaysq2c)" d="M47.702 59.446h30.315V17.268H47.702z"/>
            <path stroke="#1E2F4E" stroke-width="1.28" stroke-linecap="round" stroke-linejoin="round" mask="url(#ii5eaysq2c)" d="M47.702 59.446h30.315V17.268H47.702z"/>
            <path fill="#FEFEFE" mask="url(#ii5eaysq2c)" d="M45.49 57.249h30.315V15.07H45.49z"/>
            <path stroke="#1E2F4E" stroke-width="1.28" stroke-linecap="round" stroke-linejoin="round" mask="url(#ii5eaysq2c)" d="M45.49 57.249h30.315V15.07H45.49zM49.793 20.355h6.339M49.613 25.739h22.068M49.613 30.061h22.068M49.613 34.384h22.068M49.613 38.706h22.068M49.613 43.029h22.068M64.607 51.143h7.074"/>
            <path fill="#FEFEFE" mask="url(#ii5eaysq2c)" d="m40.554 51.744-2.476-2.459 2.572-2.554 2.476 2.459z"/>
            <path stroke="#1E2F4E" stroke-width="1.28" stroke-linecap="round" stroke-linejoin="round" mask="url(#ii5eaysq2c)" d="m40.554 51.744-2.476-2.459 2.572-2.554 2.476 2.459z"/>
            <path d="m30.372 60.965-1.58-1.568a1.184 1.184 0 0 1 0-1.683l8.887-8.825 3.274 3.25-8.887 8.826a1.203 1.203 0 0 1-1.694 0" fill="#3988B7" mask="url(#ii5eaysq2c)"/>
            <path d="m30.372 60.965-1.58-1.568a1.184 1.184 0 0 1 0-1.683l8.887-8.825 3.274 3.25-8.887 8.826a1.203 1.203 0 0 1-1.694 0z" stroke="#1E2F4E" stroke-width="1.28" stroke-linecap="round" stroke-linejoin="round" mask="url(#ii5eaysq2c)"/>
            <path d="M61.658 48.556c-5.625 5.586-14.745 5.586-20.37 0a14.235 14.235 0 0 1 0-20.23c5.625-5.585 14.745-5.585 20.37 0a14.234 14.234 0 0 1 0 20.23" fill="#B4B5B5" mask="url(#ii5eaysq2c)"/>
            <path d="M61.658 48.556c-5.625 5.586-14.745 5.586-20.37 0a14.235 14.235 0 0 1 0-20.23c5.625-5.585 14.745-5.585 20.37 0a14.234 14.234 0 0 1 0 20.23z" stroke="#1E2F4E" stroke-width="1.28" stroke-linecap="round" stroke-linejoin="round" mask="url(#ii5eaysq2c)"/>
            <path d="M59.387 46.3c-4.37 4.34-11.456 4.34-15.828 0a11.06 11.06 0 0 1 0-15.718c4.372-4.34 11.458-4.34 15.828 0a11.06 11.06 0 0 1 0 15.719" fill="#90D2EB" mask="url(#ii5eaysq2c)"/>
            <path d="M59.387 46.3c-4.37 4.34-11.456 4.34-15.828 0a11.06 11.06 0 0 1 0-15.718c4.372-4.34 11.458-4.34 15.828 0a11.06 11.06 0 0 1 0 15.719z" stroke="#1E2F4E" stroke-width="1.28" stroke-linecap="round" stroke-linejoin="round" mask="url(#ii5eaysq2c)"/>
            <path d="M56.9 39.15c-.217-.406-.554-.751-1-1.028a5.004 5.004 0 0 0-1.58-.62c-.605-.134-1.422-.258-2.444-.375v-5.441c1.271.018 2.26.354 2.95.997.106.463.175 1.026.213 1.702l.1.084h.498l.1-.096.1-1.07c.03-.336.067-.601.102-.79.042-.186.09-.39.16-.602l-.05-.133c-.769-.434-2.158-.713-4.173-.848.02-.782.034-1.2.052-1.257l-.124-.092h-.891l-.123.092c.024.206.044.64.05 1.3-1.657.214-2.883.725-3.677 1.538-.795.807-1.194 1.728-1.194 2.758 0 .539.103 1.015.314 1.431.208.415.528.77.968 1.07.438.3.926.51 1.473.629.544.122 1.25.234 2.117.338v5.83c-.843 0-1.537-.111-2.08-.329a6.093 6.093 0 0 1-1.582-.958c-.024-.159-.048-.772-.076-1.834l-.1-.095h-.56l-.11.085c-.096 1.207-.21 2.187-.354 2.935l.103.155c1.41.525 2.992.796 4.759.823a55.325 55.325 0 0 1-.05 2.001l.122.093h.925l.116-.093c-.037-.31-.057-.988-.078-2.039 1.282-.215 2.276-.518 2.987-.912.71-.395 1.28-.931 1.709-1.61.434-.675.65-1.423.65-2.24 0-.521-.106-.989-.323-1.399zm-6.06-2.136c-.796-.068-1.484-.268-2.062-.597-.574-.33-.86-.932-.86-1.806 0-.644.154-1.185.46-1.62.31-.439.664-.745 1.07-.926a4.544 4.544 0 0 1 1.393-.34v5.29zm3.43 6.565c-.63.604-1.428.915-2.394.939v-5.682c1.3.163 2.18.456 2.64.865.465.415.695.964.695 1.65 0 .883-.313 1.621-.941 2.228z" fill="#1E2F4E" mask="url(#ii5eaysq2c)"/>
        </g>
        <g filter="url(#o2s9kvmgmd)" transform="translate(16 12)">
            <path d="M101.358 71.638c0 3.513-2.832 5.433-6.37 5.433-3.539 0-6.442-1.92-6.442-5.433 0-3.514 2.96-5.978 6.497-5.978 3.538 0 6.315 2.464 6.315 5.978" fill="#FEFEFE"/>
            <path d="M101.358 71.638c0 3.513-2.832 5.433-6.37 5.433-3.539 0-6.442-1.92-6.442-5.433 0-3.514 2.96-5.978 6.497-5.978 3.538 0 6.315 2.464 6.315 5.978z" stroke="#1E2F4E" stroke-width="1.28"/>
            <path d="M112.529 78.85c0 2.464-1.986 3.81-4.467 3.81-2.48 0-4.516-1.346-4.516-3.81 0-2.462 2.075-4.19 4.555-4.19 2.48 0 4.428 1.728 4.428 4.19" fill="#FEFEFE"/>
            <path d="M112.529 78.85c0 2.464-1.986 3.81-4.467 3.81-2.48 0-4.516-1.346-4.516-3.81 0-2.462 2.075-4.19 4.555-4.19 2.48 0 4.428 1.728 4.428 4.19z" stroke="#1E2F4E" stroke-width="1.28"/>
            <path d="M189.529 76.85c0 2.464-1.986 3.81-4.467 3.81-2.48 0-4.516-1.346-4.516-3.81 0-2.462 2.075-4.19 4.555-4.19 2.48 0 4.428 1.728 4.428 4.19" fill="#FEFEFE"/>
            <path d="M189.529 76.85c0 2.464-1.986 3.81-4.467 3.81-2.48 0-4.516-1.346-4.516-3.81 0-2.462 2.075-4.19 4.555-4.19 2.48 0 4.428 1.728 4.428 4.19z" stroke="#1E2F4E" stroke-width="1.28"/>
            <path d="M90.166 42.401c0 24.55-19.793 37.962-44.515 37.962S.64 66.95.64 42.4C.642 17.851 21.32.637 46.042.637c24.721 0 44.125 17.214 44.125 41.764" fill="#FEFEFE"/>
            <path d="M90.166 42.401c0 24.55-19.793 37.962-44.515 37.962S.64 66.95.64 42.4C.642 17.851 21.32.637 46.042.637c24.721 0 44.125 17.214 44.125 41.764z" stroke="#1E2F4E" stroke-width="1.28"/>
            <path d="M67.565 38.175H40.978a2.607 2.607 0 0 1-2.616-2.598v-14.52a2.607 2.607 0 0 1 2.616-2.598h26.587a2.607 2.607 0 0 1 2.616 2.598v14.52a2.607 2.607 0 0 1-2.616 2.598" fill="#90D2EB"/>
            <path d="M67.565 38.175H40.978a2.607 2.607 0 0 1-2.616-2.598v-14.52a2.607 2.607 0 0 1 2.616-2.598h26.587a2.607 2.607 0 0 1 2.616 2.598v14.52a2.607 2.607 0 0 1-2.616 2.598z" stroke="#1E2F4E" stroke-width="1.28" stroke-linecap="round" stroke-linejoin="round"/>
            <mask id="mi4lovsrbf" fill="#fff">
                <use xlink:href="#k2jgacm12e"/>
            </mask>
            <path fill="#F39F59" mask="url(#mi4lovsrbf)" d="M42.078 29.888h4.868v-3.142h-4.868z"/>
            <path stroke="#1E2F4E" stroke-width="1.28" stroke-linecap="round" stroke-linejoin="round" mask="url(#mi4lovsrbf)" d="M42.078 29.888h4.868v-3.142h-4.868z"/>
            <path d="M65.378 33.949a1.98 1.98 0 0 1-1.987 1.973 1.98 1.98 0 0 1-1.987-1.973c0-1.09.89-1.973 1.987-1.973a1.98 1.98 0 0 1 1.987 1.973" fill="#CD6170" mask="url(#mi4lovsrbf)"/>
            <path d="M65.378 33.949a1.98 1.98 0 0 1-1.987 1.973 1.98 1.98 0 0 1-1.987-1.973c0-1.09.89-1.973 1.987-1.973a1.98 1.98 0 0 1 1.987 1.973z" stroke="#1E2F4E" stroke-width="1.28" stroke-linecap="round" stroke-linejoin="round" mask="url(#mi4lovsrbf)"/>
            <path d="M67.885 33.949a1.98 1.98 0 0 1-1.987 1.973 1.981 1.981 0 0 1-1.988-1.973c0-1.09.89-1.973 1.988-1.973a1.98 1.98 0 0 1 1.987 1.973" fill="#F39F59" mask="url(#mi4lovsrbf)"/>
            <path d="M67.885 33.949a1.98 1.98 0 0 1-1.987 1.973 1.981 1.981 0 0 1-1.988-1.973c0-1.09.89-1.973 1.988-1.973a1.98 1.98 0 0 1 1.987 1.973z" stroke="#1E2F4E" stroke-width="1.28" stroke-linecap="round" stroke-linejoin="round" mask="url(#mi4lovsrbf)"/>
            <path d="M39.484 51.454c0 6.458-5.271 11.693-11.775 11.693-6.503 0-11.775-5.235-11.775-11.693 0-6.458 5.272-11.694 11.775-11.694 6.504 0 11.775 5.236 11.775 11.694" fill="#F7C292" mask="url(#mi4lovsrbf)"/>
            <path d="M39.484 51.454c0 6.458-5.271 11.693-11.775 11.693-6.503 0-11.775-5.235-11.775-11.693 0-6.458 5.272-11.694 11.775-11.694 6.504 0 11.775 5.236 11.775 11.694z" stroke="#1E2F4E" stroke-width="1.28" stroke-linecap="round" stroke-linejoin="round" mask="url(#mi4lovsrbf)"/>
            <path d="M66.056 45.374 63.73 42.97l-1.365-1.408-1.363 1.415-2.319 2.397h2.32v4.97a3.451 3.451 0 0 1-3.458 3.44h-15.11v2.71h15.11c3.41 0 6.185-2.757 6.185-6.15v-4.97h2.325z" fill="#CD6170" mask="url(#mi4lovsrbf)"/>
            <path d="M66.056 45.374 63.73 42.97l-1.365-1.408-1.363 1.415-2.319 2.397h2.32v4.97a3.451 3.451 0 0 1-3.458 3.44h-15.11v2.71h15.11c3.41 0 6.185-2.757 6.185-6.15v-4.97h2.325z" stroke="#1E2F4E" stroke-width="1.28" stroke-linecap="round" stroke-linejoin="round" mask="url(#mi4lovsrbf)"/>
            <path d="M28.197 25.113c-3.41 0-6.184 2.756-6.184 6.149v1.93H19.7l2.312 2.39 1.376 1.422 1.351-1.395 2.332-2.417H24.74v-1.93c0-1.896 1.554-3.44 3.457-3.44h6.757v-2.709h-6.757z" fill="#00A78D" mask="url(#mi4lovsrbf)"/>
            <path d="M28.197 25.113c-3.41 0-6.184 2.756-6.184 6.149v1.93H19.7l2.312 2.39 1.376 1.422 1.351-1.395 2.332-2.417H24.74v-1.93c0-1.896 1.554-3.44 3.457-3.44h6.757v-2.709h-6.757z" stroke="#1E2F4E" stroke-width="1.28" stroke-linecap="round" stroke-linejoin="round" mask="url(#mi4lovsrbf)"/>
            <path d="M33.061 52.135c-.216-.406-.553-.751-1-1.027a5.004 5.004 0 0 0-1.578-.62c-.606-.135-1.423-.258-2.445-.376v-5.44c1.271.018 2.26.353 2.95.996.106.463.175 1.026.213 1.702l.1.084h.498l.1-.096.1-1.07c.03-.336.068-.601.102-.789.042-.187.09-.39.16-.602l-.05-.133c-.768-.435-2.158-.714-4.173-.849.02-.782.034-1.2.052-1.257l-.124-.092h-.89l-.123.092c.023.206.043.64.05 1.3-1.657.214-2.884.725-3.678 1.538-.794.807-1.194 1.728-1.194 2.759 0 .538.104 1.014.314 1.43.208.416.528.77.968 1.07.438.3.926.51 1.473.629.545.123 1.25.234 2.117.339v5.83c-.842 0-1.537-.112-2.08-.33a6.093 6.093 0 0 1-1.582-.958c-.023-.158-.048-.772-.076-1.834l-.099-.095h-.56l-.11.085c-.097 1.208-.21 2.188-.355 2.936l.103.154c1.41.525 2.993.796 4.76.823a55.325 55.325 0 0 1-.051 2.001l.122.093H28l.117-.093c-.038-.31-.058-.988-.08-2.038 1.284-.215 2.277-.519 2.988-.913.71-.395 1.28-.93 1.71-1.61.433-.675.65-1.422.65-2.239 0-.522-.107-.99-.324-1.4zM27.003 50c-.797-.067-1.485-.267-2.062-.597-.575-.33-.86-.932-.86-1.806 0-.644.154-1.185.46-1.62.31-.439.663-.745 1.07-.926a4.544 4.544 0 0 1 1.392-.34V50zm3.429 6.565c-.63.605-1.427.915-2.394.94V51.82c1.3.164 2.18.456 2.64.866.465.415.696.963.696 1.65 0 .882-.314 1.62-.942 2.227z" fill="#1E2F4E" mask="url(#mi4lovsrbf)"/>
        </g>
    </g>
</svg>
