<svg width="200" height="200" viewBox="0 0 200 200" xmlns="http://www.w3.org/2000/svg" xmlns:xlink="http://www.w3.org/1999/xlink">
    <defs>
        <path d="M90 12c45.287 0 82 35.817 82 80s-36.713 80-82 80S8 136.183 8 92s36.713-80 82-80zm0 2.051c-44.167 0-79.95 34.91-79.95 77.949 0 43.038 35.783 77.949 79.95 77.949s79.95-34.91 79.95-77.949c0-43.038-35.783-77.949-79.95-77.949z" id="gccsebcfwh"/>
        <path id="ysuuhhncmj" d="M0 0h2v22H0z"/>
        <path id="24ynxkh13l" d="M0 0h200v120H0z"/>
        <path id="5wxnhb2gpo" d="M0 0h2v22H0z"/>
        <path id="dnfcxsiiqq" d="M0 0h69v69H0z"/>
        <circle id="3t8zv1noua" cx="90" cy="90" r="90"/>
        <circle id="mmimybhdqd" cx="90" cy="90" r="90"/>
        <circle id="hv84thgijf" cx="90" cy="90" r="90"/>
        <filter x="-5.6%" y="-2.8%" width="111.1%" height="111.1%" filterUnits="objectBoundingBox" id="0tgj70pkbb">
            <feOffset dy="5" in="SourceAlpha" result="shadowOffsetOuter1"/>
            <feGaussianBlur stdDeviation="2.5" in="shadowOffsetOuter1" result="shadowBlurOuter1"/>
            <feComposite in="shadowBlurOuter1" in2="SourceAlpha" operator="out" result="shadowBlurOuter1"/>
            <feColorMatrix values="0 0 0 0 0 0 0 0 0 0 0 0 0 0 0 0 0 0 0.2 0" in="shadowBlurOuter1"/>
        </filter>
        <filter x="-.3%" y="-.3%" width="100.6%" height="100.6%" filterUnits="objectBoundingBox" id="8i3ydrx81i">
            <feOffset dy="1" in="SourceAlpha" result="shadowOffsetInner1"/>
            <feComposite in="shadowOffsetInner1" in2="SourceAlpha" operator="arithmetic" k2="-1" k3="1" result="shadowInnerInner1"/>
            <feColorMatrix values="0 0 0 0 0 0 0 0 0 0 0 0 0 0 0 0 0 0 0.2 0" in="shadowInnerInner1"/>
        </filter>
        <radialGradient cx="50%" cy="34.806%" fx="50%" fy="34.806%" r="112.151%" gradientTransform="matrix(0 .7156 -1 0 .848 -.01)" id="wolj2lmrqn">
            <stop stop-color="#FFF" offset="0%"/>
            <stop stop-color="#FFDA00" offset="100%"/>
        </radialGradient>
    </defs>
    <g fill="none" fill-rule="evenodd">
        <g transform="translate(10 10)">
            <mask id="3rcu233oac" fill="#fff">
                <use xlink:href="#3t8zv1noua"/>
            </mask>
            <g fill="#000">
                <use filter="url(#0tgj70pkbb)" xlink:href="#3t8zv1noua"/>
                <use fill-opacity=".5" xlink:href="#3t8zv1noua"/>
            </g>
            <g mask="url(#3rcu233oac)">
                <g transform="translate(0 -6)">
                    <mask id="4ylbz1ltbe" fill="#fff">
                        <use xlink:href="#mmimybhdqd"/>
                    </mask>
                    <circle stroke="#D95555" cx="90" cy="90" r="89.5"/>
                    <g mask="url(#4ylbz1ltbe)">
                        <mask id="vt7xjso89g" fill="#fff">
                            <use xlink:href="#hv84thgijf"/>
                        </mask>
                        <circle stroke="#D95555" cx="90" cy="90" r="89.5"/>
                        <g fill-rule="nonzero" mask="url(#vt7xjso89g)">
                            <use fill="#D95555" xlink:href="#gccsebcfwh"/>
                            <use fill="#000" filter="url(#8i3ydrx81i)" xlink:href="#gccsebcfwh"/>
                        </g>
                        <path d="M90 176.25a.75.75 0 0 1 .743.648l.007.102v10a.75.75 0 0 1-1.493.102L89.25 187v-10a.75.75 0 0 1 .75-.75zm-5.842-.204a.75.75 0 0 1 .696.698v.102l-.698 9.976a.75.75 0 0 1-1.496-.003v-.102l.697-9.975a.75.75 0 0 1 .8-.696zm22.675-.84.027.098 1.908 9.817a.75.75 0 0 1-1.447.384l-.026-.098-1.908-9.816a.75.75 0 0 1 1.446-.385zm-38.51-1.81a.75.75 0 0 1 .551.819l-.02.1-2.588 9.66a.75.75 0 0 1-1.469-.289l.02-.1 2.588-9.66a.75.75 0 0 1 .919-.53zm44.239.434.033.097 2.588 9.659a.75.75 0 0 1-1.416.485l-.033-.097-2.588-9.66a.75.75 0 0 1 1.416-.484zm-49.828-2.143a.75.75 0 0 1 .491.855l-.026.098-3.256 9.456a.75.75 0 0 1-1.445-.39l.027-.099 3.255-9.455a.75.75 0 0 1 .954-.465zm64.932-3.656.05.088 4.384 8.988a.75.75 0 0 1-1.297.746l-.051-.088-4.384-8.988a.75.75 0 0 1 1.298-.746zm-79.541-3.001a.75.75 0 0 1 .32.933l-.045.091-5 8.66a.75.75 0 0 1-1.344-.658l.044-.092 5-8.66a.75.75 0 0 1 1.025-.274zm84.718.19.057.084 5 8.66a.75.75 0 0 1-1.243.835l-.057-.085-5-8.66a.75.75 0 0 1 1.243-.835zm-89.675-3.288a.75.75 0 0 1 .257.945l-.055.096-5.592 8.29a.75.75 0 0 1-1.299-.742l.055-.096 5.592-8.29a.75.75 0 0 1 1.042-.203zm102.756-6.23.079.079 6.56 7.547a.75.75 0 0 1-1.053 1.062l-.078-.078-6.561-7.547a.75.75 0 0 1 1.053-1.062zm4.273-4.054.084.072 7.07 7.071a.75.75 0 0 1-.976 1.134l-.084-.073-7.07-7.071a.75.75 0 0 1 .976-1.133zm-119.417.072a.75.75 0 0 1 .072.977l-.072.084-7.071 7.07a.75.75 0 0 1-1.134-.976l.073-.084 7.071-7.07a.75.75 0 0 1 1.06 0zm-3.987-4.275a.75.75 0 0 1 .004.98l-.078.078-7.547 6.56a.75.75 0 0 1-1.062-1.053l.078-.078 7.547-6.561a.75.75 0 0 1 1.058.074zm133.584-8.37.096.055 8.29 5.592a.75.75 0 0 1-.742 1.299l-.096-.055-8.29-5.592a.75.75 0 0 1 .742-1.3zm-142.907-4.7a.75.75 0 0 1-.19.968l-.084.057-8.66 5a.75.75 0 0 1-.835-1.243l.085-.057 8.66-5a.75.75 0 0 1 1.024.275zm145.993-.32.091.045 8.66 5a.75.75 0 0 1-.658 1.344l-.092-.044-8.66-5a.75.75 0 0 1 .659-1.344zm-148.737-4.841a.75.75 0 0 1-.257.952l-.088.05-8.988 4.384a.75.75 0 0 1-.746-1.297l.088-.051 8.988-4.384a.75.75 0 0 1 1.003.346zm155.316-9.94.098.027 9.456 3.256a.75.75 0 0 1-.39 1.445l-.099-.027-9.455-3.255a.75.75 0 0 1 .39-1.445zm1.673-5.648.1.02 9.66 2.588a.75.75 0 0 1-.289 1.469l-.1-.02-9.66-2.588a.75.75 0 0 1 .289-1.469zm-162.611.55a.75.75 0 0 1-.434.886l-.097.033-9.659 2.588a.75.75 0 0 1-.485-1.416l.097-.033 9.66-2.588a.75.75 0 0 1 .918.53zm-1.315-5.696a.75.75 0 0 1-.495.853l-.098.027-9.817 1.908a.75.75 0 0 1-.384-1.447l.098-.026 9.816-1.908a.75.75 0 0 1 .88.593zm166.455-10.834h.102l9.976.698a.75.75 0 0 1-.003 1.496h-.102l-9.975-.697a.75.75 0 0 1 .002-1.497zM5.5 91.75a.75.75 0 0 1 .102 1.493l-.102.007h-10a.75.75 0 0 1-.102-1.493l.102-.007h10zm179 0a.75.75 0 0 1 .102 1.493l-.102.007h-10a.75.75 0 0 1-.102-1.493l.102-.007h10zM-4.217 85.16l9.975.697a.75.75 0 0 1-.002 1.497h-.102l-9.976-.698a.75.75 0 0 1 .003-1.496h.102zM183.5 74.325a.75.75 0 0 1-.495.854l-.098.026-9.816 1.908a.75.75 0 0 1-.385-1.446l.098-.027 9.817-1.908a.75.75 0 0 1 .879.593zM-1.186 67.297l.1.02 9.66 2.588a.75.75 0 0 1-.289 1.469l-.1-.02-9.66-2.588a.75.75 0 0 1 .289-1.469zm183.19.55a.75.75 0 0 1-.433.886l-.097.033-9.66 2.588a.75.75 0 0 1-.484-1.416l.097-.033 9.659-2.588a.75.75 0 0 1 .918.53zM.794 60.998l.099.027 9.455 3.255a.75.75 0 0 1-.39 1.445L9.86 65.7.404 62.443a.75.75 0 0 1 .39-1.445zM175.61 50.745a.75.75 0 0 1-.257.952l-.088.051-8.988 4.384a.75.75 0 0 1-.746-1.298l.088-.05 8.988-4.384a.75.75 0 0 1 1.003.345zm-3.121-5.87a.75.75 0 0 1-.19.968l-.085.057-8.66 5a.75.75 0 0 1-.835-1.243l.085-.057 8.66-5a.75.75 0 0 1 1.025.275zm-164.045-.32.092.045 8.66 5a.75.75 0 0 1-.659 1.344l-.091-.044-8.66-5a.75.75 0 0 1 .658-1.344zm3.535-5.576.096.055 8.29 5.592a.75.75 0 0 1-.742 1.3l-.096-.056-8.29-5.592a.75.75 0 0 1 .742-1.299zm149.907-8.969a.75.75 0 0 1 .004.98l-.078.078-7.547 6.561a.75.75 0 0 1-1.062-1.053l.078-.079 7.547-6.56a.75.75 0 0 1 1.058.073zM23.625 25.075l.084.073 7.07 7.071a.75.75 0 0 1-.976 1.133l-.084-.072-7.07-7.071a.75.75 0 0 1 .976-1.134zm133.727.073a.75.75 0 0 1 .073.977l-.073.084-7.071 7.07a.75.75 0 0 1-1.133-.976l.072-.084 7.071-7.07a.75.75 0 0 1 1.06 0zM28.49 20.61l.078.078 6.561 7.547a.75.75 0 0 1-1.053 1.062l-.079-.078-6.56-7.547a.75.75 0 0 1 1.053-1.062zm114.773-7.076a.75.75 0 0 1 .258.945l-.055.096-5.592 8.29a.75.75 0 0 1-1.3-.742l.056-.096 5.592-8.29a.75.75 0 0 1 1.041-.203zm-5.638-3.523a.75.75 0 0 1 .32.933l-.045.092-5 8.66a.75.75 0 0 1-1.344-.659l.044-.091 5-8.66a.75.75 0 0 1 1.025-.275zm-94.282.19.057.085 5 8.66a.75.75 0 0 1-1.243.835l-.057-.085-5-8.66a.75.75 0 0 1 1.243-.835zm5.854-3.054.051.088 4.384 8.988a.75.75 0 0 1-1.298.746l-.05-.088L47.9 7.893a.75.75 0 0 1 1.297-.746zm71.813-4.708a.75.75 0 0 1 .492.855l-.027.099-3.255 9.455a.75.75 0 0 1-1.445-.39l.026-.098 3.256-9.456a.75.75 0 0 1 .953-.465zM66.233.93l.033.097 2.588 9.66a.75.75 0 0 1-1.416.484l-.033-.097-2.588-9.659A.75.75 0 0 1 66.233.93zm48.42-.433a.75.75 0 0 1 .55.818l-.02.1-2.588 9.66a.75.75 0 0 1-1.469-.289l.02-.1 2.588-9.66a.75.75 0 0 1 .919-.53zM72.679-.505l.026.098 1.908 9.816a.75.75 0 0 1-1.446.385l-.027-.098-1.908-9.817a.75.75 0 0 1 1.447-.384zm23.863-2.013h.102a.75.75 0 0 1 .696.699v.102l-.697 9.975a.75.75 0 0 1-1.497-.002v-.102l.698-9.976a.75.75 0 0 1 .698-.696zM90-2.75a.75.75 0 0 1 .743.648L90.75-2V8a.75.75 0 0 1-1.493.102L89.25 8V-2a.75.75 0 0 1 .75-.75z" fill="#D95555" fill-rule="nonzero" mask="url(#vt7xjso89g)"/>
                    </g>
                    <g mask="url(#4ylbz1ltbe)">
                        <path d="m139.928 124.87.866-.003c0 12.08-24.569 13.476-24.569.093l.368-.002c-1.067-.966-1.804-2.15-2.071-3.56-.193-1.015-.095-1.417-.095-2.44l.244-.005c-.97-1.326-1.518-2.874-1.518-4.5h1.403c-2.803-1.578-4.636-4.147-4.688-8.482-1.63-2.302-3.466-4.643-5.102-6.057-7.183-6.237-16.83.689-23.697-4.914l-.052 1.96-.196-.004c.066.98.263 2.5.175 3.252-.15 1.29-.195 2.553-.058 3.848.268 2.547.574 5.225.999 7.746 0 0-3.36-3.136-5.247-4.145-.963-.515-2.303-1.144-3.034-1.952-.693-.768-1.444-.687-1.958-1.598-.222-.392-.528-.348-.814-.7-.228-.282-1.359-.364-1.676-.535-1.438-.776-2.28-.996-3.8-1.537-1.844-.658-3.854-.967-5.611-1.846.032-.248.056-.487.071-.713.066-.187.12-.385.169-.586l-.821-.356c-.39 1.88-1.663 4.282-2.82 5.436.118.098.231.21.343.328-3.665 4.092-7.763 7.182-12.29 11.924-8.767 9.643 1.654 24.892 4.093 36.75l-.117.068c4.073 10.673 7.337 23.233 3.75 35.808-.047.421.198 1.216.578 1.511 12.227 4.103 27.13 4.31 40.29 1.264 2.7-.624 10.068-4.105 10.872-5.369.433-.68 1.03-1.484 2.151-2.496.442-1.062.94-1.972.335-3.18-.807-2.171-.03-18.532.319-26.862.895.246 1.915 1.065 1.915 1.065 16.364 8.211 25.157-15.003 33.031-27.943 1.588-1.031 1.661-3.036.73-4.516-.285.826-.755 1.581-1.38 2.26-.323.35-.69.678-1.088.988" fill="#FFF"/>
                        <path d="M113.563 112a.44.44 0 0 1-.37-.197l-.165-.253c-1.663-2.556-5.557-8.542-8.65-11.142-3.199-2.633-6.51-2.592-10.015-2.548l-1.61.016c-2.233.019-5.012.04-7.328-.026a.432.432 0 0 1-.425-.438c.008-.235.204-.41.45-.412 2.3.067 5.07.045 7.296.027l1.606-.016c3.513-.043 7.143-.09 10.596 2.752 3.194 2.685 7.137 8.746 8.82 11.334l.164.252c.13.198.068.46-.136.585a.447.447 0 0 1-.233.066" fill="#1E2F4E"/>
                        <path d="M126.115 116.672c-4.356-.375-8.647-.898-11.74-2.672H113c0 1.625.537 3.17 1.489 4.497l-.24.005c0 1.021-.095 1.423.094 2.438.262 1.408.984 2.59 2.03 3.557l-.361.001c0 13.372 24.086 11.976 24.086-.093l-.849.003c.391-.31.75-.638 1.067-.988a6.435 6.435 0 0 0 1.352-2.257c.197-.58.307-1.194.307-1.846v-1.35c.653-1.035 1.025-2.244 1.025-3.643V114h-.667c-3.908 2.85-10.155 3.194-16.218 2.672" fill="#B4B5B5"/>
                        <path d="M166.964 46.22c-.847-20.529-17.085-37.232-37.12-38.176C107.465 6.988 89 25.262 89 47.953c0 7.615 2.08 14.732 5.69 20.788 10.01 16.792 14.87 17.037 14.87 36.712 0 .066.004.125.005.189.052 4.334 1.867 6.903 4.64 8.48 3.123 1.775 7.456 2.298 11.854 2.673 6.121.523 12.429.179 16.375-2.673 2.461-1.78 4.006-4.533 4.007-8.668v-.515c0-19.785 5.535-19.797 15.268-36.884 3.628-6.368 5.585-13.856 5.255-21.836" fill="#F8C79B"/>
                        <path d="M128.401 124c-2.958 0-5.722-.29-7.723-.658-6.68-1.224-7.678-6.092-7.678-8.883 0-.254.2-.459.447-.459.248 0 .448.205.448.459 0 2.505.902 6.874 6.94 7.98 3.091.567 8.04.947 12.658.32a.447.447 0 0 1 .503.394.457.457 0 0 1-.384.515 39.056 39.056 0 0 1-5.211.332" fill="#1E2F4E"/>
                        <path d="M127.986 129c-.285 0-.57-.005-.854-.012-6.537-.189-13.133-2.598-13.132-7.557 0-.5.06-1.002.177-1.489a.437.437 0 0 1 .847.2 5.518 5.518 0 0 0-.153 1.29c0 4.358 6.369 6.526 12.286 6.696 7.21.212 14.672-2.242 14.972-7.327v-1.372c0-.237.195-.429.435-.429.241 0 .436.192.436.43v1.397c-.321 5.445-7.657 8.173-15.014 8.173" fill="#1E2F4E"/>
                        <path d="M127.413 135c-2.98 0-5.91-.715-8.184-2.145-2.892-1.82-4.352-4.538-4.22-7.861.01-.25.2-.45.459-.434.243.01.433.22.423.47-.148 3.761 1.985 5.911 3.8 7.053 4.206 2.646 11.104 2.653 15.704.015 2.154-1.235 4.721-3.565 4.721-7.645 0-.25.198-.453.442-.453s.442.203.442.453c0 3.527-1.837 6.522-5.173 8.435-2.457 1.408-5.46 2.112-8.414 2.112M128.431 117c-.89 0-1.776-.011-2.652-.028-8.003-.154-16.186-1.659-16.186-11.653 0-14.414-2.714-18.305-8.122-26.058-1.937-2.777-4.134-5.926-6.709-10.214C90.993 62.772 89 55.547 89 48.156c0-11.043 4.543-21.714 12.465-29.277 7.848-7.492 18.117-11.338 28.902-10.835 20.227.947 36.742 17.801 37.597 38.37.321 7.73-1.519 15.318-5.321 21.943-2.794 4.87-5.195 8.279-7.314 11.287-5.108 7.255-7.922 11.25-7.922 25.164v.511c0 3.24-.952 5.817-2.83 7.661-3.512 3.446-9.917 4.02-16.146 4.02m-2.634-.902c6.808.129 14.395-.04 18.168-3.742 1.728-1.697 2.569-3.998 2.569-7.037v-.51c0-14.192 2.87-18.268 8.081-25.669 2.108-2.992 4.497-6.384 7.27-11.218 3.72-6.482 5.521-13.906 5.206-21.471-.836-20.122-16.986-36.608-36.765-37.534-10.552-.495-20.585 3.269-28.258 10.595-7.864 7.507-12.194 17.68-12.194 28.644 0 7.232 1.95 14.3 5.637 20.442 2.56 4.26 4.747 7.396 6.677 10.162 5.512 7.904 8.279 11.87 8.279 26.56 0 9.214 7.367 10.625 15.33 10.778" fill="#1E2F4E"/>
                        <path d="M119.213 117a.443.443 0 0 1-.437-.37l-.3-1.847c-.14-.865-.286-1.728-.438-2.59l-.904-5.17c-1.85-10.597-5.458-31.265-7.456-41.592-1.563-.354-3.243-.809-4.527-1.832-1.054-.84-1.436-2.336-.928-3.636.46-1.178 1.547-1.858 2.819-1.77 2.087.14 2.538 2.287 2.78 3.44.178.846.386 1.879.616 3.063l.28.062a.51.51 0 0 1 .06.018c1.046.393 2.123.874 3.293 1.474 1.81.927 3.83 2.087 5.407 3.58 1.18-1.096 2.427-2.135 3.637-3.143l.714-.596c.251-.21.578-.469.953-.765.866-.686 2.07-1.638 3.19-2.692-1.176-1.593-2.515-3.747-2.106-5.386.3-1.205 1.29-2.056 2.584-2.22 1.32-.168 2.554.438 3.156 1.542 1.04 1.907-.477 4.175-2.453 6.156.133.173.259.333.37.476l.14.177c1.488 1.904 3.281 3.568 4.997 5.081l.119.104c.342.301.814.716 1.318 1.203 1.035-.85 2.08-1.506 2.656-1.816 1.34-.719 3.917-1.973 6.129-2.292l.068-.01.153-.972c.192-1.223.475-2.603 1.396-3.528.75-.752 1.703-1.008 2.619-.703.973.326 1.72 1.234 1.859 2.26.142 1.051-.37 2.05-1.404 2.742-.658.44-1.4.532-2.117.622-.5.063-.974.122-1.39.296a.467.467 0 0 1-.108.03l-.235.034c-1.474 9.224-2.996 17.562-4.471 25.642-1.41 7.724-2.867 15.71-4.303 24.557a.444.444 0 0 1-.874-.14c1.436-8.856 2.894-16.847 4.305-24.575 1.46-7.994 2.964-16.243 4.423-25.349-2.116.362-4.626 1.624-5.629 2.163-.618.332-1.547.935-2.45 1.67 1.525 1.607 2.98 3.71 1.811 5.245a3.38 3.38 0 0 1-2.345 1.291c-.821.074-1.59-.172-2.166-.695-.718-.651-1.026-1.43-.916-2.314.154-1.244 1.159-2.51 2.31-3.568-.362-.354-.77-.73-1.226-1.13l-.12-.107c-1.747-1.54-3.576-3.238-5.109-5.198l-.138-.177-.313-.4c-1.1 1.026-2.267 1.95-3.179 2.672-.367.29-.687.544-.934.75l-.715.596c-1.195.996-2.428 2.023-3.586 3.098.793.869 1.426 1.843 1.79 2.938.41 1.225.204 2.325-.58 3.1-.818.81-2.19 1.106-3.333.72-1.046-.354-1.734-1.2-1.886-2.322-.234-1.722 1.411-3.236 2.612-4.34l.131-.122c-1.494-1.403-3.43-2.511-5.166-3.4a30.691 30.691 0 0 0-3.04-1.372c2.014 10.464 5.554 30.745 7.381 41.209.394 2.252.706 4.042.904 5.168.153.866.3 1.734.44 2.602l.3 1.846a.442.442 0 0 1-.438.512m.24-45.935-.15.138c-.999.92-2.507 2.31-2.335 3.576.144 1.064.871 1.461 1.292 1.604.839.283 1.835.073 2.424-.51.54-.534.665-1.292.363-2.195-.32-.963-.883-1.83-1.593-2.613m16.586-.078c-1.048.959-1.93 2.055-2.053 3.046-.073.592.134 1.1.634 1.555.39.353.916.518 1.488.468a2.48 2.48 0 0 0 1.72-.946c.457-.6.423-1.787-1.79-4.123m12.318-9.783c-.432 0-.856.193-1.229.567-.734.737-.978 1.957-1.15 3.042l-.107.682c.483-.176.987-.24 1.475-.3.642-.081 1.25-.157 1.733-.48.754-.504 1.116-1.176 1.02-1.891-.093-.69-.613-1.323-1.264-1.541-.16-.053-.319-.08-.478-.08m-41.545-2.135c-1.158 0-1.616.84-1.763 1.215-.302.773-.225 1.924.656 2.627 1.037.826 2.434 1.25 3.789 1.572-.2-1.02-.381-1.918-.539-2.669-.343-1.632-.793-2.66-1.973-2.74a2.867 2.867 0 0 0-.17-.005m22.068-3.185c-.105 0-.21.007-.317.02-.724.092-1.586.55-1.837 1.557-.31 1.247.852 3.13 1.888 4.55 1.696-1.717 2.984-3.606 2.213-5.02-.378-.693-1.12-1.107-1.947-1.107M69.543 154a.457.457 0 0 1-.42-.267c-.06-.134-5.98-13.534-8.103-20.167a.435.435 0 0 1 .303-.547.46.46 0 0 1 .57.291c2.11 6.59 8.011 19.946 8.07 20.08a.431.431 0 0 1-.242.575.463.463 0 0 1-.178.035" fill="#1E2F4E"/>
                        <path d="M58.058 77.606s2.685-.883 3.76-2.911c.542-.885.85-1.944.85-1.944s1.68-1.297 2.203-2.953c.642-2.043.733-5.87 1.648-7.148.769-.968.605-1.425 1.841-2.044 2.5-1.163 5.912-1.447 7.727-.205 2.184 1.522 3.16 4.5 3.24 4.751l.409-.292s2.01-4.693.96-5.952c-.185-.278-1.078-2.542-2.73-3.325-1.34-.636-.107-2.462-1.967-2.393-1.834.145-3.188-1.005-5.093-1.782-2.807-1.142-6.087.475-6.087.475s-8.453.811-13.758 5.4c-1.825 1.609-3.135 3.462-3.847 5.788-.476 1.551-.429 3.604-.393 5.143.078 1.18-1.07 2.284-.771 3.124.273.764 1.842 1.318 1.842 1.318s.496 1.631 1.84 3.474c1.343 1.843 3.61 3.87 3.61 3.87l.359-.063c.328-1.728 4.357-2.331 4.357-2.331" fill="#4F4862"/>
                        <path d="M60.338 99.674c1.73.88 3.709 1.19 5.524 1.848 1.495.543 2.325.762 3.74 1.54.313.17 1.427.253 1.651.535.281.352.583.308.801.7.506.912 1.245.831 1.928 1.6.72.809 2.039 1.438 2.987 1.953 1.859 1.01 5.166 4.15 5.166 4.15-.418-2.524-.72-5.204-.984-7.753-.134-1.296-.09-2.56.058-3.853.086-.752-.108-2.274-.173-3.255a8.53 8.53 0 0 1-.02-.45c-1.778-.655-2.427-4.096-2.427-4.096l2.007-1.077s.683-1.2 1.63-3.103c.699-1.64 1.64-3.799 1.744-5.913.169-2.657-.407-4.524-1.079-6.183-.564-1.352-1.399-3.47-1.399-3.47l-1.966-7.243-.008-.025c-.079-.253-1.05-3.24-3.223-4.768-1.805-1.246-5.2-.96-7.687.205-1.23.621-1.067 1.081-1.832 2.052-.91 1.283-1 5.123-1.64 7.173-.52 1.66-2.191 2.962-2.191 2.962s-.306 1.063-.845 1.951c-1.07 2.034-3.742 2.92-3.742 2.92s-4.008.606-4.334 2.34A1.193 1.193 0 0 0 54 80.7c.045.849.14 2.804 1.076 3.76 1.324 1.335 3.69 1.512 3.69 1.512s2.896 7.846 1.807 12.401a6.486 6.486 0 0 1-.166.587c-.015.226-.039.465-.07.713" fill="#FAD9C7"/>
                        <path d="M74.585 93c-1.802 0-3.714-.211-5.4-.524-2.987-.542-4.119-1.34-5.995-2.662a.44.44 0 1 1 .504-.724c1.847 1.3 2.858 2.013 5.651 2.52 4.072.755 9.144.807 10.663-.86.772-.844 1.571-2.437 2.192-4.37.964-3.21 1.179-6.122.587-7.985a37.144 37.144 0 0 0-1.275-3.568c-.276-.683-.537-1.327-.807-2.178-.275-.905-.457-1.817-.632-2.699a40.163 40.163 0 0 0-.39-1.81l-.022-.084c-.923-3.352-2.347-5.799-4.233-7.27a.437.437 0 0 1-.073-.619.447.447 0 0 1 .624-.072c2.038 1.59 3.565 4.192 4.538 7.73l.026.095c.157.634.281 1.258.401 1.86.18.9.348 1.75.61 2.611.258.813.513 1.442.783 2.108.365.903.78 1.925 1.3 3.637.64 2.02.427 5.122-.588 8.503-.314.977-1.17 3.374-2.382 4.701-1.11 1.218-3.479 1.66-6.082 1.66M58.508 86c-1.998 0-3.524-.736-4.645-2.234-.997-1.371-1.144-3.102-.368-4.311.767-1.196 2.27-1.688 4.124-1.351a.43.43 0 1 1-.157.845c-1.508-.273-2.656.07-3.23.966-.589.916-.454 2.26.336 3.344 1.128 1.508 2.7 2.086 4.944 1.818a.43.43 0 1 1 .106.853c-.386.047-.756.07-1.11.07" fill="#1E2F4E"/>
                        <path d="M57.592 83a.355.355 0 0 1-.28-.155c-.005-.006-.422-.547-.99-.719-.22-.066-.36-.37-.313-.678.048-.307.267-.5.485-.435.8.242 1.357.975 1.38 1.006.163.217.169.577.013.805-.08.117-.187.176-.295.176M60.168 99a.344.344 0 0 1-.13-.026c-.197-.084-.299-.337-.228-.567.186-.597.318-1.203.393-1.801.381-3.109-2.152-10.927-2.178-11.006-.074-.228.024-.483.22-.57.197-.088.415.027.49.256.108.33 2.629 8.112 2.22 11.447a11.531 11.531 0 0 1-.43 1.976c-.056.18-.202.291-.357.291M65.405 71a.365.365 0 0 1-.262-.117.568.568 0 0 1-.047-.692c.064-.092 1.611-2.255 4.506-2.19.224.006.403.23.398.502-.004.271-.195.487-.414.482-2.493-.05-3.817 1.765-3.872 1.843a.382.382 0 0 1-.309.172M76.416 67a.403.403 0 0 1-.302-.138.463.463 0 0 1 .016-.626c1.679-1.694 3.493-1.162 3.57-1.14.22.068.347.314.284.548a.415.415 0 0 1-.516.303c-.056-.017-1.444-.403-2.765.932a.404.404 0 0 1-.287.121M70.18 75.988c-.537.11-1.043-.528-1.16-1.328-.114-.801.263-1.538.8-1.648.537-.11 1.044.528 1.16 1.329.115.8-.263 1.537-.8 1.647M52.588 81a.382.382 0 0 1-.242-.088c-.175-.144-4.3-3.559-5.334-8.34-.054-.248.082-.499.303-.558.219-.062.443.09.496.34.964 4.448 4.98 7.778 5.02 7.812.183.15.224.439.09.645a.4.4 0 0 1-.333.189M45.446 72a.448.448 0 0 1-.373-.197.429.429 0 0 1 .129-.602c1.335-.851 1.285-2.1 1.216-3.828-.067-1.664-.15-3.735 1.085-6.022 2.29-4.344 9.715-9.016 15.113-8.272a.438.438 0 0 1 .38.491.442.442 0 0 1-.504.37c-5.063-.699-12.037 3.713-14.198 7.813-1.126 2.084-1.05 3.944-.985 5.586.071 1.784.139 3.47-1.62 4.59a.447.447 0 0 1-.243.071M74.746 54c-.992 0-1.83-.412-3.283-1.126l-.17-.084c-2.112-1.038-3.884-1.395-6.689-.155a.43.43 0 0 1-.566-.213.42.42 0 0 1 .215-.559c3.101-1.371 5.138-.952 7.422.17l.171.083c2.192 1.078 2.713 1.335 4.58.673a.43.43 0 0 1 .549.255.422.422 0 0 1-.259.541c-.799.283-1.41.415-1.97.415" fill="#1E2F4E"/>
                        <path d="M59.015 74c-.194 0-.39-.004-.59-.014a.436.436 0 0 1-.424-.45.444.444 0 0 1 .468-.41c3.575.175 5.6-1.224 6.014-4.152.47-3.543 1.102-7.117 3.167-8.447.845-.545 1.861-.668 3.02-.366a.43.43 0 0 1 .315.528.45.45 0 0 1-.549.303c-.911-.239-1.66-.156-2.29.25-1.752 1.13-2.333 4.495-2.777 7.845C64.919 72.272 62.67 74 59.015 74M74.38 60a.39.39 0 0 1-.38-.39c-.017-.807.261-1.545.764-2.025.337-.323.943-.68 1.901-.562a.396.396 0 0 1 .332.444.386.386 0 0 1-.422.35c-.542-.07-.98.052-1.301.359-.334.32-.527.849-.515 1.416a.39.39 0 0 1-.37.408h-.009zM58.483 78a.478.478 0 0 1-.48-.412.472.472 0 0 1 .423-.52c2.049-.234 2.63-1.742 2.635-1.757a.487.487 0 0 1 .618-.283.463.463 0 0 1 .293.597c-.032.085-.796 2.07-3.432 2.372a.617.617 0 0 1-.057.003M69.534 58a.488.488 0 0 1-.346-.138c-.02-.02-2.018-1.99-3.73-2.02-.258-.005-.462-.197-.458-.429.006-.23.213-.413.466-.413 2.126.036 4.32 2.204 4.414 2.296a.393.393 0 0 1-.033.595.494.494 0 0 1-.313.109" fill="#1E2F4E"/>
                        <path d="M80.975 81s.484 4.168-2.839 4.917C75.133 86.562 73 83.254 73 83.254s2.258-.24 4.212-.791C79.165 81.912 80.975 81 80.975 81" fill="#CD6170"/>
                        <path d="M76.845 87c-2.827 0-4.696-2.903-4.782-3.039a.396.396 0 0 1-.014-.405.465.465 0 0 1 .36-.234c.023-.002 2.258-.25 4.162-.798 1.897-.545 3.687-1.46 3.705-1.47a.498.498 0 0 1 .44-.006.43.43 0 0 1 .248.334c.183 1.612-.252 4.837-3.211 5.518a4.2 4.2 0 0 1-.908.1m-3.574-2.927c.716.867 2.31 2.426 4.262 1.998 2.183-.503 2.506-2.804 2.528-3.949-.718.33-1.928.848-3.213 1.217-1.31.377-2.732.614-3.577.734M79.213 73.977c-.49.148-1.077-.448-1.19-1.272-.115-.824.227-1.615.736-1.682.49-.149 1.077.447 1.19 1.271.185.804-.157 1.595-.736 1.683M80.386 66a.452.452 0 0 1-.427-.567c.124-.476.264-.95.404-1.421.97-3.276 1.807-6.105-3.088-8.143a.454.454 0 0 1-.242-.588.438.438 0 0 1 .576-.247c5.64 2.347 4.603 5.851 3.6 9.239-.137.462-.275.926-.396 1.392a.444.444 0 0 1-.427.335" fill="#1E2F4E"/>
                        <path d="M93.207 190.83c-12.763 4.346-26.846 3.144-40.196-.59-.084 1.782.361 13.683.179 14.76h53.8c.066-4.124-.216-14.583-.532-18.693-.041-.537-.262-1.494-.281-2.307a47.37 47.37 0 0 1-2.122 1.489c-.802 1.257-8.154 4.72-10.848 5.342" fill="#9F9FA0"/>
                        <path d="M53.161 204.98h.811c.02-.058.031.066.027 0-.142-2.184-.195-14.29-.005-15.454a.45.45 0 0 0-.357-.52.438.438 0 0 0-.503.37c-.202 1.237-.153 13.328-.005 15.604.004.045.018-.04.032 0" fill="#1E2F4E"/>
                        <g transform="translate(106 183)">
                            <mask id="tmqni66ulk" fill="#fff">
                                <use xlink:href="#ysuuhhncmj"/>
                            </mask>
                            <path d="M.83 21.971c-.002.092.045-.07.11 0h.946c.064-.068.11.088.11 0 .046-3.194-.346-14.86-.662-19.209L1.166.41C1.149.172.869-.015.553 0 .231.015-.016.217.001.456L.17 2.808c.314 4.336.706 15.996.66 19.163" fill="#1E2F4E" mask="url(#tmqni66ulk)"/>
                        </g>
                        <path d="M105.862 183a.564.564 0 0 1-.365-.129.39.39 0 0 1 .005-.615c.833-.698.401-1.954.02-3.062-.184-.532-.342-.992-.36-1.382-.398-9.052.021-15.647.357-20.947.264-4.14.472-7.412.198-10.397-.022-.239.189-.448.471-.466.28-.021.53.16.55.399.28 3.042.07 6.338-.195 10.511-.335 5.281-.753 11.855-.356 20.868.013.282.161.713.319 1.17.416 1.207.985 2.863-.285 3.925a.561.561 0 0 1-.36.125M105.557 136a.439.439 0 0 1-.442-.424c-.25-9.491-1.29-12.971-3.013-18.738l-.084-.28a.434.434 0 0 1 .3-.54c.234-.069.48.065.549.295l.083.28c1.744 5.834 2.797 9.356 3.05 18.96a.439.439 0 0 1-.431.447h-.012zM114.641 156c-.622 0-1.252-.035-1.89-.106-1.25-.14-4.344-1.607-5.578-2.535a.433.433 0 0 1-.085-.61.438.438 0 0 1 .612-.083c1.202.904 4.137 2.253 5.149 2.365 5.223.58 9.777-1.272 13.166-5.36 3.265-3.942 6.042-8.34 8.605-12.506a307.91 307.91 0 0 0 5.334-9.042c.16-.281.413-.64.706-1.056.573-.815 1.439-2.045 1.467-2.652a.425.425 0 0 1 .457-.414c.24.012.426.215.416.454-.04.86-.882 2.055-1.625 3.11-.269.381-.522.741-.662.986a308.565 308.565 0 0 1-5.348 9.068c-2.58 4.192-5.375 8.62-8.677 12.603-3.12 3.767-7.346 5.778-12.047 5.778M87.394 107c-.545 0-1.083-.828-2.202-2.628-.83-1.334-1.861-2.994-2.763-3.795a.71.71 0 0 0-.707-.143.736.736 0 0 0-.477.526c-.13.515-.164 1.383-.1 2.654.013.252-.165.467-.398.48-.237.011-.43-.18-.444-.431-.069-1.39-.028-2.325.13-2.946.14-.547.526-.978 1.035-1.153a1.499 1.499 0 0 1 1.496.31c.996.885 2.022 2.533 2.927 3.99.408.656.927 1.49 1.278 1.934-.06-1.316-.817-4.889-2.716-8.68-1.514-.437-3.08-.997-4.329-2.34a.484.484 0 0 1-.002-.644.4.4 0 0 1 .596-.002c1.15 1.235 2.667 1.741 4.124 2.153a.427.427 0 0 1 .263.221c2.364 4.646 3.167 9.18 2.816 10.102-.095.25-.26.335-.352.363a.563.563 0 0 1-.175.029M68.62 113c-.379 0-.757-.154-.96-.292-.672-.46-1.561-1.025-2.59-1.679-1.658-1.054-3.72-2.366-5.538-3.67-.674-.486-1.384-1.174-2.071-1.841a39.978 39.978 0 0 0-1.058-1.002 1.203 1.203 0 0 1-.403-.889c0-.333.138-.641.39-.87.179-.16.402-.362.825-1.146.56-1.038 1-1.995 1.332-3.286.06-.23.3-.368.538-.313a.427.427 0 0 1 .324.518c-.302 1.176-.709 2.183-1.407 3.475-.455.845-.735 1.134-1.005 1.377a.328.328 0 0 0-.109.245c0 .1.043.194.121.264.352.316.715.669 1.082 1.024.664.644 1.35 1.31 1.972 1.757 1.796 1.29 3.762 2.54 5.495 3.642 1.036.659 1.931 1.227 2.616 1.696.132.09.43.17.532.123.018-.009.04-.062.048-.15.1-1.094-.046-2.257-.186-3.38-.197-1.575-.367-2.935.186-3.818.928-1.483 1.82-1.11 2.47-.835.151.063.306.128.46.172a.426.426 0 0 1 .297.533.448.448 0 0 1-.554.287c-.203-.059-.391-.138-.557-.208-.604-.254-.83-.349-1.356.493-.395.63-.235 1.914-.065 3.273.14 1.113.297 2.375.19 3.558-.05.546-.372.767-.56.851-.145.065-.302.091-.458.091M93.918 191l.032-.008c.27-.19.566-.337.89-.42.138-1.491.333-5.347-.136-13.39-.33-5.654-.92-11.167-1.441-16.03-.14-1.3-.274-2.555-.397-3.753a.439.439 0 0 0-.477-.396.443.443 0 0 0-.387.489c.124 1.2.258 2.456.397 3.757.52 4.853 1.11 10.354 1.438 15.987.54 9.25.184 12.95.08 13.764M89.541 141a.454.454 0 0 1-.451-.364c-3.211-17.745-8.007-28.916-8.055-29.027a.433.433 0 0 1 .247-.575.464.464 0 0 1 .6.237c.048.112 4.88 11.365 8.111 29.214a.441.441 0 0 1-.373.508.46.46 0 0 1-.079.007" fill="#1E2F4E"/>
                        <path d="M149.864 104.6s1.134-2.085 1.134-3.235-1.141-7.275-2.14-8.058c-1-.783-1.926.079-1.712.942.214.863.427 5.535.427 5.535l.455.954c-1.095-.914-6.317-3.51-7.303-3.629-1.07-.129-1.427.375-.856 1.38.57 1.008 5.43 3.883 5.43 3.883l.634 1.437.048.104c-1.341-.41-4.642-1.174-5.74-1.659-1.3-.575-2.65-1.12-3.059-.33-.537 1.042.19 1.419 1.189 2.191.713.551 3.536 1.699 5.092 2.31a1.86 1.86 0 0 1 1.167 1.531l.09.819.18.294c-2.162-1.124-7.247-3.613-7.528-2.312-.357 1.652 1.232 2.329 2.426 2.823a24.128 24.128 0 0 1 2.948 1.472c.523.308.894.819 1.035 1.412l.34 4.046-1.08 2.296.138 3.194c.64-.448 2.865-1.845 3.505-2.293.542-.38 1.091-.766 1.514-1.277.035-.043.068-.09.1-.142.422-.687.44-1.551.14-2.3l-1.342-3.337 1.762 2.875c-.143-.288.5-.63.5-2.076 0-.61-.343-2.275-.808-4.037l.807 1.728s1.712-1.138 1.64-2.366c-.048-.843-1.174-3.923-1.99-5.978l.857 1.803z" fill="#FAD9C7"/>
                        <path d="M149.335 104a.517.517 0 0 1-.221-.049c-.233-.11-.322-.365-.2-.572.316-.532 1.133-2.092 1.133-2.912 0-1.179-1.235-6.82-2.066-7.416-.191-.138-.47-.278-.709-.159-.22.109-.352.397-.312.682.242 1.723.635 6.014.64 6.058.02.233-.175.437-.437.456-.258.016-.492-.155-.513-.388-.004-.043-.396-4.316-.635-6.02-.09-.635.23-1.249.794-1.528.54-.267 1.187-.18 1.772.24 1.293.93 2.419 7.153 2.419 8.075 0 1.176-1.116 3.092-1.243 3.306a.489.489 0 0 1-.422.227M143.195 122a.452.452 0 0 1-.362-.177.417.417 0 0 1 .1-.597c.321-.223 1.006-.658 1.73-1.12a72.018 72.018 0 0 0 1.709-1.106c.502-.347 1.02-.706 1.4-1.16a.786.786 0 0 0 .062-.089c.325-.524.365-1.219.104-1.859l-2.28-5.616a1.36 1.36 0 0 0-.63-.696c-4.596-2.4-6.773-2.926-7.11-2.697-.242 1.163.777 1.684 2.135 2.24 1.245.51 2.29 1.073 2.949 1.457.61.354 1.054.951 1.219 1.64l1.06 4.437a.427.427 0 0 1-.335.512.445.445 0 0 1-.534-.32l-1.06-4.438a1.747 1.747 0 0 0-.813-1.101c-.634-.37-1.64-.91-2.836-1.401-1.149-.47-3.07-1.257-2.642-3.221a.825.825 0 0 1 .491-.586c.962-.427 3.62.49 7.903 2.728a2.23 2.23 0 0 1 1.033 1.136l2.282 5.616c.359.884.295 1.858-.17 2.606-.041.067-.085.129-.132.185-.455.546-1.023.94-1.573 1.32-.322.224-1.01.662-1.738 1.125-.685.437-1.394.89-1.7 1.101a.455.455 0 0 1-.262.081" fill="#1E2F4E"/>
                        <path d="M148.956 111a.443.443 0 0 1-.251-.807c.406-.28 1.453-1.184 1.408-1.987-.063-1.113-2.27-6.964-2.66-7.693-.44-.582-6.045-3.498-6.965-3.612-.41-.05-.564.028-.586.06-.026.038-.044.241.194.675.364.66 3.344 2.641 5.136 3.735.079.047.14.119.177.203l.617 1.445a.443.443 0 1 1-.816.347l-.561-1.314c-1.028-.631-4.77-2.975-5.33-3.99-.367-.666-.418-1.204-.151-1.597.177-.26.571-.549 1.429-.442.98.12 7.145 3.153 7.637 4.073.302.563 2.686 6.686 2.763 8.06.082 1.44-1.599 2.635-1.79 2.766a.436.436 0 0 1-.25.078" fill="#1E2F4E"/>
                        <path d="M147.868 116a.451.451 0 0 1-.27-.09.432.432 0 0 1-.083-.612c.457-.581.595-.757.595-2.042 0-1.504-1.89-8.367-2.58-8.893-.19-.102-1.357-.414-2.296-.663-1.436-.382-3.063-.815-3.797-1.144-.71-.317-2.185-.98-2.414-.528-.285.559-.15.724.739 1.401l.305.235c.469.367 2.294 1.199 4.88 2.225a2.273 2.273 0 0 1 1.418 1.876l.089.812a.44.44 0 0 1-.396.48.442.442 0 0 1-.49-.388l-.089-.812a1.399 1.399 0 0 0-.867-1.158c-1.939-.77-4.397-1.803-5.1-2.352-.103-.081-.202-.156-.297-.229-.799-.608-1.624-1.237-.99-2.48.614-1.203 2.329-.436 3.582.124.667.3 2.327.74 3.66 1.096 1.413.376 2.226.596 2.508.75 1.223.667 3.025 8.463 3.025 9.648 0 1.522-.224 1.869-.778 2.573a.447.447 0 0 1-.354.171" fill="#1E2F4E"/>
                        <path d="M131.6 122.756c.178-.28.357-.56.543-.831.564-.76 2.054-3.245 1.835-3.75-.438-1.007-1.242-.541-2.48.725-1.24 1.266-2.953 3.753-4.284 5.062-1.332 1.308-3.634 2.957-3.89 2.37-.256-.588 2.144-2.784 3.817-4.85 1.823-2.236 2.485-3.542 3.712-5.607 1.226-2.065 1.774-3.118 1.015-3.577-.889-.502-2.408.892-3.65 2.662-1.3 1.897-2.278 3.246-3.967 5.019-1.69 1.772-3.472 3.587-3.971 3.21-.5-.376.105-1.556 3.305-6.025.471-.716 2.977-4.468 3.509-5.816.475-1.221-.783-2.057-2.229-.496-1.238 1.266-3.138 3.839-4.868 6.031-1.636 2.151-3.212 3.671-5.218 5.487a24.854 24.854 0 0 1-2.091 1.712l.106-.106c.183-1.894 1.462-3.58 2.497-5.056 1.036-1.476 1.698-2.782.83-3.493-.87-.712-2.132 1.27-3.314 2.409-1.275 1.182-2.907 2.828-3.958 4.01-1.016 1.265-1.32 2.108-2.043 4.044-.61 1.684-.943 3.746-1.682 5.388-.09.177-.612.873-1.116 1.543L103 133.836c.127-.043.236-.08.335-.117a6.31 6.31 0 0 0-.335.475l.017.025c.507.376 1.05.702 1.567 1.064.43.301.83.634 1.181 1.018.374.306.731.632 1.041 1.001.465.553.832 1.185 1.136 1.843.544 1.182.9 2.447 1.155 3.726.002.008.087.129.087.129 6.078-3.766 3.68-2.669 8.13-5.292 3.496-1.99 6.204-3.22 8.152-4.91 1.95-1.688 8.166-8.734 6.543-10.41l-.408.368z" fill="#FAD9C7"/>
                        <path d="M103.451 134a.45.45 0 0 1-.428-.298.429.429 0 0 1 .288-.545c.839-.262.839-.262 1.956-2.29.42-.874.722-1.934 1.014-2.958.217-.758.44-1.542.715-2.253l.04-.1c.74-1.857 1.077-2.705 2.164-3.974 1.085-1.143 2.795-2.765 4.173-3.962.289-.261.6-.59.902-.906.997-1.05 2.129-2.24 3.138-1.465 1.408 1.08-.07 3.053-.78 4.001l-.233.311c-.995 1.32-2.123 2.816-2.288 4.418a.448.448 0 0 1-.493.388.438.438 0 0 1-.405-.474c.19-1.833 1.392-3.43 2.453-4.837l.233-.31c1.184-1.58 1.467-2.424.949-2.822-.348-.268-1.248.68-1.906 1.371-.313.329-.636.669-.956.959-1.366 1.187-3.05 2.785-4.104 3.893-.978 1.144-1.278 1.897-2.003 3.716l-.039.098c-.258.67-.467 1.401-.688 2.176-.302 1.058-.615 2.152-1.077 3.113-1.226 2.226-1.298 2.357-2.484 2.728a.464.464 0 0 1-.14.022" fill="#1E2F4E"/>
                        <path d="M125.764 131a.433.433 0 0 1-.31-.13.448.448 0 0 1 .001-.627 208.65 208.65 0 0 1 3.402-3.351c1.08-.982 1.849-2.203 2.594-3.385.284-.45.578-.917.885-1.364.71-.947 1.788-2.902 1.799-3.357-.042-.089-.123-.233-.21-.25-.138-.022-.53.087-1.572 1.143-.575.582-1.253 1.43-1.97 2.326-.804 1.003-1.635 2.041-2.366 2.754-.618.602-3.136 2.814-4.165 2.605a.64.64 0 0 1-.47-.37c-.276-.63.445-1.457 2.102-3.265.617-.672 1.255-1.368 1.819-2.06 1.52-1.848 2.236-3.063 3.142-4.601.18-.306.369-.625.572-.965.632-1.054 1.418-2.367 1.305-2.825-.011-.044-.034-.093-.128-.148-.447-.25-1.698.55-3.11 2.545-1.242 1.799-2.263 3.22-4.05 5.08-2.765 2.876-3.873 3.8-4.587 3.266-.843-.63-.297-1.75 3.247-6.658l.12-.18c1.918-2.88 3.053-4.748 3.372-5.552.12-.304.088-.572-.081-.682-.25-.16-.81-.026-1.446.655-.917.93-2.176 2.541-3.508 4.25-.465.595-.933 1.195-1.39 1.769-1.6 2.085-3.106 3.561-5.324 5.551-1.086.99-2.046 1.676-2.817 2.228a28.86 28.86 0 0 0-.916.673.434.434 0 0 1-.614-.084.447.447 0 0 1 .081-.62c.286-.223.6-.448.944-.694.791-.567 1.689-1.208 2.74-2.164 2.18-1.958 3.656-3.404 5.22-5.44.459-.579.926-1.176 1.389-1.77 1.35-1.728 2.623-3.36 3.567-4.317 1.04-1.114 1.998-1.137 2.545-.784.531.343.702 1.05.424 1.759-.518 1.3-2.733 4.625-3.46 5.718l-.13.193c-1.016 1.409-3.309 4.586-3.421 5.371.685-.264 2.648-2.306 3.417-3.106 1.742-1.814 2.742-3.206 3.964-4.975.791-1.12 2.785-3.63 4.26-2.803.29.174.468.409.541.704.182.736-.313 1.676-1.406 3.5l-.568.96c-.926 1.572-1.657 2.813-3.22 4.713-.58.71-1.255 1.447-1.851 2.098-.615.67-1.408 1.535-1.752 2.046.656-.304 1.94-1.193 3.036-2.261.692-.674 1.506-1.69 2.292-2.673.734-.916 1.425-1.78 2.032-2.394.913-.926 1.665-1.518 2.35-1.387.375.07.666.337.867.794.411.938-1.884 4.175-1.907 4.206-.286.417-.575.876-.856 1.32-.775 1.232-1.578 2.504-2.738 3.559a210.749 210.749 0 0 0-3.377 3.327.435.435 0 0 1-.309.129" fill="#1E2F4E"/>
                        <path d="M109.434 143a.433.433 0 0 1-.225-.802c3.089-1.866 3.98-2.503 4.697-3.014.699-.499 1.25-.893 3.455-2.16.975-.542 1.868-1.014 2.73-1.471 2.232-1.181 3.995-2.115 5.373-3.28 1.878-1.588 6.574-6.914 6.667-9.038.015-.342-.103-.46-.141-.499a.431.431 0 0 1 .003-.611.436.436 0 0 1 .614.003c.28.282.412.667.39 1.145-.116 2.69-5.387 8.32-6.971 9.66-1.45 1.225-3.25 2.177-5.527 3.383-.86.455-1.748.926-2.71 1.46-2.162 1.242-2.698 1.626-3.378 2.11-.728.521-1.635 1.169-4.752 3.052a.439.439 0 0 1-.225.062M68.85 161c-.271 0-.513-.157-.562-.381a12.565 12.565 0 0 1 .595-7.297c.095-.243.418-.378.718-.3.3.077.467.335.372.578a11.814 11.814 0 0 0-.558 6.86c.054.25-.153.489-.464.533a.79.79 0 0 1-.1.007M142.168 125c-.13 0-.276-.06-.433-.225a3.422 3.422 0 0 1-.201-.237c-.1-.126-.193-.244-.282-.284-.205-.092-.305-.358-.224-.594.08-.235.313-.35.517-.258.26.119.436.34.577.518l.033.042c.057-.247.098-.865-.081-1.313-.092-.23-.005-.501.195-.607.2-.106.436-.004.528.225.314.782.237 2.001-.05 2.342l-.048.06c-.081.098-.274.331-.53.331" fill="#1E2F4E"/>
                        <path d="M116.381 145a.34.34 0 0 1-.105-.017c-.202-.065-.32-.306-.261-.535.047-.191 1.185-4.694 2.262-7.204.092-.215.319-.305.509-.2.189.105.268.364.175.58-1.047 2.44-2.202 7.015-2.214 7.061-.048.191-.2.315-.366.315M66.673 173c-3.776 0-8.977-1.147-12.588-6.528-2.63-3.92-4.728-10.768-6.759-17.392-1.095-3.574-2.228-7.269-3.41-10.368-1.741-4.57-2.603-8.153-2.793-11.615l-.026-.467c-.22-3.909-.393-6.996 3.349-10.876 2.32-2.392 4.528-4.426 6.664-6.393 1.94-1.785 3.772-3.472 5.46-5.227a.44.44 0 0 1 .621-.012c.175.166.181.443.013.618-1.706 1.774-3.548 3.47-5.498 5.264-2.127 1.958-4.326 3.983-6.627 6.357-3.477 3.605-3.329 6.236-3.105 10.22l.026.467c.185 3.37 1.03 6.87 2.737 11.352 1.192 3.127 2.33 6.837 3.43 10.425 2.01 6.562 4.091 13.348 6.649 17.16 5.959 8.882 16.275 5.592 16.379 5.557 2.292-.844 9.409-5.638 20.571-13.86 8.653-6.372 16.76-12.615 16.841-12.677a.43.43 0 0 1 .063-.04c.373-.198.452-.745.452-1.168.003-2.294-2.348-6.881-6.038-8.85-2.049-1.093-3.9.271-7.59 2.993-2.796 2.061-6.626 4.885-12.224 7.726-12.534 6.362-13.888 8.302-13.94 8.382a.449.449 0 0 1-.594.149.43.43 0 0 1-.175-.572c.106-.205 1.41-2.19 14.31-8.739 5.533-2.808 9.328-5.606 12.1-7.65 3.735-2.753 5.99-4.415 8.528-3.062 4.033 2.152 6.504 7.056 6.501 9.624-.001 1.168-.472 1.689-.882 1.92-.524.403-8.42 6.475-16.83 12.669-11.388 8.387-18.386 13.09-20.798 13.98-.045.016-2.048.633-4.817.633M142.002 122.675a4.3 4.3 0 0 0 .669 1.23c.044.055.099.112.154.09.064-.025.093-.14.109-.242.143-.923.051-1.93-.253-2.753l-.681 1.727.002-.052zM132.452 123a.444.444 0 0 1-.448-.37.432.432 0 0 1 .389-.48c4.882-.611 10.702-2.394 10.702-7.414v-.309a.44.44 0 0 1 .453-.427.44.44 0 0 1 .452.427v.309c0 4.463-3.972 7.32-11.488 8.26a.435.435 0 0 1-.06.004M81.303 105.685c-.206-1.05-.4-2.04-.458-2.814-.095-1.274-.143-3.827-.181-5.877-.022-1.158-.04-2.158-.063-2.611-.023-.462-.23-.712-.4-.84-.418-.315-.97-.17-1.033-.153-.013.003-.022.013-.035.019-.104-.362-.204-.751-.31-1.186-.07-.286-.142-.583-.222-.89a.428.428 0 0 0-.528-.318.453.453 0 0 0-.303.551c.079.304.15.597.219.878.398 1.629.712 2.914 1.742 3.662.018.013.037.019.055.028l.017.877c.039 2.062.087 4.63.184 5.93.061.829.261 1.846.472 2.923.285 1.452.6 3.062.668 4.605-1.913-1.926-3.214-2.742-4.582-3.602-1.296-.815-2.636-1.656-4.708-3.509-.578-.516-2.4-1.28-3.156-1.585-1.28-.516-2.38-.913-3.446-1.297-1.44-.518-2.798-1.008-4.476-1.743-.505-.22-.973-1.104-.903-1.295.001 0 .097-.064.429-.008a.43.43 0 0 0 .494-.37.446.446 0 0 0-.354-.515c-1.044-.181-1.318.384-1.387.633-.237.858.684 2.075 1.388 2.383 1.703.745 3.075 1.24 4.528 1.763 1.057.382 2.152.776 3.417 1.287 1.643.661 2.643 1.194 2.906 1.429 2.126 1.9 3.56 2.802 4.824 3.596 1.554.976 2.895 1.819 5.15 4.229a.422.422 0 0 0 .461.106.45.45 0 0 0 .277-.4c.084-1.959-.326-4.045-.686-5.886" fill="#1E2F4E"/>
                        <path d="M76.238 194c-7.6 0-15.45-1.113-22.434-3.24a1.764 1.764 0 0 1-1.228-1.983c.202-1.24.42-2.305.63-3.333 1.025-4.993 1.766-8.6-1.198-23.92a.437.437 0 1 1 .857-.17c2.997 15.495 2.243 19.175 1.197 24.268a79.37 79.37 0 0 0-.625 3.297.886.886 0 0 0 .62.998c9.45 2.878 20.506 3.88 30.332 2.749 10.334-1.19 18.086-4.553 21.828-9.472a.436.436 0 0 1 .612-.082.443.443 0 0 1 .08.618c-3.887 5.11-11.85 8.594-22.421 9.81a72.24 72.24 0 0 1-8.25.46" fill="#1E2F4E"/>
                        <path d="M128.5 4c-.276 0-.5-.191-.5-.427V-6.572c0-.237.224-.428.5-.428s.5.191.5.428V3.573c0 .236-.224.427-.5.427" fill="#F5B379"/>
                        <path d="M128.5 4c-.276 0-.5-.191-.5-.427V-6.572c0-.237.224-.428.5-.428s.5.191.5.428V3.573c0 .236-.224.427-.5.427z" stroke="#F5B379"/>
                        <path d="M159.426 17a.426.426 0 0 1-.301-.728l7.148-7.147a.426.426 0 1 1 .602.602l-7.148 7.148a.424.424 0 0 1-.3.125" fill="#F9D1AC"/>
                        <path d="M159.426 17a.426.426 0 0 1-.301-.728l7.148-7.147a.426.426 0 1 1 .602.602l-7.148 7.148a.424.424 0 0 1-.3.125z" stroke="#F9D1AC"/>
                        <path d="M168.47 30a.472.472 0 0 1-.428-.255c-.107-.219-.002-.476.233-.576l5.063-2.13a.485.485 0 0 1 .62.216c.107.219.002.477-.233.576l-5.063 2.13a.5.5 0 0 1-.193.039" fill="#F5B379"/>
                        <path d="M168.47 30a.472.472 0 0 1-.428-.255c-.107-.219-.002-.476.233-.576l5.063-2.13a.485.485 0 0 1 .62.216c.107.219.002.477-.233.576l-5.063 2.13a.5.5 0 0 1-.193.039z" stroke="#F5B379"/>
                        <path d="M110.565 9a.434.434 0 0 1-.396-.275l-2.13-5.062a.484.484 0 0 1 .216-.62c.218-.108.476-.004.575.232l2.131 5.062c.1.236.002.514-.216.621a.411.411 0 0 1-.18.042" fill="#F9D1AC"/>
                        <path d="M110.565 9a.434.434 0 0 1-.396-.275l-2.13-5.062a.484.484 0 0 1 .216-.62c.218-.108.476-.004.575.232l2.131 5.062c.1.236.002.514-.216.621a.411.411 0 0 1-.18.042z" stroke="#F9D1AC"/>
                        <path d="M143.486 7a.514.514 0 0 1-.17-.03.45.45 0 0 1-.285-.59l2.028-5.083a.496.496 0 0 1 .626-.268.45.45 0 0 1 .284.59l-2.028 5.084a.487.487 0 0 1-.455.297" fill="#FCEDDE"/>
                        <path d="M143.486 7a.514.514 0 0 1-.17-.03.45.45 0 0 1-.285-.59l2.028-5.083a.496.496 0 0 1 .626-.268.45.45 0 0 1 .284.59l-2.028 5.084a.487.487 0 0 1-.455.297z" stroke="#FCEDDE"/>
                        <path d="M77.461 79.985a.292.292 0 0 1-.219-.014.35.35 0 0 1-.16-.446c.256-.619.343-1.05.259-1.28-.065-.178-.26-.276-.573-.422-.399-.186-.895-.418-1.218-1.024-.736-1.278-.564-3.695-.435-4.517.029-.184.19-.309.362-.277.171.03.286.205.258.39-.138.882-.234 3.036.355 4.058.224.421.566.58.928.75.367.17.746.347.908.796.153.421.07.977-.269 1.8a.321.321 0 0 1-.196.186" fill="#1E2F4E"/>
                        <path d="M77.461 79.985a.292.292 0 0 1-.219-.014.35.35 0 0 1-.16-.446c.256-.619.343-1.05.259-1.28-.065-.178-.26-.276-.573-.422-.399-.186-.895-.418-1.218-1.024-.736-1.278-.564-3.695-.435-4.517.029-.184.19-.309.362-.277.171.03.286.205.258.39-.138.882-.234 3.036.355 4.058.224.421.566.58.928.75.367.17.746.347.908.796.153.421.07.977-.269 1.8a.321.321 0 0 1-.196.186z" stroke="#1E2F4E" stroke-width=".5" stroke-linecap="round" stroke-linejoin="round"/>
                    </g>
                </g>
            </g>
        </g>
        <circle fill="#FFF" opacity=".2" cx="139" cy="52" r="43"/>
        <circle fill="#FFF" opacity=".1" cx="139" cy="52" r="50"/>
        <mask id="vqcn1y1ynm" fill="#fff">
            <use xlink:href="#24ynxkh13l"/>
        </mask>
        <g mask="url(#vqcn1y1ynm)">
            <path d="m149.928 128.87.866-.003c0 12.08-24.569 13.476-24.569.093l.368-.002c-1.067-.966-1.804-2.15-2.071-3.56-.193-1.015-.095-1.417-.095-2.44l.244-.005c-.97-1.326-1.518-2.874-1.518-4.5h1.403c-2.803-1.578-4.636-4.147-4.688-8.482-1.63-2.302-3.466-4.643-5.102-6.057-7.183-6.237-16.83.689-23.697-4.914l-.052 1.96-.196-.004c.066.98.263 2.5.175 3.252-.15 1.29-.195 2.553-.058 3.848.268 2.547.574 5.225.999 7.746 0 0-3.36-3.136-5.247-4.145-.963-.515-2.303-1.144-3.034-1.952-.693-.768-1.444-.687-1.958-1.598-.222-.392-.528-.348-.814-.7-.228-.282-1.359-.364-1.676-.535-1.438-.776-2.28-.996-3.8-1.537-1.844-.658-3.854-.967-5.611-1.846.032-.248.056-.487.071-.713.066-.187.12-.385.169-.586l-.821-.356c-.39 1.88-1.663 4.282-2.82 5.436.118.098.231.21.343.328-3.665 4.092-7.763 7.182-12.29 11.924-8.767 9.643 1.654 24.892 4.093 36.75l-.117.068c4.073 10.673 7.337 23.233 3.75 35.808-.047.421.198 1.216.578 1.511 12.227 4.103 27.13 4.31 40.29 1.264 2.7-.624 10.068-4.105 10.872-5.369.433-.68 1.03-1.484 2.151-2.496.442-1.062.94-1.972.335-3.18-.807-2.171-.03-18.532.319-26.862.895.246 1.915 1.065 1.915 1.065 16.364 8.211 25.157-15.003 33.031-27.943 1.588-1.031 1.661-3.036.73-4.516-.285.826-.755 1.581-1.38 2.26-.323.35-.69.678-1.088.988" fill="#FFF"/>
            <path d="M123.563 116a.44.44 0 0 1-.37-.197l-.165-.253c-1.663-2.556-5.557-8.542-8.65-11.142-3.199-2.633-6.51-2.592-10.015-2.548l-1.61.016c-2.233.019-5.012.04-7.328-.026a.432.432 0 0 1-.425-.438c.008-.235.204-.41.45-.412 2.3.067 5.07.045 7.296.027l1.606-.016c3.513-.043 7.143-.09 10.596 2.752 3.194 2.685 7.137 8.746 8.82 11.334l.164.252c.13.198.068.46-.136.585a.447.447 0 0 1-.233.066" fill="#1E2F4E"/>
            <path d="M136.115 120.672c-4.356-.375-8.647-.898-11.74-2.672H123c0 1.625.537 3.17 1.489 4.497l-.24.005c0 1.021-.095 1.423.094 2.438.262 1.408.984 2.59 2.03 3.557l-.361.001c0 13.372 24.086 11.976 24.086-.093l-.849.003c.391-.31.75-.638 1.067-.988a6.435 6.435 0 0 0 1.352-2.257c.197-.58.307-1.194.307-1.846v-1.35c.653-1.035 1.025-2.244 1.025-3.643V118h-.667c-3.908 2.85-10.155 3.194-16.218 2.672" fill="#B4B5B5"/>
            <path d="M125.964 38.22C125.117 17.691 108.88.988 88.844.043 66.465-1.012 48 17.263 48 39.953c0 7.616 2.08 14.733 5.69 20.79 10.01 16.79 14.87 17.036 14.87 36.711 0 .066.004.125.005.189.052 4.334 1.867 6.903 4.64 8.48 3.123 1.775 7.456 2.298 11.854 2.673 6.121.523 12.429.179 16.375-2.673 2.461-1.78 4.006-4.533 4.007-8.668v-.515c0-19.785 5.535-19.797 15.268-36.884 3.628-6.368 5.585-13.856 5.255-21.836" fill="url(#wolj2lmrqn)" transform="translate(51 12)"/>
            <path d="M138.401 128c-2.958 0-5.722-.29-7.723-.658-6.68-1.224-7.678-6.092-7.678-8.883 0-.254.2-.459.447-.459.248 0 .448.205.448.459 0 2.505.902 6.874 6.94 7.98 3.091.567 8.04.947 12.658.32a.447.447 0 0 1 .503.394.457.457 0 0 1-.384.515 39.056 39.056 0 0 1-5.211.332" fill="#1E2F4E"/>
            <path d="M137.986 133c-.285 0-.57-.005-.854-.012-6.537-.189-13.133-2.598-13.132-7.557 0-.5.06-1.002.177-1.489a.437.437 0 0 1 .847.2 5.518 5.518 0 0 0-.153 1.29c0 4.358 6.369 6.526 12.286 6.696 7.21.212 14.672-2.242 14.972-7.327v-1.372c0-.237.195-.429.435-.429.241 0 .436.192.436.43v1.397c-.321 5.445-7.657 8.173-15.014 8.173" fill="#1E2F4E"/>
            <path d="M137.413 139c-2.98 0-5.91-.715-8.184-2.145-2.892-1.82-4.352-4.538-4.22-7.861.01-.25.2-.45.459-.434.243.01.433.22.423.47-.148 3.761 1.985 5.911 3.8 7.053 4.206 2.646 11.104 2.653 15.704.015 2.154-1.235 4.721-3.565 4.721-7.645 0-.25.198-.453.442-.453s.442.203.442.453c0 3.527-1.837 6.522-5.173 8.435-2.457 1.408-5.46 2.112-8.414 2.112M138.431 121c-.89 0-1.776-.011-2.652-.028-8.003-.154-16.186-1.659-16.186-11.653 0-14.414-2.714-18.305-8.122-26.058-1.937-2.777-4.134-5.926-6.709-10.214C100.993 66.772 99 59.547 99 52.156c0-11.043 4.543-21.714 12.465-29.277 7.848-7.492 18.117-11.338 28.902-10.835 20.227.947 36.742 17.801 37.597 38.37.321 7.73-1.519 15.318-5.321 21.943-2.794 4.87-5.195 8.279-7.314 11.287-5.108 7.255-7.922 11.25-7.922 25.164v.511c0 3.24-.952 5.817-2.83 7.661-3.512 3.446-9.917 4.02-16.146 4.02m-2.634-.902c6.808.129 14.395-.04 18.168-3.742 1.728-1.697 2.569-3.998 2.569-7.037v-.51c0-14.192 2.87-18.268 8.081-25.669 2.108-2.992 4.497-6.384 7.27-11.218 3.72-6.482 5.521-13.906 5.206-21.471-.836-20.122-16.986-36.608-36.765-37.534-10.552-.495-20.585 3.269-28.258 10.595-7.864 7.507-12.194 17.68-12.194 28.644 0 7.232 1.95 14.3 5.637 20.442 2.56 4.26 4.747 7.396 6.677 10.162 5.512 7.904 8.279 11.87 8.279 26.56 0 9.214 7.367 10.625 15.33 10.778" fill="#1E2F4E"/>
            <path d="M129.213 121a.443.443 0 0 1-.437-.37l-.3-1.847c-.14-.865-.286-1.728-.438-2.59l-.904-5.17c-1.85-10.597-5.458-31.265-7.456-41.592-1.563-.354-3.243-.809-4.527-1.832-1.054-.84-1.436-2.336-.928-3.636.46-1.178 1.547-1.858 2.819-1.77 2.087.14 2.538 2.287 2.78 3.44.178.846.386 1.879.616 3.063l.28.062a.51.51 0 0 1 .06.018c1.046.393 2.123.874 3.293 1.474 1.81.927 3.83 2.087 5.407 3.58 1.18-1.096 2.427-2.135 3.637-3.143l.714-.596c.251-.21.578-.469.953-.765.866-.686 2.07-1.638 3.19-2.692-1.176-1.593-2.515-3.747-2.106-5.386.3-1.205 1.29-2.056 2.584-2.22 1.32-.168 2.554.438 3.156 1.542 1.04 1.907-.477 4.175-2.453 6.156.133.173.259.333.37.476l.14.177c1.488 1.904 3.281 3.568 4.997 5.081l.119.104c.342.301.814.716 1.318 1.203 1.035-.85 2.08-1.506 2.656-1.816 1.34-.719 3.917-1.973 6.129-2.292l.068-.01.153-.972c.192-1.223.475-2.603 1.396-3.528.75-.752 1.703-1.008 2.619-.703.973.326 1.72 1.234 1.859 2.26.142 1.051-.37 2.05-1.404 2.742-.658.44-1.4.532-2.117.622-.5.063-.974.122-1.39.296a.467.467 0 0 1-.108.03l-.235.034c-1.474 9.224-2.996 17.562-4.471 25.642-1.41 7.724-2.867 15.71-4.303 24.557a.444.444 0 0 1-.874-.14c1.436-8.856 2.894-16.847 4.305-24.575 1.46-7.994 2.964-16.243 4.423-25.349-2.116.362-4.626 1.624-5.629 2.163-.618.332-1.547.935-2.45 1.67 1.525 1.607 2.98 3.71 1.811 5.245a3.38 3.38 0 0 1-2.345 1.291c-.821.074-1.59-.172-2.166-.695-.718-.651-1.026-1.43-.916-2.314.154-1.244 1.159-2.51 2.31-3.568-.362-.354-.77-.73-1.226-1.13l-.12-.107c-1.747-1.54-3.576-3.238-5.109-5.198l-.138-.177-.313-.4c-1.1 1.026-2.267 1.95-3.179 2.672-.367.29-.687.544-.934.75l-.715.596c-1.195.996-2.428 2.023-3.586 3.098.793.869 1.426 1.843 1.79 2.938.41 1.225.204 2.325-.58 3.1-.818.81-2.19 1.106-3.333.72-1.046-.354-1.734-1.2-1.886-2.322-.234-1.722 1.411-3.236 2.612-4.34l.131-.122c-1.494-1.403-3.43-2.511-5.166-3.4a30.691 30.691 0 0 0-3.04-1.372c2.014 10.464 5.554 30.745 7.381 41.209.394 2.252.706 4.042.904 5.168.153.866.3 1.734.44 2.602l.3 1.846a.442.442 0 0 1-.438.512m.24-45.935-.15.138c-.999.92-2.507 2.31-2.335 3.576.144 1.064.871 1.461 1.292 1.604.839.283 1.835.073 2.424-.51.54-.534.665-1.292.363-2.195-.32-.963-.883-1.83-1.593-2.613m16.586-.078c-1.048.959-1.93 2.055-2.053 3.046-.073.592.134 1.1.634 1.555.39.353.916.518 1.488.468a2.48 2.48 0 0 0 1.72-.946c.457-.6.423-1.787-1.79-4.123m12.318-9.783c-.432 0-.856.193-1.229.567-.734.737-.978 1.957-1.15 3.042l-.107.682c.483-.176.987-.24 1.475-.3.642-.081 1.25-.157 1.733-.48.754-.504 1.116-1.176 1.02-1.891-.093-.69-.613-1.323-1.264-1.541-.16-.053-.319-.08-.478-.08m-41.545-2.135c-1.158 0-1.616.84-1.763 1.215-.302.773-.225 1.924.656 2.627 1.037.826 2.434 1.25 3.789 1.572-.2-1.02-.381-1.918-.539-2.669-.343-1.632-.793-2.66-1.973-2.74a2.867 2.867 0 0 0-.17-.005m22.068-3.185c-.105 0-.21.007-.317.02-.724.092-1.586.55-1.837 1.557-.31 1.247.852 3.13 1.888 4.55 1.696-1.717 2.984-3.606 2.213-5.02-.378-.693-1.12-1.107-1.947-1.107M79.543 158a.457.457 0 0 1-.42-.267c-.06-.134-5.98-13.534-8.103-20.167a.435.435 0 0 1 .303-.547.46.46 0 0 1 .57.291c2.11 6.59 8.011 19.946 8.07 20.08a.431.431 0 0 1-.242.575.463.463 0 0 1-.178.035" fill="#1E2F4E"/>
            <path d="M68.474 82.523s2.777-.913 3.89-3.011c.56-.916.878-2.011.878-2.011s1.738-1.342 2.28-3.055c.664-2.113.758-6.071 1.705-7.394.795-1.001.626-1.475 1.904-2.115 2.586-1.202 6.116-1.496 7.993-.212 2.26 1.575 3.27 4.655 3.352 4.915l.423-.302s2.08-4.855.994-6.157c-.191-.288-1.116-2.63-2.824-3.44-1.388-.658-.111-2.547-2.036-2.476-1.897.15-3.297-1.039-5.269-1.843-2.903-1.181-6.296.491-6.296.491s-8.744.84-14.232 5.587c-1.889 1.664-3.244 3.58-3.98 5.987-.492 1.605-.444 3.728-.407 5.32.08 1.22-1.107 2.363-.797 3.233.282.79 1.905 1.363 1.905 1.363s.513 1.687 1.904 3.594C61.25 82.903 63.594 85 63.594 85l.372-.065c.34-1.788 4.508-2.412 4.508-2.412" fill="#4F4862"/>
            <path d="M70.338 103.674c1.73.88 3.709 1.19 5.524 1.848 1.495.543 2.325.762 3.74 1.54.313.17 1.427.253 1.651.535.281.352.583.308.801.7.506.912 1.245.831 1.928 1.6.72.809 2.039 1.438 2.987 1.953 1.859 1.01 5.166 4.15 5.166 4.15-.418-2.524-.72-5.204-.984-7.753-.134-1.296-.09-2.56.058-3.853.086-.752-.108-2.274-.173-3.255a8.53 8.53 0 0 1-.02-.45c-1.778-.655-2.427-4.096-2.427-4.096l2.007-1.077s.683-1.2 1.63-3.103c.699-1.64 1.64-3.799 1.744-5.913.169-2.657-.407-4.524-1.079-6.183-.564-1.352-1.399-3.47-1.399-3.47l-1.966-7.243-.008-.025c-.079-.253-1.05-3.24-3.223-4.768-1.805-1.246-5.2-.96-7.687.205-1.23.621-1.067 1.081-1.832 2.052-.91 1.283-1 5.123-1.64 7.173-.52 1.66-2.191 2.962-2.191 2.962s-.306 1.063-.845 1.951c-1.07 2.034-3.742 2.92-3.742 2.92s-4.008.606-4.334 2.34A1.193 1.193 0 0 0 64 84.7c.045.849.14 2.804 1.076 3.76 1.324 1.335 3.69 1.512 3.69 1.512s2.896 7.846 1.807 12.401a6.486 6.486 0 0 1-.166.587c-.015.226-.039.465-.07.713" fill="#FAD9C7"/>
            <path d="M84.585 97c-1.802 0-3.714-.211-5.4-.524-2.987-.542-4.119-1.34-5.995-2.662a.44.44 0 1 1 .504-.724c1.847 1.3 2.858 2.013 5.651 2.52 4.072.755 9.144.807 10.663-.86.772-.844 1.571-2.437 2.192-4.37.964-3.21 1.179-6.122.587-7.985a37.144 37.144 0 0 0-1.275-3.568c-.276-.683-.537-1.327-.807-2.178-.275-.905-.457-1.817-.632-2.699a40.163 40.163 0 0 0-.39-1.81l-.022-.084c-.923-3.352-2.347-5.799-4.233-7.27a.437.437 0 0 1-.073-.619.447.447 0 0 1 .624-.072c2.038 1.59 3.565 4.192 4.538 7.73l.026.095c.157.634.281 1.258.401 1.86.18.9.348 1.75.61 2.611.258.813.513 1.442.783 2.108.365.903.78 1.925 1.3 3.637.64 2.02.427 5.122-.588 8.503-.314.977-1.17 3.374-2.382 4.701-1.11 1.218-3.479 1.66-6.082 1.66M68.508 90c-1.998 0-3.524-.736-4.645-2.234-.997-1.371-1.144-3.102-.368-4.311.767-1.196 2.27-1.688 4.124-1.351a.43.43 0 1 1-.157.845c-1.508-.273-2.656.07-3.23.966-.589.916-.454 2.26.336 3.344 1.128 1.508 2.7 2.086 4.944 1.818a.43.43 0 1 1 .106.853c-.386.047-.756.07-1.11.07" fill="#1E2F4E"/>
            <path d="M67.592 87a.355.355 0 0 1-.28-.155c-.005-.006-.422-.547-.99-.719-.22-.066-.36-.37-.313-.678.048-.307.267-.5.485-.435.8.242 1.357.975 1.38 1.006.163.217.169.577.013.805-.08.117-.187.176-.295.176M70.168 103a.344.344 0 0 1-.13-.026c-.197-.084-.299-.337-.228-.567.186-.597.318-1.203.393-1.801.381-3.109-2.152-10.927-2.178-11.006-.074-.228.024-.483.22-.57.197-.088.415.027.49.256.108.33 2.629 8.112 2.22 11.447a11.531 11.531 0 0 1-.43 1.976c-.056.18-.202.291-.357.291M75.405 75a.365.365 0 0 1-.262-.117.568.568 0 0 1-.047-.692c.064-.092 1.611-2.255 4.506-2.19.224.006.403.23.398.502-.004.271-.195.487-.414.482-2.493-.05-3.817 1.765-3.872 1.843a.382.382 0 0 1-.309.172M86.416 71a.403.403 0 0 1-.302-.138.463.463 0 0 1 .016-.626c1.679-1.694 3.493-1.162 3.57-1.14.22.068.347.314.284.548a.415.415 0 0 1-.516.303c-.056-.017-1.444-.403-2.765.932a.404.404 0 0 1-.287.121M80.18 79.988c-.537.11-1.043-.528-1.16-1.328-.114-.801.263-1.538.8-1.648.537-.11 1.044.528 1.16 1.329.115.8-.263 1.537-.8 1.647M62.588 85a.382.382 0 0 1-.242-.088c-.175-.144-4.3-3.559-5.334-8.34-.054-.248.082-.499.303-.558.219-.062.443.09.496.34.964 4.448 4.98 7.778 5.02 7.812.183.15.224.439.09.645a.4.4 0 0 1-.333.189M55.446 76a.448.448 0 0 1-.373-.197.429.429 0 0 1 .129-.602c1.335-.851 1.285-2.1 1.216-3.828-.067-1.664-.15-3.735 1.085-6.022 2.29-4.344 9.715-9.016 15.113-8.272a.438.438 0 0 1 .38.491.442.442 0 0 1-.504.37c-5.063-.699-12.037 3.713-14.198 7.813-1.126 2.084-1.05 3.944-.985 5.586.071 1.784.139 3.47-1.62 4.59a.447.447 0 0 1-.243.071M84.746 58c-.992 0-1.83-.412-3.283-1.126l-.17-.084c-2.112-1.038-3.884-1.395-6.689-.155a.43.43 0 0 1-.566-.213.42.42 0 0 1 .215-.559c3.101-1.371 5.138-.952 7.422.17l.171.083c2.192 1.078 2.713 1.335 4.58.673a.43.43 0 0 1 .549.255.422.422 0 0 1-.259.541c-.799.283-1.41.415-1.97.415" fill="#1E2F4E"/>
            <path d="M69.015 78c-.194 0-.39-.004-.59-.014a.436.436 0 0 1-.424-.45.444.444 0 0 1 .468-.41c3.575.175 5.6-1.224 6.014-4.152.47-3.543 1.102-7.117 3.167-8.447.845-.545 1.861-.668 3.02-.366a.43.43 0 0 1 .315.528.45.45 0 0 1-.549.303c-.911-.239-1.66-.156-2.29.25-1.752 1.13-2.333 4.495-2.777 7.845C74.919 76.272 72.67 78 69.015 78M84.38 64a.39.39 0 0 1-.38-.39c-.017-.807.261-1.545.764-2.025.337-.323.943-.68 1.901-.562a.396.396 0 0 1 .332.444.386.386 0 0 1-.422.35c-.542-.07-.98.052-1.301.359-.334.32-.527.849-.515 1.416a.39.39 0 0 1-.37.408h-.009zM68.483 82a.478.478 0 0 1-.48-.412.472.472 0 0 1 .423-.52c2.049-.234 2.63-1.742 2.635-1.757a.487.487 0 0 1 .618-.283.463.463 0 0 1 .293.597c-.032.085-.796 2.07-3.432 2.372a.617.617 0 0 1-.057.003M79.534 62a.488.488 0 0 1-.346-.138c-.02-.02-2.018-1.99-3.73-2.02-.258-.005-.462-.197-.458-.429.006-.23.213-.413.466-.413 2.126.036 4.32 2.204 4.414 2.296a.393.393 0 0 1-.033.595.494.494 0 0 1-.313.109" fill="#1E2F4E"/>
            <path d="M90.975 85s.484 4.168-2.839 4.917C85.133 90.562 83 87.254 83 87.254s2.258-.24 4.212-.791C89.165 85.912 90.975 85 90.975 85" fill="#CD6170"/>
            <path d="M86.845 91c-2.827 0-4.696-2.903-4.782-3.039a.396.396 0 0 1-.014-.405.465.465 0 0 1 .36-.234c.023-.002 2.258-.25 4.162-.798 1.897-.545 3.687-1.46 3.705-1.47a.498.498 0 0 1 .44-.006.43.43 0 0 1 .248.334c.183 1.612-.252 4.837-3.211 5.518a4.2 4.2 0 0 1-.908.1m-3.574-2.927c.716.867 2.31 2.426 4.262 1.998 2.183-.503 2.506-2.804 2.528-3.949-.718.33-1.928.848-3.213 1.217-1.31.377-2.732.614-3.577.734M89.213 77.977c-.49.148-1.077-.448-1.19-1.272-.115-.824.227-1.615.736-1.682.49-.149 1.077.447 1.19 1.271.185.804-.157 1.595-.736 1.683M90.386 70a.452.452 0 0 1-.427-.567c.124-.476.264-.95.404-1.421.97-3.276 1.807-6.105-3.088-8.143a.454.454 0 0 1-.242-.588.438.438 0 0 1 .576-.247c5.64 2.347 4.603 5.851 3.6 9.239-.137.462-.275.926-.396 1.392a.444.444 0 0 1-.427.335" fill="#1E2F4E"/>
            <path d="M103.207 194.83c-12.763 4.346-26.846 3.144-40.196-.59-.084 1.782.361 13.683.179 14.76h53.8c.066-4.124-.216-14.583-.532-18.693-.041-.537-.262-1.494-.281-2.307a47.37 47.37 0 0 1-2.122 1.489c-.802 1.257-8.154 4.72-10.848 5.342" fill="#9F9FA0"/>
            <path d="M63.161 208.98h.811c.02-.058.031.066.027 0-.142-2.184-.195-14.29-.005-15.454a.45.45 0 0 0-.357-.52.438.438 0 0 0-.503.37c-.202 1.237-.153 13.328-.005 15.604.004.045.018-.04.032 0" fill="#1E2F4E"/>
            <g transform="translate(116 187)">
                <mask id="9ga8pd32lp" fill="#fff">
                    <use xlink:href="#5wxnhb2gpo"/>
                </mask>
                <path d="M.83 21.971c-.002.092.045-.07.11 0h.946c.064-.068.11.088.11 0 .046-3.194-.346-14.86-.662-19.209L1.166.41C1.149.172.869-.015.553 0 .231.015-.016.217.001.456L.17 2.808c.314 4.336.706 15.996.66 19.163" fill="#1E2F4E" mask="url(#9ga8pd32lp)"/>
            </g>
            <path d="M115.862 187a.564.564 0 0 1-.365-.129.39.39 0 0 1 .005-.615c.833-.698.401-1.954.02-3.062-.184-.532-.342-.992-.36-1.382-.398-9.052.021-15.647.357-20.947.264-4.14.472-7.412.198-10.397-.022-.239.189-.448.471-.466.28-.021.53.16.55.399.28 3.042.07 6.338-.195 10.511-.335 5.281-.753 11.855-.356 20.868.013.282.161.713.319 1.17.416 1.207.985 2.863-.285 3.925a.561.561 0 0 1-.36.125M115.557 140a.439.439 0 0 1-.442-.424c-.25-9.491-1.29-12.971-3.013-18.738l-.084-.28a.434.434 0 0 1 .3-.54c.234-.069.48.065.549.295l.083.28c1.744 5.834 2.797 9.356 3.05 18.96a.439.439 0 0 1-.431.447h-.012zM124.641 160c-.622 0-1.252-.035-1.89-.106-1.25-.14-4.344-1.607-5.578-2.535a.433.433 0 0 1-.085-.61.438.438 0 0 1 .612-.083c1.202.904 4.137 2.253 5.149 2.365 5.223.58 9.777-1.272 13.166-5.36 3.265-3.942 6.042-8.34 8.605-12.506a307.91 307.91 0 0 0 5.334-9.042c.16-.281.413-.64.706-1.056.573-.815 1.439-2.045 1.467-2.652a.425.425 0 0 1 .457-.414c.24.012.426.215.416.454-.04.86-.882 2.055-1.625 3.11-.269.381-.522.741-.662.986a308.565 308.565 0 0 1-5.348 9.068c-2.58 4.192-5.375 8.62-8.677 12.603-3.12 3.767-7.346 5.778-12.047 5.778M97.394 111c-.545 0-1.083-.828-2.202-2.628-.83-1.334-1.861-2.994-2.763-3.795a.71.71 0 0 0-.707-.143.736.736 0 0 0-.477.526c-.13.515-.164 1.383-.1 2.654.013.252-.165.467-.398.48-.237.011-.43-.18-.444-.431-.069-1.39-.028-2.325.13-2.946.14-.547.526-.978 1.035-1.153a1.499 1.499 0 0 1 1.496.31c.996.885 2.022 2.533 2.927 3.99.408.656.927 1.49 1.278 1.934-.06-1.316-.817-4.889-2.716-8.68-1.514-.437-3.08-.997-4.329-2.34a.484.484 0 0 1-.002-.644.4.4 0 0 1 .596-.002c1.15 1.235 2.667 1.741 4.124 2.153a.427.427 0 0 1 .263.221c2.364 4.646 3.167 9.18 2.816 10.102-.095.25-.26.335-.352.363a.563.563 0 0 1-.175.029M78.62 117c-.379 0-.757-.154-.96-.292-.672-.46-1.561-1.025-2.59-1.679-1.658-1.054-3.72-2.366-5.538-3.67-.674-.486-1.384-1.174-2.071-1.841a39.979 39.979 0 0 0-1.058-1.002 1.203 1.203 0 0 1-.403-.889c0-.333.138-.641.39-.87.179-.16.402-.362.825-1.146.56-1.038 1-1.995 1.332-3.286.06-.23.3-.368.538-.313a.427.427 0 0 1 .324.518c-.302 1.176-.709 2.183-1.407 3.475-.455.845-.735 1.134-1.005 1.377a.328.328 0 0 0-.109.245c0 .1.043.194.121.264.352.316.715.669 1.082 1.024.664.644 1.35 1.31 1.972 1.757 1.796 1.29 3.762 2.54 5.495 3.642 1.036.659 1.931 1.227 2.616 1.696.132.09.43.17.532.123.018-.009.04-.062.048-.15.1-1.094-.046-2.257-.186-3.38-.197-1.575-.367-2.935.186-3.818.928-1.483 1.82-1.11 2.47-.835.151.063.306.128.46.172a.426.426 0 0 1 .297.533.448.448 0 0 1-.554.287c-.203-.059-.391-.138-.557-.208-.604-.254-.83-.349-1.356.493-.395.63-.235 1.914-.065 3.273.14 1.113.297 2.375.19 3.558-.05.546-.372.767-.56.851-.145.065-.302.091-.458.091M103.918 195l.032-.008c.27-.19.566-.337.89-.42.138-1.491.333-5.347-.136-13.39-.33-5.654-.92-11.167-1.441-16.03-.14-1.3-.274-2.555-.397-3.753a.439.439 0 0 0-.477-.396.443.443 0 0 0-.387.489c.124 1.2.258 2.456.397 3.757.52 4.853 1.11 10.354 1.438 15.987.54 9.25.184 12.95.08 13.764M99.541 145a.454.454 0 0 1-.451-.364c-3.211-17.745-8.007-28.916-8.055-29.027a.433.433 0 0 1 .247-.575.464.464 0 0 1 .6.237c.048.112 4.88 11.365 8.111 29.214a.441.441 0 0 1-.373.508.46.46 0 0 1-.079.007" fill="#1E2F4E"/>
            <path d="M159.864 108.6s1.134-2.085 1.134-3.235-1.141-7.275-2.14-8.058c-1-.783-1.926.079-1.712.942.214.863.427 5.535.427 5.535l.455.954c-1.095-.914-6.317-3.51-7.303-3.629-1.07-.129-1.427.375-.856 1.38.57 1.008 5.43 3.883 5.43 3.883l.634 1.437.048.104c-1.341-.41-4.642-1.174-5.74-1.659-1.3-.575-2.65-1.12-3.059-.33-.537 1.042.19 1.419 1.189 2.191.713.551 3.536 1.699 5.092 2.31a1.86 1.86 0 0 1 1.167 1.531l.09.819.18.294c-2.162-1.124-7.247-3.613-7.528-2.312-.357 1.652 1.232 2.329 2.426 2.823a24.128 24.128 0 0 1 2.948 1.472c.523.308.894.819 1.035 1.412l.34 4.046-1.08 2.296.138 3.194c.64-.448 2.865-1.845 3.505-2.293.542-.38 1.091-.766 1.514-1.277.035-.043.068-.09.1-.142.422-.687.44-1.551.14-2.3l-1.342-3.337 1.762 2.875c-.143-.288.5-.63.5-2.076 0-.61-.343-2.275-.808-4.037l.807 1.728s1.712-1.138 1.64-2.366c-.048-.843-1.174-3.923-1.99-5.978l.857 1.803z" fill="#FAD9C7"/>
            <path d="M159.335 108a.517.517 0 0 1-.221-.049c-.233-.11-.322-.365-.2-.572.316-.532 1.133-2.092 1.133-2.912 0-1.179-1.235-6.82-2.066-7.416-.191-.138-.47-.278-.709-.159-.22.109-.352.397-.312.682.242 1.723.635 6.014.64 6.058.02.233-.175.437-.437.456-.258.016-.492-.155-.513-.388-.004-.043-.396-4.316-.635-6.02-.09-.635.23-1.249.794-1.528.54-.267 1.187-.18 1.772.24 1.293.93 2.419 7.153 2.419 8.075 0 1.176-1.116 3.092-1.243 3.306a.489.489 0 0 1-.422.227M153.195 126a.452.452 0 0 1-.362-.177.417.417 0 0 1 .1-.597c.321-.223 1.006-.658 1.73-1.12a72.018 72.018 0 0 0 1.709-1.106c.502-.347 1.02-.706 1.4-1.16a.786.786 0 0 0 .062-.089c.325-.524.365-1.219.104-1.859l-2.28-5.616a1.36 1.36 0 0 0-.63-.696c-4.596-2.4-6.773-2.926-7.11-2.697-.242 1.163.777 1.684 2.135 2.24 1.245.51 2.29 1.073 2.949 1.457.61.354 1.054.951 1.219 1.64l1.06 4.437a.427.427 0 0 1-.335.512.445.445 0 0 1-.534-.32l-1.06-4.438a1.747 1.747 0 0 0-.813-1.101c-.634-.37-1.64-.91-2.836-1.401-1.149-.47-3.07-1.257-2.642-3.221a.825.825 0 0 1 .491-.586c.962-.427 3.62.49 7.903 2.728a2.23 2.23 0 0 1 1.033 1.136l2.282 5.616c.359.884.295 1.858-.17 2.606-.041.067-.085.129-.132.185-.455.546-1.023.94-1.573 1.32-.322.224-1.01.662-1.738 1.125-.685.437-1.394.89-1.7 1.101a.455.455 0 0 1-.262.081" fill="#1E2F4E"/>
            <path d="M158.956 115a.443.443 0 0 1-.251-.807c.406-.28 1.453-1.184 1.408-1.987-.063-1.113-2.27-6.964-2.66-7.693-.44-.582-6.045-3.498-6.965-3.612-.41-.05-.564.028-.586.06-.026.038-.044.241.194.675.364.66 3.344 2.641 5.136 3.735.079.047.14.119.177.203l.617 1.445a.443.443 0 1 1-.816.347l-.561-1.314c-1.028-.631-4.77-2.975-5.33-3.99-.367-.666-.418-1.204-.151-1.597.177-.26.571-.549 1.429-.442.98.12 7.145 3.153 7.637 4.073.302.563 2.686 6.686 2.763 8.06.082 1.44-1.599 2.635-1.79 2.766a.436.436 0 0 1-.25.078" fill="#1E2F4E"/>
            <path d="M157.868 120a.451.451 0 0 1-.27-.09.432.432 0 0 1-.083-.612c.457-.581.595-.757.595-2.042 0-1.504-1.89-8.367-2.58-8.893-.19-.102-1.357-.414-2.296-.663-1.436-.382-3.063-.815-3.797-1.144-.71-.317-2.185-.98-2.414-.528-.285.559-.15.724.739 1.401l.305.235c.469.367 2.294 1.199 4.88 2.225a2.273 2.273 0 0 1 1.418 1.876l.089.812a.44.44 0 0 1-.396.48.442.442 0 0 1-.49-.388l-.089-.812a1.399 1.399 0 0 0-.867-1.158c-1.939-.77-4.397-1.803-5.1-2.352-.103-.081-.202-.156-.297-.229-.799-.608-1.624-1.237-.99-2.48.614-1.203 2.329-.436 3.582.124.667.3 2.327.74 3.66 1.095 1.413.377 2.226.597 2.508.75 1.223.668 3.025 8.464 3.025 9.65 0 1.521-.224 1.868-.778 2.572a.447.447 0 0 1-.354.171" fill="#1E2F4E"/>
            <path d="M141.6 126.756c.178-.28.357-.56.543-.831.564-.76 2.054-3.245 1.835-3.75-.438-1.007-1.242-.541-2.48.725-1.24 1.266-2.953 3.753-4.284 5.062-1.332 1.308-3.634 2.957-3.89 2.37-.256-.588 2.144-2.784 3.817-4.85 1.823-2.236 2.485-3.542 3.712-5.607 1.226-2.065 1.774-3.118 1.015-3.577-.889-.502-2.408.892-3.65 2.662-1.3 1.897-2.278 3.246-3.967 5.019-1.69 1.772-3.472 3.587-3.971 3.21-.5-.376.105-1.556 3.305-6.025.471-.716 2.977-4.468 3.509-5.816.475-1.221-.783-2.057-2.229-.496-1.238 1.266-3.138 3.839-4.868 6.031-1.636 2.151-3.212 3.671-5.218 5.487a24.854 24.854 0 0 1-2.091 1.712l.106-.106c.183-1.894 1.462-3.58 2.497-5.056 1.036-1.476 1.698-2.782.83-3.493-.87-.712-2.132 1.27-3.314 2.409-1.275 1.182-2.907 2.828-3.958 4.01-1.016 1.265-1.32 2.108-2.043 4.044-.61 1.684-.943 3.746-1.682 5.388-.09.177-.612.873-1.116 1.543L113 137.836c.127-.043.236-.08.335-.117a6.31 6.31 0 0 0-.335.475l.017.025c.507.376 1.05.702 1.567 1.064.43.301.83.634 1.181 1.018.374.306.731.632 1.041 1.001.465.553.832 1.185 1.136 1.843.544 1.182.9 2.447 1.155 3.726.002.008.087.129.087.129 6.078-3.766 3.68-2.669 8.13-5.292 3.496-1.99 6.204-3.22 8.152-4.91 1.95-1.688 8.166-8.734 6.543-10.41l-.408.368z" fill="#FAD9C7"/>
            <path d="M113.451 138a.45.45 0 0 1-.428-.298.429.429 0 0 1 .288-.545c.839-.262.839-.262 1.956-2.29.42-.874.722-1.934 1.014-2.958.217-.758.44-1.542.715-2.253l.04-.1c.74-1.857 1.077-2.705 2.164-3.974 1.085-1.143 2.795-2.765 4.173-3.962.289-.261.6-.59.902-.906.997-1.05 2.129-2.24 3.138-1.465 1.408 1.08-.07 3.053-.78 4.001l-.233.311c-.995 1.32-2.123 2.816-2.288 4.418a.448.448 0 0 1-.493.388.438.438 0 0 1-.405-.474c.19-1.833 1.392-3.43 2.453-4.837l.233-.31c1.184-1.58 1.467-2.424.949-2.822-.348-.268-1.248.68-1.906 1.371-.313.329-.636.669-.956.959-1.366 1.187-3.05 2.785-4.104 3.893-.978 1.144-1.278 1.897-2.003 3.716l-.039.098c-.258.67-.467 1.401-.688 2.176-.302 1.058-.615 2.152-1.077 3.113-1.226 2.226-1.298 2.357-2.484 2.728a.464.464 0 0 1-.14.022" fill="#1E2F4E"/>
            <path d="M135.764 135a.433.433 0 0 1-.31-.13.448.448 0 0 1 .001-.627 208.65 208.65 0 0 1 3.402-3.351c1.08-.982 1.849-2.203 2.594-3.385.284-.45.578-.917.885-1.364.71-.947 1.788-2.902 1.799-3.357-.042-.089-.123-.233-.21-.25-.138-.022-.53.087-1.572 1.143-.575.582-1.253 1.43-1.97 2.326-.804 1.003-1.635 2.041-2.366 2.754-.618.602-3.136 2.814-4.165 2.605a.64.64 0 0 1-.47-.37c-.276-.63.445-1.457 2.102-3.265.617-.672 1.255-1.368 1.819-2.06 1.52-1.848 2.236-3.063 3.142-4.601.18-.306.369-.625.572-.965.632-1.054 1.418-2.367 1.305-2.825-.011-.044-.034-.093-.128-.148-.447-.25-1.698.55-3.11 2.545-1.242 1.799-2.263 3.22-4.05 5.08-2.765 2.876-3.873 3.8-4.587 3.266-.843-.63-.297-1.75 3.247-6.658l.12-.18c1.918-2.88 3.053-4.748 3.372-5.552.12-.304.088-.572-.081-.682-.25-.16-.81-.026-1.446.655-.917.93-2.176 2.541-3.508 4.25-.465.595-.933 1.195-1.39 1.769-1.6 2.085-3.106 3.561-5.324 5.551-1.086.99-2.046 1.676-2.817 2.228a28.86 28.86 0 0 0-.916.673.434.434 0 0 1-.614-.084.447.447 0 0 1 .081-.62c.286-.223.6-.448.944-.694.791-.567 1.689-1.208 2.74-2.164 2.18-1.958 3.656-3.404 5.22-5.44.459-.579.926-1.176 1.389-1.77 1.35-1.728 2.623-3.36 3.567-4.317 1.04-1.114 1.998-1.137 2.545-.784.531.343.702 1.05.424 1.759-.518 1.3-2.733 4.625-3.46 5.718l-.13.193c-1.016 1.409-3.309 4.586-3.421 5.371.685-.264 2.648-2.306 3.417-3.106 1.742-1.814 2.742-3.206 3.964-4.975.791-1.12 2.785-3.63 4.26-2.803.29.174.468.409.541.704.182.736-.313 1.676-1.406 3.5l-.568.96c-.926 1.572-1.657 2.813-3.22 4.713-.58.71-1.255 1.447-1.851 2.098-.615.67-1.408 1.535-1.752 2.046.656-.304 1.94-1.193 3.036-2.261.692-.674 1.506-1.69 2.292-2.673.734-.916 1.425-1.78 2.032-2.394.913-.926 1.665-1.518 2.35-1.387.375.07.666.337.867.794.411.938-1.884 4.175-1.907 4.206-.286.417-.575.876-.856 1.32-.775 1.232-1.578 2.504-2.738 3.559a210.749 210.749 0 0 0-3.377 3.327.435.435 0 0 1-.309.129" fill="#1E2F4E"/>
            <path d="M119.434 147a.433.433 0 0 1-.225-.802c3.089-1.866 3.98-2.503 4.697-3.014.699-.499 1.25-.893 3.455-2.16.975-.542 1.868-1.014 2.73-1.471 2.232-1.181 3.995-2.115 5.373-3.28 1.878-1.588 6.574-6.914 6.667-9.038.015-.342-.103-.46-.141-.499a.431.431 0 0 1 .003-.611.436.436 0 0 1 .614.003c.28.282.412.667.39 1.145-.116 2.69-5.387 8.32-6.971 9.66-1.45 1.225-3.25 2.177-5.527 3.383-.86.455-1.748.926-2.71 1.46-2.162 1.242-2.698 1.626-3.378 2.11-.728.521-1.635 1.169-4.752 3.052a.439.439 0 0 1-.225.062M78.85 165c-.271 0-.513-.157-.562-.381a12.565 12.565 0 0 1 .595-7.297c.095-.243.418-.378.718-.3.3.077.467.335.372.578a11.814 11.814 0 0 0-.558 6.86c.054.25-.153.489-.464.533a.79.79 0 0 1-.1.007M152.168 129c-.13 0-.276-.06-.433-.225a3.422 3.422 0 0 1-.201-.237c-.1-.126-.193-.244-.282-.284-.205-.092-.305-.358-.224-.594.08-.235.313-.35.517-.258.26.119.436.34.577.518l.033.042c.057-.247.098-.865-.081-1.313-.092-.23-.005-.501.195-.607.2-.106.436-.004.528.225.314.782.237 2.001-.05 2.342l-.048.06c-.081.098-.274.331-.53.331" fill="#1E2F4E"/>
            <path d="M126.381 149a.34.34 0 0 1-.105-.017c-.202-.065-.32-.306-.261-.535.047-.191 1.185-4.694 2.262-7.204.092-.215.319-.305.509-.2.189.105.268.364.175.58-1.047 2.44-2.202 7.015-2.214 7.061-.048.191-.2.315-.366.315" fill="#1E2F4E"/>
            <g transform="translate(51 108)">
                <mask id="d421x2char" fill="#fff">
                    <use xlink:href="#dnfcxsiiqq"/>
                </mask>
                <path d="M25.673 69c-3.776 0-8.977-1.147-12.588-6.528-2.63-3.92-4.728-10.768-6.759-17.392-1.095-3.574-2.228-7.269-3.41-10.368C1.175 30.142.313 26.559.123 23.097l-.026-.467c-.22-3.909-.393-6.996 3.349-10.876 2.32-2.392 4.528-4.426 6.664-6.393 1.94-1.785 3.772-3.472 5.46-5.227a.44.44 0 0 1 .621-.012c.175.166.181.443.013.618-1.706 1.774-3.548 3.47-5.498 5.264C8.58 7.962 6.38 9.987 4.08 12.361.602 15.966.75 18.597.974 22.581l.026.467c.185 3.37 1.03 6.87 2.737 11.352 1.192 3.127 2.33 6.837 3.43 10.425 2.01 6.562 4.091 13.348 6.649 17.16 5.959 8.882 16.275 5.592 16.379 5.557 2.292-.844 9.409-5.638 20.571-13.86 8.653-6.372 16.76-12.615 16.841-12.677a.43.43 0 0 1 .063-.04c.373-.198.452-.745.452-1.168.003-2.294-2.348-6.881-6.038-8.85-2.049-1.093-3.9.271-7.59 2.993-2.796 2.061-6.626 4.885-12.224 7.726-12.534 6.362-13.888 8.302-13.94 8.382a.449.449 0 0 1-.594.149.43.43 0 0 1-.175-.572c.106-.205 1.41-2.19 14.31-8.739 5.533-2.808 9.328-5.606 12.1-7.65 3.735-2.753 5.99-4.415 8.528-3.062 4.033 2.152 6.504 7.056 6.501 9.624-.001 1.168-.472 1.689-.882 1.92-.524.403-8.42 6.475-16.83 12.669-11.388 8.387-18.386 13.09-20.798 13.98-.045.016-2.048.633-4.817.633" fill="#1E2F4E" mask="url(#d421x2char)"/>
            </g>
            <path d="M152.002 126.675a4.3 4.3 0 0 0 .669 1.23c.044.055.099.112.154.09.064-.025.093-.14.109-.242.143-.923.051-1.93-.253-2.753l-.681 1.727.002-.052zM142.452 127a.444.444 0 0 1-.448-.37.432.432 0 0 1 .389-.48c4.882-.611 10.702-2.394 10.702-7.414v-.309a.44.44 0 0 1 .453-.427.44.44 0 0 1 .452.427v.309c0 4.463-3.972 7.32-11.488 8.26a.435.435 0 0 1-.06.004M91.303 109.685c-.206-1.05-.4-2.04-.458-2.814-.095-1.274-.143-3.827-.181-5.877-.022-1.158-.04-2.158-.063-2.611-.023-.462-.23-.712-.4-.84-.418-.315-.97-.17-1.033-.153-.013.003-.022.013-.035.019-.104-.362-.204-.751-.31-1.186-.07-.286-.142-.583-.222-.89a.428.428 0 0 0-.528-.318.453.453 0 0 0-.303.551c.079.304.15.597.219.878.398 1.629.712 2.914 1.742 3.662.018.013.037.019.055.028l.017.877c.039 2.062.087 4.63.184 5.93.061.829.261 1.846.472 2.923.285 1.452.6 3.062.668 4.605-1.913-1.926-3.214-2.742-4.582-3.602-1.296-.815-2.636-1.656-4.708-3.509-.578-.516-2.4-1.28-3.156-1.585-1.28-.516-2.38-.913-3.446-1.297-1.44-.518-2.798-1.008-4.476-1.743-.505-.22-.973-1.104-.903-1.295.001 0 .097-.064.429-.008a.43.43 0 0 0 .494-.37.446.446 0 0 0-.354-.515c-1.044-.181-1.318.384-1.387.633-.237.858.684 2.075 1.388 2.383 1.703.745 3.075 1.24 4.528 1.763 1.057.382 2.152.776 3.417 1.287 1.643.661 2.643 1.194 2.906 1.429 2.126 1.9 3.56 2.802 4.824 3.596 1.554.976 2.895 1.819 5.15 4.229a.422.422 0 0 0 .461.106.45.45 0 0 0 .277-.4c.084-1.959-.326-4.045-.686-5.886M86.238 198c-7.6 0-15.45-1.113-22.434-3.24a1.764 1.764 0 0 1-1.228-1.983c.202-1.24.42-2.305.63-3.333 1.025-4.993 1.766-8.6-1.198-23.92a.437.437 0 1 1 .857-.17c2.997 15.495 2.243 19.175 1.197 24.268a79.37 79.37 0 0 0-.625 3.297.886.886 0 0 0 .62.998c9.45 2.878 20.506 3.88 30.332 2.749 10.334-1.19 18.086-4.553 21.828-9.472a.436.436 0 0 1 .612-.082.443.443 0 0 1 .08.618c-3.887 5.11-11.85 8.594-22.421 9.81a72.24 72.24 0 0 1-8.25.46M87.461 83.985a.292.292 0 0 1-.219-.014.35.35 0 0 1-.16-.446c.256-.619.343-1.05.259-1.28-.065-.178-.26-.276-.573-.422-.399-.186-.895-.418-1.218-1.024-.736-1.278-.564-3.695-.435-4.517.029-.184.19-.309.362-.277.171.03.286.205.258.39-.138.882-.234 3.036.355 4.058.224.421.566.58.928.75.367.17.746.347.908.796.153.421.07.977-.269 1.8a.321.321 0 0 1-.196.186" fill="#1E2F4E"/>
            <path d="M87.461 83.985a.292.292 0 0 1-.219-.014.35.35 0 0 1-.16-.446c.256-.619.343-1.05.259-1.28-.065-.178-.26-.276-.573-.422-.399-.186-.895-.418-1.218-1.024-.736-1.278-.564-3.695-.435-4.517.029-.184.19-.309.362-.277.171.03.286.205.258.39-.138.882-.234 3.036.355 4.058.224.421.566.58.928.75.367.17.746.347.908.796.153.421.07.977-.269 1.8a.321.321 0 0 1-.196.186z" stroke="#1E2F4E" stroke-width=".5" stroke-linecap="round" stroke-linejoin="round"/>
        </g>
    </g>
</svg>
