<svg width="200" height="200" viewBox="0 0 200 200" xmlns="http://www.w3.org/2000/svg" xmlns:xlink="http://www.w3.org/1999/xlink">
    <defs>
        <filter x="-5.6%" y="-2.8%" width="111.1%" height="111.1%" filterUnits="objectBoundingBox" id="rfwgpj42wb">
            <feOffset dy="5" in="SourceAlpha" result="shadowOffsetOuter1"/>
            <feGaussianBlur stdDeviation="2.5" in="shadowOffsetOuter1" result="shadowBlurOuter1"/>
            <feComposite in="shadowBlurOuter1" in2="SourceAlpha" operator="out" result="shadowBlurOuter1"/>
            <feColorMatrix values="0 0 0 0 0 0 0 0 0 0 0 0 0 0 0 0 0 0 0.2 0" in="shadowBlurOuter1"/>
        </filter>
        <filter x="-.3%" y="-.3%" width="100.6%" height="100.6%" filterUnits="objectBoundingBox" id="wte2dladgg">
            <feOffset dy="1" in="SourceAlpha" result="shadowOffsetInner1"/>
            <feComposite in="shadowOffsetInner1" in2="SourceAlpha" operator="arithmetic" k2="-1" k3="1" result="shadowInnerInner1"/>
            <feColorMatrix values="0 0 0 0 0 0 0 0 0 0 0 0 0 0 0 0 0 0 0.2 0" in="shadowInnerInner1"/>
        </filter>
        <circle id="nppwegmwxa" cx="90" cy="90" r="90"/>
        <circle id="jrj1qw6i0d" cx="90" cy="90" r="90"/>
        <path d="M90 12c45.287 0 82 35.817 82 80s-36.713 80-82 80S8 136.183 8 92s36.713-80 82-80zm0 2.051c-44.167 0-79.95 34.91-79.95 77.949 0 43.038 35.783 77.949 79.95 77.949s79.95-34.91 79.95-77.949c0-43.038-35.783-77.949-79.95-77.949z" id="h8jkue1gjf"/>
    </defs>
    <g fill="none" fill-rule="evenodd">
        <g transform="translate(10 10)">
            <mask id="51i05rwh4c" fill="#fff">
                <use xlink:href="#nppwegmwxa"/>
            </mask>
            <g fill="#000">
                <use filter="url(#rfwgpj42wb)" xlink:href="#nppwegmwxa"/>
                <use fill-opacity=".5" xlink:href="#nppwegmwxa"/>
            </g>
            <circle stroke="#D95555" fill="#FFF" mask="url(#51i05rwh4c)" cx="90" cy="84" r="89.5"/>
            <g mask="url(#51i05rwh4c)">
                <g transform="translate(0 -6)">
                    <mask id="2zxe3ti8te" fill="#fff">
                        <use xlink:href="#jrj1qw6i0d"/>
                    </mask>
                    <circle stroke="#D95555" cx="90" cy="90" r="89.5"/>
                    <g fill-rule="nonzero" mask="url(#2zxe3ti8te)">
                        <use fill="#D95555" xlink:href="#h8jkue1gjf"/>
                        <use fill="#000" filter="url(#wte2dladgg)" xlink:href="#h8jkue1gjf"/>
                    </g>
                    <path d="M90 176.25a.75.75 0 0 1 .743.648l.007.102v10a.75.75 0 0 1-1.493.102L89.25 187v-10a.75.75 0 0 1 .75-.75zm-5.842-.204a.75.75 0 0 1 .696.698v.102l-.698 9.976a.75.75 0 0 1-1.496-.003v-.102l.697-9.975a.75.75 0 0 1 .8-.696zm22.675-.84.027.098 1.908 9.817a.75.75 0 0 1-1.447.384l-.026-.098-1.908-9.816a.75.75 0 0 1 1.446-.385zm-38.51-1.81a.75.75 0 0 1 .551.819l-.02.1-2.588 9.66a.75.75 0 0 1-1.469-.289l.02-.1 2.588-9.66a.75.75 0 0 1 .919-.53zm44.239.434.033.097 2.588 9.659a.75.75 0 0 1-1.416.485l-.033-.097-2.588-9.66a.75.75 0 0 1 1.416-.484zm-49.828-2.143a.75.75 0 0 1 .491.855l-.026.098-3.256 9.456a.75.75 0 0 1-1.445-.39l.027-.099 3.255-9.455a.75.75 0 0 1 .954-.465zm64.932-3.656.05.088 4.384 8.988a.75.75 0 0 1-1.297.746l-.051-.088-4.384-8.988a.75.75 0 0 1 1.298-.746zm-79.541-3.001a.75.75 0 0 1 .32.933l-.045.091-5 8.66a.75.75 0 0 1-1.344-.658l.044-.092 5-8.66a.75.75 0 0 1 1.025-.274zm84.718.19.057.084 5 8.66a.75.75 0 0 1-1.243.835l-.057-.085-5-8.66a.75.75 0 0 1 1.243-.835zm-89.675-3.288a.75.75 0 0 1 .257.945l-.055.096-5.592 8.29a.75.75 0 0 1-1.299-.742l.055-.096 5.592-8.29a.75.75 0 0 1 1.042-.203zm102.756-6.23.079.079 6.56 7.547a.75.75 0 0 1-1.053 1.062l-.078-.078-6.561-7.547a.75.75 0 0 1 1.053-1.062zm4.273-4.054.084.072 7.07 7.071a.75.75 0 0 1-.976 1.134l-.084-.073-7.07-7.071a.75.75 0 0 1 .976-1.133zm-119.417.072a.75.75 0 0 1 .072.977l-.072.084-7.071 7.07a.75.75 0 0 1-1.134-.976l.073-.084 7.071-7.07a.75.75 0 0 1 1.06 0zm-3.987-4.275a.75.75 0 0 1 .004.98l-.078.078-7.547 6.56a.75.75 0 0 1-1.062-1.053l.078-.078 7.547-6.561a.75.75 0 0 1 1.058.074zm133.584-8.37.096.055 8.29 5.592a.75.75 0 0 1-.742 1.299l-.096-.055-8.29-5.592a.75.75 0 0 1 .742-1.3zm-142.907-4.7a.75.75 0 0 1-.19.968l-.084.057-8.66 5a.75.75 0 0 1-.835-1.243l.085-.057 8.66-5a.75.75 0 0 1 1.024.275zm145.993-.32.091.045 8.66 5a.75.75 0 0 1-.658 1.344l-.092-.044-8.66-5a.75.75 0 0 1 .659-1.344zm-148.737-4.841a.75.75 0 0 1-.257.952l-.088.05-8.988 4.384a.75.75 0 0 1-.746-1.297l.088-.051 8.988-4.384a.75.75 0 0 1 1.003.346zm155.316-9.94.098.027 9.456 3.256a.75.75 0 0 1-.39 1.445l-.099-.027-9.455-3.255a.75.75 0 0 1 .39-1.445zm1.673-5.648.1.02 9.66 2.588a.75.75 0 0 1-.289 1.469l-.1-.02-9.66-2.588a.75.75 0 0 1 .289-1.469zm-162.611.55a.75.75 0 0 1-.434.886l-.097.033-9.659 2.588a.75.75 0 0 1-.485-1.416l.097-.033 9.66-2.588a.75.75 0 0 1 .918.53zm-1.315-5.696a.75.75 0 0 1-.495.853l-.098.027-9.817 1.908a.75.75 0 0 1-.384-1.447l.098-.026 9.816-1.908a.75.75 0 0 1 .88.593zm166.455-10.834h.102l9.976.698a.75.75 0 0 1-.003 1.496h-.102l-9.975-.697a.75.75 0 0 1 .002-1.497zM5.5 91.75a.75.75 0 0 1 .102 1.493l-.102.007h-10a.75.75 0 0 1-.102-1.493l.102-.007h10zm179 0a.75.75 0 0 1 .102 1.493l-.102.007h-10a.75.75 0 0 1-.102-1.493l.102-.007h10zM-4.217 85.16l9.975.697a.75.75 0 0 1-.002 1.497h-.102l-9.976-.698a.75.75 0 0 1 .003-1.496h.102zM183.5 74.325a.75.75 0 0 1-.495.854l-.098.026-9.816 1.908a.75.75 0 0 1-.385-1.446l.098-.027 9.817-1.908a.75.75 0 0 1 .879.593zM-1.186 67.297l.1.02 9.66 2.588a.75.75 0 0 1-.289 1.469l-.1-.02-9.66-2.588a.75.75 0 0 1 .289-1.469zm183.19.55a.75.75 0 0 1-.433.886l-.097.033-9.66 2.588a.75.75 0 0 1-.484-1.416l.097-.033 9.659-2.588a.75.75 0 0 1 .918.53zM.794 60.998l.099.027 9.455 3.255a.75.75 0 0 1-.39 1.445L9.86 65.7.404 62.443a.75.75 0 0 1 .39-1.445zM175.61 50.745a.75.75 0 0 1-.257.952l-.088.051-8.988 4.384a.75.75 0 0 1-.746-1.298l.088-.05 8.988-4.384a.75.75 0 0 1 1.003.345zm-3.121-5.87a.75.75 0 0 1-.19.968l-.085.057-8.66 5a.75.75 0 0 1-.835-1.243l.085-.057 8.66-5a.75.75 0 0 1 1.025.275zm-164.045-.32.092.045 8.66 5a.75.75 0 0 1-.659 1.344l-.091-.044-8.66-5a.75.75 0 0 1 .658-1.344zm3.535-5.576.096.055 8.29 5.592a.75.75 0 0 1-.742 1.3l-.096-.056-8.29-5.592a.75.75 0 0 1 .742-1.299zm149.907-8.969a.75.75 0 0 1 .004.98l-.078.078-7.547 6.561a.75.75 0 0 1-1.062-1.053l.078-.079 7.547-6.56a.75.75 0 0 1 1.058.073zM23.625 25.075l.084.073 7.07 7.071a.75.75 0 0 1-.976 1.133l-.084-.072-7.07-7.071a.75.75 0 0 1 .976-1.134zm133.727.073a.75.75 0 0 1 .073.977l-.073.084-7.071 7.07a.75.75 0 0 1-1.133-.976l.072-.084 7.071-7.07a.75.75 0 0 1 1.06 0zM28.49 20.61l.078.078 6.561 7.547a.75.75 0 0 1-1.053 1.062l-.079-.078-6.56-7.547a.75.75 0 0 1 1.053-1.062zm114.773-7.076a.75.75 0 0 1 .258.945l-.055.096-5.592 8.29a.75.75 0 0 1-1.3-.742l.056-.096 5.592-8.29a.75.75 0 0 1 1.041-.203zm-5.638-3.523a.75.75 0 0 1 .32.933l-.045.092-5 8.66a.75.75 0 0 1-1.344-.659l.044-.091 5-8.66a.75.75 0 0 1 1.025-.275zm-94.282.19.057.085 5 8.66a.75.75 0 0 1-1.243.835l-.057-.085-5-8.66a.75.75 0 0 1 1.243-.835zm5.854-3.054.051.088 4.384 8.988a.75.75 0 0 1-1.298.746l-.05-.088L47.9 7.893a.75.75 0 0 1 1.297-.746zm71.813-4.708a.75.75 0 0 1 .492.855l-.027.099-3.255 9.455a.75.75 0 0 1-1.445-.39l.026-.098 3.256-9.456a.75.75 0 0 1 .953-.465zM66.233.93l.033.097 2.588 9.66a.75.75 0 0 1-1.416.484l-.033-.097-2.588-9.659A.75.75 0 0 1 66.233.93zm48.42-.433a.75.75 0 0 1 .55.818l-.02.1-2.588 9.66a.75.75 0 0 1-1.469-.289l.02-.1 2.588-9.66a.75.75 0 0 1 .919-.53zM72.679-.505l.026.098 1.908 9.816a.75.75 0 0 1-1.446.385l-.027-.098-1.908-9.817a.75.75 0 0 1 1.447-.384zm23.863-2.013h.102a.75.75 0 0 1 .696.699v.102l-.697 9.975a.75.75 0 0 1-1.497-.002v-.102l.698-9.976a.75.75 0 0 1 .698-.696zM90-2.75a.75.75 0 0 1 .743.648L90.75-2V8a.75.75 0 0 1-1.493.102L89.25 8V-2a.75.75 0 0 1 .75-.75z" fill="#D95555" fill-rule="nonzero" mask="url(#2zxe3ti8te)"/>
                </g>
            </g>
        </g>
        <path d="M53.183 145.477c0-3.119 21.353-5.64 47.669-5.64 26.316 0 47.67 2.521 47.67 5.64 0 3.118-21.354 5.64-47.67 5.64-26.344 0-47.67-2.522-47.67-5.64" fill="#000" opacity=".2"/>
        <path d="M163.01 88.03c19.208 0 34.78-.631 34.78-1.41 0-.778-15.572-1.41-34.78-1.41-19.208 0-34.78.632-34.78 1.41 0 .779 15.572 1.41 34.78 1.41" fill="#9F9FA0"/>
        <path d="M163.01 88.362c-9.296 0-18.034-.147-24.607-.413-10.504-.426-10.504-.906-10.504-1.329 0-.423 0-.902 10.504-1.328 6.574-.266 15.313-.414 24.607-.414 9.293 0 18.032.148 24.607.414 10.504.426 10.504.905 10.504 1.328 0 .423 0 .903-10.504 1.329-6.573.266-15.312.413-24.607.413M129.15 86.62c3.078.55 15.772 1.079 33.859 1.079 18.086 0 30.78-.53 33.859-1.079-3.078-.549-15.772-1.078-33.86-1.078-18.087 0-30.78.529-33.858 1.078" fill="#1E2F4E"/>
        <path d="M163.01 88.503c-9.307 0-18.047-.147-24.613-.413-10.64-.431-10.64-.913-10.64-1.47 0-.557 0-1.037 10.64-1.47 6.582-.266 15.324-.413 24.613-.413s18.03.147 24.612.413c10.64.433 10.64.913 10.64 1.47 0 .557 0 1.039-10.64 1.47-6.565.266-15.305.413-24.612.413m0-3.483c-9.285 0-18.023.146-24.601.413-9.569.388-10.37.816-10.37 1.187 0 .371.801.8 10.37 1.187 6.562.268 15.298.413 24.6.413 9.304 0 18.04-.145 24.602-.413 9.569-.387 10.37-.816 10.37-1.187 0-.37-.801-.8-10.37-1.187-6.579-.267-15.316-.413-24.601-.413m0 2.82c-18.27 0-30.874-.544-33.883-1.081l-.778-.139.778-.139c3.008-.536 15.613-1.08 33.883-1.08 18.27 0 30.875.544 33.883 1.08l.778.14-.778.138c-3.009.537-15.614 1.08-33.883 1.08m-32.842-1.219c4.228.486 16.17.937 32.842.937 16.671 0 28.614-.451 32.842-.937-4.228-.485-16.17-.937-32.842-.937-16.672 0-28.614.452-32.842.937M74.39 86.36c-1.165-1.71-2.334-3.418-3.5-5.126-2.801-4.106-5.605-8.21-8.406-12.313-3.4-4.98-6.798-9.961-10.2-14.942L43.493 41.1c-1.424-2.085-2.817-4.195-4.27-6.258l-.063-.087a.424.424 0 0 0-.72 0c-1.165 1.71-2.334 3.417-3.5 5.126-2.801 4.105-5.605 8.208-8.403 12.313-3.403 4.982-6.801 9.962-10.203 14.943l-8.79 12.879c-.965 1.412-1.93 2.83-2.9 4.242-.454.67-.95 1.322-1.37 2.013l-.063.088c-.303.445.421.864.724.423 1.165-1.71 2.334-3.418 3.498-5.128 2.804-4.104 5.606-8.207 8.405-12.312 3.401-4.981 6.8-9.963 10.202-14.943l8.79-12.878 2.897-4.243c.303-.444.606-.885.905-1.328.152-.218.356-.444.47-.685.013-.032.041-.059.058-.088h-.72c1.164 1.71 2.333 3.418 3.497 5.127 2.804 4.104 5.607 8.207 8.408 12.313 3.4 4.981 6.798 9.961 10.2 14.943l8.79 12.878c1.424 2.083 2.817 4.193 4.27 6.256.022.029.042.059.063.088.3.44 1.023.024.72-.423" fill="#1E2F4E"/>
        <path d="M3.591 87.11a.63.63 0 0 1-.354-.11c-.254-.174-.312-.47-.142-.72.023-.032.043-.058.063-.088.275-.451.59-.897.893-1.328.161-.227.322-.456.478-.685.65-.948 1.299-1.898 1.947-2.847l2.35-3.442c2.463-3.612 4.927-7.222 7.392-10.832l10.203-14.944c1.782-2.614 3.567-5.227 5.351-7.84l4.265-6.248c.763-1.116 1.526-2.233 2.287-3.35a.58.58 0 0 1 .953 0l.056.078c.973 1.38 1.93 2.796 2.854 4.167.473.701.946 1.402 1.423 2.1l8.79 12.878c2.33 3.41 4.658 6.822 6.986 10.233l6.467 9.474c1.719 2.516 3.437 5.032 5.154 7.549l1.179 1.725c.774 1.133 1.548 2.266 2.32 3.4.11.163.128.342.049.504a.605.605 0 0 1-.498.325.563.563 0 0 1-.505-.248l-.06-.086c-.951-1.35-1.891-2.74-2.8-4.086-.49-.725-.979-1.45-1.472-2.171l-8.79-12.879a35058.51 35058.51 0 0 1-10.2-14.943c-2.802-4.105-5.604-8.209-8.408-12.312l-1.912-2.803-1.108-1.624a5.1 5.1 0 0 0-.053.073c-.238.352-.478.705-.72 1.057L15.955 69.422c-2.8 4.105-5.602 8.208-8.405 12.312l-1.796 2.633-1.702 2.495a.548.548 0 0 1-.462.248zm35.39-51.39 1.162 1.702 1.912 2.803c2.803 4.103 5.606 8.207 8.408 12.312 3.4 4.982 6.798 9.962 10.2 14.943l8.79 12.878c.493.722.983 1.448 1.473 2.173a244.586 244.586 0 0 0 2.796 4.081l.064.091c.076.113.18.126.25.125a.327.327 0 0 0 .265-.167c.034-.07.024-.145-.028-.223-.773-1.134-1.547-2.266-2.32-3.398l-1.18-1.726c-1.716-2.518-3.435-5.033-5.152-7.549l-6.468-9.475-6.986-10.231c-2.93-4.295-5.859-8.586-8.79-12.879-.476-.699-.95-1.4-1.424-2.102-.86-1.274-1.748-2.59-2.646-3.872l-.024.04a.438.438 0 0 1-.036.053 2.738 2.738 0 0 1-.266.42zm-.684-.504c-.675.99-1.35 1.98-2.027 2.97l-4.265 6.246c-1.785 2.614-3.569 5.227-5.35 7.842L16.45 67.217 9.058 78.049l-2.35 3.442c-.648.949-1.296 1.9-1.946 2.846-.157.231-.318.46-.48.69-.302.427-.613.868-.887 1.317-.025.038-.046.067-.069.099-.12.174.024.293.07.324.104.071.303.112.424-.065l1.702-2.495c.599-.876 1.198-1.754 1.796-2.633 2.803-4.103 5.605-8.207 8.405-12.312l22.073-32.334c.241-.353.482-.704.72-1.057.038-.054.078-.107.118-.16l-.337-.495zm.41.102.105.154c.037-.05.071-.103.102-.154h-.206zm-.287-.283h.767l-.08-.112-.062-.087a.289.289 0 0 0-.488-.002l-.137.201z" fill="#1E2F4E"/>
        <path d="M177.003 74c0 5.023-2.71 9.41-6.75 11.779a13.55 13.55 0 0 1-6.907 1.876c-2.52 0-4.874-.681-6.902-1.876A13.635 13.635 0 0 1 149.693 74c0-7.543 6.11-13.654 13.653-13.654S177.003 66.458 177.003 74" fill="#F7C496"/>
        <path d="M163.346 87.993a13.95 13.95 0 0 1-7.074-1.922A14.045 14.045 0 0 1 149.354 74c0-7.715 6.277-13.992 13.992-13.992 7.717 0 13.996 6.277 13.996 13.992 0 4.943-2.652 9.568-6.918 12.07a13.966 13.966 0 0 1-7.078 1.922m0-27.308c-7.342 0-13.315 5.974-13.315 13.316 0 4.704 2.523 9.105 6.584 11.486a13.27 13.27 0 0 0 6.73 1.83c2.375 0 4.704-.633 6.736-1.83a13.367 13.367 0 0 0 6.584-11.486c0-7.342-5.975-13.316-13.32-13.316" fill="#1E2F4E"/>
        <path d="M163.346 88.134c-2.517 0-4.988-.671-7.145-1.942A14.185 14.185 0 0 1 149.213 74c0-7.792 6.34-14.132 14.133-14.132 7.795 0 14.136 6.34 14.136 14.132 0 4.994-2.677 9.666-6.987 12.192a14.103 14.103 0 0 1-7.15 1.942m0-27.984c-7.636 0-13.85 6.213-13.85 13.85 0 4.894 2.624 9.473 6.848 11.948a13.806 13.806 0 0 0 7.003 1.904 13.82 13.82 0 0 0 7.006-1.903A13.902 13.902 0 0 0 177.201 74c0-7.637-6.216-13.85-13.855-13.85m0 27.309c-2.396 0-4.749-.64-6.803-1.85A13.508 13.508 0 0 1 149.89 74c0-7.419 6.036-13.456 13.456-13.456 7.422 0 13.46 6.037 13.46 13.456a13.51 13.51 0 0 1-6.653 11.609 13.42 13.42 0 0 1-6.807 1.85m0-26.633c-7.264 0-13.174 5.91-13.174 13.174 0 4.655 2.495 9.009 6.514 11.365a13.123 13.123 0 0 0 6.66 1.811c2.348 0 4.653-.626 6.664-1.81A13.226 13.226 0 0 0 176.524 74c0-7.264-5.911-13.174-13.178-13.174" fill="#1E2F4E"/>
        <path d="M167.145 75.745c.565.512.85 1.188.85 2.036 0 1.09-.383 2.004-1.157 2.753-.77.749-1.752 1.133-2.936 1.162v-7.022c1.597.202 2.676.564 3.243 1.07M162.632 65.885v6.539c-.98-.087-1.825-.333-2.528-.74-.706-.408-1.058-1.152-1.058-2.232 0-.796.19-1.464.562-2.004.38-.54.817-.92 1.313-1.143a5.64 5.64 0 0 1 1.711-.42" fill="#F7C496"/>
        <path d="M166.304 79.493c-.644.622-1.46.942-2.448.967V74.61c1.33.169 2.229.47 2.701.891.475.428.71.992.71 1.7 0 .908-.32 1.669-.963 2.293zm-3.506-6.76c-.815-.07-1.518-.276-2.11-.615-.587-.34-.88-.96-.88-1.86 0-.663.16-1.22.472-1.67.317-.45.679-.765 1.094-.952.415-.18.886-.3 1.424-.351v5.448zm6.196 2.2c-.222-.419-.567-.774-1.023-1.059a5.086 5.086 0 0 0-1.614-.638c-.62-.139-1.456-.266-2.501-.387v-5.603c1.3.019 2.311.364 3.017 1.026.11.477.18 1.057.218 1.754l.101.085h.51l.104-.098.101-1.102c.031-.346.07-.619.105-.813.043-.193.092-.402.163-.62l-.05-.138c-.787-.446-2.208-.734-4.27-.873.023-.805.036-1.236.054-1.294l-.126-.095h-.912l-.125.095c.024.213.045.66.052 1.338-1.695.221-2.95.747-3.762 1.584-.812.831-1.22 1.78-1.22 2.84 0 .555.105 1.045.32 1.474.214.427.541.794.99 1.101.449.31.947.526 1.506.649.558.126 1.28.24 2.166.348v6.004c-.862 0-1.573-.114-2.128-.34a6.21 6.21 0 0 1-1.617-.986c-.024-.163-.05-.795-.078-1.888l-.101-.098h-.574l-.112.088c-.098 1.243-.214 2.252-.362 3.022l.105.16c1.443.54 3.06.819 4.867.847a56.826 56.826 0 0 1-.052 2.06l.125.096h.947l.119-.096c-.039-.32-.06-1.018-.081-2.099 1.312-.22 2.328-.534 3.056-.94a4.803 4.803 0 0 0 1.747-1.658 4.201 4.201 0 0 0 .666-2.305c0-.538-.11-1.02-.331-1.442z" fill="#1E2F4E"/>
        <path d="M163.868 83.613h-1.043l-.225-.17.006-.077c.016-.222.032-.865.049-1.913-1.763-.04-3.369-.326-4.773-.852l-.043-.016-.163-.246.011-.056c.14-.732.258-1.716.361-3.008l.005-.06.198-.157h.68l.184.178.002.058c.025 1.007.048 1.605.069 1.818.503.408 1.02.72 1.537.929.508.206 1.158.316 1.934.327v-5.736a21.525 21.525 0 0 1-2.056-.336 4.276 4.276 0 0 1-1.555-.67 3.068 3.068 0 0 1-1.036-1.154c-.223-.444-.335-.96-.335-1.536 0-1.096.424-2.084 1.26-2.94.809-.833 2.06-1.374 3.72-1.609a15.463 15.463 0 0 0-.049-1.198l-.009-.08.228-.172h1.004l.244.183-.029.095c-.014.067-.03.623-.044 1.12 2.033.146 3.406.435 4.195.883l.046.025.082.232-.015.045c-.07.218-.119.43-.158.608a8.6 8.6 0 0 0-.102.795l-.107 1.156-.183.173h-.617l-.188-.158-.003-.06c-.037-.68-.104-1.233-.205-1.688-.651-.595-1.575-.915-2.748-.956v5.333c1.017.12 1.8.243 2.391.375a5.23 5.23 0 0 1 1.658.657c.478.298.84.672 1.072 1.111.23.44.347.947.347 1.508 0 .865-.231 1.667-.688 2.381a4.962 4.962 0 0 1-1.797 1.705c-.715.4-1.718.714-2.98.936.02.987.04 1.66.076 1.964l.01.077-.218.176zm-.95-.283.87-.015c-.034-.354-.053-1.025-.074-2.035l-.001-.122.12-.02c1.287-.216 2.3-.527 3.01-.924a4.697 4.697 0 0 0 1.697-1.61 4.08 4.08 0 0 0 .644-2.23c0-.514-.107-.978-.315-1.376-.21-.395-.537-.733-.973-1.004a4.975 4.975 0 0 0-1.57-.62c-.604-.137-1.418-.262-2.487-.385l-.125-.014v-5.872l.143.002c1.333.02 2.38.378 3.113 1.064l.03.03.01.042c.106.465.178 1.027.218 1.716l.016.013h.402l.024-.022.097-1.05c.03-.322.066-.607.107-.826.038-.175.085-.38.151-.592l-.015-.042c-.768-.416-2.168-.695-4.164-.83l-.135-.01.003-.135c.021-.753.032-1.078.045-1.227l-.022-.016h-.818l-.025.018c.023.261.04.705.045 1.271l.002.125-.125.016c-1.657.217-2.895.736-3.679 1.544-.783.8-1.18 1.723-1.18 2.742 0 .539.1 1 .305 1.41.203.405.52.757.944 1.048.44.304.916.509 1.457.627.545.124 1.248.237 2.152.347l.124.014v6.27h-.14c-.876 0-1.61-.118-2.182-.35a6.39 6.39 0 0 1-1.654-1.009l-.042-.033-.008-.055c-.024-.162-.048-.733-.077-1.846l-.02-.019h-.467l-.025.019c-.1 1.24-.214 2.196-.35 2.92l.049.074c1.402.518 3.009.794 4.777.821l.14.003v.14a67.99 67.99 0 0 1-.05 1.993l.029.02zm.796-2.725v-6.156l.16.02c1.346.171 2.28.482 2.777.926.502.453.758 1.06.758 1.804 0 .941-.34 1.747-1.006 2.395h-.001c-.665.642-1.52.98-2.543 1.007l-.145.004zm.283-5.835v5.543c.896-.05 1.62-.352 2.21-.921.619-.603.92-1.32.92-2.193 0-.67-.218-1.192-.665-1.594-.433-.387-1.262-.668-2.465-.835zm-1.058-1.883-.154-.013c-.831-.072-1.56-.286-2.166-.634-.632-.363-.951-1.03-.951-1.982 0-.69.167-1.278.497-1.75.333-.475.71-.802 1.15-1 .438-.19.932-.313 1.47-.364l.154-.015v5.758zm-.282-5.445c-.449.055-.86.163-1.227.323-.393.177-.731.472-1.034.905-.297.423-.446.958-.446 1.588 0 .855.265 1.424.81 1.737.532.307 1.17.502 1.897.583v-5.136z" fill="#1E2F4E"/>
        <path fill="#F39F59" d="M38.393 34.502H162.98V32.55H38.393z"/>
        <path d="M38.393 34.502H162.98V32.55H38.393v1.952zm125.25-2.616H37.729v3.279h125.914V31.886z" fill="#1E2F4E"/>
        <path d="M37.588 35.306h126.196v-3.56H37.588v3.56zm.282-.283h125.632v-2.996H37.87v2.996zm.381-.38h124.87v-2.235H38.25v2.235zm.282-.283h124.305v-1.67H38.533v1.67z" fill="#1E2F4E"/>
        <path fill="#F39F59" d="M99.71 143.342h1.953v-120H99.71z"/>
        <path d="M99.71 142.1h1.953V23.258H99.71v118.84zm2.616-119.421H99.048v120H102.326v-120z" fill="#1E2F4E"/>
        <path d="M98.906 142.537h3.561v-120h-3.56v120zm.283-.246h2.996V22.783H99.19v119.508zm.38-.333h2.235V23.115H99.57v118.843zm.283-.246h1.67V23.362h-1.67v118.35z" fill="#1E2F4E"/>
        <path d="M104.256 23.043a3.57 3.57 0 1 1-7.14 0 3.57 3.57 0 0 1 7.14 0" fill="#F39F59"/>
        <path d="M100.686 26.945a3.907 3.907 0 0 1-3.901-3.902 3.906 3.906 0 0 1 3.901-3.902 3.906 3.906 0 0 1 3.902 3.902 3.907 3.907 0 0 1-3.902 3.902m0-7.141a3.242 3.242 0 0 0-3.238 3.239 3.242 3.242 0 0 0 3.238 3.239 3.242 3.242 0 0 0 3.239-3.24 3.243 3.243 0 0 0-3.239-3.238" fill="#1E2F4E"/>
        <path d="M100.686 27.086a4.048 4.048 0 0 1-4.042-4.044A4.047 4.047 0 0 1 100.686 19a4.047 4.047 0 0 1 4.043 4.042 4.048 4.048 0 0 1-4.043 4.044m0-7.804a3.764 3.764 0 0 0-3.76 3.76 3.765 3.765 0 0 0 3.76 3.762 3.765 3.765 0 0 0 3.76-3.762 3.764 3.764 0 0 0-3.76-3.76m0 7.14a3.384 3.384 0 0 1-3.379-3.38 3.383 3.383 0 0 1 3.38-3.379 3.383 3.383 0 0 1 3.379 3.38 3.384 3.384 0 0 1-3.38 3.38m0-6.478a3.1 3.1 0 0 0-3.096 3.097 3.1 3.1 0 0 0 3.096 3.098 3.1 3.1 0 0 0 3.097-3.098 3.1 3.1 0 0 0-3.097-3.097" fill="#1E2F4E"/>
        <path d="M99.561 128.015c-3.902 2.422-17.859 10.338-40.38 15.057-1.778.372-1.359 2.109.508 2.109h81.995c1.867 0 2.286-1.737.507-2.11-22.52-4.718-36.477-12.634-40.38-15.056-.633-.393-1.616-.393-2.25 0" fill="#F39F59"/>
        <path d="M100.687 127.72c.403 0 .807.098 1.125.295 3.902 2.422 17.859 10.339 40.379 15.057 1.779.372 1.36 2.109-.507 2.109H59.689c-1.867 0-2.286-1.737-.508-2.11 22.52-4.717 36.478-12.634 40.38-15.056.317-.197.722-.295 1.126-.295m0-.663c-.541 0-1.065.14-1.476.394-3.741 2.322-17.697 10.264-40.166 14.971-1.245.262-1.728 1.097-1.654 1.809.08.777.834 1.613 2.298 1.613h81.995c1.464 0 2.217-.836 2.298-1.613.074-.712-.409-1.547-1.654-1.809-22.469-4.707-36.425-12.649-40.166-14.97-.411-.255-.935-.395-1.475-.395" fill="#1E2F4E"/>
        <path d="M141.684 145.985H59.69c-1.552 0-2.352-.901-2.438-1.74-.08-.774.434-1.681 1.766-1.96 22.445-4.703 36.383-12.635 40.12-14.953.864-.537 2.233-.537 3.1 0 3.735 2.318 17.672 10.25 40.12 14.953 1.33.279 1.846 1.186 1.766 1.96-.087.839-.887 1.74-2.439 1.74m-40.997-18.787c-.516 0-1.013.132-1.4.373-3.748 2.325-17.723 10.277-40.213 14.99-1.159.242-1.61 1.006-1.543 1.656.074.715.78 1.485 2.158 1.485h81.995c1.377 0 2.084-.77 2.158-1.485.067-.65-.384-1.414-1.544-1.656-22.492-4.713-36.464-12.665-40.21-14.99-.389-.24-.886-.373-1.401-.373m40.997 18.124H59.69c-1.14 0-1.722-.595-1.779-1.146-.046-.443.252-1.035 1.243-1.243 22.555-4.725 36.574-12.705 40.334-15.038.656-.406 1.742-.407 2.4 0 3.758 2.333 17.778 10.313 40.334 15.038.99.208 1.288.8 1.242 1.243-.057.552-.638 1.146-1.779 1.146m-40.997-17.46c-.394 0-.767.096-1.051.273-3.77 2.34-17.826 10.34-40.426 15.074-.664.14-1.064.508-1.02.938.047.444.576.892 1.5.892h81.994c.923 0 1.452-.448 1.498-.892.045-.43-.355-.798-1.02-.938-22.6-4.734-36.655-12.735-40.424-15.074-.285-.177-.658-.273-1.051-.273" fill="#1E2F4E"/>
        <path d="M38.613 88.03c19.208 0 34.78-.631 34.78-1.41 0-.778-15.572-1.41-34.78-1.41-19.209 0-34.78.632-34.78 1.41 0 .779 15.571 1.41 34.78 1.41" fill="#9F9FA0"/>
        <path d="M38.613 88.362c-9.296 0-18.035-.147-24.607-.413C3.5 87.523 3.5 87.043 3.5 86.62c0-.423 0-.902 10.505-1.328 6.574-.266 15.313-.414 24.607-.414 9.293 0 18.032.148 24.606.414 10.505.426 10.505.905 10.505 1.328 0 .423 0 .903-10.505 1.329-6.572.266-15.31.413-24.606.413M4.754 86.62c3.078.55 15.772 1.079 33.859 1.079 18.086 0 30.78-.53 33.858-1.079-3.077-.549-15.771-1.078-33.858-1.078-18.088 0-30.782.529-33.859 1.078" fill="#1E2F4E"/>
        <path d="M38.613 88.503c-9.307 0-18.048-.147-24.613-.413-10.64-.431-10.64-.913-10.64-1.47 0-.557 0-1.037 10.64-1.47 6.583-.266 15.324-.413 24.613-.413 9.288 0 18.03.147 24.612.413 10.64.433 10.64.913 10.64 1.47 0 .557 0 1.039-10.64 1.47-6.565.266-15.306.413-24.612.413m0-3.483c-9.286 0-18.022.146-24.601.413-9.569.388-10.37.816-10.37 1.187 0 .371.801.8 10.37 1.187 6.56.268 15.298.413 24.6.413 9.304 0 18.04-.145 24.602-.413 9.568-.387 10.369-.816 10.369-1.187 0-.37-.801-.8-10.37-1.187-6.579-.267-15.315-.413-24.6-.413m0 2.82c-18.27 0-30.874-.544-33.883-1.081l-.778-.139.778-.139c3.008-.536 15.612-1.08 33.883-1.08 18.27 0 30.874.544 33.882 1.08l.778.14-.778.138c-3.009.537-15.613 1.08-33.882 1.08M5.772 86.62c4.227.486 16.17.937 32.84.937 16.671 0 28.614-.451 32.841-.937-4.227-.485-16.168-.937-32.84-.937-16.673 0-28.615.452-32.841.937" fill="#1E2F4E"/>
        <path d="M38.788 60.34c7.394 0 13.385 5.996 13.385 13.386 0 4.928-2.66 9.23-6.621 11.551a13.307 13.307 0 0 1-6.764 1.833 13.27 13.27 0 0 1-6.755-1.833c-3.967-2.322-6.63-6.623-6.63-11.55 0-7.39 5.996-13.387 13.385-13.387m.694 12.699a.975.975 0 1 0-1.387 1.375.975.975 0 0 0 1.387-1.375" fill="#FEFEFE"/>
        <path d="M38.788 87.442c-2.442 0-4.836-.65-6.923-1.88a13.767 13.767 0 0 1-6.793-11.836c0-7.564 6.153-13.718 13.716-13.718s13.717 6.154 13.717 13.718c0 4.848-2.6 9.384-6.785 11.837a13.7 13.7 0 0 1-6.932 1.879m0-26.77c-7.197 0-13.052 5.856-13.052 13.054 0 4.614 2.477 8.93 6.465 11.265a12.984 12.984 0 0 0 6.587 1.788c2.322 0 4.603-.619 6.596-1.788a13.108 13.108 0 0 0 6.457-11.265c0-7.198-5.855-13.054-13.053-13.054m0 14.362a1.308 1.308 0 1 1 .929-2.23l.002.003a1.308 1.308 0 0 1-.93 2.227m0-1.951a.644.644 0 1 0 0 1.287.644.644 0 0 0 0-1.287" fill="#1E2F4E"/>
        <path d="M38.788 87.583c-2.468 0-4.887-.656-6.995-1.899a13.91 13.91 0 0 1-6.862-11.958c0-7.642 6.216-13.859 13.857-13.859 7.64 0 13.857 6.217 13.857 13.86 0 4.897-2.626 9.479-6.854 11.958a13.845 13.845 0 0 1-7.003 1.898m0-27.433c-7.485 0-13.575 6.09-13.575 13.576 0 4.799 2.576 9.288 6.724 11.715a13.497 13.497 0 0 0 6.851 1.86c2.416 0 4.788-.642 6.86-1.86a13.633 13.633 0 0 0 6.715-11.715c0-7.487-6.09-13.576-13.575-13.576m0 26.77c-2.35 0-4.652-.625-6.658-1.808a13.242 13.242 0 0 1-6.536-11.386c0-7.276 5.92-13.196 13.194-13.196 7.275 0 13.194 5.92 13.194 13.196 0 4.664-2.5 9.026-6.527 11.386a13.17 13.17 0 0 1-6.667 1.808m0-26.107c-7.12 0-12.912 5.792-12.912 12.913a12.96 12.96 0 0 0 6.396 11.143 12.839 12.839 0 0 0 6.516 1.768c2.297 0 4.553-.611 6.525-1.768A12.964 12.964 0 0 0 51.7 73.726c0-7.12-5.792-12.913-12.912-12.913m0 14.362a1.45 1.45 0 1 1 1.448-1.448c0 .45-.215.883-.578 1.156-.245.19-.547.292-.87.292m0-2.614a1.167 1.167 0 0 0 0 2.331c.26 0 .502-.08.699-.233a1.168 1.168 0 0 0 .131-1.754 1.18 1.18 0 0 0-.83-.344m0 1.95a.786.786 0 1 1 .786-.785c0 .245-.12.48-.319.63a.748.748 0 0 1-.467.156m0-1.288a.503.503 0 1 0 .296.908.513.513 0 0 0 .208-.406.508.508 0 0 0-.147-.356.511.511 0 0 0-.357-.146" fill="#1E2F4E"/>
        <path d="M39.482 73.039a.975.975 0 0 1-.108 1.466.94.94 0 0 1-.586.197.977.977 0 0 1 0-1.951c.269 0 .518.112.694.288" fill="#FEFEFE"/>
        <path d="M39.216 63.354v-1.427c0-.22-.19-.427-.417-.417a.422.422 0 0 0-.416.417v1.427c0 .22.192.428.416.42a.426.426 0 0 0 .417-.42" fill="#1E2F4E"/>
        <path d="M38.787 63.914a.526.526 0 0 1-.367-.153.57.57 0 0 1-.178-.407v-1.427a.56.56 0 0 1 .55-.558.55.55 0 0 1 .386.15c.114.108.18.257.18.408v1.427a.564.564 0 0 1-.551.56h-.02m.029-2.263h-.01c-.161.007-.282.125-.282.276v1.427c0 .073.034.149.092.204.051.05.117.093.178.074.16-.008.281-.128.281-.278v-1.427a.294.294 0 0 0-.091-.205.247.247 0 0 0-.168-.071M28.427 73.31H27c-.216 0-.426.19-.416.417.01.227.182.418.416.418h1.428c.217 0 .428-.19.417-.418a.423.423 0 0 0-.417-.418" fill="#1E2F4E"/>
        <path d="M28.427 74.286H27a.567.567 0 0 1-.557-.553.52.52 0 0 1 .15-.385.567.567 0 0 1 .407-.18h1.428c.3 0 .545.244.557.553a.524.524 0 0 1-.148.386.574.574 0 0 1-.409.18zM27 73.451a.29.29 0 0 0-.203.092.24.24 0 0 0-.072.177c.007.162.125.284.275.284h1.428c.072 0 .15-.035.204-.092a.242.242 0 0 0 .071-.178c-.006-.162-.124-.283-.275-.283H27zM38.382 84.1v1.425c0 .22.193.43.417.419a.424.424 0 0 0 .417-.419V84.1c0-.219-.19-.427-.417-.42a.424.424 0 0 0-.417.42" fill="#1E2F4E"/>
        <path d="M38.783 86.085a.518.518 0 0 1-.361-.15.571.571 0 0 1-.18-.41V84.1c0-.305.236-.545.55-.56a.504.504 0 0 1 .388.153.57.57 0 0 1 .177.407v1.425c0 .3-.242.546-.552.56h-.022m.029-2.263h-.008c-.16.007-.28.126-.28.278v1.425c0 .073.034.15.092.206a.26.26 0 0 0 .177.072c.16-.007.282-.126.282-.278V84.1a.293.293 0 0 0-.09-.204.25.25 0 0 0-.173-.074M49.17 74.145h1.428c.22 0 .428-.19.417-.418a.423.423 0 0 0-.417-.418H49.17c-.216 0-.426.191-.416.418.01.227.182.418.416.418" fill="#1E2F4E"/>
        <path d="M50.598 74.286H49.17a.567.567 0 0 1-.557-.553.52.52 0 0 1 .15-.385.567.567 0 0 1 .407-.18h1.428c.3 0 .545.244.557.553a.52.52 0 0 1-.148.386.568.568 0 0 1-.409.18zm-1.428-.835a.29.29 0 0 0-.203.092.24.24 0 0 0-.072.177c.007.162.125.284.275.284h1.428c.073 0 .15-.035.204-.091a.244.244 0 0 0 .071-.18c-.006-.16-.124-.282-.275-.282H49.17zM39.357 73.726c-.002.028-.002.056-.002.081-.004.076-.004-.025.002-.031-.016.014-.02.102-.03.127-.004.016-.028.06-.025.075-.003-.011.045-.092.01-.03-.027.044-.052.089-.08.131-.044.071.053-.05.012-.015-.014.014-.028.033-.042.046-.014.012-.023.025-.037.037a.867.867 0 0 0 .007-.002c-.032.008-.076.053-.108.07-.014.01-.03.016-.044.025-.07.04.093-.028-.008.002a.949.949 0 0 1-.124.035c-.072.014-.017-.02.021 0-.014-.006-.054.004-.068.006-.046.002-.09-.004-.134-.006-.063 0 .106.023.016.002l-.076-.017a1.023 1.023 0 0 1-.072-.024c-.055-.018.014-.014.028.012-.011-.019-.09-.047-.114-.06-.018-.01-.034-.026-.052-.037-.047-.027.075.071.013.011a.578.578 0 0 0-.102-.109c.024.004.048.07.016.024l-.041-.065-.024-.044-.01-.023c-.021-.04-.017-.03.01.03.003-.03-.034-.092-.041-.123l-.01-.052c-.02-.082.006.101 0-.007-.004-.04-.004-.08-.004-.122.003-.043.03-.095-.003.005.006-.015.006-.036.01-.051.01-.044.023-.085.037-.126.028-.087-.044.084 0 .006.011-.022.021-.046.035-.069.011-.017.025-.035.034-.053.04-.063.025.009-.01.014.015-.002.073-.08.087-.092.013-.014.072-.042.016-.017-.06.031.007-.003.018-.012.024-.017.128-.053.135-.074-.004.005-.1.034-.028.012l.072-.024.052-.012c.013-.004.096-.012.022-.007-.077.005.012 0 .023 0 .023-.002.048-.002.069-.002.024 0 .044.002.068.003.09.002-.086-.02-.006 0 .052.013.1.027.151.042.083.026-.062-.04-.016-.007.024.016.05.028.079.042.014.008.028.018.041.027l.042.03c-.049-.04-.06-.046-.025-.018.027.03.058.059.09.09.062.064-.051-.08-.004-.005l.041.063c.014.023.025.047.039.07.038.066-.028-.088-.004-.007.018.052.032.1.046.151.012.054-.026.001-.004-.033-.01.018.004.087.006.107 0 .22.19.43.417.419.225-.01.421-.185.417-.419a1.415 1.415 0 0 0-.93-1.31 1.385 1.385 0 0 0-1.513.402c-.376.457-.455 1.101-.145 1.618.307.517.9.757 1.482.654.645-.118 1.099-.726 1.106-1.364.004-.219-.192-.427-.417-.417a.422.422 0 0 0-.417.417" fill="#1E2F4E"/>
        <path d="M38.817 75.255a1.536 1.536 0 0 1-1.335-.747c-.33-.55-.267-1.265.158-1.78a1.523 1.523 0 0 1 1.67-.445c.603.227 1 .777 1.021 1.408V73.766c-.025.713-.544 1.339-1.22 1.463a1.707 1.707 0 0 1-.294.026zm-.008-2.779c-.36 0-.727.157-.952.43-.349.425-.402 1.01-.133 1.457.269.453.793.685 1.336.589.38-.07.7-.338.866-.69a.651.651 0 0 1-.145.023.494.494 0 0 1-.382-.147l-.137.115-.041.033-.005.004.007.023-.141.062a.233.233 0 0 1-.08.018.833.833 0 0 1-.088.023l-.045.008-.004.02-.152-.018a.274.274 0 0 1-.083-.023l-.018-.004c-.032-.01-.058-.018-.084-.028l-.027-.009-.012.015-.077-.057-.018.2-.222-.484a.454.454 0 0 1-.023-.053l-.021.002-.025-.156a.23.23 0 0 1 0-.08v-.076a.382.382 0 0 1 .007-.055c0-.01.003-.02.005-.03a.687.687 0 0 1 .019-.069.272.272 0 0 1 .022-.084l.055-.123.022.005.05-.079-.001-.019.078-.042.02-.012-.01-.03.136-.046.003.008-.002-.008.011-.004.024-.028v-.014l.014-.002.386-.45-.134.427.129.014.01-.016.15.069.01-.01.122.098.019-.013.118.145.016-.006.01.022a.587.587 0 0 1 .377-.153.442.442 0 0 1 .152.018 1.292 1.292 0 0 0-.71-.639 1.145 1.145 0 0 0-.402-.07zm-.297 1.879c.026.019.055.014.07.01a.127.127 0 0 1-.028-.059l-.042.049zm.223-.217h.022c.01.002.022.002.033.003l.038-.037.074.025c.021-.006.04-.012.058-.02h.003l.02-.009.038-.026a.467.467 0 0 1 .06-.043l.044-.045c.01-.018.022-.035.031-.053l.04-.096-.018-.038.037-.054v-.012l-.039-.042.025-.066a2.613 2.613 0 0 0-.022-.068l-.01-.018.003-.003-.022-.043-.007.003-.016-.026a2.56 2.56 0 0 1-.074-.074l-.048-.03a.565.565 0 0 1-.045-.023l-.147-.03c-.018 0-.037-.002-.055 0l-.09.021c-.026.018-.056.031-.087.045l-.043.027-.022.025-.006.058-.065.022-.02.036a.365.365 0 0 1-.01.016 1.76 1.76 0 0 0-.017.057.247.247 0 0 1-.012.068.925.925 0 0 0 .001.096v.002l.017.057a.417.417 0 0 1 .03.081l.042.006.02.069c.015.016.032.035.05.059l.035.02.048-.012.059.062.043.008.004.002zm.884-.182c.045.033.095.05.149.048.134-.006.27-.101.281-.252v-.046a.282.282 0 0 0-.087-.18c-.052-.052-.121-.091-.181-.076a.286.286 0 0 0-.276.216l.016.057-.022.017a.284.284 0 0 0 .054.148l.222-.063-.156.131z" fill="#1E2F4E"/>
        <path d="M39.785 73.333c1.544-1.545 3.092-3.091 4.636-4.638.221-.219.441-.44.661-.66.38-.38-.21-.972-.592-.59l-4.637 4.637-.662.662c-.378.38.211.97.594.589" fill="#1E2F4E"/>
        <path d="M39.506 73.598a.58.58 0 0 1-.404-.175c-.195-.195-.262-.525-.01-.778l5.298-5.3c.256-.253.586-.186.782.01.196.196.262.527.01.78l-.11.11-.552.55-4.636 4.638a.528.528 0 0 1-.378.165m5.264-6.136a.253.253 0 0 0-.18.082l-5.3 5.3c-.135.136-.078.29.011.38.09.09.246.147.384.01l4.636-4.639c.185-.182.368-.367.551-.55l.11-.11c.137-.136.08-.292-.01-.381a.292.292 0 0 0-.202-.092M39.026 74.716c.72.958 1.445 1.917 2.17 2.875l.305.41c.138.179.363.274.572.149.18-.103.287-.391.152-.572-.724-.958-1.447-1.916-2.168-2.875l-.31-.41c-.135-.179-.362-.272-.573-.15-.175.104-.286.391-.148.573" fill="#1E2F4E"/>
        <path d="M41.874 78.348a.621.621 0 0 1-.484-.261l-.386-.516c-.698-.924-1.396-1.847-2.09-2.77a.474.474 0 0 1-.081-.384.604.604 0 0 1 .269-.395c.255-.146.565-.069.757.187l.31.41 2.168 2.875c.08.106.108.245.078.39a.594.594 0 0 1-.272.388.521.521 0 0 1-.27.076m-2.5-4.12a.255.255 0 0 0-.128.037.317.317 0 0 0-.135.206.2.2 0 0 0 .029.16c.694.923 1.392 1.847 2.09 2.77l.385.516c.087.112.234.202.387.112a.318.318 0 0 0 .138-.203c.008-.037.015-.107-.027-.163-.724-.959-1.447-1.917-2.168-2.875l-.31-.41c-.058-.078-.153-.15-.26-.15" fill="#1E2F4E"/>
        <path d="M12.436 84.852a6.044 6.044 0 1 1 12.087.002 6.044 6.044 0 0 1-12.087-.002m5.733-.313a.44.44 0 1 0 .621.626.44.44 0 0 0-.62-.626" fill="#FEFEFE"/>
        <path d="M18.48 91.226a6.382 6.382 0 0 1-6.376-6.374 6.382 6.382 0 0 1 6.376-6.375 6.4 6.4 0 0 1 5.5 3.153 6.374 6.374 0 0 1 0 6.44 6.396 6.396 0 0 1-5.5 3.156m0-12.086a5.719 5.719 0 0 0-5.713 5.712 5.718 5.718 0 0 0 5.713 5.711 5.731 5.731 0 0 0 4.928-2.828 5.717 5.717 0 0 0 0-5.769 5.734 5.734 0 0 0-4.928-2.826m0 6.484a.773.773 0 0 1-.545-1.32l.003-.002a.794.794 0 0 1 1.159.086.773.773 0 0 1-.617 1.236m-.078-.849a.116.116 0 0 0-.031.077c0 .12.218.12.218 0l-.023-.066c-.042-.058-.132-.041-.164-.01" fill="#1E2F4E"/>
        <path d="M18.48 91.368a6.524 6.524 0 0 1-6.517-6.516 6.524 6.524 0 0 1 6.517-6.515 6.542 6.542 0 0 1 5.623 3.222 6.52 6.52 0 0 1-.001 6.583 6.537 6.537 0 0 1-5.622 3.226zm0-12.75a6.241 6.241 0 0 0-6.235 6.234 6.24 6.24 0 0 0 6.235 6.233A6.254 6.254 0 0 0 23.859 88a6.228 6.228 0 0 0 0-6.297 6.256 6.256 0 0 0-5.38-3.084zm0 12.086a5.86 5.86 0 0 1-5.854-5.852A5.86 5.86 0 0 1 18.48 79a5.875 5.875 0 0 1 5.05 2.895 5.847 5.847 0 0 1 0 5.911 5.872 5.872 0 0 1-5.05 2.898zm0-11.422a5.578 5.578 0 0 0-5.572 5.57c0 3.071 2.5 5.57 5.572 5.57a5.589 5.589 0 0 0 4.807-2.758 5.567 5.567 0 0 0-4.807-8.382zm0 6.483a.914.914 0 0 1-.645-1.56.91.91 0 0 1 .714-.252c.267.02.508.148.66.35a.915.915 0 0 1-.73 1.462zm-.006-1.533a.623.623 0 0 0-.437.17.632.632 0 1 0 1.074.45c0-.14-.044-.27-.126-.378a.628.628 0 0 0-.511-.242zm.006.85a.267.267 0 0 1-.159-.049.221.221 0 0 1-.09-.18.25.25 0 0 1 .07-.175l.004-.004a.263.263 0 0 1 .202-.066c.07.005.132.04.172.094l.02.038.03.112c0 .132-.107.23-.25.23z" fill="#1E2F4E"/>
        <path d="M18.16 84.53a.454.454 0 1 1 .637.645.454.454 0 0 1-.637-.645" fill="#FEFEFE"/>
        <path d="M13.66 84.653H12.995c-.101 0-.198.088-.194.194a.196.196 0 0 0 .194.193H13.66c.102 0 .2-.09.195-.193-.006-.106-.086-.194-.195-.194" fill="#1E2F4E"/>
        <path d="M13.66 85.512h-.664c-.18 0-.327-.216-.334-.491a.617.617 0 0 1 .09-.35c.065-.1.153-.16.244-.16h.663c.18 0 .325.21.336.489a.626.626 0 0 1-.091.353c-.065.1-.154.159-.245.159zm-.664-.578c-.013 0-.029.01-.04.027-.011.083.006.129.04.129h.663c.014 0 .03-.01.04-.029.013-.082-.006-.127-.04-.127h-.663zM18.286 89.667V90.331c0 .1.089.198.194.194.106-.005.195-.086.195-.194V89.667c0-.1-.09-.199-.195-.193a.197.197 0 0 0-.194.193" fill="#1E2F4E"/>
        <path d="M18.635 90.666a.614.614 0 0 1-.33-.091c-.102-.065-.16-.154-.16-.244v-.664c0-.179.216-.326.49-.334a.544.544 0 0 1 .35.09c.102.065.16.154.16.244v.664c0 .18-.216.326-.49.335h-.02m.015-1.042c-.056 0-.085.018-.085.043v.664c0 .01.01.027.03.04.082.012.13-.007.13-.04v-.664c0-.012-.012-.029-.029-.04a.424.424 0 0 0-.046-.003M23.3 85.04H23.965c.101 0 .198-.089.194-.193a.197.197 0 0 0-.194-.194H23.3c-.102 0-.198.089-.195.194a.198.198 0 0 0 .195.194" fill="#1E2F4E"/>
        <path d="M23.963 85.512h-.662c-.18 0-.326-.215-.336-.49a.63.63 0 0 1 .093-.354c.065-.099.153-.156.243-.156h.662c.18 0 .327.216.335.49a.616.616 0 0 1-.09.35c-.065.101-.154.16-.245.16zm-.662-.578c-.013 0-.03.01-.04.028-.013.083.007.128.04.128h.662c.014 0 .03-.01.04-.029.013-.083-.006-.127-.04-.127h-.662zM18.675 80.027V79.363c0-.102-.09-.198-.195-.193a.198.198 0 0 0-.194.193V80.027c0 .1.089.198.194.194.106-.006.195-.085.195-.194" fill="#1E2F4E"/>
        <path d="M18.636 80.362a.615.615 0 0 1-.332-.091c-.1-.065-.159-.154-.159-.244v-.664c0-.179.215-.325.49-.335a.553.553 0 0 1 .352.091c.1.065.158.154.158.244v.664c0 .18-.21.324-.489.335h-.02m.014-1.042c-.055 0-.085.018-.085.043v.664c0 .013.012.029.03.04.084.013.13-.007.13-.04v-.664c0-.013-.011-.029-.03-.04a.285.285 0 0 0-.045-.003M18.48 84.588a.366.366 0 0 0 .038 0c.035.003-.012.003-.015 0 .007.007.047.009.06.014.006.002.026.013.034.011-.005.002-.043-.02-.014-.005l.06.037c.034.02-.022-.024-.006-.005l.021.02c.006.006.012.01.017.017l.008.008-.009-.011c.004.014.025.035.033.05l.012.02c.018.033-.013-.042 0 .004.007.02.013.039.017.058.006.033-.01.007 0-.01-.003.006.002.025.003.032l-.003.062c0 .03.01-.05.001-.008l-.008.036a.651.651 0 0 1-.011.033c-.009.026-.007-.006.005-.013-.008.005-.022.042-.028.053-.004.008-.012.016-.017.024-.012.022.033-.035.005-.006a.272.272 0 0 0-.05.048c.001-.011.033-.023.01-.008l-.03.02-.02.01-.01.005c-.019.01-.014.008.014-.005-.014-.001-.044.017-.058.02l-.024.005c-.038.009.047-.004-.003 0h-.057c-.02 0-.044-.013.002.002l-.024-.004a.59.59 0 0 1-.058-.018c-.04-.012.04.02.003 0l-.032-.016c-.008-.005-.016-.011-.025-.015-.029-.019.004-.012.006.004 0-.006-.036-.034-.042-.04-.006-.007-.02-.033-.008-.008.014.028-.001-.003-.005-.008-.008-.011-.025-.06-.035-.063.002.002.016.047.005.013-.003-.01-.008-.022-.01-.033l-.006-.025c-.001-.006-.006-.044-.003-.01.002.036 0-.005 0-.01l-.001-.033.001-.03c.002-.043-.01.039 0 .002l.02-.07c.012-.039-.018.029-.004.007.008-.01.013-.023.02-.037l.013-.019.013-.02a.169.169 0 0 0-.008.012.62.62 0 0 0 .042-.042c.03-.028-.037.024-.003.002a.39.39 0 0 0 .03-.019c.01-.007.022-.011.032-.018.032-.017-.04.013-.003.002a.708.708 0 0 1 .07-.021c.025-.006.001.011-.015.002.008.004.04-.002.05-.003.101 0 .2-.089.194-.194-.004-.104-.085-.196-.194-.194a.645.645 0 1 0 .33 1.202.656.656 0 0 0 .303-.688c-.054-.3-.337-.51-.633-.514-.102-.002-.198.09-.194.194a.196.196 0 0 0 .194.194" fill="#1E2F4E"/>
        <path d="M18.487 85.632a.822.822 0 0 1-.519-.187.79.79 0 0 1-.244-.82l-.009-.009.01.004.013-.037a.797.797 0 0 1 .721-.523h.045a.792.792 0 0 1 .748.629.795.795 0 0 1-.37.835.757.757 0 0 1-.395.108zm-.512-.756c.008.134.07.267.172.351.172.141.41.164.59.055a.5.5 0 0 0 .188-.2l-.177.083-.023.03-.022-.01-.022.011.003.026-.091.014-.062.029-.013-.017-.065.026-.027-.012-.021.004-.018-.02-.073-.032-.123-.054.002-.006-.01-.021-.025.009-.033-.097-.032.002-.004-.057-.114-.114zm.897.087.095.01a.554.554 0 0 0 .007-.235.473.473 0 0 0-.164-.275.32.32 0 0 1-.04.1l.023-.008.048.07-.01.015.004.008v.003l.061.102-.003.032.01.022-.016.03.01.043-.016.014-.01.07zm-.425-.008.028.009h.016l.016-.006.005-.032.046-.01-.006-.028.03-.022-.02-.02.021-.05-.018-.028-.036.01-.017-.024-.023.01-.005-.004-.005.005-.051-.022a.257.257 0 0 0-.022.013c-.008.008-.018.019-.03.029l.003.002-.007.015-.008.069.018.036.056.006.01.042zm-.454-.246.09.03.006-.01.009-.072.03-.011-.015-.022.063-.07.015.005a.358.358 0 0 1-.037-.095.538.538 0 0 0-.152.218l-.009.027zm.458-.274.006.006.007-.002-.022-.08h-.001c-.007.03-.005.052.003.067l.007.01z" fill="#1E2F4E"/>
        <path d="M18.297 84.389c-.718-.718-1.436-1.437-2.155-2.154l-.307-.308c-.177-.177-.451.097-.275.276.719.717 1.437 1.436 2.155 2.155l.308.307c.177.175.451-.098.274-.276" fill="#1E2F4E"/>
        <path d="M18.154 84.862a.323.323 0 0 1-.23-.097l-2.464-2.462a.326.326 0 0 1 .006-.472.325.325 0 0 1 .47-.004l2.461 2.462a.326.326 0 0 1-.005.47.34.34 0 0 1-.238.103m-2.45-2.85c-.01 0-.023.004-.039.019-.039.038-.013.064-.004.073l2.462 2.461c.007.007.032.033.07-.005.038-.038.012-.063.004-.071l-2.46-2.462c-.006-.005-.017-.016-.033-.016M18.94 84.741c.445-.335.89-.67 1.336-1.008l.19-.142c.083-.064.128-.168.07-.266-.048-.083-.182-.133-.266-.07l-1.336 1.008-.19.143c-.084.063-.127.169-.07.266.048.082.181.134.266.07" fill="#1E2F4E"/>
        <path d="M18.85 84.912a.354.354 0 0 1-.298-.168c-.089-.151-.044-.337.107-.45l.19-.144 1.336-1.009a.299.299 0 0 1 .24-.049.35.35 0 0 1 .233.163c.088.15.046.33-.105.448l-.192.143c-.445.337-.89.672-1.336 1.007a.284.284 0 0 1-.175.059m1.509-1.545-.006.001c-.443.336-.889.672-1.335 1.007l-.19.144c-.013.01-.054.046-.032.082.01.018.047.027.059.028l1.336-1.008.192-.143c.014-.011.052-.046.031-.08-.01-.019-.04-.031-.055-.031" fill="#1E2F4E"/>
        <path d="M54.256 90.125a7.856 7.856 0 1 1 10.916-11.302 7.856 7.856 0 0 1-10.916 11.302m4.885-5.644a.573.573 0 1 0 1.146-.016.573.573 0 0 0-1.146.016" fill="#FEFEFE"/>
        <path d="M59.71 92.76a8.226 8.226 0 0 1-5.753-2.325 8.232 8.232 0 0 1-2.529-5.817 8.234 8.234 0 0 1 2.326-5.901 8.32 8.32 0 0 1 7.916-2.297 8.287 8.287 0 0 1 6.021 5.815 8.316 8.316 0 0 1-2.015 7.995 8.236 8.236 0 0 1-5.817 2.528l-.15.001m.02-15.709a7.456 7.456 0 0 0-5.355 2.265 7.38 7.38 0 0 0-2.083 5.287 7.378 7.378 0 0 0 2.265 5.213c1.426 1.377 3.311 2.148 5.287 2.08a7.372 7.372 0 0 0 5.212-2.264 7.449 7.449 0 0 0 1.805-7.163 7.416 7.416 0 0 0-7.132-5.417m-.015 8.425a1.002 1.002 0 0 1-1.003-.988v-.005a1.001 1.001 0 0 1 1.127-1.005c.21.022.412.116.575.273a.996.996 0 0 1 .306.704.998.998 0 0 1-1.005 1.02m-.14-1a.147.147 0 0 0 .044.1.141.141 0 0 0 .196-.203.12.12 0 0 0-.072-.037c-.053-.004-.099.009-.128.04a.142.142 0 0 0-.04.1" fill="#1E2F4E"/>
        <path d="M59.71 92.9a8.384 8.384 0 0 1-5.85-2.363 8.371 8.371 0 0 1-2.572-5.917 8.37 8.37 0 0 1 2.364-6 8.471 8.471 0 0 1 8.051-2.338 8.439 8.439 0 0 1 3.865 2.128 8.398 8.398 0 0 1 2.26 3.788 8.457 8.457 0 0 1-2.05 8.13 8.375 8.375 0 0 1-5.917 2.571c-.05.002-.1.002-.152.002m.022-16.571c-2.188 0-4.327.88-5.876 2.485a8.094 8.094 0 0 0-2.285 5.8 8.088 8.088 0 0 0 2.485 5.718 8.098 8.098 0 0 0 5.654 2.285c.05.002.097 0 .146-.001a8.092 8.092 0 0 0 5.72-2.485 8.173 8.173 0 0 0 1.98-7.858 8.14 8.14 0 0 0-5.918-5.717 8.113 8.113 0 0 0-1.906-.227m-.13 15.711c-1.9 0-3.718-.75-5.143-2.125a7.513 7.513 0 0 1-2.308-5.31 7.519 7.519 0 0 1 2.122-5.388 7.62 7.62 0 0 1 5.457-2.308 7.542 7.542 0 0 1 7.267 5.52 7.592 7.592 0 0 1-1.84 7.3 7.513 7.513 0 0 1-5.31 2.307 7.529 7.529 0 0 1-.245.004m.128-14.849c-1.976 0-3.89.81-5.254 2.221a7.242 7.242 0 0 0-2.044 5.187 7.236 7.236 0 0 0 2.223 5.113c1.371 1.325 3.121 2.046 4.95 2.046.078 0 .157-.001.235-.004a7.237 7.237 0 0 0 5.115-2.222 7.312 7.312 0 0 0 1.771-7.028 7.242 7.242 0 0 0-1.951-3.27 7.268 7.268 0 0 0-5.045-2.043m-.016 8.425a1.14 1.14 0 0 1-.793-.32 1.148 1.148 0 0 1-.029-1.62c.244-.254.604-.38.962-.34.244.026.471.134.656.312.22.213.344.498.35.804.004.307-.11.595-.322.815-.217.225-.51.35-.824.35m.006-2.006a.865.865 0 0 0-.869.87c.005.232.101.453.265.612.331.319.9.308 1.22-.023a.863.863 0 0 0-.615-1.46m-.007 1.144a.277.277 0 0 1-.195-.079.288.288 0 0 1-.087-.195v-.008a.285.285 0 0 1 .08-.198.293.293 0 0 1 .238-.081.267.267 0 0 1 .162.076.285.285 0 0 1 .007.399.284.284 0 0 1-.205.086" fill="#1E2F4E"/>
        <path d="M59.124 84.48a.589.589 0 1 1 0 0" fill="#FEFEFE"/>
        <path d="m55.175 88.801-.524.544-.075.077c-.092.095-.097.265.007.356a.254.254 0 0 0 .355-.006l.525-.543.074-.077c.093-.096.096-.268-.005-.358a.257.257 0 0 0-.357.007" fill="#1E2F4E"/>
        <path d="M54.761 89.987a.41.41 0 0 1-.271-.104.37.37 0 0 1-.125-.266.402.402 0 0 1 .11-.294l.599-.619a.398.398 0 0 1 .55-.016c.076.067.12.162.124.267a.4.4 0 0 1-.11.294l-.598.62a.382.382 0 0 1-.279.118m.592-1.12a.1.1 0 0 0-.076.032l-.6.62a.119.119 0 0 0-.03.086c0 .016.005.046.03.067.044.039.112.052.16.002l.598-.62a.121.121 0 0 0 .031-.087.097.097 0 0 0-.028-.067.133.133 0 0 0-.085-.033M64.042 89.003a384.318 384.318 0 0 0 .621.6c.094.09.265.095.356-.007.091-.104.096-.259-.006-.357l-.544-.525-.076-.075c-.095-.09-.266-.096-.357.008a.256.256 0 0 0 .006.356" fill="#1E2F4E"/>
        <path d="M64.841 89.812a.4.4 0 0 1-.276-.109l-.621-.599a.398.398 0 0 1-.013-.55.37.37 0 0 1 .266-.125.405.405 0 0 1 .294.109l.62.599a.398.398 0 0 1 .014.552.37.37 0 0 1-.268.123h-.016zm-.7-.91.62.598c.02.02.052.025.086.03a.097.097 0 0 0 .067-.029c.037-.041.051-.114.002-.16l-.621-.6a.128.128 0 0 0-.086-.03.098.098 0 0 0-.067.03c-.038.042-.05.113-.002.16zM64.244 80.135l.525-.543.074-.076c.092-.096.096-.268-.006-.357a.257.257 0 0 0-.357.007l-.524.543-.074.076c-.092.095-.097.265.006.357a.255.255 0 0 0 .356-.007" fill="#1E2F4E"/>
        <path d="M64.065 80.352a.41.41 0 0 1-.27-.104.4.4 0 0 1-.013-.561l.596-.618a.4.4 0 0 1 .552-.016.37.37 0 0 1 .124.266.404.404 0 0 1-.11.295l-.598.618a.385.385 0 0 1-.28.12m.592-1.121a.104.104 0 0 0-.077.033l-.597.619a.115.115 0 0 0-.03.086c0 .016.004.047.028.068.042.038.112.052.161 0l.599-.62a.123.123 0 0 0 .03-.086.096.096 0 0 0-.028-.067.131.131 0 0 0-.086-.033M55.378 79.934l-.544-.525-.077-.075c-.095-.092-.266-.096-.356.008a.257.257 0 0 0 .006.356l.542.524.078.075c.094.09.266.096.356-.006.091-.104.097-.259-.005-.357" fill="#1E2F4E"/>
        <path d="M55.206 80.507a.4.4 0 0 1-.276-.108l-.62-.6a.399.399 0 0 1-.016-.55.37.37 0 0 1 .267-.125c.116 0 .217.035.294.109l.62.6a.4.4 0 0 1 .015.551.372.372 0 0 1-.268.123h-.016m-.628-1.101c-.018.001-.049.002-.072.029-.037.042-.051.114-.002.161l.622.6c.02.019.053.028.085.029a.097.097 0 0 0 .068-.028c.037-.042.05-.114.001-.161l-.62-.598a.118.118 0 0 0-.082-.032M59.467 84.234a.88.88 0 0 0 .035-.033c.033-.032-.01.012-.014.011.013.002.051-.035.067-.042.008-.005.037-.014.041-.022-.002.006-.057.021-.017.009l.09-.024c.05-.012-.043 0-.01.002l.037-.003h.046a.767.767 0 0 0-.018-.002c.017.01.055.009.076.015l.03.008c.046.012-.053-.027.003.002.024.012.048.023.07.037.036.024-.002.015-.01-.009.004.008.025.022.032.026.02.019.038.04.056.059.027.027-.036-.055-.006-.008l.026.04a.475.475 0 0 1 .02.04c.018.031-.01 0-.006-.017-.003.014.02.059.024.075.004.011.004.025.008.037.008.032-.004-.063-.002-.01a.343.343 0 0 0-.001.09c-.01-.011.009-.051.003-.017l-.01.045-.008.029c0 .005-.003.01-.005.015-.007.026-.005.02.008-.018-.014.012-.024.055-.034.071-.005.01-.011.018-.017.027-.026.045.04-.047-.003.004a1.255 1.255 0 0 1-.05.053c-.019.018-.052.029.004 0-.01.004-.018.013-.026.018a.653.653 0 0 1-.069.039c-.048.026.055-.018.003-.003-.015.006-.029.011-.045.015-.012.004-.025.005-.037.01-.043.01-.007-.015.01-.003-.006-.005-.064.005-.075.004-.012 0-.05-.012-.015 0 .04.013-.004 0-.013-.002-.017-.003-.077-.03-.09-.024.005 0 .059.027.018.007l-.042-.02-.028-.017c-.006-.004-.046-.035-.012-.006.036.03-.005-.005-.01-.01l-.03-.028-.028-.03c-.039-.038.029.045.001.003a3.282 3.282 0 0 1-.047-.082c-.025-.046.01.043.004.01-.004-.016-.01-.034-.017-.051l-.006-.03-.006-.03c.004.037.007.045.004.018l-.002-.077c0-.053-.011.057 0 .004l.008-.045c.003-.016.009-.03.013-.046.011-.045-.025.05-.002.004a1.28 1.28 0 0 1 .044-.084c.017-.029.011.01-.012.015.012-.003.035-.039.042-.049.092-.094.098-.266-.005-.356-.102-.09-.26-.097-.357.006a.853.853 0 0 0-.146.96.837.837 0 0 0 .826.46.85.85 0 0 0 .743-.642.856.856 0 0 0-.37-.906c-.33-.22-.782-.146-1.053.128-.094.094-.096.267.006.356a.255.255 0 0 0 .356-.006" fill="#1E2F4E"/>
        <path d="M59.7 85.45a.987.987 0 0 1-.8-.425l-.108.016.088-.048a.997.997 0 0 1 .105-1.187l.019-.02c.006-.008.014-.014.022-.022.328-.314.844-.369 1.21-.125a.993.993 0 0 1 .429 1.055.994.994 0 0 1-.965.756zm-.474-.476c.144.137.35.212.543.19a.711.711 0 0 0 .62-.533.688.688 0 0 0-.06-.48l-.126.356.004.022-.013.005-.027.077.02.014-.157.225.002.005-.069.035-.01-.001-.154.064-.01.03-.081-.023-.023.006-.004-.004-.009.018-.11-.053-.02.025-.026-.022-.29.044zm-.202-.623a.733.733 0 0 0 .105.508l.176-.095-.02-.055-.04-.048.015-.016-.043-.071.003-.04-.007-.02.009-.005.005-.06-.004-.003a.406.406 0 0 1-.2-.095zm.65.306.013.003.044-.038.046.025.064-.034.026-.03.011-.017a.466.466 0 0 0 .008-.024l-.02-.027.035-.06v-.011l-.04-.024.009-.063-.004-.007-.002-.002h-.05l-.026-.058-.006-.004-.028-.006a.53.53 0 0 1-.047-.007h-.009l-.013.031-.063-.002-.016.043-.02.001v.023l-.055.022a.65.65 0 0 0-.01.021l-.002.006h.002l-.005.028.001.057v.002l.013.04.063.079h-.001l.022.015c.021.004.042.012.06.018zm.494-.386.156-.13a.76.76 0 0 0-.245-.268.664.664 0 0 0-.51-.09c.053.054.09.124.103.202h.013l.056-.02.033.012.02-.002.002.01.19.071.007-.004.073.08-.001.01.093.115h.008l.002.013zm-.972-.277a.116.116 0 0 0-.02.07c0 .03.01.055.029.071.035.032.088.045.132.023l.032-.057.017.003.001-.002-.191-.108z" fill="#1E2F4E"/>
        <path d="m59.116 84.226-3.96.07c-.19.002-.377.006-.566.01-.324.005-.317.51.01.505l3.962-.07.565-.01c.324-.007.316-.51-.011-.505" fill="#1E2F4E"/>
        <path d="M54.596 85.084c-.247 0-.383-.23-.386-.447-.003-.22.128-.456.378-.46l4.526-.093h.007c.246 0 .383.23.385.447.003.22-.127.455-.377.461l-.614.013c-1.304.026-2.609.052-3.912.08h-.007zm4.523-.674-4.527.092c-.094.001-.1.1-.1.13s.011.119.106.127c1.303-.027 2.607-.053 3.911-.078l.614-.014c.096-.003.102-.1.101-.13 0-.03-.009-.127-.104-.127h-.001zM60.026 83.943c.09-.719.177-1.439.264-2.16l.04-.306c.014-.136-.043-.272-.186-.305-.122-.03-.289.05-.307.185l-.264 2.16-.037.308c-.017.134.043.27.186.305.12.029.288-.05.304-.187" fill="#1E2F4E"/>
        <path d="M59.773 84.277a.347.347 0 0 1-.083-.01c-.203-.051-.322-.24-.294-.46l.037-.31c.09-.718.176-1.437.264-2.158a.347.347 0 0 1 .156-.242.403.403 0 0 1 .325-.061c.195.045.316.233.292.457l-.07.562-.234 1.905a.34.34 0 0 1-.149.24.431.431 0 0 1-.244.077m.315-2.97a.144.144 0 0 0-.077.024c-.01.006-.032.024-.034.044-.088.718-.175 1.44-.264 2.158l-.037.309c-.003.022-.012.128.08.152a.143.143 0 0 0 .1-.025c.01-.008.028-.022.03-.042v-.001c.079-.634.156-1.269.233-1.904l.07-.562c.003-.03.008-.13-.078-.15a.083.083 0 0 0-.023-.003" fill="#1E2F4E"/>
        <path d="M60.512 87.634c.461-.093.98-.047 1.45-.062a286.565 286.565 0 0 0 6.226-.267c3.53-.2 5.646-.441 5.822-.696 0 .014-.007.027-.01.041-.935 3.223-4.912 6.103-10.828 8.221-.417.154-.833.299-1.262.438-.02.009-.04.014-.06.02-6.195 2.008-14.251 3.222-23.062 3.222-18.238 0-33.263-5.212-35.21-11.9-.011-.023-.014-.047-.018-.075.004.376 4.17.71 10.856.954 2.846.101 6.148.183 9.778.25 4.446.073 9.386.115 14.594.115a873.362 873.362 0 0 0 17.09-.165c.7-.014 1.4-.03 2.1-.046.304-.007.618-.038.922-.023.296.014 1.612-.027 1.612-.027" fill="#C8C9C9"/>
        <path d="M38.788 98.883c-18.21 0-33.463-5.203-35.519-12.107a.35.35 0 0 1-.04-.196.332.332 0 0 1 .304-.334c.118-.008.24.05.304.148.292.129 1.896.487 10.59.804 2.726.097 6.015.181 9.772.25 4.605.076 9.514.115 14.59.115a873.452 873.452 0 0 0 17.083-.164l2.097-.047c.101-.002.203-.007.305-.011.216-.012.432-.022.643-.011.224.007 1.175-.015 1.557-.027.348-.066.707-.065 1.056-.06a8.9 8.9 0 0 0 .421-.003c.502-.016 1.005-.032 1.507-.051 1.01-.037 2.017-.08 3.025-.128.562-.028 1.124-.055 1.686-.087 4.87-.275 5.53-.549 5.614-.6.082-.12.211-.147.349-.105.138.044.21.195.21.34a.514.514 0 0 1-.023.13c-.938 3.234-4.857 6.232-11.035 8.445a36.617 36.617 0 0 1-1.346.464c-6.426 2.085-14.652 3.235-23.15 3.235zM4.102 87.134c2.65 6.374 17.279 11.085 34.686 11.085 8.43 0 16.584-1.138 22.96-3.206.484-.157.897-.301 1.31-.453 5.585-2 9.246-4.614 10.415-7.413-.746.15-2.231.318-5.267.49-.563.031-1.127.058-1.69.086a243.446 243.446 0 0 1-4.544.18c-.146.005-.296.005-.448.003-.323-.005-.658-.005-.947.053a.305.305 0 0 1-.055.006c-.055.002-1.334.045-1.637.027-.192-.01-.385.001-.577.01-.108.006-.216.011-.323.014l-2.1.046a874.856 874.856 0 0 1-17.097.164c-5.079 0-9.991-.039-14.6-.115a585.41 585.41 0 0 1-9.784-.25c-6.4-.233-9.134-.479-10.302-.727z" fill="#1E2F4E"/>
        <path d="M38.788 99.024c-18.24 0-33.56-5.24-35.649-12.192a.49.49 0 0 1-.052-.25.473.473 0 0 1 .435-.476.494.494 0 0 1 .405.172c.324.12 1.996.469 10.506.779 2.693.097 5.98.18 9.77.25 4.607.076 9.515.115 14.585.115a865.94 865.94 0 0 0 17.08-.164l2.098-.046.301-.012c.224-.013.444-.021.656-.01.211.003 1.135-.015 1.548-.028.352-.068.746-.062 1.06-.06.142.002.28.002.416-.002.5-.017 1.004-.033 1.505-.053a270.46 270.46 0 0 0 3.025-.127c.561-.027 1.123-.054 1.684-.086 4.58-.259 5.398-.513 5.528-.57.113-.14.29-.19.484-.13.185.058.31.25.31.475 0 .054-.015.13-.03.174-.949 3.273-4.899 6.306-11.122 8.533a35.41 35.41 0 0 1-1.275.443l-.076.024c-6.443 2.09-14.68 3.24-23.192 3.24zM3.554 86.386h-.011a.192.192 0 0 0-.174.192c0 .059.002.093.021.125l.015.033c2.037 6.844 17.248 12.005 35.383 12.005 8.484 0 16.69-1.145 23.106-3.227l.077-.024c.408-.132.821-.276 1.264-.438 6.137-2.198 10.024-5.163 10.949-8.353a.392.392 0 0 0 .017-.09c0-.085-.039-.182-.111-.205-.13-.041-.175.025-.191.05l-.042.04c-.16.098-1.031.359-5.68.621-.562.032-1.125.059-1.687.086a270.267 270.267 0 0 1-4.534.18c-.14.006-.282.004-.428.003-.303-.006-.68-.008-1.027.058-.383.014-1.352.032-1.588.03a6.337 6.337 0 0 0-.632.01c-.103.005-.205.009-.308.012l-2.098.046a875.914 875.914 0 0 1-17.087.164c-5.071 0-9.98-.039-14.59-.115a580.14 580.14 0 0 1-9.776-.25c-8.652-.316-10.324-.676-10.642-.816l-.038-.017-.023-.035a.204.204 0 0 0-.165-.085zm35.234 11.975c-17.482 0-32.125-4.7-34.816-11.172l-.103-.248.263.055c1.354.288 4.62.518 10.277.724 2.734.098 6.025.182 9.782.25 4.612.076 9.524.115 14.597.115a867.333 867.333 0 0 0 17.094-.164l2.1-.046c.105-.003.212-.008.318-.013l.037-.002c.181-.008.367-.017.554-.009.272.015 1.412-.02 1.626-.027.333-.063.68-.062 1.01-.06.148.003.297.002.44-.001.503-.017 1.007-.033 1.51-.052 1.01-.037 2.02-.08 3.03-.13.565-.026 1.129-.054 1.692-.085 2.645-.15 4.361-.31 5.246-.487l.26-.053-.101.245c-1.184 2.83-4.912 5.491-10.499 7.492-.452.166-.87.31-1.315.454-6.387 2.072-14.556 3.214-23.002 3.214zM4.34 87.324c2.915 6.246 17.297 10.754 34.448 10.754 8.417 0 16.555-1.136 22.915-3.2.447-.144.85-.283 1.306-.45 5.352-1.916 8.966-4.427 10.227-7.094-.955.161-2.604.306-5.021.443-.564.032-1.129.059-1.693.086a243.663 243.663 0 0 1-4.545.182c-.148.004-.301.003-.455.002-.313-.006-.644-.004-.918.05a.487.487 0 0 1-.077.01c-.013 0-1.335.044-1.65.025-.172-.007-.353.001-.527.01h-.036c-.108.007-.217.012-.325.015l-2.1.046a877.391 877.391 0 0 1-17.1.164c-5.076 0-9.99-.038-14.603-.115-3.758-.069-7.051-.153-9.787-.25-5.334-.194-8.554-.41-10.06-.678zm56.178.45-.006-.282h.006v.283zM198.787 86.36c-1.165-1.71-2.334-3.418-3.5-5.126-2.801-4.106-5.605-8.21-8.406-12.313-3.4-4.98-6.797-9.961-10.2-14.942L167.89 41.1c-1.423-2.085-2.817-4.195-4.27-6.258l-.063-.087a.424.424 0 0 0-.72 0c-1.165 1.71-2.333 3.417-3.5 5.126-2.8 4.105-5.604 8.208-8.402 12.313l-10.204 14.943-8.79 12.879c-.965 1.412-1.93 2.83-2.9 4.242-.454.67-.95 1.322-1.37 2.013-.02.031-.041.06-.063.088-.303.445.422.864.725.423 1.164-1.71 2.334-3.418 3.497-5.128 2.804-4.104 5.607-8.207 8.405-12.312 3.402-4.981 6.801-9.963 10.202-14.943l8.791-12.878 2.896-4.243c.303-.444.606-.885.905-1.328.153-.218.356-.444.47-.685.014-.032.041-.059.058-.088h-.72c1.164 1.71 2.334 3.418 3.498 5.127 2.803 4.104 5.606 8.207 8.407 12.313 3.4 4.981 6.798 9.961 10.2 14.943l8.79 12.878c1.424 2.083 2.817 4.193 4.27 6.256.022.029.043.059.063.088.3.44 1.024.024.72-.423" fill="#1E2F4E"/>
        <path d="M198.41 87.111a.541.541 0 0 1-.46-.25l-.06-.084a245.428 245.428 0 0 1-2.806-4.097c-.488-.722-.975-1.443-1.467-2.162l-8.79-12.879c-3.402-4.981-6.8-9.961-10.2-14.943-2.802-4.105-5.605-8.209-8.408-12.312l-1.921-2.817-1.099-1.61-.053.073c-.237.352-.479.705-.72 1.057l-22.073 32.335c-2.8 4.105-5.601 8.208-8.405 12.312-.61.895-1.22 1.79-1.832 2.685l-1.666 2.443c-.212.307-.577.3-.816.138-.254-.174-.312-.47-.141-.72.023-.032.042-.058.061-.088.276-.453.592-.899.896-1.33.16-.227.32-.454.476-.683.651-.948 1.3-1.898 1.947-2.847l2.35-3.442 7.392-10.832 10.204-14.944 5.22-7.652 4.429-6.485c.752-1.1 1.504-2.2 2.253-3.302a.576.576 0 0 1 .476-.262h.001c.188 0 .362.096.477.262l.06.084c.967 1.372 1.92 2.785 2.843 4.152.475.705.95 1.408 1.43 2.11l8.79 12.878c2.33 3.41 4.658 6.822 6.985 10.233l6.744 9.878c1.625 2.381 3.252 4.762 4.877 7.145l1.32 1.932 2.18 3.192v.001c.17.252.11.549-.145.722a.632.632 0 0 1-.35.109zm-35.716-51.895-1.993 2.92-4.428 6.486c-1.741 2.55-3.482 5.1-5.22 7.652l-10.204 14.943c-2.465 3.61-4.93 7.22-7.393 10.832l-2.35 3.442c-.648.949-1.297 1.9-1.947 2.846-.155.23-.317.459-.478.687-.302.428-.615.87-.89 1.32-.024.038-.046.067-.067.099-.12.174.023.293.07.324.104.071.302.11.424-.065.554-.814 1.11-1.628 1.666-2.442.611-.894 1.222-1.79 1.83-2.685 2.804-4.104 5.607-8.208 8.406-12.313l22.074-32.334c.24-.353.481-.704.72-1.057.037-.054.077-.107.117-.16l-.337-.495zm.684.503 1.153 1.69c.64.938 1.282 1.877 1.92 2.816 2.805 4.103 5.608 8.207 8.408 12.312 3.4 4.982 6.799 9.962 10.202 14.943l8.79 12.878c.49.72.979 1.442 1.466 2.165.91 1.347 1.851 2.74 2.802 4.09l.055.077c.127.188.325.148.427.079.047-.032.19-.15.07-.331-.726-1.065-1.454-2.128-2.18-3.192l-1.32-1.932c-1.625-2.382-3.25-4.764-4.877-7.145l-6.744-9.879c-2.328-3.41-4.655-6.82-6.986-10.231-2.93-4.295-5.858-8.586-8.79-12.879-.479-.702-.954-1.407-1.43-2.112-.859-1.27-1.744-2.583-2.64-3.862l-.023.042a.772.772 0 0 1-.035.05c-.08.16-.173.294-.268.421zm-.273-.401.105.154c.036-.051.07-.103.101-.154h-.206zm-.288-.283h.767a11.538 11.538 0 0 0-.079-.112l-.063-.089a.297.297 0 0 0-.244-.139.296.296 0 0 0-.243.14c-.046.066-.093.133-.138.2z" fill="#1E2F4E"/>
        <path d="M192.863 85.369a7.907 7.907 0 0 1-3.916 6.831 7.853 7.853 0 0 1-4.006 1.088 7.85 7.85 0 0 1-4.004-1.088 7.919 7.919 0 0 1 4.004-14.75 7.92 7.92 0 0 1 7.922 7.919" fill="#F7C496"/>
        <path d="M184.94 93.517a8.112 8.112 0 0 1-4.119-1.12 8.176 8.176 0 0 1-4.028-7.028c0-4.493 3.655-8.148 8.148-8.148 4.494 0 8.15 3.655 8.15 8.148a8.18 8.18 0 0 1-4.028 7.029 8.125 8.125 0 0 1-4.122 1.12m0-15.84c-4.24 0-7.691 3.45-7.691 7.69a7.719 7.719 0 0 0 3.804 6.634c2.349 1.385 5.433 1.383 7.777.001a7.72 7.72 0 0 0 3.803-6.634c0-4.241-3.451-7.692-7.693-7.692" fill="#1E2F4E"/>
        <path d="M184.94 93.658a8.26 8.26 0 0 1-4.19-1.14 8.32 8.32 0 0 1-4.098-7.15c0-4.57 3.718-8.289 8.289-8.289 4.572 0 8.291 3.719 8.291 8.29a8.32 8.32 0 0 1-4.098 7.15 8.264 8.264 0 0 1-4.193 1.14m0-16.297c-4.415 0-8.007 3.592-8.007 8.007a8.035 8.035 0 0 0 3.96 6.906 7.968 7.968 0 0 0 4.047 1.1c1.428 0 2.829-.38 4.05-1.1a8.037 8.037 0 0 0 3.959-6.906c0-4.415-3.593-8.007-8.01-8.007m.003 15.826a7.828 7.828 0 0 1-3.962-1.064 7.864 7.864 0 0 1-3.872-6.755c0-4.32 3.513-7.833 7.832-7.833 4.32 0 7.834 3.514 7.834 7.833a7.863 7.863 0 0 1-3.873 6.755 7.806 7.806 0 0 1-3.959 1.064m-.002-15.37c-4.163 0-7.55 3.388-7.55 7.55a7.575 7.575 0 0 0 3.734 6.512c2.319 1.367 5.316 1.369 7.634.001a7.578 7.578 0 0 0 3.734-6.512c0-4.163-3.388-7.55-7.552-7.55" fill="#1E2F4E"/>
        <path d="M187.153 86.384c.33.299.496.693.496 1.186 0 .635-.224 1.168-.674 1.604-.449.436-1.02.66-1.71.676v-4.089c.93.118 1.558.328 1.888.623M184.525 80.643v3.807c-.57-.05-1.062-.193-1.472-.43-.411-.238-.616-.671-.616-1.3 0-.464.11-.853.327-1.167.221-.314.475-.536.765-.666a3.28 3.28 0 0 1 .996-.244" fill="#F7C496"/>
        <path d="M186.663 88.568c-.374.362-.85.548-1.425.563v-3.408c.774.098 1.298.273 1.573.52.276.248.413.576.413.988 0 .53-.186.973-.56 1.337zm-2.041-3.937c-.475-.041-.885-.16-1.228-.358-.343-.198-.513-.56-.513-1.083 0-.387.092-.711.275-.973.184-.262.395-.446.636-.555a2.7 2.7 0 0 1 .83-.204v3.173zm3.608 1.28c-.13-.243-.33-.45-.596-.616a2.974 2.974 0 0 0-.94-.372c-.36-.08-.847-.154-1.456-.225v-3.263c.757.012 1.346.212 1.757.598.064.278.105.615.127 1.021l.06.05h.296l.06-.057.06-.642c.018-.202.04-.36.06-.473.025-.113.054-.235.095-.362l-.03-.08c-.457-.26-1.285-.427-2.485-.508.013-.47.02-.72.031-.754l-.074-.055h-.53l-.074.055c.014.124.026.384.03.779-.987.13-1.717.436-2.19.922-.473.485-.71 1.037-.71 1.655 0 .323.061.608.186.858a1.7 1.7 0 0 0 .577.642c.26.18.55.305.876.377.325.074.746.14 1.262.203v3.496c-.502 0-.916-.066-1.239-.197a3.61 3.61 0 0 1-.942-.575c-.014-.095-.029-.462-.046-1.1l-.059-.057h-.334l-.065.051a16.742 16.742 0 0 1-.21 1.76l.061.093c.84.315 1.781.478 2.834.494a31.69 31.69 0 0 1-.03 1.2l.072.055h.552l.07-.055c-.023-.186-.035-.593-.048-1.223.764-.128 1.356-.31 1.78-.547a2.798 2.798 0 0 0 1.017-.966c.259-.404.387-.852.387-1.342 0-.313-.063-.594-.192-.84z" fill="#1E2F4E"/>
        <path d="M185.265 91.026h-.65l-.17-.132.006-.075c.006-.088.016-.342.028-1.052-1.01-.029-1.932-.196-2.74-.5l-.043-.016-.119-.179.01-.056c.083-.426.151-.996.21-1.745l.004-.062.152-.12h.441l.14.138.003.057c.005.215.021.825.038 1.031.286.23.569.4.86.517.276.111.628.173 1.046.185v-3.229c-.477-.06-.855-.122-1.152-.19a2.589 2.589 0 0 1-.926-.398 1.837 1.837 0 0 1-.623-.694 2.061 2.061 0 0 1-.201-.922c0-.654.253-1.244.75-1.753.473-.486 1.196-.803 2.15-.947a7.806 7.806 0 0 0-.028-.64l-.008-.08.174-.132h.624l.193.143-.03.095c-.006.04-.015.344-.021.58 1.16.087 1.95.256 2.41.518l.046.026.063.173-.015.047c-.039.121-.067.24-.09.347-.02.106-.041.26-.06.457l-.064.695-.139.132h-.404l-.146-.122-.003-.061a6.212 6.212 0 0 0-.114-.955c-.356-.319-.856-.494-1.488-.526v2.992c.566.067 1.008.137 1.345.213.376.084.708.215.985.39.288.18.505.405.645.67.138.263.21.568.21.905 0 .517-.138.994-.411 1.418a2.945 2.945 0 0 1-1.067 1.014c-.415.23-.988.413-1.705.541.01.53.024.917.044 1.088l.01.078-.17.136zm-.528-.283h.399a22.427 22.427 0 0 1-.04-1.135l-.001-.121.12-.02c.74-.125 1.324-.303 1.734-.53.4-.225.726-.534.966-.918.243-.38.366-.806.366-1.268 0-.292-.06-.552-.176-.774-.117-.22-.3-.409-.545-.562a2.852 2.852 0 0 0-.897-.354 14.766 14.766 0 0 0-1.44-.223l-.126-.014v-3.532l.143.002c.792.012 1.415.226 1.852.636l.03.03.01.041c.06.263.102.579.126.962h.146l.053-.571c.019-.206.041-.37.063-.485.022-.103.048-.21.08-.322-.445-.231-1.243-.386-2.372-.463l-.135-.009.004-.135c.01-.372.016-.561.022-.663h-.378c.01.157.018.396.022.69l.002.125-.125.016c-.951.126-1.66.421-2.109.882-.444.455-.67.979-.67 1.556 0 .3.058.568.172.795.114.23.289.422.53.589.251.172.522.288.828.355.314.072.722.137 1.248.201l.124.015V89.3h-.141c-.517 0-.952-.07-1.292-.207a3.73 3.73 0 0 1-.979-.598l-.042-.034-.008-.053c-.014-.095-.028-.406-.044-1.037h-.185c-.056.688-.12 1.227-.196 1.64l.004.007c.805.296 1.729.453 2.744.469l.141.002-.002.14c-.01.55-.017.921-.026 1.113zm.36-1.468v-3.712l.158.02c.796.1 1.351.287 1.65.555.306.275.46.643.46 1.093 0 .565-.203 1.048-.603 1.438-.4.384-.91.587-1.52.602l-.145.004zm.282-3.39v3.097c.479-.038.867-.208 1.187-.516.348-.339.517-.743.517-1.235 0-.372-.12-.662-.366-.884-.237-.21-.686-.367-1.338-.463zm-.616-1.1-.153-.014c-.494-.043-.927-.17-1.287-.376-.387-.224-.583-.629-.583-1.206 0-.413.101-.767.3-1.053.197-.28.431-.484.695-.602.261-.114.547-.185.874-.217l.154-.014v3.481zm-.282-3.168a2.45 2.45 0 0 0-.632.174c-.219.099-.408.265-.578.507-.165.236-.249.537-.249.891 0 .475.145.79.442.961.286.166.628.274 1.017.324v-2.857z" fill="#1E2F4E"/>
        <path d="M150.074 84.05a6.014 6.014 0 0 1-2.978 5.197 5.978 5.978 0 0 1-3.047.827c-1.112 0-2.15-.3-3.045-.827a6.022 6.022 0 0 1 3.045-11.22 6.024 6.024 0 0 1 6.025 6.024" fill="#F7C496"/>
        <path d="M144.049 90.223c-1.1 0-2.179-.293-3.12-.848a6.195 6.195 0 0 1-3.052-5.324 6.179 6.179 0 0 1 6.172-6.172 6.18 6.18 0 0 1 6.174 6.172c0 2.18-1.17 4.22-3.052 5.325a6.161 6.161 0 0 1-3.122.847m0-12.047a5.881 5.881 0 0 0-5.874 5.875 5.896 5.896 0 0 0 2.905 5.067c1.792 1.057 4.147 1.056 5.94 0a5.895 5.895 0 0 0 2.904-5.067 5.882 5.882 0 0 0-5.875-5.875" fill="#1E2F4E"/>
        <path d="M144.049 90.364c-1.125 0-2.229-.3-3.193-.868a6.337 6.337 0 0 1-3.12-5.445 6.32 6.32 0 0 1 6.313-6.314 6.322 6.322 0 0 1 6.315 6.314 6.337 6.337 0 0 1-3.122 5.446 6.298 6.298 0 0 1-3.193.867m0-12.344a6.038 6.038 0 0 0-6.03 6.031 6.053 6.053 0 0 0 2.98 5.202c.921.543 1.975.829 3.05.829 1.075 0 2.13-.286 3.051-.829a6.055 6.055 0 0 0 2.982-5.202 6.038 6.038 0 0 0-6.033-6.031m0 12.036a5.99 5.99 0 0 1-3.041-.817 6.034 6.034 0 0 1-2.974-5.188 6.022 6.022 0 0 1 6.015-6.016 6.023 6.023 0 0 1 6.017 6.016 6.036 6.036 0 0 1-2.975 5.189 6.002 6.002 0 0 1-3.042.816m0-11.738a5.74 5.74 0 0 0-5.733 5.733 5.754 5.754 0 0 0 2.835 4.945c1.76 1.039 4.035 1.039 5.797 0a5.753 5.753 0 0 0 2.836-4.945 5.74 5.74 0 0 0-5.735-5.733" fill="#1E2F4E"/>
        <path d="M145.725 84.82c.249.226.375.525.375.898 0 .481-.17.884-.51 1.215-.34.33-.773.5-1.296.513v-3.098c.704.09 1.18.249 1.43.472M143.734 80.47v2.885c-.432-.038-.805-.146-1.115-.326-.312-.18-.467-.508-.467-.984 0-.352.084-.646.248-.885.167-.238.36-.405.579-.504a2.49 2.49 0 0 1 .755-.185" fill="#F7C496"/>
        <path d="M145.354 86.474c-.284.274-.644.415-1.08.426v-2.58c.586.073.983.206 1.191.392.21.189.314.438.314.75 0 .4-.141.736-.425 1.012zm-1.547-2.983c-.36-.03-.67-.12-.93-.27-.26-.15-.388-.425-.388-.821 0-.293.07-.539.207-.736.14-.2.3-.339.483-.42.183-.08.39-.133.628-.156v2.403zm2.733.97a1.242 1.242 0 0 0-.45-.466 2.27 2.27 0 0 0-.713-.282 11.229 11.229 0 0 0-1.103-.17v-2.472c.574.008 1.02.16 1.331.453.048.21.079.466.096.773l.045.039h.225l.045-.044.045-.486c.014-.153.03-.274.046-.359.019-.085.04-.177.072-.273l-.022-.06c-.347-.198-.974-.325-1.883-.387.01-.355.015-.545.023-.57l-.055-.042h-.402l-.056.042c.01.093.02.29.023.59-.748.098-1.301.33-1.66.698-.357.367-.538.786-.538 1.254 0 .245.047.46.141.65.095.188.24.35.437.485.198.137.418.233.665.287.246.056.564.106.955.153v2.648c-.38 0-.694-.05-.938-.149a2.75 2.75 0 0 1-.714-.435c-.01-.072-.022-.35-.034-.833l-.045-.043h-.253l-.05.038c-.043.549-.094.994-.16 1.333l.047.07c.637.24 1.35.362 2.147.375-.007.503-.016.806-.023.91l.056.04h.417l.052-.04c-.016-.142-.026-.45-.035-.927.579-.098 1.027-.236 1.348-.415.32-.179.577-.423.77-.731.196-.307.294-.646.294-1.017 0-.238-.048-.45-.146-.636z" fill="#1E2F4E"/>
        <path d="M144.307 88.37h-.514l-.155-.117.005-.076c.007-.096.014-.37.021-.762-.765-.024-1.44-.148-2.053-.38l-.043-.015-.104-.157.01-.057c.062-.315.112-.735.16-1.317l.004-.062.136-.106h.359l.127.122.002.058c.01.396.02.652.027.764.209.166.422.293.632.377.198.08.448.126.745.136v-2.38a9.14 9.14 0 0 1-.845-.14 1.978 1.978 0 0 1-.714-.308 1.44 1.44 0 0 1-.483-.538 1.591 1.591 0 0 1-.156-.713c0-.503.195-.958.579-1.352.358-.368.901-.611 1.618-.722a6.149 6.149 0 0 0-.02-.452l-.01-.08.158-.12h.496l.171.13-.029.096a21.67 21.67 0 0 0-.012.397c.868.068 1.46.197 1.808.394l.045.026.055.156-.014.045a2.29 2.29 0 0 0-.112.6l-.05.54-.124.12h-.334l-.13-.112-.003-.061a4.974 4.974 0 0 0-.083-.706c-.258-.225-.615-.353-1.062-.38v2.2c.42.05.746.103.992.158.29.064.544.166.757.3.223.139.392.314.501.52.108.204.163.44.163.702 0 .396-.107.764-.317 1.092-.204.326-.48.588-.82.78-.316.175-.733.31-1.274.409.008.386.017.666.032.79l.01.078-.152.123zm-.376-.282h.228a21.57 21.57 0 0 1-.026-.825l-.002-.121.12-.02c.559-.095.997-.229 1.302-.399.298-.167.54-.397.72-.684.18-.283.272-.6.272-.941 0-.215-.043-.407-.129-.57a1.1 1.1 0 0 0-.402-.413 2.117 2.117 0 0 0-.669-.265c-.26-.057-.615-.112-1.087-.167l-.125-.014v-2.74l.143.001c.606.009 1.086.174 1.426.49l.031.03.01.043c.044.199.074.428.093.701h.048l.037-.402c.014-.157.032-.282.048-.37.015-.072.032-.145.053-.22-.337-.166-.928-.278-1.757-.335l-.135-.008.003-.136c.006-.243.01-.382.014-.467h-.213c.007.121.012.291.014.49l.002.124-.124.017c-.714.093-1.244.314-1.577.657-.331.34-.5.728-.5 1.155 0 .223.043.416.128.587.084.168.212.31.39.432.185.128.386.215.616.265.237.054.546.103.94.151l.125.015v2.915h-.14c-.397 0-.73-.054-.992-.16a2.902 2.902 0 0 1-.75-.457l-.042-.035-.008-.053c-.009-.052-.018-.185-.034-.756h-.076c-.042.508-.087.89-.142 1.189.607.22 1.277.333 2.045.345l.141.002-.002.14c-.005.37-.012.65-.017.809zm.202-1.042v-2.887l.159.02c.618.079 1.033.22 1.267.429.24.214.361.502.361.854 0 .436-.158.811-.467 1.113h-.001c-.308.297-.703.453-1.174.467l-.145.004zm.282-2.564v2.269c.337-.035.613-.16.84-.378.257-.25.383-.548.383-.911 0-.273-.087-.483-.267-.645-.119-.106-.38-.246-.956-.335zm-.467-.837-.153-.014a2.374 2.374 0 0 1-.989-.288c-.305-.177-.459-.494-.459-.943 0-.321.079-.596.233-.817.157-.222.334-.376.541-.468a2.21 2.21 0 0 1 .673-.168l.154-.014v2.712zm-.282-2.397a1.792 1.792 0 0 0-.43.125c-.16.071-.298.192-.425.372-.12.171-.181.392-.181.655 0 .345.103.574.317.699.204.117.446.196.719.234v-2.085z" fill="#1E2F4E"/>
        <path d="M184.909 87.634c.462-.093.98-.047 1.45-.062a286.568 286.568 0 0 0 6.226-.267c3.53-.2 5.646-.441 5.823-.696 0 .014-.008.027-.01.041-.936 3.223-4.912 6.103-10.829 8.221-.416.154-.833.299-1.261.438-.02.009-.041.014-.061.02-6.194 2.008-14.251 3.222-23.061 3.222-18.239 0-33.264-5.212-35.21-11.9-.012-.023-.015-.047-.019-.075.004.376 4.17.71 10.856.954 2.847.101 6.148.183 9.778.25 4.447.073 9.386.115 14.595.115a873.362 873.362 0 0 0 17.09-.165c.7-.014 1.4-.03 2.099-.046.304-.007.619-.038.922-.023.296.014 1.612-.027 1.612-.027" fill="#C8C9C9"/>
        <path d="M163.186 98.883c-18.21 0-33.464-5.203-35.519-12.106a.356.356 0 0 1-.041-.198.333.333 0 0 1 .307-.334.32.32 0 0 1 .302.15c.291.128 1.896.486 10.59.803 2.727.097 6.015.182 9.772.25 4.605.076 9.514.115 14.589.115a873.682 873.682 0 0 0 17.083-.164l2.098-.047c.1-.002.202-.007.304-.011.215-.012.431-.022.644-.011a44.94 44.94 0 0 0 1.557-.027c.347-.066.706-.065 1.054-.06.143 0 .286.002.422-.003a270.697 270.697 0 0 0 4.532-.18c.563-.027 1.125-.054 1.687-.086 4.868-.275 5.53-.549 5.613-.6.082-.12.21-.149.348-.105.139.044.21.195.21.34 0 .034-.01.093-.02.127-.94 3.237-4.859 6.235-11.037 8.448-.418.153-.839.3-1.27.44l-.08.025c-6.421 2.084-14.647 3.234-23.145 3.234zm-34.687-11.75c2.645 6.373 17.276 11.086 34.687 11.086 8.43 0 16.583-1.138 22.958-3.206a33.72 33.72 0 0 0 1.311-.453c5.586-2 9.246-4.614 10.415-7.413-.746.15-2.23.318-5.266.49-.564.031-1.128.058-1.69.086a243.552 243.552 0 0 1-4.545.18c-.146.005-.295.005-.448.003-.323-.004-.658-.006-.946.053a.32.32 0 0 1-.055.006c-.055.002-1.333.045-1.638.027-.193-.01-.386.001-.577.01-.108.006-.216.011-.323.014l-2.1.046a874.924 874.924 0 0 1-17.096.164c-5.08 0-9.99-.039-14.6-.115a585.598 585.598 0 0 1-9.785-.25c-6.401-.233-9.134-.48-10.302-.727z" fill="#1E2F4E"/>
        <path d="M163.186 99.024c-18.242 0-33.56-5.24-35.649-12.192a.494.494 0 0 1-.052-.252.474.474 0 0 1 .84-.302c.326.12 2 .469 10.505.779 2.73.098 6.017.182 9.77.25 4.608.076 9.516.115 14.586.115a866.1 866.1 0 0 0 17.08-.164l2.098-.046c.098-.002.197-.007.297-.012.205-.011.436-.024.66-.01a64.55 64.55 0 0 0 1.546-.028c.352-.068.746-.064 1.06-.06H186c.118 0 .234.002.345-.002a280.692 280.692 0 0 0 4.53-.18 204.56 204.56 0 0 0 1.685-.086c4.575-.259 5.396-.512 5.528-.57.114-.143.295-.189.484-.13.185.058.309.25.309.475 0 .049-.012.122-.029.171-.95 3.275-4.9 6.309-11.123 8.536-.448.165-.865.31-1.274.443l-.085.026c-6.435 2.088-14.67 3.239-23.183 3.239zm-35.222-12.64-.02.001a.191.191 0 0 0-.177.193c0 .059.002.094.02.126l.015.033c2.037 6.844 17.249 12.004 35.384 12.004 8.484 0 16.688-1.145 23.103-3.226l.06-.019c.423-.137.838-.281 1.283-.444 6.136-2.198 10.025-5.165 10.95-8.356a.385.385 0 0 0 .016-.087c0-.085-.038-.182-.111-.205-.128-.042-.173.025-.191.05l-.042.04c-.16.099-1.035.359-5.68.621-.561.032-1.124.059-1.686.086a271.06 271.06 0 0 1-4.535.18 7.907 7.907 0 0 1-.356.003h-.071c-.304-.006-.68-.008-1.028.058a39.94 39.94 0 0 1-1.589.03c-.212-.012-.435-.002-.63.01-.106.005-.209.01-.31.012l-2.097.046a876.145 876.145 0 0 1-17.087.164c-5.07 0-9.98-.039-14.59-.115a572.225 572.225 0 0 1-9.775-.25c-8.656-.316-10.327-.676-10.642-.816l-.039-.017-.023-.035a.175.175 0 0 0-.152-.086zm35.222 11.977c-17.488 0-32.13-4.7-34.817-11.174l-.103-.247.262.056c1.357.288 4.623.518 10.278.724 2.736.098 6.026.182 9.782.25 4.612.076 9.524.115 14.598.115a867.333 867.333 0 0 0 17.093-.164l2.1-.046c.105-.003.211-.007.318-.013.216-.012.404-.02.592-.01.274.014 1.412-.02 1.625-.028.343-.066.699-.062 1.008-.06.153.004.3.004.442-.001a284.853 284.853 0 0 0 6.233-.267c2.645-.15 4.36-.31 5.246-.487l.26-.053-.103.245c-1.182 2.83-4.91 5.491-10.498 7.492-.46.17-.867.31-1.314.454-6.388 2.072-14.558 3.214-23.002 3.214zm-34.45-11.038c2.91 6.247 17.294 10.755 34.45 10.755 8.416 0 16.554-1.136 22.915-3.2.444-.143.847-.282 1.306-.45 5.351-1.916 8.965-4.427 10.225-7.094-.953.161-2.602.306-5.02.443-.564.032-1.128.059-1.693.086a242.571 242.571 0 0 1-4.546.182 9.39 9.39 0 0 1-.454.002c-.296-.004-.635-.006-.916.05a.443.443 0 0 1-.079.01c-.012 0-1.333.045-1.65.025a6.687 6.687 0 0 0-.528.01c-.143.007-.253.012-.36.015l-2.1.046a877.391 877.391 0 0 1-17.1.164c-5.075 0-9.989-.038-14.603-.115-3.757-.069-7.05-.153-9.786-.25-5.333-.194-8.553-.41-10.06-.679zm56.18.452-.007-.283h.007v.283z" fill="#1E2F4E"/>
        <path d="m5.86 57.507.198 2.582c.18 2.379 1.412 4.253 2.968 4.53l1.698.303-1.698.297c-1.556.28-2.788 2.154-2.968 4.53l-.197 2.584-.197-2.584c-.181-2.376-1.41-4.25-2.972-4.53L1 64.922l1.692-.304c1.561-.276 2.79-2.15 2.972-4.529l.197-2.582zM188.234 37.646l.197 2.582c.18 2.379 1.412 4.253 2.968 4.53l1.697.303-1.697.297c-1.556.28-2.788 2.154-2.968 4.53l-.197 2.584-.197-2.584c-.181-2.376-1.411-4.25-2.972-4.53l-1.692-.297 1.692-.304c1.561-.276 2.79-2.15 2.972-4.529l.197-2.582z" fill="#F5B379"/>
        <path d="m22.559 32.25.128 1.68c.117 1.545.918 2.764 1.93 2.943l1.102.197-1.102.193c-1.012.182-1.813 1.4-1.93 2.945l-.128 1.68-.128-1.68c-.118-1.544-.917-2.763-1.932-2.945l-1.1-.193 1.1-.197c1.015-.18 1.814-1.398 1.932-2.944l.128-1.678z" fill="#FCEDDE"/>
        <path d="m39.459 44.461.128 1.679c.117 1.545.918 2.764 1.93 2.943l1.102.197-1.102.194c-1.012.182-1.813 1.4-1.93 2.945l-.128 1.679-.128-1.68c-.118-1.544-.917-2.762-1.932-2.944l-1.1-.194 1.1-.197c1.015-.179 1.814-1.398 1.932-2.943l.128-1.679z" fill="#F9D1AC"/>
        <path d="m165.16 46.294.127 1.679c.118 1.545.918 2.764 1.93 2.943l1.102.197-1.102.194c-1.012.182-1.812 1.4-1.93 2.945l-.128 1.679-.128-1.68c-.117-1.544-.916-2.762-1.932-2.944l-1.1-.194 1.1-.197c1.016-.179 1.815-1.398 1.932-2.943l.128-1.679zM65.64 54.19l.09 1.175c.082 1.082.642 1.935 1.35 2.061l.773.138-.772.135c-.709.127-1.269.98-1.351 2.061l-.09 1.176-.09-1.176c-.082-1.08-.641-1.934-1.352-2.06l-.77-.136.77-.138c.71-.126 1.27-.979 1.353-2.061l.09-1.175z" fill="#FCEDDE"/>
        <path d="m145.728 41.782.09 1.175c.082 1.082.643 1.935 1.35 2.061l.773.137-.772.136c-.708.127-1.269.98-1.351 2.061l-.09 1.176-.09-1.176c-.081-1.081-.641-1.934-1.351-2.06l-.77-.137.77-.137c.71-.126 1.27-.979 1.352-2.061l.09-1.175z" fill="#F5B379"/>
        <path d="m131.918 60.206.128 1.679c.118 1.545.918 2.764 1.93 2.943l1.102.197-1.102.194c-1.012.182-1.812 1.4-1.93 2.945l-.128 1.679-.128-1.68c-.117-1.544-.916-2.762-1.932-2.944l-1.1-.194 1.1-.197c1.016-.179 1.815-1.398 1.932-2.943l.128-1.679z" fill="#F9D1AC"/>
    </g>
</svg>
