<svg width="50" height="50" viewBox="0 0 50 50" xmlns="http://www.w3.org/2000/svg">
    <g fill="none" fill-rule="evenodd">
        <ellipse fill="#000" opacity=".2" cx="25" cy="47.917" rx="18.333" ry="2.083"/>
        <path d="M40.195 42.273H2.911a.41.41 0 0 1-.411-.41V4.577a.41.41 0 0 1 .822 0V41.45h36.873a.41.41 0 0 1 0 .822" fill="#252E5C"/>
        <path stroke="#252E5C" stroke-width="1.5" stroke-linecap="round" stroke-linejoin="round" d="m7.598 28.17 5.823-9.899 7.117 6.405 4.852-8.022 7.83 4.852 5.046-8.993"/>
        <path d="M9.134 28.459a1.47 1.47 0 1 1-2.939 0 1.47 1.47 0 0 1 2.939 0" fill="#56B9A1"/>
        <path d="M7.664 30.497a2.04 2.04 0 0 1-2.038-2.038 2.04 2.04 0 0 1 2.038-2.038 2.04 2.04 0 0 1 2.039 2.038 2.04 2.04 0 0 1-2.039 2.038m0-2.94a.902.902 0 0 0 0 1.803.902.902 0 0 0 0-1.802" fill="#252E5C"/>
        <path d="M14.82 18.42a1.47 1.47 0 1 1-2.94.001 1.47 1.47 0 0 1 2.94 0" fill="#56B9A1"/>
        <path d="M13.35 20.459a2.04 2.04 0 0 1-2.038-2.038 2.04 2.04 0 0 1 2.038-2.038 2.04 2.04 0 0 1 2.038 2.038 2.04 2.04 0 0 1-2.038 2.038m0-2.939a.902.902 0 0 0 0 1.802.902.902 0 0 0 0-1.802" fill="#252E5C"/>
        <path d="M21.786 24.624a1.47 1.47 0 1 1-2.939 0 1.47 1.47 0 0 1 2.939 0" fill="#56B9A1"/>
        <path d="M20.316 26.662a2.04 2.04 0 0 1-2.038-2.038 2.04 2.04 0 0 1 2.038-2.038 2.04 2.04 0 0 1 2.039 2.038 2.04 2.04 0 0 1-2.039 2.038m0-2.938a.902.902 0 0 0 0 1.801.902.902 0 0 0 0-1.801" fill="#252E5C"/>
        <path d="M26.666 16.93a1.47 1.47 0 1 1-2.939 0 1.47 1.47 0 0 1 2.939 0" fill="#56B9A1"/>
        <path d="M25.196 18.969a2.04 2.04 0 0 1-2.038-2.039 2.04 2.04 0 0 1 2.038-2.037 2.04 2.04 0 0 1 2.039 2.037 2.04 2.04 0 0 1-2.039 2.039m0-2.94a.902.902 0 0 0 0 1.803.902.902 0 0 0 0-1.802" fill="#252E5C"/>
        <path d="M34.493 21.46a1.47 1.47 0 1 1-2.94 0 1.47 1.47 0 0 1 2.94 0" fill="#56B9A1"/>
        <path d="M33.023 23.498a2.04 2.04 0 0 1-2.038-2.038 2.04 2.04 0 0 1 2.038-2.038 2.04 2.04 0 0 1 2.038 2.038 2.04 2.04 0 0 1-2.038 2.038m0-2.94a.902.902 0 0 0 0 1.803.902.902 0 0 0 0-1.802" fill="#252E5C"/>
        <path d="M39.457 12.934a1.47 1.47 0 1 1-2.939 0 1.47 1.47 0 0 1 2.94 0" fill="#56B9A1"/>
        <path d="M37.988 14.972a2.04 2.04 0 0 1-2.039-2.039 2.04 2.04 0 0 1 2.039-2.037 2.04 2.04 0 0 1 2.038 2.037 2.04 2.04 0 0 1-2.038 2.039m0-2.94a.902.902 0 0 0 0 1.802.902.902 0 0 0 0-1.801" fill="#252E5C"/>
        <path d="M47.923 39.156a6.04 6.04 0 1 1-12.08 0 6.04 6.04 0 0 1 12.08 0" fill="#C9D1EB"/>
        <path d="M41.883 45.607a6.458 6.458 0 0 1-6.45-6.45 6.458 6.458 0 0 1 6.45-6.451 6.458 6.458 0 0 1 6.45 6.45 6.457 6.457 0 0 1-6.45 6.45m0-12.079a5.635 5.635 0 0 0-5.629 5.63 5.635 5.635 0 0 0 5.63 5.628 5.635 5.635 0 0 0 5.628-5.629 5.635 5.635 0 0 0-5.629-5.629" fill="#252E5C"/>
        <path d="M39.417 41.67h3.675a1.257 1.257 0 1 0 0-2.514h-2.418a1.257 1.257 0 1 1 0-2.514h3.675" fill="#C9D1EB"/>
        <path d="M43.092 42.081h-3.675a.41.41 0 0 1 0-.821h3.675a.847.847 0 0 0 0-1.693h-2.418a1.67 1.67 0 0 1-1.668-1.668c0-.92.749-1.668 1.668-1.668h3.675a.41.41 0 0 1 0 .822h-3.675a.847.847 0 0 0 0 1.692h2.418c.92 0 1.668.749 1.668 1.668a1.67 1.67 0 0 1-1.668 1.668" fill="#252E5C"/>
        <path d="M41.883 43.363a.41.41 0 0 1-.41-.411v-7.75a.41.41 0 0 1 .82 0v7.75a.41.41 0 0 1-.41.41" fill="#252E5C"/>
    </g>
</svg>
