<svg width="200" height="200" viewBox="0 0 200 200" xmlns="http://www.w3.org/2000/svg" xmlns:xlink="http://www.w3.org/1999/xlink">
    <defs>
        <path d="M54.882 0c-14.04.029-28.07 5.399-38.78 16.11-18.49 18.49-21.05 46.86-7.709 68.104l-6.366 23.76 23.758-6.367c21.243 13.34 49.615 10.782 68.104-7.708 21.48-21.48 21.48-56.308 0-77.789C83.177 5.4 69.148.03 55.108 0" id="0pyv3scwka"/>
        <path d="M54.882 0c-14.04.029-28.07 5.399-38.78 16.11-18.49 18.49-21.05 46.86-7.709 68.104l-6.366 23.76 23.758-6.367c21.243 13.34 49.615 10.782 68.104-7.708 21.48-21.48 21.48-56.308 0-77.789C83.177 5.4 69.148.03 55.108 0" id="duzz2l96lc"/>
        <path d="M54.882 0c-14.04.029-28.07 5.399-38.78 16.11-18.49 18.49-21.05 46.86-7.709 68.104l-6.366 23.76 23.758-6.367c21.243 13.34 49.615 10.782 68.104-7.708 21.48-21.48 21.48-56.308 0-77.789C83.177 5.4 69.148.03 55.108 0" id="6ies695yze"/>
        <path d="M54.882 0c-14.04.029-28.07 5.399-38.78 16.11-18.49 18.49-21.05 46.86-7.709 68.104l-6.366 23.76 23.758-6.367c21.243 13.34 49.615 10.782 68.104-7.708 21.48-21.48 21.48-56.308 0-77.789C83.177 5.4 69.148.03 55.108 0" id="taecb5013g"/>
        <path d="M54.882 0c-14.04.029-28.07 5.399-38.78 16.11-18.49 18.49-21.05 46.86-7.709 68.104l-6.366 23.76 23.758-6.367c21.243 13.34 49.615 10.782 68.104-7.708 21.48-21.48 21.48-56.308 0-77.789C83.177 5.4 69.148.03 55.108 0" id="1kcdsohdbi"/>
        <path d="M54.882 0c-14.04.029-28.07 5.399-38.78 16.11-18.49 18.49-21.05 46.86-7.709 68.104l-6.366 23.76 23.758-6.367c21.243 13.34 49.615 10.782 68.104-7.708 21.48-21.48 21.48-56.308 0-77.789C83.177 5.4 69.148.03 55.108 0" id="d5xc60ozok"/>
        <path d="M54.882 0c-14.04.029-28.07 5.399-38.78 16.11-18.49 18.49-21.05 46.86-7.709 68.104l-6.366 23.76 23.758-6.367c21.243 13.34 49.615 10.782 68.104-7.708 21.48-21.48 21.48-56.308 0-77.789C83.177 5.4 69.148.03 55.108 0" id="jqtbp7g8lm"/>
        <path d="M54.882 0c-14.04.029-28.07 5.399-38.78 16.11-18.49 18.49-21.05 46.86-7.709 68.104l-6.366 23.76 23.758-6.367c21.243 13.34 49.615 10.782 68.104-7.708 21.48-21.48 21.48-56.308 0-77.789C83.177 5.4 69.148.03 55.108 0" id="byxibj0ioo"/>
        <path d="M54.882 0c-14.04.029-28.07 5.399-38.78 16.11-18.49 18.49-21.05 46.86-7.709 68.104l-6.366 23.76 23.758-6.367c21.243 13.34 49.615 10.782 68.104-7.708 21.48-21.48 21.48-56.308 0-77.789C83.177 5.4 69.148.03 55.108 0" id="w6svjy5lrq"/>
        <path d="M54.882 0c-14.04.029-28.07 5.399-38.78 16.11-18.49 18.49-21.05 46.86-7.709 68.104l-6.366 23.76 23.758-6.367c21.243 13.34 49.615 10.782 68.104-7.708 21.48-21.48 21.48-56.308 0-77.789C83.177 5.4 69.148.03 55.108 0" id="umejgqo0fs"/>
        <path d="M54.882 0c-14.04.029-28.07 5.399-38.78 16.11-18.49 18.49-21.05 46.86-7.709 68.104l-6.366 23.76 23.758-6.367c21.243 13.34 49.615 10.782 68.104-7.708 21.48-21.48 21.48-56.308 0-77.789C83.177 5.4 69.148.03 55.108 0" id="zxkbb1tmsu"/>
        <path d="M54.882 0c-14.04.029-28.07 5.399-38.78 16.11-18.49 18.49-21.05 46.86-7.709 68.104l-6.366 23.76 23.758-6.367c21.243 13.34 49.615 10.782 68.104-7.708 21.48-21.48 21.48-56.308 0-77.789C83.177 5.4 69.148.03 55.108 0" id="2zq64fs0ow"/>
        <path d="M54.882 0c-14.04.029-28.07 5.399-38.78 16.11-18.49 18.49-21.05 46.86-7.709 68.104l-6.366 23.76 23.758-6.367c21.243 13.34 49.615 10.782 68.104-7.708 21.48-21.48 21.48-56.308 0-77.789C83.177 5.4 69.148.03 55.108 0" id="u1kix4yvxy"/>
        <path d="M54.882 0c-14.04.029-28.07 5.399-38.78 16.11-18.49 18.49-21.05 46.86-7.709 68.104l-6.366 23.76 23.758-6.367c21.243 13.34 49.615 10.782 68.104-7.708 21.48-21.48 21.48-56.308 0-77.789C83.177 5.4 69.148.03 55.108 0" id="dglsb0uxeA"/>
        <path d="M54.882 0c-14.04.029-28.07 5.399-38.78 16.11-18.49 18.49-21.05 46.86-7.709 68.104l-6.366 23.76 23.758-6.367c21.243 13.34 49.615 10.782 68.104-7.708 21.48-21.48 21.48-56.308 0-77.789C83.177 5.4 69.148.03 55.108 0" id="5jmpwuu2hC"/>
        <path d="M54.882 0c-14.04.029-28.07 5.399-38.78 16.11-18.49 18.49-21.05 46.86-7.709 68.104l-6.366 23.76 23.758-6.367c21.243 13.34 49.615 10.782 68.104-7.708 21.48-21.48 21.48-56.308 0-77.789C83.177 5.4 69.148.03 55.108 0" id="1efsemv4oE"/>
        <path d="M54.882 0c-14.04.029-28.07 5.399-38.78 16.11-18.49 18.49-21.05 46.86-7.709 68.104l-6.366 23.76 23.758-6.367c21.243 13.34 49.615 10.782 68.104-7.708 21.48-21.48 21.48-56.308 0-77.789C83.177 5.4 69.148.03 55.108 0" id="c3xt6th4yG"/>
        <path d="M54.882 0c-14.04.029-28.07 5.399-38.78 16.11-18.49 18.49-21.05 46.86-7.709 68.104l-6.366 23.76 23.758-6.367c21.243 13.34 49.615 10.782 68.104-7.708 21.48-21.48 21.48-56.308 0-77.789C83.177 5.4 69.148.03 55.108 0" id="7fyz50b6jI"/>
        <path d="M54.882 0c-14.04.029-28.07 5.399-38.78 16.11-18.49 18.49-21.05 46.86-7.709 68.104l-6.366 23.76 23.758-6.367c21.243 13.34 49.615 10.782 68.104-7.708 21.48-21.48 21.48-56.308 0-77.789C83.177 5.4 69.148.03 55.108 0" id="s88bwwtm9K"/>
        <path d="M54.882 0c-14.04.029-28.07 5.399-38.78 16.11-18.49 18.49-21.05 46.86-7.709 68.104l-6.366 23.76 23.758-6.367c21.243 13.34 49.615 10.782 68.104-7.708 21.48-21.48 21.48-56.308 0-77.789C83.177 5.4 69.148.03 55.108 0" id="v2sp03gs5M"/>
        <path d="M54.882 0c-14.04.029-28.07 5.399-38.78 16.11-18.49 18.49-21.05 46.86-7.709 68.104l-6.366 23.76 23.758-6.367c21.243 13.34 49.615 10.782 68.104-7.708 21.48-21.48 21.48-56.308 0-77.789C83.177 5.4 69.148.03 55.108 0" id="x6tw62x2yO"/>
        <path d="M54.882 0c-14.04.029-28.07 5.399-38.78 16.11-18.49 18.49-21.05 46.86-7.709 68.104l-6.366 23.76 23.758-6.367c21.243 13.34 49.615 10.782 68.104-7.708 21.48-21.48 21.48-56.308 0-77.789C83.177 5.4 69.148.03 55.108 0" id="waymuoewzQ"/>
        <path d="M54.882 0c-14.04.029-28.07 5.399-38.78 16.11-18.49 18.49-21.05 46.86-7.709 68.104l-6.366 23.76 23.758-6.367c21.243 13.34 49.615 10.782 68.104-7.708 21.48-21.48 21.48-56.308 0-77.789C83.177 5.4 69.148.03 55.108 0" id="6ulpgrau4S"/>
        <path d="M54.882 0c-14.04.029-28.07 5.399-38.78 16.11-18.49 18.49-21.05 46.86-7.709 68.104l-6.366 23.76 23.758-6.367c21.243 13.34 49.615 10.782 68.104-7.708 21.48-21.48 21.48-56.308 0-77.789C83.177 5.4 69.148.03 55.108 0" id="0qhz25we2U"/>
        <path d="M54.882 0c-14.04.029-28.07 5.399-38.78 16.11-18.49 18.49-21.05 46.86-7.709 68.104l-6.366 23.76 23.758-6.367c21.243 13.34 49.615 10.782 68.104-7.708 21.48-21.48 21.48-56.308 0-77.789C83.177 5.4 69.148.03 55.108 0" id="7g4oiwxouW"/>
        <path d="M54.882 0c-14.04.029-28.07 5.399-38.78 16.11-18.49 18.49-21.05 46.86-7.709 68.104l-6.366 23.76 23.758-6.367c21.243 13.34 49.615 10.782 68.104-7.708 21.48-21.48 21.48-56.308 0-77.789C83.177 5.4 69.148.03 55.108 0" id="0ye38of9nY"/>
        <path d="M54.882 0c-14.04.029-28.07 5.399-38.78 16.11-18.49 18.49-21.05 46.86-7.709 68.104l-6.366 23.76 23.758-6.367c21.243 13.34 49.615 10.782 68.104-7.708 21.48-21.48 21.48-56.308 0-77.789C83.177 5.4 69.148.03 55.108 0" id="lx0n6nrtbaa"/>
        <path d="M54.882 0c-14.04.029-28.07 5.399-38.78 16.11-18.49 18.49-21.05 46.86-7.709 68.104l-6.366 23.76 23.758-6.367c21.243 13.34 49.615 10.782 68.104-7.708 21.48-21.48 21.48-56.308 0-77.789C83.177 5.4 69.148.03 55.108 0" id="w8hcylri6ac"/>
        <path d="M54.882 0c-14.04.029-28.07 5.399-38.78 16.11-18.49 18.49-21.05 46.86-7.709 68.104l-6.366 23.76 23.758-6.367c21.243 13.34 49.615 10.782 68.104-7.708 21.48-21.48 21.48-56.308 0-77.789C83.177 5.4 69.148.03 55.108 0" id="8hyjz4q0hae"/>
        <path d="M54.882 0c-14.04.029-28.07 5.399-38.78 16.11-18.49 18.49-21.05 46.86-7.709 68.104l-6.366 23.76 23.758-6.367c21.243 13.34 49.615 10.782 68.104-7.708 21.48-21.48 21.48-56.308 0-77.789C83.177 5.4 69.148.03 55.108 0" id="0uzuowiknag"/>
        <path d="M54.882 0c-14.04.029-28.07 5.399-38.78 16.11-18.49 18.49-21.05 46.86-7.709 68.104l-6.366 23.76 23.758-6.367c21.243 13.34 49.615 10.782 68.104-7.708 21.48-21.48 21.48-56.308 0-77.789C83.177 5.4 69.148.03 55.108 0" id="zm6z9ir0bai"/>
        <path d="M54.882 0c-14.04.029-28.07 5.399-38.78 16.11-18.49 18.49-21.05 46.86-7.709 68.104l-6.366 23.76 23.758-6.367c21.243 13.34 49.615 10.782 68.104-7.708 21.48-21.48 21.48-56.308 0-77.789C83.177 5.4 69.148.03 55.108 0" id="3amkd7gkjak"/>
        <path d="M54.882 0c-14.04.029-28.07 5.399-38.78 16.11-18.49 18.49-21.05 46.86-7.709 68.104l-6.366 23.76 23.758-6.367c21.243 13.34 49.615 10.782 68.104-7.708 21.48-21.48 21.48-56.308 0-77.789C83.177 5.4 69.148.03 55.108 0" id="s4k8b1ki1am"/>
        <path d="M54.882 0c-14.04.029-28.07 5.399-38.78 16.11-18.49 18.49-21.05 46.86-7.709 68.104l-6.366 23.76 23.758-6.367c21.243 13.34 49.615 10.782 68.104-7.708 21.48-21.48 21.48-56.308 0-77.789C83.177 5.4 69.148.03 55.108 0" id="s1498zmfhao"/>
        <path d="M54.882 0c-14.04.029-28.07 5.399-38.78 16.11-18.49 18.49-21.05 46.86-7.709 68.104l-6.366 23.76 23.758-6.367c21.243 13.34 49.615 10.782 68.104-7.708 21.48-21.48 21.48-56.308 0-77.789C83.177 5.4 69.148.03 55.108 0" id="69i4l6r2saq"/>
        <path d="M54.882 0c-14.04.029-28.07 5.399-38.78 16.11-18.49 18.49-21.05 46.86-7.709 68.104l-6.366 23.76 23.758-6.367c21.243 13.34 49.615 10.782 68.104-7.708 21.48-21.48 21.48-56.308 0-77.789C83.177 5.4 69.148.03 55.108 0" id="nz64zm81mas"/>
        <path d="M54.882 0c-14.04.029-28.07 5.399-38.78 16.11-18.49 18.49-21.05 46.86-7.709 68.104l-6.366 23.76 23.758-6.367c21.243 13.34 49.615 10.782 68.104-7.708 21.48-21.48 21.48-56.308 0-77.789C83.177 5.4 69.148.03 55.108 0" id="4yjo2c38dau"/>
        <path d="M54.882 0c-14.04.029-28.07 5.399-38.78 16.11-18.49 18.49-21.05 46.86-7.709 68.104l-6.366 23.76 23.758-6.367c21.243 13.34 49.615 10.782 68.104-7.708 21.48-21.48 21.48-56.308 0-77.789C83.177 5.4 69.148.03 55.108 0" id="2ydca7mq6aw"/>
        <path d="M54.882 0c-14.04.029-28.07 5.399-38.78 16.11-18.49 18.49-21.05 46.86-7.709 68.104l-6.366 23.76 23.758-6.367c21.243 13.34 49.615 10.782 68.104-7.708 21.48-21.48 21.48-56.308 0-77.789C83.177 5.4 69.148.03 55.108 0" id="1nrm4miu0ay"/>
        <path d="M54.882 0c-14.04.029-28.07 5.399-38.78 16.11-18.49 18.49-21.05 46.86-7.709 68.104l-6.366 23.76 23.758-6.367c21.243 13.34 49.615 10.782 68.104-7.708 21.48-21.48 21.48-56.308 0-77.789C83.177 5.4 69.148.03 55.108 0" id="2ye6u7qkfaA"/>
        <path d="M54.882 0c-14.04.029-28.07 5.399-38.78 16.11-18.49 18.49-21.05 46.86-7.709 68.104l-6.366 23.76 23.758-6.367c21.243 13.34 49.615 10.782 68.104-7.708 21.48-21.48 21.48-56.308 0-77.789C83.177 5.4 69.148.03 55.108 0" id="26ikwwiivaC"/>
        <path d="M54.882 0c-14.04.029-28.07 5.399-38.78 16.11-18.49 18.49-21.05 46.86-7.709 68.104l-6.366 23.76 23.758-6.367c21.243 13.34 49.615 10.782 68.104-7.708 21.48-21.48 21.48-56.308 0-77.789C83.177 5.4 69.148.03 55.108 0" id="usjiyn20eaE"/>
        <path d="M54.882 0c-14.04.029-28.07 5.399-38.78 16.11-18.49 18.49-21.05 46.86-7.709 68.104l-6.366 23.76 23.758-6.367c21.243 13.34 49.615 10.782 68.104-7.708 21.48-21.48 21.48-56.308 0-77.789C83.177 5.4 69.148.03 55.108 0" id="8ric5jtmsaG"/>
        <path d="M54.882 0c-14.04.029-28.07 5.399-38.78 16.11-18.49 18.49-21.05 46.86-7.709 68.104l-6.366 23.76 23.758-6.367c21.243 13.34 49.615 10.782 68.104-7.708 21.48-21.48 21.48-56.308 0-77.789C83.177 5.4 69.148.03 55.108 0" id="8r11us3skaI"/>
        <path d="M54.882 0c-14.04.029-28.07 5.399-38.78 16.11-18.49 18.49-21.05 46.86-7.709 68.104l-6.366 23.76 23.758-6.367c21.243 13.34 49.615 10.782 68.104-7.708 21.48-21.48 21.48-56.308 0-77.789C83.177 5.4 69.148.03 55.108 0" id="xo0do2lhfaK"/>
        <path d="M54.882 0c-14.04.029-28.07 5.399-38.78 16.11-18.49 18.49-21.05 46.86-7.709 68.104l-6.366 23.76 23.758-6.367c21.243 13.34 49.615 10.782 68.104-7.708 21.48-21.48 21.48-56.308 0-77.789C83.177 5.4 69.148.03 55.108 0" id="p3yjdh18baM"/>
        <path d="M54.882 0c-14.04.029-28.07 5.399-38.78 16.11-18.49 18.49-21.05 46.86-7.709 68.104l-6.366 23.76 23.758-6.367c21.243 13.34 49.615 10.782 68.104-7.708 21.48-21.48 21.48-56.308 0-77.789C83.177 5.4 69.148.03 55.108 0" id="h0itptv4caO"/>
        <path d="M54.882 0c-14.04.029-28.07 5.399-38.78 16.11-18.49 18.49-21.05 46.86-7.709 68.104l-6.366 23.76 23.758-6.367c21.243 13.34 49.615 10.782 68.104-7.708 21.48-21.48 21.48-56.308 0-77.789C83.177 5.4 69.148.03 55.108 0" id="o1n3ttzqlaQ"/>
        <path d="M54.882 0c-14.04.029-28.07 5.399-38.78 16.11-18.49 18.49-21.05 46.86-7.709 68.104l-6.366 23.76 23.758-6.367c21.243 13.34 49.615 10.782 68.104-7.708 21.48-21.48 21.48-56.308 0-77.789C83.177 5.4 69.148.03 55.108 0" id="p3ioian6iaS"/>
        <path d="M54.882 0c-14.04.029-28.07 5.399-38.78 16.11-18.49 18.49-21.05 46.86-7.709 68.104l-6.366 23.76 23.758-6.367c21.243 13.34 49.615 10.782 68.104-7.708 21.48-21.48 21.48-56.308 0-77.789C83.177 5.4 69.148.03 55.108 0" id="tq7xlebzkaU"/>
        <path d="M54.882 0c-14.04.029-28.07 5.399-38.78 16.11-18.49 18.49-21.05 46.86-7.709 68.104l-6.366 23.76 23.758-6.367c21.243 13.34 49.615 10.782 68.104-7.708 21.48-21.48 21.48-56.308 0-77.789C83.177 5.4 69.148.03 55.108 0" id="831wd8hm7aW"/>
        <path d="M54.882 0c-14.04.029-28.07 5.399-38.78 16.11-18.49 18.49-21.05 46.86-7.709 68.104l-6.366 23.76 23.758-6.367c21.243 13.34 49.615 10.782 68.104-7.708 21.48-21.48 21.48-56.308 0-77.789C83.177 5.4 69.148.03 55.108 0" id="zbm14s47jaY"/>
        <path d="M54.882 0c-14.04.029-28.07 5.399-38.78 16.11-18.49 18.49-21.05 46.86-7.709 68.104l-6.366 23.76 23.758-6.367c21.243 13.34 49.615 10.782 68.104-7.708 21.48-21.48 21.48-56.308 0-77.789C83.177 5.4 69.148.03 55.108 0" id="jue7leswwba"/>
        <path d="M54.882 0c-14.04.029-28.07 5.399-38.78 16.11-18.49 18.49-21.05 46.86-7.709 68.104l-6.366 23.76 23.758-6.367c21.243 13.34 49.615 10.782 68.104-7.708 21.48-21.48 21.48-56.308 0-77.789C83.177 5.4 69.148.03 55.108 0" id="i3fgdgiwzbc"/>
        <path d="M54.882 0c-14.04.029-28.07 5.399-38.78 16.11-18.49 18.49-21.05 46.86-7.709 68.104l-6.366 23.76 23.758-6.367c21.243 13.34 49.615 10.782 68.104-7.708 21.48-21.48 21.48-56.308 0-77.789C83.177 5.4 69.148.03 55.108 0" id="z4nzdwch7be"/>
        <path d="M54.882 0c-14.04.029-28.07 5.399-38.78 16.11-18.49 18.49-21.05 46.86-7.709 68.104l-6.366 23.76 23.758-6.367c21.243 13.34 49.615 10.782 68.104-7.708 21.48-21.48 21.48-56.308 0-77.789C83.177 5.4 69.148.03 55.108 0" id="k1u3uxk77bg"/>
        <path d="M54.882 0c-14.04.029-28.07 5.399-38.78 16.11-18.49 18.49-21.05 46.86-7.709 68.104l-6.366 23.76 23.758-6.367c21.243 13.34 49.615 10.782 68.104-7.708 21.48-21.48 21.48-56.308 0-77.789C83.177 5.4 69.148.03 55.108 0" id="lq0uwvwfrbi"/>
        <path d="M54.882 0c-14.04.029-28.07 5.399-38.78 16.11-18.49 18.49-21.05 46.86-7.709 68.104l-6.366 23.76 23.758-6.367c21.243 13.34 49.615 10.782 68.104-7.708 21.48-21.48 21.48-56.308 0-77.789C83.177 5.4 69.148.03 55.108 0" id="q5ylzbgi2bk"/>
        <path d="M54.882 0c-14.04.029-28.07 5.399-38.78 16.11-18.49 18.49-21.05 46.86-7.709 68.104l-6.366 23.76 23.758-6.367c21.243 13.34 49.615 10.782 68.104-7.708 21.48-21.48 21.48-56.308 0-77.789C83.177 5.4 69.148.03 55.108 0" id="n3skjt1bfbm"/>
        <path d="M54.882 0c-14.04.029-28.07 5.399-38.78 16.11-18.49 18.49-21.05 46.86-7.709 68.104l-6.366 23.76 23.758-6.367c21.243 13.34 49.615 10.782 68.104-7.708 21.48-21.48 21.48-56.308 0-77.789C83.177 5.4 69.148.03 55.108 0" id="fp78ibhcsbo"/>
        <path d="M54.882 0c-14.04.029-28.07 5.399-38.78 16.11-18.49 18.49-21.05 46.86-7.709 68.104l-6.366 23.76 23.758-6.367c21.243 13.34 49.615 10.782 68.104-7.708 21.48-21.48 21.48-56.308 0-77.789C83.177 5.4 69.148.03 55.108 0" id="v9q3cibc3bq"/>
        <path d="M54.882 0c-14.04.029-28.07 5.399-38.78 16.11-18.49 18.49-21.05 46.86-7.709 68.104l-6.366 23.76 23.758-6.367c21.243 13.34 49.615 10.782 68.104-7.708 21.48-21.48 21.48-56.308 0-77.789C83.177 5.4 69.148.03 55.108 0" id="sge23hdz3bs"/>
        <path d="M54.882 0c-14.04.029-28.07 5.399-38.78 16.11-18.49 18.49-21.05 46.86-7.709 68.104l-6.366 23.76 23.758-6.367c21.243 13.34 49.615 10.782 68.104-7.708 21.48-21.48 21.48-56.308 0-77.789C83.177 5.4 69.148.03 55.108 0" id="v9v6xmo97bu"/>
        <path d="M54.882 0c-14.04.029-28.07 5.399-38.78 16.11-18.49 18.49-21.05 46.86-7.709 68.104l-6.366 23.76 23.758-6.367c21.243 13.34 49.615 10.782 68.104-7.708 21.48-21.48 21.48-56.308 0-77.789C83.177 5.4 69.148.03 55.108 0" id="j3kfmcngmbw"/>
        <path d="M54.882 0c-14.04.029-28.07 5.399-38.78 16.11-18.49 18.49-21.05 46.86-7.709 68.104l-6.366 23.76 23.758-6.367c21.243 13.34 49.615 10.782 68.104-7.708 21.48-21.48 21.48-56.308 0-77.789C83.177 5.4 69.148.03 55.108 0" id="kx6h7crt7by"/>
        <path d="M54.882 0c-14.04.029-28.07 5.399-38.78 16.11-18.49 18.49-21.05 46.86-7.709 68.104l-6.366 23.76 23.758-6.367c21.243 13.34 49.615 10.782 68.104-7.708 21.48-21.48 21.48-56.308 0-77.789C83.177 5.4 69.148.03 55.108 0" id="j8f3032tebA"/>
        <path d="M54.882 0c-14.04.029-28.07 5.399-38.78 16.11-18.49 18.49-21.05 46.86-7.709 68.104l-6.366 23.76 23.758-6.367c21.243 13.34 49.615 10.782 68.104-7.708 21.48-21.48 21.48-56.308 0-77.789C83.177 5.4 69.148.03 55.108 0" id="yumd8byrqbC"/>
        <path d="M54.882 0c-14.04.029-28.07 5.399-38.78 16.11-18.49 18.49-21.05 46.86-7.709 68.104l-6.366 23.76 23.758-6.367c21.243 13.34 49.615 10.782 68.104-7.708 21.48-21.48 21.48-56.308 0-77.789C83.177 5.4 69.148.03 55.108 0" id="nkecvkqcnbE"/>
        <path d="M54.882 0c-14.04.029-28.07 5.399-38.78 16.11-18.49 18.49-21.05 46.86-7.709 68.104l-6.366 23.76 23.758-6.367c21.243 13.34 49.615 10.782 68.104-7.708 21.48-21.48 21.48-56.308 0-77.789C83.177 5.4 69.148.03 55.108 0" id="r2mnwdbhdbG"/>
        <path d="M54.882 0c-14.04.029-28.07 5.399-38.78 16.11-18.49 18.49-21.05 46.86-7.709 68.104l-6.366 23.76 23.758-6.367c21.243 13.34 49.615 10.782 68.104-7.708 21.48-21.48 21.48-56.308 0-77.789C83.177 5.4 69.148.03 55.108 0" id="ph9ve69ovbI"/>
        <path d="M54.882 0c-14.04.029-28.07 5.399-38.78 16.11-18.49 18.49-21.05 46.86-7.709 68.104l-6.366 23.76 23.758-6.367c21.243 13.34 49.615 10.782 68.104-7.708 21.48-21.48 21.48-56.308 0-77.789C83.177 5.4 69.148.03 55.108 0" id="pyqiqafdpbK"/>
        <path d="M54.882 0c-14.04.029-28.07 5.399-38.78 16.11-18.49 18.49-21.05 46.86-7.709 68.104l-6.366 23.76 23.758-6.367c21.243 13.34 49.615 10.782 68.104-7.708 21.48-21.48 21.48-56.308 0-77.789C83.177 5.4 69.148.03 55.108 0" id="90el990zqbM"/>
        <path d="M54.882 0c-14.04.029-28.07 5.399-38.78 16.11-18.49 18.49-21.05 46.86-7.709 68.104l-6.366 23.76 23.758-6.367c21.243 13.34 49.615 10.782 68.104-7.708 21.48-21.48 21.48-56.308 0-77.789C83.177 5.4 69.148.03 55.108 0" id="ktq3pbcasbO"/>
        <path d="M54.882 0c-14.04.029-28.07 5.399-38.78 16.11-18.49 18.49-21.05 46.86-7.709 68.104l-6.366 23.76 23.758-6.367c21.243 13.34 49.615 10.782 68.104-7.708 21.48-21.48 21.48-56.308 0-77.789C83.177 5.4 69.148.03 55.108 0" id="g2wzcjs0wbQ"/>
    </defs>
    <g fill="none" fill-rule="evenodd">
        <path d="M19.11 95.9c18.49 18.489 46.861 21.048 68.105 7.707l23.758 6.367-6.366-23.76C117.947 64.972 115.39 36.6 96.9 18.112 75.42-3.37 40.591-3.37 19.111 18.11c-21.481 21.48-21.481 56.307 0 77.788" stroke="#000" stroke-width="2" fill="#FAD9C7" stroke-linecap="round" stroke-linejoin="round"/>
        <g transform="matrix(-1 0 0 1 113 2)">
            <mask id="8ppv9zwxob" fill="#fff">
                <use xlink:href="#0pyv3scwka"/>
            </mask>
            <path d="M55.076 91.504c5.502 0 9.963 4.461 9.963 9.963 0 5.502-4.46 9.962-9.963 9.962-5.502 0-9.963-4.46-9.963-9.962s4.461-9.963 9.963-9.963" fill="#F8BC3D" mask="url(#8ppv9zwxob)"/>
        </g>
        <g transform="matrix(-1 0 0 1 113 2)">
            <mask id="ww6lhvxuld" fill="#fff">
                <use xlink:href="#duzz2l96lc"/>
            </mask>
            <path d="M56.61 93.31a5.136 5.136 0 1 1 0 10.273 5.136 5.136 0 0 1 0-10.272" fill="#FCDDA4" mask="url(#ww6lhvxuld)"/>
        </g>
        <g transform="matrix(-1 0 0 1 113 2)">
            <mask id="of9441dgcf" fill="#fff">
                <use xlink:href="#6ies695yze"/>
            </mask>
            <path d="M50.637 106.408a.837.837 0 1 1 0 1.674.837.837 0 0 1 0-1.674" fill="#E85371" mask="url(#of9441dgcf)"/>
        </g>
        <g transform="matrix(-1 0 0 1 113 2)">
            <mask id="ybmo29cu5h" fill="#fff">
                <use xlink:href="#taecb5013g"/>
            </mask>
            <path d="M63.873 73.775c2.583 4.858.738 10.89-4.12 13.473-4.858 2.584-10.89.74-13.474-4.119-2.582-4.858-.738-10.89 4.12-13.474 4.858-2.583 10.89-.738 13.474 4.12" fill="#F8BC3D" mask="url(#ybmo29cu5h)"/>
        </g>
        <g transform="matrix(-1 0 0 1 113 2)">
            <mask id="9b8rkz3o1j" fill="#fff">
                <use xlink:href="#1kcdsohdbi"/>
            </mask>
            <path d="M62.998 75.978a5.136 5.136 0 1 1-9.07 4.823 5.136 5.136 0 0 1 9.07-4.823" fill="#FCDDA4" mask="url(#9b8rkz3o1j)"/>
        </g>
        <g transform="matrix(-1 0 0 1 113 2)">
            <mask id="pyh29zzycl" fill="#fff">
                <use xlink:href="#d5xc60ozok"/>
            </mask>
            <path d="M48.63 76.852a.837.837 0 1 1-1.478.786.837.837 0 0 1 1.477-.786" fill="#E85371" mask="url(#pyh29zzycl)"/>
        </g>
        <g transform="matrix(-1 0 0 1 113 2)">
            <mask id="sr9e2bd90n" fill="#fff">
                <use xlink:href="#jqtbp7g8lm"/>
            </mask>
            <path d="M47.444 49.033c3.537-4.215 9.821-4.765 14.036-1.228s4.765 9.82 1.228 14.036c-3.537 4.215-9.82 4.765-14.036 1.228-4.215-3.537-4.764-9.821-1.228-14.036" fill="#F8BC3D" mask="url(#sr9e2bd90n)"/>
        </g>
        <g transform="matrix(-1 0 0 1 113 2)">
            <mask id="703pu6f70p" fill="#fff">
                <use xlink:href="#byxibj0ioo"/>
            </mask>
            <path d="M49.814 49.019a5.136 5.136 0 1 1 7.87 6.603 5.136 5.136 0 0 1-7.87-6.603" fill="#FCDDA4" mask="url(#703pu6f70p)"/>
        </g>
        <g transform="matrix(-1 0 0 1 113 2)">
            <mask id="0dzq0s0wvr" fill="#fff">
                <use xlink:href="#w6svjy5lrq"/>
            </mask>
            <path d="M56.008 62.014a.838.838 0 1 1 1.283 1.077.838.838 0 0 1-1.283-1.077" fill="#E85371" mask="url(#0dzq0s0wvr)"/>
        </g>
        <g transform="matrix(-1 0 0 1 113 2)">
            <mask id="ft3zti6pgt" fill="#fff">
                <use xlink:href="#umejgqo0fs"/>
            </mask>
            <path d="M55.076 22.46c5.502 0 9.963 4.46 9.963 9.962s-4.46 9.962-9.963 9.962c-5.502 0-9.963-4.46-9.963-9.962s4.461-9.963 9.963-9.963" fill="#F8BC3D" mask="url(#ft3zti6pgt)"/>
        </g>
        <g transform="matrix(-1 0 0 1 113 2)">
            <mask id="oeu28tn6gv" fill="#fff">
                <use xlink:href="#zxkbb1tmsu"/>
            </mask>
            <path d="M56.61 24.265a5.136 5.136 0 1 1 0 10.273 5.136 5.136 0 0 1 0-10.273" fill="#FCDDA4" mask="url(#oeu28tn6gv)"/>
        </g>
        <g transform="matrix(-1 0 0 1 113 2)">
            <mask id="1nk576zvnx" fill="#fff">
                <use xlink:href="#2zq64fs0ow"/>
            </mask>
            <path d="M50.637 37.363a.837.837 0 1 1 0 1.674.837.837 0 0 1 0-1.674" fill="#E85371" mask="url(#1nk576zvnx)"/>
        </g>
        <g transform="matrix(-1 0 0 1 113 2)">
            <mask id="79ldyr1otz" fill="#fff">
                <use xlink:href="#u1kix4yvxy"/>
            </mask>
            <path d="M64.653 6.66c1.517 5.29-1.542 10.807-6.83 12.323-5.29 1.517-10.807-1.54-12.324-6.83C43.983 6.863 47.041 1.347 52.33-.17c5.29-1.516 10.806 1.542 12.323 6.83" fill="#F8BC3D" mask="url(#79ldyr1otz)"/>
        </g>
        <g transform="matrix(-1 0 0 1 113 2)">
            <mask id="zvvup6u0uB" fill="#fff">
                <use xlink:href="#dglsb0uxeA"/>
            </mask>
            <path d="M63.34 8.634a5.136 5.136 0 1 1-9.875 2.831 5.136 5.136 0 0 1 9.875-2.831" fill="#FCDDA4" mask="url(#zvvup6u0uB)"/>
        </g>
        <g transform="matrix(-1 0 0 1 113 2)">
            <mask id="anf364lwyD" fill="#fff">
                <use xlink:href="#5jmpwuu2hC"/>
            </mask>
            <path d="M49.103 6.502a.837.837 0 1 1-1.61.46.837.837 0 0 1 1.61-.46" fill="#E85371" mask="url(#anf364lwyD)"/>
        </g>
        <g transform="matrix(-1 0 0 1 113 2)">
            <mask id="jv0wc1bn5F" fill="#fff">
                <use xlink:href="#1efsemv4oE"/>
            </mask>
            <path d="M77.937 19.37c5.503 0 9.963-4.461 9.963-9.963 0-5.502-4.46-9.962-9.963-9.962-5.502 0-9.962 4.46-9.962 9.962s4.46 9.963 9.962 9.963" fill="#F8BC3D" mask="url(#jv0wc1bn5F)"/>
        </g>
        <g transform="matrix(-1 0 0 1 113 2)">
            <mask id="au4bkenjnH" fill="#fff">
                <use xlink:href="#c3xt6th4yG"/>
            </mask>
            <path d="M79.472 17.563a5.136 5.136 0 1 0 0-10.272 5.136 5.136 0 0 0 0 10.272" fill="#FCDDA4" mask="url(#au4bkenjnH)"/>
        </g>
        <g transform="matrix(-1 0 0 1 113 2)">
            <mask id="ovxwkwkf2J" fill="#fff">
                <use xlink:href="#7fyz50b6jI"/>
            </mask>
            <path d="M73.498 4.466a.837.837 0 1 0 0-1.674.837.837 0 0 0 0 1.674" fill="#E85371" mask="url(#ovxwkwkf2J)"/>
        </g>
        <g transform="matrix(-1 0 0 1 113 2)">
            <mask id="7bfe4affdL" fill="#fff">
                <use xlink:href="#s88bwwtm9K"/>
            </mask>
            <path d="M86.734 37.1c2.583-4.859.739-10.892-4.12-13.474-4.858-2.584-10.89-.74-13.473 4.119-2.583 4.858-.74 10.89 4.12 13.473 4.857 2.584 10.89.739 13.473-4.119" fill="#F8BC3D" mask="url(#7bfe4affdL)"/>
        </g>
        <g transform="matrix(-1 0 0 1 113 2)">
            <mask id="fwztvt88jN" fill="#fff">
                <use xlink:href="#v2sp03gs5M"/>
            </mask>
            <path d="M85.86 34.896a5.136 5.136 0 1 0-9.07-4.823 5.136 5.136 0 0 0 9.07 4.823" fill="#FCDDA4" mask="url(#fwztvt88jN)"/>
        </g>
        <g transform="matrix(-1 0 0 1 113 2)">
            <mask id="mhavs631oP" fill="#fff">
                <use xlink:href="#x6tw62x2yO"/>
            </mask>
            <path d="M71.49 34.022a.837.837 0 1 0-1.477-.786.837.837 0 0 0 1.478.786" fill="#E85371" mask="url(#mhavs631oP)"/>
        </g>
        <g transform="matrix(-1 0 0 1 113 2)">
            <mask id="1ifwyp3z6R" fill="#fff">
                <use xlink:href="#waymuoewzQ"/>
            </mask>
            <path d="M70.306 61.841c3.536 4.215 9.82 4.765 14.035 1.228s4.765-9.82 1.228-14.036c-3.536-4.215-9.82-4.765-14.036-1.228-4.215 3.537-4.764 9.82-1.227 14.036" fill="#F8BC3D" mask="url(#1ifwyp3z6R)"/>
        </g>
        <g transform="matrix(-1 0 0 1 113 2)">
            <mask id="l3bzh4fqrT" fill="#fff">
                <use xlink:href="#6ulpgrau4S"/>
            </mask>
            <path d="M72.676 61.855a5.136 5.136 0 1 0 7.869-6.603 5.136 5.136 0 0 0-7.87 6.603" fill="#FCDDA4" mask="url(#l3bzh4fqrT)"/>
        </g>
        <g transform="matrix(-1 0 0 1 113 2)">
            <mask id="rl0ldx85nV" fill="#fff">
                <use xlink:href="#0qhz25we2U"/>
            </mask>
            <path d="M78.87 48.86a.838.838 0 1 0 1.282-1.077.838.838 0 0 0-1.283 1.077" fill="#E85371" mask="url(#rl0ldx85nV)"/>
        </g>
        <g transform="matrix(-1 0 0 1 113 2)">
            <mask id="x69mwzgesX" fill="#fff">
                <use xlink:href="#7g4oiwxouW"/>
            </mask>
            <path d="M77.937 88.415c5.503 0 9.963-4.461 9.963-9.963 0-5.502-4.46-9.962-9.963-9.962-5.502 0-9.962 4.46-9.962 9.962s4.46 9.963 9.962 9.963" fill="#F8BC3D" mask="url(#x69mwzgesX)"/>
        </g>
        <g transform="matrix(-1 0 0 1 113 2)">
            <mask id="uvdmz5sv7Z" fill="#fff">
                <use xlink:href="#0ye38of9nY"/>
            </mask>
            <path d="M79.472 86.608a5.136 5.136 0 1 0 0-10.272 5.136 5.136 0 0 0 0 10.272" fill="#FCDDA4" mask="url(#uvdmz5sv7Z)"/>
        </g>
        <g transform="matrix(-1 0 0 1 113 2)">
            <mask id="8vwiwtbvtab" fill="#fff">
                <use xlink:href="#lx0n6nrtbaa"/>
            </mask>
            <path d="M73.498 73.51a.837.837 0 1 0 0-1.673.837.837 0 0 0 0 1.674" fill="#E85371" mask="url(#8vwiwtbvtab)"/>
        </g>
        <g transform="matrix(-1 0 0 1 113 2)">
            <mask id="dycvgdr0sad" fill="#fff">
                <use xlink:href="#w8hcylri6ac"/>
            </mask>
            <path d="M87.514 104.213c1.517-5.289-1.542-10.806-6.83-12.322-5.29-1.517-10.807 1.54-12.324 6.83-1.516 5.29 1.542 10.806 6.832 12.323 5.289 1.516 10.805-1.542 12.322-6.83" fill="#F8BC3D" mask="url(#dycvgdr0sad)"/>
        </g>
        <g transform="matrix(-1 0 0 1 113 2)">
            <mask id="ti26k011saf" fill="#fff">
                <use xlink:href="#8hyjz4q0hae"/>
            </mask>
            <path d="M86.2 102.24a5.136 5.136 0 1 0-9.874-2.831 5.136 5.136 0 0 0 9.875 2.831" fill="#FCDDA4" mask="url(#ti26k011saf)"/>
        </g>
        <g transform="matrix(-1 0 0 1 113 2)">
            <mask id="rdgohviugah" fill="#fff">
                <use xlink:href="#0uzuowiknag"/>
            </mask>
            <path d="M71.964 104.372a.837.837 0 1 0-1.61-.46.837.837 0 0 0 1.61.46" fill="#E85371" mask="url(#rdgohviugah)"/>
        </g>
        <g transform="matrix(-1 0 0 1 113 2)">
            <mask id="8xfrut17qaj" fill="#fff">
                <use xlink:href="#zm6z9ir0bai"/>
            </mask>
            <path d="M9.354 19.37c-5.502 0-9.963-4.461-9.963-9.963 0-5.502 4.46-9.962 9.963-9.962 5.502 0 9.963 4.46 9.963 9.962s-4.46 9.963-9.963 9.963" fill="#F8BC3D" mask="url(#8xfrut17qaj)"/>
        </g>
        <g transform="matrix(-1 0 0 1 113 2)">
            <mask id="snw64jha8al" fill="#fff">
                <use xlink:href="#3amkd7gkjak"/>
            </mask>
            <path d="M7.82 17.563a5.136 5.136 0 1 1 0-10.272 5.136 5.136 0 0 1 0 10.272" fill="#FCDDA4" mask="url(#snw64jha8al)"/>
        </g>
        <g transform="matrix(-1 0 0 1 113 2)">
            <mask id="z4936tf1yan" fill="#fff">
                <use xlink:href="#s4k8b1ki1am"/>
            </mask>
            <path d="M13.793 4.466a.837.837 0 1 1 0-1.674.837.837 0 0 1 0 1.674" fill="#E85371" mask="url(#z4936tf1yan)"/>
        </g>
        <g transform="matrix(-1 0 0 1 113 2)">
            <mask id="895v6ap2wap" fill="#fff">
                <use xlink:href="#s1498zmfhao"/>
            </mask>
            <path d="M.557 37.1c-2.583-4.859-.738-10.892 4.12-13.474 4.858-2.584 10.89-.74 13.474 4.119 2.582 4.858.739 10.89-4.12 13.473C9.173 43.802 3.14 41.957.557 37.1" fill="#F8BC3D" mask="url(#895v6ap2wap)"/>
        </g>
        <g transform="matrix(-1 0 0 1 113 2)">
            <mask id="thpohq5lkar" fill="#fff">
                <use xlink:href="#69i4l6r2saq"/>
            </mask>
            <path d="M1.432 34.896a5.136 5.136 0 1 1 9.07-4.823 5.136 5.136 0 0 1-9.07 4.823" fill="#FCDDA4" mask="url(#thpohq5lkar)"/>
        </g>
        <g transform="matrix(-1 0 0 1 113 2)">
            <mask id="xdtwo18qnat" fill="#fff">
                <use xlink:href="#nz64zm81mas"/>
            </mask>
            <path d="M15.8 34.022a.837.837 0 1 1 1.479-.786.837.837 0 0 1-1.478.786" fill="#E85371" mask="url(#xdtwo18qnat)"/>
        </g>
        <g transform="matrix(-1 0 0 1 113 2)">
            <mask id="s5er4ui0lav" fill="#fff">
                <use xlink:href="#4yjo2c38dau"/>
            </mask>
            <path d="M16.986 61.841c-3.537 4.215-9.82 4.765-14.036 1.228-4.215-3.537-4.765-9.82-1.228-14.036 3.537-4.215 9.821-4.765 14.036-1.228s4.764 9.82 1.228 14.036" fill="#F8BC3D" mask="url(#s5er4ui0lav)"/>
        </g>
        <g transform="matrix(-1 0 0 1 113 2)">
            <mask id="sv65sr7zeax" fill="#fff">
                <use xlink:href="#2ydca7mq6aw"/>
            </mask>
            <path d="M14.616 61.855a5.136 5.136 0 1 1-7.87-6.603 5.136 5.136 0 0 1 7.87 6.603" fill="#FCDDA4" mask="url(#sv65sr7zeax)"/>
        </g>
        <g transform="matrix(-1 0 0 1 113 2)">
            <mask id="j0vo5qs9jaz" fill="#fff">
                <use xlink:href="#1nrm4miu0ay"/>
            </mask>
            <path d="M8.422 48.86a.838.838 0 1 1-1.283-1.077.838.838 0 0 1 1.283 1.077" fill="#E85371" mask="url(#j0vo5qs9jaz)"/>
        </g>
        <g transform="matrix(-1 0 0 1 113 2)">
            <mask id="n0x0agbieaB" fill="#fff">
                <use xlink:href="#2ye6u7qkfaA"/>
            </mask>
            <path d="M9.354 88.415c-5.502 0-9.963-4.461-9.963-9.963 0-5.502 4.46-9.962 9.963-9.962 5.502 0 9.963 4.46 9.963 9.962s-4.46 9.963-9.963 9.963" fill="#F8BC3D" mask="url(#n0x0agbieaB)"/>
        </g>
        <g transform="matrix(-1 0 0 1 113 2)">
            <mask id="1gf2jv4tyaD" fill="#fff">
                <use xlink:href="#26ikwwiivaC"/>
            </mask>
            <path d="M7.82 86.608a5.136 5.136 0 1 1 0-10.272 5.136 5.136 0 0 1 0 10.272" fill="#FCDDA4" mask="url(#1gf2jv4tyaD)"/>
        </g>
        <g transform="matrix(-1 0 0 1 113 2)">
            <mask id="7u8qcc5qbaF" fill="#fff">
                <use xlink:href="#usjiyn20eaE"/>
            </mask>
            <path d="M13.793 73.51a.837.837 0 1 1 0-1.673.837.837 0 0 1 0 1.674" fill="#E85371" mask="url(#7u8qcc5qbaF)"/>
        </g>
        <g transform="matrix(-1 0 0 1 113 2)">
            <mask id="u63x651evaH" fill="#fff">
                <use xlink:href="#8ric5jtmsaG"/>
            </mask>
            <path d="M-.223 104.213c-1.517-5.289 1.542-10.806 6.83-12.322 5.29-1.517 10.807 1.54 12.324 6.83 1.516 5.29-1.542 10.806-6.831 12.323-5.29 1.516-10.806-1.542-12.323-6.83" fill="#F8BC3D" mask="url(#u63x651evaH)"/>
        </g>
        <g transform="matrix(-1 0 0 1 113 2)">
            <mask id="vjx97vqj4aJ" fill="#fff">
                <use xlink:href="#8r11us3skaI"/>
            </mask>
            <path d="M1.09 102.24a5.136 5.136 0 1 1 9.876-2.831 5.136 5.136 0 0 1-9.875 2.831" fill="#FCDDA4" mask="url(#vjx97vqj4aJ)"/>
        </g>
        <g transform="matrix(-1 0 0 1 113 2)">
            <mask id="h6sv7mi7uaL" fill="#fff">
                <use xlink:href="#xo0do2lhfaK"/>
            </mask>
            <path d="M15.327 104.372a.837.837 0 1 1 1.61-.46.837.837 0 0 1-1.61.46" fill="#E85371" mask="url(#h6sv7mi7uaL)"/>
        </g>
        <g transform="matrix(-1 0 0 1 113 2)">
            <mask id="5x4nbavogaN" fill="#fff">
                <use xlink:href="#p3yjdh18baM"/>
            </mask>
            <path d="M110.61 99.737c.955 5.418-2.663 10.586-8.082 11.541-5.418.956-10.585-2.662-11.541-8.081-.956-5.419 2.663-10.586 8.082-11.542 5.418-.955 10.586 2.663 11.54 8.082" fill="#F8BC3D" mask="url(#5x4nbavogaN)"/>
        </g>
        <g transform="matrix(-1 0 0 1 113 2)">
            <mask id="nnaqd1w4xaP" fill="#fff">
                <use xlink:href="#h0itptv4caO"/>
            </mask>
            <path d="M109.098 101.562a5.136 5.136 0 1 1-10.118 1.784 5.136 5.136 0 0 1 10.118-1.784" fill="#FCDDA4" mask="url(#nnaqd1w4xaP)"/>
        </g>
        <g transform="matrix(-1 0 0 1 113 2)">
            <mask id="2t6v4k7fjaR" fill="#fff">
                <use xlink:href="#o1n3ttzqlaQ"/>
            </mask>
            <path d="M95.162 97.953a.836.836 0 1 1-1.647.291.836.836 0 0 1 1.647-.29" fill="#E85371" mask="url(#2t6v4k7fjaR)"/>
        </g>
        <g transform="matrix(-1 0 0 1 113 2)">
            <mask id="hhd0xggenaT" fill="#fff">
                <use xlink:href="#p3ioian6iaS"/>
            </mask>
            <path d="M110.036 82.184c-2.062 5.101-7.868 7.567-12.97 5.505-5.101-2.061-7.566-7.868-5.504-12.969 2.06-5.102 7.868-7.567 12.969-5.505 5.101 2.06 7.567 7.868 5.505 12.969" fill="#F8BC3D" mask="url(#hhd0xggenaT)"/>
        </g>
        <g transform="matrix(-1 0 0 1 113 2)">
            <mask id="ab1yreef5aV" fill="#fff">
                <use xlink:href="#tq7xlebzkaU"/>
            </mask>
            <path d="M107.786 82.93a5.136 5.136 0 1 1-9.524-3.848 5.136 5.136 0 0 1 9.524 3.848" fill="#FCDDA4" mask="url(#ab1yreef5aV)"/>
        </g>
        <g transform="matrix(-1 0 0 1 113 2)">
            <mask id="5x39cmshmaX" fill="#fff">
                <use xlink:href="#831wd8hm7aW"/>
            </mask>
            <path d="M97.88 72.485a.837.837 0 1 1-1.552-.627.837.837 0 0 1 1.552.627" fill="#E85371" mask="url(#5x39cmshmaX)"/>
        </g>
        <g transform="matrix(-1 0 0 1 113 2)">
            <mask id="r9bon5lznaZ" fill="#fff">
                <use xlink:href="#zbm14s47jaY"/>
            </mask>
            <path d="M106.932 47.586c4.336 3.388 5.105 9.649 1.717 13.984-3.387 4.336-9.649 5.105-13.984 1.718-4.336-3.388-5.105-9.649-1.717-13.985 3.388-4.336 9.648-5.104 13.984-1.717" fill="#F8BC3D" mask="url(#r9bon5lznaZ)"/>
        </g>
        <g transform="matrix(-1 0 0 1 113 2)">
            <mask id="rk339sh9nbb" fill="#fff">
                <use xlink:href="#jue7leswwba"/>
            </mask>
            <path d="M107.03 49.954a5.136 5.136 0 1 1-6.324 8.095 5.136 5.136 0 0 1 6.323-8.095" fill="#FCDDA4" mask="url(#rk339sh9nbb)"/>
        </g>
        <g transform="matrix(-1 0 0 1 113 2)">
            <mask id="tk3xamz1mbd" fill="#fff">
                <use xlink:href="#i3fgdgiwzbc"/>
            </mask>
            <path d="M94.259 56.598a.837.837 0 1 1-1.03 1.319.837.837 0 0 1 1.03-1.32" fill="#E85371" mask="url(#tk3xamz1mbd)"/>
        </g>
        <g transform="matrix(-1 0 0 1 113 2)">
            <mask id="tbaexxymxbf" fill="#fff">
                <use xlink:href="#z4nzdwch7be"/>
            </mask>
            <path d="M110.375 29.676c1.517 5.289-1.542 10.806-6.83 12.322-5.29 1.517-10.806-1.54-12.323-6.83-1.516-5.29 1.542-10.807 6.83-12.323 5.29-1.516 10.807 1.542 12.323 6.83" fill="#F8BC3D" mask="url(#tbaexxymxbf)"/>
        </g>
        <g transform="matrix(-1 0 0 1 113 2)">
            <mask id="47hw3ldmxbh" fill="#fff">
                <use xlink:href="#k1u3uxk77bg"/>
            </mask>
            <path d="M109.062 31.649a5.136 5.136 0 1 1-9.875 2.831 5.136 5.136 0 0 1 9.875-2.831" fill="#FCDDA4" mask="url(#47hw3ldmxbh)"/>
        </g>
        <g transform="matrix(-1 0 0 1 113 2)">
            <mask id="bke10k4plbj" fill="#fff">
                <use xlink:href="#lq0uwvwfrbi"/>
            </mask>
            <path d="M94.825 29.517a.837.837 0 1 1-1.61.46.837.837 0 0 1 1.61-.46" fill="#E85371" mask="url(#bke10k4plbj)"/>
        </g>
        <g transform="matrix(-1 0 0 1 113 2)">
            <mask id="edvyit48pbl" fill="#fff">
                <use xlink:href="#q5ylzbgi2bk"/>
            </mask>
            <path d="M104.53 18.644c-5.1 2.062-10.908-.404-12.968-5.505C89.5 8.038 91.965 2.23 97.067.169c5.101-2.06 10.907.404 12.969 5.506 2.062 5.101-.404 10.908-5.505 12.97" fill="#F8BC3D" mask="url(#edvyit48pbl)"/>
        </g>
        <g transform="matrix(-1 0 0 1 113 2)">
            <mask id="h92qzm2t4bn" fill="#fff">
                <use xlink:href="#n3skjt1bfbm"/>
            </mask>
            <path d="M102.431 17.544a5.137 5.137 0 1 1-3.848-9.525 5.137 5.137 0 0 1 3.848 9.525" fill="#FCDDA4" mask="url(#h92qzm2t4bn)"/>
        </g>
        <g transform="matrix(-1 0 0 1 113 2)">
            <mask id="ivsksejribp" fill="#fff">
                <use xlink:href="#fp78ibhcsbo"/>
            </mask>
            <path d="M103.064 3.163a.837.837 0 1 1-.627-1.552.837.837 0 0 1 .627 1.552" fill="#E85371" mask="url(#ivsksejribp)"/>
        </g>
        <g transform="matrix(-1 0 0 1 113 2)">
            <mask id="i2qss3x4xbr" fill="#fff">
                <use xlink:href="#v9q3cibc3bq"/>
            </mask>
            <path d="M41.316 97.415c-2.238-5.027-8.127-7.288-13.153-5.05-5.027 2.238-7.287 8.128-5.05 13.154 2.239 5.027 8.128 7.287 13.154 5.049 5.027-2.238 7.287-8.127 5.05-13.153" fill="#F8BC3D" mask="url(#i2qss3x4xbr)"/>
        </g>
        <g transform="matrix(-1 0 0 1 113 2)">
            <mask id="1ces7rnrabt" fill="#fff">
                <use xlink:href="#sge23hdz3bs"/>
            </mask>
            <path d="M39.042 96.748a5.136 5.136 0 1 0-9.384 4.178 5.136 5.136 0 0 0 9.384-4.178" fill="#FCDDA4" mask="url(#1ces7rnrabt)"/>
        </g>
        <g transform="matrix(-1 0 0 1 113 2)">
            <mask id="p3yxu6yv5bv" fill="#fff">
                <use xlink:href="#v9v6xmo97bu"/>
            </mask>
            <path d="M29.507 107.532a.838.838 0 1 0-1.53.682.838.838 0 0 0 1.53-.682" fill="#E85371" mask="url(#p3yxu6yv5bv)"/>
        </g>
        <g transform="matrix(-1 0 0 1 113 2)">
            <mask id="dg2u9wsh2bx" fill="#fff">
                <use xlink:href="#j3kfmcngmbw"/>
            </mask>
            <path d="M22.47 80.523c1.144 5.382 6.434 8.818 11.817 7.674 5.382-1.144 8.817-6.434 7.673-11.816-1.144-5.382-6.434-8.818-11.816-7.674-5.382 1.144-8.818 6.434-7.674 11.816" fill="#F8BC3D" mask="url(#dg2u9wsh2bx)"/>
        </g>
        <g transform="matrix(-1 0 0 1 113 2)">
            <mask id="9d0gxg99sbz" fill="#fff">
                <use xlink:href="#kx6h7crt7by"/>
            </mask>
            <path d="M24.556 81.648a5.137 5.137 0 1 0 10.049-2.135 5.137 5.137 0 0 0-10.049 2.135" fill="#FCDDA4" mask="url(#9d0gxg99sbz)"/>
        </g>
        <g transform="matrix(-1 0 0 1 113 2)">
            <mask id="x3jjxs0lzbB" fill="#fff">
                <use xlink:href="#j8f3032tebA"/>
            </mask>
            <path d="M36.125 73.083a.837.837 0 1 0 1.637-.348.837.837 0 0 0-1.637.348" fill="#E85371" mask="url(#x3jjxs0lzbB)"/>
        </g>
        <g transform="matrix(-1 0 0 1 113 2)">
            <mask id="xi7vcqfakbD" fill="#fff">
                <use xlink:href="#yumd8byrqbC"/>
            </mask>
            <path d="M35.294 45.962c-5.233-1.7-10.854 1.164-12.554 6.397-1.7 5.232 1.164 10.852 6.397 12.553 5.233 1.7 10.853-1.164 12.554-6.396 1.7-5.233-1.164-10.854-6.397-12.554" fill="#F8BC3D" mask="url(#xi7vcqfakbD)"/>
        </g>
        <g transform="matrix(-1 0 0 1 113 2)">
            <mask id="4idm8ha84bF" fill="#fff">
                <use xlink:href="#nkecvkqcnbE"/>
            </mask>
            <path d="M33.276 47.206a5.136 5.136 0 1 0-3.174 9.77 5.136 5.136 0 0 0 3.174-9.77" fill="#FCDDA4" mask="url(#4idm8ha84bF)"/>
        </g>
        <g transform="matrix(-1 0 0 1 113 2)">
            <mask id="iq2vsuozdbH" fill="#fff">
                <use xlink:href="#r2mnwdbhdbG"/>
            </mask>
            <path d="M34.91 61.508a.837.837 0 1 0-.517 1.591.837.837 0 0 0 .517-1.591" fill="#E85371" mask="url(#iq2vsuozdbH)"/>
        </g>
        <g transform="matrix(-1 0 0 1 113 2)">
            <mask id="y8fofsi53bJ" fill="#fff">
                <use xlink:href="#ph9ve69ovbI"/>
            </mask>
            <path d="M34.625 22.755c-5.338-1.331-10.745 1.918-12.077 7.256-1.33 5.34 1.918 10.747 7.257 12.077 5.338 1.331 10.745-1.917 12.077-7.256 1.33-5.339-1.918-10.746-7.257-12.077" fill="#F8BC3D" mask="url(#y8fofsi53bJ)"/>
        </g>
        <g transform="matrix(-1 0 0 1 113 2)">
            <mask id="nxhg8eazfbL" fill="#fff">
                <use xlink:href="#pyqiqafdpbK"/>
            </mask>
            <path d="M32.7 24.136a5.137 5.137 0 1 0-2.485 9.969 5.137 5.137 0 0 0 2.485-9.969" fill="#FCDDA4" mask="url(#nxhg8eazfbL)"/>
        </g>
        <g transform="matrix(-1 0 0 1 113 2)">
            <mask id="ve2xihir6bN" fill="#fff">
                <use xlink:href="#90el990zqbM"/>
            </mask>
            <path d="M35.327 38.29a.837.837 0 1 0-.405 1.625.837.837 0 0 0 .405-1.625" fill="#E85371" mask="url(#ve2xihir6bN)"/>
        </g>
        <g transform="matrix(-1 0 0 1 113 2)">
            <mask id="93eaz3mykbP" fill="#fff">
                <use xlink:href="#ktq3pbcasbO"/>
            </mask>
            <path d="M27.234.779c-4.765 2.751-6.398 8.844-3.647 13.609 2.751 4.766 8.845 6.398 13.61 3.647 4.765-2.751 6.397-8.844 3.646-13.61C38.092-.338 31.999-1.972 27.233.78" fill="#F8BC3D" mask="url(#93eaz3mykbP)"/>
        </g>
        <g transform="matrix(-1 0 0 1 113 2)">
            <mask id="o0ocn2r62bR" fill="#fff">
                <use xlink:href="#g2wzcjs0wbQ"/>
            </mask>
            <path d="M26.808 3.11a5.137 5.137 0 1 0 5.137 8.898 5.137 5.137 0 0 0-5.137-8.898" fill="#FCDDA4" mask="url(#o0ocn2r62bR)"/>
        </g>
        <path d="M19.11 95.9c18.49 18.489 46.861 21.048 68.105 7.707l23.758 6.367-6.366-23.76C117.947 64.972 115.39 36.6 96.9 18.112 75.42-3.37 40.591-3.37 19.111 18.11c-21.481 21.48-21.481 56.307 0 77.788" stroke="#000" stroke-width="2" stroke-linecap="round" stroke-linejoin="round"/>
        <g>
            <path d="m127.676 168.997-3.773-15.194 7.062-5.406c5.877-3.761 10.344-2.82 10.344-2.82l2.052-.935c1.195-.952.064.699.064.699l22.331-1.411c24.934 0 23.508 44.373 23.508 44.373-.038.306-.08.601-.126.887-.72 4.496-4.583 7.81-9.137 7.81h-44.569c-11.048-.94-11.519-12.694-11.519-12.694l-.705.527c0-7.28 2.089-12.381 4.468-15.836" fill="#F3B1B5"/>
            <path d="m127.676 168.997-3.773-15.194 7.062-5.406c5.877-3.761 10.344-2.82 10.344-2.82l2.052-.935c1.195-.952.064.699.064.699l22.331-1.411c24.934 0 23.508 44.373 23.508 44.373-.038.306-.08.601-.126.887-.72 4.496-4.583 7.81-9.137 7.81h-44.569c-11.048-.94-11.519-12.694-11.519-12.694l-.705.527c0-7.28 2.089-12.381 4.468-15.836z" stroke="#1B282C" stroke-width="1.626" stroke-linecap="round" stroke-linejoin="round"/>
            <path d="M136.275 126.38a6.657 6.657 0 1 1-13.314-.088 6.657 6.657 0 0 1 13.314.088" fill="#FAD9C7"/>
            <path d="M136.275 126.38a6.657 6.657 0 1 1-13.314-.088 6.657 6.657 0 0 1 13.314.088zm-9.698-.776 3.23.677-3.23-.677z" stroke="#1B282C" stroke-width="1.626" stroke-linecap="round" stroke-linejoin="round"/>
            <path d="m178.534 128.581-2.684-12.253c-1.72-8.191-11.195-14.071-21.38-14.15v-.001h-.034l-.302-.002-.033-.001c-10.187-.054-19.737 5.7-21.566 13.868l-2.846 12.216c-2.67 11.929 7.194 23.473 22.527 23.575l1.556.01.369.002 1.556.01c15.333.102 25.35-11.31 22.837-23.274" fill="#FAD9C7"/>
            <path d="m178.534 128.581-2.684-12.253c-1.72-8.191-11.195-14.071-21.38-14.15v-.001h-.034l-.302-.002-.033-.001h0c-10.187-.054-19.737 5.7-21.566 13.868l-2.846 12.216c-2.67 11.929 7.194 23.473 22.527 23.575l1.556.01.369.002 1.556.01c15.333.102 25.35-11.31 22.837-23.274z" stroke="#1B282C" stroke-width="1.626" stroke-linecap="round" stroke-linejoin="round"/>
            <path d="M143.138 126.097a1.997 1.997 0 1 1-3.993-.026 1.997 1.997 0 0 1 3.993.026M155.017 126.176a1.997 1.997 0 1 1-3.993-.026 1.997 1.997 0 0 1 3.993.026" fill="#1B282C"/>
            <path d="M152.615 145.66c-3.036 2.073-7.425 1.893-10.28-.422" stroke="#1B282C" stroke-width="1.626" stroke-linecap="round" stroke-linejoin="round"/>
            <path d="M166.752 132.705a5.889 5.889 0 1 1-11.777-.078 5.889 5.889 0 0 1 11.777.078" fill="#F3B1B5"/>
            <path d="M143.133 120.387s-1.86-2.655-3.845-.32" fill="#FAD9C7"/>
            <path d="M143.133 120.387s-1.86-2.655-3.845-.32" stroke="#1B282C" stroke-width="1.626" stroke-linecap="round" stroke-linejoin="round"/>
            <path d="M154.887 120.464s-1.86-2.654-3.844-.32" fill="#FAD9C7"/>
            <path d="M154.887 120.464s-1.86-2.654-3.844-.32" stroke="#1B282C" stroke-width="1.626" stroke-linecap="round" stroke-linejoin="round"/>
            <path d="M134.255 138.517a5.889 5.889 0 0 0 .078-11.777 5.864 5.864 0 0 0-4.06 1.593l-.015.068a17.543 17.543 0 0 0 .248 8.736 5.863 5.863 0 0 0 3.749 1.38" fill="#F3B1B5"/>
            <path d="M166.536 149.974s13.655-2.363 10.49-23.915c-.611-4.168-3.766-7.567-7.896-8.398-4.265-.857-9.461-3.748-10.932-12.485 0 0-6.704 6.05-1.635 9.646 0 0-14.06 2.126-21.418-1.144 0 0 .817-6.05 3.76-7.358 2.943-1.308-.49-.654-.49-.654s-6.214 7.848-6.54 14.388l-2.213-.375s-.73-23.332 23.303-22.514c0 0 20.275-3.107 27.795 17.657 0 0 6.703 26.16 15.205 31.228 0 0 4.578 4.578 0 8.83 0 0-1.798 3.596-8.665 2.615 0 0-3.433 5.722-10.137 5.232 0 0-5.068.981-7.357-3.597 0 0-3.76-.981-3.27-8.339" fill="#1B282C"/>
            <path d="M166.536 149.974s13.655-2.363 10.49-23.915c-.611-4.168-3.766-7.567-7.896-8.398-4.265-.857-9.461-3.748-10.932-12.485 0 0-6.704 6.05-1.635 9.646 0 0-14.06 2.126-21.418-1.144 0 0 .817-6.05 3.76-7.358 2.943-1.308-.49-.654-.49-.654s-6.214 7.848-6.54 14.388l-2.213-.375s-.73-23.332 23.303-22.514c0 0 20.275-3.107 27.795 17.657 0 0 6.703 26.16 15.205 31.228 0 0 4.578 4.578 0 8.83 0 0-1.798 3.596-8.665 2.615 0 0-3.433 5.722-10.137 5.232 0 0-5.068.981-7.357-3.597 0 0-3.76-.981-3.27-8.339" stroke="#1B282C" stroke-width="2.168" stroke-linecap="round" stroke-linejoin="round"/>
            <path d="M174.746 136.364a7.205 7.205 0 0 0 .095-14.41" fill="#FAD9C7"/>
            <path d="M174.746 136.364a7.205 7.205 0 0 0 .095-14.41m3.254 6.456c-1.169.229-4.215.76-5.385.99m-28.034-1.612a1.667 1.667 0 0 1 .98-2.145" stroke="#1B282C" stroke-width="1.626" stroke-linecap="round" stroke-linejoin="round"/>
            <path d="M145.146 137.026c.915 0 1.658-.743 1.658-1.658v-2.394a1.658 1.658 0 1 0-3.316 0v2.394c0 .915.743 1.658 1.658 1.658" fill="#E85371"/>
            <path d="M145.146 137.026h0c.915 0 1.658-.743 1.658-1.658v-2.394a1.658 1.658 0 1 0-3.316 0v2.394c0 .915.743 1.658 1.658 1.658z" stroke="#1B282C" stroke-width="1.626" stroke-linecap="round" stroke-linejoin="round"/>
            <path d="m111.924 162.972 11.98-9.17 4.94 19.898-11.748 7.137c-7.992 4.937-12.46-1.175-12.46-1.175s-1.88-4.231-1.88-4.467c0-6.385 9.168-12.223 9.168-12.223" fill="#FAD9C7"/>
            <path d="m111.924 162.972 11.98-9.17 4.94 19.898-11.748 7.137c-7.992 4.937-12.46-1.175-12.46-1.175s-1.88-4.231-1.88-4.467c0-6.385 9.168-12.223 9.168-12.223z" stroke="#1B282C" stroke-width="1.626" stroke-linecap="round" stroke-linejoin="round"/>
            <path d="M134.716 157.792v3.412a3.89 3.89 0 0 1-1.798 3.287c-1.582 1.004-3.844 2.637-5.241 4.506 0 0-2.785 3.444-2.785 7.104l7.459 8.96" fill="#F3B1B5"/>
            <path d="M134.716 157.792v3.412a3.89 3.89 0 0 1-1.798 3.287c-1.582 1.004-3.844 2.637-5.241 4.506 0 0-2.785 3.444-2.785 7.104l7.459 8.96" stroke="#1B282C" stroke-width="1.626" stroke-linecap="round" stroke-linejoin="round"/>
            <path d="M92.295 181.425c0 4.739 11.63 8.58 25.976 8.58 14.347 0 25.976-3.841 25.976-8.58s-11.63-8.58-25.976-8.58c-14.346 0-25.976 3.841-25.976 8.58" fill="#FEFEFE"/>
            <path d="M92.295 181.425c0 4.739 11.63 8.58 25.976 8.58 14.347 0 25.976-3.841 25.976-8.58s-11.63-8.58-25.976-8.58c-14.346 0-25.976 3.841-25.976 8.58z" stroke="#1B282C" stroke-width="1.626" stroke-linecap="round" stroke-linejoin="round"/>
            <path d="M99.23 181.425c0 2.661 8.525 4.82 19.041 4.82 10.517 0 19.042-2.159 19.042-4.82 0-2.661-8.525-4.82-19.042-4.82-10.516 0-19.04 2.159-19.04 4.82" fill="#FEFEFE"/>
            <path d="M99.23 181.425c0 2.661 8.525 4.82 19.041 4.82 10.517 0 19.042-2.159 19.042-4.82 0-2.661-8.525-4.82-19.042-4.82-10.516 0-19.04 2.159-19.04 4.82z" stroke="#1B282C" stroke-width="1.626" stroke-linecap="round" stroke-linejoin="round"/>
            <path d="M153.768 170.964c3.112-.39 4.792-2.209 5.675-3.762l19.246 16.521c-6.352 10.16-15.753 7.928-15.753 7.928l-20.464-2.339a4.963 4.963 0 0 1-4.396-4.725l-.325-7.803a4.964 4.964 0 0 1 4.672-5.163l11.345-.657z" fill="#FAD9C7"/>
            <path d="M153.768 170.964c3.112-.39 4.792-2.209 5.675-3.762l19.246 16.521c-6.352 10.16-15.753 7.928-15.753 7.928l-20.464-2.339a4.963 4.963 0 0 1-4.396-4.725l-.325-7.803a4.964 4.964 0 0 1 4.672-5.163l11.345-.657z" stroke="#1B282C" stroke-width="1.626" stroke-linecap="round" stroke-linejoin="round"/>
            <g>
                <path d="m142.34 176.054-5.467.854c-1.2.187-2.333-.628-2.518-1.813l-.016-.099c-.185-1.185.645-2.308 1.846-2.495l5.467-.855" fill="#FAD9C7"/>
                <path d="m142.34 176.054-5.467.854c-1.2.187-2.333-.628-2.518-1.813l-.016-.099c-.185-1.185.645-2.308 1.846-2.495l5.467-.855" stroke="#1B282C" stroke-width="1.626" stroke-linecap="round" stroke-linejoin="round"/>
            </g>
            <g>
                <path d="m143.03 180.46-5.468.856c-1.2.187-2.333-.629-2.518-1.813l-.016-.1c-.185-1.184.645-2.307 1.846-2.495l5.467-.855" fill="#FAD9C7"/>
                <path d="m143.03 180.46-5.468.856c-1.2.187-2.333-.629-2.518-1.813l-.016-.1c-.185-1.184.645-2.307 1.846-2.495l5.467-.855" stroke="#1B282C" stroke-width="1.626" stroke-linecap="round" stroke-linejoin="round"/>
            </g>
            <g>
                <path d="m143.718 184.868-5.467.855c-1.2.188-2.333-.628-2.518-1.813l-.016-.1c-.185-1.184.645-2.307 1.846-2.495l5.467-.855" fill="#FAD9C7"/>
                <path d="m143.718 184.868-5.467.855c-1.2.188-2.333-.628-2.518-1.813l-.016-.1c-.185-1.184.645-2.307 1.846-2.495l5.467-.855" stroke="#1B282C" stroke-width="1.626" stroke-linecap="round" stroke-linejoin="round"/>
            </g>
            <g>
                <path d="m144.407 189.275-5.467.855c-1.2.187-2.333-.628-2.518-1.813l-.016-.1c-.185-1.184.645-2.307 1.846-2.494l5.467-.855" fill="#FAD9C7"/>
                <path d="m144.407 189.275-5.467.855c-1.2.187-2.333-.628-2.518-1.813l-.016-.1c-.185-1.184.645-2.307 1.846-2.494l5.467-.855" stroke="#1B282C" stroke-width="1.626" stroke-linecap="round" stroke-linejoin="round"/>
            </g>
            <path d="m159.645 167.438 4.936-10.814m14.105 26.799 6.77-9.936" stroke="#1B282C" stroke-width="1.626" stroke-linecap="round" stroke-linejoin="round"/>
            <g>
                <path d="M98.374 183.942c.564 1.924 3.82-1.43 5.825-1.406 2.005.023 1.979 2.334 3.984 2.358 2.003.023 2.03-2.289 4.034-2.266 2.005.023 1.978 2.335 3.982 2.358 2.004.023 2.03-2.288 4.035-2.265 2.003.023 1.976 2.334 3.98 2.358 1.502.017 1.893-1.279 2.84-1.918.788-.533 1.362-1.327 1.525-2.265l.44-2.54-18.505-2.516-5.244.47-8.684 1.893 1.788 5.739z" fill="#FAD17F"/>
                <path d="M98.374 183.942c.564 1.924 3.82-1.43 5.825-1.406 2.005.023 1.979 2.334 3.984 2.358 2.003.023 2.03-2.289 4.034-2.266 2.005.023 1.978 2.335 3.982 2.358 2.004.023 2.03-2.288 4.035-2.265 2.003.023 1.976 2.334 3.98 2.358 1.502.017 1.893-1.279 2.84-1.918.788-.533 1.362-1.327 1.525-2.265l.44-2.54-18.505-2.516-5.244.47-8.684 1.893 1.788 5.739z" stroke="#1B282C" stroke-width="1.355" stroke-linecap="round" stroke-linejoin="round"/>
                <path d="M96.586 178.203c1.825-5.824 6.63-11.796 13.392-15.856a33.847 33.847 0 0 1 3.19-1.69c.44-.204.961-.101 1.286.26l3.226 3.589c-6.12 4.214-12.232 9.182-16.621 15.159l-3.434-.04a1.098 1.098 0 0 1-1.039-1.422" fill="#F5AB00"/>
                <path d="M96.586 178.203c1.825-5.824 6.63-11.796 13.392-15.856a33.847 33.847 0 0 1 3.19-1.69c.44-.204.961-.101 1.286.26l3.226 3.589c-6.12 4.214-12.232 9.182-16.621 15.159l-3.434-.04a1.098 1.098 0 0 1-1.039-1.422z" stroke="#1B282C" stroke-width="1.355" stroke-linecap="round" stroke-linejoin="round"/>
                <path d="m120.588 179.89-21.59-.249c2.258-5.924 6.27-11.064 11.615-14.481a31.46 31.46 0 0 1 2.633-1.51l2.443-1.358 12.88 14.332c1.165 1.297.23 3.36-1.513 3.341" fill="#FAD17F"/>
                <path d="m120.588 179.89-21.59-.249c2.258-5.924 6.27-11.064 11.615-14.481a31.46 31.46 0 0 1 2.633-1.51l2.443-1.358 12.88 14.332c1.165 1.297.23 3.36-1.513 3.341" stroke="#1B282C" stroke-width="1.355" stroke-linecap="round" stroke-linejoin="round"/>
                <path d="M111.12 168.253c0 .992 1.404 1.797 3.134 1.797s3.133-.805 3.133-1.797c0-.992-1.402-1.796-3.133-1.796-1.73 0-3.134.804-3.134 1.796" fill="#E85371"/>
                <path d="M111.12 168.253c0 .992 1.404 1.797 3.134 1.797s3.133-.805 3.133-1.797c0-.992-1.402-1.796-3.133-1.796-1.73 0-3.134.804-3.134 1.796z" stroke="#1B282C" stroke-width="1.084" stroke-linecap="round" stroke-linejoin="round"/>
                <path d="M103.899 174.595c0 .992 1.403 1.796 3.134 1.796 1.73 0 3.133-.804 3.133-1.796 0-.993-1.403-1.797-3.133-1.797-1.731 0-3.134.804-3.134 1.797" fill="#E85371"/>
                <path d="M103.899 174.595c0 .992 1.403 1.796 3.134 1.796 1.73 0 3.133-.804 3.133-1.796 0-.993-1.403-1.797-3.133-1.797-1.731 0-3.134.804-3.134 1.797z" stroke="#1B282C" stroke-width="1.084" stroke-linecap="round" stroke-linejoin="round"/>
                <path d="M117.387 175.387c0 .992 1.403 1.797 3.134 1.797 1.73 0 3.133-.805 3.133-1.797 0-.992-1.403-1.796-3.133-1.796s-3.134.804-3.134 1.796" fill="#E85371"/>
                <path d="M117.387 175.387c0 .992 1.403 1.797 3.134 1.797 1.73 0 3.133-.805 3.133-1.797 0-.992-1.403-1.796-3.133-1.796s-3.134.804-3.134 1.796z" stroke="#1B282C" stroke-width="1.084" stroke-linecap="round" stroke-linejoin="round"/>
                <path d="m172.46 111.622 5.87 5.378a4.973 4.973 0 1 0 5.547-8.133l-7.15-3.5-4.267 6.255z" fill="#E85371"/>
                <path d="m172.46 111.622 5.87 5.378a4.973 4.973 0 1 0 5.547-8.133l-7.15-3.5-4.267 6.255z" stroke="#1B282C" stroke-width="1.626" stroke-linecap="round" stroke-linejoin="round"/>
                <path d="m172.46 111.622 5.87 5.378a4.973 4.973 0 1 0 5.547-8.133l-7.15-3.5-4.267 6.255z" fill="#E85371"/>
                <path d="m172.46 111.622 5.87 5.378a4.973 4.973 0 1 0 5.547-8.133l-7.15-3.5-4.267 6.255z" stroke="#1B282C" stroke-width="1.626" stroke-linecap="round" stroke-linejoin="round"/>
                <path d="M178.49 112.743c-.566-.1-1.2-.359-1.804-.77-.575-.392-1.028-.86-1.329-1.326" fill="#E85371"/>
                <path d="M178.49 112.743c-.566-.1-1.2-.359-1.804-.77-.575-.392-1.028-.86-1.329-1.326" stroke="#1B282C" stroke-width="1.626" stroke-linecap="round" stroke-linejoin="round"/>
                <path d="M176.852 108.456c.544.108 1.145.36 1.719.752.604.412 1.078.908 1.376 1.4" fill="#E85371"/>
                <path d="M176.852 108.456c.544.108 1.145.36 1.719.752.604.412 1.078.908 1.376 1.4" stroke="#1B282C" stroke-width="1.626" stroke-linecap="round" stroke-linejoin="round"/>
                <path d="m174.56 103.89-5.87-5.379a4.973 4.973 0 1 0-5.547 8.133l7.15 3.5 4.267-6.255z" fill="#E85371"/>
                <path d="m174.56 103.89-5.87-5.379a4.973 4.973 0 1 0-5.547 8.133l7.15 3.5 4.267-6.255z" stroke="#1B282C" stroke-width="1.626" stroke-linecap="round" stroke-linejoin="round"/>
                <path d="m174.56 103.89-5.87-5.379a4.973 4.973 0 1 0-5.547 8.133l7.15 3.5 4.267-6.255z" fill="#E85371"/>
                <path d="m174.56 103.89-5.87-5.379a4.973 4.973 0 1 0-5.547 8.133l7.15 3.5 4.267-6.255z" stroke="#1B282C" stroke-width="1.626" stroke-linecap="round" stroke-linejoin="round"/>
                <path d="M168.53 102.769c.566.099 1.201.359 1.805.77.574.392 1.027.86 1.328 1.326" fill="#E85371"/>
                <path d="M168.53 102.769c.566.099 1.201.359 1.805.77.574.392 1.027.86 1.328 1.326" stroke="#1B282C" stroke-width="1.626" stroke-linecap="round" stroke-linejoin="round"/>
                <g>
                    <path d="M170.169 107.056c-.545-.109-1.146-.36-1.72-.752-.604-.412-1.077-.908-1.376-1.4" fill="#E85371"/>
                    <path d="M170.169 107.056c-.545-.109-1.146-.36-1.72-.752-.604-.412-1.077-.908-1.376-1.4" stroke="#1B282C" stroke-width="1.626" stroke-linecap="round" stroke-linejoin="round"/>
                </g>
                <path d="M171.125 111.254a2.93 2.93 0 0 0 4.07-.77l1.47-2.156a2.929 2.929 0 1 0-4.84-3.3l-1.47 2.155a2.93 2.93 0 0 0 .77 4.07" fill="#E85371"/>
                <path d="M171.125 111.254h0a2.93 2.93 0 0 0 4.07-.77l1.47-2.156a2.929 2.929 0 1 0-4.84-3.3l-1.47 2.155a2.93 2.93 0 0 0 .77 4.07z" stroke="#1B282C" stroke-width="1.626" stroke-linecap="round" stroke-linejoin="round"/>
            </g>
        </g>
    </g>
</svg>
