<svg width="200" height="200" viewBox="0 0 200 200" xmlns="http://www.w3.org/2000/svg" xmlns:xlink="http://www.w3.org/1999/xlink">
    <defs>
        <path id="qydyap8p3a" d="M0 0h86.988v78.803H0z"/>
        <path id="c5k2njl0ic" d="M0 0h53.379v56.304H0z"/>
        <path id="2kz84pkvqe" d="M0 0h100.085v16.364H0z"/>
        <path id="sctae8xljg" d="M0 180h117.663V0H0z"/>
        <path id="55mt26atzi" d="M0 0h43.604v90.717H0z"/>
    </defs>
    <g fill="none" fill-rule="evenodd">
        <path d="m104.975 166.09-27.147-.83 1.099-.837-2.244-2.804c-.243-.2-.484-.43-.724-.674l32.6-1.41-3.584 6.555z" fill="#FAD9C7"/>
        <path d="m79.688 164.544 24.838.761 2.701-4.941-29.538 1.279 1.84 2.298c.13.163.188.37.163.577l-.004.026m25.287 2.318h-.024l-27.147-.832a.772.772 0 0 1-.443-1.385l.47-.357-1.701-2.126c-.218-.183-.45-.4-.721-.676a.772.772 0 0 1 .517-1.312l32.6-1.41a.772.772 0 0 1 .71 1.141l-3.584 6.556a.771.771 0 0 1-.677.4" fill="#1B282C"/>
        <path d="M100.52 174.238H74.092c-2.604 0-3.72-3.308-1.647-4.885l5.381-4.094 27.148.832-4.456 8.147z" fill="#1B282C"/>
        <path d="m78.077 166.039-5.163 3.929c-.822.624-.883 1.532-.667 2.172.216.642.815 1.327 1.846 1.327h25.969l3.633-6.644-25.618-.784zm22.442 8.97H74.093a3.445 3.445 0 0 1-3.308-2.376 3.447 3.447 0 0 1 1.195-3.893l5.38-4.095a.773.773 0 0 1 .491-.156l27.147.83a.77.77 0 0 1 .653 1.142l-4.455 8.147a.772.772 0 0 1-.677.401z" fill="#1B282C"/>
        <path d="m81.45 112.545 42.905-5.89-4.206 31.689-11.589 21.19-32.6 1.411c-5.836-5.944-10.494-24.564-10.494-24.564-5.048-19.91 15.984-23.836 15.984-23.836" fill="#287B96"/>
        <path d="M81.577 113.306c-.437.087-9.414 1.96-13.756 8.76-2.464 3.86-3.005 8.612-1.607 14.125.046.184 4.547 17.984 10.062 23.968l31.816-1.376 11.311-20.683 4.055-30.543-41.881 5.749zm-5.618 48.41a.77.77 0 0 1-.55-.23c-5.914-6.025-10.499-24.15-10.691-24.918-1.507-5.945-.899-11.107 1.81-15.342 4.795-7.5 14.375-9.364 14.78-9.44a.86.86 0 0 1 .037-.006l42.906-5.889a.77.77 0 0 1 .869.866l-4.206 31.688a.778.778 0 0 1-.088.268l-11.589 21.192a.774.774 0 0 1-.644.4l-32.6 1.412h-.034z" fill="#1B282C"/>
        <path d="M109.822 105.79c2.847-.974 5.827-1.597 8.9-1.704l34.338 14.307 2.26 13.95s-.892 2.733-3.384 5.9c-5.648-7.104-20.442-23.598-42.114-32.453" fill="#FAD9C7"/>
        <path d="M112.07 105.904c20.138 8.815 34.13 24.046 39.846 31.084 1.623-2.247 2.402-4.156 2.612-4.718l-2.16-13.33-33.786-14.077c-2.128.088-4.31.437-6.512 1.04zm39.865 33.11a.774.774 0 0 1-.604-.291c-5.358-6.742-20.159-23.376-41.8-32.22a.771.771 0 0 1 .042-1.443c3.08-1.054 6.15-1.641 9.122-1.745a.714.714 0 0 1 .323.059l34.34 14.308a.77.77 0 0 1 .464.588l2.26 13.95c.02.12.01.246-.028.363-.038.116-.965 2.9-3.512 6.137a.771.771 0 0 1-.605.294h-.002z" fill="#1B282C"/>
        <path d="m93.866 158.904 35.992-4.274c.368 2.627.495 5.88-.048 9.547l.578 1.116-30.63-1.206.721-.983s-2.921-1.537-6.613-4.2" fill="#FAD9C7"/>
        <path d="m101.203 163.371 27.893 1.099a.775.775 0 0 1-.05-.406c.425-2.863.473-5.745.144-8.578l-33.223 3.945c2.794 1.891 4.847 2.978 4.871 2.99a.773.773 0 0 1 .365.95m29.185 2.693h-.03l-30.63-1.206a.772.772 0 0 1-.591-1.228l.202-.275a66.736 66.736 0 0 1-5.924-3.825.773.773 0 0 1 .36-1.392l35.992-4.274a.774.774 0 0 1 .855.66 34.238 34.238 0 0 1-.013 9.518l.464.896a.772.772 0 0 1-.685 1.126" fill="#1B282C"/>
        <path d="M81.969 128.05s11.805-16.767 27.853-22.26c21.672 8.855 36.466 25.35 42.113 32.453-3.69 4.69-10.89 10.335-23.913 9.48 0 0 1.237 2.617 1.836 6.907l-35.992 4.274c-8.395-6.054-20.778-17.935-11.897-30.853" fill="#287B96"/>
        <path d="M82.602 128.492c-8.444 12.29 3.435 23.759 11.472 29.61l34.902-4.143c-.604-3.648-1.641-5.882-1.652-5.906a.772.772 0 0 1 .748-1.099c12.167.795 19.12-4.184 22.874-8.713-5.636-6.993-20.151-22.962-41.147-31.626-15.419 5.42-26.989 21.584-27.197 21.877m11.264 31.184a.771.771 0 0 1-.451-.146c-19.79-14.273-16.064-26.123-12.081-31.916l.004-.007c.489-.693 12.134-17.036 28.234-22.547a.773.773 0 0 1 .541.016c21.978 8.98 36.992 25.85 42.426 32.688a.77.77 0 0 1 .003.956c-3.766 4.786-10.842 10.297-23.356 9.835.43 1.191 1.057 3.25 1.437 5.969a.773.773 0 0 1-.674.872l-35.993 4.274a.72.72 0 0 1-.09.006M127.744 173.835H98.751c-2.55 0-4.017-2.896-2.51-4.952l3.518-4.796 30.63 1.206 1.173 2.263c1.484 2.862-.593 6.279-3.818 6.279" fill="#1B282C"/>
        <path d="m100.138 164.874-3.275 4.465a2.302 2.302 0 0 0-.2 2.442 2.3 2.3 0 0 0 2.087 1.282h28.994c1.243 0 2.37-.634 3.016-1.695a3.504 3.504 0 0 0 .117-3.457l-.967-1.865-29.772-1.172zm27.606 9.732H98.75a3.865 3.865 0 0 1-3.463-2.127 3.865 3.865 0 0 1 .333-4.052l3.517-4.796a.771.771 0 0 1 .652-.314l30.63 1.205a.77.77 0 0 1 .654.416l1.174 2.263a5.035 5.035 0 0 1-.17 4.968 5.034 5.034 0 0 1-4.333 2.437z" fill="#1B282C"/>
        <path d="M71.596 84.86c2.683-16.901 13.682-15.023 13.682-15.023 13.165 2.445 8.003 15.172 3.74 22.565l-18.67.16 1.248-7.702z" fill="#D9E159"/>
        <path d="M84.326 70.549c-1.17 0-3.441.247-5.697 1.877-3.207 2.316-5.317 6.54-6.271 12.555v.002l-1.103 6.8 17.313-.15c2.413-4.264 5.844-11.717 3.64-16.494-1.08-2.345-3.46-3.873-7.072-4.544-.005 0-.306-.046-.81-.046zM70.347 93.334a.769.769 0 0 1-.761-.895l1.249-7.701c1.024-6.456 3.354-11.027 6.925-13.587 3.762-2.7 7.49-2.1 7.648-2.075 4.143.77 6.899 2.592 8.201 5.416 2.434 5.277-.79 12.862-3.923 18.295a.77.77 0 0 1-.66.386l-18.672.16h-.007z" fill="#1B282C"/>
        <path d="m70.347 92.562 18.671-.16c-1.818 3.152-3.472 5.335-3.472 5.335-7.243 5.097-9.658 14.754-9.658 14.754 3.22 5.366.537 14.487.537 14.487l-10.463-1.342c-1.61-4.56.805-10.999.805-10.999l3.58-22.075z" fill="#FAD9C7"/>
        <path d="m66.548 124.934 9.302 1.192c.516-2.113 1.911-9.015-.623-13.238a.77.77 0 0 1-.087-.584c.1-.404 2.546-9.907 9.86-15.126a55.843 55.843 0 0 0 2.658-3.994l-16.654.144-3.475 21.432a.818.818 0 0 1-.039.148c-.022.06-2.142 5.815-.942 10.026zm9.877 2.815a.761.761 0 0 1-.098-.006L65.864 126.4a.772.772 0 0 1-.629-.508c-1.608-4.555.5-10.671.783-11.452l3.568-22.002a.772.772 0 0 1 .754-.648l18.671-.161h.007a.773.773 0 0 1 .668 1.157c-1.821 3.158-3.456 5.325-3.526 5.416a.763.763 0 0 1-.17.165c-6.235 4.387-8.804 12.39-9.273 14.018 3.098 5.61.56 14.43.448 14.81a.771.771 0 0 1-.74.553z" fill="#1B282C"/>
        <path d="m77.057 121.826.698 4.712c.153 1.035-.556 2.005-1.578 2.156l-.085.013c-1.021.151-1.982-.571-2.136-1.605l-.698-4.713" fill="#FAD9C7"/>
        <path d="M75.818 129.499a2.67 2.67 0 0 1-2.625-2.284l-.698-4.713a.77.77 0 1 1 1.526-.226l.698 4.712c.092.616.657 1.046 1.26.956l.086-.013c.602-.09 1.018-.663.927-1.28l-.698-4.712a.771.771 0 1 1 1.526-.226l.698 4.712c.216 1.458-.784 2.818-2.227 3.032l-.087.013c-.13.019-.26.029-.386.029" fill="#1B282C"/>
        <path d="m69.295 124.336-.662 4.718c-.146 1.035-1.102 1.765-2.124 1.621l-.085-.011c-1.023-.144-1.74-1.11-1.595-2.144l.663-4.718" fill="#FAD9C7"/>
        <path d="M66.768 131.465c-.12 0-.243-.009-.366-.026l-.082-.01c-1.45-.205-2.46-1.558-2.255-3.016l.663-4.719a.772.772 0 0 1 1.528.215l-.663 4.718a1.12 1.12 0 0 0 .939 1.273l.08.01a1.117 1.117 0 0 0 1.257-.963l.662-4.719a.772.772 0 0 1 1.528.215l-.662 4.719a2.67 2.67 0 0 1-2.63 2.303" fill="#1B282C"/>
        <path d="m73.099 124.87-.663 4.718c-.146 1.035-1.101 1.765-2.124 1.622l-.085-.012c-1.022-.144-1.74-1.109-1.595-2.144l.663-4.718" fill="#FAD9C7"/>
        <path d="M70.572 132c-.122 0-.244-.01-.367-.026l-.086-.012a2.619 2.619 0 0 1-1.746-1.042 2.664 2.664 0 0 1-.504-1.974l.662-4.718a.772.772 0 0 1 1.528.215l-.662 4.719c-.043.298.034.596.213.838.179.24.436.393.725.434l.086.011c.598.088 1.165-.348 1.251-.964l.662-4.718a.772.772 0 0 1 1.528.214l-.662 4.718a2.672 2.672 0 0 1-2.628 2.304" fill="#1B282C"/>
        <path d="M114.12 55.082s21.701 1.878 32.08 24.144l7.863 21.194 3.774 20.656s.629 5.902-2.516 11.267c0 0-6.29-19.315-33.024-20.388l-33.339 1.341s-15.411 2.415-16.04-3.756c0 0-2.831-12.608 5.346-18.778 0 0-5.032-33.265 35.855-35.68" fill="#D9E159"/>
        <g transform="translate(71.672 54.311)">
            <mask id="pz05wo5beb" fill="#fff">
                <use xlink:href="#qydyap8p3a"/>
            </mask>
            <path d="M50.625 56.873h.031c14.06.565 22.473 6.198 27.054 10.825 3.324 3.356 5.152 6.634 6.021 8.506 2.046-4.472 1.703-8.957 1.67-9.334l-3.757-20.557-7.828-21.1C63.979 4.146 43.606 1.67 42.432 1.545c-13.19.79-22.888 4.9-28.823 12.215-8.041 9.912-6.273 22.45-6.254 22.576a.773.773 0 0 1-.298.73c-3.199 2.413-5.026 6.15-5.432 11.108-.31 3.769.366 6.856.373 6.887.007.03.012.06.015.09.077.754.436 1.368 1.098 1.879 3.613 2.787 13.952 1.21 14.056 1.194a.698.698 0 0 1 .089-.01l33.338-1.34.03-.001m33.025 21.93a.77.77 0 0 1-.733-.532c-.062-.187-6.472-18.803-32.291-19.855L17.36 59.754c-.876.134-11.146 1.618-15.191-1.502-.99-.763-1.557-1.738-1.687-2.899-.09-.421-.703-3.475-.4-7.261.416-5.176 2.38-9.307 5.689-11.98-.272-2.431-1.056-13.825 6.626-23.308C18.625 5.116 28.72.81 42.402.002a.792.792 0 0 1 .113 0c.22.02 22.266 2.176 32.712 24.588.01.019.017.037.024.057l7.864 21.193a.727.727 0 0 1 .035.13l3.774 20.656a.66.66 0 0 1 .009.057c.027.25.618 6.218-2.618 11.74a.772.772 0 0 1-.666.38" fill="#1B282C" mask="url(#pz05wo5beb)"/>
        </g>
        <path d="m87.614 70.373.805 5.634s-5.097 3.488.536 5.634c0 0 12.34 4.292 19.852-12.877" fill="#FAD9C7"/>
        <path d="M92.36 82.858c-2.181 0-3.615-.474-3.658-.489-1.949-.742-3.002-1.752-3.152-3.012-.197-1.662 1.289-3.087 2.04-3.692l-.74-5.183a.772.772 0 0 1 1.527-.218l.805 5.634a.772.772 0 0 1-.327.746c-.497.342-1.891 1.544-1.772 2.534.096.801 1.22 1.389 2.147 1.742.453.155 11.753 3.804 18.87-12.466a.772.772 0 0 1 1.414.619C104.343 80.89 96.803 82.858 92.36 82.858" fill="#1B282C"/>
        <path d="m118 57.003 2.31-13.947c1.622-9.294-5.837-19.406-16.466-23.747l-.035-.014-.314-.129-.035-.014C92.82 14.84 80.418 16.87 75.09 24.657l-8.084 11.598c-7.78 11.37-2.279 27.575 13.729 34.089l1.624.66.385.158 1.624.66c16.008 6.514 31.261-1.246 33.63-14.818" fill="#FAD9C7"/>
        <path d="M92.137 17.683c-6.91 0-13.128 2.614-16.41 7.408L67.64 36.695c-3.353 4.9-4.234 10.816-2.479 16.654 2.139 7.113 7.922 13.047 15.865 16.28l3.634 1.479c7.943 3.232 16.226 3.021 22.724-.578 5.332-2.953 8.832-7.803 9.855-13.656l2.31-13.944c1.521-8.716-5.357-18.562-15.997-22.907l-.349-.143c-3.664-1.485-7.46-2.197-11.066-2.197zm3.755 57.249c-3.869 0-7.884-.797-11.813-2.396l-3.634-1.478c-8.378-3.41-14.487-9.703-16.761-17.265-1.893-6.294-.938-12.678 2.687-17.975l8.087-11.603c5.39-7.876 17.982-10.362 29.291-5.777l.352.142c11.33 4.628 18.61 15.201 16.968 24.608l-2.309 13.94-.001.008c-1.104 6.323-4.878 11.56-10.628 14.743-3.667 2.032-7.86 3.053-12.239 3.053z" fill="#1B282C"/>
        <path d="M80.866 33.62a2.25 2.25 0 1 1-4.501 0 2.25 2.25 0 0 1 4.501 0" fill="#1B282C"/>
        <path d="M72.043 31.743s-7.243.805-3.756 4.56" fill="#FAD9C7"/>
        <path d="M68.287 37.075a.77.77 0 0 1-.565-.247c-1.039-1.119-1.381-2.183-1.017-3.163.793-2.133 4.799-2.638 5.253-2.688a.771.771 0 0 1 .17 1.533c-1.45.164-3.645.797-3.977 1.693-.18.485.282 1.124.702 1.576a.771.771 0 0 1-.566 1.296" fill="#1B282C"/>
        <path d="M66.141 39.523s6.17-1.878 6.439 3.487c0 0-1.342 7.243-8.585.536 0 0 .537-2.414 2.146-4.023" fill="#E85371"/>
        <path d="M64.866 43.294c2.093 1.855 3.833 2.624 5.044 2.227 1.316-.432 1.799-2.173 1.894-2.572-.075-1.128-.443-1.91-1.125-2.391-1.329-.94-3.492-.503-4.131-.346-.958 1.035-1.471 2.402-1.682 3.082m4.383 3.871c-1.647 0-3.585-1.022-5.778-3.053a.77.77 0 0 1-.229-.733c.024-.107.606-2.654 2.354-4.402.09-.09.2-.156.32-.192.141-.043 3.461-1.028 5.648.508 1.102.776 1.703 2.013 1.786 3.678a.74.74 0 0 1-.012.18c-.023.124-.59 3.053-2.937 3.832-.367.122-.75.182-1.152.182" fill="#1B282C"/>
        <path d="M86.606 42.254s1.82 5.878-1.458 6.676c0 0-3.056-1.012-1.48-4.635" fill="#CAD8EE"/>
        <path d="M85.148 49.701a.762.762 0 0 1-.242-.04c-.062-.019-1.505-.511-2.153-1.963-.473-1.058-.403-2.306.208-3.711a.77.77 0 1 1 1.415.616c-.428.983-.503 1.808-.221 2.451.254.583.759.91 1.04 1.055a1.44 1.44 0 0 0 .758-.67c.768-1.35.199-4.036-.084-4.958a.77.77 0 0 1 1.473-.455c.125.403 1.185 4.002-.046 6.173a3.03 3.03 0 0 1-1.966 1.48.779.779 0 0 1-.182.022" fill="#1B282C"/>
        <path d="M92.723 51.52s.873 6.09-2.49 6.363c0 0-2.859-1.48-.732-4.81" fill="#CAD8EE"/>
        <path d="M90.232 58.654a.773.773 0 0 1-.355-.086c-.057-.03-1.404-.743-1.816-2.278-.3-1.12-.034-2.342.79-3.632a.772.772 0 0 1 1.3.83c-.577.904-.78 1.707-.604 2.387.16.615.606 1.018.86 1.204.346-.074.622-.25.855-.541.971-1.214.833-3.956.698-4.91a.772.772 0 0 1 1.527-.219c.06.418.54 4.14-1.018 6.09a3.033 3.033 0 0 1-2.237 1.155M93.443 11.038a38.043 38.043 0 0 0-3.821.282c-3.447.426-14.067 1.27-14.444 5.806-.216 2.6 2.439 3.353 3.304 5.229.083.179 7.569 16.33 17.973 10.193 0 0-3.487 8.048 2.951 9.12 0 0 5.097 3.757 5.366 15.024l12.072 8.584c14.22-12.033 11.74-34.311-1.093-46.26-5.93-5.521-14.288-8.159-22.308-7.978" fill="#1B282C"/>
        <g transform="translate(74.137 10)">
            <mask id="dg4olskfwd" fill="#fff">
                <use xlink:href="#c5k2njl0ic"/>
            </mask>
            <path d="m31.648 46.149 10.994 7.819c5.416-4.874 8.488-11.745 8.67-19.44.22-9.237-3.667-18.493-10.399-24.76-5.457-5.08-13.306-7.897-21.583-7.703-1.214.027-2.465.12-3.718.275-.267.034-.577.068-.921.108-3.054.35-12.346 1.416-12.625 4.762-.088 1.06.472 1.64 1.469 2.572.623.582 1.33 1.243 1.745 2.141.04.088 4.095 8.767 10.071 10.636 2.165.678 4.272.384 6.445-.897a1.03 1.03 0 0 1 1.467 1.295c-.459 1.064-1.425 4.24-.404 6.11.468.856 1.311 1.375 2.58 1.587.16.026.31.09.441.186.221.163 5.35 4.069 5.768 15.309m11.059 10.155c-.208 0-.417-.063-.597-.19l-12.07-8.585a1.028 1.028 0 0 1-.433-.813c-.227-9.506-3.96-13.35-4.787-14.085-1.762-.356-3.03-1.224-3.769-2.583-.956-1.756-.767-3.961-.4-5.599a9.331 9.331 0 0 1-5.914.074C7.898 22.383 3.592 13.176 3.41 12.784c-.245-.532-.748-1.002-1.281-1.5C1.11 10.33-.158 9.144.016 7.04.435 2.013 9.906.927 14.456.405c.338-.04.642-.074.903-.107 1.32-.163 2.641-.26 3.924-.29C28.077-.19 36.468 2.82 42.315 8.263 49.47 14.924 53.602 24.76 53.37 34.577c-.203 8.57-3.754 16.2-9.998 21.484-.19.162-.427.243-.664.243" fill="#1B282C" mask="url(#dg4olskfwd)"/>
        </g>
        <path d="M111.305 52.063c-.57.229-5.18 1.708-5.18 1.708l-1.353 2.92 1.074 12.176c.141 1.6 1.846 2.55 3.285 1.838 2.265-1.123 5.37-2.95 7.713-5.429" fill="#1B282C"/>
        <path d="M108.114 71.972a3.305 3.305 0 0 1-3.292-3.013l-1.075-12.177a1.03 1.03 0 0 1 .091-.523l1.353-2.92c.121-.261.345-.46.62-.548 1.768-.567 4.72-1.526 5.11-1.682a1.029 1.029 0 0 1 .768 1.908c-.5.201-3.617 1.207-4.82 1.595l-1.049 2.263 1.05 11.902c.037.417.268.774.631.978a1.24 1.24 0 0 0 1.173.029c2.141-1.062 5.167-2.828 7.422-5.213a1.026 1.026 0 0 1 1.454-.041c.413.39.431 1.04.04 1.453-2.462 2.606-5.711 4.508-8.003 5.643-.466.23-.97.346-1.473.346" fill="#1B282C"/>
        <path d="M134.543 89.336c-.297 4.525-2.218 9.848-7.258 15.692l-30.228-7.925c-.284-2.886-1.303-20.63 15.725-26.972 0 0 3.392-1.657 8.275-.384" fill="#D9E159"/>
        <path d="M127.285 105.8a.787.787 0 0 1-.195-.025L96.86 97.848a.772.772 0 0 1-.572-.67c-.344-3.498-1.177-21.267 16.193-27.758.422-.196 3.89-1.692 8.77-.42a.771.771 0 0 1-.39 1.493c-4.55-1.185-7.71.316-7.741.331a.715.715 0 0 1-.07.03c-15.6 5.81-15.588 21.364-15.272 25.64l29.234 7.665c4.162-4.938 6.436-9.94 6.76-14.873a.772.772 0 0 1 1.54.1c-.354 5.398-2.859 10.83-7.443 16.146a.772.772 0 0 1-.585.268" fill="#1B282C"/>
        <path d="M91.023 114.094s4.48-7.742 6.08-16.59c0 0-.02-.142-.046-.402l30.228 7.926a51.363 51.363 0 0 1-4.263 4.365s-12.48 11.337-19.84 14.102l-7.36 8.848-13.853-4.292s1.374-9.257 9.054-13.957" fill="#FAD9C7"/>
        <path d="m82.859 127.519 12.7 3.934 7.03-8.45a.769.769 0 0 1 .323-.23c7.136-2.681 19.467-13.838 19.591-13.95a52.349 52.349 0 0 0 3.372-3.367l-28.097-7.367c-1.668 8.685-5.905 16.076-6.088 16.391a.768.768 0 0 1-.265.272c-6.138 3.758-8.094 10.637-8.566 12.767zm12.964 5.595a.756.756 0 0 1-.228-.035l-13.854-4.292a.77.77 0 0 1-.535-.85c.057-.39 1.497-9.533 9.242-14.394.642-1.156 4.43-8.2 5.874-16.06-.008-.073-.02-.175-.032-.305a.77.77 0 0 1 .963-.822l30.227 7.926a.772.772 0 0 1 .389 1.25 52.347 52.347 0 0 1-4.327 4.43c-.511.465-12.466 11.281-19.895 14.182l-7.23 8.692a.772.772 0 0 1-.594.278z" fill="#1B282C"/>
        <path d="m87.043 124.598-2.439 4.092c-.535.898-1.7 1.2-2.586.672l-.074-.044c-.887-.53-1.174-1.696-.639-2.595l2.44-4.092" fill="#FAD9C7"/>
        <path d="M82.962 130.395c-.469 0-.928-.126-1.34-.37l-.073-.044c-1.254-.75-1.66-2.387-.906-3.652l2.44-4.092a.772.772 0 0 1 1.324.789l-2.439 4.092a1.12 1.12 0 0 0 .372 1.538l.073.043c.25.15.547.19.836.116.292-.077.538-.261.693-.52l2.438-4.092a.771.771 0 1 1 1.326.79l-2.44 4.092a2.671 2.671 0 0 1-2.304 1.31" fill="#1B282C"/>
        <path d="m90.342 126.564-2.439 4.093c-.535.898-1.7 1.2-2.586.671l-.074-.044c-.887-.529-1.174-1.696-.639-2.594l2.44-4.092" fill="#FAD9C7"/>
        <path d="M86.261 132.361c-.468 0-.928-.125-1.34-.37l-.073-.044c-1.254-.748-1.66-2.386-.907-3.652l2.44-4.092a.77.77 0 1 1 1.325.79l-2.44 4.091a1.12 1.12 0 0 0 .372 1.537l.074.044c.251.15.547.19.836.116.292-.076.538-.26.692-.52l2.44-4.092a.772.772 0 0 1 1.325.79l-2.439 4.092a2.671 2.671 0 0 1-2.305 1.31" fill="#1B282C"/>
        <path d="m93.641 128.53-2.439 4.093c-.535.898-1.7 1.2-2.586.672l-.074-.044c-.887-.53-1.174-1.696-.639-2.595l2.44-4.092" fill="#FAD9C7"/>
        <path d="M89.56 134.327c-.469 0-.928-.125-1.339-.37l-.072-.043c-1.256-.75-1.663-2.387-.908-3.652l2.439-4.092a.771.771 0 0 1 1.325.79l-2.44 4.091a1.12 1.12 0 0 0 .372 1.538l.072.042c.252.15.55.191.838.117.292-.077.538-.26.692-.52l2.44-4.092a.772.772 0 0 1 1.325.79l-2.44 4.092a2.671 2.671 0 0 1-2.304 1.31" fill="#1B282C"/>
        <path d="m96.94 130.497-2.44 4.093c-.534.897-1.698 1.2-2.585.671l-.074-.044c-.887-.529-1.174-1.696-.639-2.594l2.44-4.093" fill="#FAD9C7"/>
        <path d="M92.859 136.294c-.469 0-.928-.125-1.34-.37l-.073-.044a2.617 2.617 0 0 1-1.207-1.637 2.668 2.668 0 0 1 .3-2.015l2.44-4.092a.771.771 0 0 1 1.325.789l-2.44 4.092c-.154.26-.2.564-.127.857.071.29.248.531.499.68l.074.045c.25.149.546.19.836.115.292-.076.538-.261.693-.52l2.439-4.092a.772.772 0 0 1 1.325.79l-2.44 4.093a2.671 2.671 0 0 1-2.304 1.31M96.241 168.883l4.687-6.494a4.367 4.367 0 0 1 5.074-1.537c2.214.83 4.825 2.352 5.43 5.008" fill="#1B282C"/>
        <path d="M96.24 169.655a.771.771 0 0 1-.624-1.223l4.686-6.494a5.15 5.15 0 0 1 5.971-1.808c3.322 1.245 5.366 3.167 5.912 5.558a.77.77 0 1 1-1.504.343c-.537-2.35-2.988-3.722-4.95-4.457a3.606 3.606 0 0 0-4.178 1.267l-4.686 6.494a.771.771 0 0 1-.626.32M74.49 167.778l5.565-4.702a3.974 3.974 0 0 1 4.817-.241c1.772 1.22 3.742 3.137 3.692 5.615" fill="#1B282C"/>
        <path d="M88.565 169.222h-.016a.772.772 0 0 1-.756-.787c.043-2.163-1.802-3.894-3.358-4.966a3.213 3.213 0 0 0-3.883.196l-5.564 4.702a.771.771 0 1 1-.996-1.179l5.565-4.702a4.758 4.758 0 0 1 5.753-.287c2.678 1.844 4.07 4.012 4.026 6.267a.772.772 0 0 1-.771.756M107.43 48.872l-7.068 4.161-1.686-1a5.633 5.633 0 0 1-2.452-6.679l1.968-5.715" fill="#1B282C"/>
        <path d="M100.362 54.062c-.182 0-.364-.048-.525-.144l-1.686-1a6.688 6.688 0 0 1-2.9-7.899l1.968-5.714a1.03 1.03 0 0 1 1.946.67l-1.968 5.714a4.62 4.62 0 0 0 2.004 5.46l1.163.69 6.543-3.852c.49-.29 1.12-.126 1.408.364.29.489.126 1.12-.364 1.408l-7.067 4.16a1.026 1.026 0 0 1-.522.143" fill="#1B282C"/>
        <path d="M94.232 62.608a7.502 7.502 0 0 0 11.099-9.348c-.867-1.835-2.84-2.884-4.86-2.674l-4.327.452" fill="#FAD9C7"/>
        <path d="M101.818 58.563a.773.773 0 0 1-.309-.065l-3.408-1.493a.772.772 0 0 1 .619-1.413l3.409 1.493a.77.77 0 0 1-.31 1.478m-3.288 6.185a8.211 8.211 0 0 1-4.743-1.509.772.772 0 0 1 .888-1.262 6.69 6.69 0 0 0 5.027 1.127 6.687 6.687 0 0 0 4.351-2.758 6.752 6.752 0 0 0 .58-6.757c-.717-1.517-2.362-2.414-4.082-2.235l-4.327.451a.771.771 0 1 1-.16-1.534l4.326-.451c2.373-.247 4.64 1.002 5.637 3.111a8.297 8.297 0 0 1-.712 8.303 8.221 8.221 0 0 1-5.348 3.39c-.48.083-.96.124-1.437.124" fill="#1B282C"/>
        <path d="M46.935 189.229h88.307a5.118 5.118 0 0 0 5.118-5.118v-4.586a5.118 5.118 0 0 0-5.118-5.118H46.935a5.118 5.118 0 0 0-5.118 5.118v4.586a5.118 5.118 0 0 0 5.118 5.118" fill="#8FB3DC"/>
        <g transform="translate(41.045 173.636)">
            <mask id="x7qmz1l7yf" fill="#fff">
                <use xlink:href="#2kz84pkvqe"/>
            </mask>
            <path d="M5.89 1.543A4.352 4.352 0 0 0 1.542 5.89v4.585a4.35 4.35 0 0 0 4.346 4.346h88.307a4.35 4.35 0 0 0 4.347-4.346V5.89a4.352 4.352 0 0 0-4.347-4.347H5.89zm88.306 14.821H5.89A5.896 5.896 0 0 1 0 10.475V5.89A5.896 5.896 0 0 1 5.89 0h88.306a5.896 5.896 0 0 1 5.89 5.89v4.585a5.896 5.896 0 0 1-5.89 5.889z" fill="#1B282C" mask="url(#x7qmz1l7yf)"/>
        </g>
        <path fill="#8FB3DC" d="M63.924 107.92v68.762h-9.9V113.95l-.02.01-1.655-6.04z"/>
        <g transform="translate(41 10)">
            <path d="M13.795 165.91h8.357V98.69H12.36l1.346 4.908c.057.107.09.226.09.352v61.96zm9.129 1.543h-9.9a.772.772 0 0 1-.772-.77v-62.548l-1.647-6.012a.77.77 0 0 1 .743-.975h11.576c.426 0 .771.345.771.771v68.763a.771.771 0 0 1-.771.771z" fill="#1B282C"/>
            <mask id="hynmi83obh" fill="#fff">
                <use xlink:href="#sctae8xljg"/>
            </mask>
            <path fill="#FEFEFE" mask="url(#hynmi83obh)" d="M8.396 166.682h9.9V97.919h-9.9z"/>
            <path d="M9.168 165.91h8.356V98.69H9.168v67.22zm9.128 1.543h-9.9a.772.772 0 0 1-.771-.771V97.919c0-.425.346-.771.772-.771h9.899c.426 0 .771.346.771.771v68.763a.772.772 0 0 1-.771.771z" fill="#1B282C" mask="url(#hynmi83obh)"/>
            <path fill="#8FB3DC" mask="url(#hynmi83obh)" d="M3.856 99.629h25.747v-9.575H3.856z"/>
            <path d="M4.628 98.858h24.204v-8.032H4.628v8.032zm24.975 1.543H3.857a.772.772 0 0 1-.772-.772v-9.575c0-.426.346-.771.772-.771h25.746c.426 0 .771.345.771.771v9.575a.772.772 0 0 1-.77.772z" fill="#1B282C" mask="url(#hynmi83obh)"/>
            <path fill="#FEFEFE" mask="url(#hynmi83obh)" d="M.771 99.629h25.746v-9.575H.771z"/>
        </g>
        <g transform="translate(41 99.283)">
            <mask id="gm0zsew2wj" fill="#fff">
                <use xlink:href="#55mt26atzi"/>
            </mask>
            <path d="M1.543 9.575h24.203V1.543H1.543v8.032zm24.975 1.543H.772A.772.772 0 0 1 0 10.346V.771C0 .345.346 0 .772 0h25.746c.426 0 .77.345.77.771v9.575a.772.772 0 0 1-.77.772z" fill="#1B282C" mask="url(#gm0zsew2wj)"/>
            <path d="M42.833 80.242v4.586a5.118 5.118 0 0 1-5.118 5.118H5.935a5.118 5.118 0 0 1-5.118-5.118v-4.586a5.118 5.118 0 0 1 5.118-5.118h31.78a5.118 5.118 0 0 1 5.118 5.118" fill="#FEFEFE" mask="url(#gm0zsew2wj)"/>
            <path d="M5.935 75.896a4.352 4.352 0 0 0-4.347 4.347v4.585a4.35 4.35 0 0 0 4.347 4.346h31.78a4.35 4.35 0 0 0 4.347-4.346v-4.585a4.352 4.352 0 0 0-4.347-4.347H5.935zm31.78 14.821H5.935a5.896 5.896 0 0 1-5.89-5.889v-4.585a5.896 5.896 0 0 1 5.89-5.89h31.78a5.896 5.896 0 0 1 5.89 5.89v4.585a5.896 5.896 0 0 1-5.89 5.89z" fill="#1B282C" mask="url(#gm0zsew2wj)"/>
        </g>
    </g>
</svg>
