<svg width="200" height="200" viewBox="0 0 200 200" xmlns="http://www.w3.org/2000/svg" xmlns:xlink="http://www.w3.org/1999/xlink">
    <defs>
        <path id="0uhmloybqa" d="M0 0h39.83v27.47H0z"/>
        <path id="lngk5nifuc" d="M0 0h82.216v22.15H0z"/>
        <path id="l41ttf35ce" d="M0 0h15.63v21.023H0z"/>
    </defs>
    <g fill="none" fill-rule="evenodd">
        <path fill="#FEFEFE" d="M67.14 198.406v-79.324h56.61v79.324"/>
        <path d="M123.75 199a.594.594 0 0 1-.593-.594v-78.73H67.733v78.73a.594.594 0 0 1-1.188 0v-79.323c0-.329.266-.594.594-.594h56.611c.328 0 .594.265.594.594v79.323a.594.594 0 0 1-.594.594M85.476 15.988l-6.391-7.862s-4.58 3.292-5.776 11.573c-1.196 8.281-1.379 16.578-6.045 20.762-4.665 4.184-6.738 13.894 2.772 15.845 9.51 1.952 37.952 0 37.952 0L85.476 15.988z" fill="#1B282C"/>
        <path d="M79.006 8.97c-1.13 1.042-4.18 4.386-5.11 10.813-.2 1.394-.375 2.805-.544 4.17-.848 6.852-1.649 13.325-5.691 16.95-2.842 2.549-4.344 6.84-3.494 9.98.678 2.503 2.748 4.177 5.989 4.842 8.355 1.714 31.864.362 36.855.05L84.984 16.322 79.006 8.97zm5.153 48.803c-5.67 0-11.004-.22-14.242-.885-4.686-.962-6.336-3.627-6.896-5.694-1.104-4.081 1.1-8.71 3.847-11.175 3.712-3.328 4.486-9.587 5.305-16.213.17-1.37.345-2.787.549-4.192 1.218-8.434 5.82-11.83 6.016-11.97a.594.594 0 0 1 .807.107l6.392 7.862c.022.027.041.055.058.085l22.51 40.319a.594.594 0 0 1-.477.881c-.767.053-12.939.875-23.869.875z" fill="#1B282C"/>
        <path d="M117.248 40.461c-4.673-4.184-4.856-12.48-6.054-20.762-1.198-8.282-5.784-11.573-5.784-11.573l-6.402 7.861-4.576 8.183v32.934c7.638.168 15.756.08 20.04-.797 9.525-1.952 7.448-11.662 2.776-15.846" fill="#1B282C"/>
        <path d="M95.026 56.522c9.319.19 15.818-.078 19.327-.797 3.247-.665 5.321-2.34 5.999-4.845.849-3.14-.656-7.43-3.5-9.977-4.05-3.625-4.851-10.098-5.7-16.952-.17-1.364-.344-2.774-.545-4.167-.934-6.457-3.986-9.782-5.117-10.816L99.5 16.322l-4.475 8.003v32.197zm5.396 1.246c-1.857 0-3.858-.024-6.003-.071a.593.593 0 0 1-.58-.593V24.17c0-.101.025-.2.075-.29l4.576-8.182a.66.66 0 0 1 .058-.086l6.401-7.86a.594.594 0 0 1 .807-.108c.195.14 4.806 3.535 6.026 11.97.203 1.405.378 2.822.548 4.191.82 6.626 1.597 12.886 5.314 16.214 2.75 2.463 4.957 7.09 3.854 11.17-.56 2.07-2.212 4.737-6.907 5.7-2.858.584-7.611.879-14.169.879z" fill="#1B282C"/>
        <path d="m124.908 52.926-23.69-4.606v-.41H89.313v.41l-23.69 4.606a5.32 5.32 0 0 0-4.25 5.992l5.046 64.276h57.693l5.045-64.276a5.32 5.32 0 0 0-4.25-5.992" fill="#E85371"/>
        <path d="M66.967 122.6h56.597l5.002-63.728c0-.014.002-.027.004-.04a4.721 4.721 0 0 0-3.775-5.323l-23.69-4.606a.596.596 0 0 1-.452-.4H89.877a.596.596 0 0 1-.451.4l-23.69 4.606a4.721 4.721 0 0 0-3.77 5.363l5.001 63.728zm57.145 1.187H66.42a.593.593 0 0 1-.592-.547l-5.044-64.256a5.906 5.906 0 0 1 4.727-6.64l23.215-4.515a.594.594 0 0 1 .588-.513h11.905c.3 0 .549.224.588.513l23.215 4.514a5.906 5.906 0 0 1 4.727 6.64l-5.044 64.257a.593.593 0 0 1-.592.547z" fill="#1B282C"/>
        <path d="M99.295 59.903H89.34c-3.181 0-5.76-2.59-5.76-5.784v-.13c0-3.194 2.579-5.784 5.76-5.784h9.956c3.182 0 5.761 2.59 5.761 5.784v.13c0 3.195-2.58 5.784-5.76 5.784" fill="#FAD9C7"/>
        <path d="M89.34 48.799c-2.85 0-5.168 2.328-5.168 5.19v.13c0 2.862 2.318 5.19 5.167 5.19h9.956c2.85 0 5.168-2.328 5.168-5.19v-.13c0-2.862-2.319-5.19-5.168-5.19H89.34zm9.955 11.698H89.34c-3.504 0-6.354-2.861-6.354-6.378v-.13c0-3.517 2.85-6.378 6.354-6.378h9.956c3.504 0 6.355 2.861 6.355 6.378v.13c0 3.517-2.85 6.378-6.355 6.378z" fill="#1B282C"/>
        <path fill="#FAD9C7" d="M87.446 51.311V39.334h14.183V51.03"/>
        <path d="M87.446 51.905a.594.594 0 0 1-.594-.594V39.334c0-.328.266-.594.594-.594h14.184c.327 0 .593.266.593.594V51.03a.594.594 0 1 1-1.187 0V39.928H88.04V51.31a.594.594 0 0 1-.593.594" fill="#1B282C"/>
        <path d="M107.585 28.694a5.35 5.35 0 1 0 10.699 0 5.35 5.35 0 0 0-10.7 0" fill="#FAD9C7"/>
        <path d="M112.78 29.242a.594.594 0 0 1-.118-1.176l2.626-.532a.592.592 0 1 1 .236 1.164l-2.625.532a.614.614 0 0 1-.12.012m.156-5.355a4.813 4.813 0 0 0-4.808 4.807 4.813 4.813 0 0 0 4.808 4.807 4.813 4.813 0 0 0 4.807-4.807 4.813 4.813 0 0 0-4.807-4.807m0 10.801a6.001 6.001 0 0 1-5.995-5.994 6.001 6.001 0 0 1 5.995-5.995 6.001 6.001 0 0 1 5.994 5.995 6.001 6.001 0 0 1-5.994 5.994" fill="#1B282C"/>
        <path d="M85.004 28.694a5.35 5.35 0 1 1-10.699 0 5.35 5.35 0 0 1 10.7 0" fill="#FAD9C7"/>
        <path d="M79.81 29.242a.614.614 0 0 1-.12-.012l-2.625-.532a.593.593 0 0 1 .236-1.164l2.626.532a.594.594 0 0 1-.118 1.176m-.155-5.355a4.812 4.812 0 0 0-4.806 4.807 4.812 4.812 0 0 0 4.806 4.807 4.813 4.813 0 0 0 4.808-4.807 4.813 4.813 0 0 0-4.808-4.807m0 10.801a6.001 6.001 0 0 1-5.994-5.994 6.001 6.001 0 0 1 5.994-5.995 6.001 6.001 0 0 1 5.995 5.995 6.001 6.001 0 0 1-5.995 5.994" fill="#1B282C"/>
        <path d="M96.787 46.505h-.358c-8.805 0-15.942-7.137-15.942-15.942v-10.01c0-8.805 7.137-15.942 15.942-15.942h.358c8.804 0 15.942 7.137 15.942 15.941v10.011c0 8.805-7.138 15.942-15.942 15.942" fill="#FAD9C7"/>
        <path d="M96.428 5.153c-8.49 0-15.399 6.903-15.399 15.387v10.036c0 8.484 6.908 15.387 15.4 15.387h.358c8.491 0 15.4-6.903 15.4-15.387V20.54c0-8.484-6.909-15.387-15.4-15.387h-.359zm.36 41.997h-.36c-9.145 0-16.586-7.435-16.586-16.574V20.54c0-9.139 7.44-16.574 16.586-16.574h.36c9.145 0 16.585 7.435 16.585 16.574v10.036c0 9.139-7.44 16.574-16.586 16.574z" fill="#1B282C"/>
        <path d="M102.666 27.015a1.605 1.605 0 1 0 3.21 0 1.605 1.605 0 0 0-3.21 0M93.119 27.015a1.605 1.605 0 1 0 3.21 0 1.605 1.605 0 0 0-3.21 0M100.334 32.808c-.294 0-.605-.038-.9-.075-.22-.027-.473-.059-.577-.049a.593.593 0 1 1-.099-1.183c.227-.02.504.015.822.054.241.03.707.087.935.059.024-.684-.764-3-1.367-4.37a.594.594 0 1 1 1.087-.478c.617 1.404 1.972 4.764 1.218 5.644-.266.311-.675.398-1.119.398z" fill="#1B282C"/>
        <path d="M84.852 33.274a4.732 4.732 0 1 0 9.465 0 4.732 4.732 0 0 0-9.465 0M102.136 33.274a4.732 4.732 0 1 0 9.465 0 4.732 4.732 0 0 0-9.465 0" fill="#F3B1B5"/>
        <path d="M98.297 42.155h-.05a2.281 2.281 0 0 1-2.28-2.27v-1.253a2.281 2.281 0 0 1 2.28-2.269h.05a2.282 2.282 0 0 1 2.28 2.27v1.253a2.281 2.281 0 0 1-2.28 2.269" fill="#E85371"/>
        <path d="M98.246 36.957c-.93 0-1.686.751-1.686 1.675v1.254c0 .924.756 1.675 1.686 1.675h.052c.93 0 1.686-.751 1.686-1.675v-1.254c0-.924-.757-1.675-1.686-1.675h-.052zm.052 5.792h-.052a2.871 2.871 0 0 1-2.873-2.863v-1.254a2.871 2.871 0 0 1 2.873-2.863h.052a2.871 2.871 0 0 1 2.873 2.863v1.254a2.871 2.871 0 0 1-2.873 2.863zM77.072 23.674l3.444-.324.108 4.527h2.69l1.938-7.544s5.167-2.695 7.75-9.269c0 0 .646 7.329 11.517 9.484l-1.183-2.91s5.812 5.281 12.378 3.341c0 0-1.937-2.37-1.722-4.85 0 0 .215-12.717-13.347-14.01 0 0-8.72-2.155-13.563 2.263 0 0-7.094-.173-9.925 5.78" fill="#1B282C"/>
        <g transform="translate(76.478 1)">
            <mask id="dtlrb62p0b" fill="#fff">
                <use xlink:href="#0uhmloybqa"/>
            </mask>
            <path d="M6.837 27.47H4.146a.594.594 0 0 1-.594-.579l-.092-3.89-2.81.264a.594.594 0 1 1-.111-1.182l3.444-.324a.596.596 0 0 1 .65.577l.093 3.947h1.65L8.2 19.185a.595.595 0 0 1 .3-.379c.05-.025 5.007-2.686 7.473-8.96a.594.594 0 0 1 1.144.165c.025.27.722 6.441 9.95 8.713l-.758-1.862a.594.594 0 0 1 .949-.663c.053.048 5.164 4.6 10.996 3.414-.601-.948-1.483-2.681-1.332-4.512.006-.72-.103-12.18-12.81-13.391a.632.632 0 0 1-.086-.014c-.084-.021-8.473-2.024-13.02 2.125a.556.556 0 0 1-.415.155c-.062.002-6.75-.08-9.376 5.44a.594.594 0 0 1-1.072-.51C2.84 3.237 9.055 2.815 10.378 2.79 12.466.981 15.51.018 19.2 0h.108c2.591 0 4.627.454 4.958.532C38.172 1.884 38.11 15.007 38.108 15.14a.717.717 0 0 1-.003.04c-.191 2.203 1.573 4.402 1.591 4.425a.593.593 0 0 1-.292.944c-4.67 1.38-8.91-.661-11.19-2.152l.378.928a.594.594 0 0 1-.666.806c-7.968-1.58-10.656-5.834-11.553-8.262-2.428 4.898-6.11 7.288-7.087 7.857l-1.874 7.298a.594.594 0 0 1-.575.446" fill="#1B282C" mask="url(#dtlrb62p0b)"/>
        </g>
        <path d="M93.182 22.636s2.561.888 2.748-1.71" fill="#FAD9C7"/>
        <path d="M94.115 23.378a3.684 3.684 0 0 1-1.128-.181.593.593 0 0 1 .387-1.122c.253.085 1.008.238 1.469-.07.288-.191.455-.57.495-1.122a.593.593 0 1 1 1.184.085c-.068.942-.414 1.626-1.029 2.031-.444.292-.942.38-1.378.38" fill="#1B282C"/>
        <path d="M103.093 20.607s-.173 2.72 2.354 2.23" fill="#FAD9C7"/>
        <path d="M104.868 23.49c-.6 0-1.104-.177-1.506-.53-.933-.82-.871-2.233-.861-2.39a.583.583 0 0 1 .63-.556.594.594 0 0 1 .555.629c-.015.272.039 1.058.463 1.428.257.224.657.286 1.185.184a.594.594 0 0 1 .226 1.166 3.64 3.64 0 0 1-.692.07" fill="#1B282C"/>
        <path fill="#FAD9C7" d="m87.467 100.329-7.883-3.927 2.768-1.421-12.942.362-9.892 5.96 4.672 6.03 3.095 1.661h15.434l5.638-2.694z"/>
        <path d="M75.581 109.355h.071l55.489-.525a13.695 13.695 0 0 0 11.329-6.186 13.751 13.751 0 0 0 1.199-12.87l-4.166-9.978h-16.041l5.939 14.222-53.888.511" fill="#FAD9C7"/>
        <path d="M75.581 109.95a.594.594 0 1 1 0-1.188v.594l.031-.594h.04l55.483-.526a13.104 13.104 0 0 0 10.84-5.918 13.16 13.16 0 0 0 1.146-12.316l-4.014-9.612h-14.754l5.596 13.4a.594.594 0 0 1-.542.822l-53.888.51h-.006a.594.594 0 0 1-.006-1.187l53.006-.502-5.599-13.408a.593.593 0 0 1 .547-.822h16.042c.24 0 .455.144.547.365l4.167 9.977a14.345 14.345 0 0 1-1.251 13.425 14.288 14.288 0 0 1-11.82 6.453l-55.565.526z" fill="#1B282C"/>
        <path d="M63.233 106.684c-.77.027-1.372.691-1.346 1.484.025.792.67 1.413 1.44 1.386l6.564-.228 6.921-.083" fill="#FAD9C7"/>
        <path d="M63.278 110.149c-.498 0-.971-.188-1.34-.533a2.032 2.032 0 0 1-.645-1.43c-.036-1.116.824-2.057 1.92-2.095h.02a.594.594 0 0 1 .02 1.186c-.441.016-.789.406-.773.871a.854.854 0 0 0 .268.6.762.762 0 0 0 .558.213l6.565-.228 6.934-.084h.007a.594.594 0 0 1 .007 1.188l-6.92.082-6.551.228-.07.002" fill="#1B282C"/>
        <path d="m70.003 106.995-10.701.367c-1.255.043-2.307-.954-2.349-2.228-.042-1.273.94-2.34 2.195-2.382" fill="#FAD9C7"/>
        <path d="M59.222 107.957c-.73 0-1.422-.277-1.958-.785a2.897 2.897 0 0 1-.904-2.018c-.053-1.598 1.188-2.942 2.768-2.995a.593.593 0 1 1 .04 1.186c-.926.031-1.653.826-1.622 1.77.016.458.205.883.535 1.196.327.31.75.473 1.2.458l10.702-.367a.594.594 0 0 1 .04 1.187l-10.7.366a2.831 2.831 0 0 1-.1.002" fill="#1B282C"/>
        <path d="m67.566 104.669-10.701.366c-1.255.042-2.307-.953-2.349-2.224-.042-1.271.94-2.336 2.195-2.38l10.702-.365" fill="#FAD9C7"/>
        <path d="M56.786 105.63a2.83 2.83 0 0 1-1.958-.784 2.89 2.89 0 0 1-.905-2.015c-.053-1.596 1.19-2.939 2.768-2.993l10.702-.366a.607.607 0 0 1 .613.573.594.594 0 0 1-.573.614l-10.701.366c-.926.032-1.654.824-1.623 1.766.016.458.205.882.535 1.193.327.31.748.472 1.2.457l10.702-.366a.6.6 0 0 1 .614.573.593.593 0 0 1-.573.614l-10.702.366a2.787 2.787 0 0 1-.099.002" fill="#1B282C"/>
        <path d="m69.307 101.71-11.322.387c-1.327.045-2.44-1.007-2.485-2.351-.044-1.344.995-2.47 2.323-2.516l11.322-.387" fill="#FAD9C7"/>
        <path d="M57.901 102.692a2.962 2.962 0 0 1-2.047-.819 3.022 3.022 0 0 1-.947-2.108c-.056-1.668 1.243-3.072 2.896-3.128l11.322-.387a.607.607 0 0 1 .613.573.594.594 0 0 1-.573.614l-11.322.386c-.998.035-1.783.888-1.75 1.903.017.493.222.949.577 1.285.353.334.824.507 1.295.493l11.322-.387a.603.603 0 0 1 .613.572.594.594 0 0 1-.573.614l-11.321.387-.105.002" fill="#1B282C"/>
        <path d="m77.158 94.335-11.823.596a1.903 1.903 0 0 0-1.79 1.78c-.076 1.08.746 2.01 1.813 2.051l4.498.17" fill="#FAD9C7"/>
        <path d="M69.857 99.525h-.023l-4.498-.17a2.453 2.453 0 0 1-1.745-.82 2.507 2.507 0 0 1-.639-1.866 2.5 2.5 0 0 1 2.353-2.331l11.823-.596a.593.593 0 1 1 .06 1.186l-11.823.596a1.311 1.311 0 0 0-1.229 1.228c-.026.367.095.718.338.99.236.262.558.414.906.427l4.499.17a.594.594 0 0 1-.022 1.186" fill="#1B282C"/>
        <path d="m121.104 77.483 4.565 10.896h20.06l-12.207-29.136a9.873 9.873 0 0 0-9.13-6.068" fill="#E85371"/>
        <path d="M145.73 88.973h-20.06a.594.594 0 0 1-.548-.364l-4.566-10.897a.593.593 0 1 1 1.095-.459l4.413 10.533h18.773l-11.862-28.314a9.28 9.28 0 0 0-8.582-5.704.594.594 0 1 1 0-1.187c4.241 0 8.04 2.525 9.677 6.432l12.207 29.137a.595.595 0 0 1-.547.823" fill="#1B282C"/>
        <path d="m67.608 52.546-7.532 2.251a12.938 12.938 0 0 0-9.242 12.391v2.07c0 4.093 1.234 8.09 3.542 11.472l13.232 19.386 7.504-20.213-1.225-1.795-6.279-10.016" fill="#E85371"/>
        <path d="M67.609 100.71a.594.594 0 0 1-.49-.26L53.885 81.066a20.862 20.862 0 0 1-3.646-11.806v-2.071c0-6.023 3.885-11.231 9.666-12.96l7.532-2.251a.594.594 0 1 1 .34 1.137l-7.532 2.252c-5.275 1.577-8.819 6.328-8.819 11.822v2.07c0 3.99 1.19 7.84 3.44 11.137l12.585 18.438 6.997-18.85-1.053-1.54-6.29-10.036a.593.593 0 1 1 1.006-.63l6.277 10.016 1.213 1.775c.11.159.134.36.067.541l-7.504 20.214a.593.593 0 0 1-.556.387" fill="#1B282C"/>
        <path d="M79.408 92.377c-1.386 5.974-5.588 10.106-9.384 9.23-3.798-.877-5.753-6.431-4.367-12.405 1.386-5.974 5.587-10.106 9.384-9.23 3.798.877 5.752 6.431 4.367 12.405" fill="#E85371"/>
        <path d="M73.994 80.448c-3.216 0-6.563 3.733-7.759 8.888-.644 2.781-.566 5.545.221 7.783.755 2.144 2.07 3.533 3.702 3.91 3.473.801 7.362-3.14 8.672-8.786.828-3.572.454-7.095-1-9.425-.76-1.217-1.77-2-2.922-2.267a4.04 4.04 0 0 0-.914-.103m-2.957 21.867c-.384 0-.767-.042-1.147-.13-2.041-.472-3.659-2.131-4.553-4.672-.862-2.448-.953-5.447-.258-8.445 1.457-6.283 5.984-10.622 10.096-9.673 1.466.338 2.733 1.304 3.662 2.794 1.618 2.591 2.047 6.45 1.149 10.322-1.323 5.702-5.175 9.804-8.949 9.804" fill="#1B282C"/>
        <path fill="#FAD9C7" d="m97.297 47.112-7.18-8.119-4.796-.986-6.328 3.346.447 2.95 2.548 4.028 7.65 9.27 5.086.314 3.056-7.153z"/>
        <path d="m84.368 51.998-8.237 33.884-3.864-5.665c-2.886 1.014-5.561 4.482-6.612 9.016a17.047 17.047 0 0 0-.426 3.095l4.359 6.393a9.574 9.574 0 0 0 9.612 4.018 9.563 9.563 0 0 0 7.579-7.14l10.586-43.544" fill="#FAD9C7"/>
        <path d="M77.492 103.487a10.152 10.152 0 0 1-8.394-4.432l-4.36-6.392a.597.597 0 0 1-.102-.361 17.68 17.68 0 0 1 .441-3.203c1.07-4.619 3.815-8.325 6.993-9.442a.594.594 0 0 1 .687.226l3.112 4.563 7.922-32.588a.594.594 0 0 1 1.154.28l-8.237 33.885a.595.595 0 0 1-1.068.194l-3.596-5.273c-2.592 1.156-4.894 4.468-5.81 8.423-.214.924-.35 1.862-.402 2.792l4.247 6.227a8.965 8.965 0 0 0 9.015 3.77 8.968 8.968 0 0 0 7.108-6.698l10.586-43.543a.594.594 0 0 1 1.154.28L87.356 95.739a10.159 10.159 0 0 1-9.864 7.75" fill="#1B282C"/>
        <path d="M80.55 42.636a1.347 1.347 0 0 0-1.889-.193 1.332 1.332 0 0 0-.193 1.88l3.994 4.883 2.91 3.684" fill="#FAD9C7"/>
        <path d="M85.372 53.484a.592.592 0 0 1-.466-.226l-2.91-3.684-3.988-4.875a1.915 1.915 0 0 1-.426-1.415c.053-.513.303-.976.705-1.302a1.943 1.943 0 0 1 2.723.278.594.594 0 0 1-.92.752.755.755 0 0 0-1.055-.107.737.737 0 0 0-.108 1.043l3.995 4.882 2.916 3.692a.594.594 0 0 1-.466.962" fill="#1B282C"/>
        <path d="m84.315 47.942-6.508-7.946a2.167 2.167 0 0 1 .315-3.06 2.196 2.196 0 0 1 3.078.312" fill="#FAD9C7"/>
        <path d="M84.315 48.535a.591.591 0 0 1-.46-.217l-6.507-7.946a2.74 2.74 0 0 1-.611-2.031c.075-.737.434-1.4 1.011-1.867a2.795 2.795 0 0 1 3.911.398.593.593 0 1 1-.918.752 1.604 1.604 0 0 0-2.245-.227c-.33.266-.536.645-.579 1.064-.043.42.081.832.35 1.159l6.507 7.945a.593.593 0 0 1-.459.97" fill="#1B282C"/>
        <path d="m84.644 44.74-6.477-7.945a2.174 2.174 0 0 1 .313-3.06 2.18 2.18 0 0 1 3.064.312l6.477 7.946" fill="#FAD9C7"/>
        <path d="M84.644 45.334a.592.592 0 0 1-.46-.218l-6.477-7.946a2.75 2.75 0 0 1-.608-2.031 2.752 2.752 0 0 1 1.006-1.866 2.776 2.776 0 0 1 3.9.399l6.477 7.946a.594.594 0 1 1-.92.75l-6.478-7.946a1.587 1.587 0 0 0-2.23-.227 1.572 1.572 0 0 0-.574 1.065c-.043.42.08.832.347 1.16l6.477 7.946a.594.594 0 0 1-.46.968" fill="#1B282C"/>
        <path d="m87.903 44.355-6.852-8.406a2.3 2.3 0 0 1 .332-3.238 2.306 2.306 0 0 1 3.241.331l6.852 8.406" fill="#FAD9C7"/>
        <path d="M87.904 44.949a.592.592 0 0 1-.461-.219l-6.852-8.406a2.876 2.876 0 0 1-.636-2.124 2.875 2.875 0 0 1 1.053-1.95 2.901 2.901 0 0 1 4.076.417l6.852 8.406a.593.593 0 1 1-.92.75l-6.852-8.406a1.714 1.714 0 0 0-2.406-.246 1.697 1.697 0 0 0-.622 1.15c-.046.454.087.899.376 1.253l6.851 8.406a.593.593 0 0 1-.46.969" fill="#1B282C"/>
        <path d="m95.517 53.415 2.22-2.132a3.81 3.81 0 0 0 .273-5.207l-7.295-8.649a1.812 1.812 0 0 0-2.373-.349 1.8 1.8 0 0 0-.49 2.547l2.477 3.515" fill="#FAD9C7"/>
        <path d="M95.517 54.009a.594.594 0 0 1-.411-1.022l2.22-2.132a3.226 3.226 0 0 0 .23-4.396l-7.294-8.65a1.22 1.22 0 0 0-1.596-.233 1.2 1.2 0 0 0-.528.784c-.062.325.008.652.199.923l2.478 3.516a.594.594 0 1 1-.971.683l-2.478-3.515a2.373 2.373 0 0 1-.394-1.83 2.376 2.376 0 0 1 1.046-1.556 2.408 2.408 0 0 1 3.151.463l7.295 8.65a4.415 4.415 0 0 1-.316 6.017l-2.22 2.133a.592.592 0 0 1-.41.165M67.437 134.914a.595.595 0 0 1-.42-1.014l8.646-8.642a.594.594 0 0 1 .84.84l-8.646 8.643a.592.592 0 0 1-.42.173m56.19 0a.592.592 0 0 1-.419-.173l-8.646-8.643a.594.594 0 0 1 .84-.84l8.646 8.643a.594.594 0 0 1-.42 1.013M96.33 198.73a.594.594 0 0 1-.594-.593v-54.621a.594.594 0 0 1 1.188 0v54.62a.594.594 0 0 1-.594.594" fill="#1B282C"/>
        <path d="M186.162 142.81h-7.666c-2.374 0-4.317 1.945-4.317 4.322v1.101c-1.721.675-3.32.56-3.32.56-3.985.223-9.299 1.331-9.299 1.331-5.977-12.634-18.817-15.736-18.817-15.736-11.29-.665-6.42 10.86-6.42 10.86l12.84 20.39c3.542 3.104 7.748 1.995 7.748 1.995 11.82-.666 20.257-6.47 23.717-9.309h2.932c2.938 0 5.341-2.406 5.341-5.347v-7.424a2.75 2.75 0 0 0-2.74-2.743" fill="#FAD9C7"/>
        <path d="M149.618 165.248c3.238 2.779 7.105 1.82 7.144 1.81a.648.648 0 0 1 .116-.018c11.814-.666 20.281-6.638 23.373-9.175a.594.594 0 0 1 .377-.134h2.933a4.756 4.756 0 0 0 4.747-4.754v-7.424a2.15 2.15 0 0 0-2.146-2.15h-7.665a3.73 3.73 0 0 0-3.724 3.729v1.101c0 .245-.15.464-.377.553a9.08 9.08 0 0 1-3.538.603c-3.89.22-9.124 1.305-9.176 1.316a.591.591 0 0 1-.658-.327c-5.598-11.831-17.512-15.174-18.373-15.4-2.883-.162-4.87.498-5.902 1.957-1.937 2.738-.096 7.543.104 8.04l12.765 20.273zm5.439 3.176c-1.656 0-4.08-.408-6.285-2.339a.575.575 0 0 1-.111-.13l-12.84-20.39a.646.646 0 0 1-.045-.086c-.1-.236-2.41-5.81.002-9.227 1.291-1.828 3.647-2.656 7-2.457a.61.61 0 0 1 .104.016c.13.031 12.899 3.244 19.012 15.64 1.38-.273 5.58-1.063 8.931-1.25.026 0 .051-.002.076 0 .012 0 1.266.079 2.685-.385v-.684a4.919 4.919 0 0 1 4.91-4.916h7.666a3.339 3.339 0 0 1 3.333 3.337v7.424c0 3.276-2.662 5.94-5.934 5.94h-2.722c-3.306 2.678-11.91 8.616-23.84 9.306-.216.051-.938.201-1.942.201zM173.25 180.38l11.212-7.561a2.451 2.451 0 0 1 3.82 2.025v18.093c0 1.35-1.097.106-2.449.106h-12.582v-12.664z" fill="#1B282C"/>
        <path d="M173.844 192.45h11.989c.623 0 1.186.211 1.596.367.08.03.174.065.258.094v-18.067a1.854 1.854 0 0 0-2.893-1.533l-10.95 7.384v11.754zm14.076 1.709c-.296 0-.606-.117-.91-.232-.361-.136-.77-.29-1.177-.29H173.25a.594.594 0 0 1-.593-.594v-12.664c0-.197.098-.382.261-.492l11.212-7.56a3.043 3.043 0 0 1 4.745 2.517v18.093c0 .19 0 .765-.432 1.064a.893.893 0 0 1-.523.158z" fill="#1B282C"/>
        <path d="m147.421 172.1.839.267v20.679h-24.324c-7.281 0-13.183-3.578-13.183-10.874v-10.09h36.556c.038 0 .076.006.112.018" fill="#8FB3DC"/>
        <path d="M111.346 172.676v9.496c0 4.97 3.307 10.28 12.59 10.28h23.73v-19.651l-.392-.125h-35.928zm36.913 20.964h-24.323c-8.37 0-13.777-4.502-13.777-11.468v-10.09c0-.327.266-.593.594-.593h36.556c.095 0 .191.014.285.043l.007.002.838.267a.593.593 0 0 1 .414.566v20.68a.594.594 0 0 1-.594.593z" fill="#1B282C"/>
        <path fill="#FAD9C7" d="M163.773 177.363v15.632H153.29v-18.963z"/>
        <path d="M153.833 192.452h9.397v-14.687l-9.397-2.973v17.66zm9.99 1.187H153.24a.594.594 0 0 1-.594-.593V173.98a.594.594 0 0 1 .772-.566l10.584 3.35a.594.594 0 0 1 .415.565v15.716a.594.594 0 0 1-.594.593z" fill="#1B282C"/>
        <path fill="#FEFEFE" d="M173.353 180.36v12.686h-9.631v-15.734z"/>
        <path d="M164.315 192.452h8.444v-11.656l-8.444-2.673v14.329zm9.037 1.187h-9.63a.594.594 0 0 1-.594-.593v-15.734a.594.594 0 0 1 .773-.566l9.63 3.05a.593.593 0 0 1 .415.565v12.685a.594.594 0 0 1-.594.593z" fill="#1B282C"/>
        <path d="M153.342 173.446v19.6h-5.184v-20.68l4.123.027a1.06 1.06 0 0 1 1.06 1.053" fill="#8FB3DC"/>
        <path d="M148.751 192.452h3.997v-19.006a.468.468 0 0 0-.471-.46l-3.526-.023v19.489zm4.59 1.187h-5.183a.594.594 0 0 1-.594-.593v-20.68a.593.593 0 0 1 .594-.594h.004l4.123.027c.91.007 1.65.745 1.65 1.647v19.6a.594.594 0 0 1-.593.593z" fill="#1B282C"/>
        <path d="M180.658 183.712a.594.594 0 0 1-.594-.593v-7.701a.594.594 0 0 1 1.188 0v7.7a.594.594 0 0 1-.594.594m-3.278 2.407a.594.594 0 0 1-.594-.594v-7.7a.594.594 0 0 1 1.188 0v7.7a.594.594 0 0 1-.594.594" fill="#FEFEFE"/>
        <path d="M111.346 172.676v9.494c0 4.97 3.303 10.28 12.571 10.28h61.93c.62 0 1.18.212 1.59.367.077.03.167.064.25.093v-18.065c0-1.02-.825-1.85-1.84-1.85-.37 0-.725.11-1.03.317l-11.151 7.56a.59.59 0 0 1-.514.074l-20.037-6.39a.593.593 0 0 1-.413-.566v-.543a.458.458 0 0 0-.452-.46l-4.047-.026c-.06 0-.12-.01-.177-.029l-.804-.256h-35.876zm76.576 21.483c-.295 0-.604-.117-.907-.232-.359-.136-.766-.29-1.168-.29h-61.93c-8.358 0-13.758-4.501-13.758-11.467v-10.088c0-.327.266-.593.594-.593h36.505a.98.98 0 0 1 .287.043l.756.242 3.957.027a1.65 1.65 0 0 1 1.631 1.646v.11l19.35 6.17 10.911-7.398a3.01 3.01 0 0 1 1.697-.52 3.036 3.036 0 0 1 3.028 3.036v18.092c0 .19 0 .766-.433 1.065a.887.887 0 0 1-.52.157z" fill="#1B282C"/>
        <path d="m176.565 185.02 11.212-7.56a2.446 2.446 0 0 1 3.819 2.025v15.757a2.446 2.446 0 0 1-2.449 2.444h-12.582V185.02z" fill="#1B282C"/>
        <path d="M177.159 197.092h11.988c1.023 0 1.855-.83 1.855-1.85v-15.758a1.855 1.855 0 0 0-2.893-1.533l-10.95 7.385v11.756zm11.988 1.188h-12.582a.594.594 0 0 1-.594-.594V185.02c0-.197.098-.382.262-.492l11.211-7.56a3.043 3.043 0 0 1 4.745 2.517v15.757a3.043 3.043 0 0 1-3.042 3.038z" fill="#1B282C"/>
        <path d="m150.736 176.74.838.267v20.679h-27.827c-7.28 0-13.18-3.578-13.18-10.874v-10.09h40.057c.038 0 .075.007.112.018" fill="#00AE83"/>
        <path d="M111.16 177.316v9.496c0 4.97 3.307 10.28 12.587 10.28h27.233v-19.65l-.391-.126H111.16zm40.414 20.964h-27.827c-8.367 0-13.774-4.502-13.774-11.468v-10.09c0-.327.266-.593.594-.593h40.057c.099 0 .197.015.292.046l.838.266a.595.595 0 0 1 .413.566v20.679a.594.594 0 0 1-.593.594z" fill="#1B282C"/>
        <path fill="#FAD9C7" d="M167.087 182.003v15.632h-10.482v-18.963z"/>
        <path d="M157.148 197.092h9.396v-14.687l-9.396-2.973v17.66zm9.99 1.187h-10.584a.594.594 0 0 1-.594-.593V178.62a.594.594 0 0 1 .773-.566l10.584 3.35a.594.594 0 0 1 .415.565v15.716a.594.594 0 0 1-.594.593z" fill="#1B282C"/>
        <path fill="#FEFEFE" d="M176.667 185v12.686h-9.631v-15.734z"/>
        <path d="M167.63 197.092h8.443v-11.656l-8.443-2.673v14.33zm9.037 1.188h-9.631a.594.594 0 0 1-.594-.594v-15.733a.594.594 0 0 1 .773-.566l9.631 3.048a.593.593 0 0 1 .415.566v12.685a.594.594 0 0 1-.594.594z" fill="#1B282C"/>
        <path d="M156.656 178.086v19.6h-5.184v-20.68l4.123.027a1.06 1.06 0 0 1 1.061 1.053" fill="#00AE83"/>
        <path d="M152.066 197.092h3.996v-19.006a.468.468 0 0 0-.47-.46l-3.526-.022v19.488zm4.59 1.188h-5.184a.594.594 0 0 1-.593-.594v-20.68a.595.595 0 0 1 .593-.594h.004l4.123.027c.91.007 1.65.745 1.65 1.647v19.6a.594.594 0 0 1-.593.594z" fill="#1B282C"/>
        <path d="M183.972 188.352a.594.594 0 0 1-.593-.593v-7.701a.594.594 0 0 1 1.187 0v7.7a.594.594 0 0 1-.594.594m-3.278 2.407a.594.594 0 0 1-.593-.594v-7.7a.594.594 0 0 1 1.187 0v7.7a.594.594 0 0 1-.594.594" fill="#FEFEFE"/>
        <g transform="translate(109.973 176.13)">
            <mask id="5y2vw2u8qd" fill="#fff">
                <use xlink:href="#lngk5nifuc"/>
            </mask>
            <path d="M1.187 1.187v9.495c0 4.97 3.302 10.281 12.57 10.281h65.43c1.016 0 1.842-.83 1.842-1.85V3.356c0-1.02-.826-1.85-1.841-1.85-.369 0-.725.11-1.03.317l-11.15 7.56a.589.589 0 0 1-.513.075L46.458 3.066a.593.593 0 0 1-.413-.565v-.543a.458.458 0 0 0-.452-.459l-4.047-.027c-.06 0-.12-.01-.177-.029l-.803-.256H1.187zm78 20.964h-65.43C5.4 22.15 0 17.649 0 10.682V.594C0 .266.266 0 .594 0H40.6a.97.97 0 0 1 .291.045l.752.24 3.958.027c.9.007 1.63.745 1.63 1.646v.11l19.349 6.171L77.49.84c.503-.34 1.09-.52 1.697-.52a3.036 3.036 0 0 1 3.028 3.036v15.757a3.037 3.037 0 0 1-3.028 3.038z" fill="#1B282C" mask="url(#5y2vw2u8qd)"/>
        </g>
        <path d="M110.642 152.863c-.412-11.83 4.417-17.343 14.42-19.415l6.235-1.292c10.003-2.072 19.884 4.417 21.956 14.42l.758 1.117c4.08 2.073 7.224 5.906 8.22 10.709l.45 2.177c1.737 8.382-3.7 14.604-12.083 16.34h-16.173c-.73.151-1.458-.045-2.182 0h-21.601v-24.056z" fill="#E0E8F5"/>
        <path d="M132.475 176.37c.23 0 .466.017.697.034.4.03.778.057 1.127-.015a.59.59 0 0 1 .121-.012h16.143c8.503-1.788 13.159-8.076 11.587-15.664l-.452-2.182c-.926-4.472-3.813-8.235-7.923-10.325a.594.594 0 0 1-.222-.195l-.759-1.119a.593.593 0 0 1-.09-.212c-.973-4.695-3.73-8.74-7.764-11.39-4.036-2.651-8.842-3.575-13.534-2.603l-6.246 1.294c-10.182 2.11-14.361 7.75-13.976 18.858v23.538h21.05c.079-.006.16-.008.241-.008m1.317 1.253c-.24 0-.476-.017-.708-.034-.286-.022-.556-.043-.813-.025h-21.68a.594.594 0 0 1-.593-.593v-24.1c-.403-11.645 4.2-17.83 14.92-20.051l6.247-1.294c5.004-1.036 10.127-.052 14.426 2.772 4.267 2.803 7.193 7.07 8.251 12.025l.608.897c4.36 2.267 7.422 6.294 8.41 11.071l.453 2.182c1.72 8.302-3.332 15.165-12.568 17.08a.59.59 0 0 1-.12.012h-16.147a3.73 3.73 0 0 1-.686.058" fill="#1B282C"/>
        <path d="M122.618 136.427c0 4.473 4.267 8.1 9.53 8.1 5.262 0 9.528-3.627 9.528-8.1s-4.266-8.1-9.529-8.1c-5.262 0-9.529 3.627-9.529 8.1" fill="#FAD9C7"/>
        <path d="M132.147 128.87c-4.955 0-8.986 3.39-8.986 7.557s4.031 7.557 8.986 7.557c4.955 0 8.987-3.39 8.987-7.557s-4.032-7.557-8.987-7.557m0 16.302c-5.61 0-10.173-3.923-10.173-8.745 0-4.821 4.563-8.744 10.173-8.744s10.174 3.923 10.174 8.744c0 4.822-4.564 8.745-10.174 8.745" fill="#1B282C"/>
        <path d="M138.127 139.93a.791.791 0 0 1-.79-.747l-.196-3.442a.791.791 0 1 1 1.58-.09l.197 3.443a.791.791 0 0 1-.791.836m-11.634.18a.792.792 0 0 1-.783-.684 17.955 17.955 0 0 1-.115-3.789.791.791 0 1 1 1.578.12 16.376 16.376 0 0 0 .105 3.454.792.792 0 0 1-.785.899" fill="#1B282C"/>
        <path d="M160.473 147.634c-1.277 1.082-1.47 2.937-1.946 4.545s-1.79 3.346-3.429 3.008c-.547-.113-1.05-.457-1.609-.443-.953.024-1.544 1.017-2.33 1.56-1.1.76-2.66.581-3.773-.16-1.114-.742-1.842-1.946-2.346-3.188-.27-.665-.716-1.498-1.422-1.375-.225.04-.42.18-.635.255-1.085.38-2.016-.951-2.14-2.098-.122-1.146.065-2.44-.665-3.332a2.847 2.847 0 0 0-1.062-.046 12.001 12.001 0 0 0-.144 1.852c0 6.577 5.316 11.91 11.873 11.91 6.557 0 11.872-5.333 11.872-11.91 0-.416-.021-.826-.062-1.23-.782-.06-1.578.14-2.182.652" fill="#FAD17F"/>
        <path d="M139.638 146.926c-.048.427-.073.858-.073 1.286 0 6.24 5.06 11.316 11.28 11.316 6.219 0 11.278-5.076 11.278-11.316 0-.21-.005-.422-.017-.633a2.262 2.262 0 0 0-1.25.508l-.383-.453.384.453c-.86.728-1.16 1.923-1.476 3.188a26.5 26.5 0 0 1-.285 1.072c-.591 2-2.195 3.819-4.118 3.422a4.5 4.5 0 0 1-.727-.234c-.283-.109-.519-.21-.747-.197-.413.01-.781.362-1.208.77-.248.236-.504.48-.799.684-1.234.854-3.02.793-4.44-.154-1.074-.715-1.913-1.847-2.567-3.46-.32-.788-.605-1.042-.77-1.012-.054.01-.14.051-.23.095a2.83 2.83 0 0 1-.31.135c-.523.184-1.059.116-1.55-.194-.718-.454-1.271-1.419-1.376-2.4a13.573 13.573 0 0 1-.057-.93c-.028-.73-.054-1.424-.363-1.928a2.11 2.11 0 0 0-.196-.018m11.206 13.79c-6.873 0-12.466-5.61-12.466-12.504 0-.65.05-1.303.151-1.944a.594.594 0 0 1 .505-.496c.44-.062.872-.042 1.284.057.125.03.238.1.32.2.671.821.71 1.871.745 2.798.011.297.022.579.05.848.067.61.423 1.265.832 1.523.237.15.411.117.522.078.063-.022.123-.053.184-.082.145-.071.326-.159.545-.197.847-.15 1.546.435 2.074 1.736.562 1.384 1.256 2.338 2.125 2.917 1.003.668 2.282.736 3.108.165.218-.15.429-.352.653-.566.528-.505 1.127-1.076 1.998-1.098.456-.011.853.141 1.204.276.19.074.372.144.54.179 1.209.247 2.313-1.151 2.74-2.595.098-.334.184-.678.271-1.024.348-1.392.709-2.83 1.86-3.806.694-.587 1.623-.868 2.612-.79a.593.593 0 0 1 .544.532c.044.426.066.86.066 1.289 0 6.894-5.592 12.503-12.467 12.503" fill="#1B282C"/>
        <path d="M150.845 136.376c-5.93 0-10.843 4.35-11.73 10.033.354-.049.715-.037 1.063.046.73.89.542 2.181.665 3.325.123 1.144 1.054 2.472 2.14 2.093.216-.075.41-.215.635-.254.705-.124 1.151.707 1.421 1.37.504 1.24 1.233 2.44 2.347 3.18 1.113.74 2.673.919 3.774.16.785-.54 1.376-1.531 2.33-1.555.558-.014 1.06.329 1.608.442 1.638.337 2.954-1.397 3.43-3.001.475-1.604.668-3.455 1.946-4.534.603-.51 1.399-.711 2.181-.65-.613-5.985-5.667-10.655-11.81-10.655m0 15.99a4.107 4.107 0 0 1-4.106-4.11 4.107 4.107 0 0 1 4.106-4.107 4.107 4.107 0 0 1 4.105 4.108 4.107 4.107 0 0 1-4.105 4.108" fill="#EF8E98"/>
        <path d="M150.845 144.742a3.517 3.517 0 0 0-3.512 3.515 3.517 3.517 0 0 0 3.512 3.515 3.517 3.517 0 0 0 3.511-3.515 3.517 3.517 0 0 0-3.511-3.515m0 8.217c-2.591 0-4.7-2.11-4.7-4.702a4.706 4.706 0 0 1 4.7-4.702c2.59 0 4.699 2.11 4.699 4.702a4.706 4.706 0 0 1-4.7 4.702m-7.073-1.948c.733 0 1.344.589 1.818 1.755.562 1.38 1.257 2.332 2.125 2.91 1.003.666 2.281.733 3.109.164.218-.15.43-.351.654-.565.528-.502 1.126-1.073 1.997-1.094.462-.015.854.14 1.204.275.191.074.372.144.54.179 1.208.244 2.313-1.149 2.74-2.59.1-.332.185-.675.272-1.02.348-1.389.708-2.824 1.86-3.798a3.44 3.44 0 0 1 1.89-.78 11.243 11.243 0 0 0-11.135-9.478c-5.356 0-9.878 3.673-11.011 8.83.163.015.324.041.482.08.126.03.238.1.32.2.672.819.712 1.867.747 2.791.01.298.021.578.05.847.066.607.422 1.26.83 1.517.238.151.413.117.524.079.064-.023.124-.054.185-.083.145-.07.326-.158.544-.196.087-.015.172-.023.255-.023m5.715 6.405a4.415 4.415 0 0 1-2.429-.752c-1.073-.714-1.913-1.842-2.568-3.45-.32-.788-.604-1.042-.768-1.01-.056.01-.14.05-.23.094-.104.05-.207.099-.314.136-.52.181-1.058.115-1.55-.197-.716-.453-1.269-1.415-1.374-2.393-.034-.31-.045-.625-.057-.929-.028-.727-.053-1.418-.362-1.92a2.323 2.323 0 0 0-.637.002.592.592 0 0 1-.668-.68c.952-6.104 6.132-10.535 12.316-10.535a12.43 12.43 0 0 1 12.4 11.188.594.594 0 0 1-.636.653c-.673-.05-1.3.129-1.752.51-.86.728-1.16 1.92-1.476 3.18-.09.362-.181.722-.284 1.07-.592 1.996-2.192 3.812-4.118 3.414-.264-.054-.5-.145-.727-.232-.283-.11-.518-.215-.748-.197-.413.01-.782.361-1.209.767-.248.236-.504.48-.799.683-.58.4-1.282.598-2.01.598" fill="#1B282C"/>
        <path d="M142.728 145.247a.593.593 0 0 1-.477-.946l1.87-2.532a.594.594 0 0 1 .955.705l-1.87 2.532a.594.594 0 0 1-.478.241" fill="#FAD17F"/>
        <path d="M156.429 144.805a.593.593 0 0 1-.393-1.038l1.87-1.65a.593.593 0 1 1 .785.891l-1.87 1.649a.59.59 0 0 1-.392.148" fill="#CAD8EE"/>
        <path d="M154.1 140.735a.594.594 0 0 1-.482-.245l-1.125-1.556a.594.594 0 0 1 .963-.696l1.125 1.556a.594.594 0 0 1-.481.941m-5.401 2.002a.592.592 0 0 1-.473-.953l1.35-1.779a.594.594 0 1 1 .946.718l-1.35 1.779a.592.592 0 0 1-.473.235m-.226 13.337a.592.592 0 0 1-.491-.926l.9-1.333a.594.594 0 0 1 .984.664l-.9 1.334a.594.594 0 0 1-.493.261" fill="#FAD17F"/>
        <path d="M147.691 140.737a.589.589 0 0 1-.312-.089l-1.803-1.116a.593.593 0 1 1 .625-1.01l1.803 1.117a.593.593 0 0 1-.313 1.098m-3.38 8.93a.592.592 0 0 1-.313-.089l-1.803-1.116a.594.594 0 0 1 .625-1.01l1.803 1.116a.594.594 0 0 1-.313 1.099" fill="#CAD8EE"/>
        <path d="M141.743 148.87c0-.639-.523-1.162-1.163-1.162h-3.295c-2.762 0-5.164 1.62-6.303 3.955l-9.637 5.092s1.993-18.165-4.874-19.937c0 0-8.197 1.772-12.185 13.956 0 0-5.98 18.608 2.438 24.367 0 0 2.215 1.994 9.082 2.215 0 0 10.806-.345 18.08-12.35 5.109-.6 7.857-3.287 7.857-3.287v-12.848z" fill="#FAD9C7"/>
        <path d="M116.464 137.433c-.481.135-2.222.702-4.286 2.31-2.239 1.743-5.327 5.104-7.327 11.216-.058.178-5.748 18.25 2.207 23.692a.624.624 0 0 1 .062.049c.018.015 2.211 1.853 8.706 2.063.066-.004 10.543-.499 17.552-12.065a.598.598 0 0 1 .439-.282c4.119-.483 6.66-2.398 7.332-2.964V148.87a.57.57 0 0 0-.57-.57h-3.294c-2.432 0-4.696 1.422-5.77 3.622a.59.59 0 0 1-.256.265l-9.637 5.092a.591.591 0 0 1-.867-.59c.532-4.865.785-17.712-4.29-19.257zm-.639 40.517c-6.658-.214-9.13-2.062-9.462-2.337-3.61-2.489-5.203-7.627-4.607-14.864.444-5.378 1.904-9.965 1.966-10.157 4.047-12.368 12.275-14.279 12.623-14.354a.595.595 0 0 1 .274.005c6.332 1.634 5.735 15.409 5.416 19.476l8.502-4.492c1.304-2.505 3.931-4.113 6.748-4.113h3.295c.969 0 1.757.788 1.757 1.757v12.848c0 .16-.065.313-.179.424-.116.114-2.85 2.737-7.914 3.416-7.353 11.902-17.968 12.376-18.419 12.39z" fill="#1B282C"/>
        <path d="M138.921 158.167h4.401c.966 0 1.756.79 1.756 1.756v.08a1.76 1.76 0 0 1-1.756 1.755h-4.4" fill="#FAD9C7"/>
        <path d="M143.322 162.352h-4.4a.594.594 0 0 1 0-1.188h4.4c.64 0 1.162-.52 1.162-1.161v-.08c0-.641-.521-1.162-1.162-1.162h-4.4a.594.594 0 0 1 0-1.187h4.4a2.352 2.352 0 0 1 2.35 2.348v.08a2.352 2.352 0 0 1-2.35 2.35" fill="#1B282C"/>
        <path d="M138.921 154.679h4.401c.966 0 1.756.79 1.756 1.755v.08a1.76 1.76 0 0 1-1.756 1.755h-4.4" fill="#FAD9C7"/>
        <path d="M143.322 158.863h-4.4a.594.594 0 0 1 0-1.187h4.4c.64 0 1.162-.521 1.162-1.162v-.08c0-.64-.521-1.162-1.162-1.162h-4.4a.594.594 0 0 1 0-1.187h4.4a2.352 2.352 0 0 1 2.35 2.348v.081a2.352 2.352 0 0 1-2.35 2.349" fill="#1B282C"/>
        <path d="M138.921 151.19h4.401c.966 0 1.756.79 1.756 1.755v.08a1.76 1.76 0 0 1-1.756 1.755h-4.4" fill="#FAD9C7"/>
        <path d="M143.322 155.374h-4.4a.594.594 0 0 1 0-1.187h4.4c.64 0 1.162-.521 1.162-1.161v-.081c0-.64-.521-1.161-1.162-1.161h-4.4a.594.594 0 0 1 0-1.188h4.4a2.352 2.352 0 0 1 2.35 2.349v.08a2.352 2.352 0 0 1-2.35 2.349" fill="#1B282C"/>
        <path d="M138.921 147.701h4.401c.966 0 1.756.79 1.756 1.755v.08a1.76 1.76 0 0 1-1.756 1.756h-4.4" fill="#FAD9C7"/>
        <path d="M143.322 151.885h-4.4a.594.594 0 0 1 0-1.187h4.4c.64 0 1.162-.52 1.162-1.161v-.08c0-.642-.521-1.162-1.162-1.162h-4.4a.594.594 0 0 1 0-1.188h4.4a2.352 2.352 0 0 1 2.35 2.35v.08a2.352 2.352 0 0 1-2.35 2.348M113.341 161.378a.594.594 0 0 1-.269-1.123l8.057-4.08a.592.592 0 1 1 .537 1.059l-8.057 4.08a.592.592 0 0 1-.268.064" fill="#1B282C"/>
        <path d="M181.455 152.83h-.125c-1.178 0-2.143-.948-2.143-2.106v-13.292c0-1.158.965-2.106 2.143-2.106h.125c1.179 0 2.143.948 2.143 2.106v13.292c0 1.158-.964 2.105-2.143 2.105" fill="#FAD17F"/>
        <path d="M181.33 135.92c-.854 0-1.549.679-1.549 1.512v13.291c0 .835.695 1.513 1.55 1.513h.124c.855 0 1.55-.678 1.55-1.513v-13.291c0-.833-.695-1.512-1.55-1.512h-.124zm.125 17.503h-.124c-1.51 0-2.737-1.21-2.737-2.7v-13.291c0-1.488 1.228-2.699 2.737-2.699h.124c1.509 0 2.736 1.211 2.736 2.699v13.291c0 1.49-1.227 2.7-2.736 2.7z" fill="#1B282C"/>
        <path d="M186.295 138.743h-9.805a2.112 2.112 0 0 1-2.109-2.103v-14.406c0-3.737 3.066-6.794 6.813-6.794h.396c3.748 0 6.814 3.057 6.814 6.794v14.406a2.112 2.112 0 0 1-2.11 2.103" fill="#B3C9E7"/>
        <path d="M181.194 116.033c-3.43 0-6.22 2.782-6.22 6.2v14.407c0 .832.68 1.51 1.516 1.51h9.805c.835 0 1.515-.678 1.515-1.51v-14.406c0-3.42-2.79-6.2-6.22-6.2h-.396zm5.1 23.303h-9.804a2.702 2.702 0 0 1-2.702-2.696v-14.406c0-4.074 3.322-7.388 7.406-7.388h.396c4.084 0 7.407 3.314 7.407 7.388v14.406a2.703 2.703 0 0 1-2.702 2.696z" fill="#1B282C"/>
        <path d="M184.432 153.26h-4.401c-.966 0-1.756.79-1.756 1.756v.08c0 .966.79 1.755 1.756 1.755h4.4" fill="#FAD9C7"/>
        <path d="M184.432 157.445h-4.4a2.352 2.352 0 0 1-2.351-2.348v-.081a2.352 2.352 0 0 1 2.35-2.349h4.401a.594.594 0 0 1 0 1.187h-4.4c-.642 0-1.164.521-1.164 1.162v.08c0 .641.522 1.162 1.163 1.162h4.401a.594.594 0 0 1 0 1.187" fill="#1B282C"/>
        <path d="M184.432 149.772h-4.401c-.966 0-1.756.79-1.756 1.755v.08c0 .966.79 1.756 1.756 1.756h4.4" fill="#FAD9C7"/>
        <path d="M184.432 153.956h-4.4a2.352 2.352 0 0 1-2.351-2.348v-.081a2.352 2.352 0 0 1 2.35-2.349h4.401a.594.594 0 0 1 0 1.188h-4.4c-.642 0-1.164.52-1.164 1.16v.082c0 .64.522 1.161 1.163 1.161h4.401a.594.594 0 0 1 0 1.187" fill="#1B282C"/>
        <path d="M184.432 146.283h-4.401c-.966 0-1.756.79-1.756 1.755v.081c0 .965.79 1.755 1.756 1.755h4.4" fill="#FAD9C7"/>
        <path d="M184.432 150.468h-4.4a2.352 2.352 0 0 1-2.351-2.35v-.08a2.352 2.352 0 0 1 2.35-2.348h4.401a.594.594 0 0 1 0 1.187h-4.4c-.642 0-1.164.52-1.164 1.161v.08c0 .642.522 1.162 1.163 1.162h4.401a.594.594 0 0 1 0 1.188" fill="#1B282C"/>
        <path d="M184.432 142.794h-4.401c-.966 0-1.756.79-1.756 1.756v.08c0 .966.79 1.755 1.756 1.755h4.4" fill="#FAD9C7"/>
        <path d="M184.432 146.978h-4.4a2.352 2.352 0 0 1-2.351-2.348v-.08a2.352 2.352 0 0 1 2.35-2.349h4.401a.594.594 0 0 1 0 1.187h-4.4c-.642 0-1.164.521-1.164 1.161v.081c0 .64.522 1.161 1.163 1.161h4.401a.594.594 0 0 1 0 1.187" fill="#1B282C"/>
        <path d="M173.663 149.404v-5.598a2.13 2.13 0 0 1 2.122-2.127h5.138c1.168 0 2.123.957 2.123 2.127s-.955 2.128-2.123 2.128h-3.502" fill="#FAD9C7"/>
        <path d="M173.663 149.998a.594.594 0 0 1-.593-.594v-5.598c0-1.5 1.218-2.72 2.715-2.72h5.139a2.721 2.721 0 0 1 0 5.441h-3.504a.594.594 0 1 1 0-1.187h3.504c.843 0 1.528-.688 1.528-1.534 0-.845-.685-1.533-1.528-1.533h-5.139c-.843 0-1.528.688-1.528 1.533v5.598a.594.594 0 0 1-.594.594" fill="#1B282C"/>
        <path d="M176.867 122.837v12.419c0 .644.535 1.167 1.195 1.167h2.304v-17.468c-1.966.248-3.5 1.897-3.5 3.882" fill="#B3C9E7"/>
        <path d="M179.773 119.696c-1.356.452-2.313 1.704-2.313 3.14v12.42c0 .316.27.573.602.573h1.71v-16.133zm.593 17.32h-2.304c-.986 0-1.789-.79-1.789-1.76v-12.42c0-2.258 1.727-4.18 4.019-4.47a.596.596 0 0 1 .668.589v17.468a.594.594 0 0 1-.594.593z" fill="#8FB3DC"/>
        <path d="M182.419 118.955v17.468h2.304c.66 0 1.195-.523 1.195-1.167v-12.419c0-1.985-1.533-3.634-3.5-3.882" fill="#B3C9E7"/>
        <path d="M183.012 135.83h1.71c.333 0 .603-.258.603-.574v-12.419c0-1.437-.957-2.69-2.313-3.141v16.133zm1.71 1.186h-2.304a.594.594 0 0 1-.593-.593v-17.468a.594.594 0 0 1 .668-.589c2.291.29 4.02 2.211 4.02 4.471v12.419c0 .97-.804 1.76-1.79 1.76z" fill="#8FB3DC"/>
        <path d="M147.72 114.394a6.27 6.27 0 1 0 12.542 0 6.27 6.27 0 0 0-12.541 0" fill="#FAD9C7"/>
        <path d="M153.81 114.935a.594.594 0 0 1-.117-1.176l3.072-.623a.594.594 0 0 1 .236 1.163l-3.072.624a.607.607 0 0 1-.119.012m.181-6.269a5.735 5.735 0 0 0-5.728 5.728 5.734 5.734 0 0 0 5.728 5.728 5.734 5.734 0 0 0 5.728-5.728 5.735 5.735 0 0 0-5.728-5.728m0 12.643a6.923 6.923 0 0 1-6.915-6.915 6.923 6.923 0 0 1 6.915-6.915 6.923 6.923 0 0 1 6.916 6.915 6.923 6.923 0 0 1-6.916 6.915" fill="#1B282C"/>
        <path d="M113.956 115.359a6.27 6.27 0 1 1-12.542 0 6.27 6.27 0 0 1 12.542 0" fill="#FAD9C7"/>
        <path d="M107.866 115.9a.614.614 0 0 1-.12-.012l-3.071-.624a.594.594 0 0 1 .235-1.164l3.073.624a.594.594 0 0 1-.117 1.176m-.181-6.27a5.735 5.735 0 0 0-5.728 5.729 5.735 5.735 0 0 0 5.728 5.728 5.735 5.735 0 0 0 5.728-5.728 5.735 5.735 0 0 0-5.728-5.729m0 12.644a6.923 6.923 0 0 1-6.915-6.915 6.923 6.923 0 0 1 6.915-6.916 6.923 6.923 0 0 1 6.915 6.916 6.923 6.923 0 0 1-6.915 6.915" fill="#1B282C"/>
        <path d="m107.9 116.204 2.605-11.525c1.671-7.706 10.631-13.185 20.227-13.197h.347c9.596.012 18.556 5.491 20.228 13.197l2.605 11.525c2.441 11.253-6.922 22.066-21.367 22.066h-3.279c-14.444 0-23.808-10.813-21.367-22.066" fill="#FAD9C7"/>
        <path d="M108.428 116.336c-1.057 4.88.131 9.764 3.346 13.75 3.916 4.857 10.29 7.642 17.49 7.642h3.285c7.199 0 13.573-2.785 17.49-7.641 3.215-3.988 4.403-8.873 3.344-13.754l-2.61-11.546c-1.577-7.266-10.043-12.75-19.694-12.763h-.315c-9.682.013-18.148 5.497-19.724 12.759l-2.612 11.553zm24.12 22.579h-3.285c-7.56 0-14.271-2.946-18.413-8.083-3.446-4.273-4.718-9.512-3.581-14.75l.001-.006 2.61-11.55c1.69-7.789 10.655-13.676 20.851-13.689h.317c10.229.013 19.193 5.9 20.884 13.694l2.61 11.545c1.138 5.244-.134 10.483-3.58 14.756-4.142 5.137-10.853 8.083-18.413 8.083z" fill="#1B282C"/>
        <path d="M136 114.104a1.881 1.881 0 1 0 3.762 0 1.881 1.881 0 0 0-3.763 0M124.809 114.104a1.881 1.881 0 1 0 3.762 0 1.881 1.881 0 0 0-3.762 0M131.912 130.687c-1.772 0-3.541-.52-4.99-1.572a.593.593 0 1 1 .697-.96c2.649 1.922 6.542 1.78 9.058-.329a.593.593 0 1 1 .763.91c-1.545 1.295-3.538 1.951-5.528 1.951" fill="#1B282C"/>
        <path d="M139.28 120.182a5.547 5.547 0 1 0 11.094 0 5.547 5.547 0 0 0-11.095 0M113.714 120.182a5.547 5.547 0 1 0 11.095 0 5.547 5.547 0 0 0-11.095 0" fill="#F3B1B5"/>
        <path d="M135.103 124.294a3.595 3.595 0 0 1-2.136-.698c-.221-.158-.434-.318-.643-.474-1.374-1.03-2.124-1.527-3.165-.89a1.956 1.956 0 0 1-1.202 1.486.593.593 0 1 1-.431-1.106.767.767 0 0 0 .475-.71v-.01a.773.773 0 0 0-.37-.66.594.594 0 1 1 .605-1.02c.316.187.568.46.733.78 1.573-.692 2.839.259 4.068 1.18.2.151.407.306.621.46 1.582 1.132 3.348-.127 3.423-.182a.594.594 0 0 1 .703.956c-.07.052-1.226.888-2.681.888" fill="#1B282C"/>
        <path d="M128.757 108.254s-1.818-2.702-3.726-.301" fill="#FAD9C7"/>
        <path d="M128.758 108.848a.592.592 0 0 1-.492-.261c-.192-.28-.835-1.01-1.514-1.034-.402-.015-.838.244-1.256.77a.594.594 0 0 1-.93-.74c.668-.839 1.428-1.248 2.236-1.216 1.422.056 2.407 1.495 2.448 1.556a.593.593 0 0 1-.492.925" fill="#1B282C"/>
        <path d="M139.83 108.254s-1.818-2.702-3.725-.301" fill="#FAD9C7"/>
        <path d="M139.831 108.848a.592.592 0 0 1-.492-.261c-.191-.28-.835-1.01-1.513-1.034-.418-.015-.839.244-1.256.77a.594.594 0 0 1-.93-.74c.667-.839 1.409-1.254 2.235-1.216 1.422.056 2.407 1.495 2.448 1.556a.593.593 0 0 1-.492.925" fill="#1B282C"/>
        <path d="M130.986 103.401c-.08-1.38-.16-2.76-.242-4.14 2.14 2.207 3.458 4.36 6.489 3.877-1.21-.414-.108-2.83.078-4.097.98 2.872 4.707 3.453 7.733 3.552 3.025.098 6.754.693 7.718 3.57 1.045-5.125-1.51-10.544-5.553-13.85-4.043-3.307-9.339-4.74-14.547-5.073-3.258-.208-6.67.017-9.525 1.603-.937.52-1.805 1.182-2.813 1.541-.894.318-1.854.382-2.786.554-4.49.828-8.295 4.327-9.86 8.625-1.565 4.299-.983 9.247 1.205 13.264 1.637-4.608 6.46-6.886 9.769-10.1 2.442-2.371 2.49-3.906 5.483-2.508.01.004 6.94 4.697 6.851 3.182" fill="#1B282C"/>
        <path d="M130.708 87.966c-2.965 0-5.28.51-7.187 1.57-.29.16-.572.335-.855.51-.645.399-1.313.812-2.077 1.084-.7.249-1.408.354-2.094.456-.272.04-.544.08-.814.13-4.105.758-7.74 3.945-9.26 8.118-1.257 3.454-1.078 7.508.442 11.127 1.411-2.535 3.73-4.334 5.983-6.084 1.17-.908 2.276-1.766 3.255-2.717.545-.53.967-1.017 1.34-1.448 1.4-1.619 2.325-2.473 5.029-1.21.037.017.1.055.133.078 2.61 1.746 4.607 2.843 5.554 3.202l-.202-3.474a.79.79 0 0 1 1.357-.597c.344.353.666.706.977 1.046 1.281 1.401 2.219 2.426 3.61 2.623-.057-.776.188-1.687.38-2.402.107-.398.208-.774.249-1.051a.791.791 0 0 1 1.531-.142c.649 1.898 2.941 2.884 7.01 3.016 1.39.046 5.013.164 7.129 2.098.01-3.95-2.04-8.152-5.49-10.974-3.467-2.835-8.341-4.528-14.096-4.895a29.923 29.923 0 0 0-1.904-.064m-21.826 25.652a.791.791 0 0 1-.695-.413c-2.37-4.355-2.84-9.556-1.253-13.912 1.707-4.69 5.813-8.276 10.46-9.134.288-.053.578-.096.868-.14.64-.094 1.242-.184 1.796-.38.606-.216 1.174-.568 1.775-.94.304-.187.608-.375.92-.548 2.574-1.43 5.742-1.97 9.96-1.701 6.086.389 11.272 2.204 14.997 5.25 4.586 3.75 6.874 9.49 5.828 14.621a.792.792 0 0 1-1.526.094c-.64-1.907-2.927-2.9-6.994-3.031-1.445-.047-5.305-.173-7.382-2.328-.132.55-.245 1.165-.13 1.353a.774.774 0 0 1 .523.807.79.79 0 0 1-.672.704c-2.653.42-4.2-.912-5.694-2.507l.113 1.942c.025.422-.166.791-.512.988-.418.24-1.287.736-7.519-3.433-1.703-.785-1.929-.524-3.107.838-.375.432-.84.97-1.434 1.547-1.042 1.012-2.234 1.938-3.387 2.833-2.638 2.047-5.129 3.981-6.189 6.963a.792.792 0 0 1-.746.527M133.14 118.695a.594.594 0 1 1 0-1.187c.532 0 .965-.41.965-.913 0-.504-.433-.914-.964-.914a.594.594 0 1 1 0-1.187c1.186 0 2.151.943 2.151 2.1 0 1.16-.965 2.101-2.151 2.101M77.525 90.266c2.781-1.304 6.282-.911 8.703.977 2.636 2.056 3.794 5.479 4.32 8.775 1.657 10.413-1.646 21.07-.51 31.551.316 2.914 1.02 5.89 2.804 8.219 1.784 2.328 4.854 3.86 7.702 3.14.262 2.826-1.108 5.746-3.451 7.354-2.343 1.609-5.566 1.842-8.118.587-.62 2.37-3.657 3.482-5.983 2.695-2.326-.788-3.94-2.937-4.908-5.189-2.424 1.253-5.534-.45-6.774-2.876-1.24-2.427-1.12-5.294-.97-8.013l1.538-28.025c.334-6.09-1.223-15.973 5.647-19.195" fill="#1B282C"/>
        <path d="M78.084 147.584a.796.796 0 0 1 .728.479c.61 1.42 1.996 3.926 4.434 4.751 1.077.365 2.39.246 3.422-.311.797-.43 1.345-1.082 1.542-1.834a.79.79 0 0 1 1.114-.51c2.283 1.122 5.225.91 7.32-.53 1.859-1.275 3.052-3.514 3.135-5.766-2.714.271-5.65-1.095-7.565-3.594-1.612-2.105-2.554-4.842-2.963-8.614-.545-5.03-.08-10.143.37-15.086.493-5.423 1.004-11.03.144-16.426-.62-3.892-1.973-6.676-4.024-8.276-2.192-1.71-5.36-2.065-7.88-.884-5.157 2.418-5.145 9.005-5.135 14.818.002 1.32.005 2.567-.058 3.703l-1.537 28.025c-.137 2.488-.292 5.307.884 7.61.63 1.234 1.823 2.258 3.114 2.672.653.21 1.633.356 2.592-.139a.793.793 0 0 1 .363-.088m6.484 7.024a5.714 5.714 0 0 1-1.83-.294c-2.05-.695-3.826-2.43-5.057-4.923-.947.289-1.982.266-3.036-.072-1.677-.54-3.225-1.864-4.04-3.46-1.37-2.683-1.195-5.862-1.055-8.416l1.538-28.025c.06-1.092.057-2.317.055-3.614-.01-5.974-.024-13.408 6.046-16.255 3.047-1.428 6.874-.998 9.526 1.07 2.377 1.854 3.929 4.975 4.614 9.275.89 5.59.37 11.298-.131 16.818-.443 4.867-.901 9.899-.373 14.772.377 3.472 1.217 5.957 2.646 7.822 1.735 2.266 4.563 3.442 6.879 2.855a.792.792 0 0 1 .982.695c.29 3.127-1.198 6.299-3.791 8.079-2.356 1.617-5.461 1.973-8.125.983-.419.812-1.105 1.497-1.997 1.978a6.043 6.043 0 0 1-2.851.712M25.22 180.935l-10.773-7.264a2.355 2.355 0 0 0-3.67 1.945V193c0 1.297 1.054.102 2.353.102h12.09v-12.166z" fill="#1B282C"/>
        <path d="M13.13 173.862c-.97 0-1.76.787-1.76 1.754v17.326a19.3 19.3 0 0 0 .218-.08c.396-.15.94-.354 1.542-.354h11.496V181.25l-10.51-7.087a1.754 1.754 0 0 0-.986-.302m-2.006 20.335a.878.878 0 0 1-.515-.156c-.425-.294-.425-.857-.425-1.042v-17.383a2.947 2.947 0 0 1 4.595-2.437l10.772 7.264c.164.11.262.294.262.492V193.1a.594.594 0 0 1-.594.594H13.13c-.387 0-.778.148-1.123.278-.294.111-.594.224-.883.224" fill="#1B282C"/>
        <path d="m50.026 172.98-.805.257v19.867h23.367c6.994 0 12.665-3.437 12.665-10.447v-9.693H50.134a.355.355 0 0 0-.108.016" fill="#8FB3DC"/>
        <path d="M49.815 192.51h22.773c8.9 0 12.071-5.09 12.071-9.853v-9.1H50.171l-.356.114v18.84zm22.773 1.188H49.221a.594.594 0 0 1-.593-.594v-19.867c0-.259.167-.488.413-.566l.805-.256a.943.943 0 0 1 .288-.045h35.119c.328 0 .593.266.593.594v9.693c0 6.707-5.204 11.04-13.258 11.04z" fill="#1B282C"/>
        <path fill="#FAD9C7" d="M34.322 178.038v15.015H44.39v-18.215z"/>
        <path d="M34.864 192.51h8.983v-16.912l-8.983 2.842v14.07zm9.577 1.188h-10.17a.594.594 0 0 1-.594-.594v-15.099c0-.259.168-.488.414-.566l10.171-3.218a.595.595 0 0 1 .773.566v18.317a.594.594 0 0 1-.594.594z" fill="#1B282C"/>
        <path fill="#FEFEFE" d="M25.117 180.916v12.188h9.255v-15.117z"/>
        <path d="M25.711 192.51h8.068v-13.712l-8.068 2.553v11.16zm8.662 1.188h-9.255a.594.594 0 0 1-.594-.594v-12.188c0-.259.168-.488.414-.566l9.255-2.929a.596.596 0 0 1 .773.566v15.117a.594.594 0 0 1-.593.594z" fill="#1B282C"/>
        <path d="M44.34 174.273v18.831h4.983v-19.868l-3.964.026a1.019 1.019 0 0 0-1.02 1.011" fill="#8FB3DC"/>
        <path d="M44.933 192.51h3.796v-18.677l-3.366.023a.426.426 0 0 0-.43.417v18.237zm4.39 1.188h-4.984a.594.594 0 0 1-.593-.594v-18.83c0-.88.722-1.6 1.61-1.605l3.963-.027a.593.593 0 0 1 .598.594v19.868a.594.594 0 0 1-.594.594z" fill="#1B282C"/>
        <path d="M18.1 184.161a.594.594 0 0 1-.593-.593v-7.4a.594.594 0 1 1 1.187 0v7.4a.594.594 0 0 1-.594.593m3.153 2.313a.594.594 0 0 1-.594-.594v-7.4a.594.594 0 1 1 1.188 0v7.4a.594.594 0 0 1-.594.594" fill="#FEFEFE"/>
        <path d="M13.117 173.864c-.963 0-1.746.786-1.746 1.754v17.323l.21-.078c.395-.15.935-.355 1.536-.355h59.49c5.826 0 12.052-2.588 12.052-9.852v-9.099H50.222l-.768.245a.594.594 0 0 1-.176.028l-3.888.027a.417.417 0 0 0-.411.417v.522a.593.593 0 0 1-.413.566l-19.249 6.14a.59.59 0 0 1-.513-.075l-10.711-7.263a1.73 1.73 0 0 0-.976-.3zm-1.995 20.334a.878.878 0 0 1-.513-.156c-.425-.294-.425-.857-.425-1.042v-17.382a2.94 2.94 0 0 1 2.933-2.941c.588 0 1.156.174 1.643.504l10.472 7.102 18.56-5.92v-.089c0-.879.713-1.598 1.59-1.604l3.797-.026.718-.23a.965.965 0 0 1 .289-.044h35.066c.328 0 .594.266.594.594v9.692c0 6.706-5.197 11.04-13.24 11.04h-59.49c-.382 0-.77.146-1.114.277-.293.111-.592.225-.88.225z" fill="#1B282C"/>
        <path d="M34.068 155.047c-3.634-5.043-2.136-11.178 2.695-13.348l12.473-5.4c4.867-1.817 7.723.01 9.979 3.14 2.257 3.132 2.52 6.979.414 8.689l-11.184 9.781c-4.035 3.276-10.743 2.181-14.377-2.862" fill="#D9E159"/>
        <path d="M52.818 136.116c-1.028 0-2.14.233-3.365.69l-12.489 5.412c-2.057.925-3.516 2.638-4.102 4.821-.672 2.506-.073 5.31 1.644 7.692 1.75 2.43 4.376 4.04 7.207 4.416 2.397.32 4.658-.268 6.364-1.655l11.207-9.81c1.849-1.501 1.62-4.979-.506-7.93-1.77-2.457-3.65-3.636-5.96-3.636m-9.84 24.304c-.468 0-.943-.032-1.422-.096-3.153-.42-6.074-2.205-8.014-4.899-1.925-2.673-2.591-5.842-1.826-8.693.68-2.534 2.373-4.523 4.77-5.6l12.523-5.426c5.815-2.172 8.787.651 10.732 3.352 2.493 3.461 2.628 7.648.308 9.532l-11.206 9.81c-1.632 1.326-3.673 2.02-5.866 2.02M22.036 185.393l-10.773-7.265a2.35 2.35 0 0 0-3.67 1.946v15.14a2.35 2.35 0 0 0 2.353 2.347h12.09v-12.168z" fill="#1B282C"/>
        <g transform="translate(7 177.132)">
            <mask id="4hvg55avxf" fill="#fff">
                <use xlink:href="#l41ttf35ce"/>
            </mask>
            <path d="M2.946 1.187c-.97 0-1.759.787-1.759 1.755v15.14c0 .967.79 1.753 1.76 1.753h11.495V8.577L3.932 1.488a1.76 1.76 0 0 0-.986-.3m12.09 19.835H2.946A2.947 2.947 0 0 1 0 18.08V2.942A2.948 2.948 0 0 1 4.595.504l10.773 7.265c.163.11.261.294.261.492v12.168a.594.594 0 0 1-.593.594" fill="#1B282C" mask="url(#4hvg55avxf)"/>
        </g>
        <path d="m46.843 177.438-.806.256v19.867H72.77c6.993 0 12.662-3.437 12.662-10.447v-9.693h-38.48a.355.355 0 0 0-.108.017" fill="#287B96"/>
        <path d="M46.63 196.968h26.14c8.897 0 12.067-5.09 12.067-9.854v-9.1h-37.85l-.356.114v18.84zm26.14 1.187H46.036a.594.594 0 0 1-.593-.594v-19.867c0-.259.167-.487.413-.566l.805-.256a.952.952 0 0 1 .288-.044h38.481c.328 0 .594.265.594.593v9.693c0 6.707-5.204 11.04-13.256 11.04z" fill="#1B282C"/>
        <path fill="#FAD9C7" d="M31.138 182.495v15.015h10.069v-18.215z"/>
        <path d="M31.68 196.968h8.984v-16.913l-8.983 2.842v14.07zm9.577 1.187h-10.17a.594.594 0 0 1-.594-.593v-15.1c0-.259.168-.488.415-.565l10.17-3.218a.594.594 0 0 1 .773.566v18.317a.594.594 0 0 1-.594.593z" fill="#1B282C"/>
        <path fill="#FEFEFE" d="M21.934 185.373v12.188h9.255v-15.116z"/>
        <path d="M22.527 196.968h8.068v-13.713l-8.068 2.554v11.159zm8.662 1.187h-9.255a.594.594 0 0 1-.594-.593v-12.188c0-.26.168-.488.415-.566l9.255-2.93a.594.594 0 0 1 .772.567v15.117a.594.594 0 0 1-.593.593z" fill="#1B282C"/>
        <path d="M41.155 178.73v18.831h4.984v-19.868l-3.963.026a1.019 1.019 0 0 0-1.02 1.012" fill="#287B96"/>
        <path d="M41.75 196.968h3.796V178.29l-3.366.023a.427.427 0 0 0-.43.418v18.237zm4.39 1.187h-4.984a.594.594 0 0 1-.594-.594v-18.83c0-.88.722-1.6 1.61-1.605l3.963-.027c.16.016.31.061.422.172a.593.593 0 0 1 .176.422v19.868a.594.594 0 0 1-.594.594z" fill="#1B282C"/>
        <path d="M14.916 188.619a.594.594 0 0 1-.593-.594v-7.4a.594.594 0 1 1 1.187 0v7.4a.594.594 0 0 1-.594.594m3.153 2.312a.594.594 0 0 1-.593-.594v-7.4a.594.594 0 1 1 1.187 0v7.4a.594.594 0 0 1-.594.594" fill="#FEFEFE"/>
        <path d="M9.933 178.321c-.963 0-1.746.787-1.746 1.754v15.138c0 .968.783 1.755 1.746 1.755h62.853c5.826 0 12.052-2.589 12.052-9.854v-9.1H47.036l-.768.246a.592.592 0 0 1-.176.028l-3.888.026a.417.417 0 0 0-.41.418v.521a.593.593 0 0 1-.414.566l-19.247 6.14a.594.594 0 0 1-.513-.074l-10.71-7.264c-.29-.196-.628-.3-.977-.3zm62.853 19.834H9.933A2.94 2.94 0 0 1 7 195.213v-15.138a2.94 2.94 0 0 1 2.933-2.941c.588 0 1.156.175 1.643.505l10.471 7.102 18.56-5.921v-.088c0-.879.712-1.599 1.59-1.605l3.797-.026.717-.229a.962.962 0 0 1 .289-.045H85.43c.328 0 .594.266.594.594v9.693c0 6.707-5.197 11.041-13.24 11.041z" fill="#1B282C"/>
        <path d="M85.357 154.504c.395-11.363-4.243-16.659-13.852-18.65l-5.988-1.24c-9.61-1.99-19.1 4.243-21.09 13.852l-.729 1.072c-3.918 1.991-6.94 5.673-7.895 10.286l-.433 2.092c-1.668 8.051 3.555 14.028 11.606 15.696h15.536c.7.145 1.4-.044 2.096 0h20.749v-23.108z" fill="#D9E159"/>
        <path d="M47.011 177.07h15.506c.04 0 .08.003.12.011.333.07.695.043 1.077.014.302-.022.614-.045.94-.025h20.16V154.48c.371-10.658-3.639-16.068-13.407-18.093l-6-1.243c-4.5-.933-9.112-.046-12.983 2.497-3.87 2.543-6.516 6.423-7.449 10.927a.591.591 0 0 1-.09.212l-.729 1.075a.588.588 0 0 1-.222.196c-3.94 2.004-6.71 5.613-7.6 9.902l-.433 2.096c-1.507 7.275 2.957 13.304 11.11 15.02m16.109 1.243c-.215 0-.435-.015-.66-.057H46.95a.618.618 0 0 1-.12-.012c-8.887-1.842-13.746-8.446-12.092-16.434l.435-2.097c.95-4.594 3.894-8.467 8.086-10.65l.578-.851c1.019-4.764 3.833-8.867 7.935-11.563 4.136-2.716 9.064-3.664 13.876-2.666l6 1.243c10.313 2.137 14.74 8.085 14.353 19.285v23.152a.594.594 0 0 1-.593.593H64.617a5.926 5.926 0 0 0-.815.023c-.224.017-.45.034-.682.034" fill="#1B282C"/>
        <path d="M66.285 159.941H85.41l.026-3.53s1.62-11.807-5.316-16.633" fill="#D9E159"/>
        <path d="M85.461 160.586H66.234a.594.594 0 0 1 0-1.187h18.638l.021-2.96c0-.025.002-.05.006-.076.016-.115 1.494-11.565-5.095-16.15a.593.593 0 1 1 .678-.973c2.992 2.08 4.906 5.742 5.536 10.587.446 3.43.111 6.276.062 6.658l-.025 3.512a.594.594 0 0 1-.594.589" fill="#1B282C"/>
        <path d="M60.9 197.756h17.403s6.792 1.173 6.792-5.195v-4.178l.316-28.442H66.285l2.762 26.757-8.997 5.54s-4.457 3.005.85 5.518" fill="#FAD9C7"/>
        <path d="M60.993 197.213h17.335c.034 0 .067.003.1.008.029.005 2.955.48 4.729-1.019.925-.781 1.394-1.994 1.394-3.604v-4.19l.311-27.924h-17.94l2.704 26.174a.593.593 0 0 1-.28.567l-9.029 5.554c-.42.286-1.55 1.285-1.472 2.285.03.384.234.734.53 1.047.045-.324.157-.625.337-.901.608-.934 1.753-1.187 1.882-1.212l7.207-1.907a.593.593 0 1 1 .304 1.147l-7.243 1.916c-.04.009-.816.178-1.158.708-.163.253-.201.557-.119.93a.58.58 0 0 1 .009.213c.133.074.268.143.4.208m18.553 1.274a8.673 8.673 0 0 1-1.267-.087H60.858a.588.588 0 0 1-.254-.057c-1.859-.88-2.85-1.953-2.943-3.192-.143-1.895 1.925-3.31 2.013-3.37l8.733-5.372-2.734-26.458a.593.593 0 0 1 .59-.655h19.2a.595.595 0 0 1 .593.6l-.318 28.519v4.183c0 1.979-.612 3.498-1.82 4.516-1.362 1.147-3.162 1.373-4.371 1.373" fill="#1B282C"/>
        <path d="M71.972 138.815c0 3.414-3.256 6.182-7.272 6.182-4.017 0-7.273-2.768-7.273-6.182 0-3.414 3.256-6.182 7.273-6.182 4.016 0 7.272 2.768 7.272 6.182" fill="#FAD9C7"/>
        <path d="M64.7 133.176c-3.711 0-6.73 2.53-6.73 5.639 0 3.11 3.019 5.639 6.73 5.639 3.71 0 6.73-2.53 6.73-5.639 0-3.11-3.02-5.64-6.73-5.64m0 12.466c-4.366 0-7.917-3.062-7.917-6.826s3.551-6.826 7.917-6.826c4.365 0 7.917 3.062 7.917 6.826s-3.552 6.826-7.917 6.826" fill="#1B282C"/>
        <path d="M60.12 141.69h-.045a.792.792 0 0 1-.746-.836l.15-2.657a.792.792 0 0 1 1.581.09l-.15 2.657a.791.791 0 0 1-.79.746m8.911.14a.791.791 0 0 1-.786-.898c.119-.87.145-1.755.08-2.63a.792.792 0 0 1 1.578-.119c.074.986.044 1.982-.09 2.961a.792.792 0 0 1-.782.685" fill="#1B282C"/>
        <path d="M48.556 117.548a5.944 5.944 0 1 1-11.888 0 5.944 5.944 0 0 1 11.888 0" fill="#FAD9C7"/>
        <path d="M42.783 118.092a.614.614 0 0 1-.12-.012l-2.912-.591a.594.594 0 0 1 .236-1.164l2.914.591a.594.594 0 0 1-.118 1.176m-.171-5.945a5.407 5.407 0 0 0-5.402 5.401 5.407 5.407 0 0 0 5.402 5.401 5.407 5.407 0 0 0 5.4-5.4c0-2.979-2.422-5.402-5.4-5.402m0 11.99a6.596 6.596 0 0 1-6.589-6.589 6.596 6.596 0 0 1 6.589-6.588 6.596 6.596 0 0 1 6.588 6.588 6.596 6.596 0 0 1-6.588 6.589" fill="#1B282C"/>
        <path d="M80.56 118.463a5.944 5.944 0 1 0 11.888 0 5.944 5.944 0 0 0-11.887 0" fill="#FAD9C7"/>
        <path d="M86.333 119.006a.594.594 0 0 1-.117-1.175l2.914-.592a.594.594 0 1 1 .236 1.164l-2.914.592a.607.607 0 0 1-.119.011m.172-5.944a5.407 5.407 0 0 0-5.402 5.4 5.407 5.407 0 0 0 5.402 5.402 5.407 5.407 0 0 0 5.4-5.401c0-2.978-2.422-5.401-5.4-5.401m0 11.99a6.596 6.596 0 0 1-6.589-6.59 6.596 6.596 0 0 1 6.589-6.587 6.596 6.596 0 0 1 6.588 6.588 6.596 6.596 0 0 1-6.588 6.588" fill="#1B282C"/>
        <path d="m86.302 119.264-2.47-10.924c-1.584-7.305-10.078-12.498-19.174-12.51H64.33c-9.096.012-17.59 5.205-19.174 12.51l-2.47 10.924c-2.314 10.667 6.562 20.916 20.254 20.916H66.048c13.692 0 22.568-10.249 20.254-20.916" fill="#FAD9C7"/>
        <path d="M64.36 96.373c-9.166.012-17.178 5.201-18.668 12.07l-2.477 10.955c-1 4.613.123 9.234 3.166 13.007 3.706 4.597 9.74 7.233 16.555 7.233h3.116c6.815 0 12.85-2.636 16.555-7.232 3.042-3.773 4.166-8.393 3.165-13.01l-2.474-10.947c-1.492-6.875-9.505-12.064-18.64-12.076h-.299zm1.692 44.452h-3.116c-7.176 0-13.547-2.797-17.48-7.674-3.272-4.059-4.479-9.034-3.4-14.01l2.476-10.954c1.605-7.397 10.116-12.989 19.796-13.002h.301c9.71.013 18.222 5.605 19.828 13.007l2.474 10.945v.004c1.08 4.976-.127 9.952-3.4 14.01-3.932 4.877-10.303 7.674-17.48 7.674z" fill="#1B282C"/>
        <path d="M62.952 92.562s-18.345 1.382-20.18 17.955c0 0 9.173 1.841 17.429-6.445 0 0 10.548 8.746 26.6 8.286 0 0 0-21.177-23.849-19.796" fill="#1B282C"/>
        <path d="M60.2 103.28a.79.79 0 0 1 .505.182c.102.084 10.173 8.267 25.263 8.12-.176-2.203-1.103-8.63-5.955-13.2-3.991-3.759-9.714-5.452-17.006-5.03-.187.016-4.599.408-9.147 2.703-5.867 2.96-9.296 7.594-10.203 13.78.904.084 2.583.144 4.67-.226 2.902-.513 7.22-1.987 11.313-6.096a.79.79 0 0 1 .56-.233m25.36 9.887c-13.586 0-22.948-6.289-25.3-8.046-8.32 7.931-17.26 6.25-17.644 6.172a.792.792 0 0 1-.63-.863C43.87 93.4 62.702 91.787 62.892 91.773h.014c7.757-.449 13.882 1.39 18.204 5.47 6.408 6.047 6.482 14.748 6.482 15.115 0 .429-.341.78-.769.791a43.89 43.89 0 0 1-1.265.018M63.54 133.026c-1.895 0-3.792-.626-5.263-1.862a.593.593 0 1 1 .764-.91c2.376 1.997 6.053 2.131 8.552.311a.594.594 0 0 1 .699.96c-1.38 1.004-3.065 1.5-4.752 1.5" fill="#1B282C"/>
        <path d="M56.557 123.035a5.258 5.258 0 1 1-10.516 0 5.258 5.258 0 0 1 10.516 0M80.79 123.035a5.258 5.258 0 1 1-10.516 0 5.258 5.258 0 0 1 10.515 0" fill="#F3B1B5"/>
        <path d="M59.678 112.226s-1.726-2.572-3.536-.286" fill="#FAD9C7"/>
        <path d="M59.679 112.82a.592.592 0 0 1-.492-.261c-.179-.263-.782-.949-1.414-.971-.384-.012-.777.228-1.166.72a.594.594 0 0 1-.93-.737c.639-.807 1.365-1.197 2.146-1.17 1.343.053 2.25 1.347 2.348 1.495a.594.594 0 0 1-.492.924" fill="#1B282C"/>
        <path d="M70.175 112.226s-1.727-2.572-3.537-.286" fill="#FAD9C7"/>
        <path d="M70.175 112.82a.592.592 0 0 1-.492-.261c-.179-.263-.781-.949-1.413-.971-.388-.012-.777.228-1.167.72a.594.594 0 0 1-.93-.737c.64-.807 1.366-1.197 2.147-1.17 1.342.053 2.249 1.347 2.347 1.495a.594.594 0 0 1-.492.924M56.167 118.855c-.735 0-1.362-.292-1.766-.822-.415-.544-.534-1.287-.327-2.039a.594.594 0 0 1 1.145.315c-.11.397-.064.754.127 1.005.174.228.465.354.82.354.894 0 1.86-.767 2.11-1.674a.595.595 0 0 1 1.144.315c-.393 1.428-1.822 2.546-3.253 2.546m12.587 0c-.735 0-1.362-.292-1.766-.822-.415-.544-.534-1.287-.327-2.039a.593.593 0 1 1 1.145.315c-.11.397-.064.754.126 1.004.174.229.466.355.822.355.893 0 1.86-.767 2.108-1.674a.594.594 0 0 1 1.145.315c-.393 1.428-1.821 2.546-3.253 2.546m-6.464 3.154a2.064 2.064 0 0 1-2.059-2.065c0-1.139.924-2.065 2.059-2.065a.594.594 0 1 1 0 1.188.875.875 0 0 0-.871.877c0 .484.39.877.87.877a.594.594 0 1 1 0 1.188m.233 4.784c-1.448 0-2.598-.815-2.667-.865a.593.593 0 0 1 .694-.963c.075.053 1.838 1.284 3.413.177.213-.15.419-.3.619-.447 1.223-.9 2.482-1.826 4.047-1.15.165-.314.417-.581.732-.764a.594.594 0 0 1 .597 1.026.733.733 0 0 0-.363.628v.01c.002.3.189.572.467.677a.594.594 0 1 1-.424 1.11c-.63-.24-1.081-.8-1.2-1.452-1.037-.62-1.785-.135-3.153.871-.207.152-.42.308-.64.462-.72.506-1.452.68-2.122.68" fill="#1B282C"/>
        <path d="M68.062 136.603c.482 1.815-.35 3.899-1.95 4.885.367 1.57-.891 3.315-2.5 3.465-.162 1.64-1.453 3.107-3.06 3.48-.667.154-1.365.135-2.03.295-2.896.697-3.97 4.478-3.122 7.328.18.605.423 1.207.42 1.838-.01 1.464-1.312 2.583-2.61 3.263-1.767.926-4.184 1.336-5.573-.094-1.448-1.492-.859-3.96 0-5.853.857-1.894 1.91-4.026 1.105-5.941-.519-1.233-1.704-2.751-.695-3.631-1.33-.478-2.098-2.13-1.607-3.452.217-.584.646-1.137.568-1.755-.062-.49-.428-.877-.671-1.306-.636-1.126-.395-2.581.273-3.69.667-1.107 1.697-1.94 2.706-2.751-.358-.796.026-1.768.674-2.353.647-.586 1.504-.873 2.334-1.145l5.692-1.866c1.632-.535 5.098-.792 5.871 1.288.102.274.246.64.537.602.155-.02.263-.158.387-.254.434-.337 1.11-.13 1.461.29.706.848 1.685 3.035 1.988 4.122.303 1.086-.403 2.464-.198 3.235" fill="#F5AB00"/>
        <path d="M60.514 127.54c-.858 0-1.723.151-2.313.344l-5.692 1.866c-.765.25-1.557.51-2.121 1.021-.452.41-.78 1.114-.531 1.67a.592.592 0 0 1-.17.705c-.957.77-1.948 1.566-2.57 2.596-.63 1.047-.733 2.26-.264 3.09.063.112.136.22.209.329.222.332.473.709.534 1.196.078.61-.172 1.123-.392 1.576a5.17 5.17 0 0 0-.207.46c-.18.482-.143 1.06.101 1.583.244.526.663.928 1.15 1.103a.593.593 0 0 1 .189 1.006c-.409.356-.096 1.053.429 2.075.148.29.302.589.423.879.868 2.065-.12 4.234-.99 6.148l-.122.268c-.613 1.352-1.443 3.825-.114 5.194 1.204 1.24 3.377.765 4.871-.018.686-.36 2.283-1.346 2.292-2.74.002-.412-.134-.84-.279-1.294-.04-.124-.08-.248-.116-.371-.572-1.922-.34-4.135.607-5.777.696-1.207 1.714-2.002 2.946-2.298.377-.09.75-.129 1.11-.165.325-.033.633-.065.924-.132 1.37-.318 2.465-1.562 2.604-2.96a.593.593 0 0 1 .535-.532c.597-.055 1.167-.405 1.566-.958.397-.551.546-1.2.41-1.78a.595.595 0 0 1 .267-.641c1.378-.849 2.103-2.667 1.688-4.228-.128-.483-.02-1.029.096-1.607.114-.572.232-1.163.104-1.62-.303-1.086-1.264-3.172-1.872-3.901-.171-.206-.5-.31-.641-.202-.02.015-.04.034-.061.052-.118.107-.316.284-.616.322-.762.099-1.057-.688-1.167-.985-.357-.96-1.58-1.275-2.817-1.275m-10.44 35.05c-1.058 0-2.082-.308-2.862-1.113-1.349-1.389-1.39-3.701-.116-6.511l.122-.27c.808-1.775 1.643-3.61.977-5.196-.105-.248-.24-.515-.386-.797-.433-.845-.993-1.937-.633-2.85a3.39 3.39 0 0 1-1.155-1.376c-.376-.81-.426-1.72-.137-2.496.074-.2.165-.387.252-.567.17-.348.315-.648.283-.908-.027-.209-.174-.43-.345-.685a6.416 6.416 0 0 1-.254-.403c-.687-1.216-.58-2.858.28-4.287.655-1.084 1.623-1.92 2.528-2.655-.202-.99.316-1.999.963-2.584.752-.68 1.706-.993 2.548-1.27l5.692-1.865c1.745-.572 5.658-.923 6.613 1.645l.026.069c.736-.548 1.74-.224 2.258.397.807.968 1.8 3.254 2.104 4.342.203.73.05 1.495-.084 2.171-.083.42-.17.854-.113 1.07.52 1.95-.266 4.122-1.878 5.318.072.794-.163 1.624-.67 2.33-.5.692-1.194 1.173-1.954 1.366-.358 1.698-1.746 3.152-3.448 3.546-.364.085-.724.122-1.072.157-.336.034-.653.066-.952.138-1.146.276-1.826 1.096-2.195 1.736-.776 1.349-.972 3.25-.497 4.846.035.116.072.233.11.35.165.521.337 1.06.334 1.66-.012 1.965-1.84 3.215-2.928 3.786-.983.515-2.219.906-3.41.906" fill="#1B282C"/>
        <path d="M57.304 143.626a1.87 1.87 0 0 1-.954-.254.592.592 0 1 1 .604-1.022c.26.153.657.104.87-.109a.72.72 0 0 0 .097-.847.593.593 0 0 1 .562-.905c.513.053.947-.297 1.182-.638.228-.331.394-.844.173-1.287a.594.594 0 0 1 .184-.746c.39-.28.574-.834.429-1.288-.146-.455-.622-.804-1.107-.811a.594.594 0 0 1 .009-1.188h.009c.987.016 1.92.704 2.22 1.638.252.788.034 1.693-.52 2.304.164.665.018 1.417-.419 2.052a2.67 2.67 0 0 1-1.448 1.068 1.905 1.905 0 0 1-.53 1.485 1.924 1.924 0 0 1-1.361.548" fill="#1B282C"/>
        <path d="M36.763 141.851s-12.642 2.663-12.642 12.73v2.137s0 5.644 5.644 5.644h18.154v-10.526l-11.156-9.985z" fill="#FAD9C7"/>
        <path d="M36.602 142.45c-1.844.472-11.939 3.457-11.939 12.145v2.146c.001.206.08 5.079 5.075 5.079h17.638v-9.72l-10.774-9.65zm11.368 20.557H29.738c-6.19 0-6.262-6.203-6.262-6.266v-2.146c0-10.48 13.036-13.348 13.168-13.376a.594.594 0 0 1 .518.139l11.204 10.035a.594.594 0 0 1 .197.442v10.578a.594.594 0 0 1-.593.594z" fill="#1B282C"/>
        <path d="M41.206 162.362H52.19V150.35c0-.777-.635-1.412-1.412-1.412h-1.066a8.46 8.46 0 0 0-5.323 1.883" fill="#FAD9C7"/>
        <path d="M52.241 163.007H41.155a.594.594 0 0 1 0-1.187h10.493v-11.51a.831.831 0 0 0-.832-.83H49.74c-1.81 0-3.585.628-5 1.767a.593.593 0 1 1-.744-.924 9.19 9.19 0 0 1 5.744-2.03h1.076a2.02 2.02 0 0 1 2.019 2.016v12.105a.594.594 0 0 1-.594.593" fill="#1B282C"/>
        <path d="M49.527 158.96h4.23c.928 0 1.688.76 1.688 1.688v.078c0 .928-.76 1.687-1.688 1.687h-4.23" fill="#FAD9C7"/>
        <path d="M53.757 163.007h-4.23a.594.594 0 1 1 0-1.187h4.23c.603 0 1.094-.49 1.094-1.095v-.077c0-.603-.49-1.095-1.094-1.095h-4.23a.593.593 0 1 1 0-1.187h4.23a2.284 2.284 0 0 1 2.281 2.282v.077a2.284 2.284 0 0 1-2.281 2.282" fill="#1B282C"/>
        <path d="M49.527 155.609h4.23c.928 0 1.688.76 1.688 1.688v.077c0 .929-.76 1.688-1.688 1.688h-4.23" fill="#FAD9C7"/>
        <path d="M53.757 159.656h-4.23a.594.594 0 1 1 0-1.187h4.23c.603 0 1.094-.49 1.094-1.095v-.077c0-.604-.49-1.095-1.094-1.095h-4.23a.593.593 0 1 1 0-1.187h4.23a2.284 2.284 0 0 1 2.281 2.282v.077a2.284 2.284 0 0 1-2.281 2.282" fill="#1B282C"/>
        <path d="M49.527 152.258h4.23c.928 0 1.688.76 1.688 1.688v.077c0 .928-.76 1.688-1.688 1.688h-4.23" fill="#FAD9C7"/>
        <path d="M53.757 156.305h-4.23a.594.594 0 1 1 0-1.188h4.23c.603 0 1.094-.49 1.094-1.094v-.078c0-.603-.49-1.094-1.094-1.094h-4.23a.593.593 0 1 1 0-1.187h4.23a2.284 2.284 0 0 1 2.281 2.281v.078a2.284 2.284 0 0 1-2.281 2.282" fill="#1B282C"/>
        <path d="M49.527 148.907h4.23c.928 0 1.688.759 1.688 1.687v.078c0 .928-.76 1.688-1.688 1.688h-4.23" fill="#FAD9C7"/>
        <path d="M53.757 152.953h-4.23a.594.594 0 1 1 0-1.187h4.23c.603 0 1.094-.49 1.094-1.094v-.078c0-.603-.49-1.094-1.094-1.094h-4.23a.593.593 0 1 1 0-1.187h4.23a2.284 2.284 0 0 1 2.281 2.281v.078a2.284 2.284 0 0 1-2.281 2.281" fill="#1B282C"/>
        <path stroke="#1B282C" stroke-width="1.5" stroke-linecap="round" d="M10 198h180"/>
    </g>
</svg>
