<svg width="200" height="200" viewBox="0 0 200 200" xmlns="http://www.w3.org/2000/svg" xmlns:xlink="http://www.w3.org/1999/xlink">
    <defs>
        <path d="M93.89 93.9c-18.49 18.489-46.861 21.048-68.105 7.707l-23.758 6.367 6.366-23.76C-4.947 62.972-2.39 34.6 16.1 16.112c21.48-21.481 56.308-21.481 77.788 0 21.481 21.48 21.481 56.307 0 77.788" id="6mh6ocqc0a"/>
        <path d="M93.89 93.9c-18.49 18.489-46.861 21.048-68.105 7.707l-23.758 6.367 6.366-23.76C-4.947 62.972-2.39 34.6 16.1 16.112c21.48-21.481 56.308-21.481 77.788 0 21.481 21.48 21.481 56.307 0 77.788" id="a7z7zyxuac"/>
        <path id="625lsvpqcd" d="M0 0h77.676v75.542H0z"/>
        <path id="3e3ltei7sf" d="M0 0h80.73v77.776H0z"/>
    </defs>
    <g fill="none" fill-rule="evenodd">
        <g transform="translate(89.721 2)">
            <mask id="yi8iezl5qb" fill="#fff">
                <use xlink:href="#6mh6ocqc0a"/>
            </mask>
            <use stroke="#000" stroke-width="2" fill="#FAD9C7" stroke-linecap="round" stroke-linejoin="round" xlink:href="#6mh6ocqc0a"/>
            <path d="M70.175 85.676c4.26 8.01 1.218 17.958-6.793 22.218-8.011 4.26-17.958 1.218-22.218-6.793-4.26-8.011-1.218-17.958 6.793-22.218 8.011-4.26 17.959-1.218 22.218 6.793" fill="#F8BC3D" mask="url(#yi8iezl5qb)"/>
            <path d="M68.733 89.308a8.47 8.47 0 1 1-14.958 7.953 8.47 8.47 0 0 1 14.958-7.953" fill="#FCDDA4" mask="url(#yi8iezl5qb)"/>
            <path d="M45.039 90.75a1.38 1.38 0 1 1-2.438 1.297 1.38 1.38 0 0 1 2.438-1.296" fill="#E85371" mask="url(#yi8iezl5qb)"/>
            <path d="M43.085 44.877c5.832-6.95 16.194-7.857 23.144-2.025 6.95 5.833 7.857 16.195 2.025 23.145-5.831 6.95-16.194 7.857-23.144 2.025-6.95-5.832-7.858-16.194-2.025-23.145" fill="#F8BC3D" mask="url(#yi8iezl5qb)"/>
            <path d="M46.993 44.854A8.47 8.47 0 1 1 59.97 55.743a8.47 8.47 0 0 1-12.977-10.89" fill="#FCDDA4" mask="url(#yi8iezl5qb)"/>
            <path d="M57.206 66.282a1.38 1.38 0 1 1 2.115 1.773 1.38 1.38 0 0 1-2.115-1.773" fill="#E85371" mask="url(#yi8iezl5qb)"/>
            <path d="M55.67 1.058c9.072 0 16.428 7.355 16.428 16.428S64.742 33.914 55.67 33.914c-9.073 0-16.429-7.355-16.429-16.428S46.597 1.058 55.67 1.058" fill="#F8BC3D" mask="url(#yi8iezl5qb)"/>
            <path d="M58.2 4.036a8.47 8.47 0 1 1 0 16.94 8.47 8.47 0 0 1 0-16.94" fill="#FCDDA4" mask="url(#yi8iezl5qb)"/>
            <path d="M48.35 25.634a1.38 1.38 0 1 1 0 2.76 1.38 1.38 0 0 1 0-2.76" fill="#E85371" mask="url(#yi8iezl5qb)"/>
            <path d="M107.872 25.199c4.26-8.011 1.219-17.959-6.793-22.218-8.01-4.26-17.958-1.219-22.217 6.792-4.26 8.012-1.218 17.959 6.793 22.219 8.01 4.26 17.958 1.218 22.217-6.793" fill="#F8BC3D" mask="url(#yi8iezl5qb)"/>
            <path d="M106.43 21.567a8.47 8.47 0 1 0-14.957-7.954 8.47 8.47 0 0 0 14.957 7.954" fill="#FCDDA4" mask="url(#yi8iezl5qb)"/>
            <path d="M82.736 20.124a1.38 1.38 0 1 0-2.438-1.296 1.38 1.38 0 0 0 2.438 1.296" fill="#E85371" mask="url(#yi8iezl5qb)"/>
            <path d="M80.782 65.997c5.833 6.951 16.195 7.858 23.145 2.025 6.95-5.832 7.857-16.194 2.025-23.145-5.832-6.95-16.194-7.856-23.145-2.024-6.95 5.832-7.857 16.194-2.025 23.144" fill="#F8BC3D" mask="url(#yi8iezl5qb)"/>
            <path d="M84.69 66.02a8.47 8.47 0 1 0 12.977-10.888A8.47 8.47 0 0 0 84.69 66.021" fill="#FCDDA4" mask="url(#yi8iezl5qb)"/>
            <path d="M94.904 44.593a1.38 1.38 0 1 0 2.114-1.773 1.38 1.38 0 0 0-2.114 1.773" fill="#E85371" mask="url(#yi8iezl5qb)"/>
            <path d="M93.367 109.817c9.073 0 16.428-7.355 16.428-16.428S102.44 76.96 93.367 76.96 76.94 84.316 76.94 93.389s7.355 16.428 16.428 16.428" fill="#F8BC3D" mask="url(#yi8iezl5qb)"/>
            <path d="M95.897 106.839a8.47 8.47 0 1 0 0-16.942 8.47 8.47 0 0 0 0 16.942" fill="#FCDDA4" mask="url(#yi8iezl5qb)"/>
            <path d="M86.047 85.24a1.38 1.38 0 1 0 0-2.759 1.38 1.38 0 0 0 0 2.76" fill="#E85371" mask="url(#yi8iezl5qb)"/>
            <path d="M1.903 96.804c1.886 8.875 10.61 14.54 19.484 12.654 8.875-1.887 14.54-10.61 12.655-19.485-1.887-8.875-10.61-14.54-19.486-12.654C5.682 79.205.016 87.93 1.903 96.804" fill="#F8BC3D" mask="url(#yi8iezl5qb)"/>
            <path d="M5.342 98.66a8.47 8.47 0 0 0 10.046 6.523 8.47 8.47 0 0 0 6.524-10.046 8.47 8.47 0 0 0-10.046-6.523A8.47 8.47 0 0 0 5.342 98.66" fill="#FCDDA4" mask="url(#yi8iezl5qb)"/>
            <path d="M24.42 84.534a1.38 1.38 0 1 0 2.699-.573 1.38 1.38 0 0 0-2.7.573" fill="#E85371" mask="url(#yi8iezl5qb)"/>
            <path d="M23.049 39.813C14.419 37.009 5.152 41.73 2.348 50.36c-2.804 8.628 1.918 17.897 10.547 20.7 8.63 2.804 17.898-1.918 20.701-10.547 2.804-8.63-1.918-17.897-10.547-20.701" fill="#F8BC3D" mask="url(#yi8iezl5qb)"/>
            <path d="M19.722 41.864a8.47 8.47 0 0 0-10.673 5.438 8.47 8.47 0 1 0 10.673-5.438" fill="#FCDDA4" mask="url(#yi8iezl5qb)"/>
            <path d="M22.416 65.448a1.38 1.38 0 1 0-.853 2.625 1.38 1.38 0 0 0 .853-2.625" fill="#E85371" mask="url(#yi8iezl5qb)"/>
            <path d="M21.946 1.546C13.143-.65 4.226 4.708 2.032 13.512c-2.195 8.803 3.162 17.72 11.966 19.914 8.803 2.195 17.72-3.162 19.914-11.966 2.196-8.804-3.162-17.72-11.966-19.914" fill="#F8BC3D" mask="url(#yi8iezl5qb)"/>
            <path d="M18.77 3.824A8.469 8.469 0 0 0 8.505 9.993a8.47 8.47 0 1 0 10.267-6.17" fill="#FCDDA4" mask="url(#yi8iezl5qb)"/>
            <path d="M23.103 27.163a1.38 1.38 0 1 0-.667 2.678 1.38 1.38 0 0 0 .667-2.678" fill="#E85371" mask="url(#yi8iezl5qb)"/>
            <use stroke="#000" stroke-width="2" stroke-linecap="round" stroke-linejoin="round" xlink:href="#a7z7zyxuac"/>
        </g>
        <path d="m84.17 152.082 4.363-17.569-8.167-6.25c-6.795-4.35-11.96-3.262-11.96-3.262l-2.372-1.08c-1.383-1.101-.074.807-.074.807l-25.823-1.63c-28.83 0-27.182 51.308-27.182 51.308.044.353.524 22.954 5.79 22.954h56.457c12.775-1.087 13.32-27.575 13.32-27.575l.815.61c0-8.42-2.416-14.318-5.167-18.313" fill="#F3B1B5"/>
        <g transform="translate(12.3 122.458)">
            <mask id="i7uquuykse" fill="#fff">
                <use xlink:href="#625lsvpqcd"/>
            </mask>
            <path d="M1.294 51.927c.004.073.01.204.017.39.52 13.331 2.535 21.945 5.134 21.945h56.43c12.036-1.062 12.7-26.69 12.706-26.948a.64.64 0 0 1 .798-.606c-.188-6.517-1.88-12.137-5.036-16.72a.64.64 0 0 1-.094-.518l4.26-17.162-7.832-5.995c-6.42-4.107-11.391-3.154-11.44-3.143a.658.658 0 0 1-.396-.045l-1.558-.71a.667.667 0 0 1-.067.171.623.623 0 0 1-.597.323l-25.822-1.63c-5.612 0-10.473 2.06-14.408 6.124C.448 20.768 1.284 51.617 1.294 51.927m61.608 23.616H6.445c-4.553 0-6-12.604-6.412-23.177a49.582 49.582 0 0 0-.015-.36c-.005-.116-.24-8.024 1.161-17.504 1.299-8.79 4.313-20.783 11.292-27.99C16.656 2.193 21.825 0 27.837 0l24.691 1.558c-.127-.366-.095-.657.156-.89.467-.435 1.042-.026 1.386.245l2.122.966c1.087-.163 5.982-.605 12.22 3.387l8.21 6.28a.641.641 0 0 1 .231.664L72.56 29.5c3.395 5.045 5.116 11.245 5.116 18.436a.636.636 0 0 1-.867.597c-.127 2.233-.54 7.27-1.837 12.333-2.34 9.13-6.496 14.203-12.016 14.673a.904.904 0 0 1-.054.003" fill="#1B282C" mask="url(#i7uquuykse)"/>
        </g>
        <path d="M74.227 102.804a7.697 7.697 0 1 0 15.395-.102 7.697 7.697 0 0 0-15.395.102" fill="#FAD9C7"/>
        <path d="M81.704 103.33a.64.64 0 0 1-.13-1.266l3.736-.784a.639.639 0 1 1 .262 1.252l-3.736.784a.651.651 0 0 1-.132.014zm-6.837-.53a7.013 7.013 0 0 0 2.1 4.977 7.006 7.006 0 0 0 5.004 2.033 7.012 7.012 0 0 0 4.977-2.1 7.007 7.007 0 0 0 2.034-5.004 7.066 7.066 0 0 0-7.057-7.01h-.047a7.01 7.01 0 0 0-4.977 2.1 7.012 7.012 0 0 0-2.034 5.004zm7.056 8.29a8.277 8.277 0 0 1-5.854-2.403 8.28 8.28 0 0 1-2.481-5.879 8.286 8.286 0 0 1 2.402-5.911 8.287 8.287 0 0 1 5.88-2.481h.055c4.572 0 8.306 3.704 8.336 8.282a8.28 8.28 0 0 1-2.403 5.911 8.283 8.283 0 0 1-5.878 2.481h-.057z" fill="#1B282C"/>
        <path d="m25.362 105.35 3.104-14.169c1.99-9.473 12.944-16.27 24.722-16.363v-.001h.04l.348-.003h.038c11.78-.062 22.822 6.59 24.937 16.036l3.292 14.125c3.088 13.794-8.319 27.142-26.05 27.26l-1.798.011-.426.003-1.8.013c-17.73.117-29.312-13.08-26.407-26.913" fill="#FAD9C7"/>
        <path d="M25.988 105.484c-1.262 6.012.238 12.01 4.226 16.888 4.81 5.886 12.574 9.251 21.326 9.251h.225l4.024-.028c8.845-.06 16.654-3.534 21.428-9.534 3.922-4.932 5.344-10.95 4-16.946l-3.289-14.12c-1.99-8.882-12.352-15.541-24.143-15.541h-.167l-.384.003c-11.901.094-22.263 6.91-24.142 15.856l-3.104 14.17zm25.552 27.418c-9.139 0-17.262-3.535-22.317-9.72-4.238-5.185-5.831-11.565-4.487-17.964v-.006l3.105-14.168c1.999-9.515 12.894-16.769 25.342-16.866l.387-.004h.172c12.419 0 23.318 7.086 25.434 16.536l3.29 14.12c1.43 6.387-.08 12.787-4.248 18.027-5.015 6.305-13.187 9.956-22.42 10.017l-4.024.028h-.234z" fill="#1B282C"/>
        <path d="M66.291 102.476a2.31 2.31 0 1 0 4.618-.03 2.31 2.31 0 0 0-4.618.03M52.555 102.567a2.31 2.31 0 1 0 4.618-.03 2.31 2.31 0 0 0-4.618.03M60.911 127.391c-2.106 0-4.209-.583-5.939-1.765a.64.64 0 0 1 .722-1.056c3.267 2.23 8.05 2.036 11.123-.458a.64.64 0 0 1 .806.995c-1.869 1.515-4.293 2.284-6.712 2.284" fill="#1B282C"/>
        <path d="M38.986 110.118a6.81 6.81 0 1 0 13.618-.09 6.81 6.81 0 0 0-13.618.09" fill="#F3B1B5"/>
        <path d="M66.297 95.874s2.151-3.07 4.446-.37" fill="#FAD9C7"/>
        <path d="M66.297 96.512a.64.64 0 0 1-.524-1.006c.048-.068 1.191-1.673 2.842-1.75.943-.048 1.826.403 2.616 1.333a.64.64 0 1 1-.976.829c-.518-.61-1.05-.913-1.576-.884-.847.037-1.629.884-1.86 1.208a.64.64 0 0 1-.522.27" fill="#1B282C"/>
        <path d="M52.705 95.963s2.151-3.07 4.446-.37" fill="#FAD9C7"/>
        <path d="M52.705 96.603a.639.639 0 0 1-.524-1.006c.048-.069 1.191-1.674 2.841-1.752.94-.034 1.826.405 2.617 1.334a.64.64 0 1 1-.976.828c-.518-.609-1.05-.899-1.577-.883-.846.037-1.627.884-1.857 1.209a.642.642 0 0 1-.524.27" fill="#1B282C"/>
        <path d="M76.563 116.839a6.81 6.81 0 1 1-.09-13.619 6.781 6.781 0 0 1 4.694 1.843l.018.077a20.288 20.288 0 0 1-.287 10.102 6.782 6.782 0 0 1-4.335 1.597" fill="#F3B1B5"/>
        <path d="M39.236 130.086s-15.79-2.732-12.13-27.654c.707-4.819 4.355-8.75 9.13-9.71 4.932-.99 10.94-4.334 12.642-14.437 0 0 7.75 6.995 1.89 11.155 0 0 16.259 2.457 24.766-1.324 0 0-.945-6.995-4.348-8.507-3.403-1.513.567-.756.567-.756s7.184 9.074 7.562 16.636l2.558-.433s.845-26.98-26.945-26.035c0 0-23.443-3.591-32.14 20.419 0 0-7.75 30.248-17.582 36.109 0 0-5.294 5.294 0 10.209 0 0 2.08 4.159 10.02 3.025 0 0 3.97 6.617 11.721 6.05 0 0 5.861 1.134 8.508-4.16 0 0 4.348-1.134 3.78-9.642" fill="#1B282C"/>
        <g transform="translate(2 68)">
            <mask id="lpaz9b6s7g" fill="#fff">
                <use xlink:href="#3e3ltei7sf"/>
            </mask>
            <path d="M24.947 75.98c.055 0 .109.005.162.015.21.04 5.266.93 7.583-3.703.11-.22.31-.382.548-.444.137-.04 3.651-1.162 3.145-8.76a.843.843 0 0 1 .042-.33c-3.055-.896-15.466-5.968-12.166-28.45.765-5.207 4.706-9.396 9.807-10.422 8.258-1.66 11.067-8.39 11.969-13.742a.853.853 0 0 1 1.412-.492c.188.169 4.592 4.193 4.354 8.25a5.063 5.063 0 0 1-1.125 2.919c4.279.483 15.268 1.372 21.906-1.232-.394-2.138-1.563-6.231-3.745-7.201-1.05-.467-2.135-.95-1.843-1.883.261-.835 1.189-.82 2.917-.49a.853.853 0 0 1 .509.308c.288.364 6.793 8.658 7.665 16.17l.928-.157c-.075-2.589-.794-11.852-7.127-18.16-4.476-4.457-10.853-6.578-18.931-6.302a.76.76 0 0 1-.158-.01c-.057-.007-5.805-.843-12.497 1.199-8.904 2.717-15.194 8.985-18.698 18.629-.445 1.728-7.98 30.47-17.858 36.527-.355.388-2.089 2.404-2.039 4.81.03 1.47.73 2.851 2.08 4.104.074.07.136.152.182.244.073.138 1.98 3.583 9.136 2.561.34-.05.676.112.852.406.152.25 3.805 6.16 10.928 5.638a.797.797 0 0 1 .062-.003m1.277 1.797c-.63 0-1.1-.055-1.313-.086-6.958.459-10.986-4.412-12.102-5.993-7.267.856-9.801-2.61-10.28-3.405C.886 66.732.036 64.968 0 63.049c-.063-3.4 2.493-5.995 2.601-6.104a.876.876 0 0 1 .167-.129c9.417-5.614 17.117-35.29 17.193-35.589a.871.871 0 0 1 .024-.078C28.551-2.498 51.373-.038 52.97.167 61.511-.11 68.293 2.18 73.103 6.979c7.911 7.89 7.638 19.609 7.623 20.104a.854.854 0 0 1-.71.814l-2.558.433a.854.854 0 0 1-.995-.798c-.12-2.413-.982-5.014-2.076-7.408a.852.852 0 0 1-.506.772c-8.637 3.838-24.566 1.489-25.24 1.387a.853.853 0 0 1-.366-1.54c1.16-.822 1.756-1.783 1.825-2.938.126-2.13-1.538-4.422-2.703-5.752-2.148 9.387-8.178 12.538-12.993 13.506-4.396.884-7.794 4.5-8.455 8.998-3.485 23.74 10.823 26.58 11.434 26.689a.854.854 0 0 1 .562 1.312c.08.12.132.262.142.417.512 7.695-2.848 9.86-4.026 10.38-2.09 3.844-5.799 4.42-7.837 4.42" fill="#1B282C" mask="url(#lpaz9b6s7g)"/>
        </g>
        <path d="M29.743 114.349a8.332 8.332 0 0 1-.11-16.662" fill="#FAD9C7"/>
        <path d="M64.513 105.071a.64.64 0 0 1-.6-.864c.12-.321.108-.671-.035-.984a1.278 1.278 0 0 0-.722-.671.64.64 0 0 1 .447-1.2c.643.24 1.154.715 1.44 1.34.285.623.31 1.32.07 1.963a.64.64 0 0 1-.6.416zm-32.417 1.864a.649.649 0 0 1-.124-.011c-.672-.132-1.885-.351-3.099-.57-1.223-.221-2.448-.442-3.126-.575a.64.64 0 1 1 .246-1.256c.675.132 1.892.352 3.108.572 1.22.22 2.44.44 3.118.573a.639.639 0 0 1-.123 1.267zm-2.409 8.054c-4.92 0-8.938-3.986-8.97-8.912a8.912 8.912 0 0 1 2.585-6.36 8.912 8.912 0 0 1 6.326-2.67h.004a.64.64 0 0 1 .005 1.28 7.64 7.64 0 0 0-5.424 2.288 7.64 7.64 0 0 0-2.217 5.454c.028 4.223 3.474 7.64 7.691 7.64h.056a.64.64 0 0 1 .004 1.28h-.06z" fill="#1B282C"/>
        <path d="M63.97 115.113a1.917 1.917 0 0 1-1.917-1.916v-2.769a1.917 1.917 0 1 1 3.833 0v2.769a1.917 1.917 0 0 1-1.917 1.916" fill="#E85371"/>
        <path d="M63.969 109.15c-.704 0-1.276.574-1.276 1.278v2.77c0 .702.572 1.276 1.276 1.276.704 0 1.276-.574 1.276-1.277v-2.77c0-.703-.572-1.276-1.276-1.276m0 6.602a2.56 2.56 0 0 1-2.557-2.556v-2.77a2.56 2.56 0 0 1 2.557-2.556 2.56 2.56 0 0 1 2.557 2.557v2.77a2.56 2.56 0 0 1-2.557 2.555" fill="#1B282C"/>
        <path d="m102.384 145.115-13.851-10.602-5.714 23.008 13.585 8.253c9.242 5.708 14.407-1.36 14.407-1.36s2.174-4.892 2.174-5.164c0-7.385-10.6-14.135-10.6-14.135" fill="#FAD9C7"/>
        <path d="m83.554 157.218 13.182 8.009c8.332 5.146 13.018-.487 13.52-1.138.94-2.117 1.946-4.46 2.089-4.91-.068-6.927-10.202-13.459-10.305-13.524a.516.516 0 0 1-.045-.03l-13.077-10.011-5.364 21.604zm19.755 11.413c-2.058 0-4.482-.609-7.241-2.313l-13.582-8.25a.64.64 0 0 1-.288-.701l5.714-23.009a.638.638 0 0 1 1.01-.354l13.83 10.587c.705.453 10.873 7.116 10.873 14.659 0 .153 0 .408-2.23 5.425a.647.647 0 0 1-.068.117c-.04.054-2.889 3.838-8.018 3.839z" fill="#1B282C"/>
        <path d="M76.03 139.126v3.945c0 1.54.78 2.975 2.078 3.8 1.83 1.162 4.445 3.05 6.062 5.211 0 0 3.22 3.983 3.22 8.215l-8.626 10.36" fill="#F3B1B5"/>
        <path d="M78.763 171.297a.64.64 0 0 1-.49-1.05l8.473-10.177c-.112-3.868-3.044-7.549-3.074-7.586-1.558-2.082-4.07-3.906-5.907-5.073a5.113 5.113 0 0 1-2.375-4.34v-3.946a.64.64 0 1 1 1.28 0v3.946c0 1.332.666 2.551 1.782 3.26 1.926 1.224 4.57 3.15 6.23 5.368.122.15 3.347 4.19 3.347 8.598 0 .15-.052.295-.148.41l-8.625 10.36a.64.64 0 0 1-.493.23" fill="#1B282C"/>
        <path d="M125.081 166.453c0 5.48-13.448 9.922-30.036 9.922-16.589 0-30.036-4.442-30.036-9.922s13.447-9.921 30.036-9.921c16.588 0 30.036 4.442 30.036 9.921" fill="#FEFEFE"/>
        <path d="M95.045 157.172c-17.584 0-29.397 4.799-29.397 9.281 0 4.483 11.813 9.282 29.397 9.282 17.584 0 29.396-4.8 29.396-9.282s-11.812-9.281-29.396-9.281m0 19.843c-15.079 0-30.676-3.95-30.676-10.562 0-6.61 15.597-10.56 30.676-10.56 15.08 0 30.676 3.95 30.676 10.56 0 6.611-15.597 10.562-30.676 10.562" fill="#1B282C"/>
        <path d="M117.063 166.453c0 3.078-9.858 5.572-22.018 5.572s-22.018-2.494-22.018-5.572 9.858-5.572 22.018-5.572 22.018 2.494 22.018 5.572" fill="#FEFEFE"/>
        <path d="M95.045 161.521c-5.83 0-11.304.573-15.412 1.612-4.399 1.114-5.966 2.445-5.966 3.32s1.567 2.207 5.966 3.32c4.108 1.04 9.582 1.612 15.412 1.612s11.303-.572 15.411-1.612c4.4-1.113 5.967-2.445 5.967-3.32s-1.568-2.206-5.967-3.32c-4.108-1.04-9.581-1.612-15.411-1.612m0 11.144c-10.984 0-22.658-2.177-22.658-6.212s11.674-6.212 22.658-6.212c10.984 0 22.658 2.177 22.658 6.212s-11.674 6.212-22.658 6.212" fill="#1B282C"/>
        <path d="M54 154.357c-3.599-.45-5.542-2.554-6.562-4.35L25.183 169.11c7.346 11.748 18.216 9.168 18.216 9.168l23.662-2.705a5.74 5.74 0 0 0 5.083-5.464l.376-9.022a5.74 5.74 0 0 0-5.402-5.97L54 154.357z" fill="#FAD9C7"/>
        <path d="M26.022 169.234c6.987 10.676 16.81 8.52 17.23 8.42a.709.709 0 0 1 .074-.012l23.663-2.705a5.074 5.074 0 0 0 4.516-4.854l.376-9.022c.115-2.765-2.038-5.144-4.8-5.305l-13.118-.76a.941.941 0 0 1-.042-.004c-3.454-.432-5.48-2.3-6.633-4.013l-21.266 18.255zm14.833 9.905c-3.824 0-10.952-1.272-16.215-9.69a.64.64 0 0 1 .126-.824l22.256-19.104a.64.64 0 0 1 .972.17c.911 1.603 2.702 3.6 6.064 4.029l13.097.758c3.455.201 6.15 3.178 6.005 6.635l-.376 9.023a6.348 6.348 0 0 1-5.65 6.073l-23.632 2.7c-.218.046-1.194.23-2.647.23z" fill="#1B282C"/>
        <path d="m67.213 160.242 6.322.988c1.388.217 2.698-.726 2.912-2.096l.018-.115c.214-1.37-.746-2.668-2.134-2.885l-6.321-.988" fill="#FAD9C7"/>
        <path d="M73.938 161.901c-.167 0-.334-.012-.502-.039l-6.321-.988a.64.64 0 1 1 .197-1.264l6.321.988a1.928 1.928 0 0 0 1.425-.34c.411-.296.68-.73.757-1.223l.018-.115a1.847 1.847 0 0 0-.349-1.395 1.914 1.914 0 0 0-1.252-.759l-6.321-.988a.64.64 0 1 1 .198-1.264l6.32.988c.84.131 1.58.58 2.085 1.262a3.12 3.12 0 0 1 .583 2.354l-.018.114a3.122 3.122 0 0 1-1.274 2.065c-.551.396-1.2.604-1.867.604" fill="#1B282C"/>
        <path d="m66.417 165.338 6.321.988c1.388.217 2.699-.726 2.912-2.096l.019-.115c.214-1.37-.746-2.668-2.134-2.885l-6.322-.988" fill="#FAD9C7"/>
        <path d="M73.14 166.998c-.166 0-.333-.013-.5-.04l-6.322-.987a.64.64 0 1 1 .198-1.264l6.32.988c1.045.16 2.022-.539 2.183-1.564l.018-.114a1.854 1.854 0 0 0-.35-1.396 1.913 1.913 0 0 0-1.25-.758l-6.323-.988a.64.64 0 1 1 .197-1.264l6.323.988c.838.13 1.578.578 2.083 1.26.506.686.714 1.522.584 2.355l-.018.115c-.244 1.556-1.6 2.669-3.144 2.669" fill="#1B282C"/>
        <path d="m65.62 170.434 6.322.988c1.388.217 2.698-.726 2.912-2.096l.018-.114c.214-1.37-.746-2.669-2.134-2.886l-6.321-.988" fill="#FAD9C7"/>
        <path d="M72.344 172.094c-.166 0-.333-.013-.501-.04l-6.321-.987a.64.64 0 1 1 .197-1.264l6.321.988a1.925 1.925 0 0 0 1.424-.34c.412-.297.68-.731.758-1.223l.018-.115c.16-1.025-.558-1.991-1.6-2.154l-6.322-.988a.64.64 0 1 1 .198-1.264l6.32.988c1.74.272 2.937 1.894 2.668 3.615l-.018.115a3.124 3.124 0 0 1-1.274 2.064c-.552.397-1.201.605-1.868.605" fill="#1B282C"/>
        <path d="m64.823 175.53 6.322.989c1.388.217 2.698-.726 2.912-2.096l.019-.115c.213-1.37-.747-2.668-2.134-2.885l-6.322-.988" fill="#FAD9C7"/>
        <path d="M71.548 177.19c-.167 0-.334-.013-.502-.04l-6.321-.987a.64.64 0 1 1 .197-1.264l6.321.988a1.93 1.93 0 0 0 1.425-.34c.411-.297.68-.731.758-1.224l.017-.114c.16-1.025-.557-1.991-1.6-2.154l-6.322-.988a.64.64 0 1 1 .198-1.264l6.321.988c1.74.272 2.936 1.894 2.667 3.615l-.017.115a3.123 3.123 0 0 1-1.275 2.064c-.551.397-1.2.605-1.867.605M47.205 150.92a.641.641 0 0 1-.583-.374l-5.708-12.504a.64.64 0 0 1 1.164-.531l5.708 12.503a.641.641 0 0 1-.581.906m-22.017 18.483a.641.641 0 0 1-.53-.279l-7.83-11.49a.64.64 0 0 1 1.059-.72l7.829 11.49a.64.64 0 0 1-.528 1" fill="#1B282C"/>
        <path d="M118.053 169.363c-.653 2.225-4.417-1.652-6.736-1.625-2.319.026-2.288 2.7-4.606 2.726-2.317.027-2.348-2.646-4.666-2.62-2.317.027-2.286 2.7-4.604 2.727-2.317.027-2.348-2.646-4.665-2.62-2.317.027-2.286 2.7-4.602 2.727-1.738.02-2.189-1.478-3.284-2.218-.912-.616-1.576-1.534-1.763-2.619l-.509-2.936 21.397-2.91 6.064.543 10.041 2.19-2.067 6.635z" fill="#FAD17F"/>
        <path d="m83.238 163.358.414 2.392c.155.898.701 1.703 1.537 2.268.42.284.742.647 1.053.996.559.631 1.002 1.13 1.898 1.13h.027c.915-.01 1.35-.524 1.9-1.174.61-.72 1.3-1.536 2.702-1.551h.043c1.374 0 2.075.79 2.695 1.488.56.631 1.003 1.13 1.9 1.13h.027c.916-.01 1.35-.524 1.902-1.174.61-.72 1.301-1.536 2.703-1.551 1.42-.001 2.112.783 2.738 1.489.56.63 1.003 1.13 1.898 1.13h.03c.916-.011 1.35-.525 1.902-1.175.61-.72 1.301-1.535 2.704-1.552h.03c1.092 0 2.333.676 3.533 1.33.925.504 2.077 1.128 2.485.96.028-.012.114-.047.182-.281 0-.003.002-.005.003-.008l1.894-6.08-9.44-2.06-5.971-.533-20.789 2.826zm4.9 7.854c-1.374 0-2.075-.791-2.694-1.49-.28-.314-.543-.611-.852-.82-1.078-.729-1.786-1.784-1.99-2.97l-.509-2.937a.53.53 0 0 1 .454-.619l21.396-2.909a.516.516 0 0 1 .12-.002l6.063.542a.54.54 0 0 1 .066.01l10.042 2.19a.535.535 0 0 1 .395.679l-2.066 6.632c-.175.594-.53.85-.796.961-.881.366-2.05-.27-3.404-1.008-1.032-.563-2.201-1.2-3.022-1.2h-.018c-.916.01-1.351.524-1.902 1.174-.61.72-1.302 1.536-2.704 1.551-1.402.002-2.112-.782-2.738-1.488-.56-.631-1.003-1.13-1.9-1.13h-.027c-.916.01-1.351.524-1.902 1.174-.61.72-1.3 1.536-2.703 1.552h-.042c-1.374 0-2.076-.79-2.696-1.489-.56-.63-1.002-1.13-1.899-1.13h-.028c-.915.01-1.35.524-1.9 1.175-.61.72-1.3 1.535-2.702 1.551h-.041z" fill="#1B282C"/>
        <path d="M120.12 162.727c-2.11-6.734-7.665-13.64-15.486-18.334a39.216 39.216 0 0 0-3.687-1.954 1.277 1.277 0 0 0-1.488.3l-3.73 4.15c7.076 4.874 14.144 10.617 19.22 17.528l3.97-.045a1.27 1.27 0 0 0 1.2-1.645" fill="#F5AB00"/>
        <path d="M96.531 146.796c8.439 5.863 14.393 11.308 18.684 17.085l3.697-.042a.737.737 0 0 0 .699-.952c-2.146-6.85-7.848-13.592-15.252-18.037a38.78 38.78 0 0 0-3.636-1.927.74.74 0 0 0-.868.173l-3.324 3.7zm18.417 18.155a.534.534 0 0 1-.43-.218c-4.313-5.873-10.38-11.404-19.09-17.404a.534.534 0 0 1-.095-.795l3.73-4.15a1.802 1.802 0 0 1 2.108-.43 39.64 39.64 0 0 1 3.736 1.982c7.622 4.575 13.5 11.54 15.721 18.632a1.778 1.778 0 0 1-.26 1.59c-.34.468-.866.74-1.443.747l-3.97.046h-.007z" fill="#1B282C"/>
        <path d="m92.366 164.678 24.965-.288c-2.611-6.85-7.25-12.793-13.43-16.744a36.007 36.007 0 0 0-3.044-1.746l-2.826-1.571-14.894 16.573c-1.347 1.5-.267 3.886 1.75 3.863" fill="#FAD17F"/>
        <path d="M84.858 165.298a2.81 2.81 0 0 1-2.593-1.673 2.813 2.813 0 0 1 .475-3.08l14.894-16.573a.535.535 0 0 1 .656-.11l2.825 1.572a36.276 36.276 0 0 1 3.072 1.762c6.106 3.904 10.95 9.943 13.642 17.004a.533.533 0 0 1-.492.723l-24.965.289h-.006a.533.533 0 0 1-.007-1.067l24.192-.28c-2.659-6.541-7.23-12.121-12.939-15.77a35.822 35.822 0 0 0-2.999-1.72l-2.47-1.374-14.609 16.257a1.764 1.764 0 0 0-.297 1.927c.23.508.775 1.047 1.62 1.047h.03a.533.533 0 0 1 .005 1.066h-.034z" fill="#1B282C"/>
        <path d="M103.314 151.222c0 1.147-1.622 2.078-3.623 2.078-2.001 0-3.624-.93-3.624-2.078 0-1.147 1.623-2.077 3.624-2.077 2 0 3.623.93 3.623 2.077" fill="#E85371"/>
        <path d="M99.69 149.572c-1.883 0-3.196.87-3.196 1.65 0 .78 1.313 1.651 3.197 1.651 1.883 0 3.196-.87 3.196-1.65 0-.781-1.313-1.651-3.196-1.651m0 4.154c-2.271 0-4.05-1.1-4.05-2.504s1.779-2.503 4.05-2.503c2.27 0 4.05 1.1 4.05 2.503 0 1.405-1.78 2.504-4.05 2.504" fill="#1B282C"/>
        <path d="M111.664 158.555c0 1.147-1.622 2.077-3.623 2.077-2.001 0-3.624-.93-3.624-2.077 0-1.147 1.623-2.077 3.624-2.077 2 0 3.623.93 3.623 2.077" fill="#E85371"/>
        <path d="M108.04 156.904c-1.883 0-3.196.87-3.196 1.651 0 .78 1.313 1.651 3.197 1.651 1.883 0 3.196-.87 3.196-1.65 0-.782-1.313-1.652-3.196-1.652m0 4.155c-2.271 0-4.05-1.1-4.05-2.504s1.779-2.503 4.05-2.503c2.27 0 4.05 1.1 4.05 2.503 0 1.404-1.78 2.504-4.05 2.504" fill="#1B282C"/>
        <path d="M96.067 159.471c0 1.148-1.622 2.078-3.623 2.078-2 0-3.623-.93-3.623-2.078 0-1.147 1.622-2.077 3.623-2.077 2.001 0 3.623.93 3.623 2.077" fill="#E85371"/>
        <path d="M92.444 157.82c-1.884 0-3.196.87-3.196 1.651 0 .78 1.312 1.651 3.196 1.651 1.884 0 3.197-.87 3.197-1.65 0-.781-1.313-1.651-3.197-1.651m0 4.154c-2.27 0-4.049-1.1-4.049-2.504s1.779-2.503 4.049-2.503c2.271 0 4.05 1.1 4.05 2.503 0 1.405-1.779 2.504-4.05 2.504" fill="#1B282C"/>
    </g>
</svg>
