<svg width="200" height="200" viewBox="0 0 200 200" xmlns="http://www.w3.org/2000/svg" xmlns:xlink="http://www.w3.org/1999/xlink">
    <defs>
        <path id="j3mxcc135a" d="M0 0h60.69v52.625H0z"/>
        <path id="u9bwh4qzpc" d="M0 0h121.717v10.204H0z"/>
        <path id="k3yk4kvy6e" d="M0 100h121.717V0H0z"/>
        <path d="M167 17c11.046 0 20 8.954 20 20v128c0 11.046-8.954 20-20 20H34c-11.046 0-20-8.954-20-20V37c0-11.046 8.954-20 20-20h133zm0 6H34c-7.628 0-13.83 6.1-13.997 13.687L20 37v128c0 7.627 6.1 13.83 13.687 13.997L34 179h133c7.627 0 13.83-6.1 13.997-13.687L181 165V37c0-7.628-6.1-13.83-13.687-13.997L167 23zm-44.747 12.215a4 4 0 0 1 .15 5.497l-.15.16-20 20a4 4 0 0 1-5.498.15l-.16-.15L84.24 48.515a4 4 0 0 1 5.497-5.808l.16.151 9.527 9.528 17.173-17.171a4 4 0 0 1 5.657 0z" id="sz689reupg"/>
        <filter x="-.6%" y="-.6%" width="101.2%" height="101.2%" filterUnits="objectBoundingBox" id="vnpili2kyh">
            <feGaussianBlur stdDeviation=".5" in="SourceAlpha" result="shadowBlurInner1"/>
            <feOffset dy="1" in="shadowBlurInner1" result="shadowOffsetInner1"/>
            <feComposite in="shadowOffsetInner1" in2="SourceAlpha" operator="arithmetic" k2="-1" k3="1" result="shadowInnerInner1"/>
            <feColorMatrix values="0 0 0 0 0 0 0 0 0 0 0 0 0 0 0 0 0 0 0.1 0" in="shadowInnerInner1"/>
        </filter>
    </defs>
    <g fill="none" fill-rule="evenodd">
        <g transform="translate(40 70)">
            <path d="M56.123 18.384S55.06.888 74.553.888c0 0 20.472-3.425 26.589 16.883l10.899 34.16-10.572-1.871-48.731-10.558 3.385-21.118z" fill="#1B282C"/>
            <g transform="translate(52.045)">
                <mask id="jj40c3z7kb" fill="#fff">
                    <use xlink:href="#j3mxcc135a"/>
                </mask>
                <path d="m1.482 38.963 48.09 10.419 9.415 1.667-10.55-33.067C42.56-1.527 22.82 1.536 22.622 1.572a.709.709 0 0 1-.114.01c-5.903 0-10.443 1.64-13.494 4.877-4.598 4.876-4.248 11.814-4.244 11.884.003.05 0 .1-.007.151l-3.281 20.47zm58.514 13.662a.688.688 0 0 1-.12-.01l-10.572-1.872L.547 40.18a.695.695 0 0 1-.538-.789l3.374-21.045c-.038-.863-.177-7.739 4.612-12.827 3.314-3.523 8.18-5.314 14.46-5.324C23.73.013 43.708-2.522 49.762 17.572L60.656 51.72a.695.695 0 0 1-.66.905z" fill="#1B282C" mask="url(#jj40c3z7kb)"/>
            </g>
            <path d="m95.322 15.518 18.659 34.827c1.258 2.349-.247 5.228-2.893 5.535l-2.901.337-3.27-6.117v6.117l-56.589 1.355 10.929-44.665 36.065 2.61z" fill="#1B282C"/>
            <path d="M59.791 13.64 49.217 56.858l55.006-1.316V50.1a.693.693 0 0 1 1.306-.327l3.047 5.702 2.432-.283a3.041 3.041 0 0 0 2.376-1.634c.48-.92.476-1.97-.014-2.886l-18.48-34.49-35.099-2.541zM48.328 58.267a.69.69 0 0 1-.673-.859l10.929-44.666a.71.71 0 0 1 .723-.526l36.065 2.612a.69.69 0 0 1 .56.364l18.66 34.827a4.469 4.469 0 0 1-3.424 6.55l-2.901.338a.693.693 0 0 1-.692-.361l-1.965-3.678v3.351c0 .376-.3.684-.677.693l-56.588 1.355h-.017z" fill="#1B282C"/>
            <path d="M77.01 36.917h-2.94c-3.265 0-6.402.561-9.33 1.58-2.28.018-16.214.815-23.538 17.284l-1.805 4.094 6.068 13.52v4.62c0 4.385 3.588 7.973 7.974 7.973h43.12c4.981 0 9.055-4.074 9.055-9.054V65.522c0-15.733-12.872-28.605-28.604-28.605" fill="#E85371"/>
            <path d="m39.966 59.874 5.974 13.308c.03.068.046.141.046.214v4.619c0 4.11 3.343 7.453 7.453 7.453h43.12c4.707 0 8.535-3.828 8.535-8.534V65.522c0-15.486-12.598-28.085-28.084-28.085h-2.94c-3.12 0-6.202.522-9.159 1.551a.513.513 0 0 1-.166.03c-2.601.02-15.935.935-23.07 16.975l-1.709 3.881zM96.56 86.508H53.439c-4.684 0-8.494-3.81-8.494-8.493v-4.509L38.922 60.09a.523.523 0 0 1-.001-.423l1.804-4.095c7.319-16.453 21.016-17.55 23.924-17.593a28.84 28.84 0 0 1 9.42-1.58h2.941c16.059 0 29.125 13.065 29.125 29.124v11.412c0 5.279-4.295 9.574-9.575 9.574z" fill="#1B282C"/>
            <path d="M63.19 26.974a5.058 5.058 0 1 1-10.114-.182 5.058 5.058 0 0 1 10.115.182" fill="#FAD9C7"/>
            <path d="M58.28 27.365a.5.5 0 0 1-.114-.014l-2.449-.543a.52.52 0 1 1 .225-1.015l2.45.544a.52.52 0 0 1-.113 1.028zm-.147-5.019a4.541 4.541 0 0 0-4.536 4.456 4.542 4.542 0 0 0 4.455 4.618l.083.001a4.543 4.543 0 0 0 4.535-4.456 4.506 4.506 0 0 0-1.27-3.232 4.508 4.508 0 0 0-3.185-1.386h-.082zm.002 10.116h-.101a5.586 5.586 0 0 1-5.478-5.679 5.536 5.536 0 0 1 1.706-3.914c1.07-1.034 2.465-1.573 3.971-1.563a5.54 5.54 0 0 1 3.915 1.705 5.543 5.543 0 0 1 1.563 3.972 5.587 5.587 0 0 1-5.576 5.48z" fill="#1B282C"/>
            <path d="M90.408 28.241a5.058 5.058 0 1 0 10.114.181 5.058 5.058 0 0 0-10.114-.18" fill="#FAD9C7"/>
            <path d="M95.32 28.807a.52.52 0 0 1-.092-1.032l2.465-.454a.528.528 0 0 1 .607.417.523.523 0 0 1-.418.607l-2.467.453a.569.569 0 0 1-.095.009m.141-5.012c-1.18 0-2.295.449-3.147 1.27a4.508 4.508 0 0 0-1.386 3.185 4.502 4.502 0 0 0 1.271 3.232 4.504 4.504 0 0 0 3.268 1.387A4.54 4.54 0 0 0 100 28.413a4.502 4.502 0 0 0-1.27-3.232 4.506 4.506 0 0 0-3.185-1.385l-.085-.001m.006 10.115-.103-.001a5.54 5.54 0 0 1-3.914-1.705 5.545 5.545 0 0 1-1.563-3.972 5.54 5.54 0 0 1 1.705-3.915c1.072-1.034 2.475-1.558 3.972-1.562 1.49.026 2.881.632 3.915 1.704a5.545 5.545 0 0 1 1.563 3.973 5.586 5.586 0 0 1-5.575 5.478" fill="#1B282C"/>
            <path d="m95.28 29.01-1.934-9.332C92.109 13.439 84.962 8.89 77.224 8.742h-.026l-.229-.005h-.025c-7.74-.13-15.045 4.16-16.505 10.35l-2.268 9.258c-2.132 9.04 5.264 17.896 16.913 18.104l1.182.022.28.005 1.182.02c11.65.21 19.358-8.375 17.552-17.485" fill="#FAD9C7"/>
            <path d="M76.615 9.253c-7.629 0-14.322 4.238-15.67 9.955l-2.268 9.26c-.919 3.896-.036 7.83 2.485 11.076 3.073 3.955 8.151 6.281 13.931 6.385l2.645.047c.134.003.268.004.401.004 5.618 0 10.611-2.132 13.75-5.884 2.636-3.152 3.66-7.051 2.88-10.981l-1.932-9.331c-1.16-5.851-7.876-10.372-15.623-10.52l-.256-.007a14.81 14.81 0 0 0-.343-.004m1.524 37.768c-.14 0-.279-.001-.42-.004l-2.644-.048c-6.097-.11-11.468-2.583-14.735-6.787-2.717-3.498-3.669-7.745-2.675-11.957l2.27-9.261c1.454-6.171 8.582-10.75 16.661-10.75.118 0 .236 0 .356.002l.258.005c8.248.16 15.394 5.041 16.646 11.356l1.933 9.327v.005c.843 4.246-.26 8.456-3.102 11.854-3.337 3.99-8.621 6.258-14.548 6.258" fill="#1B282C"/>
            <path d="M72.366 30.628a1.518 1.518 0 1 1-3.035-.055 1.518 1.518 0 0 1 3.035.055M81.39 30.79a1.518 1.518 0 1 1-3.034-.055 1.518 1.518 0 0 1 3.035.055M75.388 44.828c-1.641 0-3.286-.532-4.542-1.574a.519.519 0 1 1 .664-.8c1.967 1.633 5.056 1.796 7.186.378a.52.52 0 1 1 .576.865c-1.137.759-2.509 1.131-3.884 1.131" fill="#1B282C"/>
            <path d="M68.546 35.312a4.473 4.473 0 0 1-4.554 4.393 4.474 4.474 0 1 1 4.554-4.393M91.337 36.023a4.473 4.473 0 0 1-4.554 4.393 4.474 4.474 0 1 1 4.554-4.393" fill="#F3B1B5"/>
            <path d="M75.255 39.02c-.069 0-.137-.002-.207-.005-1.161-.063-2.254-.643-3.077-1.635a.519.519 0 1 1 .8-.664c.636.766 1.464 1.214 2.333 1.26.827.044 1.659-.287 2.325-.932a.52.52 0 1 1 .724.747c-.823.798-1.845 1.23-2.898 1.23" fill="#1B282C"/>
            <path d="M79.93 21.74s1.463-1.98 2.927-.17" fill="#FAD9C7"/>
            <path d="M79.93 22.26a.52.52 0 0 1-.418-.827c.084-.115.858-1.121 1.972-1.145h.041c.639 0 1.223.32 1.735.956a.52.52 0 1 1-.808.653c-.306-.378-.618-.57-.928-.57h-.014c-.516.01-1.014.526-1.163.724a.52.52 0 0 1-.417.208" fill="#1B282C"/>
            <path d="M67.568 21.584s1.463-1.982 2.927-.171" fill="#FAD9C7"/>
            <path d="M67.568 22.103a.52.52 0 0 1-.418-.827c.084-.115.858-1.12 1.973-1.145.669-.002 1.253.306 1.776.955a.52.52 0 1 1-.809.654c-.304-.378-.618-.57-.927-.57h-.014c-.516.01-1.015.527-1.164.725a.52.52 0 0 1-.417.208M74.557 34.198h-.009a1.684 1.684 0 0 1-1.189-.518 1.696 1.696 0 0 1 1.219-2.872h.03a.521.521 0 0 1-.009 1.041h-.021a.655.655 0 0 0-.012 1.308.521.521 0 0 1-.009 1.041" fill="#1B282C"/>
            <path d="M121.197 99.48H.52v-7.446c0-.948.77-1.718 1.719-1.718h117.24c.949 0 1.718.77 1.718 1.718v7.446z" fill="#F5AB00"/>
            <g transform="translate(0 89.796)">
                <mask id="4mgf7m4xwd" fill="#fff">
                    <use xlink:href="#u9bwh4qzpc"/>
                </mask>
                <path d="M1.04 9.164h119.637V2.239a1.2 1.2 0 0 0-1.199-1.199H2.238A1.2 1.2 0 0 0 1.041 2.24v6.925zm120.157 1.04H.52a.52.52 0 0 1-.52-.52V2.24A2.241 2.241 0 0 1 2.238 0h117.24a2.24 2.24 0 0 1 2.239 2.239v7.445a.52.52 0 0 1-.52.52z" fill="#1B282C" mask="url(#4mgf7m4xwd)"/>
            </g>
            <path d="M96.945 23.662a23.606 23.606 0 0 1-.89 3.443l-.775 3.496-1.944-.679-.854-5.057s-5.933-1.675-4.843-4.938l-13.157-1c-2.71-.207-5.43-.506-8.145-.62-2.617-.112-6.699 1.627-8.601-.824-.574-.74-.742-1.722-.73-2.658 0 0-2.45-11.582 21.979-11.582 0 0 20.344-2.23 20.55 20.173l-2.59.246z" fill="#1B282C"/>
            <path d="m93.95 29.403.822.286.606-2.734c.404-1.212.695-2.337.884-3.413a.694.694 0 0 1 .618-.57l1.95-.186c-.174-6.433-2.102-11.33-5.732-14.56-5.756-5.12-13.954-4.303-14.039-4.295-12.536.005-17.663 3.07-19.77 5.64-2.089 2.55-1.624 5.01-1.604 5.114.01.048.016.1.015.148-.013.961.184 1.709.584 2.224 1.088 1.405 3.244 1.096 5.33.796.983-.14 1.915-.278 2.753-.24 1.822.077 3.668.24 5.452.395.906.079 1.812.158 2.715.226l13.158 1.002a.693.693 0 0 1 .604.91c-.16.477-.123.924.11 1.364.753 1.425 3.334 2.423 4.265 2.688a.69.69 0 0 1 .495.551l.784 4.654zm1.33 1.89a.71.71 0 0 1-.229-.037l-1.944-.68a.694.694 0 0 1-.456-.538l-.782-4.64c-1.049-.355-3.723-1.413-4.689-3.239a3.026 3.026 0 0 1-.365-1.6l-.097-.006-12.288-.936c-.91-.07-1.82-.148-2.731-.229-1.77-.154-3.6-.314-5.391-.389-.707-.025-1.58.094-2.498.226-2.36.34-5.038.725-6.622-1.318-.586-.756-.88-1.772-.875-3.022-.088-.526-.42-3.325 1.872-6.152 3.326-4.103 10.324-6.184 20.8-6.184.282-.035 8.799-.897 15.023 4.633 4.062 3.606 6.154 9.066 6.22 16.228a.692.692 0 0 1-.628.695l-2.071.198c-.198.983-.472 1.999-.817 3.023l-.755 3.424a.696.696 0 0 1-.677.544z" fill="#1B282C"/>
            <path d="m43.259 51.24-3.016 4.647v28.387l3.016 2.236s13.903.003 28.111 4.535v.31c.134-.045.269-.087.402-.13V57.283c-2.282-1.373-11.778-6.379-28.513-6.044" fill="#FEFEFE"/>
            <path d="M43.473 85.873c1.8.024 14.624.35 27.66 4.426V57.65c-2.844-1.642-11.915-6.02-27.523-5.776l-2.729 4.204v27.875l2.592 1.92zm27.897 6.12a.637.637 0 0 1-.617-.472c-13.799-4.316-27.357-4.372-27.494-4.372a.644.644 0 0 1-.381-.125l-3.017-2.236a.642.642 0 0 1-.258-.514V55.887a.64.64 0 0 1 .103-.347l3.016-4.649a.642.642 0 0 1 .524-.29c16.76-.338 26.324 4.612 28.856 6.135.193.116.31.324.31.548v33.94a.64.64 0 0 1-.444.61l-.395.127a.641.641 0 0 1-.203.033z" fill="#1B282C"/>
            <path d="m100.388 51.24 3.016 4.647v28.387l-3.016 2.236s-13.903.003-28.111 4.535v.31c-.134-.045-.269-.087-.403-.13V57.283c2.283-1.373 11.779-6.379 28.514-6.044" fill="#FEFEFE"/>
            <path d="M72.513 57.65V90.3c13.038-4.078 25.86-4.403 27.66-4.427l2.592-1.921V56.077l-2.728-4.205c-15.623-.247-24.68 4.135-27.524 5.778m-.237 34.344a.636.636 0 0 1-.201-.033l-.396-.128a.638.638 0 0 1-.444-.608v-33.94c0-.225.117-.433.31-.548 2.532-1.525 12.094-6.48 28.856-6.136a.642.642 0 0 1 .524.29l3.016 4.649a.64.64 0 0 1 .102.348v28.385a.639.639 0 0 1-.258.514l-3.016 2.237a.642.642 0 0 1-.382.125c-.136 0-13.694.056-27.492 4.372a.639.639 0 0 1-.619.473" fill="#1B282C"/>
            <path d="M76.614 62.02a4.715 4.715 0 1 1-9.43 0 4.715 4.715 0 0 1 9.43 0" fill="#FEFEFE"/>
            <path d="M71.9 57.946a4.08 4.08 0 0 0-4.076 4.075 4.08 4.08 0 0 0 4.075 4.076 4.08 4.08 0 0 0 4.075-4.076 4.08 4.08 0 0 0-4.075-4.075m0 9.428a5.36 5.36 0 0 1-5.353-5.353c0-2.952 2.401-5.353 5.353-5.353s5.353 2.4 5.353 5.353a5.36 5.36 0 0 1-5.353 5.353" fill="#1B282C"/>
            <path d="M74.662 97.049V61.768s10.139-7.097 30.415-6.692V91.98s-15.208 0-30.415 5.07" fill="#8FB3DC"/>
            <path d="M75.3 62.115v34.052c13.102-4.208 26.142-4.75 29.138-4.818V55.706a98.45 98.45 0 0 0-1.015-.007c-17.008 0-26.44 5.366-28.122 6.416m-.64 35.573a.636.636 0 0 1-.638-.64v-35.28c0-.21.101-.405.272-.524.421-.295 10.526-7.228 30.795-6.807.348.007.626.291.626.64v36.902c0 .354-.286.64-.639.64-.151 0-15.285.06-30.213 5.036a.637.637 0 0 1-.203.033" fill="#1B282C"/>
            <path d="M68.985 97.049V61.768s-10.14-7.097-30.415-6.692V91.98s15.207 0 30.415 5.07" fill="#8FB3DC"/>
            <path d="M39.208 91.35c2.996.068 16.037.608 29.137 4.817v-34.05C66.66 61.066 57.194 55.7 40.218 55.7c-.335 0-.67.001-1.01.005v35.644zm29.777 6.337a.614.614 0 0 1-.203-.033c-14.936-4.978-30.062-5.036-30.213-5.036a.638.638 0 0 1-.639-.639V55.076c0-.348.278-.631.627-.638 20.236-.423 30.373 6.51 30.794 6.806a.64.64 0 0 1 .272.524v35.28a.639.639 0 0 1-.638.639z" fill="#1B282C"/>
            <mask id="f8rc38fs7f" fill="#fff">
                <use xlink:href="#k3yk4kvy6e"/>
            </mask>
            <path fill="#8FB3DC" mask="url(#f8rc38fs7f)" d="M69.247 97.048h6.218V61.63h-6.218z"/>
            <path d="M69.886 96.41h4.94V62.27h-4.94v34.14zm5.579 1.277h-6.218a.639.639 0 0 1-.64-.64V61.633c0-.354.287-.64.64-.64h6.218c.353 0 .638.286.638.64v35.416c0 .354-.285.64-.638.64z" fill="#1B282C" mask="url(#f8rc38fs7f)"/>
            <path d="M105.925 78.172c1.279-1.477 2.596-3.027 3.09-4.917.755-2.89-.648-6.024-2.866-8.024-1.292-1.164-3.078-2.056-4.74-1.54-.506.157-1.01.486-1.16.996-.203.688.296 1.368.762 1.913-1.188.393-2.101 1.989-1.753 3.19a2.25 2.25 0 0 0-.594 2.3c.062.19.152.377.149.577-.006.31-.228.566-.386.831-.614 1.026-.302 2.412.468 3.324.771.913 1.905 1.434 3.037 1.814.698.234 1.423.427 2.159.399.735-.029 1.352-.306 1.834-.863" fill="#FAD9C7" mask="url(#f8rc38fs7f)"/>
            <path d="M102.423 63.952c-.294 0-.592.04-.892.133-.465.144-.796.413-.886.718-.142.481.264 1.042.68 1.528a.415.415 0 0 1 .084.38.415.415 0 0 1-.269.28c-1.004.333-1.767 1.713-1.485 2.683.044.15-.001.313-.116.419a1.838 1.838 0 0 0-.483 1.868l.041.115c.06.163.133.367.129.598-.007.362-.195.65-.345.879l-.1.157c-.537.898-.191 2.112.43 2.846.764.905 1.925 1.377 2.852 1.688.6.201 1.304.401 2.011.377.638-.023 1.14-.259 1.539-.718 1.182-1.367 2.523-2.916 3.002-4.752.66-2.527-.416-5.515-2.743-7.612-.58-.525-1.946-1.587-3.45-1.587m1.523 15.498c-.775 0-1.516-.212-2.145-.424-1.029-.344-2.324-.876-3.22-1.937-.959-1.136-1.168-2.7-.507-3.803.037-.062.077-.123.117-.185.107-.164.208-.318.21-.441a.993.993 0 0 0-.08-.301l-.049-.14a2.657 2.657 0 0 1 .536-2.557c-.204-1.173.491-2.569 1.551-3.212-.353-.477-.72-1.157-.504-1.88.169-.58.692-1.044 1.433-1.275 2.238-.693 4.339.91 5.139 1.629 2.552 2.303 3.726 5.614 2.989 8.436-.529 2.022-1.936 3.648-3.178 5.083l-.312-.27.312.27c-.549.634-1.266.972-2.131 1.004a4.864 4.864 0 0 1-.16.003" fill="#1B282C" mask="url(#f8rc38fs7f)"/>
            <path d="M101.076 66.383a8.666 8.666 0 0 1 4.613 2.817" fill="#FAD9C7" mask="url(#f8rc38fs7f)"/>
            <path d="M105.69 69.612a.41.41 0 0 1-.315-.145 8.237 8.237 0 0 0-4.393-2.682.413.413 0 0 1 .187-.805 9.07 9.07 0 0 1 4.835 2.953.412.412 0 0 1-.315.68" fill="#1B282C" mask="url(#f8rc38fs7f)"/>
            <path d="M99.004 69.815a8.543 8.543 0 0 1 5.918 2.587" fill="#FAD9C7" mask="url(#f8rc38fs7f)"/>
            <path d="M104.922 72.815a.41.41 0 0 1-.298-.127 8.088 8.088 0 0 0-5.628-2.46.411.411 0 0 1-.404-.42.417.417 0 0 1 .42-.405 8.92 8.92 0 0 1 6.208 2.713.412.412 0 0 1-.298.7" fill="#1B282C" mask="url(#f8rc38fs7f)"/>
            <path d="M98.878 72.82c1.85-.361 3.879.451 4.965 1.993" fill="#FAD9C7" mask="url(#f8rc38fs7f)"/>
            <path d="M103.844 75.225a.413.413 0 0 1-.338-.174c-.99-1.405-2.858-2.152-4.549-1.826a.412.412 0 1 1-.159-.81c1.996-.393 4.21.497 5.383 2.16a.413.413 0 0 1-.337.65" fill="#1B282C" mask="url(#f8rc38fs7f)"/>
            <path d="M34.27 81.401c-1.384-1.599-2.81-3.277-3.345-5.323-.817-3.13.7-6.523 3.103-8.688 1.399-1.262 3.333-2.228 5.131-1.67.55.17 1.095.527 1.258 1.08.22.745-.32 1.48-.825 2.07 1.286.426 2.276 2.154 1.898 3.455.665.615.926 1.63.643 2.49-.067.206-.164.41-.16.626.005.335.245.612.417.9.665 1.11.327 2.61-.508 3.598-.834.989-2.062 1.553-3.288 1.964-.756.254-1.541.463-2.337.432-.797-.03-1.465-.331-1.986-.934" fill="#FAD9C7" mask="url(#f8rc38fs7f)"/>
            <path d="M38.062 66.004c-1.628 0-3.105 1.15-3.734 1.717-2.52 2.272-3.685 5.508-2.97 8.244.519 1.989 1.97 3.666 3.25 5.143.431.499.977.754 1.666.78.756.027 1.526-.19 2.178-.409 1.003-.336 2.262-.848 3.089-1.828.672-.795 1.048-2.109.466-3.08l-.109-.17c-.163-.25-.367-.56-.372-.953-.004-.252.073-.464.14-.652l.044-.121a1.991 1.991 0 0 0-.523-2.021.45.45 0 0 1-.126-.454c.305-1.052-.522-2.545-1.61-2.905a.447.447 0 0 1-.198-.715c.449-.525.888-1.133.735-1.654-.098-.331-.456-.622-.96-.779a3.272 3.272 0 0 0-.966-.143m-1.648 16.781c-.058 0-.116 0-.174-.003-.938-.036-1.715-.403-2.307-1.089-1.345-1.552-2.868-3.311-3.44-5.503-.799-3.055.471-6.64 3.236-9.133.865-.78 3.137-2.516 5.562-1.763.804.249 1.37.751 1.555 1.379.217.74-.106 1.428-.551 2.034 1.15.696 1.904 2.208 1.684 3.48.657.74.89 1.82.579 2.767l-.051.146c-.046.127-.09.246-.087.334.001.134.11.301.226.477.044.066.087.133.128.2.714 1.195.488 2.887-.55 4.116-.971 1.15-2.374 1.726-3.487 2.1-.682.23-1.484.458-2.323.458" fill="#1B282C" mask="url(#f8rc38fs7f)"/>
            <path d="M39.522 68.636a9.38 9.38 0 0 0-4.996 3.05" fill="#FAD9C7" mask="url(#f8rc38fs7f)"/>
            <path d="M34.526 72.133a.449.449 0 0 1-.342-.736A9.817 9.817 0 0 1 39.42 68.2a.446.446 0 1 1 .203.87 8.914 8.914 0 0 0-4.755 2.905.45.45 0 0 1-.342.158" fill="#1B282C" mask="url(#f8rc38fs7f)"/>
            <path d="M41.765 72.353a9.25 9.25 0 0 0-6.408 2.8" fill="#FAD9C7" mask="url(#f8rc38fs7f)"/>
            <path d="M35.357 75.6a.447.447 0 0 1-.322-.757 9.646 9.646 0 0 1 6.721-2.937c.228-.031.45.19.456.438a.448.448 0 0 1-.44.455 8.749 8.749 0 0 0-6.093 2.664.45.45 0 0 1-.322.137" fill="#1B282C" mask="url(#f8rc38fs7f)"/>
            <path d="M41.901 75.607c-2.004-.392-4.2.488-5.377 2.156" fill="#FAD9C7" mask="url(#f8rc38fs7f)"/>
            <path d="M36.524 78.21a.449.449 0 0 1-.365-.705c1.27-1.8 3.669-2.76 5.828-2.337a.448.448 0 0 1-.172.877c-1.822-.353-3.852.456-4.925 1.976a.448.448 0 0 1-.366.19" fill="#1B282C" mask="url(#f8rc38fs7f)"/>
            <path d="M10.986 64.245c.702-.09 1.425.061 2.046.397l2.308 10.47c.017.082.031.165.045.248a3.39 3.39 0 0 0-1.7-.233 3.44 3.44 0 0 0-2.26 1.318L9.43 64.877c.458-.334.995-.56 1.557-.632" fill="#F5AB00" mask="url(#f8rc38fs7f)"/>
            <path d="m9.838 65.05 1.83 10.597a3.758 3.758 0 0 1 1.971-.89 3.634 3.634 0 0 1 1.254.06l-2.187-9.922a3.019 3.019 0 0 0-1.673-.279 2.97 2.97 0 0 0-1.195.435zm1.588 11.768a.374.374 0 0 1-.368-.31L9.06 64.94a.378.378 0 0 1 .148-.365c.52-.38 1.119-.62 1.729-.7a3.83 3.83 0 0 1 2.272.438.372.372 0 0 1 .187.249l2.307 10.47c.02.092.036.181.05.272a.372.372 0 0 1-.51.402 3.008 3.008 0 0 0-1.51-.209c-.783.1-1.516.528-2.012 1.174a.37.37 0 0 1-.296.147z" fill="#F5AB00" mask="url(#f8rc38fs7f)"/>
            <path d="M10.986 64.245a3.393 3.393 0 0 0-1.557.632l-.165-.96c.122-.788.971-1.484 1.767-1.534.796-.05 1.587.38 1.76 1.159l.241 1.1a3.428 3.428 0 0 0-2.046-.397" fill="#F5AB00" mask="url(#f8rc38fs7f)"/>
            <path d="m9.643 63.919.06.349c.391-.204.81-.338 1.235-.393a3.74 3.74 0 0 1 1.575.145l-.088-.397c-.135-.617-.78-.903-1.372-.868-.619.04-1.286.596-1.41 1.164zM9.43 65.25a.372.372 0 0 1-.368-.31l-.165-.96a.365.365 0 0 1-.001-.12c.145-.94 1.113-1.787 2.112-1.85 1.06-.068 1.949.546 2.148 1.452l.242 1.1a.374.374 0 0 1-.543.408 3.044 3.044 0 0 0-1.82-.354 3.007 3.007 0 0 0-1.385.563.377.377 0 0 1-.22.071z" fill="#1B282C" mask="url(#f8rc38fs7f)"/>
            <path d="M11.426 76.445a3.442 3.442 0 0 1 2.26-1.318 3.391 3.391 0 0 1 1.7.233c.165.987.056 2.066-.085 3.137-.686-.027-1.536.11-2.065.807a14.775 14.775 0 0 1-1.701-2.228l-.11-.631z" fill="#FAD17F" mask="url(#f8rc38fs7f)"/>
            <path d="M12.07 76.874c.337.538.737 1.08 1.195 1.617.413-.312.934-.496 1.54-.544.083-.711.142-1.47.071-2.171a2.795 2.795 0 0 0-1.12-.094 2.898 2.898 0 0 0-1.733.922l.046.27zm1.166 2.99a.565.565 0 0 1-.414-.182 15.285 15.285 0 0 1-1.764-2.312.533.533 0 0 1-.075-.198l-.109-.632a.553.553 0 0 1 .108-.436 3.983 3.983 0 0 1 2.632-1.532 3.93 3.93 0 0 1 1.982.268c.181.073.31.235.343.427.183 1.094.053 2.28-.083 3.304-.038.286-.287.535-.577.486-.75-.025-1.28.168-1.596.586a.56.56 0 0 1-.421.22c-.008.002-.017.002-.026.002z" fill="#F5AB00" mask="url(#f8rc38fs7f)"/>
            <path d="M15.3 78.497c-.113.86-.249 1.713-.281 2.509a18.286 18.286 0 0 1-1.783-1.702c.53-.697 1.379-.834 2.065-.807" fill="#1B282C" mask="url(#f8rc38fs7f)"/>
            <path d="M14.028 79.326c.171.176.348.35.528.52.03-.25.063-.502.098-.753-.242.044-.45.121-.626.233m.991 2.241a.558.558 0 0 1-.358-.13 18.628 18.628 0 0 1-1.838-1.755.56.56 0 0 1-.033-.717c.544-.717 1.411-1.076 2.533-1.028a.56.56 0 0 1 .533.633l-.068.505c-.094.689-.184 1.34-.209 1.954a.562.562 0 0 1-.56.538" fill="#231916" mask="url(#f8rc38fs7f)"/>
            <path d="M13.96 74.7a.185.185 0 0 1-.183-.147l-1.869-8.593c-.022-.1.043-.2.143-.222.1-.024.201.043.222.143l1.869 8.593a.186.186 0 0 1-.182.226M12.275 73.73a.185.185 0 0 1-.183-.148l-1.868-8.592a.187.187 0 0 1 .364-.079l1.87 8.592a.186.186 0 0 1-.183.227M16.98 79.238a3.427 3.427 0 0 1-1.85-.96l.752-10.695c.006-.084.017-.167.028-.25a3.4 3.4 0 0 0 1.563.704 3.442 3.442 0 0 0 2.54-.624l-1.362 11.66a3.392 3.392 0 0 1-1.67.165" fill="#F5AB00" mask="url(#f8rc38fs7f)"/>
            <path d="M17.04 78.87c.415.068.848.038 1.268-.08l1.248-10.68c-.67.304-1.421.41-2.142.296a3.658 3.658 0 0 1-1.186-.413l-.713 10.135c.436.39.971.651 1.525.741m.445.782c-.19 0-.379-.015-.564-.044h-.001a3.817 3.817 0 0 1-2.054-1.065.372.372 0 0 1-.11-.291l.755-10.695c.006-.09.016-.18.028-.269a.37.37 0 0 1 .23-.3.37.37 0 0 1 .372.053c.418.332.898.548 1.392.628a3.03 3.03 0 0 0 2.26-.557.374.374 0 0 1 .591.345l-1.362 11.66a.377.377 0 0 1-.245.309 3.85 3.85 0 0 1-1.292.226" fill="#F5AB00" mask="url(#f8rc38fs7f)"/>
            <path d="M16.98 79.238c.56.09 1.138.025 1.671-.165l-.113.967c-.34.722-1.35 1.149-2.128.971-.778-.177-1.415-.814-1.36-1.61l.08-1.123a3.427 3.427 0 0 0 1.85.96" fill="#F5AB00" mask="url(#f8rc38fs7f)"/>
            <path d="m15.617 79.342-.007.099c-.037.525.437.912.925 1.024.51.114 1.204-.173 1.459-.593l.008-.068a3.782 3.782 0 0 1-1.11-.012h-.002a3.878 3.878 0 0 1-1.273-.45m1.162 2.27c-.167 0-.333-.017-.494-.054-1.112-.254-1.866-1.178-1.793-2.196l.079-1.124a.56.56 0 0 1 .954-.358 2.88 2.88 0 0 0 1.545.805c.454.07.935.022 1.392-.14a.56.56 0 0 1 .745.593l-.112.966a.552.552 0 0 1-.049.174c-.372.792-1.337 1.334-2.267 1.334" fill="#1B282C" mask="url(#f8rc38fs7f)"/>
            <path d="M20.014 67.413a3.442 3.442 0 0 1-2.54.624 3.399 3.399 0 0 1-1.565-.705c.12-.993.53-1.997.97-2.985.65.222 1.504.33 2.209-.189.414.85.762 1.734 1 2.618l-.074.637z" fill="#FAD17F" mask="url(#f8rc38fs7f)"/>
            <path d="M16.31 67.166c.377.261.795.434 1.222.502a3.039 3.039 0 0 0 2.131-.466l.046-.396a14.13 14.13 0 0 0-.784-2.12c-.528.248-1.152.285-1.837.112-.323.745-.647 1.569-.778 2.368zm1.678 1.286c-.193 0-.384-.016-.574-.046a3.764 3.764 0 0 1-1.737-.781.373.373 0 0 1-.138-.338c.13-1.075.584-2.16.998-3.092a.374.374 0 0 1 .462-.202c.762.262 1.39.214 1.867-.136a.372.372 0 0 1 .557.137c.448.919.793 1.822 1.026 2.686a.342.342 0 0 1 .01.14l-.074.636a.371.371 0 0 1-.151.26 3.831 3.831 0 0 1-2.246.736z" fill="#F5AB00" mask="url(#f8rc38fs7f)"/>
            <path d="M16.879 64.348c.352-.792.724-1.572.981-2.327.447.67.863 1.39 1.228 2.137-.706.52-1.558.41-2.21.19" fill="#1B282C" mask="url(#f8rc38fs7f)"/>
            <path d="M17.397 64.105c.46.094.862.066 1.202-.09-.202-.395-.42-.784-.653-1.165-.164.4-.346.804-.524 1.2l-.025.055zm.5.8c-.356 0-.738-.068-1.138-.203a.373.373 0 0 1-.222-.506l.204-.454c.29-.642.564-1.247.765-1.842a.373.373 0 0 1 .306-.249.366.366 0 0 1 .359.162c.465.698.887 1.433 1.252 2.182.08.162.03.358-.115.465a2.331 2.331 0 0 1-1.41.444z" fill="#231916" mask="url(#f8rc38fs7f)"/>
            <path d="M16.395 77.504h-.014a.188.188 0 0 1-.172-.2l.642-8.77c.007-.103.088-.176.2-.173.102.008.18.098.172.2l-.641 8.77a.188.188 0 0 1-.187.173M17.736 78.913h-.014a.188.188 0 0 1-.173-.2l.642-8.77c.008-.103.087-.173.2-.173.103.008.18.097.173.2l-.641 8.77a.188.188 0 0 1-.187.173" fill="#F5AB00" mask="url(#f8rc38fs7f)"/>
            <path fill="#1B282C" mask="url(#f8rc38fs7f)" d="M26.775 89.933H11.7L9.36 72.26h19.754z"/>
            <path d="M12.027 89.56h14.421l2.241-16.928H9.786l2.241 16.928zm14.748.747H11.7a.373.373 0 0 1-.37-.325L8.99 72.308a.371.371 0 0 1 .37-.422h19.754a.371.371 0 0 1 .37.422l-2.339 17.674a.373.373 0 0 1-.37.325z" fill="#287B96" mask="url(#f8rc38fs7f)"/>
        </g>
        <g fill-rule="nonzero" fill="#000">
            <use fill-opacity=".2" xlink:href="#sz689reupg"/>
            <use filter="url(#vnpili2kyh)" xlink:href="#sz689reupg"/>
        </g>
    </g>
</svg>
