<svg width="200" height="200" viewBox="0 0 200 200" xmlns="http://www.w3.org/2000/svg" xmlns:xlink="http://www.w3.org/1999/xlink">
    <defs>
        <path id="n4n2e53aea" d="M0 0h34.029v61.082H0z"/>
        <path id="0smd8ayvyc" d="M0 0h34.029v61.082H0z"/>
        <path id="l3ptc04npe" d="M0 0h31.506v33.38H0z"/>
        <path d="M167 17c11.046 0 20 8.954 20 20v128c0 11.046-8.954 20-20 20H34c-11.046 0-20-8.954-20-20V37c0-11.046 8.954-20 20-20h133zm0 6H34c-7.628 0-13.83 6.1-13.997 13.687L20 37v128c0 7.627 6.1 13.83 13.687 13.997L34 179h133c7.627 0 13.83-6.1 13.997-13.687L181 165V37c0-7.628-6.1-13.83-13.687-13.997L167 23zm-44.747 12.215a4 4 0 0 1 .15 5.497l-.15.16-20 20a4 4 0 0 1-5.498.15l-.16-.15L84.24 48.515a4 4 0 0 1 5.497-5.808l.16.151 9.527 9.528 17.173-17.171a4 4 0 0 1 5.657 0z" id="c63fvhsmig"/>
        <filter x="-.6%" y="-.6%" width="101.2%" height="101.2%" filterUnits="objectBoundingBox" id="ro0vyctx5h">
            <feGaussianBlur stdDeviation=".5" in="SourceAlpha" result="shadowBlurInner1"/>
            <feOffset dy="1" in="shadowBlurInner1" result="shadowOffsetInner1"/>
            <feComposite in="shadowOffsetInner1" in2="SourceAlpha" operator="arithmetic" k2="-1" k3="1" result="shadowInnerInner1"/>
            <feColorMatrix values="0 0 0 0 0 0 0 0 0 0 0 0 0 0 0 0 0 0 0.1 0" in="shadowInnerInner1"/>
        </filter>
    </defs>
    <g fill="none" fill-rule="evenodd">
        <path d="M78.513 68.22c-1.033.34-2.04.74-3.02 1.184a7.465 7.465 0 0 0-1.085-.087c-3.51 0-6.449 2.41-7.272 5.665-.119.11-.242.214-.358.325a30.996 30.996 0 0 0-5.083 6.413c-3.351.753-5.857 3.743-5.857 7.321 0 1.824.651 3.494 1.732 4.796a31.017 31.017 0 0 0-.247 3.703c0 1.256.1 2.488.245 3.706a7.482 7.482 0 0 0-1.73 4.793c0 3.573 2.498 6.558 5.841 7.317a31.009 31.009 0 0 0 5.265 6.577c.063.058.13.114.193.172.826 3.25 3.763 5.659 7.27 5.659a7.55 7.55 0 0 0 1.083-.088c.981.445 1.99.843 3.023 1.184 4.762 1.57 9.677-1.933 9.677-6.947V75.167c0-5.014-4.915-8.517-9.677-6.947" fill="#F3B1B5"/>
        <g transform="translate(55 67)">
            <mask id="cm20k7tzdb" fill="#fff">
                <use xlink:href="#n4n2e53aea"/>
            </mask>
            <path d="M20.49 57.838a.85.85 0 0 1 .345.074c.984.446 1.973.833 2.94 1.152 2.027.67 4.177.34 5.899-.908a6.402 6.402 0 0 0 2.678-5.244V8.167a6.402 6.402 0 0 0-2.678-5.243 6.49 6.49 0 0 0-5.898-.908c-.964.319-1.953.706-2.938 1.152a.848.848 0 0 1-.467.066 6.679 6.679 0 0 0-.963-.078 6.659 6.659 0 0 0-6.46 5.032.842.842 0 0 1-.241.409l-.171.153c-.06.054-.12.107-.179.164a30.12 30.12 0 0 0-4.941 6.236.835.835 0 0 1-.537.389c-3.014.677-5.202 3.411-5.202 6.502 0 1.553.546 3.065 1.539 4.26a.842.842 0 0 1 .187.635c-.165 1.367-.241 2.513-.241 3.604 0 1.099.075 2.246.239 3.607a.841.841 0 0 1-.188.634 6.683 6.683 0 0 0-1.536 4.26 6.63 6.63 0 0 0 5.189 6.498c.223.05.416.19.533.386a30.14 30.14 0 0 0 5.123 6.4l.183.164c.12.11.205.251.244.41a6.662 6.662 0 0 0 6.459 5.026c.283 0 .59-.024.963-.079a.812.812 0 0 1 .119-.008zm5.375 3.244c-.87 0-1.751-.14-2.614-.425a31.247 31.247 0 0 1-2.887-1.118c-.35.043-.658.063-.956.063a8.336 8.336 0 0 1-8.015-6.038l-.02-.02a31.68 31.68 0 0 1-5.232-6.458A8.295 8.295 0 0 1 0 39.04c0-1.82.6-3.596 1.695-5.042a30.824 30.824 0 0 1-.21-3.458c0-1.065.068-2.171.212-3.455A8.363 8.363 0 0 1 0 22.04a8.29 8.29 0 0 1 6.158-8.051 31.795 31.795 0 0 1 5.038-6.286c.064-.062.13-.12.194-.178a8.334 8.334 0 0 1 8.018-6.047c.303 0 .612.02.958.062.966-.429 1.937-.805 2.885-1.117 2.546-.838 5.243-.422 7.406 1.14a8.065 8.065 0 0 1 3.372 6.603v44.745a8.062 8.062 0 0 1-3.372 6.604 8.146 8.146 0 0 1-4.792 1.566z" fill="#1B282C" mask="url(#cm20k7tzdb)"/>
        </g>
        <path d="M74.984 75.92s-1.155 3.795 3.797 5.447" fill="#F3B1B5"/>
        <path d="M78.781 82.205a.84.84 0 0 1-.265-.043c-5.661-1.888-4.348-6.44-4.334-6.486a.84.84 0 0 1 1.606.483c-.091.317-.748 3.076 3.258 4.413a.837.837 0 0 1-.265 1.633" fill="#1B282C"/>
        <path d="M75.566 96.858s1.804 3.534 6.513 1.284" fill="#F3B1B5"/>
        <path d="M79.162 99.734c-3.024 0-4.327-2.462-4.344-2.495a.839.839 0 0 1 1.492-.768c.154.29 1.597 2.734 5.408.914a.839.839 0 0 1 .722 1.514c-1.262.603-2.352.835-3.278.835" fill="#1B282C"/>
        <path d="M83.005 109.356s-1.215 3.777 3.71 5.506" fill="#F3B1B5"/>
        <path d="M86.716 115.7a.826.826 0 0 1-.278-.048c-5.631-1.975-4.246-6.507-4.23-6.553a.84.84 0 0 1 1.598.508c-.095.313-.799 3.065 3.187 4.464a.838.838 0 0 1-.278 1.63" fill="#1B282C"/>
        <path d="M71.16 92.079s2.066-3.389-2.317-6.222" fill="#F3B1B5"/>
        <path d="M71.16 92.917a.84.84 0 0 1-.718-1.271c.166-.285 1.491-2.794-2.055-5.085a.84.84 0 0 1 .91-1.409c5.013 3.24 2.604 7.322 2.578 7.363a.836.836 0 0 1-.716.402" fill="#1B282C"/>
        <path d="M75.783 117.075s2.066-3.388-2.317-6.221" fill="#F3B1B5"/>
        <path d="M75.782 117.914a.84.84 0 0 1-.718-1.27c.166-.282 1.495-2.793-2.054-5.086a.84.84 0 0 1 .911-1.409c5.012 3.24 2.604 7.322 2.578 7.363a.838.838 0 0 1-.717.402" fill="#1B282C"/>
        <path d="M62.637 106.407s3.965.163 4.316-5.045" fill="#F3B1B5"/>
        <path d="M62.638 107.245h-.036a.838.838 0 0 1-.803-.873c.018-.461.418-.836.866-.803.32-.007 3.169-.048 3.45-4.264a.841.841 0 0 1 .894-.78.84.84 0 0 1 .781.893c-.383 5.675-4.707 5.827-5.152 5.827" fill="#1B282C"/>
        <path d="M97.868 68.22c1.033.34 2.04.74 3.021 1.184a7.467 7.467 0 0 1 1.085-.087c3.51 0 6.448 2.41 7.272 5.665.118.11.241.214.358.325a30.996 30.996 0 0 1 5.082 6.413c3.351.753 5.857 3.743 5.857 7.321 0 1.824-.651 3.494-1.732 4.796.146 1.216.247 2.447.247 3.703 0 1.256-.1 2.488-.245 3.706a7.477 7.477 0 0 1 1.73 4.793c0 3.573-2.498 6.558-5.841 7.317a31.009 31.009 0 0 1-5.265 6.577c-.063.058-.13.114-.193.172-.826 3.25-3.763 5.659-7.27 5.659-.369 0-.728-.036-1.083-.088-.981.445-1.99.843-3.023 1.184-4.762 1.57-9.677-1.933-9.677-6.947V75.167c0-5.014 4.915-8.517 9.677-6.947" fill="#F3B1B5"/>
        <g transform="translate(87.352 67)">
            <mask id="q2vqkhkt7d" fill="#fff">
                <use xlink:href="#0smd8ayvyc"/>
            </mask>
            <path d="M8.169 1.678a6.483 6.483 0 0 0-3.814 1.246 6.402 6.402 0 0 0-2.678 5.243v44.746c0 2.101.976 4.013 2.678 5.243 1.722 1.246 3.872 1.574 5.897.908a29.82 29.82 0 0 0 2.942-1.152.848.848 0 0 1 .464-.066c.374.055.68.079.964.079a6.66 6.66 0 0 0 6.457-5.026.836.836 0 0 1 .248-.414l.18-.161a30.208 30.208 0 0 0 5.122-6.398.835.835 0 0 1 .534-.388 6.63 6.63 0 0 0 5.189-6.498 6.68 6.68 0 0 0-1.536-4.259.84.84 0 0 1-.188-.634c.163-1.361.239-2.508.239-3.607 0-1.09-.076-2.234-.24-3.604a.843.843 0 0 1 .187-.635 6.682 6.682 0 0 0 1.538-4.26c0-3.09-2.188-5.825-5.201-6.503a.834.834 0 0 1-.537-.387 30.172 30.172 0 0 0-4.945-6.24 8.368 8.368 0 0 0-.176-.16l-.17-.154a.85.85 0 0 1-.243-.409 6.657 6.657 0 0 0-6.458-5.032c-.29 0-.598.025-.964.077a.85.85 0 0 1-.467-.065 29.392 29.392 0 0 0-2.939-1.151v-.001a6.656 6.656 0 0 0-2.083-.338m-.005 59.404a8.149 8.149 0 0 1-4.792-1.566A8.064 8.064 0 0 1 0 52.913V8.167a8.065 8.065 0 0 1 3.372-6.602C5.535.002 8.233-.415 10.778.424c.951.313 1.92.689 2.885 1.117.346-.042.655-.062.959-.062a8.334 8.334 0 0 1 8.017 6.047c.064.058.129.115.192.176a31.773 31.773 0 0 1 5.04 6.289 8.289 8.289 0 0 1 6.158 8.05c0 1.821-.6 3.598-1.697 5.045.144 1.286.212 2.39.212 3.454 0 1.07-.067 2.179-.21 3.457a8.361 8.361 0 0 1 1.695 5.043 8.295 8.295 0 0 1-6.141 8.046 31.891 31.891 0 0 1-5.227 6.454l-.025.023a8.334 8.334 0 0 1-8.014 6.039c-.298 0-.606-.02-.957-.063-.965.428-1.935.804-2.887 1.118a8.32 8.32 0 0 1-2.614.425" fill="#1B282C" mask="url(#q2vqkhkt7d)"/>
        </g>
        <path d="M100.538 75.92s-1.155 3.795 3.796 5.447" fill="#F3B1B5"/>
        <path d="M104.334 82.205a.835.835 0 0 1-.265-.043c-5.66-1.888-4.347-6.44-4.333-6.486a.84.84 0 0 1 1.606.483c-.091.317-.748 3.076 3.257 4.413a.838.838 0 0 1-.265 1.633" fill="#1B282C"/>
        <path d="M101.12 96.858s1.804 3.534 6.513 1.284" fill="#F3B1B5"/>
        <path d="M104.716 99.734c-3.024 0-4.327-2.462-4.344-2.495a.839.839 0 0 1 1.492-.768c.154.29 1.597 2.734 5.408.914a.839.839 0 0 1 .722 1.514c-1.262.603-2.352.835-3.278.835" fill="#1B282C"/>
        <path d="M108.559 109.356s-1.215 3.777 3.71 5.506" fill="#F3B1B5"/>
        <path d="M112.27 115.7a.826.826 0 0 1-.278-.048c-5.631-1.975-4.246-6.507-4.231-6.553a.84.84 0 0 1 1.598.508c-.095.317-.795 3.066 3.188 4.464a.838.838 0 0 1-.278 1.63" fill="#1B282C"/>
        <path d="M96.714 92.079s2.066-3.389-2.318-6.222" fill="#F3B1B5"/>
        <path d="M96.713 92.917a.838.838 0 0 1-.718-1.27c.167-.285 1.492-2.794-2.054-5.086a.84.84 0 0 1 .91-1.409c5.012 3.24 2.604 7.322 2.578 7.363a.838.838 0 0 1-.716.402" fill="#1B282C"/>
        <path d="M101.337 117.075s2.066-3.388-2.318-6.221" fill="#F3B1B5"/>
        <path d="M101.336 117.914a.84.84 0 0 1-.718-1.27c.166-.282 1.495-2.793-2.055-5.086a.84.84 0 0 1 .911-1.409c5.013 3.24 2.604 7.322 2.578 7.363a.838.838 0 0 1-.716.402" fill="#1B282C"/>
        <path d="M88.19 106.407s3.966.163 4.316-5.045" fill="#F3B1B5"/>
        <path d="M88.192 107.245h-.036a.838.838 0 0 1-.803-.873c.018-.461.413-.836.866-.803.325-.007 3.169-.048 3.45-4.264a.846.846 0 0 1 .894-.78.84.84 0 0 1 .781.893c-.383 5.675-4.707 5.827-5.152 5.827" fill="#1B282C"/>
        <path d="M146.776 158.786a1.03 1.03 0 0 1-.07 1.456l-3.82 3.46a1.03 1.03 0 0 1-1.455-.07l-25.972-28.659a1.03 1.03 0 0 1 .071-1.455l3.82-3.462a1.03 1.03 0 0 1 1.455.072l25.971 28.658z" fill="#DBDCDC"/>
        <path d="M120.04 130.627a.182.182 0 0 0-.127.05l-3.82 3.461a.193.193 0 0 0-.013.272l25.972 28.657c.045.05.096.063.133.064.028-.003.09-.005.138-.05l3.819-3.46a.188.188 0 0 0 .063-.133.194.194 0 0 0-.05-.138l-25.971-28.659a.187.187 0 0 0-.133-.064h-.01zm22.156 34.181c-.03 0-.063 0-.094-.002a1.853 1.853 0 0 1-1.293-.612l-25.971-28.658a1.854 1.854 0 0 1-.482-1.348c.025-.5.242-.958.612-1.292l3.818-3.462a1.873 1.873 0 0 1 2.64.131l25.97 28.658c.337.37.508.849.484 1.348a1.855 1.855 0 0 1-.612 1.293l-3.818 3.46a1.855 1.855 0 0 1-1.254.484z" fill="#1B282C"/>
        <path d="m127.028 134.934 21.553 23.932a1.45 1.45 0 0 1-.1 2.05l-5.374 4.87a1.451 1.451 0 0 1-2.05-.101l-21.553-23.932a1.45 1.45 0 0 1 .101-2.049l5.374-4.871a1.45 1.45 0 0 1 2.049.101" fill="#287B96"/>
        <g transform="translate(118.29 133.62)">
            <mask id="ql8aiwmvsf" fill="#fff">
                <use xlink:href="#l3ptc04npe"/>
            </mask>
            <path d="M7.662 1.677a.605.605 0 0 0-.409.157L1.88 6.707a.61.61 0 0 0-.044.864l21.556 23.934a.609.609 0 0 0 .863.04l5.374-4.87a.61.61 0 0 0 .042-.864L8.116 1.876a.61.61 0 0 0-.423-.2h-.03M23.845 33.38c-.039 0-.077 0-.115-.002a2.285 2.285 0 0 1-1.585-.75L.59 8.695a2.278 2.278 0 0 1-.588-1.649c.03-.61.297-1.173.751-1.583L6.126.593a2.309 2.309 0 0 1 1.65-.59c.61.03 1.173.295 1.584.748l.001.002 21.553 23.932c.41.452.62 1.038.59 1.649a2.271 2.271 0 0 1-.75 1.584l-5.373 4.87a2.274 2.274 0 0 1-1.535.593" fill="#1B282C" mask="url(#ql8aiwmvsf)"/>
        </g>
        <path d="M112.349 90.491c-9.179-3.984-20.237-2.522-28.134 4.635-10.755 9.747-11.573 26.37-1.825 37.126 9.748 10.756 26.37 11.573 37.126 1.826 10.756-9.749 11.574-26.37 1.826-37.127a26.29 26.29 0 0 0-4.567-4.003m-1.066 36.929c-8.437 7.645-21.473 7.005-29.118-1.432-7.646-8.436-7.004-21.474 1.432-29.12 8.436-7.644 21.472-7.003 29.118 1.434 7.645 8.436 7.004 21.473-1.432 29.118" fill="#DBDCDC"/>
        <path d="M101.857 94.835a19.698 19.698 0 0 0-13.271 5.113 19.643 19.643 0 0 0-6.472 13.683 19.64 19.64 0 0 0 5.098 14.25c7.322 8.081 19.853 8.697 27.934 1.374a19.643 19.643 0 0 0 6.472-13.682 19.647 19.647 0 0 0-5.098-14.25c-3.898-4.302-9.272-6.488-14.663-6.488zm.018 41.21c-5.85 0-11.678-2.372-15.906-7.036a21.313 21.313 0 0 1-5.53-15.461 21.312 21.312 0 0 1 7.02-14.844c8.767-7.943 22.36-7.274 30.303 1.492 7.944 8.766 7.276 22.36-1.489 30.302a21.377 21.377 0 0 1-14.398 5.547zm.004 5.666c-7.395 0-14.765-2.997-20.111-8.895-10.042-11.083-9.197-28.269 1.884-38.312 7.88-7.14 19.275-9.019 29.03-4.782a.838.838 0 1 1-.668 1.538c-9.151-3.972-19.843-2.212-27.236 4.488-10.396 9.421-11.188 25.545-1.767 35.94 9.423 10.396 25.545 11.19 35.942 1.769 10.397-9.423 11.189-25.546 1.768-35.942a25.572 25.572 0 0 0-4.422-3.877.838.838 0 1 1 .952-1.38 27.188 27.188 0 0 1 4.712 4.13c10.043 11.081 9.198 28.267-1.883 38.312-5.184 4.697-11.702 7.011-18.2 7.011z" fill="#1B282C"/>
        <path d="M128.913 102.202a.838.838 0 0 1-.754-.47 29.264 29.264 0 0 0-4.608-6.782.84.84 0 0 1 1.244-1.127 30.925 30.925 0 0 1 4.87 7.172.837.837 0 0 1-.752 1.207m2.207 6.108a.839.839 0 0 1-.814-.64 29.251 29.251 0 0 0-.709-2.446.839.839 0 0 1 1.589-.536c.287.849.54 1.719.749 2.586a.838.838 0 0 1-.815 1.036m-2.263 20.48a.838.838 0 0 1-.751-1.21 29.31 29.31 0 0 0 2.893-15.781.839.839 0 0 1 .755-.914.825.825 0 0 1 .914.755 30.98 30.98 0 0 1-3.06 16.683.837.837 0 0 1-.751.467M99.02 145.41c-.027 0-.054 0-.08-.004a30.869 30.869 0 0 1-20.003-10.025.84.84 0 0 1 1.244-1.127 29.195 29.195 0 0 0 18.917 9.483.838.838 0 0 1-.078 1.673m5.314.034a.839.839 0 0 1-.068-1.674 29.355 29.355 0 0 0 3.208-.44.84.84 0 0 1 .32 1.646 31.037 31.037 0 0 1-3.392.466.96.96 0 0 1-.068.002" fill="#1B282C"/>
        <g fill-rule="nonzero" fill="#000">
            <use fill-opacity=".2" xlink:href="#c63fvhsmig"/>
            <use filter="url(#ro0vyctx5h)" xlink:href="#c63fvhsmig"/>
        </g>
    </g>
</svg>
