<svg width="200" height="200" viewBox="0 0 200 200" xmlns="http://www.w3.org/2000/svg" xmlns:xlink="http://www.w3.org/1999/xlink">
    <defs>
        <path id="27xfn4km7a" d="M0 0h48.431v45.385H0z"/>
        <path id="a78vwagetc" d="M0 0h57.677v34.42H0z"/>
        <path d="M167 17c11.046 0 20 8.954 20 20v128c0 11.046-8.954 20-20 20H34c-11.046 0-20-8.954-20-20V37c0-11.046 8.954-20 20-20h133zm0 6H34c-7.628 0-13.83 6.1-13.997 13.687L20 37v128c0 7.627 6.1 13.83 13.687 13.997L34 179h133c7.627 0 13.83-6.1 13.997-13.687L181 165V37c0-7.628-6.1-13.83-13.687-13.997L167 23zm-44.747 12.215a4 4 0 0 1 .15 5.497l-.15.16-20 20a4 4 0 0 1-5.498.15l-.16-.15L84.24 48.515a4 4 0 0 1 5.497-5.808l.16.151 9.527 9.528 17.173-17.171a4 4 0 0 1 5.657 0z" id="i591ayzzve"/>
        <filter x="-.6%" y="-.6%" width="101.2%" height="101.2%" filterUnits="objectBoundingBox" id="zpbu43vdff">
            <feGaussianBlur stdDeviation=".5" in="SourceAlpha" result="shadowBlurInner1"/>
            <feOffset dy="1" in="shadowBlurInner1" result="shadowOffsetInner1"/>
            <feComposite in="shadowOffsetInner1" in2="SourceAlpha" operator="arithmetic" k2="-1" k3="1" result="shadowInnerInner1"/>
            <feColorMatrix values="0 0 0 0 0 0 0 0 0 0 0 0 0 0 0 0 0 0 0.1 0" in="shadowInnerInner1"/>
        </filter>
    </defs>
    <g fill="none" fill-rule="evenodd">
        <path d="M128.044 108.25c1.89-2.395-.225-6.614-3.282-6.546.61-2.867-2.25-5.886-5.157-5.446.09-1.941-2.05-3.29-3.993-3.448-1.944-.157-3.895.423-5.836.23-1.029-.1-2.038-.419-3.072-.392-1.177.03-2.296.505-3.33 1.065-4.714 2.553-8.284 7.121-9.615 12.302-.579 2.252-.302 5.324 1.933 5.986-1.824 2.14-.876 5.645 1.246 7.494 2.122 1.85 5.02 2.471 7.782 3.027.99 4.656 7.203 7.282 11.248 4.753.984 1.931 4.03 2.351 5.502.76 3.325 3.627 2.079 10.31 6.137 13.097 2.207 1.515 5.543 1.057 7.257-.997 1.713-2.054 1.557-5.408-.34-7.294-1.153-1.146-2.77-1.73-3.926-2.872-5.198-5.133 6.389-19.38-2.554-21.719" fill="#F5AB00"/>
        <path d="M121.47 127.051h.002c.275.001.538.117.723.32 1.7 1.853 2.298 4.313 2.877 6.692.622 2.552 1.21 4.964 3.092 6.258 1.784 1.223 4.561.842 5.944-.817 1.382-1.656 1.251-4.444-.28-5.965-.499-.497-1.128-.889-1.794-1.305-.725-.451-1.474-.919-2.128-1.565-2.756-2.721-1.59-7.22-.463-11.57 1.424-5.496 2.106-8.915-1.65-9.896a.984.984 0 0 1-.523-1.562c.758-.96.554-2.251.112-3.14-.447-.894-1.34-1.837-2.598-1.812a.957.957 0 0 1-.78-.356.987.987 0 0 1-.205-.833c.218-1.027-.158-2.176-1.005-3.075-.855-.906-1.993-1.353-3.042-1.192a.985.985 0 0 1-1.131-1.02c.06-1.275-1.58-2.3-3.088-2.421-.863-.07-1.74.022-2.673.119-1.027.106-2.09.218-3.18.11a15.854 15.854 0 0 1-1.267-.193c-.591-.108-1.142-.207-1.685-.196-1.059.027-2.098.52-2.885.947-4.46 2.414-7.871 6.781-9.131 11.68-.439 1.708-.338 4.325 1.26 4.798a.986.986 0 0 1 .47 1.583c-1.433 1.68-.578 4.613 1.142 6.113 1.982 1.727 4.824 2.3 7.33 2.805a.982.982 0 0 1 .77.76c.396 1.868 1.85 3.499 3.888 4.363 2.047.869 4.243.78 5.874-.24a.986.986 0 0 1 1.4.388c.314.62.997 1.057 1.823 1.172.826.115 1.605-.123 2.079-.634a.98.98 0 0 1 .722-.316m9.136 15.955c-1.258 0-2.512-.345-3.556-1.062-2.503-1.72-3.209-4.615-3.89-7.415-.462-1.898-.903-3.707-1.855-5.116-.833.486-1.856.684-2.906.538-1.094-.151-2.062-.655-2.734-1.398-2.049.933-4.547.924-6.863-.059-2.4-1.019-4.183-2.907-4.877-5.128-2.495-.511-5.438-1.215-7.634-3.129-2.172-1.892-3.309-5.275-2.019-7.86-1.746-1.31-2.106-4.12-1.468-6.607 1.394-5.42 5.17-10.252 10.1-12.922.981-.532 2.296-1.146 3.774-1.184.748-.017 1.422.105 2.087.226.368.067.737.134 1.108.171.894.09 1.81-.007 2.783-.109.98-.102 1.996-.209 3.036-.123 2.084.168 4.256 1.475 4.78 3.411 1.365.084 2.715.732 3.754 1.835 1.017 1.078 1.58 2.428 1.601 3.762 1.374.329 2.59 1.33 3.316 2.785.681 1.367.782 2.835.322 4.078 4.456 1.963 3.094 7.218 1.883 11.894-.987 3.81-2.008 7.75-.058 9.674.498.492 1.124.882 1.786 1.295.73.456 1.485.927 2.142 1.579 2.25 2.238 2.435 6.187.402 8.624-1.22 1.461-3.122 2.24-5.014 2.24" fill="#1B282C"/>
        <path d="M111.733 128.327c.498-2.347.223-4.78-.054-7.162-.143-1.234-.29-2.48-.696-3.655-.558-1.609-1.606-3.113-1.588-4.815.007-.67.183-1.333.15-2.001-.103-2.141-2.774-3.703-4.71-2.754.613-2.25-1.801-4.705-4.08-4.15-.703.171-1.37.568-2.092.527-1.96-.113-3.17-3.269-4.991-2.545-.59.234-.95.834-1.492 1.166-1.14.7-2.731-.063-3.363-1.236-.633-1.174-.565-2.584-.44-3.91.334-3.59.026-10.097-4.722-10.756-2.193-.304-4.383.75-6.035 2.213-1.468 1.298-2.666 3.038-2.795 4.984-.28 4.198 2.972 7.327 4.364 11.013.872 2.309.796 3.828.448 6.197-.156 1.055-.756 1.714-.758 2.829 0 .614 1.243 3.092.956 3.49-2.076 2.889-1.332 7.388 1.565 9.467-.92 1.8-.625 4.144.716 5.663 1.34 1.518 3.64 2.118 5.558 1.448.199 2.457 3.408 3.257 5.892 3.265 7.721.023 16.25-.239 18.167-9.278" fill="#F5AB00"/>
        <path d="M87.675 133.355a.982.982 0 0 1 .981.906c.15 1.851 3.159 2.354 4.912 2.36 8.427.013 15.527-.598 17.202-8.499.47-2.214.196-4.567-.069-6.843-.135-1.163-.274-2.365-.649-3.446-.162-.47-.374-.936-.597-1.431-.521-1.15-1.059-2.34-1.045-3.717.004-.356.045-.689.085-1.01.041-.334.08-.65.068-.934-.033-.667-.471-1.313-1.172-1.727-.702-.415-1.515-.487-2.123-.19a.983.983 0 0 1-1.382-1.142c.19-.7-.078-1.53-.698-2.167-.633-.651-1.473-.944-2.199-.768-.207.05-.41.125-.614.199-.512.184-1.099.39-1.768.353-1.25-.07-2.158-.915-2.96-1.66-.816-.759-1.237-1.101-1.612-.952-.156.061-.343.242-.542.434-.222.214-.474.457-.798.656-.677.415-1.507.522-2.339.298a3.949 3.949 0 0 1-2.406-1.906c-.763-1.418-.687-3.05-.554-4.47.141-1.508.615-9.064-3.876-9.688-1.661-.231-3.57.49-5.248 1.976-.864.765-2.334 2.342-2.465 4.312-.163 2.45 1.058 4.55 2.352 6.773.709 1.22 1.443 2.48 1.951 3.826.991 2.626.833 4.428.501 6.688-.085.573-.267 1.036-.429 1.443-.177.448-.318.802-.318 1.244.021.137.244.733.391 1.128.531 1.422.852 2.28.378 2.937-.837 1.165-1.169 2.733-.91 4.3.26 1.57 1.08 2.951 2.25 3.79a.986.986 0 0 1 .304 1.249c-.733 1.434-.49 3.353.577 4.564 1.07 1.214 2.965 1.705 4.497 1.17a.962.962 0 0 1 .324-.056m6.909 5.236c-.347 0-.687 0-1.022-.002-2.617-.008-5.683-.837-6.606-3.062-2.032.311-4.212-.435-5.578-1.983-1.427-1.618-1.864-3.993-1.171-6.017-1.258-1.145-2.128-2.77-2.425-4.567-.328-1.976.069-3.972 1.086-5.528-.079-.328-.31-.947-.456-1.342-.33-.883-.517-1.403-.517-1.82.001-.816.243-1.427.457-1.965.139-.354.26-.658.311-1.005.347-2.366.369-3.682-.395-5.706-.45-1.194-1.111-2.33-1.812-3.532-1.385-2.38-2.817-4.843-2.614-7.894.132-1.981 1.241-3.99 3.125-5.656 2.109-1.866 4.592-2.762 6.823-2.452 1.544.215 6.51 1.701 5.567 11.823-.11 1.183-.177 2.418.327 3.352.238.44.702.81 1.184.939.212.056.526.092.797-.076.14-.085.296-.236.461-.394.297-.286.665-.642 1.182-.847 1.566-.62 2.789.51 3.68 1.34.585.543 1.19 1.106 1.731 1.136.263.01.606-.103.99-.24.27-.097.54-.193.814-.26 1.398-.34 2.96.161 4.075 1.308.72.738 1.16 1.627 1.283 2.535a4.51 4.51 0 0 1 2.511.642c1.273.752 2.072 1.996 2.137 3.328.022.454-.03.87-.08 1.272-.033.262-.067.523-.07.787-.01.943.417 1.886.87 2.885.232.513.472 1.044.663 1.599.446 1.284.597 2.595.745 3.862.27 2.32.577 4.95.04 7.48-2.045 9.637-11.064 10.06-18.113 10.06" fill="#1B282C"/>
        <path d="M100.788 127.428a.985.985 0 0 1-.14-1.958c.662-.096 1.253-.676 1.318-1.293.064-.608-.388-1.28-1.007-1.497a.983.983 0 0 1-.124-1.805c.014-.067.03-.188.025-.383-.024-.868-.052-1.853-.47-2.565-.302-.513-1.019-.94-1.522-.738a.986.986 0 0 1-1.311-1.186c.252-.881-.017-1.914-.72-2.764-.774-.935-1.917-1.456-2.981-1.36a.978.978 0 0 1-1.07-.892.984.984 0 0 1 .891-1.07c1.735-.158 3.478.618 4.678 2.067.794.96 1.23 2.101 1.261 3.222 1.032.168 1.97.87 2.472 1.723.675 1.148.711 2.458.74 3.51a3.34 3.34 0 0 1-.114 1.025c.837.723 1.325 1.826 1.21 2.92-.159 1.507-1.446 2.811-2.994 3.034a.956.956 0 0 1-.142.01" fill="#1B282C"/>
        <path d="M117.506 117.1c.575-2.742 3.074-4.96 5.86-5.203.564-2.337 3.405-3.82 5.64-2.943 1.315-2.075 4.011-3.164 6.396-2.584.987.24 1.901.731 2.891.964 4.313 1.011 8.272-3.307 9.054-7.672.166-.927.247-1.89.675-2.727.992-1.945 3.47-2.564 5.65-2.601 2.966-.05 6.45 1.021 7.336 3.856.925 2.958-1.51 5.851-3.918 7.799-2.406 1.947-5.233 4.082-5.446 7.173-.137 1.99.42 4.805-1.508 5.303 1.445 1.527 1.36 4.24-.179 5.673-.68.633-1.618 1.082-1.929 1.959-.246.693-.018 1.453.017 2.188.09 1.926-1.206 3.703-2.834 4.732-1.627 1.028-3.553 1.45-5.435 1.854-.06 1.3-1.22 2.336-2.471 2.683-1.253.347-2.583.156-3.868-.038l-8.807-1.325c-2.527-.38-7.3-2.359-6.935-5.646.049-.434.102-1.017-.308-1.162-.22-.078-.457.034-.686.079-.8.158-1.56-.568-1.745-1.366-.37-1.601-.205-5.17.12-6.82.326-1.651 2.186-3.014 2.43-4.177" fill="#F5AB00"/>
        <g transform="translate(113.759 93.348)">
            <mask id="obmzt9sa6b" fill="#fff">
                <use xlink:href="#27xfn4km7a"/>
            </mask>
            <path d="M3.465 35.024c.152 0 .317.02.49.082 1.163.41 1.01 1.759.959 2.202-.277 2.5 3.908 4.231 6.103 4.562l8.808 1.325c1.118.169 2.384.36 3.458.062.82-.226 1.712-.927 1.751-1.78a.984.984 0 0 1 .777-.916c1.778-.382 3.618-.778 5.116-1.725 1.509-.953 2.441-2.465 2.376-3.853-.01-.185-.033-.375-.056-.565-.074-.603-.158-1.285.095-1.998.315-.892 1.003-1.417 1.609-1.881.198-.152.398-.302.577-.469.543-.506.87-1.276.895-2.112.026-.836-.25-1.625-.761-2.164a.984.984 0 0 1 .469-1.63c.653-.169.758-1.048.746-2.955-.003-.488-.006-.991.026-1.463.234-3.375 3.015-5.617 5.47-7.596l.34-.274c1.7-1.376 4.428-4.081 3.597-6.74-.703-2.249-3.72-3.227-6.38-3.165-1.133.02-3.868.258-4.79 2.063-.27.532-.376 1.184-.486 1.875-.031.194-.062.387-.096.58-.533 2.973-2.345 5.794-4.728 7.36-1.753 1.152-3.659 1.532-5.52 1.095-.568-.133-1.091-.333-1.597-.527-.451-.172-.877-.335-1.304-.438-1.955-.477-4.248.45-5.33 2.154a.985.985 0 0 1-1.19.39c-.8-.314-1.76-.233-2.632.222-.873.455-1.49 1.197-1.692 2.035a.984.984 0 0 1-.871.75c-2.356.204-4.497 2.106-4.983 4.423-.158.751-.676 1.416-1.223 2.118-.527.676-1.073 1.375-1.205 2.048-.323 1.64-.442 5.042-.126 6.407.083.36.418.657.595.622.039-.007.076-.018.114-.029.147-.039.355-.095.599-.095zm18.53 10.36c-.857 0-1.69-.125-2.463-.242l-8.807-1.325c-2.727-.411-8.208-2.59-7.77-6.709-1.335.165-2.443-.955-2.717-2.138-.426-1.841-.213-5.572.113-7.232.223-1.133.946-2.06 1.584-2.878.368-.472.785-1.007.849-1.31.62-2.966 3.124-5.352 6.08-5.893.452-1.109 1.33-2.056 2.483-2.658 1.126-.587 2.371-.77 3.51-.532 1.644-2.02 4.476-3.018 7.018-2.402.547.134 1.053.326 1.54.514.467.177.906.346 1.344.448 1.669.392 3.089-.232 3.989-.823 1.917-1.26 3.437-3.64 3.871-6.064.033-.18.062-.36.091-.542.13-.811.264-1.65.676-2.459C34.743.482 38.048.033 39.896.002c3.179-.055 7.22 1.106 8.293 4.547.874 2.793-.632 5.94-4.238 8.857l-.342.277c-2.246 1.81-4.567 3.682-4.741 6.2-.029.41-.025.858-.022 1.313.01 1.413.021 3.233-1.041 4.241.407.767.615 1.663.586 2.583-.042 1.357-.597 2.63-1.522 3.491a9.696 9.696 0 0 1-.722.592c-.445.34-.829.633-.95.974-.097.276-.05.658.004 1.102.03.238.057.475.07.71.098 2.118-1.163 4.267-3.292 5.612-1.59 1.005-3.423 1.474-5.11 1.845-.386 1.292-1.55 2.392-3.06 2.809a6.764 6.764 0 0 1-1.815.23z" fill="#1B282C" mask="url(#obmzt9sa6b)"/>
        </g>
        <path d="M127.955 126.135a.978.978 0 0 1-.457-.113c-1.391-.73-2.22-2.393-1.972-3.952.209-1.308 1.159-2.445 2.374-2.93.251-1.086 1.013-2.064 2.108-2.66.88-.477 1.848-.639 2.738-.481.333-.793.99-1.45 1.813-1.73 1.283-.44 2.798.098 3.524 1.249a.985.985 0 1 1-1.665 1.05c-.24-.38-.799-.582-1.223-.436-.427.146-.754.651-.716 1.105a.984.984 0 0 1-1.51.915c-.65-.414-1.47-.24-2.021.06-.561.304-1.164.912-1.171 1.702a.984.984 0 0 1-.824.962c-.727.12-1.365.767-1.482 1.504-.118.737.288 1.554.943 1.9a.984.984 0 0 1-.459 1.855" fill="#1B282C"/>
        <path d="M154.514 125.105H76.538c-4.6 0-7.43 5.035-5.038 8.965l14.087 23.142a5.899 5.899 0 0 0 5.037 2.831H140.427a5.898 5.898 0 0 0 5.038-2.83l14.086-23.143c2.393-3.93-.436-8.965-5.037-8.965" fill="#DAE4F3"/>
        <path d="M76.123 125.612c-1.797 0-3.408.948-4.307 2.534a5.091 5.091 0 0 0 .06 5.185l14.237 23.775c.898 1.499 2.525 2.43 4.247 2.43h50.331c1.722 0 3.35-.93 4.247-2.43l14.237-23.775a5.091 5.091 0 0 0 .06-5.185c-.898-1.586-2.51-2.534-4.307-2.534H76.123zm64.568 35.893H90.36c-2.41 0-4.684-1.298-5.936-3.387l-14.237-23.775a7.04 7.04 0 0 1-.083-7.168c1.252-2.211 3.503-3.532 6.02-3.532h78.804c2.516 0 4.767 1.32 6.021 3.532a7.042 7.042 0 0 1-.085 7.168l-14.236 23.775c-1.252 2.089-3.526 3.387-5.937 3.387z" fill="#1B282C"/>
        <path d="M88.427 135.632c-2.996 2.546-3.45 6.912-4.566 10.695-1.115 3.784-4.201 7.874-8.043 7.078-1.285-.266-2.464-1.075-3.775-1.041-2.236.056-3.622 2.392-5.465 3.668-2.583 1.79-6.241 1.369-8.854-.377-2.612-1.745-4.321-4.577-5.504-7.5-.633-1.565-1.68-3.525-3.335-3.234-.528.093-.983.423-1.49.6-2.547.894-4.73-2.239-5.019-4.937-.289-2.699.15-5.743-1.561-7.841a6.647 6.647 0 0 0-2.493-.11 28.43 28.43 0 0 0-.337 4.358c0 15.477 12.47 28.024 27.854 28.024 15.382 0 27.853-12.547 27.853-28.024 0-.975-.05-1.94-.148-2.89-1.833-.145-3.701.329-5.117 1.531" fill="#FAD17F"/>
        <g transform="translate(37 131.58)">
            <mask id="xbhuw6029d" fill="#fff">
                <use xlink:href="#a78vwagetc"/>
            </mask>
            <path d="M2.187 1.97a27.655 27.655 0 0 0-.217 3.442c0 14.91 12.053 27.04 26.869 27.04 14.816 0 26.868-12.13 26.868-27.04 0-.639-.023-1.284-.068-1.927-1.372.05-2.62.506-3.574 1.318-2.12 1.802-2.838 4.677-3.597 7.72-.207.827-.42 1.682-.662 2.503-1.335 4.527-4.925 8.648-9.188 7.765-.587-.123-1.123-.33-1.643-.53-.673-.261-1.272-.5-1.906-.492-1.127.028-2.045.906-3.107 1.924-.569.545-1.159 1.11-1.824 1.57-2.72 1.883-6.815 1.731-9.961-.368-2.446-1.634-4.366-4.235-5.87-7.95-.521-1.29-1.336-2.804-2.25-2.634-.184.032-.409.142-.646.258-.227.11-.455.22-.692.302-1.1.386-2.234.243-3.274-.414-1.59-1.004-2.813-3.152-3.048-5.347-.077-.717-.104-1.453-.13-2.164-.07-1.85-.137-3.604-1.017-4.895a5.618 5.618 0 0 0-1.063-.08zm26.652 32.45C12.937 34.42 0 21.409 0 5.413 0 3.915.118 2.398.349.904A.984.984 0 0 1 1.185.08a7.593 7.593 0 0 1 2.862.126c.208.05.395.168.53.335C6.065 2.363 6.15 4.655 6.235 6.872c.026.71.052 1.38.12 2.028.17 1.578 1.07 3.215 2.142 3.891.529.335 1.043.408 1.572.221.166-.058.322-.137.48-.213.333-.162.71-.346 1.168-.427 2.673-.473 3.985 2.77 4.416 3.834 1.351 3.337 3.032 5.643 5.14 7.052 2.488 1.662 5.674 1.821 7.746.386.537-.372 1.045-.859 1.582-1.374 1.186-1.135 2.53-2.422 4.418-2.47 1.002-.038 1.88.32 2.667.624.465.18.905.35 1.333.438 3.074.64 5.845-2.82 6.899-6.392.23-.782.438-1.616.64-2.423.801-3.212 1.63-6.533 4.233-8.744 1.544-1.311 3.61-1.936 5.831-1.763a.984.984 0 0 1 .903.88c.101.995.153 2.001.153 2.992 0 15.996-12.936 29.009-28.838 29.009z" fill="#1B282C" mask="url(#xbhuw6029d)"/>
        </g>
        <path d="M65.838 109.309c-13.91 0-25.438 10.21-27.519 23.554a6.681 6.681 0 0 1 2.493.109c1.712 2.087 1.273 5.118 1.562 7.804.288 2.685 2.472 5.803 5.019 4.913.507-.176.962-.504 1.49-.597 1.654-.29 2.702 1.661 3.336 3.219 1.182 2.909 2.89 5.728 5.504 7.465 2.613 1.737 6.27 2.155 8.854.375 1.843-1.27 3.23-3.596 5.466-3.652 1.31-.032 2.49.773 3.774 1.038 3.843.791 6.929-3.28 8.045-7.046 1.116-3.766 1.57-8.11 4.566-10.643 1.416-1.197 3.283-1.669 5.118-1.525-1.439-14.052-13.294-25.014-27.708-25.014m0 37.535c-5.32 0-9.632-4.317-9.632-9.644s4.312-9.645 9.632-9.645c5.32 0 9.632 4.318 9.632 9.645s-4.313 9.644-9.632 9.644" fill="#EF8E98"/>
        <path d="M65.838 128.54c-4.768 0-8.648 3.885-8.648 8.66s3.88 8.66 8.648 8.66 8.647-3.885 8.647-8.66-3.88-8.66-8.647-8.66m0 19.29c-5.854 0-10.618-4.769-10.618-10.63 0-5.86 4.764-10.63 10.618-10.63 5.853 0 10.617 4.77 10.617 10.63 0 5.861-4.764 10.63-10.617 10.63m-16.605-3.754c2.325 0 3.495 2.874 3.898 3.864 1.349 3.32 3.029 5.614 5.137 7.016 2.49 1.656 5.677 1.813 7.75.384.538-.37 1.046-.854 1.584-1.367 1.186-1.13 2.53-2.41 4.416-2.458 1.008-.025 1.878.318 2.665.62.465.18.905.35 1.334.437 3.073.64 5.847-2.805 6.9-6.36.232-.78.441-1.611.642-2.415.802-3.196 1.631-6.5 4.233-8.7 1.263-1.069 2.88-1.68 4.64-1.772a26.792 26.792 0 0 0-26.594-23.031c-12.92 0-23.805 8.977-26.33 21.518a7.389 7.389 0 0 1 1.534.202c.21.05.396.168.532.333 1.489 1.816 1.574 4.1 1.658 6.309.027.704.052 1.369.12 2.014.168 1.564 1.065 3.19 2.133 3.865.534.337 1.05.411 1.584.225.163-.057.319-.136.476-.212.334-.161.711-.346 1.168-.426.179-.03.353-.046.52-.046m13.424 14.196a9.981 9.981 0 0 1-5.478-1.676c-2.45-1.627-4.37-4.217-5.872-7.914-.524-1.284-1.338-2.775-2.253-2.62-.184.033-.41.141-.65.258-.225.11-.452.216-.686.299-1.106.386-2.24.24-3.285-.42-1.584-1-2.805-3.139-3.038-5.32a30.944 30.944 0 0 1-.13-2.149c-.07-1.841-.136-3.586-1.017-4.87a5.76 5.76 0 0 0-1.792-.022.985.985 0 0 1-1.11-1.127c2.204-14.13 14.187-24.386 28.492-24.386a28.759 28.759 0 0 1 28.687 25.898.985.985 0 0 1-.275.787.954.954 0 0 1-.781.294c-1.69-.133-3.261.328-4.406 1.295-2.118 1.792-2.835 4.65-3.594 7.678-.206.823-.42 1.674-.663 2.494-1.336 4.506-4.913 8.608-9.187 7.73-.588-.121-1.125-.328-1.644-.528-.674-.26-1.307-.498-1.908-.49-1.127.03-2.044.903-3.107 1.916-.57.542-1.159 1.104-1.825 1.563-1.27.876-2.844 1.31-4.478 1.31" fill="#1B282C"/>
        <path d="M46.76 129.864a.985.985 0 0 1-.788-1.574l4.6-6.149a.985.985 0 0 1 1.577 1.18l-4.6 6.148a.984.984 0 0 1-.788.395" fill="#FAD17F"/>
        <path d="M78.768 128.831a.984.984 0 0 1-.653-1.72l4.599-4.084a.984.984 0 1 1 1.306 1.473l-4.599 4.083a.979.979 0 0 1-.653.248" fill="#CAD8EE"/>
        <path d="M73.56 119.113a.982.982 0 0 1-.796-.403l-2.676-3.657a.986.986 0 0 1 1.59-1.163l2.676 3.658a.985.985 0 0 1-.794 1.565m-12.842 4.702a.985.985 0 0 1-.78-1.584l3.21-4.18a.984.984 0 1 1 1.562 1.199l-3.21 4.18a.986.986 0 0 1-.782.385m-.535 31.344a.983.983 0 0 1-.812-1.54l2.14-3.134a.985.985 0 0 1 1.626 1.11l-2.14 3.134c-.191.28-.5.43-.814.43" fill="#FAD17F"/>
        <path d="M58.588 119.122a.985.985 0 0 1-.515-.146l-4.293-2.633a.985.985 0 0 1 1.03-1.678l4.294 2.633a.985.985 0 0 1-.516 1.824m-8.05 21.066a.982.982 0 0 1-.515-.146l-4.293-2.633a.985.985 0 0 1 1.03-1.679l4.293 2.634a.985.985 0 0 1-.516 1.824" fill="#CAD8EE"/>
        <g fill-rule="nonzero" fill="#000">
            <use fill-opacity=".2" xlink:href="#i591ayzzve"/>
            <use filter="url(#zpbu43vdff)" xlink:href="#i591ayzzve"/>
        </g>
    </g>
</svg>
