<svg width="200" height="200" viewBox="0 0 200 200" xmlns="http://www.w3.org/2000/svg" xmlns:xlink="http://www.w3.org/1999/xlink">
    <defs>
        <path id="t5aq35xfba" d="M0 0h116.503v111.823H0z"/>
    </defs>
    <g fill="none" fill-rule="evenodd">
        <path d="M126.661 77.707a.684.684 0 0 1-.024-1.368l2.323-.085a.685.685 0 0 1 .05 1.368l-2.323.084h-.026" fill="#1B282C"/>
        <path d="M92.554 140.081c-3.12-1.555-6.37-4.654-6.649-8.325-.209-2.755.81-4.916-.506-7.47-1.234-2.395-2.199-5.157-5.049-6-3.361-.994-7.238.691-8.203 1.154-4.188 3.365-8.16 3.255-10.779 2.553a12.65 12.65 0 0 1-4.37-2.166c-5.324-2.593-8.784-8.5-10.03-17.13-.896-6.204-.365-11.707-.342-11.938l6.38.635c-.014.148-.471 5.11.324 10.5.668 4.531 2.371 10.34 6.696 12.272l.189.085c.213.095.409.227.577.39.058.057.12.11.185.159a6.17 6.17 0 0 0 2.24 1.048c1.718.394 3.387-.117 5.103-1.562l.247-.207.282-.155c.279-.15 6.88-3.69 13.32-1.785 3.303.976 5.922 3.13 7.788 6.403 1.175 2.059 2.25 3.714 2.64 6.155.542 3.398-.749 8.031 3.04 9.752 2.627 1.195 6.383.853 10.877-.987 1.587-1.012 11.301-7.27 21.27-15.025 18.507-14.399 22.588-21.93 23.373-25.136l.024-.093c.06-.243.798-3.432-.829-5.747-4.215-6-14.29-.446-20.122-4.548-6-4.219-4.09-10.389 1.218-14.017.22-.15.459-.271.71-.358 2.767-.952 7.474-1.786 9.433-3.684.57-.553.727-1.39.435-2.128-1.017-2.572-4.47-4.793-6.732-6.322-7.001-4.733-18.54-10.076-34.297-15.881-.924-.277-11.068-3.217-22.408-2.982-15.135.313-25.247 5.897-30.058 16.598l-5.847-2.63C48.533 38.5 60.96 31.453 78.618 31.13c12.85-.237 23.888 3.148 24.351 3.292l.156.053c16.36 6.023 28.426 11.638 35.861 16.687 6.43 4.366 9.597 8.431 9.684 12.429.091 4.187-3.23 6.704-5.205 7.53l-.108.043c-3.421 1.289-8.01 1.764-10.382 4.872-.124.164-.245.354-.22.557.028.225.225.386.411.515 1.474 1.02 3.267 1.549 5.056 1.546 6.3-.01 13.334-.727 17.426 5.195 3.241 4.69 1.956 10.16 1.726 11.02-1.027 4.138-4.176 8.9-9.625 14.555-4.1 4.257-9.507 9.003-16.069 14.106-11.09 8.624-21.865 15.432-21.973 15.5l-.225.142-.245.102c-6.465 2.71-11.99 3.024-16.42.936a15.668 15.668 0 0 1-.263-.128zM49.816 91.076l3.19.315v.003l-3.19-.318z" fill="#FEFEFE"/>
        <g transform="translate(42 30.432)">
            <mask id="8655fc5mfb" fill="#fff">
                <use xlink:href="#t5aq35xfba"/>
            </mask>
            <path d="M36.078 86.86a8.7 8.7 0 0 1 2.466.338c2.748.813 3.93 3.227 4.973 5.357.162.331.324.662.49.985.945 1.834.8 3.504.659 5.12-.073.836-.148 1.7-.079 2.612.27 3.559 3.548 6.407 6.272 7.764h.001c.084.042.167.083.251.123 4.245 2.001 9.583 1.682 15.861-.95l.193-.08.178-.111c.444-.281 11.004-6.975 21.917-15.462 6.536-5.083 11.919-9.807 15.997-14.04 5.364-5.569 8.456-10.228 9.453-14.245.163-.61 1.478-5.977-1.625-10.467-3.492-5.055-9.354-4.985-15.025-4.915-.617.007-1.23.015-1.837.016h-.017c-1.948 0-3.875-.592-5.43-1.668-.172-.12-.63-.437-.7-.993-.063-.507.241-.906.356-1.056 1.89-2.48 5.077-3.4 7.888-4.214.993-.286 1.932-.558 2.796-.883l.096-.039c1.805-.755 4.857-3.06 4.774-6.88-.081-3.76-3.151-7.645-9.384-11.877-7.39-5.019-19.406-10.608-35.714-16.612l-.137-.046c-.444-.138-11.377-3.493-24.12-3.257-17.092.313-29.19 7.002-35.036 19.357l4.6 2.067c5.036-10.556 15.252-16.066 30.38-16.38 11.408-.223 21.505 2.678 22.619 3.01 15.847 5.838 27.435 11.207 34.483 15.97l.362.245c2.355 1.586 5.58 3.758 6.623 6.393.399 1.007.165 2.134-.596 2.87-1.563 1.516-4.559 2.357-7.2 3.098-.911.255-1.77.496-2.485.742a2.32 2.32 0 0 0-.547.276c-2.882 1.971-4.614 4.665-4.63 7.207-.015 2.136 1.168 4.103 3.42 5.687 2.47 1.736 5.913 1.602 9.245 1.475 4.196-.164 8.536-.33 11.043 3.238 1.79 2.548 1.026 5.927.933 6.304l-.026.1c-1.876 7.665-15.602 19.27-23.616 25.505-9.92 7.72-19.501 13.901-21.321 15.063a.643.643 0 0 1-.109.056c-4.67 1.913-8.62 2.25-11.418.976-3.178-1.443-3.226-4.647-3.268-7.474-.015-.997-.03-1.939-.166-2.792-.33-2.06-1.191-3.554-2.19-5.284l-.368-.64c-1.776-3.115-4.262-5.163-7.387-6.086-6.167-1.825-12.532 1.584-12.8 1.73l-.221.12-.194.165c-1.892 1.592-3.756 2.15-5.697 1.704a6.87 6.87 0 0 1-2.499-1.169 2.596 2.596 0 0 1-.249-.213 1.31 1.31 0 0 0-.38-.257l-.19-.085c-4.606-2.059-6.4-8.095-7.093-12.796-.64-4.345-.48-8.413-.38-9.985l-5.021-.5c-.116 1.673-.317 6.171.393 11.09 1.21 8.383 4.548 14.127 9.653 16.613.042.02.082.045.12.074.69.536 2.145 1.514 4.127 2.045 2.447.658 6.2.768 10.173-2.425a.693.693 0 0 1 .133-.084c.88-.42 3.46-1.53 6.227-1.53m21.124 24.963c-2.427 0-4.657-.476-6.676-1.428a17.434 17.434 0 0 1-.277-.134c-3.045-1.518-6.712-4.755-7.026-8.885-.078-1.022.003-1.944.08-2.835.135-1.552.251-2.892-.512-4.374-.17-.332-.337-.67-.503-1.01-1.008-2.06-1.96-4.005-4.132-4.647-3.08-.91-6.767.67-7.644 1.081-4.398 3.501-8.58 3.365-11.321 2.63a13.355 13.355 0 0 1-4.556-2.242c-5.494-2.71-9.07-8.799-10.344-17.616-.903-6.258-.37-11.867-.346-12.103a.685.685 0 0 1 .748-.614l3.165.315.025.002h.001l3.189.315a.684.684 0 0 1 .613.756c-.028.303-.45 5.104.32 10.329.644 4.362 2.259 9.94 6.299 11.746l.189.085c.286.127.548.304.774.523.039.037.078.072.121.104.27.204 1.005.703 1.982.927 1.491.343 2.968-.12 4.51-1.417l.245-.208a.717.717 0 0 1 .113-.077l.282-.154c.29-.158 7.139-3.825 13.842-1.841 3.476 1.027 6.231 3.288 8.189 6.72l.364.634c1.022 1.77 1.987 3.443 2.356 5.752.152.95.168 1.986.183 2.988.04 2.655.077 5.164 2.466 6.249 2.436 1.108 5.99.77 10.277-.974 1.934-1.236 11.383-7.344 21.165-14.955 18.344-14.272 22.365-21.639 23.13-24.76l.026-.101c.028-.119.74-3.095-.727-5.182-2.079-2.96-5.865-2.815-9.87-2.659-3.558.139-7.237.28-10.086-1.723-3.329-2.34-4.013-4.998-4.001-6.814.02-2.99 1.974-6.103 5.227-8.327.274-.187.567-.335.873-.44.753-.26 1.631-.506 2.56-.766 2.487-.698 5.305-1.488 6.62-2.763.361-.35.47-.894.275-1.385-.886-2.24-3.908-4.276-6.115-5.761l-.364-.245c-6.957-4.703-18.447-10.021-34.15-15.807-1.052-.314-10.963-3.173-22.158-2.94-14.847.307-24.755 5.756-29.448 16.195a.683.683 0 0 1-.904.343L.403 21.7a.686.686 0 0 1-.343-.904C6.025 7.528 18.662.34 36.605.012c12.973-.235 24.1 3.178 24.567 3.323l.172.058c16.429 6.049 28.544 11.689 36.026 16.77 6.627 4.499 9.892 8.745 9.984 12.98.1 4.555-3.489 7.283-5.625 8.176-.051.02-.094.038-.131.051-.915.346-1.878.624-2.898.919-2.735.79-5.564 1.609-7.18 3.729l-.034.044.07.05c1.327.919 2.978 1.424 4.65 1.424h.015c.602 0 1.21-.008 1.822-.016 5.747-.067 12.26-.148 16.168 5.507 3.381 4.893 2.112 10.51 1.824 11.586-1.053 4.244-4.257 9.107-9.793 14.853-4.123 4.28-9.554 9.047-16.142 14.17-10.965 8.528-21.58 15.256-22.027 15.538l-.227.143a.622.622 0 0 1-.1.052l-.244.103c-3.74 1.567-7.183 2.351-10.3 2.351" fill="#1B282C" mask="url(#8655fc5mfb)"/>
        </g>
        <path d="m50.994 97.436-3.51.217c-1.946.12-3.637-1.38-3.757-3.333l-.015-.232c-.12-1.953 1.376-3.65 3.323-3.77l3.509-.216c1.947-.12 3.638 1.38 3.758 3.333l.014.231c.12 1.954-1.375 3.65-3.322 3.77" fill="#E85371"/>
        <path d="M50.764 90.78c-.06 0-.118.001-.178.005L47.077 91a2.874 2.874 0 0 0-2.682 3.046l.014.232c.047.763.39 1.464.966 1.974.574.51 1.313.766 2.067.718l3.51-.216a2.874 2.874 0 0 0 2.682-3.046l-.015-.232a2.86 2.86 0 0 0-.965-1.974 2.837 2.837 0 0 0-1.89-.723zm-3.5 7.564a4.193 4.193 0 0 1-2.798-1.068 4.217 4.217 0 0 1-1.422-2.915l-.014-.23a4.244 4.244 0 0 1 3.963-4.496l3.509-.216a4.197 4.197 0 0 1 3.06 1.06 4.217 4.217 0 0 1 1.423 2.913l.014.232a4.244 4.244 0 0 1-3.963 4.495l-3.51.216a4.25 4.25 0 0 1-.263.009zM67.35 39.672a.685.685 0 0 1-.634-.428L65.59 36.44a.683.683 0 1 1 1.269-.51l1.126 2.802a.685.685 0 0 1-.634.94m-3.553.94a.684.684 0 0 1-.66-.508l-.49-1.832a.684.684 0 0 1 1.323-.353l.488 1.833a.684.684 0 0 1-.661.86m-2.393.864a.684.684 0 0 1-.658-.498l-1.015-3.59a.684.684 0 1 1 1.317-.372l1.015 3.59a.684.684 0 0 1-.659.87m69.512 33.409c-.015 0-.03 0-.044-.002l-3.442-.219a.683.683 0 1 1 .087-1.365l3.441.219a.684.684 0 0 1-.042 1.367m-2.76 6.287a.684.684 0 0 1-.2-1.338l2.967-.905a.684.684 0 0 1 .399 1.309l-2.966.905a.688.688 0 0 1-.2.03m4.644 3.433a.683.683 0 0 1-.485-1.167l2.241-2.247a.685.685 0 0 1 .97.966l-2.241 2.248a.683.683 0 0 1-.485.2m5.312.591a.682.682 0 0 1-.634-.941l.82-2.021a.683.683 0 1 1 1.268.515l-.82 2.02a.685.685 0 0 1-.634.427m-87.946 20.478a.685.685 0 0 1-.15-1.351l3.366-.754a.684.684 0 0 1 .3 1.335l-3.366.754a.675.675 0 0 1-.15.016m1.874 2.241a.684.684 0 0 1-.183-1.343l2.169-.602a.684.684 0 1 1 .366 1.318l-2.169.602a.69.69 0 0 1-.183.025m-.07 2.768a.685.685 0 0 1-.26-1.317L55 108.016a.685.685 0 0 1 .52 1.266l-3.29 1.352a.689.689 0 0 1-.26.051m87.608 3.46a.683.683 0 0 1-.53-.25l-2.323-2.84a.685.685 0 0 1 1.058-.866l2.324 2.839a.685.685 0 0 1-.529 1.117m-2.842.453a.683.683 0 0 1-.531-.253l-1.274-1.568a.684.684 0 0 1 1.062-.863l1.274 1.57a.684.684 0 0 1-.531 1.114m-1.94 3.893a.683.683 0 0 1-.57-.307l-2.025-3.064a.685.685 0 0 1 1.142-.754l2.024 3.064a.685.685 0 0 1-.57 1.061m-3.142.304a.684.684 0 0 1-.577-.316l-1.05-1.644a.685.685 0 0 1 1.154-.736l1.05 1.643a.685.685 0 0 1-.577 1.053m-1.64 3.294a.683.683 0 0 1-.556-.284l-2.099-2.914a.684.684 0 0 1 1.11-.8l2.099 2.914a.684.684 0 0 1-.555 1.084m-9.568 4.951a.683.683 0 0 1-.565-.297l-.974-1.42a.684.684 0 1 1 1.127-.774l.975 1.42a.683.683 0 0 1-.563 1.071m-1.343 2.695a.683.683 0 0 1-.573-.31l-1.8-2.766a.683.683 0 1 1 1.146-.747l1.8 2.766a.684.684 0 0 1-.573 1.057m-3.065.902a.682.682 0 0 1-.573-.309l-1.274-1.943a.683.683 0 1 1 1.143-.75l1.275 1.943a.683.683 0 0 1-.571 1.06m-1.867 2.62a.683.683 0 0 1-.59-.335l-1.724-2.915a.684.684 0 1 1 1.178-.696l1.724 2.914a.684.684 0 0 1-.588 1.032" fill="#1B282C"/>
        <path d="M54.72 116.283s-2.86 11.6.926 13.063c0 0 1.322.617 2.662.66 0 0 3.775 2.727 8.413 1.534 0 0 1.256-17.454 6.278-33.634l-10.418-7.38c-3.391 7.873-7.343 18.044-7.86 25.757" fill="#FAD9C7"/>
        <path d="M62.872 91.532c-3.07 7.17-6.994 17.204-7.505 24.807a.651.651 0 0 1-.018.117c-1.054 4.269-1.847 11.379.51 12.287a.559.559 0 0 1 .043.018c.012.006 1.224.56 2.407.598a.68.68 0 0 1 .378.129c.034.023 3.341 2.343 7.407 1.536.252-2.966 1.728-18.435 6.146-32.872l-9.368-6.62zm1.44 41.037c-3.17 0-5.59-1.421-6.25-1.853-1.312-.09-2.53-.62-2.715-.704-4.154-1.64-1.706-12.328-1.34-13.825.56-8.083 4.798-18.69 7.942-25.972a.684.684 0 0 1 1.023-.288l10.462 7.394a.684.684 0 0 1 .26.761c-4.962 15.948-6.264 33.373-6.277 33.547a.686.686 0 0 1-.512.614c-.903.23-1.773.326-2.592.326z" fill="#1B282C"/>
        <path d="M130.505 41.837s-7.254-6.94-19.348-6.367c0 0 8.457 11.222 6.796 21.69l15.133 5.926c2.718-7.27 3.342-15.27-2.58-21.25" fill="#FAD9C7"/>
        <path d="m118.689 56.744 14.028 5.49c2.984-8.424 2.089-15.126-2.665-19.929-.227-.212-6.804-6.225-17.534-6.225h-.11a45.207 45.207 0 0 1 3.364 6.002c1.727 3.725 3.6 9.242 2.917 14.662m14.431 7.067a.68.68 0 0 1-.25-.047l-15.184-5.944a.684.684 0 0 1-.426-.743c1.602-10.096-6.606-21.126-6.69-21.236a.684.684 0 0 1 .514-1.095c12.288-.58 19.613 6.282 19.92 6.575l.012.013c5.292 5.34 6.215 12.753 2.745 22.032a.686.686 0 0 1-.64.445" fill="#1B282C"/>
        <path d="M65.513 116.333c.142 2.65.486 6.443 1.917 10.13l68.359 2.18s.562-2.66.742-6.84c-37.779-11.05-61.607-7.683-71.018-5.47" fill="#FAD9C7"/>
        <path d="m67.871 125.823 67.39 2.157c.16-.927.46-2.945.601-5.67-35.539-10.351-58.706-7.958-69.673-5.469.159 2.575.522 5.791 1.682 8.982m67.958 3.544h-.023l-68.436-2.192a.685.685 0 0 1-.616-.437c-1.45-3.748-1.811-7.525-1.965-10.396a.684.684 0 0 1 .526-.703c10.91-2.576 34.699-5.286 71.45 5.51a.685.685 0 0 1 .49.685c-.18 4.211-.734 6.878-.758 6.99a.684.684 0 0 1-.668.543" fill="#1B282C"/>
        <path d="m132.465 98.1-6.487-21.95c2.406-3.423 5.271-8.086 7.143-13.097l-15.15-5.933a15.472 15.472 0 0 1-1.091 3.797s-2.18 3.68-4.697 6.645c-2.66-.518-5.752-.716-9.318-.375l-17.919 2.308s-2.399.631-4.616 3.345c-4.273.734-9.625 2.797-13.216 7.962a9.095 9.095 0 0 0-.713 1.246 222.109 222.109 0 0 0-3.86 8.48l8.62 6.107a24.621 24.621 0 0 0-.178 1.586s-6.059 3.453-6.839 15.903c0 0-.083 1.02 0 2.542 9.264-2.179 35.038-5.423 71.852 4.986.97.275 1.929-.45 1.931-1.458.014-5.559-.872-13.523-4.69-20.312a8.627 8.627 0 0 1-.772-1.782" fill="#00AE83"/>
        <path d="M87.216 113.705c12.335 0 28.892 1.613 48.966 7.289a.828.828 0 0 0 1.06-.801c.012-4.385-.571-12.809-4.602-19.976a9.214 9.214 0 0 1-.83-1.923l-6.488-21.951a.682.682 0 0 1 .097-.587c2.078-2.956 4.908-7.443 6.82-12.313l-13.744-5.383a15.977 15.977 0 0 1-.988 3.131.774.774 0 0 1-.038.075c-.09.152-2.24 3.765-4.764 6.738a.684.684 0 0 1-.652.23c-2.831-.552-5.901-.675-9.123-.366l-17.843 2.298c-.286.09-2.333.788-4.228 3.107a.683.683 0 0 1-.414.24c-3.85.663-9.192 2.533-12.77 7.68-.224.322-.44.7-.658 1.152a222.796 222.796 0 0 0-3.629 7.945l8.168 5.787c.21.148.318.401.281.655a24.429 24.429 0 0 0-.173 1.542.683.683 0 0 1-.343.54c-.054.033-5.75 3.483-6.495 15.353 0 .017-.05.653-.03 1.65 3.779-.83 11.42-2.112 22.42-2.112m49.201 8.69c-.202 0-.406-.027-.607-.084-39.047-11.042-64.607-6.603-71.51-4.98a.685.685 0 0 1-.84-.63c-.083-1.55-.002-2.589.002-2.632.7-11.18 5.56-15.32 6.868-16.239.026-.284.059-.577.097-.877l-8.282-5.867a.683.683 0 0 1-.233-.829 224.013 224.013 0 0 1 3.873-8.507c.25-.517.5-.956.767-1.339 3.771-5.424 9.325-7.457 13.413-8.201 2.284-2.688 4.703-3.35 4.807-3.377a.692.692 0 0 1 .087-.016l17.918-2.308c3.224-.31 6.29-.205 9.139.307 2.213-2.673 4.132-5.842 4.355-6.212a14.91 14.91 0 0 0 1.025-3.59.684.684 0 0 1 .925-.53l15.15 5.932a.684.684 0 0 1 .39.877c-1.903 5.099-4.838 9.826-7.033 12.978l6.393 21.635c.158.534.39 1.07.711 1.64 4.185 7.441 4.79 16.131 4.78 20.65a2.188 2.188 0 0 1-.876 1.755 2.18 2.18 0 0 1-1.319.445" fill="#1B282C"/>
        <path d="M72.388 55.014a7.129 7.129 0 1 1-13.857 3.354 7.129 7.129 0 0 1 13.857-3.354" fill="#FAD9C7"/>
        <path d="M62.09 57.4a.684.684 0 0 1-.024-1.367l3.553-.132c.372-.032.695.28.709.658a.684.684 0 0 1-.658.709l-3.553.132h-.026m3.369-7.195a6.494 6.494 0 0 0-6.303 8.012 6.491 6.491 0 0 0 7.828 4.777 6.493 6.493 0 0 0 4.778-7.829c-.717-2.965-3.379-4.96-6.303-4.96m0 14.34c-3.542 0-6.764-2.416-7.634-6.007-1.018-4.208 1.577-8.462 5.787-9.48 4.205-1.02 8.462 1.576 9.48 5.786 1.018 4.208-1.577 8.461-5.786 9.48a7.844 7.844 0 0 1-1.847.221" fill="#1B282C"/>
        <path d="m116.874 46.365-5.96-12.039c-3.909-8.067-15.275-11.725-25.881-9.172l-.035.008-.314.076-.035.008c-10.6 2.58-19.035 11.03-18.822 19.992l.204 13.432c.312 13.087 13.55 22.53 29.51 18.668l1.62-.392.384-.093 1.62-.392c15.96-3.863 23.416-18.315 17.709-30.096" fill="#FAD9C7"/>
        <path d="M91.869 24.981c-2.191 0-4.442.258-6.688.799l-.05.011-.298.073c-10.683 2.6-18.563 10.915-18.362 19.35l.204 13.457c.135 5.663 2.75 10.736 7.364 14.279 5.62 4.314 13.4 5.685 21.347 3.762l3.628-.878c7.947-1.923 14.24-6.7 17.264-13.106 2.483-5.26 2.49-10.965.019-16.07l-5.968-12.053c-2.907-5.998-10.254-9.624-18.46-9.624m-3.458 53.95c-5.697 0-11.011-1.676-15.205-4.896-4.949-3.8-7.754-9.247-7.899-15.337l-.204-13.458c-.215-9.057 8.113-17.957 19.373-20.697l.35-.085.043-.01c11.258-2.71 22.736 1.397 26.688 9.555l5.967 12.05.003.006c2.656 5.484 2.652 11.612-.012 17.253-3.202 6.782-9.828 11.83-18.179 13.852l-3.629.878c-2.462.596-4.913.89-7.296.89" fill="#1B282C"/>
        <path d="M79.823 54.191a2.139 2.139 0 1 1-4.158 1.006 2.139 2.139 0 0 1 4.158-1.006M92.188 51.199a2.139 2.139 0 1 1-4.157 1.006 2.139 2.139 0 0 1 4.157-1.006M87.524 74.644c-1.407 0-2.807-.29-4.078-.895a.684.684 0 1 1 .588-1.235c3.308 1.576 7.634.668 10.063-2.113a.685.685 0 0 1 1.031.9c-1.886 2.158-4.759 3.343-7.604 3.343" fill="#1B282C"/>
        <path d="M105.992 56.815a6.306 6.306 0 1 1-12.258 2.967 6.306 6.306 0 0 1 12.258-2.967M76.485 63.782a6.307 6.307 0 0 0-10.31-3.237c.511 4.211 2.381 7.971 5.25 10.928.138-.024.276-.045.414-.078a6.306 6.306 0 0 0 4.646-7.613" fill="#F3B1B5"/>
        <path d="M91.869 24.981c-2.191 0-4.442.258-6.688.799l-.05.011-.298.073c-10.683 2.6-18.563 10.915-18.362 19.35l.204 13.457c.135 5.663 2.75 10.736 7.364 14.279 5.62 4.314 13.4 5.685 21.347 3.762l3.628-.878c7.947-1.923 14.24-6.7 17.264-13.106 2.483-5.26 2.49-10.965.019-16.07l-5.968-12.053c-2.907-5.998-10.254-9.624-18.46-9.624m-3.458 53.95c-5.697 0-11.011-1.676-15.205-4.896-4.949-3.8-7.754-9.247-7.899-15.337l-.204-13.458c-.215-9.057 8.113-17.957 19.373-20.697l.35-.085.043-.01c11.258-2.71 22.736 1.397 26.688 9.555l5.967 12.05.003.006c2.656 5.484 2.652 11.612-.012 17.253-3.202 6.782-9.828 11.83-18.179 13.852l-3.629.878c-2.462.596-4.913.89-7.296.89" fill="#1B282C"/>
        <path d="M85.407 43.268s1.316-3.36 4.011-1.33" fill="#FAD9C7"/>
        <path d="M85.407 43.951a.684.684 0 0 1-.637-.932c.03-.077.753-1.882 2.304-2.321.886-.251 1.812-.017 2.755.694a.684.684 0 0 1-.822 1.093c-.582-.438-1.104-.599-1.557-.472-.743.208-1.268 1.158-1.407 1.507a.686.686 0 0 1-.636.431" fill="#1B282C"/>
        <path d="M74.212 45.583s1.316-3.36 4.011-1.33" fill="#FAD9C7"/>
        <path d="M74.212 46.266a.686.686 0 0 1-.637-.933c.03-.076.753-1.88 2.303-2.32.885-.251 1.813-.018 2.757.694a.684.684 0 1 1-.823 1.092c-.583-.438-1.107-.596-1.557-.471-.743.208-1.267 1.158-1.406 1.506a.686.686 0 0 1-.637.432" fill="#1B282C"/>
        <path d="m87.935 38.39-.836-4.632c-1.774 3.007-2.656 5.735-6.13 6.014 1.224-.78-.635-3.15-1.178-4.5-.317 3.431-4.276 5.071-7.59 5.99-3.315.917-7.272 2.573-7.57 6.005-2.52-5.375-1.143-12.039 2.439-16.77 3.582-4.73 9.047-7.73 14.707-9.49 3.542-1.102 7.369-1.767 10.944-.781 1.172.323 2.307.821 3.516.947 1.071.111 2.148-.075 3.223-.135 5.177-.287 10.312 2.554 13.185 6.878 2.874 4.325 3.549 9.94 2.205 14.958-3.035-4.646-3.971 2.886-9.015 1.654-7.542-1.843-7.582-11.995-10.514-9.652-.008.007-7.08 5.21-7.386 3.515" fill="#1B282C"/>
        <path d="M88.991 20.653c-2.035 0-4.31.405-6.943 1.225-6.253 1.944-11.181 5.115-14.25 9.17-3.049 4.024-4.192 9.192-3.142 13.537 1.83-2.688 5.782-3.782 7.301-4.202 4.451-1.234 6.717-2.933 6.926-5.194a.912.912 0 0 1 1.754-.257c.118.295.33.682.554 1.092.4.733.91 1.667 1.058 2.537 1.47-.594 2.23-1.971 3.266-3.851.252-.459.514-.934.798-1.415a.912.912 0 0 1 1.683.301l.753 4.168c1.108-.32 3.842-2.01 6.032-3.622.55-.441 1.144-.612 1.73-.488 1.167.248 1.816 1.498 2.714 3.228 1.276 2.46 3.024 5.83 6.827 6.76 1.898.463 3.07-.63 4.204-1.686.87-.811 1.769-1.652 2.936-1.509.399.05.778.206 1.149.482.75-4.435-.127-9.003-2.456-12.508-2.787-4.194-7.649-6.73-12.374-6.472a25.67 25.67 0 0 0-.933.074c-.785.07-1.596.145-2.435.057-.919-.096-1.767-.373-2.587-.64-.358-.118-.716-.235-1.078-.335-1.09-.3-2.244-.452-3.487-.452zM64.63 48.18a.913.913 0 0 1-.826-.525c-2.524-5.388-1.527-12.338 2.539-17.707 3.3-4.36 8.544-7.753 15.164-9.812 4.59-1.427 8.23-1.678 11.456-.788.39.107.775.232 1.16.358.762.25 1.483.485 2.208.56.665.07 1.353.007 2.082-.06.332-.03.664-.059.996-.078 5.37-.3 10.857 2.562 13.996 7.285 2.914 4.386 3.784 10.255 2.325 15.698a.91.91 0 0 1-1.644.263c-.645-.988-1.016-1.103-1.115-1.115-.326-.044-.932.53-1.471 1.033-1.277 1.19-3.026 2.822-5.88 2.123-4.609-1.126-6.659-5.077-8.015-7.692-.451-.87-1.133-2.185-1.472-2.283.001.003-.081.021-.242.15-2.89 2.13-6.609 4.524-8.058 3.947a1.279 1.279 0 0 1-.795-.983l-.386-2.136c-1.221 2.15-2.578 4.02-5.61 4.265a.912.912 0 0 1-.564-1.678c.06-.214-.221-.835-.509-1.395-1.727 2.925-5.944 4.093-7.525 4.532-4.449 1.231-6.708 2.934-6.905 5.205a.911.911 0 0 1-.91.833zM84.056 58.161a2.407 2.407 0 0 1-2.339-1.818 2.348 2.348 0 0 1 .279-1.793 2.388 2.388 0 0 1 1.495-1.083.684.684 0 1 1 .318 1.33c-.273.066-.502.23-.645.466a.984.984 0 0 0-.118.754c.134.544.699.88 1.255.747a.684.684 0 1 1 .317 1.33 2.405 2.405 0 0 1-.562.067" fill="#1B282C"/>
        <path d="m88.288 69.554-.868.33a3.32 3.32 0 0 1-4.272-1.906l-1.25-3.266a3.313 3.313 0 0 1 1.909-4.267l.868-.331a3.32 3.32 0 0 1 4.272 1.907l1.25 3.266a3.313 3.313 0 0 1-1.91 4.267" fill="#E85371"/>
        <path d="M85.853 60.58a2.61 2.61 0 0 0-.934.173l-.868.33a2.605 2.605 0 0 0-1.456 1.381 2.599 2.599 0 0 0-.058 2.003l1.25 3.267a2.628 2.628 0 0 0 3.388 1.512l.869-.331a2.604 2.604 0 0 0 1.455-1.38 2.598 2.598 0 0 0 .06-2.003l-1.25-3.267a2.63 2.63 0 0 0-2.456-1.685m.39 10.208a4 4 0 0 1-3.734-2.565l-1.25-3.267a3.956 3.956 0 0 1 .087-3.05 3.964 3.964 0 0 1 2.217-2.1l.868-.331a3.999 3.999 0 0 1 5.155 2.301l1.25 3.267c.38.992.349 2.075-.088 3.05a3.964 3.964 0 0 1-2.216 2.1l-.868.331a3.982 3.982 0 0 1-1.421.264" fill="#1B282C"/>
        <path d="M112.078 55.666a7.129 7.129 0 0 0 2.377-12.793c-2.412-1.666-5.726-1.07-7.54 1.231l-1.148 1.455" fill="#FAD9C7"/>
        <path d="M110.18 49.41a.683.683 0 0 1-.29-1.303l3.225-1.508a.684.684 0 0 1 .58 1.24l-3.226 1.507a.674.674 0 0 1-.289.065m1.9 6.98a.684.684 0 0 1-.16-1.35 6.45 6.45 0 0 0 4.016-2.925 6.439 6.439 0 0 0 .768-4.905 6.475 6.475 0 0 0-2.618-3.81c-2.106-1.453-5.034-.97-6.667 1.1l-1.155 1.462a.683.683 0 1 1-1.074-.847l1.155-1.463c2.08-2.635 5.821-3.239 8.518-1.378a7.842 7.842 0 0 1 3.171 4.614 7.799 7.799 0 0 1-.93 5.94 7.81 7.81 0 0 1-4.862 3.543.706.706 0 0 1-.161.019M134.773 149.708s3.244-14.498 1.055-21.101l-68.438-2.184s-1.423 5.526 1.62 9.37l-1.327 15.242 28.243 7.765 1.437-9.42s4.527 2.45 7.385 3.117l2.178 7.488 28.876-3.399-1.03-6.878z" fill="#1B282C"/>
        <path d="M97.363 148.695c.112 0 .224.028.326.083.044.023 4.48 2.414 7.214 3.053.241.056.433.237.502.475l2.017 6.932 27.599-3.249-.925-6.18a.687.687 0 0 1 .009-.25c.031-.14 3.034-13.738 1.212-20.284l-67.371-2.15c-.246 1.42-.664 5.384 1.6 8.243.11.137.161.31.146.484l-1.278 14.674 26.952 7.41 1.321-8.66a.683.683 0 0 1 .676-.581m9.563 11.974c-.3 0-.57-.199-.657-.493l-2.068-7.112c-2.142-.58-4.921-1.928-6.306-2.635l-1.293 8.474a.684.684 0 0 1-.857.556l-28.243-7.765a.683.683 0 0 1-.5-.718l1.304-14.978c-3-4.044-1.639-9.51-1.578-9.746a.66.66 0 0 1 .684-.513l68.438 2.184c.287.01.537.196.628.469 2.138 6.451-.674 19.804-1.01 21.34l1.01 6.753a.68.68 0 0 1-.596.78l-28.875 3.399a.609.609 0 0 1-.081.005" fill="#1B282C"/>
        <path d="m64.951 182.508-7.48 8.72s-5.672 6.178 5.276 6.239l27.755-2.87 1.363-8.954-26.864-3.708-.05.573z" fill="#287B96"/>
        <path d="M65.605 182.71a.68.68 0 0 1-.134.244l-7.481 8.72c-.508.558-1.68 2.21-1.183 3.344.488 1.116 2.585 1.742 5.907 1.764l27.191-2.812 1.18-7.744-25.48-3.517zm-2.858 15.44h-.004c-4.09-.022-6.442-.869-7.191-2.586-.952-2.184 1.318-4.692 1.415-4.798l7.322-8.536.03-.354a.684.684 0 0 1 .776-.619l26.864 3.708a.687.687 0 0 1 .583.78l-1.364 8.954a.685.685 0 0 1-.606.578l-27.755 2.87a.916.916 0 0 1-.07.004z" fill="#1B282C"/>
        <g>
            <path fill="#FEFEFE" d="m64.981 181.993 26.88 3.711 1.157-7.598-27.222-5.489z"/>
            <path d="m65.72 181.404 25.567 3.53.957-6.287-25.832-5.208-.693 7.965zm26.142 4.984a.735.735 0 0 1-.094-.006l-26.88-3.711a.684.684 0 0 1-.588-.737l.815-9.376a.684.684 0 0 1 .817-.612l27.222 5.489a.685.685 0 0 1 .54.773l-1.156 7.599a.685.685 0 0 1-.676.581z" fill="#1B282C"/>
            <path fill="#FAD9C7" d="m65.834 172.658 27.144 5.454 2.955-19.35-28.21-7.746z"/>
            <path d="m66.529 172.132 25.913 5.209 2.763-18.098-26.908-7.39-1.768 20.279zm26.481 6.704a.716.716 0 0 1-.135-.013l-27.216-5.47a.684.684 0 0 1-.546-.73l1.893-21.706a.682.682 0 0 1 .863-.6l28.285 7.769c.335.091.548.42.495.763l-2.963 19.407a.685.685 0 0 1-.676.58z" fill="#1B282C"/>
            <path fill="#FAD9C7" d="m135.762 156.554-28.841 3.39 5.557 19.076 25.964-4.586z"/>
            <path d="m107.763 160.501 5.174 17.779 24.77-4.38-2.49-16.63-27.454 3.231zm4.688 19.243c-.3 0-.57-.197-.656-.493l-5.572-19.143a.683.683 0 0 1 .577-.87l28.916-3.403a.68.68 0 0 1 .757.577l2.686 17.945a.684.684 0 0 1-.558.775l-26.03 4.602a.712.712 0 0 1-.12.01z" fill="#1B282C"/>
        </g>
        <g>
            <path d="m148.66 192.12-8.817-9.13-24.859 4.757 1.645 5.661 26.934 4.908s7.495-.05 5.097-6.196" fill="#287B96"/>
            <path d="m117.168 192.811 26.449 4.82c.444-.016 3.306-.179 4.401-1.798.554-.819.571-1.942.053-3.338l-8.463-8.762-23.757 4.545 1.317 4.533zM143.563 199a.69.69 0 0 1-.122-.01l-26.934-4.909a.683.683 0 0 1-.535-.481l-1.645-5.662a.682.682 0 0 1 .529-.863l24.859-4.756a.689.689 0 0 1 .62.197l8.817 9.129a.69.69 0 0 1 .145.226c.742 1.902.692 3.494-.148 4.733-1.59 2.343-5.42 2.395-5.581 2.396h-.005z" fill="#1B282C"/>
        </g>
        <g>
            <path fill="#FEFEFE" d="m139.753 182.926-1.275-8.533-26.04 4.614 2.554 8.795 24.873-4.759z"/>
            <path d="m113.307 179.548 2.168 7.465 23.525-4.5-1.095-7.323-24.598 4.358zm1.684 8.938a.684.684 0 0 1-.656-.493l-2.555-8.795a.683.683 0 0 1 .538-.864l26.041-4.614a.68.68 0 0 1 .796.573l1.243 8.321a.682.682 0 0 1-.404 1.101l-24.873 4.76a.7.7 0 0 1-.13.011z" fill="#1B282C"/>
        </g>
        <g>
            <path d="M80.393 6.759s-7.46 1.407-11.98-5.076c0 0-4.135 11.218-11.382 6.186 0 0 .085 7.763-5.755 10.194 0 0 6.181 2.772 2.174 8.403" fill="#FAD17F"/>
            <path d="M53.45 27.15a.684.684 0 0 1-.557-1.08c1.069-1.503 1.44-2.898 1.103-4.148-.569-2.11-2.977-3.224-3.002-3.236a.685.685 0 0 1 .019-1.255c5.337-2.221 5.334-9.483 5.334-9.556a.684.684 0 0 1 1.074-.569c1.586 1.102 3.122 1.43 4.563.977 3.645-1.147 5.766-6.78 5.787-6.837a.685.685 0 0 1 1.203-.154C73.176 7.321 79.98 6.14 80.268 6.086a.684.684 0 0 1 .252 1.344c-.075.015-7.184 1.277-11.939-4.402-.88 1.874-2.964 5.544-6.182 6.559-1.546.486-3.14.304-4.75-.541a16.1 16.1 0 0 1-.654 3.214c-.835 2.646-2.309 4.643-4.3 5.848.934.654 2.17 1.793 2.62 3.447.452 1.667.013 3.453-1.308 5.308a.682.682 0 0 1-.557.287M69.594 100.035a.682.682 0 0 1-.476-1.174c.13-.126 3.3-3.106 12.022-4.617a.683.683 0 1 1 .234 1.347c-8.248 1.43-11.279 4.228-11.308 4.257a.686.686 0 0 1-.472.187M58.27 130.727a.683.683 0 0 1-.577-.316c-1.3-2.032-.501-5.954-.406-6.395a.683.683 0 1 1 1.337.29c-.225 1.045-.624 4.046.222 5.368a.685.685 0 0 1-.576 1.053m3.237.875a.684.684 0 0 1-.67-.546c-.407-1.968.148-5.676.172-5.833a.69.69 0 0 1 .779-.573c.373.057.63.405.574.779-.006.036-.543 3.622-.185 5.35a.684.684 0 0 1-.67.823m3.997.898a.685.685 0 0 1-.669-.546c-.4-1.932-.223-5.807-.215-5.971a.684.684 0 0 1 1.367.064c-.002.039-.177 3.867.188 5.63a.684.684 0 0 1-.67.823" fill="#1B282C"/>
            <path d="M70.974 98.25s1.607-8.65 2.408-11.106" fill="#FAD17F"/>
            <path d="M70.975 98.934a.684.684 0 0 1-.674-.809c.066-.355 1.625-8.723 2.43-11.193a.683.683 0 1 1 1.301.424c-.778 2.385-2.37 10.933-2.386 11.019a.684.684 0 0 1-.671.56" fill="#1B282C"/>
            <path d="M148.98 97.821c-2.761 4.246-8.674 10.846-21.196 20.596-9.969 7.762-19.684 14.025-21.27 15.038-4.494 1.841-8.251 2.184-10.877.989-3.79-1.723-2.499-6.36-3.042-9.762-.39-2.442-1.465-4.099-2.639-6.16-1.867-3.275-4.485-5.43-7.788-6.408-6.441-1.907-13.043 1.635-13.32 1.787l-.283.154-.247.208c-1.716 1.446-3.385 1.957-5.102 1.562a6.169 6.169 0 0 1-2.241-1.048 1.98 1.98 0 0 1-.185-.159 2.008 2.008 0 0 0-.578-.391l-.188-.085c-4.325-1.934-6.029-7.747-6.697-12.282-.795-5.395-.338-10.362-.324-10.509l-6.38-.636c-.023.232-.554 5.74.343 11.949 1.245 8.637 4.705 14.55 10.03 17.145a12.642 12.642 0 0 0 4.37 2.167c2.62.703 6.59.813 10.779-2.555.966-.464 4.842-2.15 8.204-1.155 2.85.844 3.815 3.608 5.049 6.006 1.315 2.555.297 4.719.506 7.475.28 3.675 3.528 6.777 6.65 8.333.087.044.174.086.263.128 4.43 2.09 9.954 1.775 16.42-.936l.244-.103.225-.142c.108-.068 10.883-6.881 21.974-15.514 6.562-5.107 11.97-9.857 16.07-14.117 4.183-4.346 7.005-8.162 8.558-11.575" fill="#FEFEFE"/>
            <path d="M99.202 142.255c-2.428 0-4.658-.475-6.677-1.429a11.16 11.16 0 0 1-.278-.135c-3.044-1.517-6.711-4.757-7.025-8.892-.077-1.022.003-1.944.08-2.835.134-1.554.251-2.895-.513-4.38a53.594 53.594 0 0 1-.503-1.011c-1.008-2.06-1.96-4.008-4.132-4.65-3.082-.913-6.767.67-7.644 1.082-4.399 3.504-8.582 3.366-11.322 2.631a13.347 13.347 0 0 1-4.555-2.243c-5.496-2.712-9.072-8.806-10.344-17.632-.91-6.3-.37-11.88-.346-12.114a.682.682 0 0 1 .748-.612l6.38.636c.374.037.648.37.613.744-.02.204-.46 5.051.32 10.346.644 4.366 2.259 9.95 6.3 11.757l.188.085c.287.128.548.305.773.523.04.038.079.073.122.105a5.46 5.46 0 0 0 1.983.928c1.491.344 2.967-.121 4.507-1.42l.248-.207a.639.639 0 0 1 .111-.076l.283-.155c.29-.158 7.13-3.831 13.843-1.844 3.477 1.03 6.232 3.293 8.188 6.727l.364.633c1.022 1.772 1.988 3.446 2.357 5.758.152.95.167 1.988.183 2.99.04 2.659.077 5.17 2.466 6.256 2.437 1.11 5.99.771 10.277-.976 1.936-1.237 11.39-7.355 21.166-14.967 10.429-8.12 17.509-14.994 21.044-20.43a.684.684 0 0 1 1.147.746c-3.618 5.564-10.802 12.55-21.35 20.763-9.916 7.721-19.502 13.912-21.322 15.075a.703.703 0 0 1-.11.056c-4.67 1.914-8.619 2.251-11.418.978-3.177-1.445-3.226-4.651-3.269-7.48-.015-.998-.03-1.941-.166-2.796-.328-2.062-1.191-3.558-2.19-5.29l-.367-.639c-1.776-3.116-4.262-5.166-7.388-6.092-6.175-1.828-12.53 1.586-12.798 1.732l-.223.122-.194.164c-1.892 1.594-3.756 2.15-5.696 1.705a6.887 6.887 0 0 1-2.5-1.17 2.595 2.595 0 0 1-.249-.213 1.321 1.321 0 0 0-.381-.258l-.189-.085c-4.606-2.059-6.4-8.1-7.094-12.806-.64-4.354-.48-8.422-.38-9.994l-5.022-.501c-.117 1.667-.32 6.15.395 11.101 1.21 8.39 4.547 14.14 9.653 16.628a.72.72 0 0 1 .12.074 11.927 11.927 0 0 0 4.127 2.047c2.446.656 6.199.769 10.173-2.427a.659.659 0 0 1 .133-.084c1.139-.546 5.13-2.248 8.694-1.194 2.747.814 3.93 3.23 4.972 5.362.163.331.324.662.491.986.944 1.835.799 3.507.659 5.124-.073.837-.148 1.702-.078 2.614.27 3.563 3.547 6.413 6.271 7.771.084.042.167.083.251.122 4.246 2.004 9.583 1.685 15.863-.948l.192-.081.177-.112c.442-.28 10.977-6.958 21.92-15.475 6.537-5.088 11.92-9.816 15.997-14.052 4.145-4.306 6.902-8.03 8.427-11.383a.685.685 0 0 1 1.245.567c-1.59 3.496-4.432 7.345-8.686 11.765-4.123 4.283-9.554 9.055-16.143 14.183-10.995 8.557-21.584 15.27-22.03 15.552l-.224.142a.663.663 0 0 1-.1.052l-.244.103c-3.74 1.568-7.184 2.353-10.301 2.353" fill="#1B282C"/>
            <path fill="#FEFEFE" d="m49.81 91.033 3.269.394v.004z"/>
            <path d="M53.078 92.115a.7.7 0 0 1-.082-.005l-3.268-.398a.684.684 0 0 1 .165-1.358h.002l3.266.394a.684.684 0 0 1 .371 1.193.687.687 0 0 1-.454.174" fill="#1B282C"/>
            <path d="m50.994 97.436-3.51.217c-1.946.12-3.637-1.38-3.757-3.333l-.015-.232c-.12-1.953 1.376-3.65 3.323-3.77l3.509-.216c1.947-.12 3.638 1.38 3.758 3.333l.014.231c.12 1.954-1.375 3.65-3.322 3.77" fill="#E85371"/>
            <path d="M50.764 90.78c-.06 0-.118.001-.178.005L47.077 91a2.874 2.874 0 0 0-2.682 3.046l.014.232c.047.763.39 1.464.966 1.974.574.51 1.313.766 2.067.718l3.51-.216a2.874 2.874 0 0 0 2.682-3.046l-.015-.232a2.86 2.86 0 0 0-.965-1.974 2.837 2.837 0 0 0-1.89-.723zm-3.5 7.564a4.193 4.193 0 0 1-2.798-1.068 4.217 4.217 0 0 1-1.422-2.915l-.014-.23a4.244 4.244 0 0 1 3.963-4.496l3.509-.216a4.197 4.197 0 0 1 3.06 1.06 4.217 4.217 0 0 1 1.423 2.913l.014.232a4.244 4.244 0 0 1-3.963 4.495l-3.51.216a4.25 4.25 0 0 1-.263.009z" fill="#1B282C"/>
        </g>
        <path d="M50.167 105.62a.685.685 0 0 1-.15-1.351l3.366-.755a.685.685 0 0 1 .3 1.335l-3.366.755c-.05.011-.1.017-.15.017m1.873 2.246a.685.685 0 0 1-.182-1.344l2.169-.603a.685.685 0 0 1 .366 1.319l-2.169.603a.692.692 0 0 1-.184.025m-.07 2.773a.685.685 0 0 1-.26-1.317L55 107.97a.683.683 0 1 1 .52 1.265l-3.29 1.354a.68.68 0 0 1-.26.052m87.609 3.467a.685.685 0 0 1-.531-.251l-2.324-2.845a.684.684 0 1 1 1.06-.866l2.324 2.845a.685.685 0 0 1-.53 1.117m-2.842.454a.683.683 0 0 1-.533-.253l-1.273-1.573a.685.685 0 0 1 1.063-.861l1.274 1.572a.685.685 0 0 1-.531 1.115m-1.94 3.9a.683.683 0 0 1-.57-.307l-2.025-3.07a.684.684 0 1 1 1.142-.753l2.024 3.07a.684.684 0 0 1-.57 1.06m-3.142.305a.682.682 0 0 1-.577-.317l-1.05-1.647a.684.684 0 1 1 1.154-.735l1.05 1.648a.683.683 0 0 1-.577 1.051m-1.64 3.3a.683.683 0 0 1-.557-.284l-2.098-2.92a.685.685 0 0 1 1.11-.799l2.1 2.92a.684.684 0 0 1-.556 1.084m-9.568 4.96a.683.683 0 0 1-.565-.297l-.974-1.423a.684.684 0 1 1 1.129-.773l.974 1.423a.684.684 0 0 1-.564 1.07m-1.343 2.7a.683.683 0 0 1-.574-.31l-1.799-2.77a.684.684 0 1 1 1.148-.746l1.799 2.77a.684.684 0 0 1-.574 1.057m-3.066.905a.683.683 0 0 1-.572-.31l-1.275-1.947a.684.684 0 1 1 1.145-.75l1.274 1.948a.684.684 0 0 1-.572 1.059m-1.865 2.625a.682.682 0 0 1-.59-.336l-1.725-2.92a.684.684 0 1 1 1.177-.696l1.726 2.92a.683.683 0 0 1-.588 1.032" fill="#1B282C"/>
    </g>
</svg>
