<svg width="200" height="200" viewBox="0 0 200 200" xmlns="http://www.w3.org/2000/svg" xmlns:xlink="http://www.w3.org/1999/xlink">
    <defs>
        <path id="oasqimqowa" d="M0 0h51.89v57.058H0z"/>
        <path id="1xdnq8n9hc" d="M0 0h33.036v37.078H0z"/>
        <path id="285wbknime" d="M0 0h10.94v11.737H0z"/>
        <path d="M167 17c11.046 0 20 8.954 20 20v128c0 11.046-8.954 20-20 20H34c-11.046 0-20-8.954-20-20V37c0-11.046 8.954-20 20-20h133zm0 6H34c-7.628 0-13.83 6.1-13.997 13.687L20 37v128c0 7.627 6.1 13.83 13.687 13.997L34 179h133c7.627 0 13.83-6.1 13.997-13.687L181 165V37c0-7.628-6.1-13.83-13.687-13.997L167 23zm-44.747 12.215a4 4 0 0 1 .15 5.497l-.15.16-20 20a4 4 0 0 1-5.498.15l-.16-.15L84.24 48.515a4 4 0 0 1 5.497-5.808l.16.151 9.527 9.528 17.173-17.171a4 4 0 0 1 5.657 0z" id="ll2a7ka2ag"/>
        <filter x="-.6%" y="-.6%" width="101.2%" height="101.2%" filterUnits="objectBoundingBox" id="dxvhqj2ach">
            <feGaussianBlur stdDeviation=".5" in="SourceAlpha" result="shadowBlurInner1"/>
            <feOffset dy="1" in="shadowBlurInner1" result="shadowOffsetInner1"/>
            <feComposite in="shadowOffsetInner1" in2="SourceAlpha" operator="arithmetic" k2="-1" k3="1" result="shadowInnerInner1"/>
            <feColorMatrix values="0 0 0 0 0 0 0 0 0 0 0 0 0 0 0 0 0 0 0.1 0" in="shadowInnerInner1"/>
        </filter>
    </defs>
    <g fill="none" fill-rule="evenodd">
        <path d="M92.652 100.772s5.83 7.236 15.478 3.417l8.644 1.608s6.433 1.005 6.433 8.443l-5.026 41.811-45.63-3.618 8.844-46.234s.402-6.433 8.644-5.628l2.613.2z" fill="#8FB3DC"/>
        <path d="m73.067 152.04 44.733 3.546 4.976-41.398c-.003-6.912-5.822-7.923-6.07-7.963l-8.533-1.588c-8.984 3.485-14.811-2.423-15.731-3.447l-2.436-.187c-2.671-.26-4.753.227-6.194 1.449-1.814 1.538-1.983 3.753-1.985 3.775l-8.76 45.812zm45.115 4.445c-.012 0-.024 0-.035-.002l-45.63-3.618a.432.432 0 0 1-.393-.513l8.845-46.235c0-.05.177-2.534 2.27-4.317 1.629-1.386 3.933-1.945 6.842-1.661l2.604.2c.12.01.23.068.304.16.232.286 5.756 6.938 14.981 3.287a.44.44 0 0 1 .24-.024l8.644 1.609c.055.008 6.787 1.149 6.787 8.869l-5.03 41.863a.434.434 0 0 1-.429.382z" fill="#1B282C"/>
        <path fill="#1B282C" d="m77.747 146.01-5.68 25.419h42.88v-25.42z"/>
        <path d="M72.566 171.03h41.982v-24.622H78.066l-5.5 24.622zm42.38.798H72.069a.398.398 0 0 1-.39-.486l5.68-25.42a.4.4 0 0 1 .39-.312h37.199a.4.4 0 0 1 .399.4v25.419c0 .22-.18.399-.4.399z" fill="#1B282C"/>
        <path d="m98.457 95.95-1.525 3.812-4.728 1.068s.152 2.898 7.473 6.253c0 0 5.948 1.525 10.524-2.44l-4.576-3.356.61-4.728-7.778-.61z" fill="#FAD9C7"/>
        <path d="M99.808 106.704c.456.106 5.613 1.197 9.743-2.043l-4.162-3.052a.399.399 0 0 1-.16-.373l.557-4.312-7.067-.554-1.417 3.54a.399.399 0 0 1-.283.241l-4.327.977c.305.808 1.612 3.047 7.116 5.576zm2.664 1.076c-1.642 0-2.787-.283-2.895-.31a.343.343 0 0 1-.066-.024c-7.455-3.417-7.698-6.467-7.706-6.596a.4.4 0 0 1 .312-.41l4.523-1.021 1.446-3.618a.392.392 0 0 1 .402-.25l7.778.61a.399.399 0 0 1 .365.45l-.58 4.494 4.386 3.216a.4.4 0 0 1 .025.623c-2.683 2.326-5.785 2.836-7.99 2.836z" fill="#1B282C"/>
        <path d="M90.347 88.743a3.8 3.8 0 1 1-7.388-1.786 3.8 3.8 0 0 1 7.388 1.786" fill="#FAD9C7"/>
        <path d="M86.766 88.243a.393.393 0 0 1-.169-.038l-1.707-.797a.4.4 0 1 1 .338-.723l1.707.798a.4.4 0 0 1-.17.76m-.111-3.795a3.41 3.41 0 0 0-3.308 2.603 3.407 3.407 0 0 0 2.508 4.105c.884.212 1.796.07 2.572-.403a3.382 3.382 0 0 0 1.534-2.104 3.406 3.406 0 0 0-3.306-4.201m.007 7.603a4.205 4.205 0 0 1-4.09-5.187 4.205 4.205 0 0 1 5.068-3.096 4.205 4.205 0 0 1 3.096 5.068 4.173 4.173 0 0 1-1.893 2.598 4.174 4.174 0 0 1-2.181.617" fill="#1B282C"/>
        <path d="M111.911 94.182a3.8 3.8 0 1 0 7.39 1.785 3.8 3.8 0 0 0-7.39-1.785" fill="#FAD9C7"/>
        <path d="M117.391 95.487h-.015l-1.883-.07a.4.4 0 0 1-.385-.413c.009-.22.173-.4.414-.384l1.884.07a.4.4 0 0 1-.015.797m-1.792-3.815c-.618 0-1.226.17-1.767.5a3.378 3.378 0 0 0-1.533 2.104 3.406 3.406 0 0 0 2.507 4.105 3.409 3.409 0 0 0 4.106-2.507 3.408 3.408 0 0 0-3.313-4.202m.005 7.602a4.204 4.204 0 0 1-4.08-5.186 4.169 4.169 0 0 1 1.892-2.597 4.171 4.171 0 0 1 3.175-.498 4.204 4.204 0 0 1 3.096 5.068 4.208 4.208 0 0 1-4.083 3.213" fill="#1B282C"/>
        <path d="m94.32 102.948 6.55 1.583c6.18 1.493 12.4-2.306 13.892-8.484l1.583-6.552c1.494-6.178-2.305-12.398-8.484-13.891l-6.551-1.584c-6.179-1.493-12.399 2.306-13.892 8.485l-1.583 6.55c-1.493 6.18-.358 11.954 8.484 13.893" fill="#FAD9C7"/>
        <path d="M98.606 74.152c-4.986 0-9.524 3.404-10.746 8.46l-1.583 6.55c-.912 3.774-.679 6.689.711 8.913 1.348 2.153 3.846 3.643 7.428 4.429l.01.002 6.551 1.582c2.872.696 5.84.229 8.36-1.31a10.982 10.982 0 0 0 4.983-6.838l1.583-6.551a10.98 10.98 0 0 0-1.311-8.36 10.98 10.98 0 0 0-6.838-4.983l-6.551-1.584c-.869-.21-1.74-.31-2.597-.31m4.99 31.16a12.08 12.08 0 0 1-2.833-.339l-6.546-1.582c-3.827-.84-6.518-2.467-8-4.834-1.505-2.407-1.783-5.64-.824-9.608l1.583-6.55c1.55-6.415 8.027-10.37 14.441-8.821l6.551 1.584a11.887 11.887 0 0 1 7.4 5.394 11.886 11.886 0 0 1 1.42 9.046l-1.584 6.552a11.886 11.886 0 0 1-5.393 7.4 11.893 11.893 0 0 1-6.215 1.758" fill="#1B282C"/>
        <path d="M96.387 86.34a.963.963 0 1 1-1.872-.452.963.963 0 0 1 1.872.452M101.957 87.686a.963.963 0 1 1-1.873-.452.963.963 0 0 1 1.873.452M97.9 90.148a.357.357 0 0 1-.108-.018c-.056-.019-.2-.035-.327-.049-.425-.048-.907-.102-1.083-.457-.293-.594.921-2.327 1.457-3.044a.337.337 0 1 1 .54.403c-.532.714-1.3 1.948-1.37 2.334.119.047.391.078.532.094.182.02.34.038.465.08a.337.337 0 0 1-.107.657z" fill="#1B282C"/>
        <path d="M105.897 92.503a2.84 2.84 0 1 1-5.523-1.335 2.84 2.84 0 0 1 5.523 1.335M95.813 90.066a2.84 2.84 0 1 1-5.522-1.335 2.84 2.84 0 0 1 5.522 1.335" fill="#F3B1B5"/>
        <path d="m96.705 95.733.237.057a1.235 1.235 0 0 0 1.486-.907l.224-.926a1.235 1.235 0 0 0-.908-1.486l-.237-.057a1.235 1.235 0 0 0-1.486.908l-.224.925c-.159.658.25 1.327.908 1.486" fill="#E85371"/>
        <path d="m96.784 95.406.237.057a.896.896 0 0 0 1.079-.66l.223-.925a.883.883 0 0 0-.107-.675.885.885 0 0 0-.552-.404l-.236-.058a.897.897 0 0 0-1.079.66l-.224.925a.887.887 0 0 0 .107.676c.124.204.32.348.552.404m.447.757c-.122 0-.245-.015-.369-.045l-.236-.057a1.554 1.554 0 0 1-.97-.708 1.56 1.56 0 0 1-.187-1.185l.224-.925a1.57 1.57 0 0 1 1.893-1.157l.237.058c.406.097.75.349.97.707.218.359.284.78.187 1.185l-.224.926a1.573 1.573 0 0 1-1.525 1.2" fill="#1B282C"/>
        <path d="M100.623 85.493s1.18-1.026 1.837.298" fill="#FAD9C7"/>
        <path d="M102.46 86.128a.337.337 0 0 1-.301-.187c-.139-.279-.307-.44-.501-.479-.316-.068-.696.184-.815.286a.337.337 0 0 1-.442-.51c.069-.059.694-.574 1.387-.438.41.082.738.365.974.84a.337.337 0 0 1-.301.488" fill="#1B282C"/>
        <path d="M95.112 84.161s1.18-1.026 1.837.298" fill="#FAD9C7"/>
        <path d="M96.949 84.796a.337.337 0 0 1-.302-.187c-.138-.279-.307-.44-.5-.479-.317-.068-.696.184-.815.286a.337.337 0 0 1-.442-.51c.07-.058.694-.574 1.387-.438.41.082.738.365.974.841a.337.337 0 0 1-.302.487" fill="#1B282C"/>
        <path d="M117.097 80.186s-1.508-5.005-9.247-6.859c-7.276-1.742-15.772-1.3-19.743 4.77-1.37 2.094-.54 4.817 1.32 6.742 0 0 1.513-4.088 4.515-6.383.398.891 1.112 1.873 2.376 2.775l14.546 3.516s.199 4.232 3.598 7.355l2.548-.43s5.342-8.96.087-11.486" fill="#1B282C"/>
        <path d="m96.502 80.832 14.463 3.495c.186.046.32.208.33.399.001.04.23 3.97 3.307 6.915l2.135-.361c.525-.938 2.953-5.526 2.04-8.555-.297-.986-.907-1.69-1.867-2.15a.433.433 0 0 1-.225-.263c-.015-.048-1.557-4.798-8.936-6.565-3.302-.792-14.45-2.798-19.281 4.585-1.191 1.82-.486 4.078.826 5.705.566-1.275 2.016-4.112 4.386-5.923a.432.432 0 0 1 .655.166c.43.96 1.159 1.818 2.167 2.552zm17.96 11.7a.43.43 0 0 1-.291-.113c-2.98-2.736-3.59-6.244-3.71-7.326L96.216 81.65a.422.422 0 0 1-.149-.068c-.993-.71-1.755-1.533-2.27-2.454-2.599 2.234-3.951 5.823-3.965 5.861a.433.433 0 0 1-.715.15c-2.188-2.264-2.739-5.19-1.371-7.279 3.468-5.3 11.02-7.151 20.204-4.952 7.146 1.711 9.138 6.016 9.497 6.971 1.082.567 1.808 1.44 2.156 2.598 1.126 3.735-2.086 9.185-2.223 9.415a.426.426 0 0 1-.298.204l-2.548.43a.436.436 0 0 1-.071.007zM87.994 162.534c-.01 0-.02 0-.03-.002a.4.4 0 0 1-.369-.427l1.22-16.269a.397.397 0 0 1 .429-.367.4.4 0 0 1 .368.427l-1.22 16.268a.4.4 0 0 1-.398.37" fill="#1B282C"/>
        <path d="M105.828 105.567a1.179 1.179 0 0 0-1.65-.204l-3.385 2.63v-.453c0-1.13-.917-2.046-2.047-2.046h-6.59c-1.13 0-2.047.916-2.047 2.046v5.76c0 1.13.917 2.046 2.047 2.046h6.59a2.045 2.045 0 0 0 2.042-1.952l.005.01 4.981-6.319a1.178 1.178 0 0 0 .054-1.518" fill="#FAD9C7"/>
        <path d="M92.156 105.892a1.65 1.65 0 0 0-1.648 1.648v5.76c0 .908.74 1.647 1.648 1.647h6.59c.88 0 1.603-.69 1.643-1.571a.399.399 0 0 1 .146-.29l4.926-6.248a.788.788 0 0 0 .054-1.025h-.001a.78.78 0 0 0-1.092-.135l-3.385 2.63a.397.397 0 0 1-.643-.316v-.452a1.65 1.65 0 0 0-1.648-1.648h-6.59zm6.59 9.853h-6.59a2.449 2.449 0 0 1-2.446-2.446v-5.759a2.448 2.448 0 0 1 2.446-2.445h6.59c1.232 0 2.254.914 2.421 2.1l2.766-2.147a1.58 1.58 0 0 1 2.209.273 1.574 1.574 0 0 1-.072 2.032l-4.895 6.21a2.439 2.439 0 0 1-2.429 2.182z" fill="#1B282C"/>
        <path d="M97.462 144.626h-4.856c-4.719-1.665-3.47-6.66-3.47-6.66l.971-24.146h11.935l3.052 19.011" fill="#8FB3DC"/>
        <path d="M97.462 145.025h-4.857a.407.407 0 0 1-.132-.022c-4.757-1.68-3.847-6.567-3.734-7.09l.97-24.109a.399.399 0 0 1 .398-.383h11.935c.196 0 .363.142.394.336l3.052 19.01a.4.4 0 0 1-.788.127l-2.999-18.675h-11.21l-.956 23.763a.461.461 0 0 1-.012.08c-.046.189-1.086 4.622 3.152 6.165h4.787a.399.399 0 1 1 0 .798" fill="#1B282C"/>
        <path d="M100.793 107.714v-6.14c0-.692-.6-1.252-1.339-1.252-.74 0-1.338.56-1.338 1.252v5.663" fill="#FAD9C7"/>
        <path d="M100.792 108.113a.4.4 0 0 1-.399-.4v-6.14c0-.47-.42-.852-.94-.852-.517 0-.939.382-.939.853v5.663a.398.398 0 1 1-.797 0v-5.663c0-.91.78-1.651 1.737-1.651.958 0 1.737.74 1.737 1.65v6.14a.4.4 0 0 1-.399.4" fill="#1B282C"/>
        <path d="M98.115 106.64v-6.139c0-.692-.599-1.252-1.338-1.252-.74 0-1.339.56-1.339 1.252v5.663" fill="#FAD9C7"/>
        <path d="M98.116 107.04a.4.4 0 0 1-.4-.4v-6.14c0-.47-.42-.852-.94-.852-.517 0-.939.382-.939.853v5.663a.398.398 0 1 1-.797 0v-5.663c0-.91.78-1.651 1.737-1.651.958 0 1.738.74 1.738 1.65v6.14a.4.4 0 0 1-.4.4" fill="#1B282C"/>
        <path d="M95.438 107.356v-6.14c0-.691-.599-1.252-1.338-1.252-.74 0-1.339.56-1.339 1.252v5.664" fill="#FAD9C7"/>
        <path d="M95.439 107.755a.4.4 0 0 1-.4-.399v-6.14c0-.47-.421-.853-.94-.853-.518 0-.94.383-.94.853v5.664a.399.399 0 1 1-.796 0v-5.664c0-.91.779-1.65 1.736-1.65.96 0 1.738.74 1.738 1.65v6.14a.4.4 0 0 1-.398.4" fill="#1B282C"/>
        <path d="M92.761 107.595v-5.067c0-.692-.599-1.252-1.338-1.252-.74 0-1.339.56-1.339 1.252v4.59" fill="#FAD9C7"/>
        <path d="M92.761 107.994a.4.4 0 0 1-.399-.4v-5.066c0-.47-.421-.853-.94-.853-.518 0-.94.382-.94.853v4.59a.398.398 0 1 1-.797 0v-4.59c0-.91.78-1.651 1.737-1.651.959 0 1.738.74 1.738 1.65v5.068a.4.4 0 0 1-.399.399" fill="#1B282C"/>
        <path d="m108.684 122.377-9.926 18.244-13.035-1.252-2.665 9.738 13.115 5.142s7.875 3.172 10.593-1.569l9.62-20.658" fill="#E85371"/>
        <path d="M101.458 155.695c-2.708 0-5.248-1-5.434-1.076l-13.112-5.14a.399.399 0 0 1-.24-.477l2.666-9.739a.391.391 0 0 1 .424-.292l12.772 1.228 9.8-18.013a.399.399 0 0 1 .702.381l-9.927 18.245a.39.39 0 0 1-.39.207l-12.7-1.221-2.482 9.068 12.782 5.012c.079.03 7.589 2.987 10.1-1.396l9.605-20.629a.399.399 0 1 1 .723.337l-9.62 20.659c-1.27 2.217-3.523 2.846-5.669 2.846" fill="#1B282C"/>
        <path d="m148.76 119.777-13.136-3.853-12.582-.578-9.066.964c-5.551 1.155-5.366 7.897-5.366 7.897l-7.047 37.29-.157 5.134.578 4.962h44.185l2.288-8.35 4.003-37.11c.37-5.393-3.7-6.356-3.7-6.356" fill="#E85371"/>
        <g transform="translate(101.002 114.942)">
            <mask id="72gvx8kszb" fill="#fff">
                <use xlink:href="#oasqimqowa"/>
            </mask>
            <path d="M1.344 56.244h43.513l2.206-8.05 3.991-37.046c.34-4.95-3.238-5.88-3.39-5.918a.163.163 0 0 1-.02-.005l-13.09-3.839L22.021.811l-9.004.961c-5.108 1.066-5.01 7.22-5.003 7.482a.373.373 0 0 1-.007.086L.961 46.63.81 51.7l.533 4.544zm43.823.814H.981a.408.408 0 0 1-.404-.36L0 51.737l.154-5.193L7.201 9.23c-.002-.624.127-7.101 5.69-8.26L21.996 0l12.644.576a.39.39 0 0 1 .096.016L47.87 4.443c.305.083 4.372 1.289 3.995 6.776L47.86 48.344l-2.3 8.414a.406.406 0 0 1-.393.3z" fill="#1B282C" mask="url(#72gvx8kszb)"/>
        </g>
        <path d="m125.045 110.145-.305 4.27-2.898 1.374s6.253 4.88 13.88.915l-2.746-1.83v-5.491l-7.93.762z" fill="#FAD9C7"/>
        <path d="M122.647 115.85c1.61.995 6.516 3.456 12.275.801l-2.167-1.445a.398.398 0 0 1-.178-.332v-5.052l-7.158.688-.281 3.934a.4.4 0 0 1-.228.332l-2.263 1.073zm6.96 2.793c-4.681 0-7.964-2.504-8.01-2.54a.399.399 0 0 1 .075-.675l2.687-1.273.288-4.038a.4.4 0 0 1 .36-.37l7.93-.762a.4.4 0 0 1 .437.398v5.277l2.569 1.711a.4.4 0 0 1-.038.686c-2.247 1.17-4.39 1.586-6.297 1.586zM118.039 98.964l-.159.457c-.722 2.04-3.74 10.2-5.802 10.08 0 0-.694 2.217 4.02 2.078 0 0 3.466 4.16 5.961-.139l5.685-15.11-9.705 2.634z" fill="#1B282C"/>
        <path d="M116.098 111.048c.157 0 .307.07.408.19.015.017 1.47 1.746 3.007 1.61.768-.066 1.463-.617 2.064-1.637l5.303-14.096-8.43 2.289-.068.194c-1.567 4.426-3.786 9.607-5.792 10.346.021.1.066.216.158.33.252.319 1.034.846 3.335.774h.015zm3.25 2.871c-1.62 0-3.004-1.296-3.482-1.803-2.023.02-3.349-.383-3.978-1.215a1.789 1.789 0 0 1-.318-1.56.545.545 0 0 1 .56-.371c.9 0 2.982-3.322 5.249-9.726l.156-.451a.533.533 0 0 1 .364-.343l9.705-2.633a.53.53 0 0 1 .638.7l-5.685 15.111a.55.55 0 0 1-.038.08c-.792 1.363-1.774 2.104-2.92 2.2a2.91 2.91 0 0 1-.251.011zM136.656 86.68s13.732-.715 14.42 10.446c0 0-2.06 8.728 1.372 12.591 0 0 .859 1.431 3.262 2.862 0 0 .515 2.718-3.948 2.575 0 0-4.291 3.72-7.897.143 0 0-6.179 2.576-8.582-.715l1.373-27.901z" fill="#1B282C"/>
        <path d="M143.865 114.696c.156 0 .309.06.424.174 3.161 3.137 6.921-.034 7.08-.17a.55.55 0 0 1 .412-.146c1.464.043 2.518-.235 3.014-.814.246-.287.313-.605.328-.815-2.076-1.297-2.977-2.57-3.157-2.846-3.405-3.895-1.72-12.004-1.497-13.002-.294-4.316-2.668-7.273-7.058-8.79-2.564-.887-5.102-1.007-6.182-1.013l-1.334 27.114c2.192 2.625 7.682.377 7.739.354a.6.6 0 0 1 .231-.046m3.577 2.751c-1.225 0-2.515-.39-3.713-1.453-1.435.524-6.61 2.122-8.932-1.058a.601.601 0 0 1-.115-.384l1.374-27.9a.6.6 0 0 1 .569-.572c.145-.006 14.335-.611 15.05 11.01a.618.618 0 0 1-.014.174c-.02.085-1.948 8.47 1.237 12.054a.58.58 0 0 1 .066.09c.006.01.834 1.332 3.054 2.654a.602.602 0 0 1 .283.405c.078.414.042 1.314-.592 2.055-.72.842-1.995 1.246-3.735 1.238-1.003.806-2.693 1.687-4.532 1.687" fill="#1B282C"/>
        <path d="M122.18 102.034a3.454 3.454 0 1 1-6.715-1.622 3.454 3.454 0 0 1 6.715 1.622" fill="#FAD9C7"/>
        <path d="M118.924 101.617a.39.39 0 0 1-.169-.038l-1.551-.726a.4.4 0 1 1 .338-.722l1.551.725a.4.4 0 0 1-.169.76zm-.107-3.45c-.555 0-1.101.152-1.588.448a3.036 3.036 0 0 0-1.377 1.89 3.06 3.06 0 0 0 2.252 3.688 3.059 3.059 0 0 0 3.688-2.252 3.059 3.059 0 0 0-2.975-3.775zm.005 6.91a3.857 3.857 0 0 1-3.745-4.759c.241-1 .858-1.847 1.737-2.384a3.83 3.83 0 0 1 2.913-.456c1.001.241 1.848.858 2.384 1.736.537.879.698 1.913.456 2.914a3.86 3.86 0 0 1-3.745 2.948z" fill="#1B282C"/>
        <path d="M140.574 108.104a3.454 3.454 0 1 0 6.714 1.623 3.454 3.454 0 0 0-6.714-1.623" fill="#FAD9C7"/>
        <path d="M145.554 109.326h-.014l-1.712-.063a.399.399 0 0 1-.384-.414c.008-.219.17-.407.413-.383l1.711.062a.4.4 0 0 1-.014.798zm-1.628-3.467c-.555 0-1.101.153-1.587.45a3.036 3.036 0 0 0-1.377 1.889 3.036 3.036 0 0 0 .361 2.31 3.034 3.034 0 0 0 1.89 1.377 3.061 3.061 0 0 0 3.688-2.252 3.06 3.06 0 0 0-2.975-3.774zm.005 6.91c-.3 0-.603-.035-.905-.108a3.827 3.827 0 0 1-2.384-1.737 3.829 3.829 0 0 1-.456-2.914c.242-1 .859-1.846 1.737-2.383a3.822 3.822 0 0 1 2.913-.457 3.857 3.857 0 0 1 2.84 4.65 3.86 3.86 0 0 1-3.745 2.95z" fill="#1B282C"/>
        <path d="m126.27 116.185 2.26.455c9.499 1.617 12.631-1.957 14.153-7.205l2.358-8.136c1.521-5.247-2.348-10.529-8.644-11.797l-2.259-.455c-6.295-1.268-12.63 1.958-14.152 7.206l-2.36 8.135c-1.52 5.247-.33 10.166 8.645 11.797" fill="#FAD9C7"/>
        <path d="M131.377 89.223c-5.092 0-9.717 2.877-10.958 7.155l-2.359 8.136c-.832 2.87-.693 5.231.413 7.017 1.286 2.077 3.937 3.494 7.878 4.21l.009.002 2.26.455c9.742 1.656 12.307-2.331 13.63-6.889l2.357-8.135c.618-2.131.305-4.383-.881-6.34-1.49-2.458-4.193-4.24-7.418-4.89l-2.258-.454a13.547 13.547 0 0 0-2.673-.267m1.326 28.256c-1.256 0-2.664-.124-4.249-.394l-2.268-.457c-4.202-.764-7.055-2.32-8.481-4.622-1.245-2.012-1.418-4.617-.511-7.744l2.359-8.135c1.582-5.46 8.165-8.836 14.674-7.522l2.259.455c3.471.7 6.392 2.633 8.011 5.306 1.32 2.175 1.666 4.682.977 7.06l-2.359 8.135c-1.161 4.007-3.364 7.917-10.412 7.918" fill="#1B282C"/>
        <path d="M125.512 99.973a.892.892 0 1 1-1.733-.42.892.892 0 0 1 1.733.42M130.665 101.218a.89.89 0 1 1-1.731-.417.89.89 0 0 1 1.731.417M126.912 103.527a.347.347 0 0 1-.11-.018 2.073 2.073 0 0 0-.297-.044c-.4-.046-.854-.097-1.024-.44-.281-.568.85-2.182 1.35-2.85a.344.344 0 0 1 .55.412c-.477.637-1.166 1.739-1.257 2.12.115.037.339.062.458.075.171.02.32.036.439.076a.343.343 0 0 1-.109.669z" fill="#1B282C"/>
        <path d="M134.31 105.674a2.628 2.628 0 1 1-5.108-1.234 2.628 2.628 0 0 1 5.109 1.234M124.982 103.42a2.628 2.628 0 1 1-5.108-1.234 2.628 2.628 0 0 1 5.108 1.234" fill="#F3B1B5"/>
        <path d="m125.807 108.663.219.053c.609.147 1.227-.23 1.374-.84l.208-.856a1.143 1.143 0 0 0-.84-1.375l-.22-.052a1.141 1.141 0 0 0-1.374.839l-.207.857c-.147.608.23 1.227.84 1.374" fill="#E85371"/>
        <path d="M126.281 105.903a.799.799 0 0 0-.773.61l-.208.857a.786.786 0 0 0 .096.6c.111.182.286.31.49.36h.002l.219.053a.797.797 0 0 0 .96-.587l.207-.857a.798.798 0 0 0-.587-.96l-.218-.053a.786.786 0 0 0-.188-.023m.012 3.188c-.115 0-.231-.013-.348-.041l-.22-.053a1.474 1.474 0 0 1-.915-.67 1.473 1.473 0 0 1-.177-1.119l.207-.857c.093-.383.33-.708.668-.915.34-.207.74-.269 1.12-.177l.22.052a1.486 1.486 0 0 1 1.093 1.79l-.206.856a1.487 1.487 0 0 1-1.442 1.134" fill="#1B282C"/>
        <path d="M129.551 98.95s1.091-.949 1.7.276" fill="#FAD9C7"/>
        <path d="M131.25 99.57a.343.343 0 0 1-.307-.192c-.123-.25-.272-.392-.442-.426-.283-.057-.627.173-.725.257a.343.343 0 0 1-.45-.517c.065-.056.656-.544 1.308-.413.39.077.7.345.924.794a.344.344 0 0 1-.307.496" fill="#1B282C"/>
        <path d="M124.452 97.718s1.092-.95 1.7.276" fill="#FAD9C7"/>
        <path d="M126.152 98.337a.343.343 0 0 1-.307-.19c-.123-.249-.272-.392-.441-.427-.281-.057-.622.167-.728.259a.343.343 0 0 1-.45-.52c.065-.056.648-.544 1.31-.412.39.078.7.345.923.794a.343.343 0 0 1-.307.496" fill="#1B282C"/>
        <path d="M131.507 91.975s-2.575 6.725 4.291 8.871c0 0 .859.286 2.575 0 0 0-1.889 3.577 1.888 5.58 0 0-.344 5.008-3.433 5.295 0 0 5.836 2.289 8.582-8.157 0 0 6.009-13.449-9.44-16.168 0 0-2.575-2.862-8.583-1.288 0 0-10.814-.286-11.672 12.592l2.49.01s4.891-6.592 13.302-6.735" fill="#1B282C"/>
        <path d="M138.373 100.245a.6.6 0 0 1 .532.882c-.162.312-1.496 3.106 1.638 4.769a.6.6 0 0 1 .318.571c-.012.168-.237 3.132-1.81 4.782a4.627 4.627 0 0 0 1.2-.426c1.99-1.026 3.573-3.589 4.577-7.412a.626.626 0 0 1 .033-.091c.024-.055 2.408-5.529.059-9.942-1.48-2.78-4.527-4.592-9.055-5.39a.6.6 0 0 1-.343-.19c-.094-.102-2.446-2.56-7.982-1.108a.696.696 0 0 1-.168.02c-.4-.016-9.901-.095-11.006 11.391l1.547.007c1.006-1.239 5.806-6.602 13.583-6.734a.605.605 0 0 1 .573.815c-.011.027-1.036 2.795.111 5.152.665 1.365 1.942 2.351 3.797 2.931.013.004.783.233 2.297-.019a.614.614 0 0 1 .099-.008m-.17 12.29c-.928 0-1.55-.237-1.594-.255a.602.602 0 0 1 .163-1.158c2.113-.196 2.706-3.287 2.849-4.368-2.409-1.467-2.565-3.672-2.161-5.196-1.157.075-1.771-.114-1.851-.14-2.18-.682-3.701-1.88-4.515-3.56-.957-1.976-.676-4.098-.401-5.246-7.523.53-11.96 6.396-12.006 6.457a.603.603 0 0 1-.483.243h-.003l-2.49-.01a.601.601 0 0 1-.597-.642c.704-10.565 8.218-13.226 12.203-13.154 5.48-1.408 8.27.712 8.941 1.33 4.816.884 8.087 2.896 9.727 5.984 2.53 4.762.258 10.333-.006 10.943-1.115 4.216-2.868 6.957-5.21 8.146a5.63 5.63 0 0 1-2.565.625" fill="#1B282C"/>
        <path d="M124.2 131.094a1.178 1.178 0 0 0-.883 1.409l.948 4.18-.41-.192a2.047 2.047 0 0 0-2.72.988l-2.793 5.969a2.046 2.046 0 0 0 .987 2.72l5.216 2.44a2.048 2.048 0 0 0 2.722-.986l2.792-5.97a2.045 2.045 0 0 0-.903-2.676h.01l-3.612-7.19a1.18 1.18 0 0 0-1.353-.692" fill="#FAD9C7"/>
        <path d="M122.991 136.698c-.62 0-1.215.352-1.496.95l-2.791 5.968a1.638 1.638 0 0 0-.058 1.26c.15.414.453.745.852.93l5.216 2.442a1.653 1.653 0 0 0 2.192-.796l2.792-5.969a1.644 1.644 0 0 0-.728-2.154.398.398 0 0 1-.2-.253l-3.573-7.11a.79.79 0 0 0-.906-.484.781.781 0 0 0-.585.932l.947 4.18a.4.4 0 0 1-.559.45l-.408-.191a1.63 1.63 0 0 0-.695-.155zm2.416 12.502c-.345 0-.696-.073-1.03-.23l-5.217-2.44a2.423 2.423 0 0 1-1.263-1.382 2.427 2.427 0 0 1 .084-1.87l2.791-5.968a2.449 2.449 0 0 1 2.93-1.304l-.774-3.415a1.58 1.58 0 0 1 1.182-1.885 1.573 1.573 0 0 1 1.812.926l3.55 7.065a2.44 2.44 0 0 1 .948 3.124l-2.792 5.97a2.452 2.452 0 0 1-2.22 1.409z" fill="#1B282C"/>
        <path d="m124.012 136.565-5.561-2.601c-.627-.293-1.389.012-1.702.682-.313.67-.059 1.45.567 1.743l5.13 2.399" fill="#FAD9C7"/>
        <path d="M122.446 139.187a.39.39 0 0 1-.169-.038l-5.13-2.399a1.599 1.599 0 0 1-.846-.968 1.77 1.77 0 0 1 .088-1.305c.194-.415.53-.736.946-.903.424-.171.882-.16 1.285.028l5.56 2.601a.4.4 0 0 1-.336.723l-5.562-2.601a.81.81 0 0 0-.65-.011.981.981 0 0 0-.52.501.973.973 0 0 0-.052.72.812.812 0 0 0 .426.492l5.129 2.4a.4.4 0 0 1-.169.76" fill="#1B282C"/>
        <path d="m121.906 138.535-5.561-2.6c-.627-.294-1.389.012-1.702.681-.313.67-.06 1.45.567 1.743l5.13 2.4" fill="#FAD9C7"/>
        <path d="M120.34 141.157a.39.39 0 0 1-.169-.038l-5.13-2.399c-.824-.386-1.165-1.405-.76-2.273.195-.415.531-.736.947-.903a1.6 1.6 0 0 1 1.286.029l5.56 2.601a.399.399 0 1 1-.337.723l-5.561-2.602a.814.814 0 0 0-.651-.01.976.976 0 0 0-.52.5c-.22.469-.052 1.013.374 1.213l5.13 2.398a.4.4 0 0 1-.169.761" fill="#1B282C"/>
        <path d="m121.42 141.263-5.562-2.6c-.626-.294-1.388.012-1.701.681-.313.67-.06 1.45.567 1.743l5.13 2.4" fill="#FAD9C7"/>
        <path d="M119.854 143.885a.39.39 0 0 1-.169-.038l-5.13-2.399c-.824-.385-1.166-1.405-.76-2.272.407-.869 1.411-1.26 2.232-.875l5.561 2.601a.399.399 0 1 1-.337.723l-5.562-2.602c-.428-.2-.951.022-1.171.49-.219.47-.051 1.014.375 1.213l5.13 2.399a.4.4 0 0 1-.17.76" fill="#1B282C"/>
        <path d="m120.502 143.79-4.59-2.148c-.626-.292-1.388.013-1.701.683-.314.67-.06 1.45.567 1.742l4.158 1.945" fill="#FAD9C7"/>
        <path d="M118.936 146.411a.39.39 0 0 1-.17-.038l-4.157-1.944a1.6 1.6 0 0 1-.846-.968 1.778 1.778 0 0 1 .086-1.305c.406-.868 1.407-1.262 2.232-.875l4.589 2.147a.399.399 0 1 1-.337.723l-4.59-2.147c-.424-.199-.951.02-1.171.49a.98.98 0 0 0-.05.72.808.808 0 0 0 .425.492l4.158 1.945a.4.4 0 0 1-.17.76" fill="#1B282C"/>
        <path d="m152.333 123.846 4.568 29.43s.925 7.031-5.921 6.846l-26.273-11.101 4.44-9.622 17.763 2.035" fill="#E85371"/>
        <g transform="translate(124.308 123.447)">
            <mask id="pjg3hn74xd" fill="#fff">
                <use xlink:href="#1xdnq8n9hc"/>
            </mask>
            <path d="M26.935 37.078c-.09 0-.18-.001-.273-.004a.385.385 0 0 1-.145-.031L.243 25.94a.4.4 0 0 1-.206-.535l4.441-9.621a.394.394 0 0 1 .408-.23l17.762 2.036a.4.4 0 0 1-.09.793L5.081 16.381.934 25.367l25.823 10.911c1.804.027 3.211-.467 4.135-1.493 1.683-1.867 1.31-4.874 1.306-4.904L27.63.461a.398.398 0 1 1 .788-.122l4.569 29.43c.02.146.423 3.412-1.503 5.55-1.052 1.168-2.582 1.759-4.55 1.759" fill="#1B282C" mask="url(#pjg3hn74xd)"/>
        </g>
        <path fill="#FAD9C7" d="m58.378 150.888-7.956 9.992 3.885 2.59 15.524-8.349z"/>
        <path d="m50.273 161.62 3.324 2.216 14.534-7.816-10.353-3.826-7.505 9.425zm3.302 3.08a.394.394 0 0 1-.221-.067l-3.885-2.59a.4.4 0 0 1-.091-.58l7.956-9.992a.399.399 0 0 1 .45-.126l11.453 4.233a.398.398 0 0 1 .051.726l-15.524 8.349a.405.405 0 0 1-.189.047z" fill="#1B282C"/>
        <path d="m77.326 141.246-1.318 1.976-1.976.131s-1.58 2.24 1.976 3.822c0 0 6.06 1.713 8.827-.264 0 0 2.768-.922 2.109-3.294l-9.618-2.371z" fill="#FAD9C7"/>
        <path d="M76.17 146.81c.015 0 5.858 1.617 8.434-.223a.383.383 0 0 1 .105-.054c.094-.032 2.226-.776 1.9-2.587l-9.107-2.246-1.162 1.743a.4.4 0 0 1-.305.177l-1.764.117c-.115.232-.282.7-.13 1.24.2.707.883 1.324 2.03 1.833zm4.746 1.454c-2.476 0-4.858-.66-5.016-.705-1.435-.633-2.268-1.428-2.531-2.38-.31-1.123.31-2.018.336-2.055a.4.4 0 0 1 .3-.169l1.78-.118 1.209-1.813a.4.4 0 0 1 .427-.166l9.618 2.372c.14.035.251.142.289.28.591 2.128-1.22 3.375-2.31 3.76-1.091.755-2.614.994-4.102.994zM84.16 116.557a6.273 6.273 0 1 1-12.547 0 6.273 6.273 0 0 1 12.546 0" fill="#1B282C"/>
        <path d="M77.886 110.815a5.749 5.749 0 0 0-5.742 5.742 5.75 5.75 0 0 0 5.742 5.742 5.749 5.749 0 0 0 5.742-5.742 5.748 5.748 0 0 0-5.742-5.742m0 12.547a6.813 6.813 0 0 1-6.805-6.805 6.813 6.813 0 0 1 6.805-6.806 6.813 6.813 0 0 1 6.805 6.806 6.812 6.812 0 0 1-6.805 6.805M108.858 125.518a6.273 6.273 0 1 1-12.547 0 6.273 6.273 0 0 1 12.547 0" fill="#1B282C"/>
        <path d="M102.584 119.776a5.748 5.748 0 0 0-5.742 5.742 5.749 5.749 0 0 0 5.742 5.742 5.75 5.75 0 0 0 5.742-5.742 5.749 5.749 0 0 0-5.742-5.742m0 12.548a6.812 6.812 0 0 1-6.805-6.806 6.813 6.813 0 0 1 6.805-6.805 6.813 6.813 0 0 1 6.805 6.805 6.813 6.813 0 0 1-6.805 6.806" fill="#1B282C"/>
        <path d="M75.716 126.857a3.767 3.767 0 1 1-7.041-2.678 3.767 3.767 0 0 1 7.04 2.678" fill="#FAD9C7"/>
        <path d="M72.306 125.926a.393.393 0 0 1-.213-.061l-1.579-.999a.398.398 0 1 1 .426-.674l1.579.998a.398.398 0 0 1-.213.736m-.107-3.775c-1.359 0-2.642.827-3.152 2.17a3.372 3.372 0 0 0 1.95 4.345 3.34 3.34 0 0 0 2.577-.076 3.34 3.34 0 0 0 1.768-1.874 3.346 3.346 0 0 0-.075-2.577 3.345 3.345 0 0 0-1.874-1.768 3.348 3.348 0 0 0-1.194-.22m-.002 7.535a4.17 4.17 0 0 1-3.896-5.649 4.172 4.172 0 0 1 5.375-2.412 4.138 4.138 0 0 1 2.32 2.187 4.14 4.14 0 0 1 .092 3.187 4.132 4.132 0 0 1-2.187 2.32 4.151 4.151 0 0 1-1.704.367" fill="#1B282C"/>
        <path d="m97.687 136.375.998-7.027c.706-4.684-3.155-9.673-8.54-11.728l-.018-.007-.159-.06-.018-.008v.001c-5.39-2.042-11.59-.879-14.174 3.09l-3.923 5.916c-3.773 5.797-.825 13.866 7.286 16.95l.823.313.194.074.823.313c8.11 3.084 15.676-.988 16.708-7.827" fill="#FAD9C7"/>
        <path d="M84.57 116.947c-3.593 0-6.821 1.391-8.46 3.907l-3.925 5.919c-1.624 2.495-1.997 5.47-1.05 8.377 1.156 3.542 4.124 6.45 8.145 7.98l1.841.7c4.02 1.529 8.172 1.327 11.39-.553 2.638-1.542 4.336-4.014 4.78-6.96l.999-7.025c.661-4.388-2.901-9.244-8.287-11.3l-.178-.068a14.902 14.902 0 0 0-5.255-.977zm1.9 28.698c-1.843 0-3.753-.355-5.633-1.07l-1.84-.7c-4.248-1.615-7.39-4.705-8.62-8.478-1.024-3.14-.619-6.359 1.141-9.062l3.926-5.918c2.615-4.021 8.913-5.417 14.648-3.244l.18.069c5.743 2.191 9.523 7.419 8.808 12.165l-.998 7.024v.003c-.483 3.19-2.318 5.866-5.17 7.532-1.91 1.116-4.122 1.679-6.442 1.679z" fill="#1B282C"/>
        <path d="M89.859 115.341s-11.142-3.307-15.933 6.031c0 0 2.942 2.185 11.733.122 0 0 3.066 8.325 13.854 10.847 0 0 4.737-12.458-9.654-17" fill="#1B282C"/>
        <path d="M85.659 120.962c.218 0 .42.135.498.348.03.079 3.02 7.845 13.002 10.397.384-1.311 1.286-5.299-.548-9.078-1.51-3.108-4.506-5.389-8.907-6.779-.113-.032-2.795-.791-5.996-.462-4.1.421-7.146 2.36-9.06 5.765 1.05.456 4.251 1.38 10.889-.177a.542.542 0 0 1 .122-.014m13.854 11.912a.516.516 0 0 1-.121-.015c-9.647-2.255-13.246-8.952-14.052-10.747-8.592 1.923-11.605-.22-11.73-.313a.53.53 0 0 1-.157-.67c4.935-9.618 16.44-6.332 16.557-6.298l.01.003c4.698 1.483 7.913 3.953 9.553 7.342 2.422 5.004.52 10.139.438 10.354a.533.533 0 0 1-.498.344M79.41 128.063a1.13 1.13 0 1 1-2.111-.803 1.13 1.13 0 0 1 2.111.803M85.694 130.452a1.13 1.13 0 1 1-2.112-.803 1.13 1.13 0 0 1 2.112.803M96.963 99.569c-1.999 0-4-1.219-4.849-3.034a.4.4 0 0 1 .724-.338c.805 1.72 2.824 2.81 4.707 2.531a.4.4 0 0 1 .117.79 4.742 4.742 0 0 1-.7.05m31.105 13.828c-1.52 0-3.058-.631-4.056-1.775a.398.398 0 1 1 .601-.525c1.25 1.433 3.498 1.92 5.225 1.132a.4.4 0 0 1 .33.727 5.071 5.071 0 0 1-2.1.441m-47.898 25.762c-1.84 0-3.7-.992-4.635-2.58a.399.399 0 0 1 .686-.406c.966 1.638 3.086 2.528 4.928 2.07a.399.399 0 0 1 .193.775c-.385.096-.778.14-1.172.14" fill="#1B282C"/>
        <path d="M90.625 136.233a3.332 3.332 0 1 1-6.23-2.37 3.332 3.332 0 0 1 6.23 2.37" fill="#F3B1B5"/>
        <path d="M80.536 125.035s-.461-1.776-1.976-.93" fill="#FAD9C7"/>
        <path d="M80.536 125.434a.399.399 0 0 1-.386-.298c-.047-.177-.247-.667-.597-.815-.213-.09-.481-.044-.798.132a.398.398 0 0 1-.39-.696c.547-.305 1.052-.362 1.504-.169.769.328 1.026 1.243 1.053 1.346a.398.398 0 0 1-.386.5" fill="#1B282C"/>
        <path d="M86.753 127.399s-.461-1.776-1.975-.93" fill="#FAD9C7"/>
        <path d="M86.753 127.797a.398.398 0 0 1-.386-.297c-.047-.177-.247-.667-.596-.815-.212-.09-.48-.045-.799.132a.398.398 0 1 1-.39-.697c.546-.304 1.05-.361 1.505-.168.768.329 1.025 1.243 1.052 1.346a.398.398 0 0 1-.386.5" fill="#1B282C"/>
        <path d="M79.12 134.024a1.128 1.128 0 0 1-.613-1.469l.292-.71a1.128 1.128 0 0 1 1.47-.612c.571.235.846.896.61 1.469l-.291.71a1.129 1.129 0 0 1-1.469.612" fill="#E85371"/>
        <path d="M79.84 131.547a.728.728 0 0 0-.672.45l-.292.71a.715.715 0 0 0 .002.556.727.727 0 0 0 1.34-.003l.293-.71a.723.723 0 0 0-.003-.556.718.718 0 0 0-.667-.447m-.296 2.96a1.512 1.512 0 0 1-1.403-.938 1.515 1.515 0 0 1-.004-1.165l.292-.71a1.526 1.526 0 0 1 1.99-.83c.375.154.668.447.825.823.157.377.158.791.003 1.167l-.291.71a1.53 1.53 0 0 1-1.412.943" fill="#1B282C"/>
        <path d="M72.35 132.932a3.332 3.332 0 1 0 2.369-6.229 3.318 3.318 0 0 0-2.467.043l-.021.032a9.923 9.923 0 0 0-1.595 4.681c.369.653.96 1.186 1.715 1.473" fill="#F3B1B5"/>
        <path d="M94.768 139.394a4.077 4.077 0 1 0 2.897-7.621" fill="#FAD9C7"/>
        <path d="M79.892 129.662a.4.4 0 0 1-.399-.399c0-.74.602-1.341 1.342-1.341a.399.399 0 1 1 0 .797c-.3 0-.544.244-.544.544a.4.4 0 0 1-.4.4m18.225 6.575a.364.364 0 0 1-.065-.006c-.335-.055-.937-.163-1.537-.27-.593-.108-1.184-.214-1.514-.269a.399.399 0 0 1 .13-.787c.332.055.928.162 1.525.27.596.107 1.193.215 1.526.27a.399.399 0 0 1-.065.792m-1.897 3.824a4.458 4.458 0 0 1-1.593-.295.398.398 0 0 1-.23-.515.4.4 0 0 1 .513-.23c.92.348 1.918.318 2.814-.083a3.656 3.656 0 0 0 1.932-2.048 3.684 3.684 0 0 0-2.131-4.746.398.398 0 1 1 .282-.745 4.482 4.482 0 0 1 2.594 5.774 4.444 4.444 0 0 1-2.35 2.492 4.46 4.46 0 0 1-1.83.396" fill="#1B282C"/>
        <path d="M71.488 143.873s-7.03-1.11-12.766 5.551l-2.405 2.96 8.325 6.106 6.846-14.617z" fill="#F5AB00"/>
        <path d="m56.89 152.31 7.597 5.571 6.398-13.66c-1.729-.086-7.252.11-11.861 5.463l-2.133 2.627zm7.752 6.58a.397.397 0 0 1-.235-.078l-8.326-6.106a.398.398 0 0 1-.074-.574l2.404-2.96c5.824-6.762 12.842-5.738 13.14-5.693a.4.4 0 0 1 .298.563l-6.846 14.617a.398.398 0 0 1-.361.23z" fill="#1B282C"/>
        <path d="M49.193 171.442h32.333c-11.498-3.349-25.374-5.088-31.27-5.89-.538 1.657-.936 3.608-1.063 5.89" fill="#FAD9C7"/>
        <path d="M49.618 171.043h28.96c-10.08-2.634-21.409-4.158-27.11-4.924l-.933-.127a22.861 22.861 0 0 0-.917 5.05m31.907.798H49.193a.397.397 0 0 1-.398-.42c.118-2.128.482-4.144 1.081-5.99a.403.403 0 0 1 .433-.273l1.266.171c6.262.842 19.294 2.595 30.062 5.73a.4.4 0 0 1-.112.782" fill="#1B282C"/>
        <path d="M93.4 154.421c0-5.27-6.852-8.827-6.852-8.827-3.689 2.503-8.037 1.58-8.037 1.58-3.425-.79-3.689-4.347-3.689-4.347-12.252.395-15.152 11.594-15.152 11.594l-4.186 3.329s-3.413 2.207-5.228 7.803c5.896.8 19.458 2.54 30.956 5.889h11.924l.264-17.02z" fill="#F5AB00"/>
        <path d="M81.269 171.043h11.475l.257-16.625c-.003-4.465-5.32-7.725-6.434-8.359-3.737 2.402-7.956 1.544-8.139 1.505-2.978-.687-3.757-3.327-3.946-4.324-11.522.583-14.397 11.173-14.425 11.281a.398.398 0 0 1-.139.213l-4.185 3.328c-.063.043-3.168 2.112-4.944 7.16l.45.06c6.197.838 19.083 2.579 30.03 5.761zm11.867.798H81.211a.424.424 0 0 1-.111-.016c-10.901-3.176-23.78-4.915-29.969-5.752l-.93-.125a.398.398 0 0 1-.324-.518c1.837-5.666 5.247-7.922 5.39-8.015l4.056-3.227c.387-1.285 3.81-11.384 15.486-11.76.235-.013.394.156.411.369.011.133.292 3.276 3.38 3.989.036.007 4.227.852 7.724-1.523a.402.402 0 0 1 .408-.024c.288.15 7.067 3.732 7.067 9.182v.006l-.264 17.021a.398.398 0 0 1-.399.393z" fill="#1B282C"/>
        <path d="M92.951 158.49H82.035l-.186 3.145-10.916-3.33-3.164-1.687.268-3.182a1.3 1.3 0 0 0-1.141-1.432l-.06-.006a1.299 1.299 0 0 0-1.417 1.16l-.178 2.111-2.634-1.404-4.857 9.436 7.91 3.052 7.864 4.904 19.612.185-.185-12.952z" fill="#FAD9C7"/>
        <path d="m73.64 170.859 19.091.18-.174-12.15H82.41l-.162 2.77a.4.4 0 0 1-.514.358l-10.917-3.33a.417.417 0 0 1-.071-.03l-3.165-1.687a.4.4 0 0 1-.21-.386l.27-3.182a.9.9 0 0 0-.787-1.002c-.295-.032-.524.039-.71.19a.905.905 0 0 0-.328.609l-.178 2.104a.398.398 0 0 1-.585.318l-2.277-1.214-4.468 8.681 7.496 2.894a.42.42 0 0 1 .067.033l7.769 4.844zm19.496.982h-.004l-19.612-.186a.394.394 0 0 1-.207-.06l-7.832-4.883-7.874-3.04a.4.4 0 0 1-.211-.554l4.856-9.436a.398.398 0 0 1 .542-.17l2.1 1.12.128-1.508c.048-.458.267-.864.618-1.15a1.65 1.65 0 0 1 1.239-.373c.984.104 1.654.944 1.555 1.877l-.246 2.911 2.899 1.546 10.395 3.17.154-2.639a.4.4 0 0 1 .399-.375H92.95c.218 0 .396.175.399.393l.185 12.952a.399.399 0 0 1-.4.405z" fill="#1B282C"/>
        <path d="m59.606 161.188-2.82-1.649a1.299 1.299 0 0 0-1.774.453l-.03.051a1.3 1.3 0 0 0 .475 1.77l2.82 1.649" fill="#FAD9C7"/>
        <path d="M58.277 163.86a.394.394 0 0 1-.201-.054l-2.82-1.649a1.698 1.698 0 0 1-.619-2.315c.257-.44.625-.716 1.066-.828a1.703 1.703 0 0 1 1.285.18l2.82 1.65a.399.399 0 1 1-.403.689l-2.82-1.65a.903.903 0 0 0-1.23.31c-.276.474-.127 1.023.304 1.275l2.82 1.65a.399.399 0 0 1-.202.743" fill="#1B282C"/>
        <path d="m60.936 158.915-2.82-1.649a1.299 1.299 0 0 0-1.775.453l-.03.051a1.3 1.3 0 0 0 .475 1.77l2.82 1.649" fill="#FAD9C7"/>
        <path d="M59.606 161.587a.394.394 0 0 1-.201-.054l-2.82-1.65a1.7 1.7 0 0 1-.618-2.314c.498-.854 1.539-1.122 2.35-.647l2.82 1.649a.399.399 0 1 1-.403.688l-2.82-1.649a.898.898 0 0 0-1.23.31c-.147.254-.178.494-.116.725a.904.904 0 0 0 .42.55l2.82 1.649a.399.399 0 0 1-.202.743" fill="#1B282C"/>
        <path d="m62.265 156.642-2.82-1.649a1.3 1.3 0 0 0-1.775.453l-.03.051a1.3 1.3 0 0 0 .476 1.77l2.82 1.648" fill="#FAD9C7"/>
        <path d="M60.935 159.314a.394.394 0 0 1-.2-.054l-2.82-1.65a1.7 1.7 0 0 1-.62-2.314c.5-.854 1.54-1.122 2.351-.647l2.82 1.649a.399.399 0 1 1-.403.688l-2.82-1.649a.898.898 0 0 0-1.23.31.904.904 0 0 0 .303 1.275l2.821 1.649a.399.399 0 0 1-.202.743" fill="#1B282C"/>
        <path d="m63.594 154.369-2.82-1.65a1.299 1.299 0 0 0-1.775.454l-.03.05a1.3 1.3 0 0 0 .476 1.77l2.82 1.65" fill="#FAD9C7"/>
        <path d="M62.264 157.041a.394.394 0 0 1-.2-.054l-2.82-1.65a1.7 1.7 0 0 1-.62-2.314c.258-.44.625-.716 1.066-.828a1.7 1.7 0 0 1 1.285.18l2.82 1.65a.399.399 0 1 1-.403.688l-2.82-1.649a.907.907 0 0 0-.685-.096.876.876 0 0 0-.544.406c-.148.254-.179.493-.116.724a.904.904 0 0 0 .419.55l2.82 1.65a.399.399 0 0 1-.202.743" fill="#1B282C"/>
        <path d="M53.173 157.292a4.492 4.492 0 0 0-6.237 1.201l-.764 1.128a4.492 4.492 0 0 0 1.203 6.238l2.367 1.602 5.799-8.567-2.368-1.602z" fill="#FAD9C7"/>
        <g transform="translate(45 156.123)">
            <mask id="boch7qeq5f" fill="#fff">
                <use xlink:href="#285wbknime"/>
            </mask>
            <path d="M5.66.797a4.09 4.09 0 0 0-3.394 1.797l-.763 1.128a4.062 4.062 0 0 0-.63 3.069 4.064 4.064 0 0 0 1.725 2.614l2.037 1.38 5.352-7.907L7.95 1.5A4.072 4.072 0 0 0 5.66.797m-.919 10.94a.402.402 0 0 1-.223-.068L2.15 10.066A4.858 4.858 0 0 1 .09 6.942a4.86 4.86 0 0 1 .753-3.667l.763-1.128A4.898 4.898 0 0 1 8.396.838l2.368 1.603a.4.4 0 0 1 .107.555l-5.8 8.566a.4.4 0 0 1-.33.175" fill="#1B282C" mask="url(#boch7qeq5f)"/>
        </g>
        <path d="m53.381 160.556 2.696 1.741a1.277 1.277 0 0 0 1.762-.367l.03-.05a1.276 1.276 0 0 0-.389-1.756l-2.695-1.74" fill="#FAD9C7"/>
        <path d="M56.764 162.9c-.312 0-.624-.087-.904-.268l-2.695-1.74a.4.4 0 0 1 .432-.67l2.696 1.74a.877.877 0 0 0 1.21-.249c.291-.449.169-.99-.24-1.254l-2.694-1.74a.4.4 0 0 1 .432-.67l2.695 1.74a1.673 1.673 0 0 1 .51 2.308c-.34.525-.888.803-1.442.803" fill="#1B282C"/>
        <path d="m51.978 162.73 2.695 1.74a1.277 1.277 0 0 0 1.762-.367l.032-.049a1.276 1.276 0 0 0-.39-1.757l-2.696-1.74" fill="#FAD9C7"/>
        <path d="M55.369 165.076c-.321 0-.637-.093-.913-.27l-2.695-1.741a.398.398 0 1 1 .433-.67l2.695 1.74a.879.879 0 0 0 1.211-.248c.156-.242.196-.473.146-.7a.883.883 0 0 0-.385-.554l-2.696-1.741a.399.399 0 1 1 .432-.67l2.697 1.74c.375.243.634.616.73 1.052.098.437.019.884-.222 1.256-.273.423-.647.678-1.086.77a1.709 1.709 0 0 1-.347.036" fill="#1B282C"/>
        <path d="m50.574 164.903 2.696 1.74a1.277 1.277 0 0 0 1.762-.367l.031-.049a1.276 1.276 0 0 0-.39-1.756l-2.695-1.741" fill="#FAD9C7"/>
        <path d="M53.966 167.25c-.322 0-.637-.093-.913-.272l-2.695-1.74a.399.399 0 0 1 .432-.67l2.696 1.74a.882.882 0 0 0 .664.124.854.854 0 0 0 .547-.372c.154-.24.195-.469.146-.695a.88.88 0 0 0-.386-.56l-2.695-1.74a.399.399 0 1 1 .432-.67l2.696 1.74c.379.245.64.623.734 1.063.093.435.013.877-.226 1.247-.272.42-.646.676-1.085.768a1.709 1.709 0 0 1-.347.036" fill="#1B282C"/>
        <path d="m49.17 167.076 2.696 1.74a1.277 1.277 0 0 0 1.762-.366l.032-.05a1.276 1.276 0 0 0-.39-1.756l-2.696-1.741" fill="#FAD9C7"/>
        <path d="M52.553 169.42a1.66 1.66 0 0 1-.903-.268l-2.695-1.74a.4.4 0 0 1 .432-.671l2.695 1.74a.876.876 0 0 0 1.211-.248c.156-.241.196-.472.146-.7a.88.88 0 0 0-.386-.554l-2.695-1.74a.4.4 0 0 1 .433-.671l2.695 1.74a1.676 1.676 0 0 1 .509 2.31c-.34.524-.887.802-1.442.802M138.583 140.538a.399.399 0 0 1-.395-.346l-1.11-8.326a.4.4 0 1 1 .79-.105l1.111 8.326a.4.4 0 0 1-.396.451" fill="#1B282C"/>
        <g fill-rule="nonzero" fill="#000">
            <use fill-opacity=".2" xlink:href="#ll2a7ka2ag"/>
            <use filter="url(#dxvhqj2ach)" xlink:href="#ll2a7ka2ag"/>
        </g>
    </g>
</svg>
