<svg width="200" height="200" viewBox="0 0 200 200" xmlns="http://www.w3.org/2000/svg" xmlns:xlink="http://www.w3.org/1999/xlink">
    <defs>
        <path id="1j6kfqdgxd" d="M0 0h52.224v73.413H0z"/>
        <path id="an5uatq0lf" d="M0 0h200v100H0z"/>
        <path id="wrtp514kbh" d="M0 0h52.224v73.413H0z"/>
        <filter x="-5.6%" y="-2.8%" width="111.1%" height="111.1%" filterUnits="objectBoundingBox" id="a7dyk2ht4b">
            <feOffset dy="5" in="SourceAlpha" result="shadowOffsetOuter1"/>
            <feGaussianBlur stdDeviation="2.5" in="shadowOffsetOuter1" result="shadowBlurOuter1"/>
            <feComposite in="shadowBlurOuter1" in2="SourceAlpha" operator="out" result="shadowBlurOuter1"/>
            <feColorMatrix values="0 0 0 0 0 0 0 0 0 0 0 0 0 0 0 0 0 0 0.2 0" in="shadowBlurOuter1"/>
        </filter>
        <circle id="dizh5vofxa" cx="90" cy="90" r="90"/>
    </defs>
    <g fill="none" fill-rule="evenodd">
        <g transform="translate(10 10)">
            <mask id="4ucag4wgvc" fill="#fff">
                <use xlink:href="#dizh5vofxa"/>
            </mask>
            <use fill="#000" filter="url(#a7dyk2ht4b)" xlink:href="#dizh5vofxa"/>
            <circle stroke="#D35C9D" stroke-width="2" stroke-linejoin="square" fill="#FFF" cx="90" cy="90" r="89"/>
            <g mask="url(#4ucag4wgvc)">
                <path d="m82.053 58.092 3.046-1.24c1.135-.489 1.8-.222 2.02.168.716 1.03-.313 1.83-.313 1.83-5.059 2.805-5.43 2.982-5.43 2.982s-2.184 1.507-3.795 2.352c-1.609.844 0 0 0 0" fill="#FAD9C7"/>
                <path d="M76.866 65.092a.53.53 0 0 1-.248-1.004l.715-.375c1.565-.821 3.719-2.304 3.74-2.318l.072-.042c.016-.008.524-.264 5.36-2.946.163-.14.545-.554.177-1.083-.118-.204-.565-.332-1.374.017l-3.054 1.244a.531.531 0 1 1-.401-.986l3.045-1.241c1.456-.627 2.357-.177 2.684.4.712 1.018.124 2.066-.45 2.512l-.068.045c-4.32 2.396-5.23 2.88-5.416 2.976-.276.19-2.28 1.558-3.82 2.366l-.715.375a.538.538 0 0 1-.247.06" fill="#462C5F"/>
                <path d="M79.619 62.988c-1.886 1.447-3.76 2.044-5.475 2.87l-4.217 5.468-4.509-5.617 4-4.54 7.123-6.399 12.337-8.043s2.21-1.673 2.806-.342c0 0 2.017 2.362-8.655 11.169 0 0-2.593 2.573-2.91 3.103" fill="#FAD9C7"/>
                <path d="M69.927 71.858a.535.535 0 0 1-.416-.199l-4.508-5.618a.533.533 0 0 1 .016-.685l4-4.538.044-.044 7.122-6.4.065-.05 12.338-8.043c.234-.18 1.61-1.168 2.68-.895.391.1.694.352.879.731.103.158.264.51.211 1.116-.142 1.628-1.817 4.812-8.99 10.731-1.215 1.21-2.615 2.67-2.792 2.967a.532.532 0 0 1-.915-.546c.335-.56 2.552-2.771 2.993-3.209 9.802-8.092 8.612-10.458 8.599-10.48-.063-.053-.02-.019-.054-.093-.064-.14-.133-.17-.195-.186-.424-.11-1.326.374-1.805.734l-12.333 8.042-7.069 6.352-3.683 4.179 3.804 4.74 3.804-4.932a.531.531 0 0 1 .191-.154c.453-.218.916-.42 1.387-.626 1.303-.568 2.652-1.156 3.995-2.187a.532.532 0 1 1 .648.846c-1.446 1.11-2.855 1.724-4.217 2.317-.42.183-.833.363-1.237.556l-4.14 5.367a.53.53 0 0 1-.417.207h-.005z" fill="#462C5F"/>
                <path d="m80.56 55.087 9.236-6.064s1.182-.367.842 1.368c0 0-.065 1.37-2.127 2.726l-5.482 4.436" fill="#FAD9C7"/>
                <path d="M83.03 57.953a.4.4 0 0 1-.252-.71l5.482-4.437c1.869-1.23 1.979-2.426 1.979-2.438.11-.577.051-.85-.04-.932-.06-.055-.18-.05-.244-.04l-9.175 6.025a.402.402 0 0 1-.553-.114.4.4 0 0 1 .115-.554l9.235-6.064.1-.048c.064-.02.63-.181 1.056.2.344.31.446.85.3 1.606-.024.251-.258 1.66-2.302 3.004l-5.451 4.414a.401.401 0 0 1-.25.088" fill="#462C5F"/>
                <path d="M102.437 58.147 99.13 56.93c-1.232-.483-1.933-.173-2.155.253-.73 1.13.402 1.947.402 1.947 5.516 2.82 5.922 2.999 5.922 2.999s2.394 1.533 4.148 2.378c1.755.847 0 0 0 0" fill="#FAD9C7"/>
                <path d="M108.227 65.415a.522.522 0 0 1-.23-.053l-.781-.376c-1.679-.809-3.882-2.205-4.174-2.392-.196-.093-1.19-.58-5.906-2.99l-.068-.044c-.534-.384-1.334-1.437-.54-2.666.297-.574 1.229-1.075 2.798-.461l3.295 1.214a.533.533 0 0 1-.368 1l-3.306-1.22c-.917-.358-1.397-.194-1.5.002-.429.668.074 1.135.215 1.247 5.284 2.702 5.836 2.956 5.856 2.966l.07.037c.023.015 2.385 1.526 4.09 2.347v.001l.78.377a.532.532 0 0 1-.23 1.011" fill="#462C5F"/>
                <path d="M105.225 63.301c2.07 1.48 4.097 2.05 5.965 2.874l3.537 4.35 5.152-5.911-4.202-3.304-7.456-6.922-13.504-8.162s-2.425-1.713-3.018-.265c0 0-2.071 2.601 9.674 11.644 0 0 2.872 2.661 3.23 3.218" fill="#FAD9C7"/>
                <path d="M114.727 71.057h-.01a.529.529 0 0 1-.404-.196l-3.455-4.25c-.447-.194-.904-.375-1.368-.56-1.472-.584-2.996-1.188-4.575-2.316a.533.533 0 0 1 .619-.866c1.473 1.052 2.935 1.633 4.349 2.193.517.206 1.025.406 1.522.626a.537.537 0 0 1 .199.152l3.137 3.86 4.369-5.014-3.76-2.958-7.451-6.912-13.457-8.135c-.576-.403-1.552-.881-2.024-.746-.079.023-.16.067-.226.228l-.077.13c.006 0-1.206 2.583 9.584 10.89.524.484 2.976 2.768 3.35 3.352a.533.533 0 1 1-.895.576c-.22-.345-1.97-2.03-3.143-3.115-7.848-6.04-9.754-9.377-9.965-11.107-.078-.641.08-1.015.182-1.182.181-.402.488-.677.893-.794 1.139-.334 2.726.753 2.903.879l13.473 8.14.087.065 7.457 6.923 4.168 3.276a.534.534 0 0 1 .072.768l-5.152 5.911a.536.536 0 0 1-.402.182" fill="#462C5F"/>
                <path d="m103.926 54.875-10.11-6.157s-1.28-.35-.85 1.496c0 0 .118 1.465 2.377 2.84l6.03 4.552" fill="#FAD9C7"/>
                <path d="M101.373 58.005a.398.398 0 0 1-.24-.081l-6.03-4.551c-2.206-1.34-2.496-2.832-2.53-3.09-.182-.795-.095-1.369.254-1.705.429-.413 1.029-.264 1.096-.245l.102.044 10.109 6.157a.4.4 0 0 1-.416.682l-10.049-6.121c-.08-.01-.217-.012-.29.059-.048.048-.189.256-.024.969l.01.06c0 .007.159 1.296 2.186 2.53l6.064 4.573a.4.4 0 0 1-.242.719" fill="#462C5F"/>
                <path d="M131.857 52.524s-10.589 5.069-11.38 18.428c0 0 1.466 25.734 1.999 34.563 0 0-1.338 8.058-2 12.702l-3.744 18.485 14.457.887 3.438-27.683" fill="#7D97CD"/>
                <path d="M131.19 138.121h-.034l-14.457-.887a.535.535 0 0 1-.489-.638l3.744-18.485c.62-4.358 1.863-11.88 1.986-12.624-.529-8.784-1.98-34.248-1.995-34.505v-.06c.802-13.517 11.574-18.826 11.682-18.878a.532.532 0 1 1 .46.96c-.103.05-10.3 5.1-11.077 17.95.058 1.03 1.48 25.94 1.997 34.529l-.006.118c-.014.081-1.344 8.106-1.998 12.69l-3.628 17.917 13.347.82 3.376-27.188a.533.533 0 0 1 1.056.13l-3.437 27.684a.532.532 0 0 1-.528.467" fill="#462C5F"/>
                <path d="M46.102 57.745s5.056 4.177 6.59 13.207l1.463 34.049s3.194 23.946 5.145 30.28l-9.227.711-8.834-19.66" fill="#D35C9D"/>
                <path d="M50.073 136.524c-.209 0-.399-.122-.485-.314l-8.835-19.66a.532.532 0 1 1 .972-.436l8.68 19.318 8.202-.63c-1.948-7.086-4.854-28.782-4.98-29.731l-1.465-34.062c-1.487-8.685-6.351-12.814-6.4-12.854a.532.532 0 1 1 .68-.82c.211.175 5.225 4.408 6.776 13.528l.006.066 1.461 34.05c.029.19 3.207 23.927 5.125 30.147a.534.534 0 0 1-.468.687l-9.228.71-.04.001z" fill="#462C5F"/>
                <path d="M47.276 123.894s5.666 38.146 5.407 55.655H2.135s.886-43.464 6.612-55.34l38.53-.315z" fill="#6156A2"/>
                <path d="M52.455 177H1.537c-.146 0-.286-.085-.387-.24a1.005 1.005 0 0 1-.15-.572c.037-1.416.963-34.87 6.714-52.284.088-.268.274-.44.478-.442L47.005 123h.003c.235 0 .443.222.512.55.057.267 5.73 27.1 5.471 52.68-.004.426-.242.77-.536.77M3 176h48.998c.123-23.13-4.445-47.078-5.226-51l-37.44.454C4.37 141.251 3.176 170.729 3 176M127.59 129.937v47.718h46.617s2.511-34.857-.476-52l-46.142 4.282z" fill="#462C5F"/>
                <path d="M174.46 178h-46.924c-.296 0-.536-.36-.536-.807V130.04c0-.427.22-.78.503-.805l46.445-4.233c.252-.03.485.226.55.596 2.998 16.893.599 50.27.495 51.683-.03.41-.26.719-.533.719zM128 177h46.062c.334-4.985 2.151-34.474-.405-50L128 131.17V177zM42.826 31.287s3.285-1.227 2.67-5.059c0 0 1.634-13.255-14.995-14.241 0 0-13.719-1.643-16.838 13.775 0 0-1.588 7.25-3.464 13.212-2.413 6.047-5.782 14.362 1.441 18.565l28.38-.012s8.111-.098 5.087-9.7c0 0-1.653-8.752.681-15.557" fill="#462C5F"/>
                <path d="M11.64 58.071a.538.538 0 0 1-.268-.071c-7.578-4.41-4.186-12.911-1.71-19.119l.043-.105c1.834-5.832 3.421-13.055 3.437-13.128 3.18-15.711 17.281-14.207 17.423-14.19 5.665.336 9.898 2.122 12.551 5.308 3.325 3.992 2.986 8.761 2.917 9.45.622 4.157-2.984 5.557-3.021 5.57a.532.532 0 0 1-.374-.996c.125-.048 2.867-1.144 2.333-4.478a.507.507 0 0 1-.003-.148c.006-.05.544-4.868-2.679-8.728-2.459-2.944-6.435-4.599-11.819-4.918-.568-.064-13.303-1.388-16.286 13.349-.017.081-1.615 7.351-3.477 13.267l-.055.141c-2.32 5.813-5.49 13.76 1.134 17.732l28.234-.013c.021 0 2.846-.068 4.318-2.109 1.124-1.558 1.212-3.879.262-6.898l-.016-.061c-.068-.363-1.652-8.969.7-15.828a.533.533 0 0 1 1.008.345c-2.196 6.403-.767 14.697-.667 15.256 1.048 3.346.902 5.977-.43 7.818-1.792 2.473-5.031 2.54-5.168 2.542l-28.387.012z" fill="#462C5F"/>
                <path d="M12.067 55.688a.397.397 0 0 1-.315-.153c-4.89-6.248 3.025-19.06 3.364-19.603a.4.4 0 0 1 .677.424c-.08.129-7.958 12.878-3.412 18.687a.401.401 0 0 1-.314.645M41.678 55.688a.4.4 0 0 1-.318-.64c1.598-2.108.35-6.341.337-6.384a.398.398 0 0 1 .266-.497.398.398 0 0 1 .498.267c.057.189 1.38 4.664-.465 7.096a.396.396 0 0 1-.318.158M14.94 56.396a.398.398 0 0 1-.303-.138c-1.703-1.971-1.102-5.144-1.076-5.278a.402.402 0 0 1 .469-.315.4.4 0 0 1 .315.469c-.006.029-.55 2.928.897 4.602a.4.4 0 0 1-.303.66" fill="#462C5F"/>
                <path d="M46.102 57.745 38.8 55.28l-17.818-.8-13.407 6.272C-2.378 68.419 3.028 87.4 3.028 87.4s2.537 12.528 3.693 25.668c.647 5.795.126 6.414-.41 11.304 0 0 24.013 5.361 38.57.299 1.165-.162 4.965-1.148 4.005-6.798-2.036-14.802 3.806-40.868 3.806-40.868" fill="#D35C9D"/>
                <g transform="translate(1 53.949)">
                    <mask id="cry7pl2afe" fill="#fff">
                        <use xlink:href="#1j6kfqdgxd"/>
                    </mask>
                    <path d="M28.105 73.413c-11.657 0-22.747-2.433-22.91-2.47a.532.532 0 0 1-.413-.577c.125-1.144.249-2.051.359-2.852.36-2.633.54-3.954.051-8.335-1.141-12.97-3.66-25.496-3.686-25.621-.214-.75-5.379-19.379 4.744-27.176l.1-.06L19.756.05a.515.515 0 0 1 .25-.05l17.818.8a.54.54 0 0 1 .145.028l7.303 2.462a.534.534 0 0 1-.34 1.01L37.7 1.86l-17.612-.79-13.235 6.19C-2.64 14.647 2.487 33.12 2.54 33.306c.036.166 2.567 12.748 3.712 25.767.502 4.5.304 5.951-.056 8.586a108.15 108.15 0 0 0-.302 2.345c3.414.703 24.673 4.785 37.812.216l.102-.024c.562-.079 1.967-.393 2.866-1.622.787-1.075 1.018-2.609.687-4.56-2.029-14.743 3.754-40.811 3.812-41.073a.533.533 0 0 1 1.038.232c-.058.26-5.797 26.143-3.798 40.68.38 2.227.084 4.033-.88 5.35-1.111 1.518-2.798 1.93-3.526 2.039-4.685 1.62-10.358 2.171-15.902 2.171" fill="#462C5F" mask="url(#cry7pl2afe)"/>
                </g>
                <path d="M37.207 47.42s-1.119 6.459 1.139 8.811c0 0-1.353 6.105-9.232 5.78 0 0-7.276.012-9.237-5.454 0 0 2.662-1.945 2.662-10.272" fill="#FAD9C7"/>
                <path d="M29.71 62.556c-.201 0-.407-.004-.618-.014-.274-.004-7.652-.052-9.716-5.804a.533.533 0 0 1 .187-.611c.018-.015 2.444-1.987 2.444-9.842a.532.532 0 1 1 1.064 0c0 6.903-1.822 9.597-2.57 10.41 1.978 4.733 8.528 4.784 8.612 4.784 6.468.265 8.286-4.026 8.64-5.116-2.143-2.663-1.117-8.766-1.071-9.033a.533.533 0 0 1 1.05.181c-.298 1.724-.699 6.584.998 8.352.123.128.174.31.136.483-.014.064-1.468 6.21-9.155 6.21" fill="#462C5F"/>
                <path d="M44.733 29.695s-.205 6.753-.845 11.2c0 0-.554 5.655-5.543 9.871 0 0-3.01 2.38-5.965 2.54 0 0-4.346.465-9-4.389 0 0-3.564-3.587-3.766-8.687 0 0-1.661-.734-2.462-2.406 0 0-.967-1.84-.226-3.772 0 0 .984-2.943 3.039-1.253 0 0-.023-12.337 10.889-12.745 0 0 12.267-1.277 13.879 9.64" fill="#FAD9C7"/>
                <path d="M32.059 53.85c-1.1 0-5.002-.329-9.063-4.565-.141-.142-3.565-3.643-3.898-8.722-.558-.311-1.756-1.11-2.426-2.51-.035-.066-1.06-2.06-.243-4.191.021-.065.725-2.118 2.32-2.118.243 0 .489.049.736.146.262-2.94 1.843-12.013 11.349-12.369h-.001c-.01 0 .446-.047 1.186-.047 2.756 0 11.852.732 13.24 10.142l.006.095c-.002.068-.213 6.834-.85 11.259-.02.216-.631 5.895-5.725 10.202-.143.113-3.192 2.497-6.277 2.666-.003 0-.133.012-.354.012m-13.31-21.041c-.816 0-1.314 1.4-1.319 1.414-.648 1.691.186 3.339.194 3.355.71 1.48 2.192 2.159 2.206 2.166a.534.534 0 0 1 .316.465c.192 4.836 3.579 8.298 3.612 8.333 4.384 4.572 8.47 4.243 8.567 4.234 2.78-.15 5.662-2.405 5.69-2.428 4.755-4.02 5.338-9.45 5.343-9.506.603-4.194.82-10.507.842-11.116-1.252-8.29-8.932-9.187-12.18-9.187-.684 0-1.108.043-1.112.044-10.298.387-10.41 11.733-10.41 12.215a.534.534 0 0 1-.87.412c-.325-.266-.62-.401-.88-.401" fill="#462C5F"/>
                <path d="M29.083 20.104s.95-3.198 3.584.78c0 0 7.228 12.708 14.107 11.253 0 0-.602-2.114-.636-5.001 0 0 .636-6.294-3.88-10.537" fill="#462C5F"/>
                <path d="M45.654 32.786c-6.748 0-13.164-11.136-13.45-11.638-1.121-1.694-1.758-1.747-1.929-1.722-.374.055-.637.679-.682.83a.532.532 0 1 1-1.02-.304c.042-.145.45-1.417 1.547-1.58.933-.138 1.912.587 2.991 2.218.086.15 6.73 11.699 13.007 11.11a22.846 22.846 0 0 1-.513-4.558l.002-.06c.006-.06.55-6.09-3.713-10.094a.532.532 0 1 1 .73-.776c4.535 4.26 4.096 10.39 4.046 10.945.037 2.76.61 4.815.615 4.834.041.143.02.295-.055.422a.534.534 0 0 1-.346.245c-.41.086-.821.128-1.23.128M40.293 33.787a.394.394 0 0 1-.213-.062c-1.733-1.094-2.839-.281-2.885-.246a.4.4 0 0 1-.558-.07.396.396 0 0 1 .066-.556c.062-.052 1.57-1.212 3.803.197a.4.4 0 0 1-.213.737M31.016 32.873a.396.396 0 0 1-.213-.062 2.992 2.992 0 0 0-2.878-.026.398.398 0 1 1-.368-.709c1.954-1.016 3.607.017 3.675.062a.399.399 0 0 1-.216.735M19.683 37.82h-.025a.4.4 0 0 1-.374-.423l.03-.502c-.314-.326-.37-.642-.358-.86.024-.4.28-.696.46-.858l.05-.847c-.151-.215-.264-.266-.313-.27-.12.007-.322.247-.421.458a.4.4 0 0 1-.724-.339c.042-.09.427-.875 1.097-.916.412-.022.785.228 1.108.748.043.07.063.152.059.233l-.07 1.16a.404.404 0 0 1-.18.311c-.083.055-.261.22-.269.367-.006.123.12.254.226.342a.4.4 0 0 1 .144.33l-.042.691a.4.4 0 0 1-.398.375M28.374 35.557c-.031.683.395 1.273.951 1.316.554.043 1.03-.475 1.06-1.158.03-.682-.396-1.27-.95-1.316-.556-.043-1.031.474-1.061 1.158M37.27 36.23c-.03.684.394 1.272.95 1.316.554.045 1.03-.473 1.059-1.155.032-.683-.395-1.272-.948-1.316-.556-.045-1.031.473-1.062 1.156" fill="#462C5F"/>
                <path d="M36.372 43.078s-4.287-.408-6.56-.557c0 0 .085 3.29 3.285 3.685 0 0 2.518.415 3.275-3.128" fill="#ED859A"/>
                <path d="M33.339 46.621c-.192 0-.307-.02-.307-.02-3.485-.432-3.619-4.033-3.62-4.07a.401.401 0 0 1 .425-.408c2.254.147 6.53.553 6.574.557a.398.398 0 0 1 .352.48c-.686 3.212-2.794 3.461-3.424 3.461m-3.078-3.668c.147.838.713 2.589 2.884 2.857.026.004.092.013.194.013.576 0 1.922-.244 2.534-2.391-1.072-.1-3.779-.348-5.612-.479M32.993 48.644c-.382 0-.841-.066-1.319-.284a.266.266 0 1 1 .221-.485c.975.447 1.88.12 1.888.118a.267.267 0 0 1 .187.498c-.027.01-.417.153-.977.153M45.23 30.075a.396.396 0 0 1-.248-.086c-4.037-3.207-5.985-7.983-6.066-8.184a.4.4 0 0 1 .742-.298c.018.048 1.954 4.784 5.821 7.857a.399.399 0 0 1-.25.711M33.703 40.53a.4.4 0 0 1-.154-.768l1.066-.444-.21-.874a.398.398 0 0 1 .295-.482c.21-.05.43.08.482.295l.289 1.206a.4.4 0 0 1-.236.461l-1.378.575a.4.4 0 0 1-.154.032" fill="#462C5F"/>
                <path d="M16.142 69.662c3.903 3.196 26.465 17.352 26.465 17.352S58.002 69.56 66.233 61.922c1.981 1.016 6.142 3.849 7.543 7.74-4.275 11.54-19.643 27.43-19.643 27.43-4.864 8.065-13.015 6.467-13.015 6.467S15.496 90.952 10.747 86.41" fill="#D35C9D"/>
                <path d="M42.755 104.208c-1.052 0-1.716-.122-1.74-.126l-.131-.045c-1.05-.516-25.751-12.697-30.506-17.242a.533.533 0 0 1 .736-.769c4.52 4.32 28.716 16.303 30.173 17.022.817.14 7.96 1.116 12.391-6.23l.073-.096c.152-.157 15.173-15.772 19.457-27.06-1.289-3.328-4.776-5.932-6.89-7.092-8.183 7.663-23.16 24.624-23.312 24.796a.533.533 0 0 1-.682.1c-.923-.58-22.636-14.21-26.52-17.392a.531.531 0 1 1 .675-.824c3.555 2.912 23.043 15.195 26.029 17.072 2.192-2.474 15.839-17.808 23.362-24.79a.532.532 0 0 1 .605-.084c.616.316 6.07 3.223 7.802 8.034a.528.528 0 0 1-.002.365C70.08 81.172 55.627 96.309 54.56 97.419c-3.62 5.955-9.047 6.789-11.804 6.789" fill="#462C5F"/>
                <path d="M21.872 53.527c-2.575 1.51-4.686 2.264-4.686 2.264 4.43 5.554 13.891 8.572 13.891 8.572 3.174.966 4.28-.884 4.28-.884 2.518-3.97 4.407-7.96 4.407-7.96-1.811-.471-2.36-.97-2.36-.97" fill="#FAD9C7"/>
                <path d="M32.803 65.177c-.54 0-1.165-.087-1.88-.304-.4-.128-9.674-3.134-14.153-8.75a.534.534 0 0 1 .237-.833c.02-.007 2.099-.758 4.595-2.222a.532.532 0 1 1 .539.918 33.21 33.21 0 0 1-4.07 2.03c4.451 5.017 13.078 7.811 13.169 7.84 2.694.82 3.624-.595 3.664-.655 1.922-3.035 3.492-6.108 4.103-7.343-1.405-.437-1.903-.863-1.961-.915a.533.533 0 0 1 .716-.788c.001 0 .53.431 2.136.849a.532.532 0 0 1 .346.742c-.019.041-1.93 4.065-4.438 8.018-.037.063-.875 1.413-3.003 1.413" fill="#462C5F"/>
                <path d="M38.966 54.961s-3.428 8.57-5.038 9.515c0 0 2.474 1.404 4.43-.719 0 0 2.85-3.705 4.214-8.161l-3.606-.635z" fill="#FEFEFE"/>
                <path d="M35.781 65.463c-1.179 0-2.08-.502-2.117-.524a.533.533 0 0 1-.006-.922c1.058-.62 3.515-6.006 4.813-9.254a.537.537 0 0 1 .588-.327l3.606.636a.532.532 0 0 1 .416.68c-1.376 4.497-4.181 8.174-4.3 8.33-.842.916-1.87 1.381-3 1.381m-.889-1.184c.253.066.558.12.89.12.836 0 1.572-.338 2.185-1.003-.002 0 2.535-3.33 3.91-7.382l-2.58-.454c-.73 1.795-2.837 6.795-4.405 8.719" fill="#462C5F"/>
                <path d="M18.513 55.228s9.153 8.108 14.277 9.339c0 0-.897 2.26-4.448 1.942 0 0-6.098-1.248-13.953-9.53l4.124-1.751z" fill="#FEFEFE"/>
                <path d="M29.006 67.073a7.83 7.83 0 0 1-.71-.033l-.06-.009c-.256-.052-6.353-1.376-14.233-9.686a.533.533 0 0 1 .178-.856l4.124-1.753a.533.533 0 0 1 .56.092c.092.081 9.114 8.036 14.05 9.222a.532.532 0 0 1 .37.713c-.037.095-.956 2.31-4.279 2.31m-.582-1.091c2.016.17 3.056-.566 3.53-1.101-4.813-1.583-12.068-7.754-13.54-9.033l-3.105 1.319c7.113 7.285 12.687 8.714 13.115 8.815" fill="#462C5F"/>
                <path d="M37.254 69.663a1.285 1.285 0 1 1-2.57 0 1.285 1.285 0 0 1 2.57 0" fill="#FEFEFE"/>
                <path d="M35.968 71.347c-.929 0-1.685-.756-1.685-1.684 0-.93.756-1.686 1.685-1.686s1.685.756 1.685 1.686c0 .928-.756 1.684-1.685 1.684m0-2.571a.887.887 0 1 0 .886.887.888.888 0 0 0-.886-.887" fill="#462C5F"/>
                <path d="M39.214 78.3a1.285 1.285 0 1 1-2.57 0 1.285 1.285 0 0 1 2.57 0" fill="#FEFEFE"/>
                <path d="M37.929 79.984c-.93 0-1.686-.755-1.686-1.685 0-.928.756-1.684 1.686-1.684.928 0 1.684.756 1.684 1.684 0 .93-.756 1.685-1.684 1.685m0-2.57a.887.887 0 1 0 0 1.773.887.887 0 0 0 0-1.774M27.03 20.242s-2.782 11.375-12.3 11.375c0 0 4.392-5.92 4.392-9.961" fill="#462C5F"/>
                <path d="M14.73 32.016a.4.4 0 0 1-.32-.637c.042-.058 4.312-5.863 4.312-9.723a.4.4 0 0 1 .799 0c0 3.36-2.846 7.851-4 9.532 8.47-.61 11.094-10.934 11.12-11.04a.402.402 0 0 1 .483-.294.4.4 0 0 1 .293.484c-.028.116-2.968 11.678-12.687 11.678" fill="#462C5F"/>
                <path d="m131.857 52.524 10.118-4.447h19.214l13.263 7.691c9.957 7.847 4.487 26.757 4.487 26.757s-3.013 16.964-3.692 25.851c-.515 4.737-.733 7.822 0 11.248 1.732 4.706-.988 8.235-.988 8.235s-7.555 6.716-24.226 5.823c-17.694 0-22.47-4.296-22.47-4.296s-3.671-2.06-.94-7.178c0-3.956.492-10.934 0-16.644-.067-5.383-2.364-14.495-2.731-22.956" fill="#7D97CD"/>
                <path d="M153.078 134.298c-.99 0-2.011-.027-3.074-.084H150c-17.045.001-22.232-3.959-22.755-4.398-.481-.308-3.79-2.67-1.154-7.74.003-1.163.047-2.595.093-4.107.112-3.734.251-8.38-.091-12.36-.033-2.55-.55-5.841-1.149-9.652-.652-4.145-1.39-8.841-1.585-13.326a.533.533 0 0 1 1.064-.045c.193 4.424.926 9.09 1.573 13.206.605 3.851 1.127 7.178 1.16 9.765.346 4.002.204 8.684.091 12.444-.049 1.63-.091 3.037-.091 4.206 0 .088-.02.174-.063.251-2.458 4.605.598 6.39.73 6.464l.095.068c.045.04 4.935 4.16 22.115 4.16 15.66.836 23.236-5.161 23.835-5.658.297-.41 2.406-3.538.88-7.684l-.02-.073c-.773-3.605-.505-6.86-.01-11.416.671-8.795 3.667-25.718 3.697-25.887l.012-.056c.054-.185 5.243-18.62-4.276-26.166l-13.106-7.6h-18.96l-10.014 4.4a.532.532 0 0 1-.428-.974l10.118-4.447a.522.522 0 0 1 .214-.044h19.214c.093 0 .186.023.267.071l13.263 7.691.062.043c10.026 7.9 4.996 26.18 4.677 27.295-.137.776-3.024 17.178-3.68 25.772-.484 4.454-.746 7.624-.018 11.059 1.787 4.907-.961 8.554-1.08 8.707l-.067.073c-.296.263-6.978 6.041-21.535 6.042M154.846 42.047c7.297-2.334 12.015-9.743 12.18-19.191-.226-1.206-.365-1.98-.365-1.98-3.682-16.138-18.678-14.28-18.678-14.28-15.753 1.761-14.825 15.95-14.825 15.95-.5 4.049 1.288 6.556 1.288 6.556l2.024 3.594c.479 2.452 2.171 2.611 2.092 6.432 5.823 1.611 10.421 4.751 16.284 2.92" fill="#462C5F"/>
                <path d="M151.228 43.136h-.001c-2.915 0-5.58-.98-8.402-2.016-1.412-.52-2.873-1.056-4.405-1.48a.532.532 0 0 1-.39-.524c.045-2.155-.493-3.023-1.062-3.94-.389-.629-.79-1.278-1.003-2.292l-1.97-3.5c-.205-.299-1.852-2.85-1.37-6.859-.04-.99-.272-14.717 15.298-16.457.017-.001.563-.068 1.465-.068 3.384 0 14.669 1.064 17.792 14.757.006.026.144.798.368 2.001l.01.107c-.17 9.723-4.978 17.267-12.55 19.689a12.49 12.49 0 0 1-3.78.582m-12.132-4.411c1.43.416 2.783.913 4.097 1.395 2.73 1.004 5.308 1.95 8.034 1.95 1.182 0 2.313-.172 3.461-.531 7.105-2.273 11.626-9.413 11.804-18.64-.22-1.177-.354-1.93-.354-1.93-2.863-12.548-12.667-13.904-16.75-13.904-.83 0-1.336.06-1.34.06-15.054 1.682-14.394 14.828-14.36 15.387l-.002.1c-.47 3.799 1.177 6.157 1.193 6.18l.03.05 2.025 3.593c.028.05.048.103.06.16.169.872.514 1.43.88 2.02.561.907 1.194 1.928 1.222 4.11" fill="#462C5F"/>
                <path d="M142.126 40.384s1.02 7.139.8 12.383c0 0 .857 3.45 6.746 4.255 0 0 9.16.193 11.191-5.885 0 0-1.442-8.077-.978-13.219" fill="#FAD9C7"/>
                <path d="M149.807 57.556c-.142 0-.164 0-.206-.007-6.177-.843-7.154-4.499-7.193-4.654a.573.573 0 0 1-.014-.15c.216-5.136-.785-12.215-.796-12.286a.531.531 0 1 1 1.055-.15c.009.071 1.013 7.167.808 12.392.15.452 1.227 3.092 6.25 3.789.535-.008 8.693-.051 10.605-5.397-.195-1.123-1.398-8.375-.961-13.223a.54.54 0 0 1 .578-.482c.293.027.51.286.482.578-.452 5.013.959 12.997.973 13.077a.531.531 0 0 1-.02.263c-2.01 6.018-10.306 6.25-11.56 6.25" fill="#462C5F"/>
                <path d="M135.049 25.532s.629 7.53 1.419 12.02c0 0 .917 3.729 4.85 7.44 0 0 3.258 3.541 5.155 3.598 0 0 1.867.634 4.05.165 2.603-.581 4.853-1.836 6.863-4.044 0 0 4.189-3.908 3.968-9.288 0 0 1.7-.795 2.479-2.519 0 0 .953-1.897.129-3.83 0 0-1.1-2.95-3.185-1.175 0 0-1.434-15.54-13.27-14.364 0 0-11.654-1.36-12.458 11.997" fill="#FAD9C7"/>
                <path d="M148.854 49.46a8.89 8.89 0 0 1-2.477-.342c-2.06-.142-5.105-3.391-5.45-3.766-3.975-3.749-4.937-7.514-4.975-7.673-.794-4.497-1.427-12.027-1.433-12.102l-.002-.077c.7-11.632 9.437-12.537 12.098-12.537.45 0 .767.025.893.037.424-.04.845-.06 1.253-.06 9.487 0 11.923 10.892 12.43 14.058.292-.133.584-.2.873-.2 1.599 0 2.365 2.005 2.396 2.09.903 2.113-.107 4.17-.15 4.256-.642 1.417-1.844 2.256-2.415 2.59.052 5.385-3.97 9.203-4.145 9.366-1.978 2.175-4.313 3.55-7.11 4.174a8.486 8.486 0 0 1-1.786.186m-13.272-23.934c.05.585.661 7.682 1.41 11.934.001 0 .933 3.599 4.693 7.145 1.228 1.332 3.587 3.417 4.803 3.452a.547.547 0 0 1 .154.028c.01.003.94.31 2.212.31.537 0 1.06-.054 1.558-.161 2.571-.574 4.726-1.843 6.582-3.882.07-.067 4.036-3.846 3.829-8.907a.532.532 0 0 1 .306-.505c.014-.006 1.533-.741 2.22-2.255.016-.035.836-1.73.123-3.403-.014-.035-.561-1.42-1.408-1.42-.28 0-.597.149-.942.442a.534.534 0 0 1-.875-.357c-.013-.139-1.414-13.943-11.486-13.943-.39 0-.794.02-1.201.06h-.114c-.003 0-.317-.036-.83-.036-3.107 0-10.391 1.122-11.034 11.498" fill="#462C5F"/>
                <path d="M151.498 13.054s-1.29 9.732-9.142 11.895c-2.006 1.58-4.61 1.67-6.58 1.31-1.16-.212-2.697-1.326-2.952-3.473 0 0-1.196-4.99 4.236-11.258" fill="#462C5F"/>
                <path d="M137.684 26.968c-.778 0-1.472-.087-2.003-.184-1.43-.263-3.096-1.597-3.381-3.906-.108-.495-1.02-5.492 4.357-11.698a.534.534 0 0 1 .752-.054c.222.193.245.53.053.752-5.162 5.956-4.13 10.739-4.12 10.786l.01.06c.214 1.79 1.456 2.817 2.521 3.013 1.4.256 4.064.44 6.154-1.207a.545.545 0 0 1 .188-.095c7.414-2.04 8.742-11.358 8.755-11.452a.533.533 0 0 1 1.055.14c-.054.41-1.416 10.027-9.424 12.31-1.585 1.209-3.41 1.535-4.917 1.535M162.656 15.05c-1.29 3.298 4.266 11.568 4.266 11.568-3.059.27-5.831-.68-5.831-.68-6.11-1.526-6.564-11.881-6.564-11.881s-.977-2.54-2.298-.156" fill="#462C5F"/>
                <path d="M165.786 27.066c-2.603 0-4.723-.715-4.825-.75-6.095-1.52-6.775-11.17-6.83-12.171-.15-.358-.473-.847-.746-.866-.22-.007-.516.291-.807.815a.398.398 0 1 1-.698-.386c.472-.852 1-1.268 1.56-1.225.908.063 1.406 1.291 1.46 1.43l.026.127c.005.1.512 10.075 6.262 11.512.054.017 2.366.792 5.025.708-1.255-1.976-5.087-8.392-3.928-11.356a.4.4 0 0 1 .743.292c-.995 2.545 2.713 8.947 4.226 11.2a.4.4 0 0 1-.296.62c-.398.034-.79.05-1.172.05M161.155 33.553a.399.399 0 0 1-.397-.365l-.064-.712a.398.398 0 0 1 .134-.335c.111-.098.241-.242.23-.375-.015-.162-.222-.336-.295-.382a.398.398 0 0 1-.19-.306l-.107-1.196a.398.398 0 0 1 .053-.236c.315-.543.691-.815 1.109-.8.688.02 1.108.816 1.154.907a.4.4 0 0 1-.713.36c-.1-.193-.324-.465-.464-.468h-.002c-.066 0-.185.08-.33.298l.08.886c.188.158.464.455.5.866.02.226-.03.553-.347.9l.047.524a.4.4 0 0 1-.363.432l-.035.002zM141.742 24.115a.399.399 0 0 1-.182-.755c4.939-2.515 5.696-9.8 5.703-9.873a.4.4 0 1 1 .794.076c-.03.317-.81 7.797-6.134 10.509a.394.394 0 0 1-.181.043M134.446 24.968a.4.4 0 0 1-.157-.767c5.457-2.331 5.957-7.552 5.96-7.604a.399.399 0 1 1 .795.066c-.018.234-.547 5.754-6.441 8.272a.4.4 0 0 1-.157.033" fill="#462C5F"/>
                <path d="M161.038 24.143a.396.396 0 0 1-.27-.105c-1.509-1.388-2.31-4.042-2.343-4.155a.4.4 0 0 1 .766-.228c.007.027.773 2.557 2.117 3.796a.398.398 0 0 1-.27.692M140.416 28.532a.399.399 0 0 1-.183-.755c1.99-1.022 3.702-.375 3.773-.347a.4.4 0 0 1-.289.745c-.067-.025-1.467-.536-3.119.312a.393.393 0 0 1-.182.045M149.766 27.64a.397.397 0 0 1-.336-.184.398.398 0 0 1 .119-.55c.058-.038 1.453-.918 3.703-.59a.4.4 0 0 1-.116.79c-1.932-.285-3.143.464-3.156.472a.396.396 0 0 1-.214.062M152.74 30.26c.046.704-.379 1.328-.951 1.396-.574.068-1.075-.447-1.122-1.151-.047-.704.38-1.33.952-1.396.572-.07 1.074.446 1.12 1.15M143.634 31.293c.048.705-.38 1.33-.952 1.398-.572.067-1.075-.448-1.12-1.152-.048-.705.379-1.329.95-1.397.574-.07 1.075.447 1.122 1.15M148.715 43.797a2.98 2.98 0 0 1-.909-.13.266.266 0 0 1 .172-.503c.01.003.955.312 1.95-.179a.266.266 0 1 1 .236.477 3.272 3.272 0 0 1-1.45.335M147.73 35.628l-.144-.027-1.439-.551a.4.4 0 0 1-.247-.454l.26-1.253a.399.399 0 1 1 .782.162l-.191.92 1.122.43a.4.4 0 0 1-.143.773" fill="#462C5F"/>
                <path d="M145.048 38.613s4.575-.152 6.988-.638c0 0-.407 3.408-3.574 3.408 0 0-2.738 0-3.414-2.77" fill="#ED859A"/>
                <path d="M148.462 41.782c-.031 0-3.06-.035-3.801-3.075a.402.402 0 0 1 .07-.337.401.401 0 0 1 .305-.157c.045-.001 4.569-.156 6.92-.63a.398.398 0 0 1 .476.44c-.155 1.3-1.185 3.759-3.97 3.759m-2.878-2.79c.756 1.949 2.776 1.991 2.878 1.991 2.073 0 2.812-1.629 3.061-2.51-1.976.32-4.783.467-5.939.518" fill="#462C5F"/>
                <path d="M173.874 88.39c-7.666 8.216-21.015 15.298-21.015 15.298s-7.02 5.008-14.795-1.56c0 0-20.819-16.863-25.919-29.193 3.47-5.833 6.504-7.625 9.217-10.179 8.302 9.051 23.755 24.258 23.755 24.258s13.828-9.223 15.963-12.77c0 0 6.57-8.91 10.5-10.52" fill="#7D97CD"/>
                <path d="M146.531 106.027c-2.561 0-5.636-.812-8.811-3.494-.845-.684-20.972-17.082-26.066-29.394a.534.534 0 0 1 .034-.476c2.75-4.622 5.266-6.779 7.485-8.68.634-.545 1.234-1.06 1.824-1.614a.517.517 0 0 1 .385-.145.536.536 0 0 1 .372.173c7.55 8.232 21.2 21.734 23.427 23.933 2.18-1.475 13.581-9.27 15.442-12.36.3-.411 6.732-9.092 10.756-10.738a.533.533 0 0 1 .403.986c-3.75 1.534-10.21 10.254-10.274 10.341-2.144 3.567-15.527 12.518-16.096 12.898a.532.532 0 0 1-.668-.064c-.152-.15-15.116-14.883-23.413-23.884-.477.435-.96.849-1.465 1.281-2.224 1.906-4.522 3.877-7.125 8.188 5.165 12.044 25.452 28.569 25.658 28.735 7.38 6.237 14.084 1.589 14.15 1.541l.06-.037c.133-.07 13.36-7.135 20.875-15.19a.532.532 0 1 1 .779.726c-7.477 8.014-20.457 15.032-21.128 15.391-.325.218-2.937 1.882-6.604 1.883" fill="#462C5F"/>
                <path d="M116.73 75.645a.4.4 0 0 1-.335-.617c1.819-2.81 7.308-8.412 7.54-8.649a.4.4 0 0 1 .57.56c-.056.057-5.665 5.782-7.438 8.523a.399.399 0 0 1-.336.183M91.979 69.414s2.862-4.784 9.787-2.172c0 0 4.661 1.942 5.85 8.962 0 0 .597 4.976 2.205 6.256 0 0 1.845 1.733 2.796-.013 0 0 .166 3.998-4.423 3.868 0 0-3.69.72-4.82-5.195" fill="#462C5F"/>
                <path d="M107.82 86.874a4.05 4.05 0 0 1-2.267-.71c-1.339-.907-2.248-2.569-2.702-4.944a.532.532 0 1 1 1.046-.2c.4 2.086 1.156 3.52 2.252 4.261.995.673 1.933.513 1.943.512l.117-.01c1.304.034 2.307-.283 2.967-.952.342-.347.557-.747.69-1.118l-.121.023c-1.116.178-2.171-.777-2.289-.888-1.697-1.348-2.306-6.049-2.37-6.58-1.121-6.628-5.48-8.516-5.525-8.535-6.384-2.407-9.018 1.777-9.127 1.957a.532.532 0 0 1-.913-.548c.031-.052 3.177-5.136 10.432-2.398.219.09 4.964 2.145 6.187 9.372.163 1.348.835 4.99 2.013 5.928.23.213.917.726 1.425.641.082-.013.332-.054.572-.493a.532.532 0 0 1 .999.232c.003.076.06 1.861-1.215 3.155-.867.878-2.117 1.304-3.706 1.27-.078.01-.22.025-.408.025" fill="#462C5F"/>
                <path d="m80.983 100.951-4.431 1.188s-4.128.533-6.086 12.909l5.996 5.977-1.967 21.053-23.885 45.497h76.7l-24.239-46.032-2.004-23.52 6.86-2.48s-1.323-10.536-6.35-13.198L99 101.443l-18.017-.492z" fill="#ED859A"/>
                <path d="M52.61 185.108a.533.533 0 0 1-.517-.662l21.885-42.497 1.91-20.743-5.798-5.781a.53.53 0 0 1-.15-.46c1.916-12.102 5.876-13.242 6.501-13.346l4.405-1.181a.532.532 0 1 1 .275 1.028l-4.432 1.188-.07.014c-.025.005-3.725.791-5.584 12.195l5.803 5.786a.532.532 0 0 1 .148.47l-1.967 21.053-21.727 41.87h71.326l-22.062-42.363-.011-.059-2.004-23.52a.531.531 0 0 1 .345-.578l6.45-2.332c-.308-1.95-1.827-10.12-5.973-12.356l-2.539-.888a.534.534 0 0 1-.327-.679.534.534 0 0 1 .68-.326l2.577.902.073.033c5.21 2.76 6.572 13.16 6.628 13.6a.531.531 0 0 1-.347.567l-6.45 2.332 1.936 23.06 22.23 43.004a.535.535 0 0 1-.515.669h-72.7zM104.512 83.143c0 7.995-6.547 14.474-14.62 14.474-8.074 0-14.62-6.48-14.62-14.474v-2.394c0-7.995 6.546-14.475 14.62-14.475 8.073 0 14.62 6.48 14.62 14.475v2.394z" fill="#462C5F"/>
                <path d="M89.892 98.15c-8.355 0-15.152-6.733-15.152-15.008V80.75c0-8.276 6.797-15.007 15.152-15.007 8.356 0 15.153 6.731 15.153 15.007v2.393c0 8.275-6.797 15.008-15.153 15.008m0-31.343c-7.767 0-14.087 6.254-14.087 13.942v2.393c0 7.69 6.32 13.943 14.087 13.943 7.768 0 14.088-6.254 14.088-13.943V80.75c0-7.688-6.32-13.942-14.088-13.942" fill="#462C5F"/>
                <path d="M95.055 94.96s-1.196 4.827 1.747 6.49c0 0-1.526 3.387-7.734 3.164 0 0-5.731.01-7.277-3.72 0 0 2.936-.03 2.015-6.085" fill="#FAD9C7"/>
                <path d="M89.65 105.024c-.194 0-.392-.003-.596-.01h-.006c-.299 0-6.007-.062-7.626-3.968a.401.401 0 0 1 .365-.553c.017 0 .553-.027 1.032-.605.523-.63 1.05-2.015.593-5.02a.4.4 0 0 1 .79-.12c.406 2.673.14 4.584-.793 5.68-.352.413-.736.63-1.04.741 1.677 3.011 6.646 3.046 6.698 3.046 4.81.165 6.661-1.86 7.195-2.635-2.74-1.943-1.643-6.515-1.593-6.716a.4.4 0 1 1 .774.192c-.011.045-1.087 4.554 1.556 6.047a.4.4 0 0 1 .167.512c-.064.143-1.607 3.409-7.515 3.409" fill="#462C5F"/>
                <path d="M103.364 84.648c-.806-1.336-1.738-1.227-2.242-1.03.002-.627 0-1.208-.005-1.73h-1.369c-2.164-.76-4.472-5.38-4.472-5.38-1.3 1.57-.612 4.736-.612 4.736h-7.045c-.603-1.077-1.018-3.73-1.018-3.73-1.22 1.911-1.404 3.73-1.404 3.73-2.266-.05-5.042-.034-6.668-.019-.12 1.429.004 2.448.004 2.448-1.977-1.36-2.716 1.244-2.716 1.244-.577 1.714.41 3.262.41 3.262.824 1.41 2.388 1.961 2.388 1.961.465 4.413 3.93 7.344 3.93 7.344 4.17 3.33 7.657 2.98 7.657 2.98 3.253.01 6.012-2.366 6.012-2.366 3.83-3.368 4.542-6.725 4.67-8.043 1.14-.339 1.894-1.311 1.894-1.311 1.6-1.996.586-4.096.586-4.096" fill="#FAD9C7"/>
                <path d="M89.9 100.874c-1.128 0-4.127-.3-7.605-3.078-.152-.128-3.48-2.99-4.049-7.376-.499-.223-1.665-.845-2.364-2.04-.037-.057-1.074-1.717-.443-3.59.017-.06.557-1.909 2.021-1.909.204 0 .413.038.626.113a15.12 15.12 0 0 1 .046-1.802.398.398 0 0 1 .394-.366c.793-.007 1.862-.015 3.011-.015 1.252 0 2.366.009 3.32.026a10.14 10.14 0 0 1 1.408-3.538.4.4 0 0 1 .731.154c.003.024.36 2.285.868 3.392h6.325c-.144-.993-.322-3.262.78-4.592a.4.4 0 0 1 .351-.143.4.4 0 0 1 .313.22c.615 1.229 2.55 4.52 4.187 5.16h1.298c.219 0 .397.175.399.395.004.38.005.79.006 1.227.066-.007.134-.01.2-.01.536 0 1.314.232 1.984 1.34.063.128 1.12 2.383-.618 4.552-.027.035-.733.933-1.836 1.357-.198 1.494-1.061 4.781-4.775 8.048-.12.102-2.901 2.464-6.255 2.464h.002c-.002 0-.119.011-.325.011M77.46 83.68c-.853 0-1.255 1.332-1.26 1.346-.515 1.534.355 2.923.363 2.937.75 1.283 2.17 1.796 2.184 1.8a.402.402 0 0 1 .265.335c.443 4.206 3.757 7.054 3.79 7.082 3.364 2.685 6.284 2.896 7.098 2.896.161 0 .253-.008.262-.01l.06-.002c3.053.001 5.705-2.246 5.732-2.269 3.727-3.277 4.413-6.532 4.533-7.778a.4.4 0 0 1 .284-.344c.996-.297 1.685-1.166 1.692-1.174 1.43-1.784.55-3.659.542-3.677-.479-.788-1.091-1.083-1.737-.832a.4.4 0 0 1-.545-.372c.001-.472.001-.917-.002-1.33h-.973l-.133-.023c-1.812-.637-3.637-3.64-4.367-4.96-.688 1.507-.2 3.828-.193 3.854a.4.4 0 0 1-.391.485h-7.045a.4.4 0 0 1-.348-.205c-.377-.671-.676-1.876-.86-2.763-.684 1.418-.815 2.594-.817 2.609a.4.4 0 0 1-.397.358h-.008c-1.02-.022-2.25-.034-3.652-.034-.977 0-1.896.006-2.636.012-.068 1.175.027 1.995.028 2.004a.398.398 0 0 1-.621.378c-.312-.215-.597-.323-.848-.323" fill="#462C5F"/>
                <path d="M95.66 83.965a.398.398 0 0 1-.15-.03c-1.564-.637-2.79-.06-2.84-.035a.4.4 0 0 1-.535-.183.398.398 0 0 1 .18-.533c.065-.032 1.585-.765 3.496.012a.4.4 0 0 1-.15.77M78.527 88.495a.4.4 0 0 1-.4-.399v-.407c-.305-.275-.375-.558-.375-.76 0-.357.214-.635.376-.793v-.687c-.138-.157-.236-.195-.27-.19-.106.013-.272.245-.333.392a.4.4 0 0 1-.737-.307c.034-.082.351-.801.974-.877.388-.049.751.156 1.085.605a.398.398 0 0 1 .079.238v1.008c0 .131-.063.253-.17.328-.084.06-.205.197-.205.284.001.06.077.15.205.239.106.074.17.197.17.327v.6a.4.4 0 0 1-.399.4M101.056 88.495a.4.4 0 0 1-.399-.399v-.6c0-.13.063-.253.17-.327.126-.088.204-.18.205-.239.001-.087-.122-.224-.207-.285a.407.407 0 0 1-.168-.327V85.31c0-.087.027-.17.079-.24.334-.448.698-.653 1.087-.603.622.076.938.795.972.877a.399.399 0 0 1-.735.309c-.075-.173-.237-.382-.335-.394-.044-.002-.134.035-.27.19v.686c.162.16.376.437.376.794 0 .202-.07.485-.376.76v.407a.4.4 0 0 1-.399.4M93.04 86.63c0 .622.408 1.123.912 1.123.503 0 .911-.501.911-1.123 0-.618-.408-1.12-.91-1.12-.505 0-.914.502-.914 1.12M84.245 83.965a.4.4 0 0 1-.15-.77c1.911-.777 3.43-.043 3.494-.01a.399.399 0 1 1-.354.715c-.054-.026-1.277-.6-2.84.036-.048.02-.1.03-.15.03M87.12 86.63c0 .622-.41 1.123-.915 1.123-.503 0-.912-.501-.912-1.123 0-.618.409-1.12.912-1.12.505 0 .914.502.914 1.12M90.187 96.64c-.35 0-.763-.06-1.197-.247a.267.267 0 0 1 .212-.488c.933.405 1.765.08 1.773.076a.266.266 0 1 1 .198.494c-.025.01-.42.165-.986.165M90.085 90.192a.398.398 0 0 1-.236-.721l.411-.3-.245-.905a.4.4 0 0 1 .772-.208l.315 1.169a.4.4 0 0 1-.15.426l-.63.462a.4.4 0 0 1-.237.077" fill="#462C5F"/>
                <path d="M93.111 92.054s-3.943-.074-6.027-.051c0 0-.52 2.93 3.252 3.16 0 0 2.812-.005 2.775-3.11" fill="#ED859A"/>
                <path d="m90.336 95.563-.025-.001c-1.387-.085-2.404-.526-3.023-1.311-.813-1.033-.606-2.266-.597-2.318a.4.4 0 0 1 .39-.33c2.07-.021 6.003.05 6.037.051a.4.4 0 0 1 .392.394c.013 1.08-.29 1.942-.901 2.561-.928.94-2.218.954-2.273.954m-2.875-3.164c.006.34.084.89.46 1.365.47.592 1.286.928 2.423 1 .109-.004 1.05-.056 1.701-.721.382-.39.601-.926.654-1.598-.986-.016-3.545-.054-5.238-.046M103.046 80.25h-.004c-2.868-.03-4.212-5.383-4.268-5.61a.4.4 0 0 1 .776-.19c.34 1.384 1.632 4.983 3.5 5.001a.4.4 0 0 1-.004.799M91.35 81.447a.399.399 0 0 1-.346-.2c-.866-1.498-.673-5.544-.663-5.715a.4.4 0 0 1 .798.04c-.057 1.102-.065 4.2.557 5.276a.399.399 0 0 1-.345.599M77.558 81.093h-.012a.398.398 0 0 1-.387-.412c.141-4.516 2.958-6.989 3.078-7.092a.4.4 0 0 1 .521.605c-.026.023-2.672 2.36-2.801 6.512a.4.4 0 0 1-.4.387M82.239 81.447a.4.4 0 0 1-.4-.4c0-1.255.704-3.16.733-3.24a.4.4 0 0 1 .749.279c-.007.017-.683 1.85-.683 2.962a.4.4 0 0 1-.399.399M104.793 73.984a.398.398 0 0 1-.367-.243c-1.668-3.92-5.373-4.188-5.411-4.19a.4.4 0 0 1 .048-.798c.172.01 4.239.306 6.098 4.676a.399.399 0 0 1-.368.555M109.755 84.836l-.12-.003c-1.337-.067-2.106-1.24-2.139-1.291a.4.4 0 0 1 .671-.433c.01.016.594.884 1.514.927.775.035 1.592-.492 2.448-1.568a.4.4 0 0 1 .625.497c-.99 1.242-1.997 1.871-3 1.871" fill="#462C5F"/>
                <path d="M96.282 99.772s-1.205 4.653-6.5 4.848c0 0 2.246 3.071 4.63 2.366 0 0 2.036-.435 2.036-2.116 0 0 1.734.408 2.705-.921 0 0 .822-.76.766-2.496l-3.637-1.681z" fill="#FEFEFE"/>
                <path d="M93.682 107.49c-2.27 0-4.144-2.526-4.223-2.634a.397.397 0 0 1-.036-.41.397.397 0 0 1 .344-.225c4.941-.182 6.118-4.505 6.13-4.549a.399.399 0 0 1 .553-.262l3.637 1.682a.4.4 0 0 1 .232.349c.054 1.718-.693 2.592-.862 2.768-.54.723-1.39 1.12-2.396 1.12-.094 0-.18-.004-.258-.01-.255 1.28-1.575 1.901-2.307 2.057a2.896 2.896 0 0 1-.814.114m-3.093-2.535c.639.684 1.829 1.737 3.093 1.737.21 0 .418-.03.618-.09.098-.021 1.748-.4 1.748-1.732a.4.4 0 0 1 .49-.388c.001 0 .216.048.523.048.536 0 1.276-.142 1.77-.817l.051-.058c.024-.022.615-.61.64-1.945l-3.006-1.39c-.451 1.147-1.99 4.138-5.927 4.635" fill="#462C5F"/>
                <path d="M82.664 99.772s1.208 4.653 6.502 4.848c0 0-2.245 3.071-4.63 2.366 0 0-2.033-.435-2.033-2.116 0 0-1.737.408-2.705-.921 0 0-.824-.76-.768-2.496l3.634-1.681z" fill="#FEFEFE"/>
                <path d="M85.267 107.49c-.286 0-.57-.041-.844-.122-.704-.15-2.02-.77-2.275-2.049a3.33 3.33 0 0 1-.26.01c-1.006 0-1.855-.397-2.394-1.12-.172-.177-.918-1.051-.863-2.768a.4.4 0 0 1 .232-.35l3.634-1.68a.398.398 0 0 1 .554.26 6.416 6.416 0 0 0 6.13 4.55.399.399 0 0 1 .308.635c-.078.108-1.952 2.634-4.222 2.634zm-2.765-3.018a.4.4 0 0 1 .4.398c0 1.342 1.701 1.722 1.718 1.725.23.067.437.097.647.097 1.265 0 2.454-1.053 3.091-1.737-3.936-.497-5.475-3.488-5.926-4.635l-3.005 1.39c.025 1.335.617 1.922.644 1.948l.05.055c.49.675 1.232.817 1.768.817.307 0 .523-.048.525-.049l.088-.009z" fill="#462C5F"/>
                <path d="M73.776 104.625 64.14 120.66s-2.96 3.625.975 7.663c0 0 2.797 2.175 6.7-.074l4.736-3.147" fill="#ED859A"/>
                <path d="M68.262 129.803c-2.076 0-3.392-.995-3.474-1.06l-.054-.048c-3.999-4.103-1.35-7.913-1.034-8.334l9.62-16.01a.532.532 0 0 1 .913.548l-9.636 16.035-.044.063c-.107.132-2.586 3.303.914 6.925.288.206 2.705 1.812 6.08-.135l4.71-3.128a.531.531 0 1 1 .589.887l-4.738 3.145c-1.447.835-2.752 1.112-3.846 1.112" fill="#462C5F"/>
                <path d="m105.703 107.48 7.293 13.18s2.959 3.625-.976 7.663c0 0-2.795 2.175-6.699-.074l-4.767-3.147" fill="#ED859A"/>
                <path d="M108.866 129.808c-1.087 0-2.379-.273-3.81-1.099l-4.795-3.162a.533.533 0 0 1 .586-.889l4.767 3.146c3.345 1.927 5.759.33 6.054.118 3.52-3.644 1.023-6.793.915-6.926l-.053-.078-7.293-13.18a.533.533 0 0 1 .932-.516l7.274 13.147c.341.459 2.932 4.248-1.042 8.326l-.054.048c-.082.065-1.405 1.065-3.481 1.065" fill="#462C5F"/>
                <path d="M102.904 104.956s-2.7-2.854-8.1-.908c0 0-3.854 1.884-5.656 4.997-1.8-3.113-5.656-4.997-5.656-4.997-5.4-1.946-8.098.908-8.098.908-3.727 2.988-2.658 7.56-2.658 7.56.376 3.504 3.558 7.496 3.558 7.496 2.442 3.634 12.854 12.066 12.854 12.066s10.413-8.432 12.857-12.066c0 0 3.178-3.992 3.554-7.495 0 0 1.071-4.573-2.655-7.56" fill="#D35C9D"/>
                <path d="M89.148 132.61a.533.533 0 0 1-.334-.118c-.428-.346-10.503-8.525-12.962-12.184-.108-.132-3.24-4.097-3.642-7.704-.102-.473-.96-4.986 2.826-8.043.242-.239 1.86-1.725 4.862-1.725 1.196 0 2.467.24 3.775.71l.053.023c.15.074 3.452 1.71 5.422 4.492 1.97-2.782 5.272-4.418 5.423-4.492l.053-.023c1.308-.47 2.578-.71 3.774-.71 3.002 0 4.622 1.486 4.862 1.725 3.787 3.057 2.929 7.57 2.826 8.043-.403 3.607-3.53 7.572-3.665 7.74-2.435 3.623-12.51 11.802-12.938 12.148a.53.53 0 0 1-.335.119m-9.25-28.71c-2.713 0-4.063 1.365-4.12 1.423l-.051.048c-3.426 2.745-2.482 6.981-2.472 7.024l.01.065c.354 3.304 3.414 7.18 3.446 7.219 2.148 3.194 10.64 10.237 12.437 11.71 1.8-1.473 10.288-8.512 12.416-11.676.056-.073 3.111-3.949 3.466-7.253l.01-.065c.04-.174.942-4.29-2.47-7.024l-.053-.05c-.054-.056-1.405-1.421-4.119-1.421-1.065 0-2.202.214-3.383.638-.324.163-3.782 1.966-5.406 4.773-.19.329-.73.329-.921 0-1.624-2.807-5.083-4.61-5.406-4.773-1.181-.424-2.32-.638-3.384-.638" fill="#462C5F"/>
                <path d="M98.992 105.792a.8.8 0 0 0-.17 1.578c.023.006 2.32.549 2.925 3.265.007.033.522 3.354-2.556 6.534a.799.799 0 0 0 1.148 1.11c3.633-3.752 3.012-7.74 2.975-7.95-.83-3.737-4.009-4.487-4.144-4.517a.819.819 0 0 0-.178-.02" fill="#F8D3D7"/>
                <path d="M77.36 118.36a.965.965 0 0 1-.335 1.324l-2.007 1.188a.965.965 0 1 1-.985-1.66l2.005-1.19a.962.962 0 0 1 1.321.338" fill="#FAD9C7"/>
                <path d="M74.525 121.407c-.48 0-.93-.256-1.174-.669a1.36 1.36 0 0 1 .481-1.872l2.002-1.187c.626-.372 1.505-.145 1.87.48.186.31.24.676.15 1.031-.09.354-.312.65-.625.837l-2.009 1.189c-.21.124-.451.19-.695.19m2.006-3.12a.57.57 0 0 0-.29.08l-2.004 1.19a.563.563 0 0 0-.199.777c.153.255.515.35.775.196l2.009-1.188a.56.56 0 0 0 .257-.347.56.56 0 0 0-.062-.429.56.56 0 0 0-.486-.28" fill="#462C5F"/>
                <path d="M78.296 119.937a.972.972 0 0 1-.338 1.328l-2.003 1.185a.97.97 0 0 1-1.326-.34.97.97 0 0 1 .337-1.324l2.006-1.186a.969.969 0 0 1 1.324.337" fill="#FAD9C7"/>
                <path d="M75.463 122.983c-.48 0-.932-.256-1.177-.667a1.373 1.373 0 0 1 .474-1.872l2.01-1.189c.63-.369 1.5-.142 1.87.478.38.648.166 1.488-.476 1.873l-2.006 1.188c-.212.124-.452.19-.695.19m2.001-3.12a.57.57 0 0 0-.29.08l-2.005 1.186a.57.57 0 0 0-.197.777c.155.26.513.355.78.199l2.004-1.186a.569.569 0 0 0-.292-1.055" fill="#462C5F"/>
                <path d="M79.232 121.518a.961.961 0 0 1-.34 1.32l-2.002 1.188a.96.96 0 0 1-1.323-.336.96.96 0 0 1 .338-1.322l2.002-1.19a.967.967 0 0 1 1.325.34" fill="#FAD9C7"/>
                <path d="M76.393 124.563c-.48 0-.93-.257-1.171-.671a1.354 1.354 0 0 1-.148-1.037c.09-.352.314-.649.629-.833l2-1.188c.63-.372 1.502-.144 1.872.481.186.313.239.681.148 1.036-.09.352-.314.649-.627.833l-2.003 1.185a1.362 1.362 0 0 1-.7.194m2.005-3.12c-.1 0-.2.026-.288.078l-2.001 1.19a.56.56 0 0 0-.199.775.57.57 0 0 0 .774.198l2.006-1.189a.56.56 0 0 0 .26-.344.565.565 0 0 0-.551-.709" fill="#462C5F"/>
                <path d="M76.551 125.102a.823.823 0 0 0 1.123.286l1.694-1.004a.82.82 0 0 0-.83-1.41l-1.7 1.008a.821.821 0 0 0-.287 1.12" fill="#FAD9C7"/>
                <path d="M77.256 125.902a1.23 1.23 0 0 1-1.048-.594 1.227 1.227 0 0 1 .427-1.67l1.699-1.007c.56-.33 1.336-.126 1.665.428.34.577.148 1.325-.426 1.668l-1.696 1.005c-.19.112-.403.17-.62.17m1.694-2.641a.42.42 0 0 0-.21.057l-1.699 1.006a.424.424 0 0 0-.146.579.418.418 0 0 0 .575.141l1.693-1.003a.42.42 0 0 0-.213-.78M67.185 121.096a.4.4 0 0 1-.084-.79l6.848-1.485a.4.4 0 0 1 .17.78l-6.849 1.486-.085.009z" fill="#462C5F"/>
                <path d="M99.745 118.36a.966.966 0 0 0 .335 1.324l2.007 1.188a.967.967 0 0 0 1.325-.336.962.962 0 0 0-.34-1.324l-2.004-1.19a.963.963 0 0 0-1.323.338" fill="#FAD9C7"/>
                <path d="M102.58 121.407c-.244 0-.485-.066-.696-.191l-2.007-1.188a1.36 1.36 0 0 1-.626-.838c-.09-.354-.036-.72.151-1.035.365-.62 1.244-.848 1.87-.476l2.003 1.189a1.365 1.365 0 0 1-.695 2.539m-2.006-3.121a.558.558 0 0 0-.485.276.563.563 0 0 0-.063.432.56.56 0 0 0 .257.347l2.008 1.187a.577.577 0 0 0 .778-.197.568.568 0 0 0 .06-.434.551.551 0 0 0-.259-.34l-2.006-1.192a.571.571 0 0 0-.29-.08" fill="#462C5F"/>
                <path d="M98.81 119.937a.971.971 0 0 0 .337 1.328l2.004 1.185a.97.97 0 0 0 1.325-.34.97.97 0 0 0-.337-1.324l-2.005-1.186a.968.968 0 0 0-1.324.337" fill="#FAD9C7"/>
                <path d="M101.644 122.983c-.244 0-.484-.065-.695-.19l-2.005-1.186a1.375 1.375 0 0 1-.478-1.873c.368-.621 1.242-.846 1.87-.48l2.006 1.189c.646.389.86 1.228.477 1.871a1.373 1.373 0 0 1-1.175.67m-2.002-3.12a.568.568 0 0 0-.289 1.057l2.001 1.186a.573.573 0 0 0 .78-.2.572.572 0 0 0-.201-.779l-2.003-1.185a.57.57 0 0 0-.288-.078" fill="#462C5F"/>
                <path d="M97.873 121.518a.962.962 0 0 0 .34 1.32l2.003 1.188a.96.96 0 0 0 1.323-.336.959.959 0 0 0-.34-1.322l-2.001-1.19a.967.967 0 0 0-1.325.34" fill="#FAD9C7"/>
                <path d="M100.712 124.563c-.247 0-.489-.067-.701-.194l-2.002-1.186a1.353 1.353 0 0 1-.627-.833 1.355 1.355 0 0 1 .147-1.036c.372-.623 1.247-.851 1.872-.481l2.003 1.192c.312.181.537.478.627.831a1.35 1.35 0 0 1-.15 1.04c-.24.41-.689.667-1.17.667m-2.004-3.12a.565.565 0 0 0-.293 1.051l2.005 1.189a.57.57 0 0 0 .774-.193.563.563 0 0 0-.194-.777l-2.006-1.193a.563.563 0 0 0-.286-.078" fill="#462C5F"/>
                <path d="M100.554 125.102a.822.822 0 0 1-1.122.286l-1.694-1.004a.819.819 0 1 1 .83-1.41l1.699 1.008c.386.228.514.73.287 1.12" fill="#FAD9C7"/>
                <path d="M99.849 125.902c-.216 0-.43-.058-.619-.169l-1.696-1.006a1.223 1.223 0 0 1-.43-1.667c.332-.556 1.107-.758 1.667-.43l1.7 1.008c.573.34.765 1.086.428 1.665a1.229 1.229 0 0 1-1.05.599m-1.695-2.641a.418.418 0 0 0-.211.78l1.693 1.004c.192.113.46.046.576-.148a.422.422 0 0 0-.148-.572l-1.7-1.007a.415.415 0 0 0-.21-.057M110.138 121.407l-.1-.012-7.064-1.796a.399.399 0 1 1 .196-.775l7.065 1.797a.399.399 0 0 1-.097.786M147.877 59.792l-.1-.012c-8.975-2.293-7.82-9.14-7.807-9.21a.4.4 0 0 1 .786.145c-.046.251-1.012 6.188 7.22 8.29a.4.4 0 0 1-.099.786M151.328 60.146a.4.4 0 0 1-.022-.798c.1-.006 10.125-.657 12.075-7.84a.399.399 0 1 1 .77.208c-2.101 7.743-12.693 8.424-12.8 8.43h-.023z" fill="#462C5F"/>
            </g>
        </g>
        <path d="M11 100c0 49.153 39.847 89 89 89s89-39.847 89-89" stroke="#D35C9D" stroke-width="2"/>
        <g>
            <mask id="e9mfv9jhzg" fill="#fff">
                <use xlink:href="#an5uatq0lf"/>
            </mask>
            <g mask="url(#e9mfv9jhzg)">
                <path d="m92.053 68.092 3.046-1.24c1.135-.489 1.8-.222 2.02.168.716 1.03-.313 1.83-.313 1.83-5.059 2.805-5.43 2.982-5.43 2.982s-2.184 1.507-3.795 2.352c-1.609.844 0 0 0 0" fill="#FAD9C7"/>
                <path d="M86.866 75.092a.53.53 0 0 1-.248-1.004l.715-.375c1.565-.821 3.719-2.304 3.74-2.318l.072-.042c.016-.008.524-.264 5.36-2.946.163-.14.545-.554.177-1.083-.118-.204-.565-.332-1.374.017l-3.054 1.244a.531.531 0 1 1-.401-.986l3.045-1.241c1.456-.627 2.357-.177 2.684.4.712 1.018.124 2.066-.45 2.512l-.068.045c-4.32 2.396-5.23 2.88-5.416 2.976-.276.19-2.28 1.558-3.82 2.366l-.715.375a.538.538 0 0 1-.247.06" fill="#462C5F"/>
                <path d="M89.619 72.988c-1.886 1.447-3.76 2.044-5.475 2.87l-4.217 5.468-4.509-5.617 4-4.54 7.123-6.399 12.337-8.043s2.21-1.673 2.806-.342c0 0 2.017 2.362-8.655 11.169 0 0-2.593 2.573-2.91 3.103" fill="#FAD9C7"/>
                <path d="M79.927 81.858a.535.535 0 0 1-.416-.199l-4.508-5.618a.533.533 0 0 1 .016-.685l4-4.538.044-.044 7.122-6.4.065-.05 12.338-8.043c.234-.18 1.61-1.168 2.68-.895.391.1.694.352.879.731.103.158.264.51.211 1.116-.142 1.628-1.817 4.812-8.99 10.731-1.215 1.21-2.615 2.67-2.792 2.967a.532.532 0 0 1-.915-.546c.335-.56 2.552-2.771 2.993-3.209 9.802-8.092 8.612-10.458 8.599-10.48-.063-.053-.02-.019-.054-.093-.064-.14-.133-.17-.195-.186-.424-.11-1.326.374-1.805.734l-12.333 8.042-7.069 6.352-3.683 4.179 3.804 4.74 3.804-4.932a.531.531 0 0 1 .191-.154c.453-.218.916-.42 1.387-.626 1.303-.568 2.652-1.156 3.995-2.187a.532.532 0 1 1 .648.846c-1.446 1.11-2.855 1.724-4.217 2.317-.42.183-.833.363-1.237.556l-4.14 5.367a.53.53 0 0 1-.417.207h-.005z" fill="#462C5F"/>
                <path d="m90.56 65.087 9.236-6.064s1.182-.367.842 1.368c0 0-.065 1.37-2.127 2.726l-5.482 4.436" fill="#FAD9C7"/>
                <path d="M93.03 67.953a.4.4 0 0 1-.252-.71l5.482-4.437c1.869-1.23 1.979-2.426 1.979-2.438.11-.577.051-.85-.04-.932-.06-.055-.18-.05-.244-.04l-9.175 6.025a.402.402 0 0 1-.553-.114.4.4 0 0 1 .115-.554l9.235-6.064.1-.048c.064-.02.63-.181 1.056.2.344.31.446.85.3 1.606-.024.251-.258 1.66-2.302 3.004l-5.451 4.414a.401.401 0 0 1-.25.088" fill="#462C5F"/>
                <path d="m112.437 68.147-3.306-1.218c-1.232-.483-1.933-.173-2.155.253-.73 1.13.402 1.947.402 1.947 5.516 2.82 5.922 2.999 5.922 2.999s2.394 1.533 4.148 2.378c1.755.847 0 0 0 0" fill="#FAD9C7"/>
                <path d="M118.227 75.415a.522.522 0 0 1-.23-.053l-.781-.376c-1.679-.809-3.882-2.205-4.174-2.392-.196-.093-1.19-.58-5.906-2.99l-.068-.044c-.534-.384-1.334-1.437-.54-2.666.297-.574 1.229-1.075 2.798-.461l3.295 1.214a.533.533 0 0 1-.368 1l-3.306-1.22c-.917-.358-1.397-.194-1.5.002-.429.668.074 1.135.215 1.247 5.284 2.702 5.836 2.956 5.856 2.966l.07.037c.023.015 2.385 1.526 4.09 2.347v.001l.78.377a.532.532 0 0 1-.23 1.011" fill="#462C5F"/>
                <path d="M115.225 73.301c2.07 1.48 4.097 2.05 5.965 2.874l3.537 4.35 5.152-5.911-4.202-3.304-7.456-6.922-13.504-8.162s-2.425-1.713-3.018-.265c0 0-2.071 2.601 9.674 11.644 0 0 2.872 2.661 3.23 3.218" fill="#FAD9C7"/>
                <path d="M124.727 81.057h-.01a.529.529 0 0 1-.404-.196l-3.455-4.25c-.447-.194-.904-.375-1.368-.56-1.472-.584-2.996-1.188-4.575-2.316a.533.533 0 0 1 .619-.866c1.473 1.052 2.935 1.633 4.349 2.193.517.206 1.025.406 1.522.626a.537.537 0 0 1 .199.152l3.137 3.86 4.369-5.014-3.76-2.958-7.451-6.912-13.457-8.135c-.576-.403-1.552-.881-2.024-.746-.079.023-.16.067-.226.228l-.077.13c.006 0-1.206 2.583 9.584 10.89.524.484 2.976 2.768 3.35 3.352a.533.533 0 1 1-.895.576c-.22-.345-1.97-2.03-3.143-3.115-7.848-6.04-9.754-9.377-9.965-11.107-.078-.641.08-1.015.182-1.182.181-.402.488-.677.893-.794 1.139-.334 2.726.753 2.903.879l13.473 8.14.087.065 7.457 6.923 4.168 3.276a.534.534 0 0 1 .072.768l-5.152 5.911a.536.536 0 0 1-.402.182" fill="#462C5F"/>
                <path d="m113.926 64.875-10.11-6.157s-1.28-.35-.85 1.496c0 0 .118 1.465 2.377 2.84l6.03 4.552" fill="#FAD9C7"/>
                <path d="M111.373 68.005a.398.398 0 0 1-.24-.081l-6.03-4.551c-2.206-1.34-2.496-2.832-2.53-3.09-.182-.795-.095-1.369.254-1.705.429-.413 1.029-.264 1.096-.245l.102.044 10.109 6.157a.4.4 0 0 1-.416.682l-10.049-6.121c-.08-.01-.217-.012-.29.059-.048.048-.189.256-.024.969l.01.06c0 .007.159 1.296 2.186 2.53l6.064 4.573a.4.4 0 0 1-.242.719" fill="#462C5F"/>
                <path d="M141.857 62.524s-10.589 5.069-11.38 18.428c0 0 1.466 25.734 1.999 34.563 0 0-1.338 8.058-2 12.702l-3.744 18.485 14.457.887 3.438-27.683" fill="#7D97CD"/>
                <path d="M141.19 148.121h-.034l-14.457-.887a.535.535 0 0 1-.489-.638l3.744-18.485c.62-4.358 1.863-11.88 1.986-12.624-.529-8.784-1.98-34.248-1.995-34.505v-.06c.802-13.517 11.574-18.826 11.682-18.878a.532.532 0 1 1 .46.96c-.103.05-10.3 5.1-11.077 17.95.058 1.03 1.48 25.94 1.997 34.529l-.006.118c-.014.081-1.344 8.106-1.998 12.69l-3.628 17.917 13.347.82 3.376-27.188a.533.533 0 0 1 1.056.13l-3.437 27.684a.532.532 0 0 1-.528.467" fill="#462C5F"/>
                <path d="M56.102 67.745s5.056 4.177 6.59 13.207l1.463 34.049s3.194 23.946 5.145 30.28l-9.227.711-8.834-19.66" fill="#D35C9D"/>
                <path d="M60.073 146.524c-.209 0-.399-.122-.485-.314l-8.835-19.66a.532.532 0 1 1 .972-.436l8.68 19.318 8.202-.63c-1.948-7.086-4.854-28.782-4.98-29.731l-1.465-34.062c-1.487-8.685-6.351-12.814-6.4-12.854a.532.532 0 1 1 .68-.82c.211.175 5.225 4.408 6.776 13.528l.006.066 1.461 34.05c.029.19 3.207 23.927 5.125 30.147a.534.534 0 0 1-.468.687l-9.228.71-.04.001z" fill="#462C5F"/>
                <path d="M57.276 133.894s5.666 18.146 5.407 35.655H12.135s.886-23.464 6.612-35.34l38.53-.315z" fill="#6156A2"/>
                <path d="M62.683 170.082H12.136a.53.53 0 0 1-.533-.552c.037-.963.956-23.712 6.665-35.554a.53.53 0 0 1 .475-.3l38.53-.315h.003a.53.53 0 0 1 .508.374c.057.182 5.688 18.43 5.431 35.822a.532.532 0 0 1-.532.525m-49.99-1.065h49.464c.125-15.687-4.487-31.928-5.276-34.588l-37.796.308c-5.008 10.713-6.214 30.705-6.392 34.28M137.59 138.446v31.103h46.617s2.511-22.72-.476-33.894l-46.142 2.791z" fill="#462C5F"/>
                <path d="M184.207 170.082H137.59a.532.532 0 0 1-.532-.533v-31.103c0-.282.22-.514.5-.531l46.141-2.792a.53.53 0 0 1 .547.393c2.978 11.143.594 33.16.491 34.092a.533.533 0 0 1-.529.474zm-46.085-1.065h45.605c.33-3.271 2.13-22.618-.402-32.805l-45.203 2.735v30.07zM52.826 41.287s3.285-1.227 2.67-5.059c0 0 1.634-13.255-14.995-14.241 0 0-13.719-1.643-16.838 13.775 0 0-1.588 7.25-3.464 13.212-2.413 6.047-5.782 14.362 1.441 18.565l28.38-.012s8.111-.098 5.087-9.7c0 0-1.653-8.752.681-15.557" fill="#462C5F"/>
                <path d="M21.64 68.071a.538.538 0 0 1-.268-.071c-7.578-4.41-4.186-12.911-1.71-19.119l.043-.105c1.834-5.832 3.421-13.055 3.437-13.128 3.18-15.711 17.281-14.207 17.423-14.19 5.665.336 9.898 2.122 12.551 5.308 3.325 3.992 2.986 8.761 2.917 9.45.622 4.157-2.984 5.557-3.021 5.57a.532.532 0 0 1-.374-.996c.125-.048 2.867-1.144 2.333-4.478a.507.507 0 0 1-.003-.148c.006-.05.544-4.868-2.679-8.728-2.459-2.944-6.435-4.599-11.819-4.918-.568-.064-13.303-1.388-16.286 13.349-.017.081-1.615 7.351-3.477 13.267l-.055.141c-2.32 5.813-5.49 13.76 1.134 17.732l28.234-.013c.021 0 2.846-.068 4.318-2.109 1.124-1.558 1.212-3.879.262-6.898l-.016-.061c-.068-.363-1.652-8.969.7-15.828a.533.533 0 0 1 1.008.345c-2.196 6.403-.767 14.697-.667 15.256 1.048 3.346.902 5.977-.43 7.818-1.792 2.473-5.031 2.54-5.168 2.542l-28.387.012z" fill="#462C5F"/>
                <path d="M22.067 65.688a.397.397 0 0 1-.315-.153c-4.89-6.248 3.025-19.06 3.364-19.603a.4.4 0 0 1 .677.424c-.08.129-7.958 12.878-3.412 18.687a.401.401 0 0 1-.314.645M51.678 65.688a.4.4 0 0 1-.318-.64c1.598-2.108.35-6.341.337-6.384a.398.398 0 0 1 .266-.497.398.398 0 0 1 .498.267c.057.189 1.38 4.664-.465 7.096a.396.396 0 0 1-.318.158M24.94 66.396a.398.398 0 0 1-.303-.138c-1.703-1.971-1.102-5.144-1.076-5.278a.402.402 0 0 1 .469-.315.4.4 0 0 1 .315.469c-.006.029-.55 2.928.897 4.602a.4.4 0 0 1-.303.66" fill="#462C5F"/>
                <path d="M56.102 67.745 48.8 65.28l-17.818-.8-13.407 6.272C7.622 78.419 13.028 97.4 13.028 97.4s2.537 12.528 3.693 25.668c.647 5.795.126 6.414-.41 11.304 0 0 24.013 5.361 38.57.299 1.165-.162 4.965-1.148 4.005-6.798-2.036-14.802 3.806-40.868 3.806-40.868" fill="#D35C9D"/>
                <g transform="translate(11 63.949)">
                    <mask id="m4741dbmni" fill="#fff">
                        <use xlink:href="#wrtp514kbh"/>
                    </mask>
                    <path d="M28.105 73.413c-11.657 0-22.747-2.433-22.91-2.47a.532.532 0 0 1-.413-.577c.125-1.144.249-2.051.359-2.852.36-2.633.54-3.954.051-8.335-1.141-12.97-3.66-25.496-3.686-25.621-.214-.75-5.379-19.379 4.744-27.176l.1-.06L19.756.05a.515.515 0 0 1 .25-.05l17.818.8a.54.54 0 0 1 .145.028l7.303 2.462a.534.534 0 0 1-.34 1.01L37.7 1.86l-17.612-.79-13.235 6.19C-2.64 14.647 2.487 33.12 2.54 33.306c.036.166 2.567 12.748 3.712 25.767.502 4.5.304 5.951-.056 8.586a108.15 108.15 0 0 0-.302 2.345c3.414.703 24.673 4.785 37.812.216l.102-.024c.562-.079 1.967-.393 2.866-1.622.787-1.075 1.018-2.609.687-4.56-2.029-14.743 3.754-40.811 3.812-41.073a.533.533 0 0 1 1.038.232c-.058.26-5.797 26.143-3.798 40.68.38 2.227.084 4.033-.88 5.35-1.111 1.518-2.798 1.93-3.526 2.039-4.685 1.62-10.358 2.171-15.902 2.171" fill="#462C5F" mask="url(#m4741dbmni)"/>
                </g>
                <path d="M47.207 57.42s-1.119 6.459 1.139 8.811c0 0-1.353 6.105-9.232 5.78 0 0-7.276.012-9.237-5.454 0 0 2.662-1.945 2.662-10.272" fill="#FAD9C7"/>
                <path d="M39.71 72.556c-.201 0-.407-.004-.618-.014-.274-.004-7.652-.052-9.716-5.804a.533.533 0 0 1 .187-.611c.018-.015 2.444-1.987 2.444-9.842a.532.532 0 1 1 1.064 0c0 6.903-1.822 9.597-2.57 10.41 1.978 4.733 8.528 4.784 8.612 4.784 6.468.265 8.286-4.026 8.64-5.116-2.143-2.663-1.117-8.766-1.071-9.033a.533.533 0 0 1 1.05.181c-.298 1.724-.699 6.584.998 8.352.123.128.174.31.136.483-.014.064-1.468 6.21-9.155 6.21" fill="#462C5F"/>
                <path d="M54.733 39.695s-.205 6.753-.845 11.2c0 0-.554 5.655-5.543 9.871 0 0-3.01 2.38-5.965 2.54 0 0-4.346.465-9-4.389 0 0-3.564-3.587-3.766-8.687 0 0-1.661-.734-2.462-2.406 0 0-.967-1.84-.226-3.772 0 0 .984-2.943 3.039-1.253 0 0-.023-12.337 10.889-12.745 0 0 12.267-1.277 13.879 9.64" fill="#FAD9C7"/>
                <path d="M42.059 63.85c-1.1 0-5.002-.329-9.063-4.565-.141-.142-3.565-3.643-3.898-8.722-.558-.311-1.756-1.11-2.426-2.51-.035-.066-1.06-2.06-.243-4.191.021-.065.725-2.118 2.32-2.118.243 0 .489.049.736.146.262-2.94 1.843-12.013 11.349-12.369h-.001c-.01 0 .446-.047 1.186-.047 2.756 0 11.852.732 13.24 10.142l.006.095c-.002.068-.213 6.834-.85 11.259-.02.216-.631 5.895-5.725 10.202-.143.113-3.192 2.497-6.277 2.666-.003 0-.133.012-.354.012m-13.31-21.041c-.816 0-1.314 1.4-1.319 1.414-.648 1.691.186 3.339.194 3.355.71 1.48 2.192 2.159 2.206 2.166a.534.534 0 0 1 .316.465c.192 4.836 3.579 8.298 3.612 8.333 4.384 4.572 8.47 4.243 8.567 4.234 2.78-.15 5.662-2.405 5.69-2.428 4.755-4.02 5.338-9.45 5.343-9.506.603-4.194.82-10.507.842-11.116-1.252-8.29-8.932-9.187-12.18-9.187-.684 0-1.108.043-1.112.044-10.298.387-10.41 11.733-10.41 12.215a.534.534 0 0 1-.87.412c-.325-.266-.62-.401-.88-.401" fill="#462C5F"/>
                <path d="M39.083 30.104s.95-3.198 3.584.78c0 0 7.228 12.708 14.107 11.253 0 0-.602-2.114-.636-5.001 0 0 .636-6.294-3.88-10.537" fill="#462C5F"/>
                <path d="M55.654 42.786c-6.748 0-13.164-11.136-13.45-11.638-1.121-1.694-1.758-1.747-1.929-1.722-.374.055-.637.679-.682.83a.532.532 0 1 1-1.02-.304c.042-.145.45-1.417 1.547-1.58.933-.138 1.912.587 2.991 2.218.086.15 6.73 11.699 13.007 11.11a22.846 22.846 0 0 1-.513-4.558l.002-.06c.006-.06.55-6.09-3.713-10.094a.532.532 0 1 1 .73-.776c4.535 4.26 4.096 10.39 4.046 10.945.037 2.76.61 4.815.615 4.834.041.143.02.295-.055.422a.534.534 0 0 1-.346.245c-.41.086-.821.128-1.23.128M50.293 43.787a.394.394 0 0 1-.213-.062c-1.733-1.094-2.839-.281-2.885-.246a.4.4 0 0 1-.558-.07.396.396 0 0 1 .066-.556c.062-.052 1.57-1.212 3.803.197a.4.4 0 0 1-.213.737M41.016 42.873a.396.396 0 0 1-.213-.062 2.992 2.992 0 0 0-2.878-.026.398.398 0 1 1-.368-.709c1.954-1.016 3.607.017 3.675.062a.399.399 0 0 1-.216.735M29.683 47.82h-.025a.4.4 0 0 1-.374-.423l.03-.502c-.314-.326-.37-.642-.358-.86.024-.4.28-.696.46-.858l.05-.847c-.151-.215-.264-.266-.313-.27-.12.007-.322.247-.421.458a.4.4 0 0 1-.724-.339c.042-.09.427-.875 1.097-.916.412-.022.785.228 1.108.748.043.07.063.152.059.233l-.07 1.16a.404.404 0 0 1-.18.311c-.083.055-.261.22-.269.367-.006.123.12.254.226.342a.4.4 0 0 1 .144.33l-.042.691a.4.4 0 0 1-.398.375M38.374 45.557c-.031.683.395 1.273.951 1.316.554.043 1.03-.475 1.06-1.158.03-.682-.396-1.27-.95-1.316-.556-.043-1.031.474-1.061 1.158M47.27 46.23c-.03.684.394 1.272.95 1.316.554.045 1.03-.473 1.059-1.155.032-.683-.395-1.272-.948-1.316-.556-.045-1.031.473-1.062 1.156" fill="#462C5F"/>
                <path d="M46.372 53.078s-4.287-.408-6.56-.557c0 0 .085 3.29 3.285 3.685 0 0 2.518.415 3.275-3.128" fill="#ED859A"/>
                <path d="M43.339 56.621c-.192 0-.307-.02-.307-.02-3.485-.432-3.619-4.033-3.62-4.07a.401.401 0 0 1 .425-.408c2.254.147 6.53.553 6.574.557a.398.398 0 0 1 .352.48c-.686 3.212-2.794 3.461-3.424 3.461m-3.078-3.668c.147.838.713 2.589 2.884 2.857.026.004.092.013.194.013.576 0 1.922-.244 2.534-2.391-1.072-.1-3.779-.348-5.612-.479M42.993 58.644c-.382 0-.841-.066-1.319-.284a.266.266 0 1 1 .221-.485c.975.447 1.88.12 1.888.118a.267.267 0 0 1 .187.498c-.027.01-.417.153-.977.153M55.23 40.075a.396.396 0 0 1-.248-.086c-4.037-3.207-5.985-7.983-6.066-8.184a.4.4 0 0 1 .742-.298c.018.048 1.954 4.784 5.821 7.857a.399.399 0 0 1-.25.711M43.703 50.53a.4.4 0 0 1-.154-.768l1.066-.444-.21-.874a.398.398 0 0 1 .295-.482c.21-.05.43.08.482.295l.289 1.206a.4.4 0 0 1-.236.461l-1.378.575a.4.4 0 0 1-.154.032" fill="#462C5F"/>
                <path d="M26.142 79.662c3.903 3.196 26.465 17.352 26.465 17.352S68.002 79.56 76.233 71.922c1.981 1.016 6.142 3.849 7.543 7.74-4.275 11.54-19.643 27.43-19.643 27.43-4.864 8.065-13.015 6.467-13.015 6.467S25.496 100.952 20.747 96.41" fill="#D35C9D"/>
                <path d="M52.755 114.208c-1.052 0-1.716-.122-1.74-.126l-.131-.045c-1.05-.516-25.751-12.697-30.506-17.242a.533.533 0 0 1 .736-.769c4.52 4.32 28.716 16.303 30.173 17.022.817.14 7.96 1.116 12.391-6.23l.073-.096c.152-.157 15.173-15.772 19.457-27.06-1.289-3.328-4.776-5.932-6.89-7.092-8.183 7.663-23.16 24.624-23.312 24.796a.533.533 0 0 1-.682.1c-.923-.58-22.636-14.21-26.52-17.392a.531.531 0 1 1 .675-.824c3.555 2.912 23.043 15.195 26.029 17.072 2.192-2.474 15.839-17.808 23.362-24.79a.532.532 0 0 1 .605-.084c.616.316 6.07 3.223 7.802 8.034a.528.528 0 0 1-.002.365c-4.196 11.325-18.648 26.462-19.716 27.572-3.62 5.955-9.047 6.789-11.804 6.789" fill="#462C5F"/>
                <path d="M31.872 63.527c-2.575 1.51-4.686 2.264-4.686 2.264 4.43 5.554 13.891 8.572 13.891 8.572 3.174.966 4.28-.884 4.28-.884 2.518-3.97 4.407-7.96 4.407-7.96-1.811-.471-2.36-.97-2.36-.97" fill="#FAD9C7"/>
                <path d="M42.803 75.177c-.54 0-1.165-.087-1.88-.304-.4-.128-9.674-3.134-14.153-8.75a.534.534 0 0 1 .237-.833c.02-.007 2.099-.758 4.595-2.222a.532.532 0 1 1 .539.918 33.21 33.21 0 0 1-4.07 2.03c4.451 5.017 13.078 7.811 13.169 7.84 2.694.82 3.624-.595 3.664-.655 1.922-3.035 3.492-6.108 4.103-7.343-1.405-.437-1.903-.863-1.961-.915a.533.533 0 0 1 .716-.788c.001 0 .53.431 2.136.849a.532.532 0 0 1 .346.742c-.019.041-1.93 4.065-4.438 8.018-.037.063-.875 1.413-3.003 1.413" fill="#462C5F"/>
                <path d="M48.966 64.961s-3.428 8.57-5.038 9.515c0 0 2.474 1.404 4.43-.719 0 0 2.85-3.705 4.214-8.161l-3.606-.635z" fill="#FEFEFE"/>
                <path d="M45.781 75.463c-1.179 0-2.08-.502-2.117-.524a.533.533 0 0 1-.006-.922c1.058-.62 3.515-6.006 4.813-9.254a.537.537 0 0 1 .588-.327l3.606.636a.532.532 0 0 1 .416.68c-1.376 4.497-4.181 8.174-4.3 8.33-.842.916-1.87 1.381-3 1.381m-.889-1.184c.253.066.558.12.89.12.836 0 1.572-.338 2.185-1.003-.002 0 2.535-3.33 3.91-7.382l-2.58-.454c-.73 1.795-2.837 6.795-4.405 8.719" fill="#462C5F"/>
                <path d="M28.513 65.228s9.153 8.108 14.277 9.339c0 0-.897 2.26-4.448 1.942 0 0-6.098-1.248-13.953-9.53l4.124-1.751z" fill="#FEFEFE"/>
                <path d="M39.006 77.073a7.83 7.83 0 0 1-.71-.033l-.06-.009c-.256-.052-6.353-1.376-14.233-9.686a.533.533 0 0 1 .178-.856l4.124-1.753a.533.533 0 0 1 .56.092c.092.081 9.114 8.036 14.05 9.222a.532.532 0 0 1 .37.713c-.037.095-.956 2.31-4.279 2.31m-.582-1.091c2.016.17 3.056-.566 3.53-1.101-4.813-1.583-12.068-7.754-13.54-9.033l-3.105 1.319c7.113 7.285 12.687 8.714 13.115 8.815" fill="#462C5F"/>
                <path d="M47.254 79.663a1.285 1.285 0 1 1-2.57 0 1.285 1.285 0 0 1 2.57 0" fill="#FEFEFE"/>
                <path d="M45.968 81.347c-.929 0-1.685-.756-1.685-1.684 0-.93.756-1.686 1.685-1.686s1.685.756 1.685 1.686c0 .928-.756 1.684-1.685 1.684m0-2.571a.887.887 0 1 0 .886.887.888.888 0 0 0-.886-.887" fill="#462C5F"/>
                <path d="M49.214 88.3a1.285 1.285 0 1 1-2.57 0 1.285 1.285 0 0 1 2.57 0" fill="#FEFEFE"/>
                <path d="M47.929 89.984c-.93 0-1.686-.755-1.686-1.685 0-.928.756-1.684 1.686-1.684.928 0 1.684.756 1.684 1.684 0 .93-.756 1.685-1.684 1.685m0-2.57a.887.887 0 1 0 0 1.773.887.887 0 0 0 0-1.774M37.03 30.242s-2.782 11.375-12.3 11.375c0 0 4.392-5.92 4.392-9.961" fill="#462C5F"/>
                <path d="M24.73 42.016a.4.4 0 0 1-.32-.637c.042-.058 4.312-5.863 4.312-9.723a.4.4 0 0 1 .799 0c0 3.36-2.846 7.851-4 9.532 8.47-.61 11.094-10.934 11.12-11.04a.402.402 0 0 1 .483-.294.4.4 0 0 1 .293.484c-.028.116-2.968 11.678-12.687 11.678" fill="#462C5F"/>
                <path d="m141.857 62.524 10.118-4.447h19.214l13.263 7.691c9.957 7.847 4.487 26.757 4.487 26.757s-3.013 16.964-3.692 25.851c-.515 4.737-.733 7.822 0 11.248 1.732 4.706-.988 8.235-.988 8.235s-7.555 6.716-24.226 5.823c-17.694 0-22.47-4.296-22.47-4.296s-3.671-2.06-.94-7.178c0-3.956.492-10.934 0-16.644-.067-5.383-2.364-14.495-2.731-22.956" fill="#7D97CD"/>
                <path d="M163.078 144.298c-.99 0-2.011-.027-3.074-.084H160c-17.045.001-22.232-3.959-22.755-4.398-.481-.308-3.79-2.67-1.154-7.74.003-1.163.047-2.595.093-4.107.112-3.734.251-8.38-.091-12.36-.033-2.55-.55-5.841-1.149-9.652-.652-4.145-1.39-8.841-1.585-13.326a.533.533 0 0 1 1.064-.045c.193 4.424.926 9.09 1.573 13.206.605 3.851 1.127 7.178 1.16 9.765.346 4.002.204 8.684.091 12.444-.049 1.63-.091 3.037-.091 4.206 0 .088-.02.174-.063.251-2.458 4.605.598 6.39.73 6.464l.095.068c.045.04 4.935 4.16 22.115 4.16 15.66.836 23.236-5.161 23.835-5.658.297-.41 2.406-3.538.88-7.684l-.02-.073c-.773-3.605-.505-6.86-.01-11.416.671-8.795 3.667-25.718 3.697-25.887l.012-.056c.054-.185 5.243-18.62-4.276-26.166l-13.106-7.6h-18.96l-10.014 4.4a.532.532 0 0 1-.428-.974l10.118-4.447a.522.522 0 0 1 .214-.044h19.214c.093 0 .186.023.267.071l13.263 7.691.062.043c10.026 7.9 4.996 26.18 4.677 27.295-.137.776-3.024 17.178-3.68 25.772-.484 4.454-.746 7.624-.018 11.059 1.787 4.907-.961 8.554-1.08 8.707l-.067.073c-.296.263-6.978 6.041-21.535 6.042M164.846 52.047c7.297-2.334 12.015-9.743 12.18-19.191-.226-1.206-.365-1.98-.365-1.98-3.682-16.138-18.678-14.28-18.678-14.28-15.753 1.761-14.825 15.95-14.825 15.95-.5 4.049 1.288 6.556 1.288 6.556l2.024 3.594c.479 2.452 2.171 2.611 2.092 6.432 5.823 1.611 10.421 4.751 16.284 2.92" fill="#462C5F"/>
                <path d="M161.228 53.136h-.001c-2.915 0-5.58-.98-8.402-2.016-1.412-.52-2.873-1.056-4.405-1.48a.532.532 0 0 1-.39-.524c.045-2.155-.493-3.023-1.062-3.94-.389-.629-.79-1.278-1.003-2.292l-1.97-3.5c-.205-.299-1.852-2.85-1.37-6.859-.04-.99-.272-14.717 15.298-16.457.017-.001.563-.068 1.465-.068 3.384 0 14.669 1.064 17.792 14.757.006.026.144.798.368 2.001l.01.107c-.17 9.723-4.978 17.267-12.55 19.689a12.49 12.49 0 0 1-3.78.582m-12.132-4.411c1.43.416 2.783.913 4.097 1.395 2.73 1.004 5.308 1.95 8.034 1.95 1.182 0 2.313-.172 3.461-.531 7.105-2.273 11.626-9.413 11.804-18.64-.22-1.177-.354-1.93-.354-1.93-2.863-12.548-12.667-13.904-16.75-13.904-.83 0-1.336.06-1.34.06-15.054 1.682-14.394 14.828-14.36 15.387l-.002.1c-.47 3.799 1.177 6.157 1.193 6.18l.03.05 2.025 3.593c.028.05.048.103.06.16.169.872.514 1.43.88 2.02.561.907 1.194 1.928 1.222 4.11" fill="#462C5F"/>
                <path d="M152.126 50.384s1.02 7.139.8 12.383c0 0 .857 3.45 6.746 4.255 0 0 9.16.193 11.191-5.885 0 0-1.442-8.077-.978-13.219" fill="#FAD9C7"/>
                <path d="M159.807 67.556c-.142 0-.164 0-.206-.007-6.177-.843-7.154-4.499-7.193-4.654a.573.573 0 0 1-.014-.15c.216-5.136-.785-12.215-.796-12.286a.531.531 0 1 1 1.055-.15c.009.071 1.013 7.167.808 12.392.15.452 1.227 3.092 6.25 3.789.535-.008 8.693-.051 10.605-5.397-.195-1.123-1.398-8.375-.961-13.223a.54.54 0 0 1 .578-.482c.293.027.51.286.482.578-.452 5.013.959 12.997.973 13.077a.531.531 0 0 1-.02.263c-2.01 6.018-10.306 6.25-11.56 6.25" fill="#462C5F"/>
                <path d="M145.049 35.532s.629 7.53 1.419 12.02c0 0 .917 3.729 4.85 7.44 0 0 3.258 3.541 5.155 3.598 0 0 1.867.634 4.05.165 2.603-.581 4.853-1.836 6.863-4.044 0 0 4.189-3.908 3.968-9.288 0 0 1.7-.795 2.479-2.519 0 0 .953-1.897.129-3.83 0 0-1.1-2.95-3.185-1.175 0 0-1.434-15.54-13.27-14.364 0 0-11.654-1.36-12.458 11.997" fill="#FAD9C7"/>
                <path d="M158.854 59.46a8.89 8.89 0 0 1-2.477-.342c-2.06-.142-5.105-3.391-5.45-3.766-3.975-3.749-4.937-7.514-4.975-7.673-.794-4.497-1.427-12.027-1.433-12.102l-.002-.077c.7-11.632 9.437-12.537 12.098-12.537.45 0 .767.025.893.037.424-.04.845-.06 1.253-.06 9.487 0 11.923 10.892 12.43 14.058.292-.133.584-.2.873-.2 1.599 0 2.365 2.005 2.396 2.09.903 2.113-.107 4.17-.15 4.256-.642 1.417-1.844 2.256-2.415 2.59.052 5.385-3.97 9.203-4.145 9.366-1.978 2.175-4.313 3.55-7.11 4.174a8.486 8.486 0 0 1-1.786.186m-13.272-23.934c.05.585.661 7.682 1.41 11.934.001 0 .933 3.599 4.693 7.145 1.228 1.332 3.587 3.417 4.803 3.452a.547.547 0 0 1 .154.028c.01.003.94.31 2.212.31.537 0 1.06-.054 1.558-.161 2.571-.574 4.726-1.843 6.582-3.882.07-.067 4.036-3.846 3.829-8.907a.532.532 0 0 1 .306-.505c.014-.006 1.533-.741 2.22-2.255.016-.035.836-1.73.123-3.403-.014-.035-.561-1.42-1.408-1.42-.28 0-.597.149-.942.442a.534.534 0 0 1-.875-.357c-.013-.139-1.414-13.943-11.486-13.943-.39 0-.794.02-1.201.06h-.114c-.003 0-.317-.036-.83-.036-3.107 0-10.391 1.122-11.034 11.498" fill="#462C5F"/>
                <path d="M161.498 23.054s-1.29 9.732-9.142 11.895c-2.006 1.58-4.61 1.67-6.58 1.31-1.16-.212-2.697-1.326-2.952-3.473 0 0-1.196-4.99 4.236-11.258" fill="#462C5F"/>
                <path d="M147.684 36.968c-.778 0-1.472-.087-2.003-.184-1.43-.263-3.096-1.597-3.381-3.906-.108-.495-1.02-5.492 4.357-11.698a.534.534 0 0 1 .752-.054c.222.193.245.53.053.752-5.162 5.956-4.13 10.739-4.12 10.786l.01.06c.214 1.79 1.456 2.817 2.521 3.013 1.4.256 4.064.44 6.154-1.207a.545.545 0 0 1 .188-.095c7.414-2.04 8.742-11.358 8.755-11.452a.533.533 0 0 1 1.055.14c-.054.41-1.416 10.027-9.424 12.31-1.585 1.209-3.41 1.535-4.917 1.535M172.656 25.05c-1.29 3.298 4.266 11.568 4.266 11.568-3.059.27-5.831-.68-5.831-.68-6.11-1.526-6.564-11.881-6.564-11.881s-.977-2.54-2.298-.156" fill="#462C5F"/>
                <path d="M175.786 37.066c-2.603 0-4.723-.715-4.825-.75-6.095-1.52-6.775-11.17-6.83-12.171-.15-.358-.473-.847-.746-.866-.22-.007-.516.291-.807.815a.398.398 0 1 1-.698-.386c.472-.852 1-1.268 1.56-1.225.908.063 1.406 1.291 1.46 1.43l.026.127c.005.1.512 10.075 6.262 11.512.054.017 2.366.792 5.025.708-1.255-1.976-5.087-8.392-3.928-11.356a.4.4 0 0 1 .743.292c-.995 2.545 2.713 8.947 4.226 11.2a.4.4 0 0 1-.296.62c-.398.034-.79.05-1.172.05M171.155 43.553a.399.399 0 0 1-.397-.365l-.064-.712a.398.398 0 0 1 .134-.335c.111-.098.241-.242.23-.375-.015-.162-.222-.336-.295-.382a.398.398 0 0 1-.19-.306l-.107-1.196a.398.398 0 0 1 .053-.236c.315-.543.691-.815 1.109-.8.688.02 1.108.816 1.154.907a.4.4 0 0 1-.713.36c-.1-.193-.324-.465-.464-.468h-.002c-.066 0-.185.08-.33.298l.08.886c.188.158.464.455.5.866.02.226-.03.553-.347.9l.047.524a.4.4 0 0 1-.363.432l-.035.002zM151.742 34.115a.399.399 0 0 1-.182-.755c4.939-2.515 5.696-9.8 5.703-9.873a.4.4 0 1 1 .794.076c-.03.317-.81 7.797-6.134 10.509a.394.394 0 0 1-.181.043M144.446 34.968a.4.4 0 0 1-.157-.767c5.457-2.331 5.957-7.552 5.96-7.604a.399.399 0 1 1 .795.066c-.018.234-.547 5.754-6.441 8.272a.4.4 0 0 1-.157.033" fill="#462C5F"/>
                <path d="M171.038 34.143a.396.396 0 0 1-.27-.105c-1.509-1.388-2.31-4.042-2.343-4.155a.4.4 0 0 1 .766-.228c.007.027.773 2.557 2.117 3.796a.398.398 0 0 1-.27.692M150.416 38.532a.399.399 0 0 1-.183-.755c1.99-1.022 3.702-.375 3.773-.347a.4.4 0 0 1-.289.745c-.067-.025-1.467-.536-3.119.312a.393.393 0 0 1-.182.045M159.766 37.64a.397.397 0 0 1-.336-.184.398.398 0 0 1 .119-.55c.058-.038 1.453-.918 3.703-.59a.4.4 0 0 1-.116.79c-1.932-.285-3.143.464-3.156.472a.396.396 0 0 1-.214.062M162.74 40.26c.046.704-.379 1.328-.951 1.396-.574.068-1.075-.447-1.122-1.151-.047-.704.38-1.33.952-1.396.572-.07 1.074.446 1.12 1.15M153.634 41.293c.048.705-.38 1.33-.952 1.398-.572.067-1.075-.448-1.12-1.152-.048-.705.379-1.329.95-1.397.574-.07 1.075.447 1.122 1.15M158.715 53.797a2.98 2.98 0 0 1-.909-.13.266.266 0 0 1 .172-.503c.01.003.955.312 1.95-.179a.266.266 0 1 1 .236.477 3.272 3.272 0 0 1-1.45.335M157.73 45.628l-.144-.027-1.439-.551a.4.4 0 0 1-.247-.454l.26-1.253a.399.399 0 1 1 .782.162l-.191.92 1.122.43a.4.4 0 0 1-.143.773" fill="#462C5F"/>
                <path d="M155.048 48.613s4.575-.152 6.988-.638c0 0-.407 3.408-3.574 3.408 0 0-2.738 0-3.414-2.77" fill="#ED859A"/>
                <path d="M158.462 51.782c-.031 0-3.06-.035-3.801-3.075a.402.402 0 0 1 .07-.337.401.401 0 0 1 .305-.157c.045-.001 4.569-.156 6.92-.63a.398.398 0 0 1 .476.44c-.155 1.3-1.185 3.759-3.97 3.759m-2.878-2.79c.756 1.949 2.776 1.991 2.878 1.991 2.073 0 2.812-1.629 3.061-2.51-1.976.32-4.783.467-5.939.518" fill="#462C5F"/>
                <path d="M183.874 98.39c-7.666 8.216-21.015 15.298-21.015 15.298s-7.02 5.008-14.795-1.56c0 0-20.819-16.863-25.919-29.193 3.47-5.833 6.504-7.625 9.217-10.179 8.302 9.051 23.755 24.258 23.755 24.258s13.828-9.223 15.963-12.77c0 0 6.57-8.91 10.5-10.52" fill="#7D97CD"/>
                <path d="M156.531 116.027c-2.561 0-5.636-.812-8.811-3.494-.845-.684-20.972-17.082-26.066-29.394a.534.534 0 0 1 .034-.476c2.75-4.622 5.266-6.779 7.485-8.68.634-.545 1.234-1.06 1.824-1.614a.517.517 0 0 1 .385-.145.536.536 0 0 1 .372.173c7.55 8.232 21.2 21.734 23.427 23.933 2.18-1.475 13.581-9.27 15.442-12.36.3-.411 6.732-9.092 10.756-10.738a.533.533 0 0 1 .403.986c-3.75 1.534-10.21 10.254-10.274 10.341-2.144 3.567-15.527 12.518-16.096 12.898a.532.532 0 0 1-.668-.064c-.152-.15-15.116-14.883-23.413-23.884-.477.435-.96.849-1.465 1.281-2.224 1.906-4.522 3.877-7.125 8.188 5.165 12.044 25.452 28.569 25.658 28.735 7.38 6.237 14.084 1.589 14.15 1.541l.06-.037c.133-.07 13.36-7.135 20.875-15.19a.532.532 0 1 1 .779.726c-7.477 8.014-20.457 15.032-21.128 15.391-.325.218-2.937 1.882-6.604 1.883" fill="#462C5F"/>
                <path d="M126.73 85.645a.4.4 0 0 1-.335-.617c1.819-2.81 7.308-8.412 7.54-8.649a.4.4 0 0 1 .57.56c-.056.057-5.665 5.782-7.438 8.523a.399.399 0 0 1-.336.183M101.979 79.414s2.862-4.784 9.787-2.172c0 0 4.661 1.942 5.85 8.962 0 0 .597 4.976 2.205 6.256 0 0 1.845 1.733 2.796-.013 0 0 .166 3.998-4.423 3.868 0 0-3.69.72-4.82-5.195" fill="#462C5F"/>
                <path d="M117.82 96.874a4.05 4.05 0 0 1-2.267-.71c-1.339-.907-2.248-2.569-2.702-4.944a.532.532 0 1 1 1.046-.2c.4 2.086 1.156 3.52 2.252 4.261.995.673 1.933.513 1.943.512l.117-.01c1.304.034 2.307-.283 2.967-.952.342-.347.557-.747.69-1.118l-.121.023c-1.116.178-2.171-.777-2.289-.888-1.697-1.348-2.306-6.049-2.37-6.58-1.121-6.628-5.48-8.516-5.525-8.535-6.384-2.407-9.018 1.777-9.127 1.957a.532.532 0 0 1-.913-.548c.031-.052 3.177-5.136 10.432-2.398.219.09 4.964 2.145 6.187 9.372.163 1.348.835 4.99 2.013 5.928.23.213.917.726 1.425.641.082-.013.332-.054.572-.493a.532.532 0 0 1 .999.232c.003.076.06 1.861-1.215 3.155-.867.878-2.117 1.304-3.706 1.27-.078.01-.22.025-.408.025" fill="#462C5F"/>
                <path d="m90.983 110.951-4.431 1.188s-4.128.533-6.086 12.909l5.996 5.977-1.967 11.053-3.885 15.497h36.7l-4.239-16.032-2.004-13.52 6.86-2.48s-1.323-10.536-6.35-13.198l-2.577-.902-18.017-.492z" fill="#ED859A"/>
                <path d="M117.31 158.108h-36.7a.533.533 0 0 1-.517-.662l3.885-15.497 1.91-10.743-5.798-5.781a.53.53 0 0 1-.15-.46c1.916-12.102 5.876-13.242 6.501-13.346l4.405-1.181a.532.532 0 1 1 .275 1.028l-4.432 1.188-.07.014c-.025.005-3.725.791-5.584 12.195l5.803 5.786a.532.532 0 0 1 .148.47l-1.967 11.053-3.727 14.87h35.326l-4.062-15.363-.011-.059-2.004-13.52a.531.531 0 0 1 .345-.578l6.45-2.332c-.308-1.95-1.827-10.12-5.973-12.356l-2.539-.888a.534.534 0 0 1-.327-.679.534.534 0 0 1 .68-.326l2.577.902.073.033c5.21 2.76 6.572 13.16 6.628 13.6a.531.531 0 0 1-.347.567l-6.45 2.332 1.936 13.06 4.23 16.004a.535.535 0 0 1-.515.669M114.512 93.143c0 7.995-6.547 14.474-14.62 14.474-8.074 0-14.62-6.48-14.62-14.474v-2.394c0-7.995 6.546-14.475 14.62-14.475 8.073 0 14.62 6.48 14.62 14.475v2.394z" fill="#462C5F"/>
                <path d="M99.892 108.15c-8.355 0-15.152-6.733-15.152-15.008V90.75c0-8.276 6.797-15.007 15.152-15.007 8.356 0 15.153 6.731 15.153 15.007v2.393c0 8.275-6.797 15.008-15.153 15.008m0-31.343c-7.767 0-14.087 6.254-14.087 13.942v2.393c0 7.69 6.32 13.943 14.087 13.943 7.768 0 14.088-6.254 14.088-13.943V90.75c0-7.688-6.32-13.942-14.088-13.942" fill="#462C5F"/>
                <path d="M105.055 104.96s-1.196 4.827 1.747 6.49c0 0-1.526 3.387-7.734 3.164 0 0-5.731.01-7.277-3.72 0 0 2.936-.03 2.015-6.085" fill="#FAD9C7"/>
                <path d="M99.65 115.024c-.194 0-.392-.003-.596-.01h-.006c-.299 0-6.007-.062-7.626-3.968a.401.401 0 0 1 .365-.553c.017 0 .553-.027 1.032-.605.523-.63 1.05-2.015.593-5.02a.4.4 0 0 1 .79-.12c.406 2.673.14 4.584-.793 5.68-.352.413-.736.63-1.04.741 1.677 3.011 6.646 3.046 6.698 3.046 4.81.165 6.661-1.86 7.195-2.635-2.74-1.943-1.643-6.515-1.593-6.716a.4.4 0 1 1 .774.192c-.011.045-1.087 4.554 1.556 6.047a.4.4 0 0 1 .167.512c-.064.143-1.607 3.409-7.515 3.409" fill="#462C5F"/>
                <path d="M113.364 94.648c-.806-1.336-1.738-1.227-2.242-1.03.002-.627 0-1.208-.005-1.73h-1.369c-2.164-.76-4.472-5.38-4.472-5.38-1.3 1.57-.612 4.736-.612 4.736h-7.045c-.603-1.077-1.018-3.73-1.018-3.73-1.22 1.911-1.404 3.73-1.404 3.73-2.266-.05-5.042-.034-6.668-.019-.12 1.429.004 2.448.004 2.448-1.977-1.36-2.716 1.244-2.716 1.244-.577 1.714.41 3.262.41 3.262.824 1.41 2.388 1.961 2.388 1.961.465 4.413 3.93 7.344 3.93 7.344 4.17 3.33 7.657 2.98 7.657 2.98 3.253.01 6.012-2.366 6.012-2.366 3.83-3.368 4.542-6.725 4.67-8.043 1.14-.339 1.894-1.311 1.894-1.311 1.6-1.996.586-4.096.586-4.096" fill="#FAD9C7"/>
                <path d="M99.9 110.874c-1.128 0-4.127-.3-7.605-3.078-.152-.128-3.48-2.99-4.049-7.376-.499-.223-1.665-.845-2.364-2.04-.037-.057-1.074-1.717-.443-3.59.017-.06.557-1.909 2.021-1.909.204 0 .413.038.626.113a15.12 15.12 0 0 1 .046-1.802.398.398 0 0 1 .394-.366c.793-.007 1.862-.015 3.011-.015 1.252 0 2.366.009 3.32.026a10.14 10.14 0 0 1 1.408-3.538.4.4 0 0 1 .731.154c.003.024.36 2.285.868 3.392h6.325c-.144-.993-.322-3.262.78-4.592a.4.4 0 0 1 .351-.143.4.4 0 0 1 .313.22c.615 1.229 2.55 4.52 4.187 5.16h1.298c.219 0 .397.175.399.395.004.38.005.79.006 1.227.066-.007.134-.01.2-.01.536 0 1.314.232 1.984 1.34.063.128 1.12 2.383-.618 4.552-.027.035-.733.933-1.836 1.357-.198 1.494-1.061 4.781-4.775 8.048-.12.102-2.901 2.464-6.255 2.464h.002c-.002 0-.119.011-.325.011M87.46 93.68c-.853 0-1.255 1.332-1.26 1.346-.515 1.534.355 2.923.363 2.937.75 1.283 2.17 1.796 2.184 1.8a.402.402 0 0 1 .265.335c.443 4.206 3.757 7.054 3.79 7.082 3.364 2.685 6.284 2.896 7.098 2.896.161 0 .253-.008.262-.01l.06-.002c3.053.001 5.705-2.246 5.732-2.269 3.727-3.277 4.413-6.532 4.533-7.778a.4.4 0 0 1 .284-.344c.996-.297 1.685-1.166 1.692-1.174 1.43-1.784.55-3.659.542-3.677-.479-.788-1.091-1.083-1.737-.832a.4.4 0 0 1-.545-.372c.001-.472.001-.917-.002-1.33h-.973l-.133-.023c-1.812-.637-3.637-3.64-4.367-4.96-.688 1.507-.2 3.828-.193 3.854a.4.4 0 0 1-.391.485h-7.045a.4.4 0 0 1-.348-.205c-.377-.671-.676-1.876-.86-2.763-.684 1.418-.815 2.594-.817 2.609a.4.4 0 0 1-.397.358h-.008c-1.02-.022-2.25-.034-3.652-.034-.977 0-1.896.006-2.636.012-.068 1.175.027 1.995.028 2.004a.398.398 0 0 1-.621.378c-.312-.215-.597-.323-.848-.323" fill="#462C5F"/>
                <path d="M105.66 93.965a.398.398 0 0 1-.15-.03c-1.564-.637-2.79-.06-2.84-.035a.4.4 0 0 1-.535-.183.398.398 0 0 1 .18-.533c.065-.032 1.585-.765 3.496.012a.4.4 0 0 1-.15.77M88.527 98.495a.4.4 0 0 1-.4-.399v-.407c-.305-.275-.375-.558-.375-.76 0-.357.214-.635.376-.793v-.687c-.138-.157-.236-.195-.27-.19-.106.013-.272.245-.333.392a.4.4 0 0 1-.737-.307c.034-.082.351-.801.974-.877.388-.049.751.156 1.085.605a.398.398 0 0 1 .079.238v1.008c0 .131-.063.253-.17.328-.084.06-.205.197-.205.284.001.06.077.15.205.239.106.074.17.197.17.327v.6a.4.4 0 0 1-.399.4M111.056 98.495a.4.4 0 0 1-.399-.399v-.6c0-.13.063-.253.17-.327.126-.088.204-.18.205-.239.001-.087-.122-.224-.207-.285a.407.407 0 0 1-.168-.327V95.31c0-.087.027-.17.079-.24.334-.448.698-.653 1.087-.603.622.076.938.795.972.877a.399.399 0 0 1-.735.309c-.075-.173-.237-.382-.335-.394-.044-.002-.134.035-.27.19v.686c.162.16.376.437.376.794 0 .202-.07.485-.376.76v.407a.4.4 0 0 1-.399.4M103.04 96.63c0 .622.408 1.123.912 1.123.503 0 .911-.501.911-1.123 0-.618-.408-1.12-.91-1.12-.505 0-.914.502-.914 1.12M94.245 93.965a.4.4 0 0 1-.15-.77c1.911-.777 3.43-.043 3.494-.01a.399.399 0 1 1-.354.715c-.054-.026-1.277-.6-2.84.036-.048.02-.1.03-.15.03M97.12 96.63c0 .622-.41 1.123-.915 1.123-.503 0-.912-.501-.912-1.123 0-.618.409-1.12.912-1.12.505 0 .914.502.914 1.12M100.187 106.64c-.35 0-.763-.06-1.197-.247a.267.267 0 0 1 .212-.488c.933.405 1.765.08 1.773.076a.266.266 0 1 1 .198.494c-.025.01-.42.165-.986.165M100.085 100.192a.398.398 0 0 1-.236-.721l.411-.3-.245-.905a.4.4 0 0 1 .772-.208l.315 1.169a.4.4 0 0 1-.15.426l-.63.462a.4.4 0 0 1-.237.077" fill="#462C5F"/>
                <path d="M103.111 102.054s-3.943-.074-6.027-.051c0 0-.52 2.93 3.252 3.16 0 0 2.812-.005 2.775-3.11" fill="#ED859A"/>
                <path d="m100.336 105.563-.025-.001c-1.387-.085-2.404-.526-3.023-1.311-.813-1.033-.606-2.266-.597-2.318a.4.4 0 0 1 .39-.33c2.07-.021 6.003.05 6.037.051a.4.4 0 0 1 .392.394c.013 1.08-.29 1.942-.901 2.561-.928.94-2.218.954-2.273.954m-2.875-3.164c.006.34.084.89.46 1.365.47.592 1.286.928 2.423 1 .109-.004 1.05-.056 1.701-.721.382-.39.601-.926.654-1.598-.986-.016-3.545-.054-5.238-.046M113.046 90.25h-.004c-2.868-.03-4.212-5.383-4.268-5.61a.4.4 0 0 1 .776-.19c.34 1.384 1.632 4.983 3.5 5.001a.4.4 0 0 1-.004.799M101.35 91.447a.399.399 0 0 1-.346-.2c-.866-1.498-.673-5.544-.663-5.715a.4.4 0 0 1 .798.04c-.057 1.102-.065 4.2.557 5.276a.399.399 0 0 1-.345.599M87.558 91.093h-.012a.398.398 0 0 1-.387-.412c.141-4.516 2.958-6.989 3.078-7.092a.4.4 0 0 1 .521.605c-.026.023-2.672 2.36-2.801 6.512a.4.4 0 0 1-.4.387M92.239 91.447a.4.4 0 0 1-.4-.4c0-1.255.704-3.16.733-3.24a.4.4 0 0 1 .749.279c-.007.017-.683 1.85-.683 2.962a.4.4 0 0 1-.399.399M114.793 83.984a.398.398 0 0 1-.367-.243c-1.668-3.92-5.373-4.188-5.411-4.19a.4.4 0 0 1 .048-.798c.172.01 4.239.306 6.098 4.676a.399.399 0 0 1-.368.555M119.755 94.836l-.12-.003c-1.337-.067-2.106-1.24-2.139-1.291a.4.4 0 0 1 .671-.433c.01.016.594.884 1.514.927.775.035 1.592-.492 2.448-1.568a.4.4 0 0 1 .625.497c-.99 1.242-1.997 1.871-3 1.871" fill="#462C5F"/>
                <path d="M106.282 109.772s-1.205 4.653-6.5 4.848c0 0 2.246 3.071 4.63 2.366 0 0 2.036-.435 2.036-2.116 0 0 1.734.408 2.705-.921 0 0 .822-.76.766-2.496l-3.637-1.681z" fill="#FEFEFE"/>
                <path d="M103.682 117.49c-2.27 0-4.144-2.526-4.223-2.634a.397.397 0 0 1-.036-.41.397.397 0 0 1 .344-.225c4.941-.182 6.118-4.505 6.13-4.549a.399.399 0 0 1 .553-.262l3.637 1.682a.4.4 0 0 1 .232.349c.054 1.718-.693 2.592-.862 2.768-.54.723-1.39 1.12-2.396 1.12-.094 0-.18-.004-.258-.01-.255 1.28-1.575 1.901-2.307 2.057a2.896 2.896 0 0 1-.814.114m-3.093-2.535c.639.684 1.829 1.737 3.093 1.737.21 0 .418-.03.618-.09.098-.021 1.748-.4 1.748-1.732a.4.4 0 0 1 .49-.388c.001 0 .216.048.523.048.536 0 1.276-.142 1.77-.817l.051-.058c.024-.022.615-.61.64-1.945l-3.006-1.39c-.451 1.147-1.99 4.138-5.927 4.635" fill="#462C5F"/>
                <path d="M92.664 109.772s1.208 4.653 6.502 4.848c0 0-2.245 3.071-4.63 2.366 0 0-2.033-.435-2.033-2.116 0 0-1.737.408-2.705-.921 0 0-.824-.76-.768-2.496l3.634-1.681z" fill="#FEFEFE"/>
                <path d="M95.267 117.49c-.286 0-.57-.041-.844-.122-.704-.15-2.02-.77-2.275-2.049a3.33 3.33 0 0 1-.26.01c-1.006 0-1.855-.397-2.394-1.12-.172-.177-.918-1.051-.863-2.768a.4.4 0 0 1 .232-.35l3.634-1.68a.398.398 0 0 1 .554.26 6.416 6.416 0 0 0 6.13 4.55.399.399 0 0 1 .308.635c-.078.108-1.952 2.634-4.222 2.634zm-2.765-3.018a.4.4 0 0 1 .4.398c0 1.342 1.701 1.722 1.718 1.725.23.067.437.097.647.097 1.265 0 2.454-1.053 3.091-1.737-3.936-.497-5.475-3.488-5.926-4.635l-3.005 1.39c.025 1.335.617 1.922.644 1.948l.05.055c.49.675 1.232.817 1.768.817.307 0 .523-.048.525-.049l.088-.009z" fill="#462C5F"/>
                <path d="M83.776 114.625 74.14 130.66s-2.96 3.625.975 7.663c0 0 2.797 2.175 6.7-.074l4.736-3.147" fill="#ED859A"/>
                <path d="M78.262 139.803c-2.076 0-3.392-.995-3.474-1.06l-.054-.048c-3.999-4.103-1.35-7.913-1.034-8.334l9.62-16.01a.532.532 0 0 1 .913.548l-9.636 16.035-.044.063c-.107.132-2.586 3.303.914 6.925.288.206 2.705 1.812 6.08-.135l4.71-3.128a.531.531 0 1 1 .589.887l-4.738 3.145c-1.447.835-2.752 1.112-3.846 1.112" fill="#462C5F"/>
                <path d="m115.703 117.48 7.293 13.18s2.959 3.625-.976 7.663c0 0-2.795 2.175-6.699-.074l-4.767-3.147" fill="#ED859A"/>
                <path d="M118.866 139.808c-1.087 0-2.379-.273-3.81-1.099l-4.795-3.162a.533.533 0 0 1 .586-.889l4.767 3.146c3.345 1.927 5.759.33 6.054.118 3.52-3.644 1.023-6.793.915-6.926l-.053-.078-7.293-13.18a.533.533 0 0 1 .932-.516l7.274 13.147c.341.459 2.932 4.248-1.042 8.326l-.054.048c-.082.065-1.405 1.065-3.481 1.065" fill="#462C5F"/>
                <path d="M112.904 114.956s-2.7-2.854-8.1-.908c0 0-3.854 1.884-5.656 4.997-1.8-3.113-5.656-4.997-5.656-4.997-5.4-1.946-8.098.908-8.098.908-3.727 2.988-2.658 7.56-2.658 7.56.376 3.504 3.558 7.496 3.558 7.496 2.442 3.634 12.854 12.066 12.854 12.066s10.413-8.432 12.857-12.066c0 0 3.178-3.992 3.554-7.495 0 0 1.071-4.573-2.655-7.56" fill="#D35C9D"/>
                <path d="M99.148 142.61a.533.533 0 0 1-.334-.118c-.428-.346-10.503-8.525-12.962-12.184-.108-.132-3.24-4.097-3.642-7.704-.102-.473-.96-4.986 2.826-8.043.242-.239 1.86-1.725 4.862-1.725 1.196 0 2.467.24 3.775.71l.053.023c.15.074 3.452 1.71 5.422 4.492 1.97-2.782 5.272-4.418 5.423-4.492l.053-.023c1.308-.47 2.578-.71 3.774-.71 3.002 0 4.622 1.486 4.862 1.725 3.787 3.057 2.929 7.57 2.826 8.043-.403 3.607-3.53 7.572-3.665 7.74-2.435 3.623-12.51 11.802-12.938 12.148a.53.53 0 0 1-.335.119m-9.25-28.71c-2.713 0-4.063 1.365-4.12 1.423l-.051.048c-3.426 2.745-2.482 6.981-2.472 7.024l.01.065c.354 3.304 3.414 7.18 3.446 7.219 2.148 3.194 10.64 10.237 12.437 11.71 1.8-1.473 10.288-8.512 12.416-11.676.056-.073 3.111-3.949 3.466-7.253l.01-.065c.04-.174.942-4.29-2.47-7.024l-.053-.05c-.054-.056-1.405-1.421-4.119-1.421-1.065 0-2.202.214-3.383.638-.324.163-3.782 1.966-5.406 4.773-.19.329-.73.329-.921 0-1.624-2.807-5.083-4.61-5.406-4.773-1.181-.424-2.32-.638-3.384-.638" fill="#462C5F"/>
                <path d="M108.992 115.792a.8.8 0 0 0-.17 1.578c.023.006 2.32.549 2.925 3.265.007.033.522 3.354-2.556 6.534a.799.799 0 0 0 1.148 1.11c3.633-3.752 3.012-7.74 2.975-7.95-.83-3.737-4.009-4.487-4.144-4.517a.819.819 0 0 0-.178-.02" fill="#F8D3D7"/>
                <path d="M87.36 128.36a.965.965 0 0 1-.335 1.324l-2.007 1.188a.965.965 0 1 1-.985-1.66l2.005-1.19a.962.962 0 0 1 1.321.338" fill="#FAD9C7"/>
                <path d="M84.525 131.407c-.48 0-.93-.256-1.174-.669a1.36 1.36 0 0 1 .481-1.872l2.002-1.187c.626-.372 1.505-.145 1.87.48.186.31.24.676.15 1.031-.09.354-.312.65-.625.837l-2.009 1.189c-.21.124-.451.19-.695.19m2.006-3.12a.57.57 0 0 0-.29.08l-2.004 1.19a.563.563 0 0 0-.199.777c.153.255.515.35.775.196l2.009-1.188a.56.56 0 0 0 .257-.347.56.56 0 0 0-.062-.429.56.56 0 0 0-.486-.28" fill="#462C5F"/>
                <path d="M88.296 129.937a.972.972 0 0 1-.338 1.328l-2.003 1.185a.97.97 0 0 1-1.326-.34.97.97 0 0 1 .337-1.324l2.006-1.186a.969.969 0 0 1 1.324.337" fill="#FAD9C7"/>
                <path d="M85.463 132.983c-.48 0-.932-.256-1.177-.667a1.373 1.373 0 0 1 .474-1.872l2.01-1.189c.63-.369 1.5-.142 1.87.478.38.648.166 1.488-.476 1.873l-2.006 1.188c-.212.124-.452.19-.695.19m2.001-3.12a.57.57 0 0 0-.29.08l-2.005 1.186a.57.57 0 0 0-.197.777c.155.26.513.355.78.199l2.004-1.186a.569.569 0 0 0-.292-1.055" fill="#462C5F"/>
                <path d="M89.232 131.518a.961.961 0 0 1-.34 1.32l-2.002 1.188a.96.96 0 0 1-1.323-.336.96.96 0 0 1 .338-1.322l2.002-1.19a.967.967 0 0 1 1.325.34" fill="#FAD9C7"/>
                <path d="M86.393 134.563c-.48 0-.93-.257-1.171-.671a1.354 1.354 0 0 1-.148-1.037c.09-.352.314-.649.629-.833l2-1.188c.63-.372 1.502-.144 1.872.481.186.313.239.681.148 1.036-.09.352-.314.649-.627.833l-2.003 1.185a1.362 1.362 0 0 1-.7.194m2.005-3.12c-.1 0-.2.026-.288.078l-2.001 1.19a.56.56 0 0 0-.199.775.57.57 0 0 0 .774.198l2.006-1.189a.56.56 0 0 0 .26-.344.565.565 0 0 0-.551-.709" fill="#462C5F"/>
                <path d="M86.551 135.102a.823.823 0 0 0 1.123.286l1.694-1.004a.82.82 0 0 0-.83-1.41l-1.7 1.008a.821.821 0 0 0-.287 1.12" fill="#FAD9C7"/>
                <path d="M87.256 135.902a1.23 1.23 0 0 1-1.048-.594 1.227 1.227 0 0 1 .427-1.67l1.699-1.007c.56-.33 1.336-.126 1.665.428.34.577.148 1.325-.426 1.668l-1.696 1.005c-.19.112-.403.17-.62.17m1.694-2.641a.42.42 0 0 0-.21.057l-1.699 1.006a.424.424 0 0 0-.146.579.418.418 0 0 0 .575.141l1.693-1.003a.42.42 0 0 0-.213-.78M77.185 131.096a.4.4 0 0 1-.084-.79l6.848-1.485a.4.4 0 0 1 .17.78l-6.849 1.486-.085.009z" fill="#462C5F"/>
                <path d="M109.745 128.36a.966.966 0 0 0 .335 1.324l2.007 1.188a.967.967 0 0 0 1.325-.336.962.962 0 0 0-.34-1.324l-2.004-1.19a.963.963 0 0 0-1.323.338" fill="#FAD9C7"/>
                <path d="M112.58 131.407c-.244 0-.485-.066-.696-.191l-2.007-1.188a1.36 1.36 0 0 1-.626-.838c-.09-.354-.036-.72.151-1.035.365-.62 1.244-.848 1.87-.476l2.003 1.189a1.365 1.365 0 0 1-.695 2.539m-2.006-3.121a.558.558 0 0 0-.485.276.563.563 0 0 0-.063.432.56.56 0 0 0 .257.347l2.008 1.187a.577.577 0 0 0 .778-.197.568.568 0 0 0 .06-.434.551.551 0 0 0-.259-.34l-2.006-1.192a.571.571 0 0 0-.29-.08" fill="#462C5F"/>
                <path d="M108.81 129.937a.971.971 0 0 0 .337 1.328l2.004 1.185a.97.97 0 0 0 1.325-.34.97.97 0 0 0-.337-1.324l-2.005-1.186a.968.968 0 0 0-1.324.337" fill="#FAD9C7"/>
                <path d="M111.644 132.983c-.244 0-.484-.065-.695-.19l-2.005-1.186a1.375 1.375 0 0 1-.478-1.873c.368-.621 1.242-.846 1.87-.48l2.006 1.189c.646.389.86 1.228.477 1.871a1.373 1.373 0 0 1-1.175.67m-2.002-3.12a.568.568 0 0 0-.289 1.057l2.001 1.186a.573.573 0 0 0 .78-.2.572.572 0 0 0-.201-.779l-2.003-1.185a.57.57 0 0 0-.288-.078" fill="#462C5F"/>
                <path d="M107.873 131.518a.962.962 0 0 0 .34 1.32l2.003 1.188a.96.96 0 0 0 1.323-.336.959.959 0 0 0-.34-1.322l-2.001-1.19a.967.967 0 0 0-1.325.34" fill="#FAD9C7"/>
                <path d="M110.712 134.563c-.247 0-.489-.067-.701-.194l-2.002-1.186a1.353 1.353 0 0 1-.627-.833 1.355 1.355 0 0 1 .147-1.036c.372-.623 1.247-.851 1.872-.481l2.003 1.192c.312.181.537.478.627.831a1.35 1.35 0 0 1-.15 1.04c-.24.41-.689.667-1.17.667m-2.004-3.12a.565.565 0 0 0-.293 1.051l2.005 1.189a.57.57 0 0 0 .774-.193.563.563 0 0 0-.194-.777l-2.006-1.193a.563.563 0 0 0-.286-.078" fill="#462C5F"/>
                <path d="M110.554 135.102a.822.822 0 0 1-1.122.286l-1.694-1.004a.819.819 0 1 1 .83-1.41l1.699 1.008c.386.228.514.73.287 1.12" fill="#FAD9C7"/>
                <path d="M109.849 135.902c-.216 0-.43-.058-.619-.169l-1.696-1.006a1.223 1.223 0 0 1-.43-1.667c.332-.556 1.107-.758 1.667-.43l1.7 1.008c.573.34.765 1.086.428 1.665a1.229 1.229 0 0 1-1.05.599m-1.695-2.641a.418.418 0 0 0-.211.78l1.693 1.004c.192.113.46.046.576-.148a.422.422 0 0 0-.148-.572l-1.7-1.007a.415.415 0 0 0-.21-.057M120.138 131.407l-.1-.012-7.064-1.796a.399.399 0 1 1 .196-.775l7.065 1.797a.399.399 0 0 1-.097.786M157.877 69.792l-.1-.012c-8.975-2.293-7.82-9.14-7.807-9.21a.4.4 0 0 1 .786.145c-.046.251-1.012 6.188 7.22 8.29a.4.4 0 0 1-.099.786M161.328 70.146a.4.4 0 0 1-.022-.798c.1-.006 10.125-.657 12.075-7.84a.399.399 0 1 1 .77.208c-2.101 7.743-12.693 8.424-12.8 8.43h-.023z" fill="#462C5F"/>
            </g>
        </g>
        <path d="M119.441 6.849s-3.628-3.835-10.88-1.221c0 0-5.18 2.53-7.6 6.713-2.418-4.182-7.598-6.713-7.598-6.713-7.254-2.614-10.879 1.22-10.879 1.22-5.008 4.014-3.57 10.157-3.57 10.157.504 4.707 4.78 10.07 4.78 10.07 3.28 4.881 17.268 16.21 17.268 16.21s13.989-11.329 17.273-16.21c0 0 4.268-5.363 4.774-10.07 0 0 1.439-6.143-3.568-10.156" fill="#D35C9D"/>
        <path d="M100.962 44a.715.715 0 0 1-.45-.16c-.574-.464-14.11-11.452-17.412-16.368-.145-.178-4.354-5.504-4.893-10.35-.137-.635-1.29-6.697 3.796-10.804.325-.321 2.5-2.318 6.532-2.318 1.607 0 3.314.322 5.071.954l.071.031c.203.1 4.638 2.298 7.285 6.035 2.647-3.739 7.083-5.936 7.285-6.035l.071-.03c1.757-.633 3.463-.955 5.07-.955 4.033 0 6.21 1.997 6.533 2.318 5.087 4.107 3.933 10.169 3.795 10.805-.54 4.845-4.743 10.171-4.923 10.397-3.271 4.868-16.806 15.856-17.381 16.32a.713.713 0 0 1-.45.16M88.535 5.43c-3.645 0-5.459 1.835-5.534 1.913l-.07.064c-4.603 3.688-3.334 9.379-3.32 9.437l.014.086c.474 4.44 4.586 9.647 4.628 9.698 2.885 4.292 14.294 13.753 16.709 15.733 2.417-1.98 13.82-11.436 16.679-15.686.075-.098 4.18-5.306 4.657-9.745l.014-.086c.053-.234 1.264-5.765-3.318-9.437l-.072-.067c-.073-.075-1.888-1.91-5.533-1.91-1.431 0-2.959.289-4.546.857-.434.22-5.08 2.642-7.262 6.413-.256.441-.982.441-1.238 0-2.182-3.771-6.828-6.194-7.262-6.413-1.587-.568-3.117-.856-4.546-.856" fill="#462C5F"/>
        <path d="M114.186 7.972c-.493 0-.931.34-1.042.839a1.074 1.074 0 0 0 .813 1.28c.032.008 3.118.738 3.93 4.386.01.045.702 4.506-3.434 8.778a1.073 1.073 0 0 0 1.542 1.492c4.881-5.042 4.047-10.4 3.998-10.68-1.116-5.021-5.386-6.028-5.568-6.069a1.1 1.1 0 0 0-.239-.026" fill="#F8D3D7"/>
    </g>
</svg>
