<svg width="200" height="200" viewBox="0 0 200 200" xmlns="http://www.w3.org/2000/svg" xmlns:xlink="http://www.w3.org/1999/xlink">
    <defs>
        <filter x="-5.6%" y="-2.8%" width="111.1%" height="111.1%" filterUnits="objectBoundingBox" id="ey6elaj9tb">
            <feOffset dy="5" in="SourceAlpha" result="shadowOffsetOuter1"/>
            <feGaussianBlur stdDeviation="2.5" in="shadowOffsetOuter1" result="shadowBlurOuter1"/>
            <feColorMatrix values="0 0 0 0 0 0 0 0 0 0 0 0 0 0 0 0 0 0 0.2 0" in="shadowBlurOuter1"/>
        </filter>
        <filter x="-8.6%" y="-5%" width="117.2%" height="110%" filterUnits="objectBoundingBox" id="kax4zk8npc">
            <feOffset in="SourceAlpha" result="shadowOffsetOuter1"/>
            <feGaussianBlur stdDeviation="5" in="shadowOffsetOuter1" result="shadowBlurOuter1"/>
            <feColorMatrix values="0 0 0 0 0 0 0 0 0 0 0 0 0 0 0 0 0 0 0.2 0" in="shadowBlurOuter1" result="shadowMatrixOuter1"/>
            <feMerge>
                <feMergeNode in="shadowMatrixOuter1"/>
                <feMergeNode in="SourceGraphic"/>
            </feMerge>
        </filter>
        <path d="M.079 75.145c-2 43.177 34.261 84.536 84.632 81.296 43.134-2.774 79.8-31.38 81.799-74.557 2-43.177-31.38-79.8-74.557-81.8A79.862 79.862 0 0 0 88.3 0C46.184.004 2.022 33.186.08 75.145" id="0jzdjg03fe"/>
        <path id="3yqk3mshbg" d="M0 0h9.275v6.603H0z"/>
        <circle id="4342b4jata" cx="100" cy="90" r="90"/>
    </defs>
    <g fill="none" fill-rule="evenodd">
        <mask id="7bs3c3vuad" fill="#fff">
            <use xlink:href="#4342b4jata"/>
        </mask>
        <use fill="#000" filter="url(#ey6elaj9tb)" xlink:href="#4342b4jata"/>
        <use fill="#573264" xlink:href="#4342b4jata"/>
        <g filter="url(#kax4zk8npc)" mask="url(#7bs3c3vuad)">
            <path d="M105.17 27.532s11.924 4.289 35.745-23.33l-13.28-8.657-22.466 31.987z" fill="#F8C197"/>
            <path d="M242.64 216.947s-31.337 13.077-62.589 14.646c-31.252 1.57-55.591 10.724-81.428 11.204-25.837.48-58.2-14.989-60.941-28.19l190.74-16.422 14.219 18.762z" fill="#C9B5D8"/>
            <path d="M72.057 260.963s51.13-122.428 101.791-106.123c50.661 16.304-63.97 106.828-62.784 120.592 1.186 13.764-40.686-4.844-39.007-14.47" fill="#F8C197"/>
            <path d="M116.419 266.63s51.13-122.427 101.792-106.123c50.66 16.305-63.97 106.829-62.785 120.593 1.186 13.764-40.686-4.844-39.007-14.47" fill="#FAD8C9"/>
            <path d="M244.82 177.152s8.694 22.195-2.18 39.795c0 0-67.936-9.852-109.088 10.034-41.153 19.886-101.961-9.757-96.28-13.176 1.035-.622 23.173-15.355 29.917-23.424 6.744-8.069 9.971-12.613 12.35-20.549 2.38-7.936 165.28 7.32 165.28 7.32M156.993-21.049c.056-.45 5.241-4.15 4.91-4.46-2.532-2.366-20.007-10.886-30.473-2.807-9.769 7.54-21.117 18.763-24.839 22.51a1.42 1.42 0 0 0 .26 2.208C112.759.06 134.06 13.204 136.417 13.91c2.712.813 17.495-10.207 20.577-34.959" fill="#D6C7E3"/>
            <path d="M171.21-26.504s4.909 10.866 32.86-3.195c0 0 37.773 13.267 43.24 24.183 5.465 10.917-16.308 41.578-36.573 73.91-20.266 32.332 28.923 91.234 29.44 98.51.515 7.275-95.886 44.184-131.37-.114 0 0-6.207-4.126 1.521-14.432 7.729-10.305 26.173-40.162 23.301-51.812-2.873-11.65-7.44-32.761-8.638-34.523-1.198-1.762-16.06-21.644 4.564-43.296 20.624-21.651 22.834-34.53 21.427-40.994-1.406-6.464 20.229-8.237 20.229-8.237" fill="#D6C7E3"/>
            <path d="M204.069-29.699S174.856 5.49 174.24 61.763c-.616 56.276-11.497 125.44 9.338 136.073 20.834 10.633 61.11-11.672 61.926-17.037.818-5.365-25.683-71.71-24.154-80.17 1.53-8.461 13.049-54.563 14.722-66.144 1.675-11.58 7.594-41.165 3.317-47.05-4.277-5.885-29.019-18.121-35.32-17.134M171.205-26.518s-24.692 23.87-28.668 42.169c-3.975 18.299-7.56 46.57-3.002 70.95 4.558 24.383-22.121 90.824-28.844 94.779-6.724 3.953-10.504-9.586-8.229-15.737 2.275-6.15 28.805-47.86 29.06-59.507.254-11.647-5.244-37.21-6.712-39.269-1.47-2.058-15.743-22.34-2.727-39.367C135.1 10.472 147.634-2.312 147.561-6.866c-.074-4.553 2.207-14.056 3.679-15.126 1.471-1.07 8.71-4.226 19.965-4.526" fill="#D6C7E3"/>
            <path d="M133.877 12.278c2.1-2.866 4.293-5.59 6.474-8.313 2.188-2.714 4.37-5.412 6.503-8.132 2.12-2.728 4.202-5.47 6.076-8.334a40.329 40.329 0 0 0 2.553-4.427c.75-1.531 1.347-3.13 1.548-4.901.459 1.74.22 3.626-.192 5.384-.44 1.767-1.113 3.461-1.902 5.077-1.59 3.233-3.592 6.207-5.775 9.006a78.398 78.398 0 0 1-7.115 7.876c-2.546 2.449-5.224 4.768-8.17 6.764" fill="#C9B5D8"/>
            <path d="M241.27-103.587c.014.075 2.425-8.95 2.426-8.874.16 9.605-4.738 35.62 8.39 65.223 15.3 34.505-29.138 64.108-58.333 41.985-.534-.404-.362-1.245.29-1.392 3.738-.836 13.172-3.563 11.428-14.142-2.22-13.468-4.761-46.887 1.899-84.043 2.786-15.538 32.226-8.715 33.9 1.243" fill="#312F4B"/>
            <path d="M220.814 128.257c-2 43.177-38.665 71.784-81.8 74.558-50.37 3.239-86.631-38.12-84.631-81.297 2-43.176 48.697-77.06 91.874-75.06 43.177 2 76.557 38.622 74.557 81.8" fill="#D6C7E3"/>
            <path d="M183.916 113.205c-7.653 1.46-12.942 2.202-12.942 2.202s-8.727 4.531-12.273 2.759c-2.316 1.601-6.163 4.53-9.637 8.446-5.412 6.097-5.782 1.173-5.782 1.173 1.343-3.169 5.866-8.656 8.97-12.219-.72-.442-1.396-.972-1.956-1.598-2.221.571-6.125 1.746-10.843 3.899-7.417 3.385-5.765-1.266-5.765-1.266 2.161-2.026 10.27-6.114 14.354-8.087-2.209.678-8.214 3.153-11.514 4.66-7.419 3.384-5.766-1.267-5.766-1.267 3.127-2.932 12.207-7.148 15.829-8.767-.034-.114-.07-.23-.102-.344-2.389-.011-6.084.129-10.584.823-8.057 1.245-5.203-2.784-5.203-2.784 4.795-2.484 19.26-4.372 19.26-4.372 4.744-.747 13.166-.717 23.285 5.247 0 0 83.7-50.279 92.201-22.476 7.535 24.644-81.532 33.971-81.532 33.971M142.835-55.829c1.853-7.885 2.86-13.344 2.86-13.344s5.09-8.863 3.407-12.624c1.765-2.335 4.977-6.201 9.197-9.637 6.573-5.35 1.475-5.952 1.475-5.952-3.35 1.254-9.25 5.71-13.087 8.776-.428-.768-.949-1.494-1.574-2.103.692-2.282 2.085-6.284 4.53-11.088 3.844-7.554-1.06-6.044-1.06-6.044-2.2 2.155-6.804 10.396-9.034 14.55.802-2.264 3.638-8.392 5.349-11.752 3.842-7.555-1.062-6.045-1.062-6.045-3.182 3.118-7.963 12.362-9.804 16.052-.117-.04-.236-.082-.353-.12.094-2.482.403-6.314 1.323-10.957 1.65-8.313-2.661-5.527-2.661-5.527-2.792 4.87-5.394 19.81-5.394 19.81-.985 4.894-1.326 13.642 4.42 24.415 0 0-55.92 84.706-27.42 94.765 25.26 8.916 38.888-83.175 38.888-83.175" fill="#FAD8C9"/>
            <path d="M120.138 50.639s37.287-10.767 64.22 29.698c0 0-30.595-28.835-64.22-29.698M137 224.906s8.544-20.39 34.402-38.19c0 0-28.992 8.267-34.401 38.19" fill="#C9B5D8"/>
            <g transform="translate(54.304 46.374)">
                <mask id="c7rahdqu6f" fill="#fff">
                    <use xlink:href="#0jzdjg03fe"/>
                </mask>
                <path d="M7.221 25.846s-44.162 114.22 103.555 109.61c0 0-82.809 9.469-106.372-13.835C-19.157 98.317-6.99 40.458 7.221 25.846" fill="#C9B5D8" mask="url(#c7rahdqu6f)"/>
            </g>
            <path d="M149.646 48.46v3.508c0 1.5-.719 2.144-2.065 2.144-1.278 0-1.935-.66-1.935-2.129v-3.562c0-1.46.817-2.097 2.003-2.097 1.194 0 1.997.626 1.997 2.136m-2.502-.163v3.865c0 .467.163.71.494.71.346 0 .502-.22.502-.718v-3.869c0-.472-.133-.714-.506-.714-.316 0-.49.224-.49.726M150.506 46.55h1.456v2.91h.948v-2.91h1.465v7.562h-1.465v-3.369h-.948v3.369h-1.456z" fill="#CB6071"/>
            <g fill="#CB6071">
                <path d="M61.087 127.323a.703.703 0 0 1-.351-.094l-16.239-9.376a.703.703 0 0 1-.351-.608V98.494c0-.252.134-.484.351-.61l16.239-9.374a.703.703 0 0 1 .703 0l16.238 9.375a.703.703 0 0 1 .352.609v18.75c0 .252-.134.484-.352.609l-16.238 9.376a.703.703 0 0 1-.352.094zm-15.536-10.484 15.536 8.97 15.537-8.97V98.9l-15.537-8.97-15.536 8.97v17.94zM109.746 99.23a.703.703 0 0 1-.351-.094l-16.24-9.376a.703.703 0 0 1-.35-.608V70.4c0-.252.134-.484.35-.61l16.24-9.374a.7.7 0 0 1 .702 0l16.24 9.375a.703.703 0 0 1 .35.609v18.75c0 .251-.134.483-.35.609l-16.24 9.376a.703.703 0 0 1-.351.094zM94.21 88.746l15.536 8.97 15.536-8.97v-17.94l-15.536-8.97-15.139 8.967-.397 17.943z"/>
                <path d="M143.849 95.62a.699.699 0 0 1-.217-.035l-17.84-5.796a.702.702 0 0 1-.486-.669V70.362c0-.304.195-.574.485-.668l17.84-5.797a.701.701 0 0 1 .786.255l11.026 15.176a.703.703 0 0 1 0 .826L144.417 95.33a.702.702 0 0 1-.568.29zm-17.138-7.01 16.87 5.482 10.425-14.35-10.425-14.351-16.87 5.482V88.61zM123.955 53.763v.41c0 .954-.176 2.172-1.91 2.172-1.28 0-1.836-.682-1.836-2.072v-3.708c0-1.315.656-2.008 1.867-2.008 1.597 0 1.857 1.051 1.857 2.04v.475h-1.464v-.645c0-.416-.09-.627-.393-.627-.3 0-.396.199-.396.627v3.999c0 .403.067.679.396.679.314 0 .407-.232.407-.713v-.629h1.472z"/>
            </g>
            <path fill="#CB6071" d="M124.587 48.67h1.457v2.91h.948v-2.91h1.464v7.562h-1.464v-3.369h-.948v3.369h-1.457z"/>
            <g fill="#CB6071">
                <path d="M129.282 52.282v-.241c0-.657.229-1.342 1.295-1.342.913 0 1.283.516 1.283 1.311v.208c0 .634-.244.929-.562 1.058v.011c.356.132.674.417.674 1.094v.436c0 .923-.353 1.509-1.406 1.509-1.023 0-1.34-.588-1.34-1.366v-.21h.992v.234c0 .262.064.49.343.49.272 0 .336-.244.336-.527v-.57c0-.445-.13-.618-.555-.618h-.296v-.882h.311c.347 0 .472-.127.472-.546v-.325c0-.264-.04-.47-.285-.47-.246 0-.301.193-.301.448v.298h-.961zM83.077 86.345v.409c0 .954-.176 2.172-1.91 2.172-1.28 0-1.836-.682-1.836-2.072v-3.708c0-1.315.656-2.008 1.867-2.008 1.597 0 1.856 1.051 1.856 2.04v.475H81.59v-.645c0-.416-.088-.627-.392-.627-.3 0-.396.2-.396.627v3.999c0 .403.067.68.395.68.314 0 .408-.232.408-.714v-.628h1.472z"/>
            </g>
            <path fill="#CB6071" d="M71.334 81.251h1.456v2.91h.948v-2.91h1.464v7.562h-1.464v-3.369h-.948v3.369h-1.456zM75.91 84.864v-.242c0-.656.23-1.341 1.296-1.341.913 0 1.282.515 1.282 1.31v.208c0 .634-.243.93-.561 1.058v.012c.355.132.673.416.673 1.093v.436c0 .923-.352 1.51-1.405 1.51-1.024 0-1.34-.589-1.34-1.367v-.21h.992v.234c0 .262.064.49.342.49.273 0 .337-.243.337-.527v-.57c0-.444-.131-.617-.555-.617h-.296v-.883h.311c.347 0 .471-.127.471-.546v-.325c0-.263-.039-.47-.284-.47-.246 0-.302.193-.302.448v.299h-.96zM144.085 62.907l.727.439 2.261-2.45 3.697-4.006-1.872-1.13-1.872-1.131-1.825 5.136zM125.666 66.53h.849l.669-3.266 1.093-5.34h-4.374l1.094 5.34zM76.78 98.395h.85l.669-3.267 1.093-5.34h-4.374l1.094 5.34z"/>
            <g>
                <g transform="translate(36 115.091)">
                    <mask id="vyxthrh0jh" fill="#fff">
                        <use xlink:href="#3yqk3mshbg"/>
                    </mask>
                    <path d="M.788 6.603a.786.786 0 0 1-.431-1.445L8.058.128a.787.787 0 1 1 .86 1.318l-7.701 5.03a.783.783 0 0 1-.43.127" fill="#CB6071" mask="url(#vyxthrh0jh)"/>
                </g>
                <path d="M38.499 123.943a.786.786 0 0 1-.431-1.446l7.701-5.03a.787.787 0 1 1 .86 1.318l-7.7 5.03a.783.783 0 0 1-.43.128M61.132 122.387a.73.73 0 0 1-.365-1.364l11.799-6.787a.73.73 0 1 1 .729 1.266l-11.799 6.788a.73.73 0 0 1-.364.097M110.45 97.97h-.267c-.03-.026-.049-.064-.084-.085l-16.24-9.376a.702.702 0 0 0-.702 0l-16.24 9.376a.703.703 0 0 0-.35.608v18.752c0 .25.133.483.35.608l16.24 9.376a.707.707 0 0 0 .702 0l16.24-9.376a.698.698 0 0 0 .341-.573h.01V97.97zm-1.958.61h.425v18.333l-15.41 8.896-15.536-8.97v-17.94l15.537-8.97 14.984 8.651z" fill="#CB6071"/>
            </g>
        </g>
        <path d="M100 175c46.944 0 85-38.056 85-85S146.944 5 100 5 15 43.056 15 90s38.056 85 85 85z" stroke="#BAABC6" stroke-width="2" stroke-linecap="round" stroke-dasharray="2,5" mask="url(#7bs3c3vuad)"/>
    </g>
</svg>
