<svg width="200" height="200" viewBox="0 0 200 200" xmlns="http://www.w3.org/2000/svg" xmlns:xlink="http://www.w3.org/1999/xlink">
    <defs>
        <filter x="-5.6%" y="-2.8%" width="111.1%" height="111.1%" filterUnits="objectBoundingBox" id="9akqzsl52b">
            <feOffset dy="5" in="SourceAlpha" result="shadowOffsetOuter1"/>
            <feGaussianBlur stdDeviation="2.5" in="shadowOffsetOuter1" result="shadowBlurOuter1"/>
            <feColorMatrix values="0 0 0 0 0 0 0 0 0 0 0 0 0 0 0 0 0 0 0.2 0" in="shadowBlurOuter1"/>
        </filter>
        <filter x="-17.6%" y="-8.3%" width="135.2%" height="116.7%" filterUnits="objectBoundingBox" id="c7l9dwpd3c">
            <feOffset in="SourceAlpha" result="shadowOffsetOuter1"/>
            <feGaussianBlur stdDeviation="5" in="shadowOffsetOuter1" result="shadowBlurOuter1"/>
            <feColorMatrix values="0 0 0 0 0 0 0 0 0 0 0 0 0 0 0 0 0 0 0.3 0" in="shadowBlurOuter1" result="shadowMatrixOuter1"/>
            <feMerge>
                <feMergeNode in="shadowMatrixOuter1"/>
                <feMergeNode in="SourceGraphic"/>
            </feMerge>
        </filter>
        <circle id="1o6j5eszwa" cx="100" cy="90" r="90"/>
        <path id="rv20zzc9we" d="M0 0h70.643v51.264H0z"/>
    </defs>
    <g fill="none" fill-rule="evenodd">
        <mask id="p74pb5i8yd" fill="#fff">
            <use xlink:href="#1o6j5eszwa"/>
        </mask>
        <use fill="#000" filter="url(#9akqzsl52b)" xlink:href="#1o6j5eszwa"/>
        <use fill="#573264" xlink:href="#1o6j5eszwa"/>
        <g filter="url(#c7l9dwpd3c)" mask="url(#p74pb5i8yd)">
            <path d="M46.863 145.645s10.241 20.157 26.412 20.313c0 0 7.975 1.667 6.58-6.523-1.395-8.19-21.551-12.957-23.634-14.322-2.082-1.364-8.683-2.162-9.358.532" fill="#FAD8C9"/>
            <path d="M78.521 112.724c.25.769 14.811-6.733 26.122-4.04 11.31 2.694 15.08 12.388 26.122 8.349 11.042-4.04 10.234-13.735 9.695-16.427-.538-2.693-4.309-21.545-5.386-23.699s-19.659-20.736-19.659-20.736l-30.7 24.776-9.157 16.157s-.269 5.656 2.963 15.62" fill="#312F4B"/>
            <path d="M81.181 108.323s-9.103-7.444-17.969 4.377c-5.283 7.044-10.297 14.087-12.366 17.016a1.657 1.657 0 0 0 .469 2.359c3.913 2.465 14.733 8.873 20.882 8.5 7.602-.46 8.984-32.252 8.984-32.252" fill="#D6C7E3"/>
            <path d="m93.869 95.54.233 11.892s17.256 3.847 22.386-6.064l-.7-19.354L93.87 95.54z" fill="#FAD8C9"/>
            <path d="m93.927 98.26.059 3.381s10.816 1.644 22.067-10.132l.085-5.55-22.21 12.3z" fill="#F8C197"/>
            <path d="M94.044 104.686s3.719 7.31 22.477-3.24c0 0 26.379 7.913 30.482 15.24 4.104 7.328-9.882 29.09-22.778 51.952-12.897 22.861 22.778 61.77 23.365 66.753.585 4.983-64.482 33.413-90.275 4.104 0 0-4.397-2.638.586-9.966 4.983-7.327 16.707-28.43 14.362-36.344-2.345-7.913-6.155-22.276-7.035-23.448-.879-1.172-11.723-14.362 1.76-29.895 13.482-15.535 14.59-24.455 13.418-28.852-1.172-4.396 13.638-6.304 13.638-6.304" fill="#D6C7E3"/>
            <path d="M116.521 101.445s-18.954 25.11-17.586 63.798c1.368 38.689-3.908 86.562 10.747 93.205 14.655 6.644 41.62-9.965 42.01-13.678.392-3.712-19.93-48.458-19.148-54.32.781-5.862 7.23-37.908 8.01-45.92.783-8.01 3.91-28.528.783-32.435-3.127-3.909-20.517-11.529-24.816-10.65" fill="#D6C7E3"/>
            <path d="M142.668 113.898a9.42 9.42 0 0 0-.524.014c1.286 4.922.061 16.192-.888 24.375 5.06-9.9 7.905-17.747 5.747-21.6-.478-.855-1.258-1.716-2.264-2.573a10.283 10.283 0 0 0-2.071-.216" fill="#F5BBC5"/>
            <path d="M142.144 113.913c-14.552.817-18.068 35.407-18.068 35.407 4.604 2.867 10.087 4.388 14.966 5.185.747-4.331 1.314-7.933 1.513-9.974.16-1.64.418-3.805.701-6.245.95-8.182 2.174-19.452.888-24.373" fill="#C9B5D8"/>
            <path d="M126.853 167.677s2.3-20.567 3.168-22.264c.868-1.697 23.513-3.864 21.425 7.142-2.089 11.005-4.605 19.84-9.215 25.456-4.61 5.617-14.86-4.419-14.86-4.419l-.518-5.915z" fill="#FAD8C9"/>
            <path d="M126.143 148.57s4.083-40.203 21.68-34.947 6.188 40.92 6.188 40.92-16.575 1.06-27.868-5.972" fill="#D6C7E3"/>
            <path d="M70.543 61.235s-20.912 55.713 14.97 60.646c.528.072.83-.591.42-.932-2.126-1.771-5.705-5.486-4.809-9.84 1.256-6.105 3.95-17.595 1.256-24.058-2.692-6.464-10.4-28.15-11.837-25.816" fill="#312F4B"/>
            <g transform="translate(67.42 20)">
                <mask id="ehv7dnq7rf" fill="#fff">
                    <use xlink:href="#rv20zzc9we"/>
                </mask>
                <path d="M11.756 20.452s-8.463 10.177-6.642 24.96c0 0-14.426-15.355 5.179-34.96 0 0 17.505-18.716 43.357-6.059 24.554 12.022 14.453 31.598 16.966 45.692 1.475 8.267-58.86-29.633-58.86-29.633" fill="#312F4B" mask="url(#ehv7dnq7rf)"/>
            </g>
            <path d="M77.034 39.273s-5.143 9.642-5.464 17.14c-.321 7.5 2.518 12.856 2.625 17.248.107 4.392-.643 13.016 10.123 20.247 12.826 8.614 18.658 5.044 26.353-.214 9.642-6.588 11.659-15.984 11.249-15.212 0 0 6.213 1.821 9.64-6.642 3.43-8.463-1.82-10.927-5.034-10.07 0 0 2.357-14.57.107-22.71-2.25-8.142-13.07-14.356-22.282-15.213-9.213-.857-24.64 5.785-27.317 15.426" fill="#FAD8C9"/>
            <path d="M90.264 68.95c.413.661.672 1.42.797 2.21.128.79.102 1.637-.155 2.45-.131.404-.306.803-.543 1.167a5.498 5.498 0 0 1-.857.971c-.654.565-1.433.931-2.21 1.172l.362-.33c-.051.102-.114.343-.13.532-.027.203-.007.41.018.62.05.421.231.835.474 1.23.232.406.574.755.916 1.117l.565.505c.202.152.399.322.602.487-.245-.082-.497-.158-.743-.253-.242-.1-.479-.22-.717-.341-.459-.27-.911-.584-1.287-1.007a3.768 3.768 0 0 1-.856-1.508 3.258 3.258 0 0 1-.115-.905c.01-.32.031-.592.165-.97l.08-.225.283-.102a6.276 6.276 0 0 0 1.768-.989c.5-.423.899-.946 1.168-1.56.274-.611.414-1.304.475-2.027.052-.725.03-1.475-.06-2.245M73.15 51.888s4.419-6.508 5.865-8.436c0 0 8.752 25.286 43.581 18.374l-43.34-24.722S72.99 50.281 73.15 51.888" fill="#F8C197"/>
            <path d="M113.26 62.23s-.942 18.11 1.28 28.277l3.165-24.978s-.203-6.867-4.444-3.299" fill="#F8C197"/>
            <path d="M79.176 40.452s-9.427 11.463-6.963 24.21c0 0-5.892-20.46 4.82-29.138 0 0 11.494-16.412 30.317-12.748 24.211 4.713 28.282 31.495 14.034 52.17 0 0 .404-5.615-2.917-12.042 0 0-34.022 0-39.29-22.452" fill="#312F4B"/>
            <path d="M132.579 65.84s-.91 9.428-10.66 12.642c0 0 4.34.964 7.339-2.678 3-3.643 3.803-8.195 3.32-9.963" fill="#F8C197"/>
            <path d="M73.488 35.506s-2.117 4.003 2.777 6c0 0-2.084 3.281-6.604.175 0 0 1.643-3.596 3.827-6.175M86.767 61.031c-.734.738-1.651 1.281-2.61 1.724a11.9 11.9 0 0 1-3.05.9 9.776 9.776 0 0 1-3.153-.003 6.47 6.47 0 0 1-2.76-1.097c1.062-.022 2 .051 2.962-.03.95-.05 1.883-.134 2.821-.287 1.883-.277 3.736-.744 5.79-1.207M100.375 61.608c.73.741 1.646 1.287 2.601 1.734.963.437 1.996.745 3.049.911a9.761 9.761 0 0 0 3.151.01 6.477 6.477 0 0 0 2.765-1.086c-1.062-.026-2 .043-2.962-.041a25.996 25.996 0 0 1-2.82-.298c-1.882-.285-3.733-.759-5.784-1.23M110.727 71.08c0 2.954-1.68 5.348-3.752 5.348s-3.752-2.394-3.752-5.348c0-2.953 1.68-5.347 3.752-5.347s3.752 2.394 3.752 5.347" fill="#312F4B"/>
            <path d="M110.726 69.987v-.024c0-2.336-1.679-4.23-3.751-4.23s-3.752 1.894-3.752 4.23v.024h7.503z" fill="#F8C197"/>
            <path d="M110.727 70.495h-7.504a.532.532 0 1 1 0-1.063h7.504a.532.532 0 1 1 0 1.063" fill="#312F4B"/>
            <path d="M104.078 70.107c-.15.298-.29.426-.46.59a3.017 3.017 0 0 1-.528.381c-.367.21-.756.336-1.141.414-.385.085-.77.104-1.15.112a9.937 9.937 0 0 1-1.121-.081c.37-.043.735-.1 1.09-.182.353-.095.7-.199 1.015-.355.317-.147.61-.333.842-.556.114-.113.22-.229.3-.354.077-.109.157-.285.151-.327l1.002.358zM85.577 71.08c0 2.954-1.68 5.348-3.751 5.348-2.073 0-3.753-2.394-3.753-5.348 0-2.953 1.68-5.347 3.753-5.347 2.071 0 3.751 2.394 3.751 5.347" fill="#312F4B"/>
            <path d="m85.576 69.987.001-.024c0-2.336-1.68-4.23-3.751-4.23-2.073 0-3.753 1.894-3.753 4.23l.002.024h7.501z" fill="#F8C197"/>
            <path d="M85.577 70.495h-7.504a.532.532 0 1 1 0-1.063h7.504a.532.532 0 1 1 0 1.063" fill="#312F4B"/>
            <path d="M78.929 70.107c-.151.298-.29.426-.461.59a3.017 3.017 0 0 1-.527.381c-.367.21-.756.336-1.142.414-.384.085-.77.104-1.149.112a9.937 9.937 0 0 1-1.122-.081c.37-.043.736-.1 1.092-.182.352-.095.699-.199 1.014-.355.317-.147.609-.333.842-.556.114-.113.22-.229.3-.354.076-.109.156-.285.15-.327l1.003.358z" fill="#312F4B"/>
            <path d="M95.729 89.796h-2.211a1.36 1.36 0 0 1-1.357-1.356c0-.746.61-1.357 1.357-1.357h2.21c.747 0 1.357.61 1.357 1.357a1.36 1.36 0 0 1-1.356 1.356" fill="#CB6071"/>
            <path d="m136.742 55.56 1.272-5.673c.381 6.06-1.95 22.628 7.204 40.934 10.668 21.337-16.521 41.327-35.601 28.214a.495.495 0 0 1 .143-.888c2.335-.638 8.211-2.635 6.801-9.263-1.795-8.438-4.378-29.463-1.258-53.117 1.303-9.892 20.09-6.444 21.44-.207" fill="#312F4B"/>
            <path d="M134.266 35.524s-19.255 13.735-36.625 7.002c0 0 9.965 12.568 40.396 7.316 0 0 0-8.258-3.77-14.318" fill="#312F4B"/>
            <path d="M93.612 155.289c-.186.017-25.273-2.217-22.701 10.314 2.956 14.408 13.429 10.17 23.05 1.615 9.621-8.554-.35-11.93-.35-11.93" fill="#F8C197"/>
            <path d="M107.471 153.522s6.46-9.822 8.408-7.655c1.949 2.167 1.015 4.07.007 7.168-1.01 3.098-.819 3.573-.566 5.497.252 1.926.312 3.13-4.348 2.834-4.661-.297-5.566.932-7.804 2.713-2.24 1.782-10.36 5.242-13.15 3.693-2.79-1.549-.205-12.995 1.93-12.908 2.135.089 12.69-1.879 15.523-1.342" fill="#FAD8C9"/>
            <path d="M100.285 149.748s-11.345-16.133-17.719-10.4c-6.374 5.731 12.004 14.703 12.004 14.703l5.715-4.303z" fill="#FAD8C9"/>
            <path d="M110.856 156.94c-.23-.092-11.975-10.684-15.361-7.763-3.386 2.92-2.023 8.896 9.833 11.617 11.856 2.72 5.528-3.854 5.528-3.854" fill="#FAD8C9"/>
            <path d="M85.484 135.043s.983 2.23 2.26 3.597c1.275 1.368 8.778 10.09 6.94 17.728l-6.867-9.551-2.333-11.774z" fill="#F8C197"/>
            <path d="M67.42 142.164s-2.519 9.789-.86 18.302c1.66 8.514 27.638-1.08 28.124-4.098.484-3.018-2.943-10.926-4.692-14.088-1.483-2.679-4.344-6.028-4.508-7.237-.163-1.209-16.63 3.755-18.064 7.121" fill="#FAD8C9"/>
            <path d="M94.728 154.641s-7.472 7.668-28.167 5.825c0 0-5.281 17.922 12.687 20.422 0 0 16.98-7.025 17.74-8.325.76-1.301 2.549-10.94-2.26-17.922" fill="#FEFEFE"/>
            <path d="M88.497 137.411s-22.679 7.122-22.934 7.393c-.256.271 13.465 3.855 22.934-7.393" fill="#F8C197"/>
            <path d="M50.308 136.448s-14.204-24.242 7.095-35.902c0 0 5.197-2.577 6.28-2.523.176.009.813-.122 1.795-.252 5.069-.673 19.329-1.345 26.881 17.082 0 0 7.298 2.993 4.725 12.315-2.623 9.504-16.708 15.394-21.58 16.465-4.873 1.07-13.137 3.64-19.876-1.349-6.74-4.989-5.32-5.836-5.32-5.836" fill="#FAD8C9"/>
            <path d="M51.373 133.465s-5.138 2.285-3.125 6.462c2.013 4.176 9.442 4.907 9.772 3.148l-6.647-9.61z" fill="#FAD8C9"/>
            <path d="M51.78 135.37s-3.362 1.496-2.045 4.229c1.317 2.734 6.18 3.213 6.397 2.062l-4.352-6.291z" fill="#F8C197"/>
            <path d="M66.735 102.21s1.234.895 2.257.605c0 0-1.04.067-1.598-1.262-.56-1.328-2.733-6.826-7.47-4.844-4.737 1.981-3.495 6.897-.845 8.698 2.65 1.802 8.562.081 9.408 3.892 0 0 1.075-2.304-1.241-3.4 0 0 1.772.43 3.124-.873 0 0-2.402.325-3.109-.42-.706-.744.274-1.154-.526-2.397" fill="#312F4B"/>
            <path d="M66.685 102.079a4.039 4.039 0 0 0-.567-1.264 4.82 4.82 0 0 0-.882-1.037c-.347-.294-.736-.516-1.106-.77-.177-.142-.382-.244-.566-.388a6 6 0 0 1-.586-.416l.018-.055c.497.009.982.138 1.426.36.457.206.806.586 1.142.942.655.74 1.106 1.658 1.178 2.622l-.057.006zM67.232 105.925c-.696-.321-1.433-.578-2.177-.67a3.03 3.03 0 0 0-.55-.03c-.177.006-.351.04-.575.06a3.71 3.71 0 0 1-1.21-.166c-.772-.229-1.532-.608-2.08-1.23-.55-.608-.899-1.405-.924-2.197l.057-.013c.337.706.746 1.316 1.281 1.806.53.483 1.118.937 1.81 1.194.342.13.704.219 1.06.23.161-.001.37-.024.58-.017.205.006.405.036.6.077.777.178 1.487.513 2.155.905l-.027.05zM66.97 104.187c-.176.057-.295-.048-.415-.113a2.537 2.537 0 0 1-.325-.258 6.985 6.985 0 0 1-.566-.597c-.348-.425-.654-.863-1.002-1.256-.345-.4-.746-.719-1.128-1.018-.388-.3-.857-.51-1.35-.778l.012-.056a2.888 2.888 0 0 1 1.653.348c.52.29.862.774 1.177 1.219.32.45.582.928.87 1.37.144.223.292.444.46.648.084.101.17.2.269.285.09.08.218.174.312.16l.033.046z" fill="#312F4B"/>
            <path d="M79.337 119.146s4.156-.436 2.76 4.077c0 0-.029-2.927-2.76-4.077" fill="#F8C197"/>
            <path d="M79.084 110.131c.53.39 1.156.64 1.797.823.645.177 1.32.266 1.993.264a6.165 6.165 0 0 0 1.967-.309 4.081 4.081 0 0 0 1.616-.956c-.665.09-1.243.228-1.852.271-.598.061-1.188.1-1.789.096-1.203.01-2.405-.1-3.732-.189M65.268 114.97c-.276.634-.714 1.193-1.2 1.698a7.93 7.93 0 0 1-1.675 1.294c-.61.362-1.28.617-1.953.759a4.307 4.307 0 0 1-1.976-.015c.653-.27 1.252-.45 1.829-.733.576-.261 1.134-.538 1.679-.859 1.1-.626 2.135-1.362 3.296-2.144M66.206 121.816c.28-.088.562-.133.843-.157.254-.135 2.088-1.142 2.291-2.036 0 0-.232 1.365-.984 2.127 1.153.273 2.195 1.016 2.9 1.99.493.679-.577 1.432-1.068.754-1.913-2.639-6.436-1.471-5.816 2.096.144.823-1.161.924-1.304.104-.383-2.2.99-4.214 3.138-4.878M84.51 114.349c.255-.08.511-.12.766-.142.23-.123 1.897-1.037 2.081-1.85 0 0-.21 1.24-.894 1.932 1.048.248 1.993.923 2.635 1.808.447.617-.525 1.3-.971.685-1.738-2.397-5.846-1.336-5.282 1.904.13.747-1.056.84-1.186.094-.347-1.998.9-3.827 2.85-4.431M77.492 109.529c.193.652.392 1.195.717 1.67.158.237.335.465.55.674.206.221.448.414.695.66-.684-.008-1.359-.399-1.756-.997a2.238 2.238 0 0 1-.36-.992c-.04-.346-.002-.704.154-1.015M66.254 113.693c.231.21.37.494.446.788.081.296.084.613.03.919-.116.609-.498 1.17-1.06 1.421.078-.304.177-.552.247-.805.077-.25.136-.49.18-.735.1-.49.123-.982.157-1.588" fill="#312F4B"/>
            <path d="M71.967 144.74c6.103-6.534 17.976 6.467 19.122 7.755 5.292 1.79 12.356 7.099 12.541 7.155 0 0 7.308 5.43-5.905 3.588-7.095-.989-11.213-3.503-12.577-5.458-2.037-.67-19.221-6.571-13.181-13.04" fill="#FAD8C9"/>
            <path d="M95.996 161.79c-.186.018-23.793-3.07-23 10.51.857 14.682 13.729 9.974 23.35 1.42 9.62-8.554-.35-11.93-.35-11.93" fill="#FAD8C9"/>
            <path d="M114.05 154.567c1.655-1.807 3.364-3.144 4.214-2.198 1.948 2.167 1.015 4.07.006 7.168-1.008 3.098-.818 3.572-.566 5.498.253 1.924.76 3.97-3.9 3.675-4.661-.296-4.926 1.4-7.805 2.714-2.603 1.187-8.775 5.051-11.565 3.502-2.79-1.55-2.236-13.648-.101-13.56 2.135.088 12.69-1.879 15.523-1.342 0 0 2.053-3.122 4.193-5.457" fill="#FAD8C9"/>
            <path d="M91.09 152.494a68.843 68.843 0 0 0-4.208-3.794c-1.457-1.192-2.972-2.31-4.572-3.27-1.59-.96-3.305-1.752-5.093-2.05-.892-.14-1.802-.121-2.653.12-.854.238-1.624.721-2.281 1.34l-.024.022-.019.014c-.437.324-.84.824-1.138 1.34a6.537 6.537 0 0 0-.669 1.7 8.448 8.448 0 0 0-.246 1.845c-.01.313.014.626.018.941l.086.944-.202-.93c-.035-.316-.088-.632-.106-.95a8.734 8.734 0 0 1 .08-1.927 6.823 6.823 0 0 1 .61-1.856c.307-.589.67-1.13 1.226-1.593l-.042.036a5.79 5.79 0 0 1 2.504-1.6c.963-.31 1.992-.337 2.966-.193 1.962.297 3.74 1.166 5.364 2.176.81.515 1.593 1.07 2.345 1.657a42.38 42.38 0 0 1 2.165 1.868 37.282 37.282 0 0 1 3.888 4.16M90.857 161.614c-1.144-.246-2.202-.648-3.233-1.142a13.122 13.122 0 0 1-1.491-.852c-.468-.325-.968-.673-1.28-1.191.514.267 1.046.434 1.565.661.523.21 1.035.447 1.545.69.504.255 1.009.514 1.494.814.487.296.97.615 1.4 1.02" fill="#F8C197"/>
            <path d="M91.09 152.494c1.201.242 2.357.683 3.47 1.188 1.116.503 2.188 1.093 3.237 1.715a41.94 41.94 0 0 1 4.494 3.137l1.34 1.116.01.036-.053-.023-.104-.05-.206-.102-.403-.217-.797-.447-1.57-.921-3.108-1.868a157.1 157.1 0 0 0-3.114-1.842 62.347 62.347 0 0 0-3.197-1.722" fill="#F8C197"/>
            <path d="M90.429 161.564c1.624-.102 3.23-.353 4.84-.563l4.83-.67c1.614-.216 3.23-.41 4.855-.564a44.68 44.68 0 0 1 2.45-.177c.825-.021 1.637-.075 2.519.079l-.37.156a42.81 42.81 0 0 1 2.89-3.743c.514-.598 1.039-1.188 1.614-1.73.57-.544 1.156-1.08 1.814-1.512-1.156 1.065-2.106 2.306-3.053 3.542a49.01 49.01 0 0 0-1.358 1.904c-.441.641-.887 1.285-1.302 1.936l-.123.192-.247-.034c-.727-.104-1.554-.07-2.349-.034-.803.042-1.608.116-2.415.181l-4.846.477c-1.617.167-3.24.297-4.863.43a50 50 0 0 1-2.44.14c-.815.028-1.633.047-2.446-.01M84.87 158.342c-1.057-.025-2.104-.2-3.13-.442a21.121 21.121 0 0 1-3.016-.968c-.979-.4-1.928-.878-2.826-1.441a13.117 13.117 0 0 1-2.478-1.969c.938.492 1.833 1.003 2.77 1.442.933.442 1.866.877 2.826 1.254 1.907.788 3.858 1.451 5.854 2.124" fill="#F8C197"/>
            <path d="M73.929 156.58c1.104.32 2.13.606 3.18.734.523.082 1.048.089 1.58.08.537 0 1.061-.105 1.643-.17-.447.358-.982.647-1.56.765a4.802 4.802 0 0 1-1.76.09 5.722 5.722 0 0 1-1.677-.494c-.522-.251-1.016-.572-1.406-1.005" fill="#F8C197"/>
            <path d="m85.376 130.728-4.855 2.35c-1.61.78-3.565.099-4.345-1.511a3.262 3.262 0 0 1 1.51-4.345l4.855-2.351a3.263 3.263 0 0 1 4.345 1.512c.78 1.61.1 3.565-1.51 4.345" fill="#CB6071"/>
            <path d="M64.994 127.627s4.04 3.635 1.383 4.434c-2.625.79-1.383-4.434-1.383-4.434M89.362 117.59s4.04 3.633 1.383 4.433c-2.625.79-1.383-4.434-1.383-4.434" fill="#FEFEFE"/>
            <path d="M69.006 125.865c-2.38.756-6.646 3.652-9.429 5.653a6.34 6.34 0 0 0-1.023-1.516c.561-1.565 1.674-4.307 3.55-7.573 2.945-5.128-.526-4.247-.526-4.247-1.609 1.424-3.854 4.861-5.554 7.677a50.258 50.258 0 0 1 2.888-5.86c2.944-5.128-.525-4.248-.525-4.248-2.329 2.06-5.987 8.333-7.4 10.839l-.242-.097a49.295 49.295 0 0 1 1.31-7.588c1.442-5.734-1.659-3.946-1.659-3.946-2.118 3.298-4.459 13.615-4.459 13.615-.859 3.374-1.407 9.458 2.216 17.169l-.016.017c.669.095 1.34.158 2.014.2.06.716.131 1.346.131 1.346s2.578 2.516 4.503 1.824c1.926-.692 2.184-3.545 2.184-3.545 1.064-1.14 4.236-4.33 3.925-9.085 1.283-1.545 3.713-4.221 6.874-6.54 4.77-3.495 1.238-4.095 1.238-4.095" fill="#F8C197"/>
            <path d="M44.635 128.574c.482-1.893 1.063-2.937 1.063-2.937 2.134-.293 6.199 2.147 9.765 3.213 3.568 1.063 3.926 6.944 3.926 6.944 1.839 5.527-1.186 8.652-2.273 9.56-3.428.687-6.894.89-10.281.406l.016-.016c-3.623-7.71-3.076-13.795-2.216-17.17" fill="#FAD8C9"/>
            <path d="M57.116 145.354s-1.708 3.084-3.633 3.776c-1.926.692-4.503-1.824-4.503-1.824s-.382-3.333-.115-3.368c.267-.036 7.383-.066 8.25 1.416M44.635 128.574s2.34-10.317 4.459-13.615c0 0 3.1-1.788 1.658 3.946-1.443 5.735-1.429 9.735-1.429 9.735l-4.688-.066zM55.59 133.505s8.382-6.455 12.114-7.64c0 0 3.53.6-1.238 4.096-4.769 3.495-7.887 7.822-7.887 7.822l-2.99-4.278z" fill="#FAD8C9"/>
            <path d="M49.098 127.643s5.052-9.296 7.986-11.892c0 0 3.47-.88.526 4.248-2.948 5.13-4.016 8.98-4.016 8.98l-4.496-1.336z" fill="#FAD8C9"/>
            <path d="M52.289 130.075s5.053-9.296 7.987-11.894c0 0 3.47-.88.525 4.249-2.945 5.127-4.014 8.977-4.014 8.977l-4.498-1.332z" fill="#FAD8C9"/>
            <path d="M45.953 123.31c.194-1.493.564-2.949 1.04-4.372.234-.712.507-1.413.817-2.102.318-.683.659-1.364 1.128-1.978l.024-.03.008-.007c.253-.186.54-.297.852-.29a.763.763 0 0 1 .424.148c.125.083.198.211.266.328-.192-.2-.444-.318-.68-.27-.233.043-.452.202-.614.36l.031-.037c-.336.644-.61 1.329-.877 2.014-.271.685-.526 1.38-.784 2.074-.515 1.39-1.027 2.785-1.635 4.163M51.163 124.206a22.11 22.11 0 0 1 1.103-2.359c.408-.764.852-1.51 1.333-2.233a21.96 21.96 0 0 1 1.546-2.102c.559-.667 1.158-1.313 1.854-1.852l.052-.04.041.007c.358.062.716.115 1.072.194-.363.032-.725.039-1.088.054l.093-.033c-1.104 1.306-2.069 2.714-3.04 4.128-.971 1.413-1.921 2.845-2.966 4.236M54.908 125.102c.63-1.344 1.442-2.565 2.311-3.746.446-.582.903-1.157 1.403-1.698.5-.537 1.025-1.074 1.654-1.476-.44.595-.835 1.201-1.258 1.794-.414.6-.844 1.186-1.278 1.771-.882 1.16-1.782 2.307-2.832 3.355M59.332 130.828a22.738 22.738 0 0 1 1.897-1.551c.656-.484 1.33-.942 2.025-1.37a25.38 25.38 0 0 1 2.131-1.208c.73-.369 1.481-.706 2.268-.954l.035-.01h.01c.206.02.391.07.563.173.174.097.29.286.297.47-.133-.362-.54-.42-.849-.382l.046-.01c-2.812 1.589-5.495 3.375-8.423 4.842M83.104 183.8l-8.722-9.845-1.124-4.65.015-.061c.24-.608 1.656-.638 1.656-.638 3.646.117 9.61 1.157 16.315 7.047 0 0 10.327-5.452 26.718-8.87 0 0 2.961 8.83 4.881 10.826 1.92 1.997-9.686 4.178-9.686 4.178-16.007 4.857-24.896 3.792-24.896 3.792l-5.157-1.778z" fill="#F8C197"/>
            <path d="M71.347 169.562s1.22-.282 3.265-.215c3.646.116 9.928 1.337 16.632 7.228 0 0 48.747-21.446 52.2-3.485 3.13 16.275-55.183 13.41-55.183 13.41s-4.62 3.967-10.68-.205c0 0-5.813-2.072-5.845-5.972-.033-3.9-1.306-8.7-.39-10.761" fill="#FAD8C9"/>
            <path d="M74.612 169.347s-11.064-.649-15 .522c0 0-2.702 2.6 3.489 2.818 6.19.217 10.212 1.397 10.212 1.397l1.299-4.737zM76.384 181.806s-8.935 6.555-11.215 9.966c0 0-.424 3.727 4.482-.054 4.906-3.78 10.168-5.658 10.168-5.658l-3.435-4.254z" fill="#FAD8C9"/>
            <path d="M72.375 173.567s-10.825 2.376-14.291 4.573c0 0-1.896 3.236 4.121 1.766 6.02-1.472 10.204-1.426 10.204-1.426l-.034-4.913z" fill="#FAD8C9"/>
            <path d="M73.893 177.485s-10.825 2.38-14.293 4.575c0 0-1.896 3.236 4.122 1.765 6.018-1.47 10.202-1.425 10.202-1.425l-.03-4.915z" fill="#FAD8C9"/>
            <path d="M127.256 166.377s7.142-1.958 12.21 5.875c0 0-3.34-11.058-12.21-5.875" fill="#F8C197"/>
            <path d="M86.472 30.451c-5.211 1.331-7.636 7.498-5.745 12.32 1.816 4.632 7.304 7.786 12.22 6.794 2.624-.53 4.997-2.237 6.745-4.211 1.741-1.967 3.062-4.473 3.17-7.14.206-5.124-4.385-8.877-9.194-9.23-4.62-.34-9.526 2.163-11.193 6.64-1.513 4.068.138 9.042 3.963 11.194 2.002 1.127 4.344 1.273 6.536.669 2.472-.68 4.951-2.103 6.374-4.29 3.168-4.87-1.44-11.227-6.59-12.023-4.1-.635-9.044 1.734-10.124 5.974-1.306 5.127 4 10.07 8.928 9.82 2.7-.138 5.33-1.738 6.523-4.197 1.192-2.46.298-5.346-1.847-6.97-2-1.515-4.943-1.55-6.991-.092-.96.684-1.826 1.742-1.98 2.944a2.68 2.68 0 0 0 1.382 2.67c1.449.773 4.644.506 4.867-1.588.102-.953-.655-1.999-1.59-2.204-.872-.192-1.605.404-1.772 1.243-.155.78.119 1.655.883 1.988 1.032.449 2.121-.235 2.883-.892 1.888-1.626 3.395-4.29 2.355-6.787-1.134-2.723-4.19-3.733-6.92-3.368-2.527.338-5.141 1.537-6.902 3.406-1.854 1.968-2.498 4.754-2.454 7.397.045 2.7 1.055 5.23 2.824 7.262 2.02 2.32 4.84 4.113 7.908 4.592 3.027.473 6.024-.402 8.622-1.942 2.222-1.317 4.38-3.287 4.901-5.928.609-3.08-.823-6.196-2.682-8.574-1.864-2.385-4.478-4.712-7.568-5.19-2.739-.424-5.496.76-7.401 2.706-2.775 2.834-3.73 7.506-1.615 10.995 2.486 4.104 8.8 5.061 12.49 2.063 2.044-1.66 3.162-4.321 2.98-6.941-.16-2.296-1.45-4.525-3.742-5.24-2.263-.706-5.06.121-6.675 1.83-1.456 1.538-1.659 3.969-.556 5.774.524.86 1.362 1.492 2.376 1.62.872.108 1.716-.224 2.46-.655.735-.425 1.643-1.119 1.692-2.048.018-.315-.353-1.555-.889-1.219-.443.277.102.953.386 1.094.718.357 1.632-.032 2.167-.542 1.414-1.347 1.739-3.83 1.76-5.685.024-2.21-.59-4.518-2.466-5.863-2.065-1.48-5.02-1.598-7.43-1.125-4.917.962-9.045 5.066-9.25 10.198-.187 4.647 2.651 8.873 6.812 10.792 3.745 1.726 8.32 1.725 12.003-.168 4.254-2.185 7.156-7.19 5.36-11.92-1.962-5.174-8.468-7.705-13.335-4.98-4.358 2.44-6.058 8.542-3.034 12.694 3.14 4.31 10.306 3.965 13.574.035 1.616-1.943 1.51-4.535-.227-6.369-1.718-1.814-4.274-2.25-6.6-1.514-2.157.683-4.255 2.336-4.604 4.692-.183 1.237.316 2.36 1.485 2.878 2.12.939 5.847-.038 6.41-2.554.388-1.73-.976-3.465-2.296-4.39-2.231-1.568-5.246-1.549-7.762-.765-1.914.597-4.356 2.174-4.643 4.343-.323 2.444 2.152 3.474 4.16 3.567 2.088.097 4.684-.344 6.244-1.853 1.785-1.728 1.6-4.452.491-6.495-1.03-1.9-2.998-3.334-5.23-3.139-2.141.187-3.812 1.768-4.585 3.705-1.034 2.589-.391 5.535 1.387 7.641 2.043 2.42 5.078 2.536 7.943 1.755.12-.033.069-.22-.052-.187-1.435.391-2.946.63-4.422.328-1.513-.31-2.773-1.23-3.671-2.466-1.607-2.211-1.998-5.142-.732-7.603.944-1.834 2.81-3.159 4.928-2.98 2.274.19 4.017 2.04 4.738 4.106.833 2.387.136 4.913-2.213 6.08-1.728.856-3.966 1.148-5.858.801-.984-.18-2.004-.6-2.55-1.485-.713-1.16-.387-2.474.419-3.482 1.447-1.81 3.784-2.714 6.037-2.917 2.538-.229 5.22.516 6.745 2.684.77 1.095 1.133 2.49.302 3.657-1.247 1.751-4.706 2.562-6.406 1.033-1.14-1.027-.745-2.825-.034-3.977 1.208-1.96 3.68-3.116 5.94-3.145 2.372-.03 4.798 1.509 5.48 3.842.768 2.635-1.28 4.953-3.478 6.1-2.241 1.168-4.943 1.275-7.312.436-2.221-.786-3.855-2.439-4.549-4.7-1.445-4.71 1.385-9.81 6.176-11.027 5.038-1.281 10.603 2.233 11.402 7.418.676 4.38-2.366 8.457-6.21 10.22-3.338 1.533-7.33 1.55-10.726.19-3.702-1.484-6.446-4.664-7.156-8.617-.851-4.747 1.813-9.29 6.092-11.333 3.773-1.802 10.31-2.003 12.031 2.708.664 1.818.586 3.911.162 5.778-.219.96-.548 1.99-1.214 2.74-.478.539-2.184 1.414-2.511.247-.053-.19-.021-.352.213-.247.2.09.337.464.38.659.13.603-.248 1.148-.663 1.543-.649.617-1.568 1.115-2.453 1.279-2.339.433-3.727-2.082-3.701-4.08.032-2.4 1.966-4.069 4.143-4.702 2.316-.673 4.852-.097 6.205 2.02 1.245 1.946 1.2 4.56.343 6.647-.978 2.387-3.084 4.164-5.618 4.664-4.168.823-8.685-1.378-9.765-5.635-.938-3.703.76-7.733 3.876-9.864 2.455-1.68 5.45-2.023 8.148-.717 2.542 1.23 4.75 3.556 6.2 5.95 1.458 2.413 2.332 5.524 1.109 8.217-1.023 2.252-3.159 3.845-5.306 4.943-2.577 1.319-5.481 1.912-8.338 1.247-2.72-.633-5.192-2.294-7.016-4.386-1.69-1.94-2.681-4.36-2.762-6.936-.076-2.42.428-5.047 1.977-6.971 2.912-3.615 10.316-5.983 13.457-1.426 1.66 2.408.405 5.237-1.475 7.08-.776.76-2.108 1.805-3.23 1.097-.94-.592-.81-2.387.285-2.731 1.386-.436 2.602 1.436 1.874 2.59-.612.969-1.943 1.272-3.014 1.18-1.26-.108-2.437-.88-2.61-2.219-.165-1.272.69-2.473 1.631-3.236 2.027-1.645 5.138-1.644 7.163-.012 2.157 1.738 2.832 4.692 1.402 7.098-1.398 2.351-4.11 3.736-6.824 3.62-2.673-.113-5.13-1.617-6.674-3.765-1.263-1.76-1.905-3.948-1.266-6.071.552-1.839 1.929-3.333 3.554-4.305 1.74-1.04 3.823-1.539 5.843-1.327 2.36.246 4.413 1.492 5.901 3.318 1.794 2.198 2.704 5.228 1.337 7.875-1.143 2.212-3.416 3.7-5.71 4.516-2.034.723-4.244.905-6.288.105-1.831-.716-3.328-2.115-4.271-3.83-2.048-3.718-1.255-8.325 1.84-11.203 3.065-2.85 7.798-3.722 11.694-2.217 2.028.783 3.754 2.229 4.839 4.117 1.275 2.22 1.298 4.826.41 7.189-1.64 4.36-6.173 8.415-11.009 8.372-4.614-.042-9.343-3.374-10.471-7.933-1.125-4.542 1.243-9.773 5.962-10.978.12-.032.07-.219-.052-.188" fill="#FEFEFE"/>
            <path d="M100.302 40.505c-4.261 1.102-6.2 6.181-4.55 10.091 1.564 3.711 6.086 6.202 10.05 5.22 3.972-.983 7.695-5.178 7.684-9.351-.012-4.107-3.807-6.978-7.66-7.154-3.765-.173-7.704 1.998-8.868 5.72-1.049 3.35.495 7.338 3.724 8.858 1.75.823 3.699.75 5.497.124 1.978-.688 3.968-1.993 4.866-3.953 1.86-4.059-2.12-8.667-6.152-9.032-3.33-.3-7.26 1.838-7.785 5.37-.624 4.19 3.86 7.9 7.838 7.348 2.15-.3 4.214-1.786 4.926-3.88.698-2.05-.378-4.35-2.221-5.4-1.72-.978-4.043-.743-5.522.579-.683.61-1.269 1.502-1.219 2.453.045.844.622 1.581 1.398 1.887 1.212.48 3.839.102 3.672-1.682-.068-.725-.697-1.48-1.449-1.54-.724-.06-1.231.492-1.309 1.176-.075.671.23 1.34.907 1.54.8.235 1.604-.293 2.18-.791 1.525-1.32 2.724-3.471 1.873-5.483-.904-2.139-3.303-2.965-5.463-2.704-2.08.251-4.246 1.24-5.682 2.786-1.482 1.595-1.99 3.85-1.943 5.979.049 2.174.884 4.206 2.318 5.832 1.65 1.869 3.939 3.3 6.429 3.655 2.426.346 4.825-.38 6.894-1.625 1.843-1.11 3.59-2.78 3.91-5.004.36-2.5-.849-4.961-2.39-6.85-1.55-1.901-3.689-3.72-6.218-3.981-2.21-.228-4.407.836-5.867 2.463-2.152 2.398-2.762 6.255-.83 8.97 2.253 3.165 7.426 3.638 10.213.94 1.484-1.437 2.233-3.573 1.958-5.622-.247-1.845-1.454-3.53-3.346-3.928-1.852-.39-4.068.352-5.249 1.848-1.033 1.308-1.029 3.33-.017 4.656 1.036 1.359 2.672 1.216 3.972.345.525-.35 1.13-.895 1.115-1.585-.005-.264-.318-1.16-.735-.918-.328.19-.022.697.18.845.505.368 1.27.125 1.715-.221 1.225-.95 1.505-2.953 1.575-4.393.087-1.769-.313-3.7-1.745-4.872-1.536-1.257-3.809-1.438-5.7-1.17-4.092.583-7.66 3.852-7.938 8.085-.249 3.795 2.048 7.297 5.442 8.872 3.027 1.405 6.73 1.403 9.707-.139 3.427-1.776 5.745-5.833 4.257-9.638-1.615-4.127-6.822-6.129-10.72-3.937-3.53 1.986-4.883 6.976-2.36 10.301 2.593 3.418 8.37 3.063 10.94-.165 1.235-1.553 1.089-3.604-.267-5.035-1.406-1.484-3.506-1.82-5.399-1.193-1.71.566-3.36 1.894-3.627 3.77-.145 1.014.28 1.919 1.237 2.329 1.729.74 4.757-.076 5.153-2.146.276-1.444-.911-2.867-2.036-3.59-1.792-1.152-4.168-1.123-6.136-.481-1.551.505-3.586 1.831-3.694 3.64-.112 1.895 1.795 2.653 3.372 2.726 1.718.08 3.883-.294 5.123-1.59 1.37-1.434 1.162-3.612.25-5.23-.863-1.53-2.492-2.641-4.298-2.424-1.747.21-3.064 1.565-3.639 3.169-.733 2.042-.187 4.33 1.201 5.966 1.647 1.94 4.082 2.027 6.385 1.403.12-.032.069-.22-.052-.187-2.378.645-4.831.484-6.416-1.629-1.317-1.754-1.667-4.108-.677-6.097.727-1.462 2.178-2.545 3.86-2.454 1.854.101 3.29 1.588 3.886 3.263.678 1.91.132 3.95-1.759 4.884-1.399.691-3.216.93-4.745.63-.803-.156-1.6-.513-2.02-1.25-.552-.972-.196-2.036.49-2.828 1.22-1.411 3.103-2.098 4.924-2.217 2.022-.132 4.119.53 5.276 2.286.599.908.79 2.027.06 2.919-1.056 1.292-3.795 1.923-5.083.632-.893-.896-.454-2.406.181-3.31 1.054-1.5 3.058-2.373 4.868-2.306 1.906.071 3.823 1.45 4.202 3.375.42 2.138-1.419 3.932-3.212 4.738-1.822.82-3.97.806-5.813.058-1.74-.707-2.95-2.136-3.412-3.953-.966-3.792 1.424-7.722 5.258-8.568 4.058-.895 8.462 2.06 8.934 6.243.387 3.427-2.008 6.56-5.013 7.935-5.554 2.543-12.96-.24-14.27-6.5-.79-3.78 1.205-7.475 4.591-9.21 2.893-1.482 8.048-1.847 9.698 1.636.68 1.438.662 3.172.368 4.707-.144.747-.357 1.517-.772 2.162-.362.564-1.49 1.504-2.135.754-.087-.101-.23-.346-.042-.365.186-.02.325.337.36.482.11.466-.152.883-.467 1.2-.51.515-1.275.933-1.99 1.068-1.851.352-2.972-1.605-2.969-3.2.004-1.94 1.55-3.295 3.311-3.805 1.87-.542 3.91-.068 4.984 1.653 2.15 3.447-.4 8.193-4.165 8.991-3.308.7-6.952-1.013-7.868-4.384-.793-2.921.49-6.144 2.918-7.893 1.895-1.366 4.249-1.746 6.413-.804 2.091.91 3.904 2.78 5.107 4.688 1.204 1.907 1.984 4.376 1.1 6.57-.753 1.868-2.48 3.195-4.214 4.102-2.012 1.053-4.28 1.573-6.535 1.119-2.205-.443-4.21-1.732-5.716-3.38-1.36-1.489-2.22-3.352-2.363-5.371-.137-1.916.203-4.048 1.327-5.643 2.126-3.018 7.907-5.05 10.695-1.852 1.604 1.84.885 4.165-.624 5.795-.594.642-1.565 1.547-2.527 1.263-1.041-.306-1.06-2.13.07-2.313.586-.095 1.099.3 1.366.8.304.564.165 1.164-.288 1.595-.664.631-1.762.75-2.617.538-1.092-.271-1.807-1.295-1.55-2.42.224-.973 1.045-1.811 1.903-2.27 1.82-.975 4.13-.658 5.552.854 1.65 1.757 1.637 4.212.086 6.017-1.408 1.638-3.624 2.402-5.745 2.02-2.064-.371-3.855-1.751-4.899-3.549-.83-1.428-1.08-3.125-.447-4.678.586-1.437 1.789-2.558 3.156-3.252 3.363-1.707 7.287-.668 9.386 2.468 1.226 1.832 1.603 4.129.396 6.07-1.043 1.677-2.899 2.787-4.748 3.362-3.264 1.015-6.632-.266-8.187-3.36-1.524-3.03-.75-6.664 1.786-8.886 2.495-2.187 6.264-2.807 9.334-1.55 1.615.66 2.987 1.86 3.815 3.4.957 1.782.918 3.85.191 5.704-1.346 3.436-4.935 6.624-8.767 6.592-3.655-.03-7.399-2.639-8.36-6.226-.981-3.668.923-7.928 4.74-8.915.12-.03.07-.218-.052-.187" fill="#FEFEFE"/>
            <path d="M102.953 31.799c-3.092.817-4.514 4.468-3.328 7.328 1.141 2.75 4.521 4.589 7.439 3.796 2.903-.79 5.648-3.927 5.474-7.028-.169-3.006-3.063-4.974-5.89-4.97-2.77.004-5.585 1.74-6.24 4.543-.581 2.486.717 5.297 3.148 6.226 2.659 1.016 6.599-.643 7.413-3.46.905-3.131-2.337-6.173-5.328-6.075-2.448.08-5.162 1.936-5.062 4.611.12 3.217 3.84 5.556 6.79 4.41 1.396-.543 2.642-1.863 2.718-3.413.075-1.51-1.065-2.968-2.49-3.394-1.37-.409-3.01.085-3.825 1.283-.758 1.116-.296 2.53 1.092 2.754.979.158 2.694-.449 2.14-1.734-.406-.944-1.825-1.075-1.954.105-.052.472.15.95.616 1.12.56.202 1.139-.129 1.563-.473 1.153-.935 2.086-2.538 1.494-4.032-1.332-3.358-6.142-2.077-8.073-.089-2.257 2.325-1.832 6.39.201 8.689 1.218 1.377 2.912 2.42 4.75 2.66 1.835.24 3.656-.357 5.187-1.348 1.25-.808 2.385-1.982 2.6-3.513.265-1.883-.69-3.73-1.875-5.125-1.178-1.386-2.783-2.683-4.677-2.756-1.582-.061-3.127.771-4.126 1.97-1.512 1.814-1.852 4.656-.326 6.571 1.857 2.33 5.84 2.388 7.703.052 1.658-2.078 1.459-6.265-1.795-6.582-1.342-.13-2.911.49-3.639 1.662-.623 1.003-.491 2.504.342 3.355.848.865 2.056.604 2.928-.08.359-.283.717-.702.614-1.192-.041-.2-.271-.68-.55-.535-.236.122-.06.494.072.616.319.293.86.179 1.193-.025.986-.6 1.211-2.13 1.28-3.175.087-1.273-.162-2.689-1.152-3.58-1.096-.987-2.782-1.145-4.185-.963-2.964.385-5.577 2.707-5.85 5.759-.252 2.8 1.431 5.421 3.935 6.59 2.269 1.058 5.067 1.03 7.266-.196 2.498-1.394 4.047-4.445 2.793-7.194-1.37-3.005-5.365-4.242-8.11-2.331-2.345 1.631-3.073 5.229-1.124 7.466 2.035 2.337 6.479 1.96 8.061-.72.731-1.238.291-2.731-.787-3.607-1.153-.936-2.678-.99-4.01-.42-1.148.491-2.243 1.529-2.278 2.857-.018.717.394 1.277 1.065 1.514 1.288.455 3.47-.18 3.66-1.734.138-1.12-.845-2.18-1.754-2.67-1.343-.722-3.093-.656-4.488-.107-1.066.42-2.455 1.402-2.432 2.69.023 1.353 1.401 1.846 2.545 1.885 1.243.041 2.806-.237 3.688-1.192.98-1.062.82-2.654.14-3.83-.643-1.11-1.832-1.904-3.15-1.733-1.23.16-2.172 1.1-2.601 2.226-.586 1.534-.179 3.268.89 4.49 1.203 1.376 2.957 1.416 4.61.974.12-.033.07-.22-.051-.188-1.768.474-3.572.331-4.704-1.28-.906-1.29-1.104-2.96-.363-4.373.553-1.055 1.659-1.8 2.877-1.664 1.323.149 2.317 1.268 2.695 2.488.446 1.437-.094 2.842-1.508 3.446-1.018.435-2.31.597-3.39.33-.556-.136-1.077-.423-1.334-.955-.37-.759.008-1.53.55-2.083.94-.957 2.295-1.41 3.615-1.448 1.415-.04 2.838.473 3.625 1.71.429.674.508 1.48-.052 2.102-.778.862-2.681 1.292-3.582.385-.65-.655-.312-1.755.16-2.406.774-1.064 2.223-1.688 3.525-1.618 1.448.076 2.92 1.215 3.015 2.73.096 1.524-1.34 2.73-2.644 3.218-2.567.958-5.722-.215-6.382-3.011-.642-2.718 1.087-5.504 3.828-6.097 2.939-.636 6.11 1.51 6.435 4.54.257 2.406-1.398 4.616-3.488 5.628-3.767 1.824-8.957.197-10.27-3.967-.83-2.63.183-5.405 2.477-6.924 1.941-1.285 5.545-1.906 7.24.125.743.89.885 2.14.792 3.257-.08.969-.331 2.652-1.42 3.006a1.062 1.062 0 0 1-.366.054l-.29-.075c-.17-.077-.193-.17-.073-.276.422.196.077.868-.092 1.067-.346.404-.94.733-1.46.838-1.41.284-2.23-1.224-2.163-2.436.075-1.387 1.273-2.312 2.54-2.626 1.384-.344 2.83.113 3.527 1.414 1.362 2.542-.508 5.813-3.224 6.32-2.389.445-4.956-.824-5.577-3.256-.536-2.102.405-4.398 2.152-5.642 1.417-1.01 3.165-1.24 4.75-.49 1.443.681 2.701 1.989 3.543 3.327.83 1.321 1.388 3.013.859 4.552-.475 1.384-1.717 2.383-2.962 3.06-1.34.729-2.837 1.146-4.37.97-1.708-.198-3.277-1.125-4.462-2.344-1.946-2.004-2.584-5.34-1.12-7.82 1.295-2.196 5.07-3.771 7.332-2.177 1.651 1.163 1.488 3.11.282 4.521-.386.451-.899.977-1.507 1.09-1.33.248-1.238-1.885-.112-1.637.431.095.805.585.798 1.026-.009.472-.408.79-.801.952-.648.267-1.559.236-2.096-.261-1.442-1.335.611-3.057 1.888-3.326 1.519-.321 2.998.457 3.673 1.839.795 1.628-.093 3.363-1.525 4.277-2.674 1.707-6.347-.058-7.152-3.015-.628-2.308 1.154-4.328 3.256-4.992 2.587-.817 5.271.465 6.375 2.94 1.4 3.14-1.553 5.721-4.456 6.195-2.378.387-4.573-1.075-5.332-3.326-.779-2.312.145-4.784 2.137-6.151 1.93-1.324 4.614-1.55 6.696-.446 1.103.586 2.029 1.562 2.48 2.736.524 1.364.29 2.865-.352 4.146-1.15 2.293-3.626 4.323-6.297 4.201-2.56-.117-5.138-1.96-5.819-4.475-.72-2.659.66-5.717 3.414-6.444.12-.032.07-.219-.051-.187" fill="#FEFEFE"/>
            <path d="M109.029 23.373c-2.18.595-3.196 3.15-2.347 5.183.832 1.989 3.318 3.293 5.41 2.618 2.034-.657 3.956-2.923 3.667-5.149-.278-2.138-2.458-3.399-4.478-3.253-1.977.143-3.864 1.534-4.124 3.581-.236 1.86.964 3.81 2.858 4.168 1.954.369 4.708-1.072 4.767-3.25.062-2.284-2.345-3.977-4.47-3.58-1.768.33-3.398 1.95-2.862 3.85.629 2.225 3.433 3.473 5.385 2.086.9-.64 1.495-1.762 1.105-2.858-.348-.977-1.268-1.682-2.312-1.692-.963-.01-2.13.595-2.307 1.627-.16.938.744 1.474 1.574 1.365.716-.093 1.426-.752.888-1.466-.42-.559-1.265-.409-1.31.334-.059.972.978.893 1.534.467.765-.588 1.412-1.617 1.188-2.612-.255-1.126-1.412-1.763-2.5-1.756-1.128.008-2.324.501-3.151 1.264-1.653 1.524-1.51 4.379-.182 6.05 1.743 2.193 4.572 2.692 6.96 1.276.967-.573 1.878-1.436 2.052-2.597.19-1.268-.42-2.526-1.197-3.49-.788-.977-1.879-1.912-3.17-2.065-1.146-.135-2.29.401-3.054 1.245-1.154 1.273-1.452 3.352-.347 4.754 1.305 1.656 4.121 1.701 5.445.057 1.2-1.49 1.02-4.502-1.33-4.673-.963-.07-2.098.399-2.572 1.276-.388.72-.265 1.762.337 2.333.607.576 1.453.382 2.054-.095.243-.194.486-.472.449-.807-.017-.143-.176-.534-.393-.466-.132.04-.151.175-.126.294.056.268.373.346.603.323.832-.084 1.125-1.15 1.239-1.825.147-.883.123-1.897-.387-2.666-.56-.842-1.588-1.125-2.548-1.148-2.225-.054-4.425 1.454-4.843 3.704-.365 1.97.698 3.955 2.427 4.898 1.606.875 3.666.922 5.292.073 1.818-.95 2.991-3.14 2.097-5.122-.969-2.146-3.813-3.025-5.76-1.646-1.673 1.184-2.161 3.821-.67 5.362 1.501 1.55 4.837 1.257 5.72-.86.364-.875-.025-1.826-.754-2.377-.817-.618-1.872-.634-2.788-.232-.797.35-1.56 1.07-1.591 1.997-.017.523.269.93.758 1.108.931.338 2.53-.148 2.616-1.29.062-.824-.68-1.573-1.362-1.903-.943-.456-2.148-.395-3.102-.002-.77.317-1.778 1.06-1.67 2.01.102.913 1.049 1.213 1.837 1.234.907.024 2.046-.194 2.65-.935.628-.769.483-1.88-.006-2.68-1.07-1.753-3.399-1.418-4.077.47-.368 1.025-.104 2.172.572 3.008.855 1.057 2.113 1.113 3.342.79.12-.031.07-.219-.051-.187-1.257.33-2.526.217-3.305-.946-.606-.904-.723-2.078-.176-3.038 1.038-1.828 3.37-1.094 3.848.754.521 2.01-1.873 2.957-3.502 2.473-.477-.141-.856-.44-.93-.954-.086-.605.412-1.122.866-1.445.703-.5 1.616-.723 2.473-.663.944.065 1.98.56 2.321 1.508.172.476.034.933-.352 1.254-.587.486-2.003.765-2.452-.056-.353-.645.158-1.473.643-1.883.693-.586 1.737-.886 2.618-.603.97.312 1.761 1.311 1.452 2.358-.29.983-1.407 1.634-2.356 1.814-1.97.373-3.836-.863-3.933-2.914-.09-1.92 1.44-3.582 3.363-3.653 2.001-.074 3.9 1.57 3.878 3.617-.016 1.623-1.227 3.019-2.668 3.63-2.583 1.094-5.978-.02-6.909-2.792-.601-1.792.039-3.71 1.575-4.803 1.315-.934 3.699-1.406 4.995-.18.967.916 1.048 3.287.099 4.275a.946.946 0 0 1-.212.175c-.065.035-1.012.307-.693-.083l.06.214c.094.131.086.249-.024.352-.047.104-.105.16-.182.235-.297.292-.789.52-1.207.488-.972-.076-1.351-1.29-1.107-2.103.28-.93 1.364-1.467 2.282-1.48 1.044-.015 1.841.68 2.07 1.683.472 2.056-1.277 3.941-3.328 3.808-1.614-.104-2.96-1.184-3.101-2.844-.125-1.458.667-2.91 1.948-3.614 2.208-1.213 4.458.521 5.545 2.436.553.973.851 2.212.324 3.261-.419.832-1.214 1.43-2.022 1.854-2.036 1.07-4.274.718-5.925-.879-1.394-1.348-1.9-3.52-1.05-5.313.76-1.608 3.262-2.786 4.933-1.957 1.213.601 1.46 1.951.711 3.024-.243.348-.568.707-.943.912-.326.178-.828.165-.956-.253-.067-.218.036-.667.306-.703.214-.028.619.135.704.36.29.775-.569 1.12-1.183 1.065-.804-.075-1.245-.855-.839-1.574.545-.965 1.892-1.291 2.868-.838 1.065.495 1.638 1.807 1.128 2.892-.464.987-1.526 1.62-2.601 1.662-1.854.071-3.847-1.742-3.491-3.678.278-1.519 1.888-2.486 3.344-2.532 1.915-.063 3.995 1.773 3.633 3.802-.326 1.822-2.699 3.002-4.415 2.726-1.538-.248-2.643-1.623-2.8-3.134-.169-1.623.806-3.108 2.25-3.798 1.409-.673 3.181-.63 4.48.274 1.684 1.173 1.885 3.265.847 4.944-.925 1.496-2.623 2.711-4.444 2.495-1.708-.202-3.38-1.475-3.788-3.188-.437-1.838.518-3.867 2.396-4.38.12-.033.07-.22-.051-.187M116.2 34.584c-4.345 1.122-6.332 6.294-4.67 10.29 1.569 3.772 6.115 6.316 10.148 5.411 4.106-.922 7.961-5.234 8.011-9.505.05-4.217-3.812-7.206-7.768-7.415-3.802-.202-7.793 1.93-9.075 5.646-1.169 3.39.294 7.483 3.52 9.154 1.715.89 3.672.918 5.494.355 2.058-.636 4.151-1.913 5.186-3.865 2.157-4.065-1.719-8.963-5.85-9.503-3.432-.448-7.576 1.662-8.236 5.291-.777 4.274 3.746 8.166 7.82 7.71 2.179-.245 4.272-1.663 5.111-3.723.84-2.06-.079-4.41-1.895-5.62-1.703-1.135-4.122-1.03-5.725.25-.756.604-1.424 1.512-1.449 2.515-.022.908.568 1.738 1.395 2.079 1.225.503 3.83.169 3.797-1.602-.03-1.535-2.385-2.459-2.793-.663-.15.656.079 1.416.728 1.697.773.334 1.59-.102 2.193-.577 1.596-1.255 2.924-3.449 2.22-5.515-.76-2.234-3.18-3.243-5.387-3.06-2.16.18-4.42 1.17-5.955 2.715-1.585 1.595-2.151 3.866-2.15 6.063 0 2.219.79 4.316 2.218 6.01 1.668 1.977 4.05 3.506 6.628 3.903 2.484.384 4.942-.334 7.073-1.596 1.814-1.074 3.576-2.676 4.026-4.823.532-2.528-.636-5.108-2.155-7.07-1.575-2.032-3.813-4.017-6.46-4.344-2.217-.275-4.429.723-5.951 2.308-2.298 2.392-3.038 6.339-1.154 9.197 2.172 3.293 7.379 3.927 10.333 1.357 1.616-1.406 2.47-3.602 2.27-5.73-.18-1.882-1.3-3.668-3.195-4.196-1.862-.518-4.137.177-5.433 1.6-1.179 1.294-1.308 3.345-.341 4.807.984 1.49 2.668 1.491 4.07.615.568-.355 1.239-.911 1.26-1.642.01-.285-.267-1.192-.713-1.01-.353.143-.091.673.095.834.496.428 1.318.187 1.783-.163 1.277-.963 1.566-3.043 1.637-4.525.085-1.773-.306-3.714-1.715-4.916-1.55-1.322-3.88-1.526-5.822-1.266-4.159.558-7.82 3.824-8.19 8.113-.333 3.87 1.957 7.505 5.397 9.172 3.065 1.485 6.841 1.535 9.907.026 3.544-1.744 6.025-5.848 4.604-9.782-1.547-4.28-6.883-6.445-10.92-4.261-3.62 1.958-5.087 6.943-2.666 10.408 2.551 3.654 8.568 3.4 11.274.095 1.28-1.564 1.216-3.639-.14-5.14-1.412-1.565-3.58-1.95-5.537-1.322-1.768.567-3.486 1.928-3.77 3.862-.15 1.019.257 1.944 1.217 2.374 1.746.785 4.802-.015 5.295-2.072.338-1.406-.746-2.825-1.81-3.6-1.797-1.31-4.233-1.334-6.297-.736-1.63.472-3.724 1.764-3.99 3.601-.285 1.962 1.646 2.862 3.279 2.972 1.742.117 3.931-.242 5.25-1.481 1.494-1.402 1.374-3.642.478-5.337-.857-1.618-2.524-2.834-4.414-2.637-1.753.183-3.106 1.5-3.728 3.092-.842 2.157-.274 4.61 1.233 6.334 1.686 1.928 4.153 1.99 6.469 1.363.12-.033.07-.22-.051-.187-2.437.66-4.945.492-6.57-1.67-1.38-1.836-1.719-4.318-.624-6.374.783-1.472 2.297-2.516 4.005-2.37 1.895.16 3.337 1.735 3.903 3.465.647 1.977-.003 4.003-1.944 4.915-1.466.689-3.377.929-4.955.556-.894-.211-1.721-.698-2.04-1.605-.345-.978.115-1.939.78-2.654 1.313-1.414 3.257-2.083 5.15-2.158 2.036-.08 4.126.653 5.242 2.448.585.941.715 2.066-.046 2.947-1.104 1.279-3.882 1.913-5.177.575-.886-.914-.45-2.431.188-3.35 1.078-1.555 3.15-2.458 5.017-2.382 1.964.081 3.938 1.521 4.294 3.514.395 2.204-1.54 4.035-3.398 4.835-1.903.818-4.122.769-6.015-.054-1.709-.743-2.88-2.19-3.334-3.991-.987-3.91 1.51-7.957 5.476-8.775 4.157-.858 8.621 2.193 9.064 6.475.365 3.532-2.144 6.734-5.255 8.11-5.731 2.535-13.286-.404-14.522-6.863-.738-3.852 1.354-7.577 4.805-9.308 2.994-1.502 8.296-1.821 9.907 1.827.662 1.5.62 3.29.29 4.869-.158.761-.394 1.554-.854 2.192-.377.524-1.578 1.384-2.127.584-.136-.198-.118-.415.149-.248.162.102.24.445.245.622.014.47-.33.87-.662 1.162-.562.492-1.38.939-2.139.984-1.886.114-2.888-1.935-2.778-3.567.133-1.99 1.88-3.303 3.707-3.726 1.961-.453 4 .235 4.955 2.086 1.9 3.686-.83 8.32-4.765 8.959-3.428.555-7.01-1.335-7.8-4.83-.686-3.033.75-6.279 3.314-7.979 2.05-1.359 4.525-1.575 6.73-.447 2.07 1.06 3.877 2.985 5.037 4.981 1.171 2.016 1.806 4.58.708 6.765-.89 1.77-2.612 3.022-4.343 3.892-2.098 1.053-4.454 1.515-6.768.97-2.214-.522-4.231-1.872-5.718-3.576-1.377-1.58-2.194-3.538-2.276-5.637-.076-1.975.325-4.126 1.567-5.712 2.354-3.006 8.472-4.992 11.068-1.253 1.368 1.97.343 4.295-1.2 5.807-.643.629-1.879 1.579-2.764.805-.793-.694-.28-2.374.883-2.152 1.206.23 1.534 1.786.637 2.53-.703.585-1.768.704-2.633.473-1.132-.302-1.842-1.39-1.527-2.55.274-1.014 1.143-1.87 2.07-2.318 1.929-.933 4.274-.53 5.684 1.109 1.625 1.889 1.448 4.396-.22 6.184-1.499 1.605-3.767 2.301-5.91 1.846-2.11-.448-3.923-1.913-4.938-3.8-.806-1.5-.965-3.25-.242-4.813.655-1.419 1.896-2.51 3.29-3.18 3.498-1.68 7.496-.489 9.567 2.787 1.217 1.927 1.48 4.278.163 6.226-1.125 1.661-3.025 2.753-4.92 3.304-3.36.98-6.791-.478-8.287-3.677-1.457-3.118-.602-6.764 2.002-8.987 2.618-2.234 6.565-2.821 9.71-1.412 1.579.707 2.905 1.922 3.708 3.458.977 1.87.877 4.034.078 5.946-1.45 3.469-5.1 6.648-9.01 6.56-3.734-.083-7.538-2.781-8.47-6.467-.944-3.735 1-8.03 4.876-9.03.12-.032.07-.22-.051-.188" fill="#FEFEFE"/>
            <path d="M114.256 48.406c-2.552.686-3.726 3.698-2.72 6.06.981 2.3 3.863 3.806 6.289 3.021 2.373-.767 4.618-3.417 4.27-6.013-.334-2.485-2.87-3.94-5.215-3.769-2.281.166-4.467 1.76-4.793 4.117-.293 2.12 1.022 4.377 3.165 4.87 2.267.523 5.554-1.114 5.7-3.646.15-2.608-2.56-4.656-5.008-4.299-2 .291-3.988 2.01-3.596 4.191.467 2.591 3.584 4.254 5.938 2.995 1.087-.581 1.986-1.775 1.814-3.057-.165-1.234-1.214-2.276-2.439-2.45-1.156-.165-2.526.411-2.965 1.555-.42 1.094.507 1.95 1.57 1.896.803-.04 1.78-.696 1.269-1.586-.425-.739-1.524-.674-1.58.263-.068 1.125 1.137 1.02 1.777.523.97-.756 1.75-2.099 1.274-3.336-1.076-2.79-5.065-1.728-6.65-.09-1.875 1.94-1.483 5.313.233 7.199 1.027 1.13 2.445 1.974 3.98 2.132 1.473.152 2.933-.347 4.155-1.15 1.076-.707 2.008-1.732 2.118-3.067.129-1.553-.7-3.045-1.704-4.167-.992-1.11-2.319-2.118-3.875-2.1-1.305.014-2.55.749-3.333 1.769-1.184 1.54-1.365 3.883-.03 5.395 1.65 1.87 4.945 1.735 6.374-.315 1.27-1.822.822-5.164-1.87-5.214-1.113-.02-2.41.557-2.891 1.613-.393.86-.196 2.084.57 2.684.753.588 1.786.267 2.419-.351.262-.257.456-.608.31-.976-.06-.153-.255-.45-.454-.316-.148.1-.078.333.005.448.195.273.604.251.882.145.908-.348 1.137-1.66 1.22-2.498.105-1.046-.04-2.228-.797-3.02-.851-.889-2.248-1.061-3.413-.941-2.408.248-4.595 2.045-4.937 4.504-.328 2.359 1.051 4.634 3.163 5.637 1.847.878 4.13.872 5.938-.107 2.09-1.129 3.402-3.663 2.358-5.948-1.15-2.52-4.523-3.505-6.775-1.834-1.886 1.4-2.404 4.418-.698 6.181 1.741 1.8 5.525 1.459 6.622-.924.473-1.026.03-2.17-.836-2.827-.934-.71-2.136-.742-3.193-.297-.957.402-1.886 1.266-1.904 2.376-.01.608.351 1.072.923 1.26 1.09.357 2.952-.22 2.99-1.571.026-.921-.787-1.75-1.553-2.13-1.122-.556-2.584-.481-3.716.014-.89.39-2.053 1.273-1.855 2.385.19 1.067 1.355 1.352 2.285 1.343 1.024-.01 2.274-.27 2.941-1.118.702-.894.526-2.164-.034-3.082-1.25-2.05-3.967-1.635-4.742.573-.434 1.237-.076 2.634.783 3.603.992 1.119 2.425 1.145 3.78.787.12-.032.068-.22-.052-.187-1.424.377-2.879.281-3.808-1.01-.75-1.04-.932-2.422-.328-3.575.44-.842 1.301-1.456 2.28-1.376 1.107.09 1.934 1.014 2.255 2.024.362 1.137-.054 2.28-1.164 2.781-.835.376-1.9.506-2.792.3-.517-.118-1.005-.406-1.174-.938-.206-.642.192-1.244.65-1.66.777-.702 1.829-1.028 2.863-1.047 1.159-.02 2.351.432 2.948 1.48.319.56.326 1.184-.14 1.66-.651.667-2.274 1.026-2.935.18-.492-.631-.064-1.585.4-2.091.72-.786 1.944-1.241 3.002-1.05 1.109.2 2.164 1.17 2.131 2.356-.035 1.257-1.316 2.205-2.423 2.532-2.16.638-4.588-.473-4.984-2.792-.397-2.32 1.273-4.558 3.631-4.792 2.37-.236 4.698 1.619 4.804 4.034.084 1.897-1.284 3.59-2.937 4.363-3.04 1.424-7.188.123-8.285-3.2a4.93 4.93 0 0 1 1.797-5.58c1.54-1.122 4.354-1.694 5.897-.256.716.666.903 1.692.866 2.63-.031.784-.177 1.863-.774 2.436-.188.18-.537.378-.807.276-.622-.235-.272-.155-.2-.253.11-.149.12.575.077.663-.213.432-.815.751-1.264.862-1.141.284-1.845-.91-1.815-1.901.076-2.452 3.903-3.097 4.967-.982 1.073 2.13-.54 4.772-2.801 5.106-1.926.285-3.924-.745-4.408-2.7-.415-1.678.32-3.506 1.694-4.523 1.05-.778 2.372-1.05 3.612-.587 1.237.46 2.316 1.53 3.052 2.605.73 1.065 1.283 2.454.93 3.755-.31 1.143-1.256 1.986-2.243 2.568-2.409 1.418-5.138 1.17-7.2-.749-1.694-1.577-2.332-4.139-1.333-6.288.895-1.925 3.923-3.344 5.893-2.268 1.385.758 1.596 2.329.706 3.555-.322.444-.771.953-1.308 1.13-1.35.444-1.035-1.845.027-1.134.807.54.151 1.397-.562 1.545-.647.135-1.414-.064-1.673-.728-.554-1.414 1.419-2.386 2.538-2.325 1.32.073 2.507 1.233 2.521 2.578.013 1.29-1.068 2.404-2.23 2.808-2.244.78-4.99-.952-5.194-3.352-.158-1.855 1.495-3.285 3.181-3.64 2.201-.462 4.452.95 4.989 3.16.607 2.499-2.135 4.343-4.345 4.447-1.867.088-3.444-1.243-3.93-3.003-.53-1.916.354-3.875 2.023-4.905 1.594-.985 3.737-1.098 5.38-.161 2.038 1.164 2.64 3.557 1.574 5.609-.967 1.86-3.004 3.506-5.191 3.356-2.08-.144-4.16-1.654-4.677-3.72-.54-2.159.585-4.583 2.801-5.179.12-.032.07-.22-.051-.187M115.274 27.156c-3.924 1.019-5.726 5.677-4.23 9.294 1.406 3.403 5.486 5.7 9.124 4.92 3.767-.808 7.314-4.79 7.303-8.703-.01-3.82-3.566-6.48-7.149-6.618-3.479-.133-7.104 1.89-8.158 5.338-.95 3.11.503 6.794 3.506 8.176 3.284 1.512 8.138-.327 9.586-3.657 1.646-3.788-2.111-7.997-5.845-8.275-3.084-.23-6.694 1.798-7.11 5.082-.503 3.97 3.845 7.368 7.58 6.646 1.996-.386 3.908-1.921 4.367-3.959.432-1.913-.763-3.952-2.508-4.751-1.695-.777-3.88-.362-5.12 1.047-.528.602-.926 1.414-.748 2.23.173.798.813 1.366 1.586 1.56 1.15.287 3.435-.244 3.04-1.869-.33-1.352-2.365-1.753-2.532-.118-.068.66.262 1.28.934 1.432.755.17 1.49-.353 2.019-.828 1.383-1.244 2.443-3.22 1.622-5.064-1.85-4.152-7.935-2.443-10.326.175-1.352 1.481-1.811 3.567-1.76 5.528.053 2.043.858 3.939 2.221 5.45 1.528 1.694 3.632 2.988 5.913 3.3 2.31.314 4.596-.411 6.541-1.637 1.632-1.03 3.136-2.54 3.416-4.529.326-2.318-.806-4.6-2.24-6.345-1.416-1.726-3.356-3.376-5.651-3.643-2.056-.24-4.107.73-5.476 2.237-2.016 2.22-2.597 5.812-.797 8.338 2.113 2.965 6.976 3.367 9.536.783a6.198 6.198 0 0 0 1.725-5.144c-.239-1.73-1.396-3.29-3.174-3.628-1.688-.322-3.682.354-4.765 1.705-.97 1.21-.977 3.087-.04 4.325.932 1.235 2.404 1.15 3.608.384.506-.323 1.097-.824 1.115-1.477.007-.262-.247-1.073-.652-.92-.302.113-.13.56.022.721.413.438 1.177.25 1.61-.049 1.205-.832 1.474-2.75 1.546-4.095.088-1.626-.266-3.41-1.565-4.507-1.39-1.175-3.461-1.362-5.199-1.14-3.816.487-7.178 3.501-7.466 7.44-.257 3.517 1.86 6.782 5.002 8.252 2.82 1.32 6.28 1.318 9.05-.135 3.192-1.675 5.3-5.475 3.856-9.002-1.553-3.793-6.397-5.575-9.971-3.486-3.2 1.87-4.399 6.429-2.096 9.473 2.414 3.192 7.832 2.843 10.183-.212 1.1-1.43.927-3.303-.3-4.598-1.304-1.377-3.25-1.684-5.006-1.102-1.59.528-3.13 1.775-3.356 3.526-.12.926.276 1.744 1.146 2.12 1.606.694 4.43-.07 4.784-2.002.241-1.313-.822-2.606-1.84-3.28-1.65-1.09-3.84-1.07-5.67-.494-1.443.453-3.298 1.65-3.47 3.303-.184 1.788 1.613 2.54 3.094 2.613 1.576.08 3.553-.257 4.714-1.42 1.271-1.272 1.151-3.233.371-4.731-.766-1.473-2.275-2.584-3.99-2.416-1.642.162-2.89 1.416-3.439 2.915-.709 1.934-.166 4.122 1.184 5.645 1.527 1.723 3.748 1.767 5.828 1.205.12-.032.07-.22-.052-.187-2.166.586-4.4.46-5.872-1.44-1.278-1.65-1.606-3.889-.639-5.767.687-1.336 2.053-2.3 3.592-2.186 1.742.131 3.06 1.575 3.57 3.164.569 1.776-.034 3.587-1.773 4.398-1.316.615-3.027.83-4.444.5-.776-.181-1.49-.58-1.806-1.346-.388-.94.054-1.868.717-2.554 1.176-1.217 2.865-1.802 4.528-1.88 1.845-.087 3.75.561 4.771 2.185.536.852.665 1.874-.03 2.674-.994 1.148-3.504 1.723-4.665.51-.857-.894-.334-2.385.333-3.22 1.036-1.295 2.858-2.049 4.506-1.927 1.783.132 3.565 1.523 3.762 3.37.202 1.89-1.464 3.43-3.056 4.13-1.713.753-3.725.712-5.436-.022-1.564-.67-2.633-1.988-3.041-3.636-.873-3.514 1.37-7.142 4.93-7.886 3.714-.777 7.697 1.905 8.175 5.712.4 3.183-1.82 6.11-4.611 7.39-5.087 2.334-11.891-.166-13.166-5.886-.77-3.454.97-6.868 4.044-8.529 2.662-1.439 7.506-1.865 9.097 1.356.657 1.331.645 2.952.374 4.383-.129.687-.324 1.395-.698 1.991-.329.525-1.359 1.419-1.972.743-.06-.065-.214-.326-.078-.37.159-.053.33.377.356.5.097.452-.201.853-.511 1.144-.485.453-1.197.843-1.864.93-1.708.225-2.672-1.6-2.632-3.069.049-1.774 1.522-2.99 3.134-3.432 1.733-.475 3.598.006 4.558 1.608 1.934 3.225-.473 7.571-3.973 8.259-3.072.603-6.399-1.023-7.2-4.156-.686-2.69.513-5.612 2.738-7.214 1.749-1.259 3.93-1.593 5.92-.72 1.91.839 3.57 2.543 4.676 4.284 1.077 1.694 1.813 3.878 1.134 5.863-.6 1.76-2.162 3.03-3.74 3.9-1.83 1.01-3.911 1.563-6.003 1.218-2.076-.343-3.966-1.503-5.407-3.012-1.28-1.34-2.126-3.025-2.315-4.877-.175-1.723.09-3.68 1.014-5.171 1.776-2.864 6.937-4.874 9.721-2.35 1.767 1.602 1.362 3.868-.075 5.525-.523.603-1.289 1.374-2.144 1.382-1.146.01-1.488-1.778-.4-2.144 1.159-.39 1.952 1.307 1.187 2.106-.578.603-1.55.755-2.34.6-1.036-.201-1.816-1.117-1.584-2.205.195-.91.935-1.696 1.734-2.133 1.699-.928 3.891-.628 5.2.819 1.511 1.67 1.44 3.946-.047 5.6-2.919 3.242-7.953 1.864-9.863-1.718-1.536-2.88.061-5.945 2.864-7.229 3.192-1.462 6.777-.325 8.598 2.675 1.063 1.75 1.234 3.857.023 5.58-1.053 1.498-2.807 2.475-4.546 2.947-3.007.817-6.025-.57-7.333-3.407-1.319-2.861-.468-6.191 1.954-8.17 2.373-1.937 5.887-2.421 8.682-1.145 1.439.658 2.645 1.786 3.353 3.206.859 1.727.704 3.715-.066 5.441-1.366 3.064-4.622 5.841-8.113 5.733-3.356-.104-6.764-2.542-7.587-5.862-.835-3.367.92-7.213 4.406-8.118.12-.03.07-.218-.052-.187M96.46 23.273c-3.666.956-5.326 5.335-3.867 8.694 1.366 3.144 5.207 5.24 8.582 4.4 3.447-.86 6.706-4.57 6.552-8.213-.149-3.525-3.505-5.87-6.819-5.91-3.255-.039-6.592 1.968-7.41 5.248-.72 2.892.74 6.196 3.549 7.347 3.037 1.245 7.478-.524 8.697-3.616 1.418-3.597-2.235-7.432-5.746-7.527-2.861-.078-6.13 1.918-6.316 5-.22 3.674 3.872 6.651 7.309 5.798 1.776-.44 3.455-1.886 3.794-3.743.32-1.751-.808-3.578-2.407-4.28-1.568-.687-3.57-.286-4.698 1.018-1.016 1.173-.93 3.035.768 3.482 1.102.29 3.295-.253 2.823-1.81-.38-1.246-2.246-1.473-2.336.037-.032.545.223 1.066.762 1.237.69.22 1.38-.217 1.886-.65 1.302-1.117 2.342-2.95 1.638-4.672-1.615-3.951-7.339-2.377-9.568.04-1.271 1.378-1.705 3.336-1.647 5.17.06 1.885.811 3.632 2.076 5.024 1.438 1.583 3.415 2.778 5.558 3.039 2.11.257 4.196-.426 5.963-1.55 1.528-.972 2.912-2.397 3.134-4.269.263-2.214-.87-4.363-2.278-5.992-1.356-1.571-3.18-3.041-5.336-3.162-1.874-.105-3.713.858-4.907 2.27-1.79 2.116-2.215 5.445-.45 7.711 2.122 2.725 6.757 2.87 8.983.218 1.999-2.383 1.913-7.357-1.905-7.824-1.57-.192-3.406.502-4.306 1.836-.784 1.161-.673 2.923.274 3.966.966 1.063 2.382.795 3.428.011.437-.328.898-.832.778-1.426-.044-.215-.34-.829-.653-.603-.264.19.016.619.197.743.444.302 1.1.083 1.479-.22 1.054-.836 1.29-2.59 1.336-3.844.054-1.515-.316-3.144-1.561-4.121-1.33-1.045-3.265-1.184-4.879-.943-3.504.522-6.537 3.36-6.73 6.99-.175 3.278 1.853 6.26 4.804 7.568 2.637 1.168 5.85 1.108 8.383-.308 2.895-1.619 4.718-5.142 3.316-8.351-1.547-3.545-6.19-5.065-9.452-2.908-2.807 1.855-3.736 6.072-1.51 8.75 2.349 2.824 7.472 2.412 9.457-.621.942-1.44.492-3.233-.78-4.308-1.34-1.132-3.145-1.222-4.72-.56-1.346.567-2.6 1.732-2.708 3.267-.061.867.406 1.569 1.22 1.861 1.51.543 4.096-.202 4.305-2.035.15-1.3-.987-2.529-2.039-3.1-1.551-.843-3.546-.782-5.174-.184-1.3.48-3.033 1.68-2.968 3.25.067 1.6 1.745 2.128 3.085 2.151 1.472.025 3.315-.321 4.314-1.502 1.08-1.276.837-3.13.022-4.475-.755-1.245-2.112-2.124-3.602-1.948-1.516.178-2.646 1.359-3.137 2.75-.622 1.763-.123 3.743 1.093 5.133 1.41 1.612 3.474 1.663 5.411 1.14.121-.031.07-.219-.051-.186-1.952.526-3.978.447-5.344-1.235-1.216-1.495-1.558-3.569-.706-5.319.607-1.248 1.846-2.18 3.274-2.11 1.587.078 2.807 1.345 3.322 2.773.586 1.627.109 3.359-1.494 4.156-1.171.583-2.694.782-3.978.549-.667-.122-1.373-.401-1.74-1.006-.507-.836-.228-1.76.371-2.456 1.023-1.188 2.599-1.777 4.13-1.891 1.716-.128 3.493.402 4.513 1.865.507.729.736 1.66.19 2.433-.835 1.185-3.168 1.739-4.326.729-.792-.69-.526-1.917-.04-2.704.826-1.335 2.509-2.124 4.05-2.141 1.637-.018 3.322 1.068 3.742 2.7.47 1.825-1.022 3.399-2.553 4.134-2.968 1.427-7.009.236-7.955-3.102-.901-3.181 1.016-6.57 4.232-7.395 3.373-.864 7.112 1.425 7.755 4.875.55 2.952-1.41 5.767-3.98 7.041-4.525 2.244-10.768.225-12.242-4.83-.918-3.144.42-6.406 3.187-8.12 2.354-1.458 6.738-2.087 8.548.563.75 1.1.846 2.547.701 3.833-.124 1.1-.481 3.09-1.819 3.33-.224.04-.53.04-.708-.13-.14-.133-.153-.368.087-.202.395.273.029.958-.184 1.2-.414.472-1.067.824-1.674.973-1.589.387-2.6-1.267-2.619-2.644-.047-3.438 5.187-4.683 7.006-1.96 1.943 2.911-.28 7.04-3.48 7.73-2.817.606-5.931-.852-6.716-3.724-.665-2.437.37-5.122 2.357-6.633 1.575-1.197 3.577-1.591 5.435-.843 1.792.721 3.339 2.286 4.388 3.877 1.048 1.588 1.783 3.655 1.145 5.54-.552 1.637-2.005 2.815-3.47 3.62-1.691.928-3.591 1.422-5.52 1.113-1.897-.303-3.631-1.37-4.952-2.738-1.162-1.204-1.95-2.71-2.154-4.38-.2-1.637.037-3.515.92-4.934 1.656-2.662 6.468-4.511 9.02-2.106 1.59 1.498 1.155 3.584-.17 5.081-.493.556-1.27 1.332-2.083 1.213-.992-.144-1.15-1.825-.085-1.973.516-.072.98.31 1.17.772.236.569.002 1.088-.5 1.418-.651.426-1.573.476-2.287.193-1.008-.402-1.309-1.524-.839-2.455.4-.793 1.144-1.371 1.971-1.663 1.729-.61 3.625-.008 4.63 1.539 1.088 1.67.652 3.614-.76 4.937-2.84 2.66-7.322 1.206-8.896-2.108-1.27-2.672.313-5.386 2.86-6.503 2.976-1.305 6.282-.159 7.9 2.653.938 1.632 1.016 3.55-.128 5.103-.987 1.339-2.585 2.215-4.169 2.637-2.773.737-5.549-.571-6.735-3.189-1.19-2.627-.41-5.67 1.803-7.488 2.2-1.807 5.468-2.252 8.056-1.055 1.316.609 2.438 1.658 3.072 2.968.773 1.593.638 3.413-.076 5.001-1.257 2.8-4.215 5.343-7.41 5.282-3.082-.06-6.224-2.268-7.039-5.293-.844-3.13.78-6.753 4.032-7.602.12-.032.07-.219-.051-.187M129.358 40.05c-1.907.53-2.768 2.79-1.951 4.545.783 1.684 2.938 2.723 4.714 2.059 1.711-.64 3.322-2.609 2.946-4.518-.365-1.862-2.362-2.823-4.118-2.561-1.718.255-3.228 1.635-3.22 3.446.008 1.617 1.235 3.113 2.898 3.18 1.807.073 4.068-1.465 3.56-3.476-.466-1.85-2.462-2.891-4.238-2.272-1.5.523-2.516 2.072-1.768 3.608.896 1.845 3.481 2.543 4.917.884 1.27-1.467.01-3.746-1.92-3.416-.742.128-1.653.748-1.597 1.601.052.77.885 1.077 1.547.906.622-.16 1.057-.855.472-1.362-.464-.401-1.089-.056-1.022.55.082.751.891.612 1.33.271.645-.5 1.19-1.364 1.012-2.207-.483-2.287-3.625-1.574-4.845-.434-1.432 1.339-1.26 3.824-.063 5.244 1.584 1.88 4.07 2.189 6.097.84.768-.51 1.429-1.239 1.524-2.19.117-1.177-.52-2.309-1.29-3.15-.737-.805-1.71-1.516-2.85-1.482-.94.029-1.837.574-2.398 1.312-.885 1.167-.986 2.95.083 4.041 1.277 1.303 3.638 1.125 4.64-.408.885-1.351.492-3.718-1.435-3.756-1.501-.03-3.154 1.705-1.827 3.062.513.524 1.246.385 1.78-.03.182-.142.373-.335.403-.575.02-.16-.063-.525-.273-.545-.358-.033-.157.432.044.521.659.292 1.117-.608 1.256-1.082.488-1.679-.084-3.438-1.98-3.677-1.877-.237-3.854.849-4.448 2.688-.544 1.683.25 3.547 1.714 4.474 1.356.858 3.174.966 4.621.274 1.61-.77 2.688-2.65 1.945-4.391-.796-1.866-3.256-2.637-4.93-1.46-1.44 1.013-1.86 3.291-.561 4.603 1.28 1.294 4.007 1.048 4.83-.669.363-.76.05-1.615-.595-2.112-.692-.53-1.59-.554-2.374-.217-.703.301-1.4.954-1.386 1.78.008.437.273.765.682.904.806.273 2.162-.155 2.217-1.14.041-.724-.627-1.365-1.23-1.637-.805-.363-1.82-.302-2.622.04-.64.274-1.456.886-1.394 1.672.063.801.88 1.077 1.567 1.098.762.023 1.716-.157 2.242-.76.534-.611.468-1.504.112-2.186-.836-1.601-2.938-1.463-3.564.228-.329.885-.104 1.89.49 2.61.73.89 1.8.933 2.844.663.121-.031.07-.219-.051-.187-1.038.269-2.089.196-2.757-.745-.565-.796-.664-1.875-.131-2.711 1.023-1.608 3.161-.576 3.254 1.123.085 1.532-2.056 2.16-3.242 1.606-1.065-.497-.396-1.573.309-2.023.656-.42 1.536-.568 2.3-.427 1.007.188 2.467 1.59 1.15 2.397-.546.335-1.753.48-1.96-.337-.166-.65.388-1.296.896-1.61.718-.448 1.66-.554 2.392-.084.864.553 1.071 1.605.388 2.39-.57.653-1.437.984-2.295.959-1.644-.049-2.811-1.324-2.639-2.972.17-1.612 1.663-2.789 3.27-2.619 1.8.19 3.236 1.957 2.742 3.763-.337 1.232-1.404 2.156-2.6 2.514-2.216.665-4.863-.426-5.484-2.765-.407-1.528.248-3.091 1.572-3.936 1.103-.705 3.03-1.031 4.072-.031.782.75.913 2.893.021 3.654-.362.309-.776.727-1.206.952-.326.171-.674.246-1.018.061-.689-.371-.787-1.438-.384-2.04.95-1.413 3.238-1.037 3.52.674.284 1.721-1.15 3.196-2.851 3.092-2.916-.176-3.431-3.84-1.173-5.335 1.834-1.215 3.776.132 4.787 1.743.476.759.805 1.727.528 2.618-.259.832-.995 1.433-1.729 1.84-1.698.943-3.578.741-5.02-.571-1.205-1.096-1.665-2.751-1.13-4.309.498-1.447 2.391-2.474 3.885-2.104 1.155.286 1.733 1.468 1.123 2.523a2.905 2.905 0 0 1-.57.693c-.196.175-.548.449-.84.351-.264-.1-.361-.3-.29-.598.826-.155 1.073-.008.742.44-.219.453-.711.577-1.198.393-.706-.266-.64-1.036-.22-1.513.605-.684 1.704-.812 2.463-.318 2.082 1.355.122 3.907-1.846 3.702-1.53-.16-3.048-1.807-2.508-3.39.4-1.17 1.709-1.865 2.897-1.85 1.616.023 3.334 1.68 2.892 3.374-.39 1.504-2.424 2.445-3.87 2.115-1.227-.28-2.08-1.414-2.2-2.637-.133-1.376.699-2.617 1.92-3.2 1.198-.572 2.716-.523 3.81.26 1.377.984 1.558 2.691.726 4.095-.758 1.28-2.206 2.345-3.749 2.188-1.475-.15-2.947-1.264-3.272-2.75-.34-1.555.459-3.223 2.037-3.662.12-.034.07-.221-.051-.187" fill="#FEFEFE"/>
            <path d="M106.566 153.449s1.52-.532 4.957 3.647l.076.303-.304.077s-2.45-2.28-4.729-4.027" fill="#F8C197"/>
        </g>
        <path d="M100 175c46.944 0 85-38.056 85-85S146.944 5 100 5 15 43.056 15 90s38.056 85 85 85z" stroke="#BAABC6" stroke-width="2" stroke-linecap="round" stroke-dasharray="2,5" mask="url(#p74pb5i8yd)"/>
    </g>
</svg>
