<svg width="200" height="200" viewBox="0 0 200 200" xmlns="http://www.w3.org/2000/svg" xmlns:xlink="http://www.w3.org/1999/xlink">
    <defs>
        <filter x="-5.6%" y="-2.8%" width="111.1%" height="111.1%" filterUnits="objectBoundingBox" id="1hpj64emcb">
            <feOffset dy="5" in="SourceAlpha" result="shadowOffsetOuter1"/>
            <feGaussianBlur stdDeviation="2.5" in="shadowOffsetOuter1" result="shadowBlurOuter1"/>
            <feColorMatrix values="0 0 0 0 0 0 0 0 0 0 0 0 0 0 0 0 0 0 0.2 0" in="shadowBlurOuter1"/>
        </filter>
        <filter x="0%" y="0%" width="100%" height="100%" filterUnits="objectBoundingBox" id="xqewr0d4jc">
            <feOffset in="SourceAlpha" result="shadowOffsetOuter1"/>
            <feColorMatrix values="0 0 0 0 0 0 0 0 0 0 0 0 0 0 0 0 0 0 0.3 0" in="shadowOffsetOuter1" result="shadowMatrixOuter1"/>
            <feMerge>
                <feMergeNode in="shadowMatrixOuter1"/>
                <feMergeNode in="SourceGraphic"/>
            </feMerge>
        </filter>
        <circle id="xbthz25w0a" cx="100" cy="90" r="90"/>
        <path id="2952kh3ype" d="M0 0h102.57v145.052H0z"/>
    </defs>
    <g fill="none" fill-rule="evenodd">
        <mask id="6ow1vhpnpd" fill="#fff">
            <use xlink:href="#xbthz25w0a"/>
        </mask>
        <use fill="#000" filter="url(#1hpj64emcb)" xlink:href="#xbthz25w0a"/>
        <use fill="#573264" xlink:href="#xbthz25w0a"/>
        <g filter="url(#xqewr0d4jc)" mask="url(#6ow1vhpnpd)">
            <g transform="translate(0 31)">
                <mask id="zwm8lu96qf" fill="#fff">
                    <use xlink:href="#2952kh3ype"/>
                </mask>
                <path d="M101.964 119.396c-.479-1.18-1.921-1.23-3.781-.673 3.162-4.022 5.486-6.45 3.728-10.782-1.812-4.466-17.384 7.18-17.384 7.18-.39-.23-.903-.465-1.513-.702-2.232-3.388-4.979-7.144-7.696-9.748-.902-3.09-5.744-18.644-13.202-24.218.233-.118.468-.256.702-.38 8.006-1.936 15.935-5.526 20.368-11.786 9.244-13.054-.425-21.813-.425-21.813-1.42-33.65-24.968-40.181-32.742-41.798-1.166-2.623-3.353-4.868-7.512-4.663-4.078.201-6.383 2.236-7.337 4.77C3.064 10.601 3.747 43.047 4.794 53.31 2.32 54.321-.392 56.41.047 60.677c.698 6.806 9.642 11.765 12.629 10.943 3.776 4.044 8.523 6.316 13.258 7.688-2.96 5.192-7.505 14.324-8.95 23.614 0 0-15.905 21.67 3.492 35.938 4.42 8.163 18.55 7.403 32.155 2.636 3.908 3.383 14.998 1.016 19.541.645 5.218-.425 6.583-2.914 13.666.166 7.084 3.081 7.445-.388 8.135-3.524.69-3.136.66-3.982 3.972-8.234 3.31-4.251 5.832-6.687 4.02-11.153" fill="#000" opacity=".3" mask="url(#zwm8lu96qf)"/>
            </g>
            <path d="M192.024 172.345s2.78 4.671-7.082 1.866c-9.86-2.806-15.038-3.382-16.4-5.669 0 0-3.264 7.991.815 9.893 4.079 1.9 11.592 1.113 14.59 1.81 2.999.696 13.805 2.057 15.69-.98 1.886-3.037-4.03-6.309-7.613-6.92" fill="#636362"/>
            <path d="m168.37 161.032.643 4.986s-.055.157-.141.433c-.55 1.75-2.416 8.274-.249 10.086 2.51 2.099 15.704 1.984 18.899 2.827 3.193.843 16.316.668 10.657-4.003-5.658-4.67-19.007-8.524-19.553-10.93-.547-2.407-.8-4.507-.8-4.507s-8.565-2.289-9.457 1.108" fill="#FAD8C9"/>
            <path d="M192 171.602s2.78 4.67-7.081 1.865c-9.862-2.805-15.038-3.382-16.402-5.669 0 0-3.263 7.992.816 9.893 4.079 1.902 11.592 1.113 14.59 1.81 2.999.696 13.66 2.186 15.546-.85 1.886-3.037-4.403-5.81-7.469-7.05" fill="#1D1D1B"/>
            <path d="M121.336 87.715s-1.509 4.427-1.287 33.023c.146 18.842-6.664 49.001-6.98 49.938-.318.937 14.225 1.862 13.246-6.687-.441-3.857 13.088-37.118 12.445-42.659-.643-5.54-4.048-14.12-4.048-14.12s-11.748-22.907-13.376-19.495" fill="#834996"/>
            <path d="M168.136 92.967c-.137.473-9.162-3.813-16.004-1.948-6.842 1.865-8.949 7.85-15.76 5.605-6.81-2.245-6.508-8.171-6.234-9.823.276-1.653 2.202-13.218 2.816-14.553.615-1.335 11.575-13.029 11.575-13.029l19.204 14.498 5.9 9.67s.277 3.441-1.497 9.58" fill="#312F4B"/>
            <path d="M158.175 86.878s8.47-7.61 22.252 14.5c13.782 22.108-20.674-10.768-20.674-10.768l-1.578-3.732z" fill="#834996"/>
            <path d="M155.255 86.85s1.017 9.93 4.993 14.668c3.976 4.738 7.766.097 7.766.097l2.49-5.41s-13.626-12.883-15.25-9.355" fill="#834996"/>
            <path d="m158.04 84.23.085 6.665s-9.596 2.468-12.649-2.99l.041-10.853 12.523 7.178z" fill="#FAD8C9"/>
            <path d="m158.026 84.818.028 1.895s-6.028 1.117-12.543-5.275l-.149-3.107 12.664 6.487z" fill="#F8C197"/>
            <path d="M158.062 86.681s-6.301 3.179-12.81-1.014c0 0-9.794 19.55-9.94 25.81-.144 6.262 17.232 6.163 25.86 4.262 8.627-1.901 6.445-3.723 4.813-7.61-1.632-3.885-6.425-18.136-7.923-21.448" fill="#D6C7E3"/>
            <path d="M171.462 62.018s12.055 33.524-7.409 36.669c-.32.051-.517-.344-.274-.56 1.261-1.122 3.37-3.457 2.738-6.094-.886-3.696-2.755-10.648-1.24-14.64 1.514-3.993 5.264-16.769 6.185-15.375" fill="#312F4B"/>
            <path d="M166.311 48.922s5.36 6.037 4.541 15.085c0 0 8.491-9.645-3.846-21.21 0 0-11.04-11.064-26.55-2.838-14.732 7.813-8.188 19.548-9.442 28.188-.736 5.069 35.297-19.225 35.297-19.225" fill="#312F4B"/>
            <path d="M167.594 48.162s3.325 5.776 3.669 10.34c.343 4.566-1.282 7.887-1.26 10.567.02 2.68.648 7.921-5.772 12.542-7.649 5.504-11.274 3.443-16.07.389-6.007-3.826-7.421-9.514-7.157-9.051 0 0-3.751 1.232-6.008-3.86-2.256-5.09.894-6.696 2.87-6.237 0 0-1.723-8.835-.512-13.842 1.21-5.008 7.683-9.01 13.283-9.713 5.6-.705 15.134 3.04 16.957 8.865" fill="#FAD8C9"/>
            <path d="M162.846 61.128c.384.468.888.833 1.419 1.142.537.304 1.12.537 1.722.689a5.703 5.703 0 0 0 1.829.17 3.774 3.774 0 0 0 1.661-.486c-.615-.07-1.163-.08-1.717-.179a15.254 15.254 0 0 1-1.621-.32c-1.077-.264-2.127-.636-3.293-1.016" fill="#312F4B"/>
            <path d="M160.114 66.513c-.24.412-.382.879-.443 1.364-.062.484-.03 1 .143 1.49.088.244.203.483.354.7.157.214.341.406.542.576.41.33.892.539 1.37.67l-.227-.193c.033.06.076.206.09.321.02.123.012.25.001.378-.023.258-.125.514-.264.76-.134.252-.336.471-.537.698l-.334.32c-.12.097-.237.204-.358.308.148-.054.3-.106.448-.168.146-.067.288-.144.43-.222.275-.175.544-.375.765-.64.224-.26.402-.578.493-.936.04-.179.062-.365.052-.554a1.757 1.757 0 0 0-.121-.587l-.054-.136-.173-.058a3.832 3.832 0 0 1-1.097-.567 2.618 2.618 0 0 1-.743-.928c-.18-.367-.278-.788-.33-1.227a7.322 7.322 0 0 1-.007-1.369M170.21 55.775s-2.822-3.88-3.742-5.027c0 0-4.836 15.587-26.205 12.06l25.933-15.925s4.08 7.909 4.014 8.892" fill="#F8C197"/>
            <path d="M145.963 62.87s.931 11.022-.223 17.263L143.32 64.97s-.012-4.19 2.644-2.098" fill="#F8C197"/>
            <path d="M166.311 48.922s5.973 6.802 4.722 14.622c0 0 3.188-12.59-3.513-17.668 0 0-7.33-9.778-18.733-7.173-14.666 3.351-16.618 19.757-7.526 32.08 0 0-.357-3.416 1.54-7.4 0 0 20.74-.67 23.51-14.46" fill="#312F4B"/>
            <path d="M134.257 65.453s.74 5.729 6.747 7.495c0 0-2.625.674-4.526-1.487-1.9-2.162-2.48-4.921-2.22-6.008" fill="#F8C197"/>
            <path d="M169.68 45.795s1.37 2.399-1.573 3.713c0 0 1.334 1.96 4.029-.024 0 0-1.072-2.16-2.455-3.69M163.7 67.164c.638 1.982 3.598 2.167 3.923-.124.076-.528.883-.331.808.195-.137.966-.757 1.706-1.588 2.078.415.114.645.461.645.461-.397-.313-1.414-.226-1.414-.226v-.003a3.088 3.088 0 0 1-.494.035s-.632-.003-1.322-.38c-.644-.395-1.116-1.058-1.35-1.79-.165-.51.629-.755.793-.246M149.728 66.876c.637 1.983 3.597 2.168 3.923-.123.075-.528.883-.331.808.195-.137.966-.758 1.706-1.589 2.078.415.114.644.461.644.461-.395-.313-1.412-.226-1.412-.226v-.003a3.088 3.088 0 0 1-.495.034s-.632-.002-1.322-.38c-.643-.394-1.115-1.057-1.35-1.789-.164-.51.63-.755.793-.247" fill="#312F4B"/>
            <path d="M154.311 78.225a.328.328 0 0 1-.146-.623c4.385-2.19 6.438-.104 6.523-.015a.329.329 0 0 1-.475.454c-.073-.074-1.831-1.81-5.755.149l-.147.035z" fill="#CB6071"/>
            <path d="m131.517 59.268-.888-3.434c-.113 3.702 1.635 13.756-3.584 25.096-6.082 13.218 10.887 24.867 22.26 16.496a.302.302 0 0 0-.105-.537c-1.437-.343-5.058-1.445-4.33-5.513.929-5.179 2.088-18.047-.28-32.405-.99-6.004-12.374-3.532-13.073.297M156.193 61.571c-.377.474-.873.848-1.4 1.166a6.927 6.927 0 0 1-1.71.716 5.687 5.687 0 0 1-1.827.2 3.765 3.765 0 0 1-1.669-.46c.614-.08 1.162-.097 1.714-.206.547-.09 1.083-.197 1.616-.346 1.073-.281 2.117-.67 3.276-1.07" fill="#312F4B"/>
            <path d="M132.63 47.005s12.01 7.993 22.465 3.546c0 0-5.825 7.858-24.48 5.257 0 0-.163-5.035 2.016-8.803M174.216 114.274c.015.463-.637 57.324-25.604 55.867-31.52-1.841-7.772-41.811-5.962-46.735 1.811-4.925 15.09-31.62 24.482-31.147 16.827.846 7.084 22.015 7.084 22.015" fill="#312F4B"/>
            <path d="M161.235 114.115c.015.463 6.405 58.302-25.073 55.844-31.477-2.458-8.303-41.788-6.493-46.713 1.81-4.925 15.089-31.619 24.481-31.147 16.827.846 7.085 22.016 7.085 22.016" fill="#51425E"/>
            <path d="M180.442 163.48s8.517-71.902-14.67-71.59c-16.361.22 2.9 70.53 2.9 70.53s9.564 2.881 11.77 1.06" fill="#51425E"/>
            <path d="M149.392 106.156s-13.833-24.372-20.545-23.859c-10.48.803-14.366 13.465 8.798 34.729 0 0 11.478-8.428 11.747-10.87" fill="#8E5BA1"/>
            <path d="M181.963 173.88s2.885 4.848-7.35 1.936c-10.235-2.911-15.607-3.51-17.023-5.883 0 0-3.385 8.294.847 10.267 4.233 1.973 12.032 1.155 15.143 1.878 3.112.723 14.327 2.136 16.284-1.016 1.958-3.151-4.183-6.547-7.901-7.182" fill="#636362"/>
            <path d="m157.412 162.14.668 5.174s-3.009 8.738-.404 10.916c2.604 2.179 16.299 2.06 19.614 2.934 3.314.876 16.934.694 11.061-4.154-5.872-4.847-19.728-8.846-20.294-11.344a51.826 51.826 0 0 1-.83-4.678s-8.89-2.375-9.815 1.151" fill="#FAD8C9"/>
            <path d="M181.938 173.108s2.885 4.849-7.35 1.937c-10.235-2.911-15.607-3.51-17.023-5.883 0 0-3.385 8.294.847 10.267 4.233 1.973 12.032 1.155 15.143 1.878 3.112.722 14.178 2.27 16.135-.882 1.957-3.152-4.57-6.03-7.752-7.317" fill="#1D1D1B"/>
            <path d="M168.496 163.351s8.517-71.901-14.67-71.59c-16.361.221 2.9 70.53 2.9 70.53s9.564 2.882 11.77 1.06" fill="#6A5870"/>
            <path d="M176.223 83.562c-.822-1.5-1.113-2.87-1.113-2.87 2.308-3.453 2.487-6.425 2.32-8.115 0 0-.378-5.144-1.16-6.886 0 0-1.364-1.088-1.087 1.78.156 1.603.131 2.91.079 3.753l-.123.03c-.499-1.312-1.806-4.601-2.777-5.764 0 0-1.61-.676-.563 2.01.465 1.195 1.219 3.365 1.414 4.158-.615-1.48-1.895-4.425-2.567-5.229 0 0-1.609-.676-.562 2.01a23.556 23.556 0 0 1 1.159 3.905 3.087 3.087 0 0 0-.604.66c-1.196-1.168-3.041-2.875-4.133-3.412 0 0-1.746.032.298 2.065 1.312 1.304 2.27 2.72 2.789 3.57-.697 1.217.727 4.388.727 4.388s.156 1.882.519 4.613c1.89-.357 3.5-.317 5.384-.666" fill="#FAD8C9"/>
            <path d="M176.504 81.809s15.61 28.605 5.093 32.371c-10.795 3.867-10.378-24.184-11.636-31.429l6.543-.942z" fill="#996CAB"/>
            <path d="M170.425 66.3c-.225.02-.395.14-.456.304-.067.164-.072.37-.048.57.002.202.045.409.078.618.025.212.075.421.084.647a2.663 2.663 0 0 1-.297-.592 2.622 2.622 0 0 1-.15-.655c-.001-.225-.006-.476.142-.695a.589.589 0 0 1 .302-.226.533.533 0 0 1 .345.03M169.995 72.378c-.718-.629-1.44-1.253-2.201-1.813-.385-.27-.773-.55-1.192-.718-.202-.085-.441-.114-.515-.008-.085.112-.082.37-.013.556.124.403.51.718.824 1.077.322.352.659.688.952 1.082.25.427.517.794.797 1.188l.821 1.172c-.627-.716-1.265-1.441-1.793-2.225-.303-.351-.636-.696-.966-1.037l-.496-.517a1.805 1.805 0 0 1-.41-.65c-.07-.257-.122-.534.073-.82.113-.141.302-.175.437-.16.143.01.267.052.384.099.463.2.856.484 1.23.786a17.761 17.761 0 0 1 2.068 1.988" fill="#F8C197"/>
            <path d="M140.28 85.447c.579-1.717.628-3.2.628-3.2-3.048-3.17-3.787-6.234-3.925-8.027 0 0-.563-5.432-.073-7.393 0 0 1.22-1.388 1.464 1.655.136 1.699.405 3.057.616 3.926l.134.007c.276-1.459 1.026-5.131 1.823-6.523 0 0 1.552-1.004.96 1.99-.262 1.332-.645 3.734-.701 4.597.366-1.658 1.154-4.965 1.705-5.928 0 0 1.551-1.003.96 1.991a24.968 24.968 0 0 0-.484 4.287c.277.15.529.35.752.574 1.03-1.439 2.637-3.56 3.675-4.324 0 0 1.825-.291.072 2.207-1.125 1.604-1.86 3.259-2.242 4.241.952 1.138.056 4.708.056 4.708s.187 1.991.317 4.905c-2.037-.02-3.708.32-5.736.307" fill="#FAD8C9"/>
            <path d="M139.662 83.671s-10.955 32.718.707 34.69c11.972 2.024 6.324-27.138 6.288-34.923l-6.995.233z" fill="#996CAB"/>
            <path d="M145.876 71.038c.44-.616.904-1.21 1.452-1.748.14-.127.28-.28.506-.346.192-.053.416-.096.644.009.24.111.324.382.331.582.013.21-.015.407-.077.61-.302.744-.778 1.33-1.215 1.944-.445.606-.896 1.205-1.258 1.868.254-.715.669-1.361 1.077-1.994.398-.632.879-1.244 1.125-1.91.098-.297.136-.757-.1-.867-.116-.062-.294-.05-.46-.003-.14.035-.283.157-.426.271-.559.486-1.071 1.046-1.6 1.584" fill="#F8C197"/>
            <path d="M151.013 70.123s-2.467 4.61.198 4.464c2.635-.143-.198-4.464-.198-4.464" fill="#FEFEFE"/>
            <path d="M91.319 163.141c-.118-.03-14.91-6.916-16.102 1.285-1.371 9.429 5.942 9.153 13.688 6.06 7.745-3.094 2.414-7.345 2.414-7.345" fill="#F8C197"/>
            <path d="M100.152 165.116s6.098-4.56 6.808-2.812c.71 1.75-.278 2.703-1.575 4.369-1.297 1.665-1.285 1.996-1.555 3.225-.27 1.228-.498 1.975-3.273.768-2.774-1.206-3.596-.657-5.351-.065-1.757.592-7.467.913-8.825-.646-1.36-1.558 2.736-7.963 4.018-7.439 1.28.524 8.145 1.65 9.753 2.6" fill="#F8C197"/>
            <path d="M96.605 161.234s-3.36-12.327-8.506-10.238c-5.145 2.089 4.076 11.602 4.076 11.602l4.43-1.364z" fill="#FAD8C9"/>
            <path d="M101.461 167.944c-.12-.106-4.943-9.145-7.649-8.112-2.706 1.033-3.192 4.975 3.432 9.243 6.624 4.268 4.217-1.13 4.217-1.13" fill="#FAD8C9"/>
            <path d="M90.825 149.017s.108 1.573.584 2.688c.476 1.114 3.127 8.081.325 12.33l-2.08-7.331 1.171-7.687z" fill="#F8C197"/>
            <path d="M78.252 149.378s-3.691 5.408-4.554 10.96c-.864 5.553 17.076 5.428 18.036 3.696.96-1.731.614-7.304.244-9.615-.313-1.96-1.32-4.63-1.153-5.402.166-.773-10.959-1.374-12.573.36" fill="#FAD8C9"/>
            <path d="M92.141 162.993s-6.24 3.025-18.444-2.655c0 0-7.163 9.757 3.233 15.236 0 0 11.892-.54 12.641-1.166.75-.625 3.963-6.103 2.57-11.415" fill="#FEFEFE"/>
            <path d="M92.14 151.123s-15.386-.655-15.601-.546c-.216.109 7.355 5.313 15.6.546" fill="#F8C197"/>
            <path d="M69.085 142.126s-3.316-17.896 12.228-20.31c0 0 3.735-.426 4.382-.155.647.271 13.116 1.179 13.765 16.569 0 0 3.786 3.43.167 8.543-3.692 5.212-13.57 5.7-16.774 5.279-3.205-.42-8.806-.675-11.812-5.198-3.007-4.524-1.956-4.728-1.956-4.728" fill="#FAD8C9"/>
            <path d="M70.39 140.543s-3.633.262-3.326 3.25c.306 2.987 4.672 5.068 5.26 4.07l-1.934-7.32z" fill="#FAD8C9"/>
            <path d="M70.22 141.794s-2.38.17-2.178 2.126c.2 1.956 3.058 3.319 3.444 2.665l-1.267-4.791z" fill="#F8C197"/>
            <path d="M86.632 124.883s.556.818 1.242.868c0 0-.648-.19-.696-1.122-.048-.932-.162-4.76-3.484-4.596-3.322.164-3.648 3.433-2.43 5.113 1.218 1.68 5.2 1.935 4.875 4.444 0 0 1.161-1.167-.008-2.346 0 0 .985.652 2.096.157 0 0-1.535-.331-1.802-.941-.266-.609.421-.643.207-1.577" fill="#312F4B"/>
            <path d="M86.63 124.793c.058-.605-.104-1.207-.375-1.72-.15-.254-.333-.478-.505-.713-.159-.25-.357-.466-.524-.744l.023-.03c.304.113.56.308.79.534.23.228.365.533.487.825.236.594.31 1.255.141 1.858l-.037-.01zM86.117 127.257c-.353-.35-.746-.668-1.179-.888-.226-.122-.415-.166-.692-.23a2.384 2.384 0 0 1-.7-.367c-.424-.306-.797-.709-.997-1.207-.193-.494-.242-1.053-.079-1.542l.038.005c.053.503.155.969.382 1.382.215.413.478.814.84 1.126.18.154.381.288.595.374.099.035.231.066.357.117.124.048.239.11.349.18.434.279.793.639 1.114 1.025l-.028.025zM86.34 126.14c-.214-.045-.275-.244-.37-.389a4.498 4.498 0 0 1-.212-.487c-.119-.336-.21-.67-.335-.987a5.056 5.056 0 0 0-.462-.868c-.164-.275-.413-.497-.652-.772l.02-.031c.35.092.673.291.93.576.251.293.36.66.45 1 .095.346.15.695.229 1.028.037.167.078.335.135.496.058.149.128.346.256.398l.011.037z" fill="#312F4B"/>
            <path d="M90.58 137.978s2.629.65.784 3.091c0 0 .628-1.789-.783-3.091" fill="#F8C197"/>
            <path d="M92.412 132.43c.236.353.563.644.913.897.354.25.746.452 1.156.599.41.153.844.233 1.267.245.424.02.838-.066 1.194-.226-.424-.091-.807-.135-1.188-.243-.376-.094-.745-.2-1.11-.335-.735-.258-1.443-.59-2.232-.937M82.929 132.335c-.308.326-.698.57-1.106.771a5.123 5.123 0 0 1-1.305.42 4.219 4.219 0 0 1-1.357.032 2.789 2.789 0 0 1-1.2-.445c.457-.02.861.001 1.275-.044.408-.032.81-.077 1.212-.153.807-.139 1.601-.36 2.48-.58M81.992 136.712c.191.01.373.044.55.091.184-.026 1.522-.235 1.843-.735 0 0-.442.78-1.068 1.078.643.42 1.113 1.102 1.33 1.852.15.522-.668.744-.818.223-.585-2.028-3.597-2.313-4.004-.003-.095.533-.912.307-.818-.224.25-1.425 1.53-2.349 2.985-2.282M94.788 136.194c.174.008.339.04.499.082.167-.024 1.383-.214 1.675-.668 0 0-.402.709-.97.98.583.382 1.011 1 1.207 1.682.137.474-.607.676-.742.203-.532-1.844-3.268-2.101-3.638-.003-.086.484-.827.279-.743-.204.229-1.294 1.39-2.134 2.712-2.072M91.575 131.712c-.027.44-.025.815.068 1.176.084.362.26.691.465 1.087a1.35 1.35 0 0 1-.538-.386 1.455 1.455 0 0 1-.312-.609c-.11-.45-.002-.951.317-1.268M83.81 131.775c.18.36.117.799-.085 1.144a1.34 1.34 0 0 1-.408.434c-.16.118-.356.178-.551.199.235-.322.439-.563.599-.845.17-.277.292-.57.445-.932" fill="#312F4B"/>
            <path d="M80.454 151.948c5.158-2.636 9.528 7.898 9.943 8.935 2.83 2.256 5.965 7.046 6.065 7.12 0 0 3.257 4.919-4.388.886-4.105-2.164-6.06-4.602-6.461-6.094-1.094-.857-10.263-8.237-5.16-10.847" fill="#FAD8C9"/>
            <path d="M91.34 167.627c-.118-.03-13.82-7.11-16.328 1.338-2.71 9.134 6.168 9.1 13.913 6.007 7.747-3.093 2.415-7.345 2.415-7.345" fill="#FAD8C9"/>
            <path d="M103.93 167.202c1.406-.737 2.741-1.175 3.051-.411.71 1.749-.278 2.703-1.574 4.369-1.297 1.664-1.285 1.995-1.556 3.224-.27 1.228-.411 2.587-3.186 1.38-2.774-1.206-3.309-.231-5.352-.065-1.848.15-6.459 1.145-7.818-.413-1.358-1.558 1.644-8.807 2.925-8.283 1.281.523 8.145 1.649 9.753 2.6 0 0 1.938-1.45 3.756-2.401" fill="#FAD8C9"/>
            <path d="M90.397 160.883a44.799 44.799 0 0 0-1.727-3.238c-.627-1.047-1.302-2.062-2.059-3.004-.758-.937-1.638-1.786-2.656-2.37-.511-.285-1.071-.477-1.645-.513-.574-.04-1.148.09-1.685.32l-.02.01-.014.004c-.338.1-.693.316-.989.565-.3.252-.56.557-.781.888a5.524 5.524 0 0 0-.557 1.07c-.146.379-.255.772-.351 1.171l.082-.611c.047-.2.085-.404.144-.602.119-.397.267-.79.473-1.157.212-.362.47-.703.78-.996.317-.291.657-.54 1.098-.7l-.033.012a3.699 3.699 0 0 1 1.877-.417c.653.028 1.284.235 1.848.534 1.136.603 2.018 1.537 2.784 2.508.774.975 1.416 2.038 1.978 3.136a24.074 24.074 0 0 1 1.453 3.39M88.247 166.388a9.403 9.403 0 0 1-2.439-2.255c-.216-.299-.436-.627-.517-1.007.249.28.545.493.808.747.272.243.532.5.789.76.5.532 1 1.08 1.36 1.755M90.397 160.883c.68.413 1.281.94 1.85 1.49.575.548 1.095 1.147 1.598 1.756.494.617.971 1.246 1.405 1.905l.642.995.57.975h-.029l-.052-.054-.103-.108-.195-.223-.39-.446-.751-.908-1.485-1.82c-.489-.612-.99-1.21-1.488-1.811a37.994 37.994 0 0 0-1.572-1.751" fill="#F8C197"/>
            <path d="M87.998 166.264c1.013.292 2.045.495 3.073.721 1.027.23 2.063.423 3.09.66 1.027.233 2.055.468 3.082.725 1.026.272 2.037.53 3.044 1.039l-.25.013a25.693 25.693 0 0 1 2.58-1.651c.446-.25.894-.495 1.364-.698.467-.206.942-.403 1.439-.522-.94.394-1.791.94-2.64 1.486-.842.557-1.664 1.15-2.472 1.747l-.111.082-.14-.069c-.88-.434-1.939-.672-2.938-.953a141.643 141.643 0 0 0-3.058-.778c-1.023-.248-2.04-.53-3.058-.806-1.014-.287-2.032-.586-3.005-.996M85.32 163.076c-1.27-.512-2.41-1.303-3.433-2.212-.509-.459-.982-.96-1.405-1.5a8.688 8.688 0 0 1-1.076-1.746c.457.51.899 1.013 1.37 1.49.471.474.944.945 1.445 1.385.989.9 2.032 1.734 3.1 2.583" fill="#F8C197"/>
            <path d="M79.043 159.593c.602.438 1.164.839 1.776 1.148.3.165.618.285.944.396.328.114.67.178 1.039.258-.351.114-.74.182-1.12.124a3.127 3.127 0 0 1-1.091-.333c-.673-.356-1.25-.9-1.548-1.593" fill="#F8C197"/>
            <path d="m91.71 146.363-3.476.363a2.114 2.114 0 0 1-2.314-1.878 2.113 2.113 0 0 1 1.877-2.314l3.475-.362a2.113 2.113 0 0 1 2.315 1.877 2.114 2.114 0 0 1-1.878 2.314" fill="#CB6071"/>
            <path d="M79.975 139.986s1.66 3.104-.134 3.007c-1.774-.097.134-3.007.134-3.007M97.031 139.237s1.662 3.103-.134 3.005c-1.773-.096.134-3.005.134-3.005" fill="#FEFEFE"/>
            <path d="M146.02 76.733c.231.312.306.696.333 1.075-.005.378-.08.782-.334 1.078.012-.194.039-.367.043-.546.005-.177.021-.35.004-.526.008-.353-.042-.7-.047-1.081M145.876 81.757c.11.29.11.578.12.865-.026.287-.04.574-.168.858-.112-.29-.11-.578-.12-.866.025-.286.041-.573.168-.857" fill="#F8C197"/>
            <path d="M137.966 89.27s-1.906 3.85-3.037 12.82c-1.13 8.97.636 12.219.636 12.219s1.088 1.907 1.744 2.437c0 0-1.497-1.5-1.991-4.556 0 0-.6-3.266-.3-6.55 0 0 .31-4.292.88-7.117" fill="#834996"/>
            <path d="M183.658 172.085s-9.84-4.309-10.987-5.456l.088-.124s2.582.548 8.233 3.46c0 0 3.46 2.085 4.113 2.49l-1.447-.37z" fill="#F8C197"/>
        </g>
        <path d="M100 175c46.944 0 85-38.056 85-85S146.944 5 100 5 15 43.056 15 90s38.056 85 85 85z" stroke="#BAABC6" stroke-width="2" stroke-linecap="round" stroke-dasharray="2,5" mask="url(#6ow1vhpnpd)"/>
    </g>
</svg>
