<svg width="200" height="200" viewBox="0 0 200 200" xmlns="http://www.w3.org/2000/svg" xmlns:xlink="http://www.w3.org/1999/xlink">
    <defs>
        <filter x="-5.6%" y="-2.8%" width="111.1%" height="111.1%" filterUnits="objectBoundingBox" id="f9j1ifl1qb">
            <feOffset dy="5" in="SourceAlpha" result="shadowOffsetOuter1"/>
            <feGaussianBlur stdDeviation="2.5" in="shadowOffsetOuter1" result="shadowBlurOuter1"/>
            <feColorMatrix values="0 0 0 0 0 0 0 0 0 0 0 0 0 0 0 0 0 0 0.2 0" in="shadowBlurOuter1"/>
        </filter>
        <filter x="-10.4%" y="-6.7%" width="120.8%" height="113.3%" filterUnits="objectBoundingBox" id="uylwtijgrc">
            <feOffset in="SourceAlpha" result="shadowOffsetOuter1"/>
            <feGaussianBlur stdDeviation="5" in="shadowOffsetOuter1" result="shadowBlurOuter1"/>
            <feColorMatrix values="0 0 0 0 0 0 0 0 0 0 0 0 0 0 0 0 0 0 0.3 0" in="shadowBlurOuter1" result="shadowMatrixOuter1"/>
            <feMerge>
                <feMergeNode in="shadowMatrixOuter1"/>
                <feMergeNode in="SourceGraphic"/>
            </feMerge>
        </filter>
        <circle id="dujvfn3i3a" cx="100" cy="90" r="90"/>
        <path id="o0w2ghqboe" d="M0 0h31.335v87.384H0z"/>
    </defs>
    <g fill="none" fill-rule="evenodd">
        <mask id="f6dbm6ayfd" fill="#fff">
            <use xlink:href="#dujvfn3i3a"/>
        </mask>
        <use fill="#000" filter="url(#f9j1ifl1qb)" xlink:href="#dujvfn3i3a"/>
        <use fill="#573264" xlink:href="#dujvfn3i3a"/>
        <g filter="url(#uylwtijgrc)" mask="url(#f6dbm6ayfd)">
            <path d="M87.835 161.722s19.19-69.25 45.61-68.417c26.422.834-21.414 100.4-30.87 106.519s-14.74-38.102-14.74-38.102" fill="#8A559E"/>
            <path d="M119.407 100.483c.146.451 4.054-1.271 9.656-2.993 6.905-2.124 16.386-4.247 24.568-2.3 14.818 3.529 19.758 16.23 34.224 10.939 14.465-5.293 13.407-17.995 12.702-21.523-.706-3.528-5.646-28.226-7.057-31.049-1.41-2.822-25.756-27.168-25.756-27.168L127.52 58.85l-11.996 21.17s-.353 7.41 3.882 20.464" fill="#312F4B"/>
            <path d="m140.476 81.024.28 14.316s20.773 4.632 26.948-7.298l-.842-23.298-26.386 16.28z" fill="#FAD8C9"/>
            <path d="m140.546 82.287.07 4.07s13.02 1.98 26.565-12.196l.103-6.68-26.738 14.806z" fill="#F8C197"/>
            <path d="M140.686 92.035s4.477 8.8 27.058-3.9c0 0 31.754 9.525 36.694 18.346 4.94 8.821-12.865 43.977-17.642 80.092-4.142 31.324 17.642 56.805 18.348 62.803.705 5.998-77.622 40.222-108.671 4.94 0 0-5.292-3.176.706-11.997 5.997-8.82 20.11-34.224 17.288-43.75-2.823-9.526-7.41-26.815-8.468-28.226-1.058-1.411-14.113-17.289 2.117-35.988 16.23-18.7 15.525-28.58 14.113-33.872-1.411-5.292 18.457-8.448 18.457-8.448" fill="#D6C7E3"/>
            <path d="M167.744 88.134s-22.817 30.226-21.17 76.799c1.646 46.573-4.704 104.201 12.937 112.199 17.641 7.997 50.102-11.996 50.572-16.466.47-4.469-23.992-58.333-23.052-65.39.942-7.056 16.533-64.793 17.474-74.437.94-9.644-3.125-15.181-6.889-19.885-3.763-4.705-24.697-13.878-29.872-12.82M140.68 92.024s-19.51 20.69-22.097 35.98c-2.587 15.289-4.469 38.81.236 58.804 4.704 19.994-14.82 75.975-20.23 79.504-5.41 3.528-9.056-7.527-7.409-12.702 1.647-5.175 21.993-40.693 21.758-50.336-.235-9.645-5.763-30.579-7.057-32.225-1.294-1.647-13.877-17.877-3.763-32.46 10.114-14.584 19.993-25.64 19.758-29.403-.235-3.763-3.293-9.408-2.116-10.35 1.175-.94 12.806-7.517 20.92-6.812" fill="#834996"/>
            <g transform="translate(180.094 99.23)">
                <mask id="mwcjuo2d6f" fill="#fff">
                    <use xlink:href="#o0w2ghqboe"/>
                </mask>
                <path d="M4.108 75.704S-10.614 2.303 15.68.044c27.216-2.337 10.679 87.34 10.679 87.34l-22.25-11.68z" fill="#8E5BA1" mask="url(#mwcjuo2d6f)"/>
            </g>
            <path d="M110.115 34.27s-23.553 72.811 18.453 78.21c.691.089 1.086-.774.55-1.22-2.785-2.322-7.475-7.19-6.3-12.894 1.645-7.997 5.174-23.051 1.645-31.519-3.528-8.468-12.466-35.635-14.348-32.578" fill="#312F4B"/>
            <path d="M120.265 5.795s-11.088 13.334-8.702 32.703c0 0-18.9-20.12 6.785-45.803 0 0 22.934-24.522 56.805-7.939 32.17 15.75 18.935 41.399 22.228 59.863 1.932 10.832-77.116-38.824-77.116-38.824" fill="#312F4B"/>
            <path d="M117.458 4.251s-6.737 12.633-7.158 22.457c-.42 9.825 3.299 16.842 3.439 22.597.14 5.754-.842 17.052 13.263 26.526 16.804 11.286 24.445 6.61 34.527-.28 12.632-8.632 15.273-20.942 14.737-19.93 0 0 8.14 2.385 12.631-8.702 4.492-11.088-2.385-14.316-6.596-13.194 0 0 3.088-19.088.14-29.754-2.947-10.667-17.123-18.807-29.193-19.93-12.07-1.124-32.281 7.579-35.79 20.21" fill="#FAD8C9"/>
            <path d="M128.553 31.759c-.795 1.032-1.85 1.85-2.969 2.551-1.13.69-2.366 1.23-3.648 1.597-1.28.381-2.62.541-3.916.494a8.098 8.098 0 0 1-3.6-.929c1.315-.193 2.491-.251 3.674-.504a32.417 32.417 0 0 0 3.458-.8c2.295-.64 4.523-1.511 7.001-2.41" fill="#312F4B"/>
            <path d="M134.792 43.131c.542.868.88 1.86 1.044 2.897.167 1.035.134 2.144-.203 3.21-.171.53-.4 1.052-.711 1.529a7.2 7.2 0 0 1-1.123 1.272c-.857.74-1.877 1.22-2.896 1.534l.474-.43a2.39 2.39 0 0 0-.17.695c-.035.266-.009.539.025.813.064.552.302 1.095.62 1.61.303.533.752.99 1.2 1.466l.74.66c.265.2.522.423.79.64-.322-.108-.653-.21-.975-.332a13.751 13.751 0 0 1-.939-.448c-.6-.355-1.194-.764-1.686-1.32a4.932 4.932 0 0 1-1.122-1.975 4.256 4.256 0 0 1-.15-1.185c.013-.42.04-.775.217-1.27l.105-.296.37-.134a8.23 8.23 0 0 0 2.316-1.295 5.635 5.635 0 0 0 1.53-2.043c.36-.802.543-1.71.622-2.658.068-.948.038-1.932-.078-2.94M112.37 20.778s5.79-8.527 7.684-11.053c0 0 11.466 33.13 57.099 24.074L120.37 1.409s-8.21 17.263-8 19.369" fill="#F8C197"/>
            <path d="M164.921 34.328s-1.235 23.728 1.676 37.047l4.146-32.725s-.265-8.997-5.822-4.322" fill="#F8C197"/>
            <path d="M120.265 5.795s-12.35 15.018-9.123 31.72c0 0-7.72-26.808 6.316-38.176 0 0 15.058-21.503 39.72-16.702 31.72 6.175 37.053 41.264 18.386 68.352 0 0 .53-7.358-3.822-15.779 0 0-44.573 0-51.477-29.415" fill="#312F4B"/>
            <path d="M190.23 39.059s-1.192 12.35-13.965 16.562c0 0 5.685 1.263 9.615-3.51 3.93-4.772 4.982-10.736 4.35-13.052" fill="#F8C197"/>
            <path d="M112.813-.685s-2.774 5.244 3.637 7.862c0 0-2.73 4.299-8.652.228 0 0 2.152-4.711 5.015-8.09M195.686 25.59c.013.062 1.662-7.497 1.666-7.433.5 7.938-2.554 29.645 9.438 53.63 13.977 27.955-21.646 54.144-46.643 36.963-.456-.313-.347-1.016.187-1.161 3.06-.837 10.758-3.454 8.911-12.137-2.352-11.055-5.735-38.602-1.65-69.592 1.71-12.96 26.324-8.443 28.09-.27M147.385 32.103c.844.992 1.937 1.759 3.09 2.405a14.908 14.908 0 0 0 3.722 1.418c1.296.32 2.643.413 3.934.304a8.103 8.103 0 0 0 3.55-1.102c-1.322-.13-2.5-.13-3.694-.325a32.646 32.646 0 0 1-3.492-.632c-2.324-.528-4.59-1.29-7.11-2.068" fill="#312F4B"/>
            <path d="M192.442-.66s-25.227 17.994-47.985 9.173c0 0 13.055 16.465 52.924 9.585 0 0 0-10.82-4.94-18.759M160.145 45.99c0 3.476-1.977 6.293-4.415 6.293-2.438 0-4.415-2.817-4.415-6.292 0-3.476 1.977-6.293 4.415-6.293 2.438 0 4.415 2.817 4.415 6.293" fill="#312F4B"/>
            <path d="m160.144 44.704.001-.027c0-2.75-1.976-4.979-4.415-4.979-2.438 0-4.415 2.23-4.415 4.979l.001.027h8.828z" fill="#F8C197"/>
            <path d="M160.145 45.303h-8.83a.626.626 0 0 1 0-1.252h8.83a.626.626 0 0 1 0 1.252" fill="#312F4B"/>
            <path d="M152.321 44.845c-.054.122-.087.163-.131.232-.042.064-.087.115-.13.172a2.84 2.84 0 0 1-.281.291 3.54 3.54 0 0 1-.62.449 4.45 4.45 0 0 1-1.343.486c-.453.1-.907.123-1.352.133l-.665-.027-.656-.069.649-.087.635-.128c.415-.111.823-.233 1.194-.417.372-.173.717-.391.991-.654.134-.133.26-.27.352-.417.05-.072.09-.147.125-.219l.042-.105.012-.06 1.178.42zM128.231 45.99c0 3.476-1.977 6.293-4.415 6.293-2.438 0-4.415-2.817-4.415-6.292 0-3.476 1.977-6.293 4.415-6.293 2.438 0 4.415 2.817 4.415 6.293" fill="#312F4B"/>
            <path d="m128.23 44.704.001-.027c0-2.75-1.976-4.979-4.415-4.979-2.438 0-4.415 2.23-4.415 4.979l.001.027h8.828z" fill="#F8C197"/>
            <path d="M128.231 45.094h-8.83a.417.417 0 0 1 0-.834h8.83a.417.417 0 1 1 0 .834" fill="#312F4B"/>
            <path d="M120.408 44.845c-.055.122-.088.163-.133.232-.04.064-.085.115-.13.172-.09.105-.181.205-.28.291-.194.18-.406.321-.62.449-.432.247-.89.395-1.343.486-.452.1-.907.123-1.352.133l-.665-.027-.655-.069.648-.087.636-.128c.415-.111.822-.233 1.193-.417.373-.173.717-.391.991-.654.134-.133.259-.27.352-.417.05-.072.09-.147.125-.219l.043-.105.01-.06 1.18.42z" fill="#312F4B"/>
            <path d="M145.944 67.388H133.95a.625.625 0 1 1 0-1.251h11.994a.626.626 0 0 1 0 1.251" fill="#CB6071"/>
            <path d="m180.726 148.372 25.03 27.673s-7.091-18.773-25.03-27.673" fill="#834996"/>
            <path d="M155.938 53.152s-5.31 10.74.786 10.21c6.02-.524-.786-10.21-.786-10.21" fill="#FEFEFE"/>
            <path d="M111.542 55.249c-19.051-3.492-26.954 10.307-29.81 17.88.96.278 1.674.576 1.69.917.31 6.053-.344 12.011-.68 18.044 2.86.965 5.698 2 8.57 2.977.479.163 5.856 2.33 5.865 2.315-3.622 5.65-7.823 10.703-12.474 15.521 3.697 1.321 7.369 2.725 11.182 3.656.674.166 6.862 2.325 6.768 2.61-1.175 3.535-2.908 6.783-4.569 10.09.428-.013.85-.016 1.287-.04.742-.037 6.97 2.228 6.905 2.624-.85 5.209-1.434 10.448-1.88 15.7 29.144-32.789 45.244-85.317 7.146-92.294" fill="#FF9CAC"/>
            <path d="M99.273 133.537a53.475 53.475 0 0 1-2.154-.232c-.702-.09-6.814-2.513-6.768-2.61 1.877-3.952 4.046-7.715 5.487-11.849-3.75-1.323-7.456-2.776-11.316-3.789-.295-.077-1.29-.493-2.431-.972-1.401-.54-2.802-1.08-4.203-1.618.241.063.478.14.72.205-.48-.174-.808-.27-.855-.221 4.723-4.862 8.977-9.961 12.652-15.659-2.49-.871-4.994-1.705-7.555-2.357-.745-.19-6.799-2.087-6.772-2.598.255-4.872.736-9.692.782-14.548-27.453-15.939-40.036 8.8-40.036 8.8-16.543 42.887 41.352 59.065 60.743 63.212.405-5.27.933-10.532 1.706-15.764" fill="#FF9CAC"/>
            <path d="M38.567 87.608c.315.301.605.61.9.917.287.312.579.62.853.944a16.827 16.827 0 0 1 1.56 2.054l-.054-.077c.595.663 1.095 1.384 1.647 1.989.28.299.597.541.988.71.388.172.828.27 1.268.347.442.075.891.133 1.343.174.226.027.453.047.682.064l.704.102c.933.173 1.883.464 2.69.98 1.637.99 3.055 2.349 3.995 3.997.247.403.446.836.652 1.259.168.445.363.873.476 1.337.259.904.41 1.861.284 2.794l-.147.012c-.283-.868-.666-1.656-1.087-2.417a17.887 17.887 0 0 0-1.416-2.168 26.186 26.186 0 0 0-1.627-1.98 12.685 12.685 0 0 0-1.858-1.742l-.51-.38-.534-.347c-.173-.132-.363-.22-.551-.324-.189-.1-.376-.215-.577-.28-.2-.077-.397-.164-.608-.229a15.462 15.462 0 0 0-1.981-.41c-.45-.066-.903-.107-1.38-.197a4.245 4.245 0 0 1-1.4-.53c-.859-.522-1.517-1.202-2.07-1.925l-.042-.054-.013-.023c-.406-.707-.848-1.416-1.253-2.165-.21-.368-.402-.753-.587-1.142a9.199 9.199 0 0 1-.474-1.213l.127-.077z" fill="#312F4B"/>
            <path d="M54.188 98.403a2.12 2.12 0 0 1 .552-.422 2.95 2.95 0 0 1 .591-.26c.4-.12.806-.214 1.22-.15.414.068.83.282 1.235.308.405.035.804-.06 1.205-.208.4-.155.805-.272 1.21-.312.407-.059.815-.113 1.223-.084.812.08 1.637.29 2.398.839l-.014.147c-.838.397-1.619.543-2.412.592-.396.019-.79-.044-1.187-.097-.199-.03-.398-.047-.597-.1-.2-.044-.4-.12-.6-.177-.403-.13-.807-.194-1.204-.124-.398.062-.783.323-1.17.445a1.83 1.83 0 0 1-.586.088 4.314 4.314 0 0 1-.594-.023 4.203 4.203 0 0 1-1.237-.318l-.033-.144zM57.861 72.772c-.055.403-.145.782-.226 1.162-.09.376-.172.751-.268 1.118l-.55 2.177.013-.072c-.067.539-.173 1.06-.196 1.594-.023.53.09 1.079.371 1.578.274.501.664.954 1.01 1.458.355.5.685 1.048.924 1.64l-.012-.039c.2.478.286.954.312 1.4.034.454.025.894.007 1.33a13.054 13.054 0 0 1-.37 2.554c-.209.829-.492 1.635-.816 2.424-.34.783-.716 1.56-1.241 2.258l-.137-.055c.081-.856.195-1.678.304-2.502l.37-2.44c.124-.807.296-1.6.424-2.388.133-.78.2-1.592.148-2.244l-.012-.04c-.057-.543-.163-1.096-.394-1.615-.23-.521-.568-.996-.919-1.49-.348-.491-.705-1.044-.904-1.678a4.633 4.633 0 0 1-.187-1.917l.002-.026.011-.047a9.4 9.4 0 0 1 .358-1.147 10.172 10.172 0 0 1 1.094-2.12 7.06 7.06 0 0 1 .752-.938l.132.065z" fill="#312F4B"/>
            <path d="M59.141 85.666c.718.184 1.353.431 1.984.702.623.283 1.25.56 1.81.98.56.42 1.053.969 1.623 1.37.57.405 1.186.736 1.834 1.04.163.075.326.155.486.245.164.086.326.174.477.283.31.204.596.448.866.717.542.532 1.017 1.18 1.3 1.886.284.708.427 1.43.49 2.144.06.714.07 1.42-.028 2.15l-.144.031c-.764-1.247-1.202-2.573-1.76-3.688-.273-.56-.538-1.098-.91-1.605-.183-.253-.39-.495-.6-.747-.213-.248-.415-.518-.658-.766-.466-.514-.987-.975-1.601-1.283-.61-.321-1.324-.449-1.974-.7-.648-.253-1.232-.644-1.798-1.068-.558-.436-1.091-.934-1.485-1.572l.088-.119zM45.19 124.578c.949-.602 1.939-1.105 2.923-1.587.982-.487 1.954-.963 2.888-1.469.934-.509 1.86-1 2.726-1.614.869-.606 1.637-1.394 2.169-2.335.551-.935.825-1.999 1.021-3.06.184-1.088.337-2.195.705-3.298a9.128 9.128 0 0 1 .732-1.639 7.076 7.076 0 0 1 1.154-1.44c.895-.836 1.922-1.412 2.95-1.882l-.155.105c.308-.243.554-.368.814-.518.257-.142.51-.275.765-.405.515-.247 1.02-.498 1.536-.727l1.536-.694c.256-.113.508-.233.753-.356.124-.06.244-.127.35-.197a.88.88 0 0 0 .127-.097h.013l.013.009-.041-.034.024-.146c.048.015.084-.007.149.049.067.028.072.165.053.198-.034.111-.083.166-.13.234a3.41 3.41 0 0 1-.305.332c-.212.206-.435.39-.656.574-.45.357-.909.696-1.373 1.021-.46.332-.934.637-1.39.958l-.683.466c-.215.15-.447.327-.57.446l-.043.042-.112.063c-.931.531-1.822 1.08-2.572 1.715-.37.32-.703.67-.981 1.07s-.513.847-.723 1.322a95.17 95.17 0 0 0-1.172 3.036c-.422 1.048-.833 2.099-1.402 3.071-.556.974-1.174 1.93-1.941 2.8-.2.205-.388.432-.604.623-.218.187-.432.385-.658.566-.232.169-.47.333-.71.492-.24.156-.495.285-.745.423-1.014.521-2.07.917-3.133 1.248-1.066.325-2.14.593-3.25.773l-.053-.138z" fill="#312F4B"/>
            <path d="M60.511 108.766c.634-.022 1.207.123 1.749.304.537.194 1.062.403 1.516.744.453.343.844.81 1.328 1.097.48.295 1.023.463 1.587.564.567.094 1.118.2 1.64.353.53.134 1.054.242 1.552.384.498.144.982.282 1.458.37.485.086.933.122 1.487-.111l.113.096c-.1.302-.32.585-.603.783-.28.19-.609.33-.929.394-.65.151-1.29.115-1.886.004-.599-.117-1.147-.356-1.674-.61-.535-.237-1.024-.562-1.487-.924-.463-.36-.938-.673-1.468-.875-.527-.209-1.138-.255-1.684-.43-.546-.177-1.017-.493-1.48-.817a6.655 6.655 0 0 1-1.278-1.191l.06-.135zM54.174 119.787c-.407-.043-.751-.18-1.09-.32a7.952 7.952 0 0 1-.974-.487c-.616-.368-1.218-.756-1.719-1.273a11.573 11.573 0 0 1-.702-.835l-.172-.216a3.433 3.433 0 0 1-.18-.234l-.326-.45a12.176 12.176 0 0 0-1.433-1.61c-.256-.258-.525-.507-.761-.779-.242-.269-.46-.554-.677-.84-.432-.573-.86-1.153-1.205-1.785a11.67 11.67 0 0 1-.86-2 6.724 6.724 0 0 1-.267-1.093 2.794 2.794 0 0 1-.036-.604c.013-.11.01-.226.118-.384a.256.256 0 0 1 .255-.089.426.426 0 0 1 .153.082l-.055.137a.212.212 0 0 0-.102.02l.029.024c.025.002.045.073.083.135.068.132.17.273.262.412l.601.842c.41.561.806 1.134 1.18 1.72.372.586.687 1.212 1.02 1.83.164.308.333.614.486.934.156.315.287.65.438.97.29.651.643 1.272 1.134 1.767.122.123.253.237.39.332.072.048.138.087.209.126.076.044.156.085.235.125.32.161.642.32.948.498 1.184.76 2.175 1.78 3.073 2.907l-.055.138zM119.004 59.157c-.48 1.959-1.368 3.8-2.55 5.457-.589.829-1.279 1.6-2.1 2.226a15.308 15.308 0 0 1-2.601 1.613c-.91.446-1.833.844-2.81 1.14-.972.283-1.99.473-3 .564-1.01.096-2.003.08-2.947.14a9.932 9.932 0 0 0-2.679.5l.057-.022c-.651.281-1.287.64-1.932 1.02l-1.96 1.204c-.669.405-1.365.798-2.104 1.116-.737.317-1.525.554-2.322.607l-.035-.143c1.415-.653 2.55-1.618 3.744-2.595a33.64 33.64 0 0 1 1.854-1.45c.65-.465 1.359-.89 2.134-1.218l.034-.014.023-.007c1.042-.332 2.131-.43 3.154-.404 1.03.015 2.01.12 2.976.21.964.092 1.929.13 2.881-.031a7.103 7.103 0 0 0 2.66-1.08c.814-.525 1.473-1.254 2.102-1.966a81.036 81.036 0 0 0 1.831-2.198c1.217-1.486 2.267-3.114 3.456-4.731l.134.062zM109.461 69.845c-1.589 1.383-2.187 3.216-2.726 5.119-.292.946-.591 1.926-.761 2.964-.179 1.028-.223 2.067-.223 3.116.003 1.047.036 2.11-.083 3.166a22.213 22.213 0 0 1-.563 3.149 14.318 14.318 0 0 1-1.167 2.99c-.474.959-1.073 1.849-1.718 2.69l-.623-.3c.13-.228.29-.437.443-.624.156-.186.306-.363.446-.56l.137.054a4.44 4.44 0 0 1-.19.724c-.082.23-.147.446-.193.664l-.623-.3c.35-.982.735-1.928 1.054-2.89.32-.963.632-1.916.918-2.88a37.55 37.55 0 0 0 .798-2.933c.22-.995.51-1.995.72-3.015.202-1.02.33-2.052.318-3.096.002-.527-.05-1.038-.053-1.586-.003-.54.014-1.085.111-1.623a7.71 7.71 0 0 1 1.26-3.04c.64-.91 1.577-1.685 2.652-1.922l.066.133z" fill="#312F4B"/>
            <path d="M114.905 66.362c.513 1.32 1.331 2.35 2.34 3.198 1.003.858 2.176 1.533 3.316 2.325 1.139.795 2.263 1.685 3.38 2.559 1.107.87 2.224 1.853 2.847 3.26.302.692.48 1.445.526 2.191.052.749-.01 1.49-.114 2.211a22.19 22.19 0 0 1-1.057 4.164c-.475 1.33-1.015 2.613-1.527 3.895-.51 1.285-.998 2.559-1.281 3.934l-.148-.003c-.222-1.428.017-2.89.317-4.272.31-1.391.73-2.735 1.143-4.057.42-1.319.881-2.606 1.18-3.912.147-.652.251-1.306.302-1.957.043-.649.042-1.302-.107-1.935-.27-1.275-1.23-2.378-2.364-3.136-1.141-.78-2.473-1.242-3.73-1.884a13.31 13.31 0 0 1-1.828-1.116c-.589-.419-1.148-.9-1.651-1.445-1.007-1.074-1.743-2.535-1.69-3.994l.146-.026z" fill="#312F4B"/>
            <path d="M125.586 82.602c-.301.658-.8 1.208-1.35 1.633-.277.21-.563.42-.865.579-.299.17-.609.325-.939.418-.657.205-1.367.248-2 .466-.638.206-1.225.53-1.791.908-.563.383-1.135.734-1.724 1.03-.582.31-1.154.628-1.737.897-1.186.536-2.328.971-3.55 1.623l-.113-.096c.27-.662.73-1.252 1.252-1.724.262-.237.53-.477.821-.664.286-.2.579-.393.883-.549.606-.333 1.253-.553 1.894-.771.321-.104.641-.214.971-.294.327-.083.667-.135 1-.203.67-.12 1.317-.295 1.911-.597.596-.299 1.112-.775 1.659-1.141.55-.362 1.148-.599 1.73-.866.308-.116.58-.265.896-.375.311-.118.591-.271.948-.379l.104.105zM100.031 70.52a2.663 2.663 0 0 1-.267-1.13 3.05 3.05 0 0 1 .03-.528c.018-.173.063-.34.146-.5.163-.319.466-.613.571-.947.117-.332.095-.69.011-1.05-.089-.363-.158-.713-.159-1.05-.024-.339-.058-.67-.027-.988.019-.16.03-.311.064-.472.026-.156.049-.304.089-.465.052-.309.143-.59.13-1l.107-.102c.452.127.726.543.915.913.166.379.254.775.272 1.153.017.38-.07.747-.161 1.104-.05.177-.092.354-.167.526-.07.172-.176.336-.263.503-.192.33-.328.66-.342 1.015-.019.353.143.744.167 1.11.02.364-.112.696-.26 1.022-.078.162-.169.321-.288.474a2.22 2.22 0 0 1-.423.444l-.145-.031zM111.665 101.234a6.154 6.154 0 0 1-.94-.903c-.252-.308-.505-.593-.667-.962-.158-.369-.243-.833-.496-1.165-.245-.337-.603-.569-1.001-.742-.194-.094-.403-.169-.588-.268l-.508-.266c-.368-.19-.746-.375-1.077-.625a7.098 7.098 0 0 1-1.34-1.34c-.03-.04-.065-.079-.084-.115l-.007-.021.018-.005.046.001.048-.006a.28.28 0 0 0 .207-.18.267.267 0 0 0 .008-.136l-.027-.068-.02-.016-.003.023c.017.09.065.206.1.321l-.095.113c-.124-.023-.236-.043-.364-.104l-.054-.036-.042-.05-.035-.085a.284.284 0 0 1 .23-.336c.058-.01.035-.005.057-.007l.067.004.055.006.067.008c.076.007.133.02.194.029.24.037.454.098.668.162a5.93 5.93 0 0 1 1.181.525c.367.216.684.501 1.004.795l.256.238.049.047.027.03.051.064c.034.042.067.087.098.132.133.175.24.377.356.566.225.39.473.74.804 1.014.324.278.787.452 1.135.753.346.3.546.724.694 1.155.134.44.194.912.068 1.403l-.14.047z" fill="#312F4B"/>
            <path d="M109.113 97.223c-.324-.663-.485-1.363-.561-2.069-.057-.705-.064-1.424.122-2.114.094-.345.243-.679.377-1.009.14-.33.297-.65.396-.982.112-.33.211-.66.28-1.002.085-.338.15-.684.207-1.038.077-.345.144-.7.243-1.045.112-.337.245-.668.384-.997.15-.322.304-.645.47-.962.173-.31.363-.614.57-.903.22-.28.444-.558.687-.818.247-.255.505-.502.772-.735.276-.226.554-.447.85-.646a7.82 7.82 0 0 1 .94-.53l.104.106a8.576 8.576 0 0 1-.493.94c-.165.306-.336.601-.516.885-.173.29-.337.582-.52.858-.173.283-.342.567-.526.838-.179.275-.352.553-.553.814l-.556.816c-.174.278-.343.562-.538.835-.17.284-.38.556-.565.841-.173.29-.352.584-.486.895a5.347 5.347 0 0 0-.293.967c-.051.336-.07.677-.058 1.02.025.345.036.681.045 1.016a6.01 6.01 0 0 1-.063.988c-.027.329-.081.656-.13.987-.041.33-.101.664-.178 1.001a6.19 6.19 0 0 1-.264 1.031l-.147.012zM59.726 134.673c1.163-.614 2.336-1.133 3.492-1.678l1.733-.798a40.549 40.549 0 0 1 1.732-.778c1.16-.493 2.377-.947 3.4-1.708 1.005-.755 1.87-1.782 2.186-2.943l.198-.94c.042-.174.107-.348.163-.524.082-.17.154-.347.26-.514.198-.343.504-.641.85-.88a3.403 3.403 0 0 1 1.137-.44c.77-.14 1.485-.077 2.16.008.677.086 1.316.234 1.944.38 1.25.308 2.453.624 3.68.803a12.46 12.46 0 0 0 3.758.002l.05.139c-1.143.677-2.52.992-3.87 1.021-1.355.04-2.693-.169-3.96-.425-1.257-.246-2.503-.63-3.547-.548a2.273 2.273 0 0 0-.686.185 1.947 1.947 0 0 0-.548.44c-.086.091-.154.21-.235.316-.065.124-.143.24-.205.372l-.398.903c-.318.632-.757 1.158-1.203 1.65-.454.489-.939.933-1.435 1.366-.995.854-2.003 1.738-3.135 2.432-1.132.687-2.37 1.16-3.619 1.556-1.257.373-2.537.674-3.865.746l-.037-.143z" fill="#312F4B"/>
            <path d="M68.573 130.554c-.145-.6-.19-1.148-.223-1.694-.007-.272-.027-.543-.016-.81a3.65 3.65 0 0 1 .066-.804c.043-.268.12-.539.188-.815.066-.275.102-.554.104-.83.01-.279-.055-.548-.121-.815a3.302 3.302 0 0 0-.308-.774c-.244-.503-.527-.972-.722-1.462-.117-.238-.255-.465-.37-.7l-.171-.355a7.35 7.35 0 0 1-.183-.346c-.401-.977-.904-1.88-1.285-3.04l.107-.102c.276.125.532.28.78.449.254.164.495.346.695.563.21.21.417.427.61.656.184.233.337.49.492.744.074.13.146.26.214.392.058.137.11.276.158.417.096.281.192.563.267.848.062.29.131.577.167.87.025.146.034.294.029.445v.445c.004.147-.001.294.008.437-.003.146-.006.29.003.433.01.286.063.564.104.846.105.557.366 1.116.466 1.699.086.581 0 1.166-.139 1.732-.146.565-.372 1.122-.777 1.61l-.143-.04zM77.896 125.555c.359.37.631.708.878 1.052.25.342.49.666.659 1.051.08.197.134.418.221.625.08.212.168.427.317.589.266.354.68.56 1.097.708.448.108.845.248 1.246.382.39.151.808.227 1.19.395.383.17.785.31 1.172.54.4.191.808.391 1.22.715l-.017.147c-.476.176-.962.247-1.447.276a7.514 7.514 0 0 1-.721-.046c-.24-.03-.482-.055-.711-.138a4.696 4.696 0 0 1-1.306-.637c-.201-.138-.416-.247-.588-.432-.18-.168-.34-.363-.502-.54a5.701 5.701 0 0 0-.969-1.031 9.848 9.848 0 0 0-.602-.401 2.92 2.92 0 0 1-.607-.442 1.9 1.9 0 0 1-.431-.595c-.123-.213-.194-.454-.268-.687-.116-.48-.162-.992.022-1.507l.147-.024zM97.554 107.139c.64-.266 1.315-.417 2-.508a9.631 9.631 0 0 1 2.083-.053 8.35 8.35 0 0 1 2.082.418c.68.224 1.341.543 1.914.992a6.624 6.624 0 0 1 1.454 1.583c.388.589.714 1.223.943 1.877.463 1.301.69 2.64.954 3.97.259 1.33.43 2.657.622 3.943.11.64.234 1.271.391 1.883a16.5 16.5 0 0 0 .585 1.764c.23.566.519 1.093.851 1.597l.265.368.297.344c.095.12.204.227.313.334.112.105.212.225.334.32.93.825 2.074 1.462 3.3 2.027l-.035.144a8.548 8.548 0 0 1-3.959-1.237c-1.227-.757-2.22-1.948-2.815-3.271-.594-1.331-.804-2.746-.913-4.108-.052-.683-.081-1.36-.08-2.033-.003-.673.033-1.34.038-2.005.02-1.32-.067-2.67-.59-3.861a4.864 4.864 0 0 0-1.126-1.532 7.63 7.63 0 0 0-1.516-1.083 12.019 12.019 0 0 0-3.47-1.3c-1.245-.264-2.547-.378-3.892-.428l-.03-.145zM104.456 106.9c.088-.408.376-.71.682-.942.31-.24.66-.393 1.015-.515.715-.223 1.45-.3 2.154-.18.71.117 1.362.447 2.03.591.63.171 1.308.047 1.802-.301.247-.173.452-.379.632-.6.182-.218.351-.445.496-.698.296-.501.487-1.077.708-1.653.447-1.162.814-2.415 1.32-3.734h.147c.24.688.315 1.395.322 2.105a7.341 7.341 0 0 1-.293 2.129 5.63 5.63 0 0 1-1.071 1.968c-.471.607-1.192 1.087-1.96 1.234-.766.151-1.487.09-2.181.02-.668-.055-1.355.092-1.997.171-.643.07-1.268.026-1.879.075-.604.054-1.222.077-1.795.396l-.132-.066z" fill="#312F4B"/>
            <path d="M107.618 118.956c-.39.584-.716 1.121-.912 1.65-.199.533-.227 1.016-.23 1.557-.006.536.05 1.221.399 1.775.34.575.807 1.082 1.266 1.604.233.26.463.526.666.811.2.286.382.585.545.893.339.611.635 1.252.825 1.928.183.677.29 1.377.294 2.084.002.704-.064 1.419-.313 2.096h-.148l-1.34-3.713c-.214-.6-.375-1.219-.593-1.827-.226-.6-.42-1.226-.632-1.86a5.844 5.844 0 0 0-.394-.917 6.084 6.084 0 0 0-.564-.821c-.212-.275-.47-.523-.684-.83l-.173-.226-.14-.252c-.091-.172-.186-.346-.23-.545-.24-.777-.009-1.681.441-2.317a3.04 3.04 0 0 1 .824-.793c.31-.208.647-.363 1.019-.424l.074.127z" fill="#312F4B"/>
            <path d="M122.544 121.45a117.8 117.8 0 0 1-.313.584l.012.005s.108-.208.301-.588" fill="#8F1E3F"/>
            <path d="M131.332 100.038a91.285 91.285 0 0 1-1.646 5.23c.655-1.813 1.227-3.593 1.646-5.23" fill="#781C31"/>
            <path d="M152.014 131.277c-3.771-2.217-6.206-4.844-6.206-4.844.541-10.604-2.961-17.365-5.546-20.853 0 0-7.571-10.799-11.569-13.601 0 0-4.423-.6-.052 5.334 2.44 3.315 4.1 6.218 5.091 8.136l-.232.226c-2.814-2.224-9.994-7.734-13.652-9.011 0 0-4.419.623 1.4 5.15 2.588 2.012 7.086 5.788 8.553 7.274-3.29-2.445-9.962-7.232-12.49-8.115 0 0-4.418.625 1.401 5.15 3.7 2.878 6.276 5.514 7.664 7.055a7.92 7.92 0 0 0-.461 2.237c-4.155-.996-10.445-2.323-13.547-2.071 0 0-3.79 2.358 3.362 4.14 4.591 1.144 8.549 3 10.802 4.187.065 3.583 7.35 8.677 7.35 8.677s2.809 3.927 7.183 9.448c3.684-3.263 7.27-5.284 10.949-8.52" fill="#FAD8C9"/>
            <path d="M150.331 127.059s71.767 42.34 53.616 64.393c-18.633 22.639-54.486-39.492-66.743-53.748l13.127-10.645z" fill="#9463A6"/>
            <path d="M33.88 98.311c-.046.091-.027.379.044.817.01-.222.023-.45.038-.675l-.082-.142" fill="#CB6071"/>
            <path d="M55.934 117.508a7.06 7.06 0 0 1-1.763 2.068l.058.073-.055.138a2.596 2.596 0 0 1-.23-.035 8.823 8.823 0 0 1-.217.156c-.867.614-1.792 1.105-2.726 1.614-.934.506-1.906.982-2.888 1.47l-.145.07 1.032.717a18.52 18.52 0 0 0 2.625-1.084c.25-.138.504-.267.746-.423.24-.16.477-.323.71-.492.225-.181.44-.379.657-.566.216-.191.404-.418.604-.624.728-.825 1.322-1.729 1.856-2.65-.092-.147-.18-.291-.264-.432" fill="#312F4B"/>
            <path d="M44.093 106.78a.262.262 0 0 0-.203.097c-.109.157-.105.275-.118.385a2.79 2.79 0 0 0 .036.603c.056.383.155.742.267 1.094.223.703.52 1.365.86 2 .345.632.773 1.21 1.205 1.784.217.287.435.571.676.84.237.272.506.522.762.778a12.226 12.226 0 0 1 1.433 1.61l.325.45c.054.078.118.16.181.235l.17.216c.227.289.456.574.704.835.5.517 1.103.905 1.719 1.273.311.179.63.348.973.486.274.113.55.225.86.286.075.015.152.026.232.034l.054-.137-.059-.074c-.883-1.098-1.855-2.09-3.014-2.833-.306-.179-.628-.336-.948-.498-.078-.04-.159-.08-.235-.125a2.522 2.522 0 0 1-.208-.126 2.836 2.836 0 0 1-.391-.331c-.49-.496-.845-1.117-1.134-1.767-.151-.322-.282-.656-.439-.972-.152-.318-.321-.626-.486-.934-.332-.618-.647-1.242-1.019-1.83a33.352 33.352 0 0 0-1.18-1.72l-.601-.84c-.092-.14-.193-.282-.262-.413-.038-.062-.058-.133-.083-.135l-.03-.023a.208.208 0 0 1 .103-.02l.055-.138a.426.426 0 0 0-.153-.082.169.169 0 0 0-.052-.007M68.03 130.85c-.448.196-.902.38-1.348.569a40.13 40.13 0 0 0-1.73.778l-1.734.798c-.191.09-.383.18-.575.268l1.105.77c1.207-.39 2.403-.853 3.5-1.52.46-.282.9-.596 1.328-.927l-.547-.737z" fill="#312F4B"/>
            <path d="m92.243 161.55 14.53 29.242s.953-15.618-14.53-29.241" fill="#834996"/>
            <path d="M52.233 138.547c-1.336-4.165-3.366-7.116-3.366-7.116-10.466-1.796-16.294-6.694-19.13-9.98 0 0-8.88-9.754-10.737-14.268 0 0 .384-4.447 5.217 1.118 2.7 3.108 5.167 5.363 6.822 6.75.088-.059.181-.119.271-.178-1.553-3.232-5.356-11.445-5.802-15.294 0 0 1.577-4.175 4.72 2.493 1.396 2.967 4.094 8.183 5.222 9.94-1.665-3.746-4.873-11.303-5.18-13.963 0 0 1.577-4.175 4.717 2.494 1.998 4.24 4.005 7.332 5.204 9.024a7.893 7.893 0 0 1 2.284.04c-.06-4.272.023-10.7.948-13.672 0 0 3.131-3.181 3.303 4.187.11 4.73 1.054 9 1.718 11.457 3.481.85 6.856 9.073 6.856 9.073s3.215 3.6 7.644 9.08c-3.99 2.878-6.749 5.934-10.71 8.815" fill="#FAD8C9"/>
            <path d="M48.487 135.981s25.586 79.3 51.08 66.422c26.173-13.22-26.594-61.815-37.818-76.898L48.487 135.98z" fill="#9463A6"/>
        </g>
        <path d="M100 175c46.944 0 85-38.056 85-85S146.944 5 100 5 15 43.056 15 90s38.056 85 85 85z" stroke="#BAABC6" stroke-width="2" stroke-linecap="round" stroke-dasharray="2,5" mask="url(#f6dbm6ayfd)"/>
    </g>
</svg>
