<svg width="200" height="200" viewBox="0 0 200 200" xmlns="http://www.w3.org/2000/svg" xmlns:xlink="http://www.w3.org/1999/xlink">
    <defs>
        <filter x="-5.6%" y="-2.8%" width="111.1%" height="111.1%" filterUnits="objectBoundingBox" id="nj20nb3s5b">
            <feOffset dy="5" in="SourceAlpha" result="shadowOffsetOuter1"/>
            <feGaussianBlur stdDeviation="2.5" in="shadowOffsetOuter1" result="shadowBlurOuter1"/>
            <feColorMatrix values="0 0 0 0 0 0 0 0 0 0 0 0 0 0 0 0 0 0 0.2 0" in="shadowBlurOuter1"/>
        </filter>
        <filter x="-13.8%" y="-9.1%" width="128.7%" height="117.4%" filterUnits="objectBoundingBox" id="2o8aoe4z1c">
            <feOffset in="SourceAlpha" result="shadowOffsetOuter1"/>
            <feGaussianBlur stdDeviation="5" in="shadowOffsetOuter1" result="shadowBlurOuter1"/>
            <feColorMatrix values="0 0 0 0 0 0 0 0 0 0 0 0 0 0 0 0 0 0 0.3 0" in="shadowBlurOuter1" result="shadowMatrixOuter1"/>
            <feMerge>
                <feMergeNode in="shadowMatrixOuter1"/>
                <feMergeNode in="SourceGraphic"/>
            </feMerge>
        </filter>
        <circle id="ng1k4yktxa" cx="90" cy="90" r="90"/>
        <path id="uyt5wvfy2e" d="M0 0h200v169H0z"/>
    </defs>
    <g fill="none" fill-rule="evenodd">
        <g transform="translate(10)">
            <mask id="49soqpwvqd" fill="#fff">
                <use xlink:href="#ng1k4yktxa"/>
            </mask>
            <use fill="#000" filter="url(#nj20nb3s5b)" xlink:href="#ng1k4yktxa"/>
            <use fill="#FFF" xlink:href="#ng1k4yktxa"/>
            <g filter="url(#2o8aoe4z1c)" mask="url(#49soqpwvqd)">
                <path d="M43.528 134.854s7.538 19.207 22.213 20.763c0 0 7.099 2.213 6.549-5.348-.55-7.562-18.442-13.657-20.215-15.078-1.771-1.422-7.698-2.725-8.547-.337" fill="#FAD8C9"/>
                <path d="M50.617 137.93s-2.004 1.073-3.784.55c0 0 3.09 2.27 6.192.034 0 0-.806-1.134-2.408-.585" fill="#F8C197"/>
                <path d="M70.862 115.11c.237.697 13.429-6.331 23.784-4.017 10.355 2.314 13.917 11.112 23.941 7.287 10.024-3.826 9.164-12.661 8.639-15.112-.526-2.45-4.205-19.604-5.215-21.556-1.01-1.952-18.2-18.672-18.2-18.672l-27.7 22.995-8.15 14.86s-.174 5.163 2.9 14.214" fill="#312F4B"/>
                <path d="M77.969 103.957s-7.618-7.559-16.706 2.403c-5.415 5.936-10.586 11.895-12.722 14.373a1.512 1.512 0 0 0 .219 2.184c3.34 2.582 12.606 9.35 18.224 9.55 6.946.246 10.985-28.51 10.985-28.51" fill="#D6C7E3"/>
                <path d="m84.649 99.234.363 10.849s15.794 3.292 20.35-5.816l-.883-17.651-19.83 12.618z" fill="#FAD8C9"/>
                <path d="m84.736 101.716.096 3.085s9.89 1.362 20.008-9.525l.008-5.065-20.112 11.505z" fill="#F8C197"/>
                <path d="M84.924 107.578s3.486 6.624 20.469-3.241c0 0 24.17 6.887 28.006 13.521 3.837 6.635-8.649 26.669-20.128 47.692-11.477 21.024 21.566 56.076 22.165 60.615.598 4.539-58.415 31.304-82.32 4.886 0 0-4.046-2.351.408-9.1 4.454-6.75 14.885-26.154 12.645-33.345-2.24-7.192-5.898-20.248-6.716-21.306-.816-1.059-10.878-12.956 1.227-27.302 12.106-14.344 13.005-22.498 11.88-26.495-1.126-3.997 12.364-5.925 12.364-5.925" fill="#D6C7E3"/>
                <path d="M84.939 107.589s-13.024 14.725-15 26.323c-1.976 11.598-3.423 29.443.13 44.617 3.552 15.174-11.307 57.634-15.415 60.306-4.108 2.673-6.865-5.719-5.61-9.644 1.253-3.924 16.72-30.856 16.55-38.174-.171-7.317-4.348-23.205-5.328-24.456-.98-1.25-10.515-13.575-2.829-24.632 7.687-11.057 15.191-19.436 15.016-22.292-.175-2.856-2.49-7.141-1.598-7.854.893-.714 7.927-4.736 14.084-4.194M105.393 104.337s-16.977 23.15-15.24 58.435c1.737 35.285-2.471 79.035 10.985 84.911 13.456 5.876 37.851-9.619 38.16-13.012.31-3.392-18.799-43.965-18.16-49.324.64-5.359 6.118-34.68 6.73-42 .611-7.32 5.48-24.866 2.578-28.392-2.902-3.526-21.142-11.475-25.053-10.618" fill="#D6C7E3"/>
                <path d="M130.762 115.452c1.657 3.345-.496 13.51-1.908 21.32 4.221-8.686 6.498-15.536 4.545-18.914-.447-.773-1.17-1.55-2.1-2.318-.18-.034-.36-.064-.537-.088" fill="#F5BBC5"/>
                <path d="M129.53 115.368c-13.784.004-16.638 32.557-16.638 32.557 4.238 2.558 9.259 3.877 13.72 4.543.628-3.963 1.1-7.256 1.256-9.12.144-1.73.526-4.028.986-6.577 1.412-7.81 3.565-17.974 1.908-21.319a9.202 9.202 0 0 0-1.233-.084" fill="#C9B5D8"/>
                <path d="M115.658 164.64s1.838-18.795 2.609-20.355c.77-1.559 21.406-3.823 19.64 6.246-1.767 10.068-5.16 21.135-9.295 26.317-4.136 5.184-12.406-6.817-12.406-6.817l-.548-5.39z" fill="#FAD8C9"/>
                <path d="M114.768 147.216s3.218-36.737 19.341-32.163c16.122 4.573 6.163 37.259 6.163 37.259s-15.11 1.178-25.504-5.096" fill="#D6C7E3"/>
                <path d="M62.93 68.228s-18.377 51.1 14.428 55.148c.482.06.749-.55.371-.855-1.963-1.59-5.275-4.935-4.513-8.919 1.07-5.586 3.382-16.105.843-21.968-2.54-5.863-9.847-25.554-11.128-23.406" fill="#312F4B"/>
                <path d="M70.545 49.155s-7.593 9.393-5.744 22.86c0 0-13.358-13.83 4.282-31.965 0 0 15.737-17.3 39.486-6.078 22.557 10.659 13.587 28.65 16.06 41.478 1.45 7.524-54.084-26.295-54.084-26.295" fill="#312F4B"/>
                <path d="M68.575 48.107s-4.57 8.863-4.768 15.709c-.199 6.847 2.46 11.698 2.613 15.704.154 4.007-.422 11.885 9.494 18.347 11.811 7.698 17.087 4.367 24.043-.529 8.714-6.133 10.435-14.732 10.071-14.023 0 0 5.693 1.584 8.714-6.182 3.021-7.765-1.8-9.947-4.722-9.124 0 0 1.966-13.324-.19-20.725-2.155-7.4-12.106-12.933-20.524-13.599-8.417-.665-22.409 5.59-24.73 14.422" fill="#FAD8C9"/>
                <path d="M67.674 71.106c.538-.73 1.26-1.315 2.03-1.819a10.38 10.38 0 0 1 2.52-1.163 8.508 8.508 0 0 1 2.718-.4 5.64 5.64 0 0 1 2.521.596c-.913.153-1.731.21-2.552.402-.812.164-1.607.355-2.396.607-1.59.478-3.128 1.117-4.841 1.777" fill="#312F4B"/>
                <path d="M81.023 75.017c.386.6.631 1.288.755 2.008.127.72.115 1.493-.11 2.238a4.47 4.47 0 0 1-.48 1.071c-.22.33-.482.63-.771.897-.589.523-1.295.867-2.002 1.097l.326-.305c-.044.093-.099.313-.111.486-.022.186-.001.375.025.565.05.385.221.76.447 1.117.217.367.534.682.85 1.008l.522.453c.186.137.368.29.556.438-.224-.072-.456-.139-.682-.222a9.474 9.474 0 0 1-.658-.302c-.422-.242-.839-.522-1.187-.903a3.445 3.445 0 0 1-.8-1.365 2.99 2.99 0 0 1-.117-.824c.006-.293.021-.54.14-.887l.07-.206.256-.098a5.732 5.732 0 0 0 1.6-.923 3.932 3.932 0 0 0 1.046-1.438c.243-.562.362-1.197.408-1.858.038-.661.008-1.345-.083-2.047M65.191 59.666s3.95-5.994 5.245-7.772c0 0 8.306 22.963 39.999 16.215l-39.858-22.01s-5.552 12.103-5.386 13.567" fill="#F8C197"/>
                <path d="M102.174 68.794s-7.751 21.932-4.918 30.323l6.233-3.084s3.434-22.528-1.315-27.24" fill="#F8C197"/>
                <path d="M70.545 49.155s-8.457 10.578-6.047 22.18c0 0-5.635-18.596 4.03-26.65 0 0 10.28-15.12 27.501-12.015 22.152 3.995 26.205 28.38 13.466 47.427 0 0 .298-5.13-2.814-10.953 0 0-31.044.43-36.136-19.989" fill="#312F4B"/>
                <path d="M119.594 71.646s-.712 8.614-9.566 11.67c0 0 3.971.824 6.662-2.537 2.691-3.362 3.367-7.526 2.904-9.133" fill="#F8C197"/>
                <path d="M65.293 44.714s-1.881 3.68 2.609 5.44c0 0-1.86 3.02-6.024.243 0 0 1.454-3.302 3.415-5.683M98.12 76.833c-.923 3.152-5.582 3.566-6.19-.032-.14-.83-1.405-.487-1.265.34.256 1.517 1.265 2.66 2.59 3.212-.65.195-.997.753-.997.753.61-.511 2.22-.416 2.22-.416l-.001-.004c.255.03.516.045.781.034 0 0 .995-.03 2.068-.654.997-.649 1.714-1.713 2.055-2.877.237-.81-1.024-1.165-1.261-.356M76.695 77.13c-.923 3.152-5.582 3.566-6.19-.032-.14-.83-1.405-.486-1.265.34.256 1.517 1.265 2.66 2.59 3.212-.65.195-.997.753-.997.753.61-.51 2.219-.416 2.219-.416v-.005c.255.032.515.046.78.035 0 0 .997-.03 2.069-.654.997-.649 1.714-1.713 2.055-2.877.238-.81-1.025-1.165-1.261-.356" fill="#312F4B"/>
                <path d="m79.89 89.71 12.112-.168s-1.064 4.86-6.233 4.77c-5.17-.09-5.879-4.602-5.879-4.602" fill="#FEFEFE"/>
                <path d="m85.91 94.738-.149-.001c-5.463-.095-6.283-4.913-6.29-4.962a.423.423 0 0 1 .413-.49l12.112-.168a.425.425 0 0 1 .42.515c-.01.052-1.179 5.106-6.506 5.106zm-5.481-4.611c.34 1.104 1.54 3.695 5.347 3.76l.13.002c3.677 0 5.083-2.74 5.517-3.914l-10.994.152z" fill="#CB6071"/>
                <path d="M123.17 49.582s1.775 6.345 2.391 10.27c.617 3.926 3.324 37.047 3.334 37.796.01.75-7.21-6.644-7.219-7.206-.008-.562-1.17-30.332-.992-31.084.177-.752 2.487-9.776 2.487-9.776M70.573 49.15c.356 1.6.988 3.132 1.735 4.586a24.267 24.267 0 0 0 2.698 4.091c2.06 2.543 4.655 4.62 7.51 6.19 2.864 1.576 5.993 2.587 9.172 3.31 3.182.745 6.452 1.079 9.734 1.262v.056a41.2 41.2 0 0 1-9.852-.768c-3.244-.662-6.399-1.815-9.273-3.468-2.875-1.643-5.47-3.799-7.51-6.406a24.477 24.477 0 0 1-2.629-4.19c-.72-1.484-1.32-3.033-1.64-4.653l.055-.01z" fill="#312F4B"/>
                <path d="M99.116 69.144c-.698-.58-1.539-.976-2.407-1.282a10.39 10.39 0 0 0-2.723-.529 8.514 8.514 0 0 0-2.736.261 5.637 5.637 0 0 0-2.305 1.18c.923-.069 1.731-.209 2.574-.218a22.56 22.56 0 0 1 2.472.017c1.657.086 3.304.339 5.125.571M124.612 75.883c-4.508-11.038-17.026-32.22-21.361-10.523 0 0-14.46 51.484.63 55.63 15.092 4.147 13.649-12.096 26.376-6.231 0 0-1.136-27.839-5.645-38.876m-25.345 36.6c-2.353-8.89.531-22.487.531-22.487-4.923 29.995 9.412 30.218 9.412 30.218s-7.422 1.789-9.943-7.73" fill="#312F4B"/>
                <path d="M88.218 135.834s-2.224-5.033-5.328-2.29l4.013 4.29 1.315-2z" fill="#FAD8C9"/>
                <path d="M88.378 150.244s-.785-3.348 3.16-4.27c3.946-.923 12.9 7.52 12.565 17.351 0 0-.288 1.562.812 2.253 1.1.69 4.036 2.862 1.72 4.206-2.315 1.344-6.03 1.898-9.297.06-3.266-1.838-8.96-19.6-8.96-19.6" fill="#C8942E"/>
                <path d="M106.497 168.855c-.917-.798-2.018-1.13-3.127-1.097-.559-.01-1.114.127-1.68.24l-.843.237c-.28.094-.56.19-.86.264.23-.196.48-.37.732-.546.263-.15.536-.293.815-.422.575-.22 1.184-.4 1.823-.403.632-.007 1.283.113 1.846.418.56.295 1.044.746 1.294 1.309" fill="#AB671A"/>
                <path d="M74.849 101.984s4.121.57 6.553 6.997c2.433 6.427 2.143 7.657 3.18 8.879 1.037 1.222 4.9 8.004-1.895 14.955 0 0-7.297 1.376-8.9-.142-1.605-1.517-5.035-8.268-5.639-9.127-.603-.86 4.91-21.152 6.7-21.562" fill="#FAD8C9"/>
                <path d="M72.348 130.99s-14.287 3.845-15.92 13.253c-1.632 9.407 2.747 24.09 20.07 32.61 17.322 8.522 26.904-9.007 27.045-12.827.142-3.82 2.397-14.46-11.393-20.945-13.789-6.485-18.173-6.59-19.802-12.092" fill="#F7B787"/>
                <path d="M92.956 144.337s-.786-3.349 3.16-4.27c3.945-.923 12.899 7.52 12.565 17.35 0 0-.29 1.563.811 2.254 1.1.69 4.037 2.862 1.72 4.205-2.315 1.344-6.03 1.9-9.296.061-3.267-1.838-8.96-19.6-8.96-19.6" fill="#F7B787"/>
                <path d="M111.074 162.948c-.983-.743-2.041-1.021-3.125-.992-.545-.006-1.09.118-1.655.212-.275.075-.56.138-.849.207-.284.08-.57.163-.881.217.22-.217.464-.403.71-.593.26-.162.531-.317.812-.453.574-.238 1.193-.433 1.846-.43.645-.012 1.313.122 1.88.447.566.314 1.047.796 1.262 1.385" fill="#F39C5E"/>
                <path d="M71.45 133.768s.27-4.55 6.987-3.133c6.717 1.417 16.153 12.447 18.403 21.464 2.25 9.018-9.97 8.898-15.366 1.396-5.394-7.504-9.817-13.585-10.023-19.727" fill="#F7B787"/>
                <path d="M96.456 156.634s6.01-10.3-8.238-20.8l-3.63 3.344 11.868 17.456z" fill="#F7B787"/>
                <path d="M95.417 143.731c1.772 1.008 3.447 2.22 4.91 3.675.753.708 1.395 1.525 2.022 2.351a17.558 17.558 0 0 1 1.554 2.706c.841 1.91 1.29 4.01 1.244 6.105-.045 2.1-.491 4.163-1.439 6.073l.036-.101c-.191.816-.45 1.572-.751 2.327-.3.752-.661 1.476-1.061 2.176a15.282 15.282 0 0 1-1.355 1.997c-.486.64-1.051 1.214-1.634 1.757.509-.615 1.009-1.232 1.434-1.9.439-.659.815-1.355 1.158-2.063a18.96 18.96 0 0 0 .901-2.176c.257-.736.477-1.505.614-2.247l.008-.043.028-.059c.408-.865.703-1.842.906-2.804a14.686 14.686 0 0 0-.805-8.732c-.386-.915-.872-1.785-1.403-2.63-.562-.824-1.159-1.632-1.842-2.372-1.34-1.501-2.88-2.834-4.525-4.04M72.721 131.028c.721-.605 1.626-.984 2.558-1.183a7.485 7.485 0 0 1 2.87-.05c.941.2 1.867.506 2.674 1.017.424.216.779.544 1.158.818.35.314.678.653.987 1-.428-.203-.815-.448-1.219-.658l-.612-.296c-.2-.103-.398-.206-.611-.28a14.174 14.174 0 0 1-.617-.253c-.207-.078-.422-.134-.631-.202a4.345 4.345 0 0 0-.634-.18c-.215-.045-.426-.108-.643-.139-.861-.167-1.742-.19-2.624-.13-.886.069-1.77.24-2.656.536M72.86 145.188a17.68 17.68 0 0 0 2.867 2.69c.523.374 1.05.748 1.618 1.076.56.344 1.15.64 1.747 1a6.212 6.212 0 0 1-2.03-.408c-.66-.225-1.27-.587-1.837-.995a6.92 6.92 0 0 1-1.476-1.487c-.41-.56-.75-1.19-.89-1.876" fill="#F39C5E"/>
                <path d="M96.006 155.542c1.142-1.595 1.736-3.507 1.529-5.387-.011-.47-.144-.93-.216-1.394-.131-.455-.235-.915-.417-1.356-.32-.89-.732-1.753-1.211-2.58-.937-1.67-2.134-3.183-3.374-4.683a64.838 64.838 0 0 0-1.89-2.217c-.657-.712-1.298-1.45-2.074-2.023l.09-.007c-.264.192-.536.372-.803.559.235-.226.465-.457.705-.678l.038-.035.051.03c.864.495 1.626 1.138 2.343 1.81.725.668 1.403 1.38 2.072 2.1 1.318 1.447 2.596 2.985 3.567 4.733.482.872.928 1.775 1.224 2.739.173.472.267.97.386 1.46.067.501.16 1 .146 1.51.03.505-.034 1.012-.1 1.512-.038.25-.12.492-.179.736l-.095.365-.15.348c-.352.946-.98 1.746-1.642 2.458" fill="#F39C5E"/>
                <path d="M76.05 145.566a78.145 78.145 0 0 0 4.115 4.993c1.442 1.589 2.953 3.118 4.634 4.413a16.241 16.241 0 0 0 2.647 1.719c.927.483 1.922.826 2.943.945 2.062.276 4.096-.803 5.637-2.303-.318.439-.691.843-1.103 1.204a8.18 8.18 0 0 1-1.33.982 5.826 5.826 0 0 1-3.257.77c-1.14-.05-2.233-.412-3.241-.883-1.007-.485-1.935-1.1-2.81-1.77-1.738-1.36-3.256-2.953-4.618-4.653a35.933 35.933 0 0 1-3.617-5.417M83.117 132.68c.89.319 1.699.837 2.434 1.43.74.593 1.403 1.284 1.979 2.04.565.763 1.073 1.575 1.432 2.455a9.7 9.7 0 0 1 .752 2.72c-.457-.828-.854-1.648-1.336-2.422a22.56 22.56 0 0 0-1.517-2.243c-.533-.728-1.133-1.404-1.753-2.069a28.735 28.735 0 0 0-1.99-1.912M90.153 142.346c.956.694 1.785 1.547 2.533 2.462.75.918 1.39 1.925 1.934 2.987a13.183 13.183 0 0 1 1.122 3.397 9.004 9.004 0 0 1-.104 3.546c-.081-1.18-.231-2.306-.537-3.404a20.266 20.266 0 0 0-1.234-3.168c-1.017-2.04-2.305-3.943-3.714-5.82M63.997 142.082c1.459-1.126.296-4.016-1.48-4.072-1.038-.032-2.032.572-2.951 1.28-1.512-1.456-4.79-1.414-5.432.89-.249.894.281 2.1 1.173 2.467.77.317 1.554.061 2.247-.31.169-.09.335-.194.501-.307-.11.5-.21 1.001-.312 1.499-.145.713-.634 2.027-.164 2.707.13.188.374.236.585.22.326-.025.483-.313.618-.563.126-.233.077-.436-.056-.579.002-.127-.003-.274.015-.381.078-.505.181-1.005.283-1.505.051-.252.103-.505.157-.758.517.52 1.036 1.04 1.546 1.57.283.291.562.588.833.891.103.115.202.232.3.351l.035.046c.02.513.911.748 1.229.165.315-.582-.664-1.402-.994-1.756a60.52 60.52 0 0 0-1.323-1.365c1.105.296 2.325.177 3.19-.49m-6.47-1.168c-.702.484-1.63 1.088-2.14.098-.41-.793.622-1.306 1.223-1.452a2.16 2.16 0 0 1 1.999.505c-.378.314-.74.612-1.082.85m4.902-1.683c.938-.134 1.28 1.7.462 2.09-.88.422-2.424.11-3.113-.66.825-.676 1.682-1.292 2.651-1.43" fill="#F39C5E"/>
                <path d="M73.442 100.2c1.79-.41 3.837-2.283 3.837-2.283-3.249.818-7.708-.747-7.708-.747-11.618-4.34-16.592 1.768-16.592 1.768.024-1.428 1.673-3.099 1.673-3.099-4.902 1.826-5.41 5.415-5.41 5.415-3.989-.638-6.32 3.46-6.32 3.46 1.949-1.572 2.887-.383 2.887-.383-4.617 5.011-8.999 10.32-5.299 22.681 3.7 12.362 19.078 12.96 19.315 13.59.236.629 1.104 1.353 1.104 1.353 3.447-1.085 4.157-4.277 4.128-3.513-.028.764-.02 2.092-.02 2.092 2.588-.482 2.8-3.505 2.8-3.505.572.96 1.005 1.322 1.005 1.322 6.692-7.648 3.49-14.767 1.752-16.548-1.738-1.782-.264-4.946 1.253-6.55s.459.078.459.078c.475 1.59 1.105.892 1.105.892 4.995-5.776 2.145-12.683 2.145-12.683 3.021-.12 5.46 2.223 5.46 2.223-3.524-5.788-7.574-5.563-7.574-5.563" fill="#493D59"/>
                <path d="M77.293 97.933c-.554.511-1.139.99-1.766 1.413a8.172 8.172 0 0 1-.98.58c-.342.166-.7.316-1.09.381l-.02-.215c.852.003 1.658.227 2.428.538.768.317 1.48.756 2.142 1.256.662.504 1.249 1.097 1.786 1.728.263.32.495.664.74.998l.634 1.062a.174.174 0 0 1-.266.22 22.426 22.426 0 0 0-1.134-.953 11.113 11.113 0 0 0-.603-.428c-.209-.127-.426-.256-.665-.291h-.003l-.018-.024.02-.018c.264-.008.506.1.737.202.23.106.45.234.664.368.427.271.84.558 1.232.88l-.266.221-.676-1.004c-.25-.316-.474-.65-.735-.954-.512-.617-1.055-1.211-1.675-1.72a9.01 9.01 0 0 0-2.028-1.278c-.727-.322-1.52-.56-2.304-.587h-.007a.108.108 0 0 1-.013-.215c.716-.11 1.396-.467 2.029-.856a14.924 14.924 0 0 0 1.81-1.335l.029.001-.002.03z" fill="#312F4B"/>
                <path d="M44.044 133.253c.072.242.147.487.227.734.101-.06.21-.114.326-.161a16.003 16.003 0 0 1-.553-.573" fill="#CCA99E"/>
                <path d="M46.39 135.372c-.008.63.002 1.176.002 1.176s1.23 1.458 2.617 1.948c.924-.2 1.608-.567 1.608-.567l.113-.036c-1.461-.65-2.95-1.471-4.34-2.521m-1.793-1.546a2.547 2.547 0 0 0-.326.161c.1.314.209.633.324.955l-.016.015c.567.137 1.139.247 1.714.342a17.72 17.72 0 0 1-1.696-1.473" fill="#C77A67"/>
                <path d="M50.73 137.893a2.725 2.725 0 0 0-.113.036s-.684.367-1.608.567c.28.1.568.16.852.16.156 0 .31-.018.462-.057.336-.085.672-.247.998-.453a25.92 25.92 0 0 1-.59-.253" fill="#F8C197"/>
                <path d="M42.999 119.153c.603-1.678 1.224-2.575 1.224-2.575 1.963-.08 5.441 2.492 8.587 3.773 3.148 1.279 2.959 6.651 2.959 6.651 1.186 5.182-1.835 7.756-2.902 8.486-3.174.323-6.34.204-9.374-.531l.016-.015c-2.616-7.32-1.587-12.8-.51-15.79" fill="#FAD8C9"/>
                <path d="M52.867 135.488s-1.82 2.651-3.63 3.11c-1.81.461-3.931-2.05-3.931-2.05s-.055-3.06.19-3.07c.246-.009 6.713.587 7.37 2.01M42.999 119.153s3.029-9.167 5.242-11.977c0 0 2.973-1.353 1.16 3.73-1.812 5.082-2.15 8.717-2.15 8.717l-4.252-.47zM52.518 124.59s8.179-5.13 11.673-5.879c0 0 3.154.855-1.483 3.612-4.638 2.759-7.85 6.415-7.85 6.415l-2.34-4.148z" fill="#FAD8C9"/>
                <path d="M47.134 118.698s5.402-8.002 8.295-10.103c0 0 3.23-.496.106 3.905-3.126 4.401-4.433 7.804-4.433 7.804l-3.968-1.606z" fill="#FAD8C9"/>
                <path d="M49.82 121.186s5.403-8.002 8.296-10.104c0 0 3.23-.496.105 3.904-3.124 4.4-4.431 7.803-4.431 7.803l-3.97-1.603zM65.888 152.901s1.14.057 2.92.625c3.17 1.012 8.382 3.65 12.799 10.492 0 0 49.673-6.836 48.227 9.793-1.309 15.067-53.32-1.824-53.32-1.824s-5.045 2.33-9.324-2.842c0 0-4.587-3.268-3.642-6.7.942-3.431 1.022-7.963 2.34-9.544" fill="#FAD8C9"/>
                <path d="M68.808 153.526s-9.551-3.327-13.298-3.28c0 0-3.02 1.609 2.36 3.343 5.381 1.735 8.617 3.772 8.617 3.772l2.321-3.835zM67.258 164.905s-9.478 3.528-12.329 5.954c0 0-1.302 3.166 3.948 1.07s10.337-2.434 10.337-2.434l-1.956-4.59z" fill="#FAD8C9"/>
                <path d="M65.793 156.674s-10.096-.612-13.686.452c0 0-2.47 2.368 3.178 2.577 5.651.209 9.313 1.292 9.313 1.292l1.195-4.321z" fill="#FAD8C9"/>
                <path d="M66.149 160.492s-10.096-.611-13.688.453c0 0-2.472 2.368 3.178 2.577 5.65.209 9.311 1.292 9.311 1.292l1.199-4.322z" fill="#FAD8C9"/>
                <path d="M116.016 163.375s6.658-1.153 10.576 6.405c0 0-2.066-10.336-10.576-6.405" fill="#F8C197"/>
                <path d="M102.482 68.752A187.951 187.951 0 0 0 99.397 80.4c-.912 3.91-1.708 7.848-2.308 11.815-.587 3.966-.975 7.965-.976 11.96-.007 1.995.13 3.995.528 5.944.404 1.928 1.095 3.887 2.545 5.296l-.037.042c-.773-.652-1.388-1.486-1.858-2.387-.457-.91-.784-1.88-1.032-2.864-.487-1.974-.657-4.006-.707-6.025-.073-4.05.444-8.067 1.094-12.036.657-3.973 1.51-7.908 2.478-11.811.985-3.9 2.072-7.773 3.304-11.6l.054.018zM119.524 43.263s3.042 3.236 3.777 8.94c0 0 .88 2.61.984 3.452 0 0-9.743 6.598-21.433 1.234 0 0 17.086-3.984 16.672-13.626M118.005 116.158s6.004-6.078 11.585-2.128l-2.45-28.16s-1.244 18.47-4.652 22.545c-3.41 4.075-4.972 6.251-4.483 7.743" fill="#312F4B"/>
                <path d="M99.746 103.11s-.248 15.927 11.189 16.518c0 0-8.351-1.008-11.189-16.518" fill="#312F4B"/>
                <path d="M73.7 115.78s.154.309-.185.585c0 0-1.755 1.478-.893 4.25 0 0 .458 1.03 1.66 1.877 0 0 .88.755.434 1.663.005.064-.35.977-1.432.63 0 0-.539-.091-1.124-.8l.043-2.724s-.997-3.91-.874-3.941c.123-.03 1.755-1.416 1.755-1.416l.616-.124z" fill="#F8C197"/>
                <path d="M73.827 122.549a2.423 2.423 0 0 1-.4-.238c-.19-.096-.282-.234-.445-.398-1.356-1.477-1.663-4.503.202-5.528 1.333-.732.27-2.843-1.064-2.11a4.512 4.512 0 0 0-1.351 1.127c-5.122.37-3.102 9.114.644 8.275.479.445 1.049.822 1.704 1.125 1.374.636 2.075-1.622.71-2.253" fill="#FAD8C9"/>
                <path d="M70.537 115.987a6.532 6.532 0 0 0-.48 1.846 5.997 5.997 0 0 0 .052 1.876c.113.614.35 1.186.6 1.746.104.293.268.557.4.846.144.28.32.547.46.852l-.04.037a4.479 4.479 0 0 1-1.325-1.486c-.352-.583-.473-1.274-.54-1.935-.14-1.337.178-2.68.824-3.81l.05.028z" fill="#F8C197"/>
                <path d="M147.651 60.939c23.557 0 22.668-40.225 22.668-40.225-14 0-22.223-11.714-22.223-11.714h-.222s-8.223 11.714-22.224 11.714c0 0-.889 40.225 22.668 40.225h-.667z" fill="#93D3EC"/>
                <path d="M147.651 60.939c23.557 0 22.668-40.225 22.668-40.225-14 0-22.223-11.714-22.223-11.714h-.222s-8.223 11.714-22.224 11.714c0 0-.889 40.225 22.668 40.225h-.667z" stroke="#FEFEFE" stroke-width="3.461" stroke-linecap="round" stroke-linejoin="round"/>
                <path fill="#3F89B7" d="M145.342 46.45h5.285V24.946h-5.285z"/>
                <path fill="#3F89B7" d="M137.232 38.34h21.504v-5.284h-21.504z"/>
                <g fill="#DA9198">
                    <path d="M35.61 64.569s-.096-6.589 6.302-6.74c9.502-.222 8.234 12.88 2.781 21.903 0 0-21.325 1.291-19.162-11.554 0 0 1.921-6.926 10.078-3.609M31.14 90.811s-.058-3.953 3.781-4.044c5.701-.133 4.94 7.728 1.669 13.142 0 0-12.795.775-11.498-6.932 0 0 1.153-4.156 6.048-2.166"/>
                </g>
            </g>
            <path d="M90 175c46.944 0 85-38.056 85-85S136.944 5 90 5 5 43.056 5 90s38.056 85 85 85z" stroke="#D95555" stroke-width="2" stroke-linecap="round" stroke-dasharray="2,5" mask="url(#49soqpwvqd)"/>
        </g>
        <g>
            <mask id="1t9uz2jpaf" fill="#fff">
                <use xlink:href="#uyt5wvfy2e"/>
            </mask>
            <g mask="url(#1t9uz2jpaf)">
                <path d="M53.528 134.854s7.538 19.207 22.213 20.763c0 0 7.099 2.213 6.549-5.348-.55-7.562-18.442-13.657-20.215-15.078-1.771-1.422-7.698-2.725-8.547-.337" fill="#FAD8C9"/>
                <path d="M60.617 137.93s-2.004 1.073-3.784.55c0 0 3.09 2.27 6.192.034 0 0-.806-1.134-2.408-.585" fill="#F8C197"/>
                <path d="M80.862 115.11c.237.697 13.429-6.331 23.784-4.017 10.355 2.314 13.917 11.112 23.941 7.287 10.024-3.826 9.164-12.661 8.639-15.112-.526-2.45-4.205-19.604-5.215-21.556-1.01-1.952-18.2-18.672-18.2-18.672l-27.7 22.995-8.15 14.86s-.174 5.163 2.9 14.214" fill="#312F4B"/>
                <path d="M87.969 103.957s-7.618-7.559-16.706 2.403c-5.415 5.936-10.586 11.895-12.722 14.373a1.512 1.512 0 0 0 .219 2.184c3.34 2.582 12.606 9.35 18.224 9.55 6.946.246 10.985-28.51 10.985-28.51" fill="#D6C7E3"/>
                <path d="m94.649 99.234.363 10.849s15.794 3.292 20.35-5.816l-.883-17.651-19.83 12.618z" fill="#FAD8C9"/>
                <path d="m94.736 101.716.096 3.085s9.89 1.362 20.008-9.525l.008-5.065-20.112 11.505z" fill="#F8C197"/>
                <path d="M94.924 107.578s3.486 6.624 20.469-3.241c0 0 24.17 6.887 28.006 13.521 3.837 6.635-8.649 26.669-20.128 47.692-11.477 21.024 21.566 56.076 22.165 60.615.598 4.539-58.415 31.304-82.32 4.886 0 0-4.046-2.351.408-9.1 4.454-6.75 14.885-26.154 12.645-33.345-2.24-7.192-5.898-20.248-6.716-21.306-.816-1.059-10.878-12.956 1.227-27.302 12.106-14.344 13.005-22.498 11.88-26.495-1.126-3.997 12.364-5.925 12.364-5.925" fill="#D6C7E3"/>
                <path d="M94.939 107.589s-13.024 14.725-15 26.323c-1.976 11.598-3.423 29.443.13 44.617 3.552 15.174-11.307 57.634-15.415 60.306-4.108 2.673-6.865-5.719-5.61-9.644 1.253-3.924 16.72-30.856 16.55-38.174-.171-7.317-4.348-23.205-5.328-24.456-.98-1.25-10.515-13.575-2.829-24.632 7.687-11.057 15.191-19.436 15.016-22.292-.175-2.856-2.49-7.141-1.598-7.854.893-.714 7.927-4.736 14.084-4.194M115.393 104.337s-16.977 23.15-15.24 58.435c1.737 35.285-2.471 79.035 10.985 84.911 13.456 5.876 37.851-9.619 38.16-13.012.31-3.392-18.799-43.965-18.16-49.324.64-5.359 6.118-34.68 6.73-42 .611-7.32 5.48-24.866 2.578-28.392-2.902-3.526-21.142-11.475-25.053-10.618" fill="#D6C7E3"/>
                <path d="M140.762 115.452c1.657 3.345-.496 13.51-1.908 21.32 4.221-8.686 6.498-15.536 4.545-18.914-.447-.773-1.17-1.55-2.1-2.318-.18-.034-.36-.064-.537-.088" fill="#F5BBC5"/>
                <path d="M139.53 115.368c-13.784.004-16.638 32.557-16.638 32.557 4.238 2.558 9.259 3.877 13.72 4.543.628-3.963 1.1-7.256 1.256-9.12.144-1.73.526-4.028.986-6.577 1.412-7.81 3.565-17.974 1.908-21.319a9.202 9.202 0 0 0-1.233-.084" fill="#C9B5D8"/>
                <path d="M125.658 164.64s1.838-18.795 2.609-20.355c.77-1.559 21.406-3.823 19.64 6.246-1.767 10.068-5.16 21.135-9.295 26.317-4.136 5.184-12.406-6.817-12.406-6.817l-.548-5.39z" fill="#FAD8C9"/>
                <path d="M124.768 147.216s3.218-36.737 19.341-32.163c16.122 4.573 6.163 37.259 6.163 37.259s-15.11 1.178-25.504-5.096" fill="#D6C7E3"/>
                <path d="M72.93 68.228s-18.377 51.1 14.428 55.148c.482.06.749-.55.371-.855-1.963-1.59-5.275-4.935-4.513-8.919 1.07-5.586 3.382-16.105.843-21.968-2.54-5.863-9.847-25.554-11.128-23.406" fill="#312F4B"/>
                <path d="M80.545 49.155s-7.593 9.393-5.744 22.86c0 0-13.358-13.83 4.282-31.965 0 0 15.737-17.3 39.486-6.078 22.557 10.659 13.587 28.65 16.06 41.478 1.45 7.524-54.084-26.295-54.084-26.295" fill="#312F4B"/>
                <path d="M78.575 48.107s-4.57 8.863-4.768 15.709c-.199 6.847 2.46 11.698 2.613 15.704.154 4.007-.422 11.885 9.494 18.347 11.811 7.698 17.087 4.367 24.043-.529 8.714-6.133 10.435-14.732 10.071-14.023 0 0 5.693 1.584 8.714-6.182 3.021-7.765-1.8-9.947-4.722-9.124 0 0 1.966-13.324-.19-20.725-2.155-7.4-12.106-12.933-20.524-13.599-8.417-.665-22.409 5.59-24.73 14.422" fill="#FAD8C9"/>
                <path d="M77.674 71.106c.538-.73 1.26-1.315 2.03-1.819a10.38 10.38 0 0 1 2.52-1.163 8.508 8.508 0 0 1 2.718-.4 5.64 5.64 0 0 1 2.521.596c-.913.153-1.731.21-2.552.402-.812.164-1.607.355-2.396.607-1.59.478-3.128 1.117-4.841 1.777" fill="#312F4B"/>
                <path d="M91.023 75.017c.386.6.631 1.288.755 2.008.127.72.115 1.493-.11 2.238a4.47 4.47 0 0 1-.48 1.071c-.22.33-.482.63-.771.897-.589.523-1.295.867-2.002 1.097l.326-.305c-.044.093-.099.313-.111.486-.022.186-.001.375.025.565.05.385.221.76.447 1.117.217.367.534.682.85 1.008l.522.453c.186.137.368.29.556.438-.224-.072-.456-.139-.682-.222a9.474 9.474 0 0 1-.658-.302c-.422-.242-.839-.522-1.187-.903a3.445 3.445 0 0 1-.8-1.365 2.99 2.99 0 0 1-.117-.824c.006-.293.021-.54.14-.887l.07-.206.256-.098a5.732 5.732 0 0 0 1.6-.923 3.932 3.932 0 0 0 1.046-1.438c.243-.562.362-1.197.408-1.858.038-.661.008-1.345-.083-2.047M75.191 59.666s3.95-5.994 5.245-7.772c0 0 8.306 22.963 39.999 16.215l-39.858-22.01s-5.552 12.103-5.386 13.567" fill="#F8C197"/>
                <path d="M112.174 68.794s-7.751 21.932-4.918 30.323l6.233-3.084s3.434-22.528-1.315-27.24" fill="#F8C197"/>
                <path d="M80.545 49.155s-8.457 10.578-6.047 22.18c0 0-5.635-18.596 4.03-26.65 0 0 10.28-15.12 27.501-12.015 22.152 3.995 26.205 28.38 13.466 47.427 0 0 .298-5.13-2.814-10.953 0 0-31.044.43-36.136-19.989" fill="#312F4B"/>
                <path d="M129.594 71.646s-.712 8.614-9.566 11.67c0 0 3.971.824 6.662-2.537 2.691-3.362 3.367-7.526 2.904-9.133" fill="#F8C197"/>
                <path d="M75.293 44.714s-1.881 3.68 2.609 5.44c0 0-1.86 3.02-6.024.243 0 0 1.454-3.302 3.415-5.683M108.12 76.833c-.923 3.152-5.582 3.566-6.19-.032-.14-.83-1.405-.487-1.265.34.256 1.517 1.265 2.66 2.59 3.212-.65.195-.997.753-.997.753.61-.511 2.22-.416 2.22-.416l-.001-.004c.255.03.516.045.781.034 0 0 .995-.03 2.068-.654.997-.649 1.714-1.713 2.055-2.877.237-.81-1.024-1.165-1.261-.356M86.695 77.13c-.923 3.152-5.582 3.566-6.19-.032-.14-.83-1.405-.486-1.265.34.256 1.517 1.265 2.66 2.59 3.212-.65.195-.997.753-.997.753.61-.51 2.219-.416 2.219-.416v-.005c.255.032.515.046.78.035 0 0 .997-.03 2.069-.654.997-.649 1.714-1.713 2.055-2.877.238-.81-1.025-1.165-1.261-.356" fill="#312F4B"/>
                <path d="m89.89 89.71 12.112-.168s-1.064 4.86-6.233 4.77c-5.17-.09-5.879-4.602-5.879-4.602" fill="#FEFEFE"/>
                <path d="m95.91 94.738-.149-.001c-5.463-.095-6.283-4.913-6.29-4.962a.423.423 0 0 1 .413-.49l12.112-.168a.425.425 0 0 1 .42.515c-.01.052-1.179 5.106-6.506 5.106zm-5.481-4.611c.34 1.104 1.54 3.695 5.347 3.76l.13.002c3.677 0 5.083-2.74 5.517-3.914l-10.994.152z" fill="#CB6071"/>
                <path d="M133.17 49.582s1.775 6.345 2.391 10.27c.617 3.926 3.324 37.047 3.334 37.796.01.75-7.21-6.644-7.219-7.206-.008-.562-1.17-30.332-.992-31.084.177-.752 2.487-9.776 2.487-9.776M80.573 49.15c.356 1.6.988 3.132 1.735 4.586a24.267 24.267 0 0 0 2.698 4.091c2.06 2.543 4.655 4.62 7.51 6.19 2.864 1.576 5.993 2.587 9.172 3.31 3.182.745 6.452 1.079 9.734 1.262v.056a41.2 41.2 0 0 1-9.852-.768c-3.244-.662-6.399-1.815-9.273-3.468-2.875-1.643-5.47-3.799-7.51-6.406a24.477 24.477 0 0 1-2.629-4.19c-.72-1.484-1.32-3.033-1.64-4.653l.055-.01z" fill="#312F4B"/>
                <path d="M109.116 69.144c-.698-.58-1.539-.976-2.407-1.282a10.39 10.39 0 0 0-2.723-.529 8.514 8.514 0 0 0-2.736.261 5.637 5.637 0 0 0-2.305 1.18c.923-.069 1.731-.209 2.574-.218a22.56 22.56 0 0 1 2.472.017c1.657.086 3.304.339 5.125.571M134.612 75.883c-4.508-11.038-17.026-32.22-21.361-10.523 0 0-14.46 51.484.63 55.63 15.092 4.147 13.649-12.096 26.376-6.231 0 0-1.136-27.839-5.645-38.876m-25.345 36.6c-2.353-8.89.531-22.487.531-22.487-4.923 29.995 9.412 30.218 9.412 30.218s-7.422 1.789-9.943-7.73" fill="#312F4B"/>
                <path d="M98.218 135.834s-2.224-5.033-5.328-2.29l4.013 4.29 1.315-2z" fill="#FAD8C9"/>
                <path d="M98.378 150.244s-.785-3.348 3.16-4.27c3.946-.923 12.9 7.52 12.565 17.351 0 0-.288 1.562.812 2.253 1.1.69 4.036 2.862 1.72 4.206-2.315 1.344-6.03 1.898-9.297.06-3.266-1.838-8.96-19.6-8.96-19.6" fill="#C8942E"/>
                <path d="M116.497 168.855c-.917-.798-2.018-1.13-3.127-1.097-.559-.01-1.114.127-1.68.24l-.843.237c-.28.094-.56.19-.86.264.23-.196.48-.37.732-.546.263-.15.536-.293.815-.422.575-.22 1.184-.4 1.823-.403.632-.007 1.283.113 1.846.418.56.295 1.044.746 1.294 1.309" fill="#AB671A"/>
                <path d="M84.849 101.984s4.121.57 6.553 6.997c2.433 6.427 2.143 7.657 3.18 8.879 1.037 1.222 4.9 8.004-1.895 14.955 0 0-7.297 1.376-8.9-.142-1.605-1.517-5.035-8.268-5.639-9.127-.603-.86 4.91-21.152 6.7-21.562" fill="#FAD8C9"/>
                <path d="M82.348 130.99s-14.287 3.845-15.92 13.253c-1.632 9.407 2.747 24.09 20.07 32.61 17.322 8.522 26.904-9.007 27.045-12.827.142-3.82 2.397-14.46-11.393-20.945-13.789-6.485-18.173-6.59-19.802-12.092" fill="#F7B787"/>
                <path d="M102.956 144.337s-.786-3.349 3.16-4.27c3.945-.923 12.899 7.52 12.565 17.35 0 0-.29 1.563.811 2.254 1.1.69 4.037 2.862 1.72 4.205-2.315 1.344-6.03 1.9-9.296.061-3.267-1.838-8.96-19.6-8.96-19.6" fill="#F7B787"/>
                <path d="M121.074 162.948c-.983-.743-2.041-1.021-3.125-.992-.545-.006-1.09.118-1.655.212-.275.075-.56.138-.849.207-.284.08-.57.163-.881.217.22-.217.464-.403.71-.593.26-.162.531-.317.812-.453.574-.238 1.193-.433 1.846-.43.645-.012 1.313.122 1.88.447.566.314 1.047.796 1.262 1.385" fill="#F39C5E"/>
                <path d="M81.45 133.768s.27-4.55 6.987-3.133c6.717 1.417 16.153 12.447 18.403 21.464 2.25 9.018-9.97 8.898-15.366 1.396-5.394-7.504-9.817-13.585-10.023-19.727" fill="#F7B787"/>
                <path d="M106.456 156.634s6.01-10.3-8.238-20.8l-3.63 3.344 11.868 17.456z" fill="#F7B787"/>
                <path d="M105.417 143.731c1.772 1.008 3.447 2.22 4.91 3.675.753.708 1.395 1.525 2.022 2.351a17.558 17.558 0 0 1 1.554 2.706c.841 1.91 1.29 4.01 1.244 6.105-.045 2.1-.491 4.163-1.439 6.073l.036-.101c-.191.816-.45 1.572-.751 2.327-.3.752-.661 1.476-1.061 2.176a15.282 15.282 0 0 1-1.355 1.997c-.486.64-1.051 1.214-1.634 1.757.509-.615 1.009-1.232 1.434-1.9.439-.659.815-1.355 1.158-2.063a18.96 18.96 0 0 0 .901-2.176c.257-.736.477-1.505.614-2.247l.008-.043.028-.059c.408-.865.703-1.842.906-2.804a14.686 14.686 0 0 0-.805-8.732c-.386-.915-.872-1.785-1.403-2.63-.562-.824-1.159-1.632-1.842-2.372-1.34-1.501-2.88-2.834-4.525-4.04M82.721 131.028c.721-.605 1.626-.984 2.558-1.183a7.485 7.485 0 0 1 2.87-.05c.941.2 1.867.506 2.674 1.017.424.216.779.544 1.158.818.35.314.678.653.987 1-.428-.203-.815-.448-1.219-.658l-.612-.296c-.2-.103-.398-.206-.611-.28a14.174 14.174 0 0 1-.617-.253c-.207-.078-.422-.134-.631-.202a4.345 4.345 0 0 0-.634-.18c-.215-.045-.426-.108-.643-.139-.861-.167-1.742-.19-2.624-.13-.886.069-1.77.24-2.656.536M82.86 145.188a17.68 17.68 0 0 0 2.867 2.69c.523.374 1.05.748 1.618 1.076.56.344 1.15.64 1.747 1a6.212 6.212 0 0 1-2.03-.408c-.66-.225-1.27-.587-1.837-.995a6.92 6.92 0 0 1-1.476-1.487c-.41-.56-.75-1.19-.89-1.876" fill="#F39C5E"/>
                <path d="M106.006 155.542c1.142-1.595 1.736-3.507 1.529-5.387-.011-.47-.144-.93-.216-1.394-.131-.455-.235-.915-.417-1.356-.32-.89-.732-1.753-1.211-2.58-.937-1.67-2.134-3.183-3.374-4.683a64.838 64.838 0 0 0-1.89-2.217c-.657-.712-1.298-1.45-2.074-2.023l.09-.007c-.264.192-.536.372-.803.559.235-.226.465-.457.705-.678l.038-.035.051.03c.864.495 1.626 1.138 2.343 1.81.725.668 1.403 1.38 2.072 2.1 1.318 1.447 2.596 2.985 3.567 4.733.482.872.928 1.775 1.224 2.739.173.472.267.97.386 1.46.067.501.16 1 .146 1.51.03.505-.034 1.012-.1 1.512-.038.25-.12.492-.179.736l-.095.365-.15.348c-.352.946-.98 1.746-1.642 2.458" fill="#F39C5E"/>
                <path d="M86.05 145.566a78.145 78.145 0 0 0 4.115 4.993c1.442 1.589 2.953 3.118 4.634 4.413a16.241 16.241 0 0 0 2.647 1.719c.927.483 1.922.826 2.943.945 2.062.276 4.096-.803 5.637-2.303-.318.439-.691.843-1.103 1.204a8.18 8.18 0 0 1-1.33.982 5.826 5.826 0 0 1-3.257.77c-1.14-.05-2.233-.412-3.241-.883-1.007-.485-1.935-1.1-2.81-1.77-1.738-1.36-3.256-2.953-4.618-4.653a35.933 35.933 0 0 1-3.617-5.417M93.117 132.68c.89.319 1.699.837 2.434 1.43.74.593 1.403 1.284 1.979 2.04.565.763 1.073 1.575 1.432 2.455a9.7 9.7 0 0 1 .752 2.72c-.457-.828-.854-1.648-1.336-2.422a22.56 22.56 0 0 0-1.517-2.243c-.533-.728-1.133-1.404-1.753-2.069a28.735 28.735 0 0 0-1.99-1.912M100.153 142.346c.956.694 1.785 1.547 2.533 2.462.75.918 1.39 1.925 1.934 2.987a13.183 13.183 0 0 1 1.122 3.397 9.004 9.004 0 0 1-.104 3.546c-.081-1.18-.231-2.306-.537-3.404a20.266 20.266 0 0 0-1.234-3.168c-1.017-2.04-2.305-3.943-3.714-5.82M73.997 142.082c1.459-1.126.296-4.016-1.48-4.072-1.038-.032-2.032.572-2.951 1.28-1.512-1.456-4.79-1.414-5.432.89-.249.894.281 2.1 1.173 2.467.77.317 1.554.061 2.247-.31.169-.09.335-.194.501-.307-.11.5-.21 1.001-.312 1.499-.145.713-.634 2.027-.164 2.707.13.188.374.236.585.22.326-.025.483-.313.618-.563.126-.233.077-.436-.056-.579.002-.127-.003-.274.015-.381.078-.505.181-1.005.283-1.505.051-.252.103-.505.157-.758.517.52 1.036 1.04 1.546 1.57.283.291.562.588.833.891.103.115.202.232.3.351l.035.046c.02.513.911.748 1.229.165.315-.582-.664-1.402-.994-1.756a60.52 60.52 0 0 0-1.323-1.365c1.105.296 2.325.177 3.19-.49m-6.47-1.168c-.702.484-1.63 1.088-2.14.098-.41-.793.622-1.306 1.223-1.452a2.16 2.16 0 0 1 1.999.505c-.378.314-.74.612-1.082.85m4.902-1.683c.938-.134 1.28 1.7.462 2.09-.88.422-2.424.11-3.113-.66.825-.676 1.682-1.292 2.651-1.43" fill="#F39C5E"/>
                <path d="M83.442 100.2c1.79-.41 3.837-2.283 3.837-2.283-3.249.818-7.708-.747-7.708-.747-11.618-4.34-16.592 1.768-16.592 1.768.024-1.428 1.673-3.099 1.673-3.099-4.902 1.826-5.41 5.415-5.41 5.415-3.989-.638-6.32 3.46-6.32 3.46 1.949-1.572 2.887-.383 2.887-.383-4.617 5.011-8.999 10.32-5.299 22.681 3.7 12.362 19.078 12.96 19.315 13.59.236.629 1.104 1.353 1.104 1.353 3.447-1.085 4.157-4.277 4.128-3.513-.028.764-.02 2.092-.02 2.092 2.588-.482 2.8-3.505 2.8-3.505.572.96 1.005 1.322 1.005 1.322 6.692-7.648 3.49-14.767 1.752-16.548-1.738-1.782-.264-4.946 1.253-6.55s.459.078.459.078c.475 1.59 1.105.892 1.105.892 4.995-5.776 2.145-12.683 2.145-12.683 3.021-.12 5.46 2.223 5.46 2.223-3.524-5.788-7.574-5.563-7.574-5.563" fill="#493D59"/>
                <path d="M87.293 97.933c-.554.511-1.139.99-1.766 1.413a8.172 8.172 0 0 1-.98.58c-.342.166-.7.316-1.09.381l-.02-.215c.852.003 1.658.227 2.428.538.768.317 1.48.756 2.142 1.256.662.504 1.249 1.097 1.786 1.728.263.32.495.664.74.998l.634 1.062a.174.174 0 0 1-.266.22 22.426 22.426 0 0 0-1.134-.953 11.113 11.113 0 0 0-.603-.428c-.209-.127-.426-.256-.665-.291h-.003l-.018-.024.02-.018c.264-.008.506.1.737.202.23.106.45.234.664.368.427.271.84.558 1.232.88l-.266.221-.676-1.004c-.25-.316-.474-.65-.735-.954-.512-.617-1.055-1.211-1.675-1.72a9.01 9.01 0 0 0-2.028-1.278c-.727-.322-1.52-.56-2.304-.587h-.007a.108.108 0 0 1-.013-.215c.716-.11 1.396-.467 2.029-.856a14.924 14.924 0 0 0 1.81-1.335l.029.001-.002.03z" fill="#312F4B"/>
                <path d="M54.044 133.253c.072.242.147.487.227.734.101-.06.21-.114.326-.161a16.003 16.003 0 0 1-.553-.573" fill="#CCA99E"/>
                <path d="M56.39 135.372c-.008.63.002 1.176.002 1.176s1.23 1.458 2.617 1.948c.924-.2 1.608-.567 1.608-.567l.113-.036c-1.461-.65-2.95-1.471-4.34-2.521m-1.793-1.546a2.547 2.547 0 0 0-.326.161c.1.314.209.633.324.955l-.016.015c.567.137 1.139.247 1.714.342a17.72 17.72 0 0 1-1.696-1.473" fill="#C77A67"/>
                <path d="M60.73 137.893a2.725 2.725 0 0 0-.113.036s-.684.367-1.608.567c.28.1.568.16.852.16.156 0 .31-.018.462-.057.336-.085.672-.247.998-.453a25.92 25.92 0 0 1-.59-.253" fill="#F8C197"/>
                <path d="M52.999 119.153c.603-1.678 1.224-2.575 1.224-2.575 1.963-.08 5.441 2.492 8.587 3.773 3.148 1.279 2.959 6.651 2.959 6.651 1.186 5.182-1.835 7.756-2.902 8.486-3.174.323-6.34.204-9.374-.531l.016-.015c-2.616-7.32-1.587-12.8-.51-15.79" fill="#FAD8C9"/>
                <path d="M62.867 135.488s-1.82 2.651-3.63 3.11c-1.81.461-3.931-2.05-3.931-2.05s-.055-3.06.19-3.07c.246-.009 6.713.587 7.37 2.01M52.999 119.153s3.029-9.167 5.242-11.977c0 0 2.973-1.353 1.16 3.73-1.812 5.082-2.15 8.717-2.15 8.717l-4.252-.47zM62.518 124.59s8.179-5.13 11.673-5.879c0 0 3.154.855-1.483 3.612-4.638 2.759-7.85 6.415-7.85 6.415l-2.34-4.148z" fill="#FAD8C9"/>
                <path d="M57.134 118.698s5.402-8.002 8.295-10.103c0 0 3.23-.496.106 3.905-3.126 4.401-4.433 7.804-4.433 7.804l-3.968-1.606z" fill="#FAD8C9"/>
                <path d="M59.82 121.186s5.403-8.002 8.296-10.104c0 0 3.23-.496.105 3.904-3.124 4.4-4.431 7.803-4.431 7.803l-3.97-1.603zM75.888 152.901s1.14.057 2.92.625c3.17 1.012 8.382 3.65 12.799 10.492 0 0 49.673-6.836 48.227 9.793-1.309 15.067-53.32-1.824-53.32-1.824s-5.045 2.33-9.324-2.842c0 0-4.587-3.268-3.642-6.7.942-3.431 1.022-7.963 2.34-9.544" fill="#FAD8C9"/>
                <path d="M78.808 153.526s-9.551-3.327-13.298-3.28c0 0-3.02 1.609 2.36 3.343 5.381 1.735 8.617 3.772 8.617 3.772l2.321-3.835zM77.258 164.905s-9.478 3.528-12.329 5.954c0 0-1.302 3.166 3.948 1.07s10.337-2.434 10.337-2.434l-1.956-4.59z" fill="#FAD8C9"/>
                <path d="M75.793 156.674s-10.096-.612-13.686.452c0 0-2.47 2.368 3.178 2.577 5.651.209 9.313 1.292 9.313 1.292l1.195-4.321z" fill="#FAD8C9"/>
                <path d="M76.149 160.492s-10.096-.611-13.688.453c0 0-2.472 2.368 3.178 2.577 5.65.209 9.311 1.292 9.311 1.292l1.199-4.322z" fill="#FAD8C9"/>
                <path d="M126.016 163.375s6.658-1.153 10.576 6.405c0 0-2.066-10.336-10.576-6.405" fill="#F8C197"/>
                <path d="M112.482 68.752a187.951 187.951 0 0 0-3.085 11.648c-.912 3.91-1.708 7.848-2.308 11.815-.587 3.966-.975 7.965-.976 11.96-.007 1.995.13 3.995.528 5.944.404 1.928 1.095 3.887 2.545 5.296l-.037.042c-.773-.652-1.388-1.486-1.858-2.387-.457-.91-.784-1.88-1.032-2.864-.487-1.974-.657-4.006-.707-6.025-.073-4.05.444-8.067 1.094-12.036.657-3.973 1.51-7.908 2.478-11.811.985-3.9 2.072-7.773 3.304-11.6l.054.018zM129.524 43.263s3.042 3.236 3.777 8.94c0 0 .88 2.61.984 3.452 0 0-9.743 6.598-21.433 1.234 0 0 17.086-3.984 16.672-13.626M128.005 116.158s6.004-6.078 11.585-2.128l-2.45-28.16s-1.244 18.47-4.652 22.545c-3.41 4.075-4.972 6.251-4.483 7.743" fill="#312F4B"/>
                <path d="M109.746 103.11s-.248 15.927 11.189 16.518c0 0-8.351-1.008-11.189-16.518" fill="#312F4B"/>
                <path d="M83.7 115.78s.154.309-.185.585c0 0-1.755 1.478-.893 4.25 0 0 .458 1.03 1.66 1.877 0 0 .88.755.434 1.663.005.064-.35.977-1.432.63 0 0-.539-.091-1.124-.8l.043-2.724s-.997-3.91-.874-3.941c.123-.03 1.755-1.416 1.755-1.416l.616-.124z" fill="#F8C197"/>
                <path d="M83.827 122.549a2.423 2.423 0 0 1-.4-.238c-.19-.096-.282-.234-.445-.398-1.356-1.477-1.663-4.503.202-5.528 1.333-.732.27-2.843-1.064-2.11a4.512 4.512 0 0 0-1.351 1.127c-5.122.37-3.102 9.114.644 8.275.479.445 1.049.822 1.704 1.125 1.374.636 2.075-1.622.71-2.253" fill="#FAD8C9"/>
                <path d="M80.537 115.987a6.532 6.532 0 0 0-.48 1.846 5.997 5.997 0 0 0 .052 1.876c.113.614.35 1.186.6 1.746.104.293.268.557.4.846.144.28.32.547.46.852l-.04.037a4.479 4.479 0 0 1-1.325-1.486c-.352-.583-.473-1.274-.54-1.935-.14-1.337.178-2.68.824-3.81l.05.028z" fill="#F8C197"/>
                <path d="M157.651 60.939c23.557 0 22.668-40.225 22.668-40.225-14 0-22.223-11.714-22.223-11.714h-.222s-8.223 11.714-22.224 11.714c0 0-.889 40.225 22.668 40.225h-.667z" fill="#93D3EC"/>
                <path d="M157.651 60.939c23.557 0 22.668-40.225 22.668-40.225-14 0-22.223-11.714-22.223-11.714h-.222s-8.223 11.714-22.224 11.714c0 0-.889 40.225 22.668 40.225h-.667z" stroke="#FEFEFE" stroke-width="3.461" stroke-linecap="round" stroke-linejoin="round"/>
                <path fill="#3F89B7" d="M155.342 46.45h5.285V24.946h-5.285z"/>
                <path fill="#3F89B7" d="M147.232 38.34h21.504v-5.284h-21.504z"/>
                <g fill="#DA9198">
                    <path d="M45.61 64.569s-.096-6.589 6.302-6.74c9.502-.222 8.234 12.88 2.781 21.903 0 0-21.325 1.291-19.162-11.554 0 0 1.921-6.926 10.078-3.609M41.14 90.811s-.058-3.953 3.781-4.044c5.701-.133 4.94 7.728 1.669 13.142 0 0-12.795.775-11.498-6.932 0 0 1.153-4.156 6.048-2.166"/>
                </g>
            </g>
        </g>
    </g>
</svg>
