<svg width="80" height="80" viewBox="0 0 80 80" xmlns="http://www.w3.org/2000/svg" xmlns:xlink="http://www.w3.org/1999/xlink">
    <defs>
        <circle id="8kff3t688a" cx="35" cy="35" r="35"/>
        <path id="wsqlc1i53c" d="M0 0h80v50H0z"/>
    </defs>
    <g fill="none" fill-rule="evenodd">
        <g transform="translate(5 10)">
            <mask id="rxppr9hwjb" fill="#fff">
                <use xlink:href="#8kff3t688a"/>
            </mask>
            <use fill="#636178" xlink:href="#8kff3t688a"/>
            <g mask="url(#rxppr9hwjb)">
                <path d="M15.386 5.584c-.225 0-.442.032-.65.087a2.553 2.553 0 0 0-2.413-1.724c-.69 0-1.314.275-1.773.719a2.546 2.546 0 0 0-3.83.327 2.547 2.547 0 0 0-2.057-1.046 2.553 2.553 0 0 0-2.417 1.735 2.553 2.553 0 1 0-.692 5.01l13.832-.001a2.554 2.554 0 0 0 0-5.107" fill="#575756"/>
                <path d="M19.922 6.459c-.69 0-1.314.274-1.774.718-.186-.18-.399-.332-.633-.45a2.553 2.553 0 0 1-2.13 3.963l-8.786.001a2.553 2.553 0 0 0 2.553 2.511h13.832a2.554 2.554 0 0 0 0-5.107c-.225 0-.442.032-.65.087a2.553 2.553 0 0 0-2.412-1.723" fill="#2F4F66"/>
                <path d="M23.169 8.544c-.225 0-.442.031-.65.086a2.553 2.553 0 0 0-2.413-1.723c-.69 0-1.314.274-1.773.718a2.547 2.547 0 0 0-3.83.326 2.548 2.548 0 0 0-4.474.69 2.553 2.553 0 1 0-.692 5.01h13.832a2.554 2.554 0 0 0 0-5.107" fill="#C6C5C5"/>
                <path d="M1.335 11.982s-1.615 3.11.076 3.11l.1-.003c1.834-.123-.176-3.107-.176-3.107M6.127 11.982s-1.615 3.11.075 3.11l.102-.003c1.832-.123-.177-3.107-.177-3.107M11.609 14.813s-1.616 3.11.075 3.11c.032 0 .066 0 .101-.003 1.833-.123-.176-3.107-.176-3.107M1.335 17.427s-1.615 3.11.076 3.11l.1-.003c1.834-.123-.176-3.107-.176-3.107M6.127 17.427s-1.615 3.11.075 3.11l.102-.003c1.832-.123-.177-3.107-.177-3.107M11.609 20.258s-1.616 3.11.075 3.11c.032 0 .066 0 .101-.003 1.833-.123-.176-3.107-.176-3.107M1.335 22.872s-1.615 3.11.076 3.11c.032 0 .066 0 .1-.003 1.834-.123-.176-3.107-.176-3.107M6.127 22.872s-1.615 3.11.075 3.11c.033 0 .067 0 .102-.003 1.832-.123-.177-3.107-.177-3.107M11.609 25.704s-1.616 3.11.075 3.11c.032 0 .066-.002.101-.004 1.833-.123-.176-3.106-.176-3.106M1.335 28.317s-1.615 3.11.076 3.11c.032 0 .066 0 .1-.003 1.834-.123-.176-3.107-.176-3.107M6.127 28.317s-1.615 3.11.075 3.11c.033 0 .067 0 .102-.003 1.832-.123-.177-3.107-.177-3.107M11.609 31.149s-1.616 3.11.075 3.11c.032 0 .066-.001.101-.004 1.833-.123-.176-3.106-.176-3.106M16.073 25.704s-1.615 3.11.076 3.11c.032 0 .066-.002.1-.004 1.833-.123-.176-3.106-.176-3.106M16.073 31.149s-1.615 3.11.076 3.11c.032 0 .066-.001.1-.004 1.833-.123-.176-3.106-.176-3.106M1.335 33.763s-1.615 3.11.076 3.11c.032 0 .066-.002.1-.004 1.834-.123-.176-3.106-.176-3.106M6.127 33.763s-1.615 3.11.075 3.11c.033 0 .067-.002.102-.004 1.832-.123-.177-3.106-.177-3.106M11.609 36.594s-1.616 3.11.075 3.11l.101-.003c1.833-.123-.176-3.107-.176-3.107M16.154 36.588s-1.735 3.111.026 3.111h.059c1.835-.07-.085-3.111-.085-3.111M6.127 39.208s-1.615 3.11.075 3.11c.033 0 .067-.001.102-.004 1.832-.123-.177-3.106-.177-3.106M11.609 42.04s-1.616 3.109.075 3.109l.101-.003c1.833-.123-.176-3.107-.176-3.107M16.154 42.033s-1.735 3.111.026 3.111h.059c1.835-.07-.085-3.11-.085-3.11M11.609 47.484s-1.616 3.11.075 3.11l.101-.003c1.833-.123-.176-3.107-.176-3.107M16.154 47.478s-1.735 3.111.026 3.111h.059c1.835-.07-.085-3.11-.085-3.11" fill="#93D3EC"/>
                <path d="m61.005 18.678-2.162 4.838a.168.168 0 0 0 .154.237h2.51c.128 0 .209.135.15.246l-2.287 4.32c-.09.17.131.333.267.197l6.11-6.11a.169.169 0 0 0-.12-.287h-2.584a.168.168 0 0 1-.15-.245l1.44-2.782a.166.166 0 0 0-.057-.217c-.434-.287-1.93-1.144-3.212-.268a.17.17 0 0 0-.059.071" fill="#F39C5E"/>
                <path d="M63.093 12.21c-.216 0-.424.031-.623.083a2.447 2.447 0 0 0-2.312-1.652c-.66 0-1.26.264-1.7.69a2.44 2.44 0 0 0-3.67.312 2.442 2.442 0 0 0-4.289.66 2.44 2.44 0 0 0-3.11 2.354 2.448 2.448 0 0 0 2.447 2.448h13.257a2.448 2.448 0 0 0 0-4.895" fill="#575756"/>
                <path d="M62.324 18.223c-.414 0-.848.103-1.26.384a.175.175 0 0 0-.059.07l-.373.834h3.484l.216-.42a.167.167 0 0 0-.055-.216c-.296-.195-1.08-.652-1.953-.652" fill="#3A3D28"/>
                <path d="M70.552 15.047c-.215 0-.424.03-.623.083a2.446 2.446 0 0 0-4.011-.963 2.44 2.44 0 0 0-3.671.312 2.441 2.441 0 0 0-1.972-1.001 2.447 2.447 0 0 0-2.317 1.662 2.44 2.44 0 0 0-3.11 2.354 2.448 2.448 0 0 0 2.448 2.448h13.256a2.448 2.448 0 0 0 0-4.895" fill="#C6C5C5"/>
                <path d="M23.757 21.451s7.025 15.737.763 23.578c0 0 10.4-10.346 10.237-10.51-.164-.163-2.341-6.153-2.45-6.588-.11-.436-5.827-9.257-8.55-6.48" fill="#312F4B"/>
                <path d="M30.89 34.765s-5.145 2.858-7.84 11.924c-2.696 9.067-12.007 28.506-12.007 28.506s12.415-.735 13.15-.817c.735-.081 10.945-18.949 10.945-18.949s1.715-24.176-4.247-20.664" fill="#834996"/>
                <path d="M18.769 3.195s2.115-7.054 12.274-8.56C41.201-6.871 49.941-.835 51.909 9.198c1.967 10.034 8.04 32.545-1.763 39.538 0 0 .4-4.846-1.13-6.49-1.529-1.642-6.723 3.945-6.723 3.945s1.851-.397-.814.348c-2.666.746-4.213-3.544-4.213-3.544l-.715-27.95-17.782-11.85z" fill="#312F4B"/>
                <path d="M42.489 31.361s2.287-4.464 2.015-9.529c0 0 2.777 7.678 6.098 11.49 3.322 3.811 4.846 7.746 2.11 12.714L42.489 31.361z" fill="#312F4B"/>
                <path d="M26.553 27.666s4.011 3.26 3.682 8.817c0 0 5.342-.311 5.913-2.385.57-2.075 1.452-4.72 1.348-4.927-.103-.208-4.097-7.52-4.097-7.52s-5.601 3.786-6.846 6.015" fill="#FAD8C9"/>
                <path d="M37.207 32.342s-3.859 4.056-6.963 3.022c0 0-8.664 12.497-12.803 16.144-4.138 3.649-4.955 9.421 3.866 14.54 0 0-.109 6.97.381 6.915.49-.055 24.34-2.94 24.559-2.832.217.11 4.029-23.469 4.029-27.879 0-4.411-7.896-14.756-13.069-9.91" fill="#D6C7E3"/>
                <path d="M34.253 34.424c.308-.49 3.385-5.53 8.658-3.212 8.645 3.798 9.747 13.803 10.441 19.235.946 7.4-2.709 20.569-4.451 23.89-1.743 3.322-29.446 4.289-29.446 4.289s12.783-40.989 14.798-44.202" fill="#834996"/>
                <path d="M20.3 1.515s-5.833 2.969-2.437 11.327l4.043-8.026-1.605-3.3z" fill="#312F4B"/>
                <path d="M28.474 29.973s4.05-2.968 4.758-4.329c0 0-1.586 4.744-3.71 6.323 0 0-.742-1.701-1.048-1.994" fill="#F8C197"/>
                <path d="M20.314 2.371s-2.492 3.724-2.818 8.952c-.327 5.222 1.388 5.391-1.848 8.27 0 0-.664 1.381 1.357 2.43 0 0 1.817.38 1.04 1.557-.436.663.453 1.355.859 1.726 0 0-.187.735.463 1.329.65.592.269.187.846 2.575.363 1.5 3.325 5.98 18.08-5.627 0 0 3.315-8.642 3.095-10.033-.22-1.392-14.99-16.053-21.074-11.179" fill="#FAD8C9"/>
                <path d="M18.435 6.626s1.43 6.903 9.72 9.352c0 0 3.308 6.412 3.675 12.212l-.612-14.172-12.783-7.392z" fill="#F8C197"/>
                <path d="M18.045 5.287s.77 7.089 11.457 10.283c0 0 6.927 17.974-3.024 29.797-.109.13-.018.33.152.331 1.785.021 8.801-.38 12.646-7.64 4.846-9.147 6.794-14.956 5.756-21.709-1.038-6.753-3.144-16.417-11.7-17.32-8.556-.905-14.286 2.059-15.287 6.258" fill="#312F4B"/>
                <path d="M45.64-1.589s-2.865 7.48-13.28 9.073c0 0 10.313 3.24 18.725-1.252 0 0-1.358-4.496-5.445-7.821" fill="#312F4B"/>
                <path d="M23.18 18.317s-1.12 3.933.893 3.379c1.99-.548-.894-3.38-.894-3.38" fill="#FEFEFE"/>
                <path d="M19.003 12.964c.304.296.682.511 1.076.686.396.17.82.287 1.25.347.431.064.871.053 1.287-.021a2.64 2.64 0 0 0 1.119-.466c-.433-.002-.816.034-1.21.007a10.614 10.614 0 0 1-1.152-.099c-.77-.1-1.53-.28-2.37-.454M23.092 16.196c-.43 1.664-2.858 1.959-3.237.087-.087-.431-.743-.23-.656.2.16.788.706 1.37 1.409 1.636-.337.112-.51.41-.51.41.312-.277 1.155-.254 1.155-.254l-.001-.003c.134.012.27.015.41.005 0 0 .52-.033 1.07-.377.51-.356.868-.925 1.026-1.539.11-.427-.556-.592-.666-.165" fill="#312F4B"/>
                <path d="M19.406 25.498a.194.194 0 0 1-.046-.384c.036-.009.896-.215 2.088-.016a.194.194 0 1 1-.064.383c-1.115-.185-1.923.009-1.931.01a.203.203 0 0 1-.047.007" fill="#CB6071"/>
                <path d="m44.718 2.997-2.162 4.838a.168.168 0 0 0 .153.236h2.512c.126 0 .207.136.148.247l-2.286 4.32c-.09.17.13.333.267.197l6.11-6.11a.168.168 0 0 0-.12-.287h-2.584a.168.168 0 0 1-.15-.246l1.44-2.781a.167.167 0 0 0-.056-.218c-.435-.287-1.932-1.143-3.214-.267a.175.175 0 0 0-.058.07" fill="#F39C5E"/>
                <path d="M49.956-5.188c-.25 0-.49.035-.72.096A2.827 2.827 0 0 0 46.566-7c-.764 0-1.456.304-1.964.796a2.82 2.82 0 0 0-4.24.361 2.82 2.82 0 0 0-4.952.762 2.826 2.826 0 1 0-.766 5.546h15.312a2.827 2.827 0 0 0 0-5.653" fill="#575756"/>
                <path d="M44.472.465H40.23a2.828 2.828 0 0 0 1.903 2.626 15.453 15.453 0 0 0 2.34-2.625" fill="#1E1813"/>
                <path d="M47.746.466h-3.273c-.547.779-1.31 1.702-2.34 2.626.288.099.599.153.922.153h1.551l.112-.248a.17.17 0 0 1 .058-.07 2.185 2.185 0 0 1 1.26-.386c.874 0 1.658.458 1.954.652a.17.17 0 0 1 .05.052h1.674l-.003-.003A18.662 18.662 0 0 0 47.746.466" fill="#2B2527"/>
                <path d="M46.037 2.542c-.414 0-.848.102-1.26.384a.175.175 0 0 0-.06.07l-.11.25h3.432a.163.163 0 0 0-.05-.053c-.295-.194-1.078-.651-1.952-.651" fill="#3A3D28"/>
                <path d="M58.572-1.912c-.25 0-.49.036-.72.096a2.826 2.826 0 0 0-2.67-1.908c-.764 0-1.456.304-1.964.796a2.818 2.818 0 0 0-4.24.361 2.82 2.82 0 0 0-2.277-1.157 2.826 2.826 0 0 0-2.675 1.92A2.82 2.82 0 0 0 40.433.915a2.827 2.827 0 0 0 2.826 2.827h15.313a2.827 2.827 0 0 0 0-5.654" fill="#C6C5C5"/>
            </g>
        </g>
        <g>
            <mask id="jsjd9itnnd" fill="#fff">
                <use xlink:href="#wsqlc1i53c"/>
            </mask>
            <g mask="url(#jsjd9itnnd)">
                <path d="M20.386 15.584c-.225 0-.442.032-.65.087a2.553 2.553 0 0 0-2.413-1.724c-.69 0-1.314.275-1.773.719a2.546 2.546 0 0 0-3.83.327 2.547 2.547 0 0 0-2.057-1.046 2.553 2.553 0 0 0-2.417 1.735 2.553 2.553 0 1 0-.692 5.01l13.832-.001a2.554 2.554 0 0 0 0-5.107" fill="#575756"/>
                <path d="M24.922 16.459c-.69 0-1.314.274-1.774.718-.186-.18-.399-.332-.633-.45a2.553 2.553 0 0 1-2.13 3.963l-8.786.001a2.553 2.553 0 0 0 2.553 2.511h13.832a2.554 2.554 0 0 0 0-5.107c-.225 0-.442.032-.65.087a2.553 2.553 0 0 0-2.412-1.723" fill="#2F4F66"/>
                <path d="M28.169 18.544c-.225 0-.442.031-.65.086a2.553 2.553 0 0 0-2.413-1.723c-.69 0-1.314.274-1.773.718a2.547 2.547 0 0 0-3.83.326 2.548 2.548 0 0 0-4.474.69 2.553 2.553 0 1 0-.692 5.01h13.832a2.554 2.554 0 0 0 0-5.107" fill="#C6C5C5"/>
                <path d="M6.335 21.982s-1.615 3.11.076 3.11l.1-.003c1.834-.123-.176-3.107-.176-3.107M11.127 21.982s-1.615 3.11.075 3.11l.102-.003c1.832-.123-.177-3.107-.177-3.107M16.609 24.813s-1.616 3.11.075 3.11c.032 0 .066 0 .101-.003 1.833-.123-.176-3.107-.176-3.107M6.335 27.427s-1.615 3.11.076 3.11l.1-.003c1.834-.123-.176-3.107-.176-3.107M11.127 27.427s-1.615 3.11.075 3.11l.102-.003c1.832-.123-.177-3.107-.177-3.107M16.609 30.258s-1.616 3.11.075 3.11c.032 0 .066 0 .101-.003 1.833-.123-.176-3.107-.176-3.107M6.335 32.872s-1.615 3.11.076 3.11c.032 0 .066 0 .1-.003 1.834-.123-.176-3.107-.176-3.107M11.127 32.872s-1.615 3.11.075 3.11c.033 0 .067 0 .102-.003 1.832-.123-.177-3.107-.177-3.107M16.609 35.704s-1.616 3.11.075 3.11c.032 0 .066-.002.101-.004 1.833-.123-.176-3.106-.176-3.106M6.335 38.317s-1.615 3.11.076 3.11c.032 0 .066 0 .1-.003 1.834-.123-.176-3.107-.176-3.107M11.127 38.317s-1.615 3.11.075 3.11c.033 0 .067 0 .102-.003 1.832-.123-.177-3.107-.177-3.107M16.609 41.149s-1.616 3.11.075 3.11c.032 0 .066-.001.101-.004 1.833-.123-.176-3.106-.176-3.106M21.073 35.704s-1.615 3.11.076 3.11c.032 0 .066-.002.1-.004 1.833-.123-.176-3.106-.176-3.106M21.073 41.149s-1.615 3.11.076 3.11c.032 0 .066-.001.1-.004 1.833-.123-.176-3.106-.176-3.106M6.335 43.763s-1.615 3.11.076 3.11c.032 0 .066-.002.1-.004 1.834-.123-.176-3.106-.176-3.106M11.127 43.763s-1.615 3.11.075 3.11c.033 0 .067-.002.102-.004 1.832-.123-.177-3.106-.177-3.106M16.609 46.594s-1.616 3.11.075 3.11l.101-.003c1.833-.123-.176-3.107-.176-3.107M21.154 46.588s-1.735 3.111.026 3.111h.059c1.835-.07-.085-3.111-.085-3.111M11.127 49.208s-1.615 3.11.075 3.11c.033 0 .067-.001.102-.004 1.832-.123-.177-3.106-.177-3.106M16.609 52.04s-1.616 3.109.075 3.109l.101-.003c1.833-.123-.176-3.107-.176-3.107M21.154 52.033s-1.735 3.111.026 3.111h.059c1.835-.07-.085-3.11-.085-3.11M16.609 57.484s-1.616 3.11.075 3.11l.101-.003c1.833-.123-.176-3.107-.176-3.107M21.154 57.478s-1.735 3.111.026 3.111h.059c1.835-.07-.085-3.11-.085-3.11" fill="#93D3EC"/>
                <path d="m66.005 28.678-2.162 4.838a.168.168 0 0 0 .154.237h2.51c.128 0 .209.135.15.246l-2.287 4.32c-.09.17.131.333.267.197l6.11-6.11a.169.169 0 0 0-.12-.287h-2.584a.168.168 0 0 1-.15-.245l1.44-2.782a.166.166 0 0 0-.057-.217c-.434-.287-1.93-1.144-3.212-.268a.17.17 0 0 0-.059.071" fill="#F39C5E"/>
                <path d="M68.093 22.21c-.216 0-.424.031-.623.083a2.447 2.447 0 0 0-2.312-1.652c-.66 0-1.26.264-1.7.69a2.44 2.44 0 0 0-3.67.312 2.442 2.442 0 0 0-4.289.66 2.44 2.44 0 0 0-3.11 2.354 2.448 2.448 0 0 0 2.447 2.448h13.257a2.448 2.448 0 0 0 0-4.895" fill="#575756"/>
                <path d="M67.324 28.223c-.414 0-.848.103-1.26.384a.175.175 0 0 0-.059.07l-.373.834h3.484l.216-.42a.167.167 0 0 0-.055-.216c-.296-.195-1.08-.652-1.953-.652" fill="#3A3D28"/>
                <path d="M75.552 25.047c-.215 0-.424.03-.623.083a2.446 2.446 0 0 0-4.011-.963 2.44 2.44 0 0 0-3.671.312 2.441 2.441 0 0 0-1.972-1.001 2.447 2.447 0 0 0-2.317 1.662 2.44 2.44 0 0 0-3.11 2.354 2.448 2.448 0 0 0 2.448 2.448h13.256a2.448 2.448 0 0 0 0-4.895" fill="#C6C5C5"/>
                <path d="M28.757 31.451s7.025 15.737.763 23.578c0 0 10.4-10.346 10.237-10.51-.164-.163-2.341-6.153-2.45-6.588-.11-.436-5.827-9.257-8.55-6.48" fill="#312F4B"/>
                <path d="M35.89 44.765s-5.145 2.858-7.84 11.924c-2.696 9.067-12.007 28.506-12.007 28.506s12.415-.735 13.15-.817c.735-.081 10.945-18.949 10.945-18.949s1.715-24.176-4.247-20.664" fill="#834996"/>
                <path d="M23.769 13.195s2.115-7.054 12.274-8.56c10.158-1.506 18.898 4.53 20.866 14.563 1.967 10.034 8.04 32.545-1.763 39.538 0 0 .4-4.846-1.13-6.49-1.529-1.642-6.723 3.945-6.723 3.945s1.851-.397-.814.348c-2.666.746-4.213-3.544-4.213-3.544l-.715-27.95-17.782-11.85z" fill="#312F4B"/>
                <path d="M47.489 41.361s2.287-4.464 2.015-9.529c0 0 2.777 7.678 6.098 11.49 3.322 3.811 4.846 7.746 2.11 12.714L47.489 41.361z" fill="#312F4B"/>
                <path d="M31.553 37.666s4.011 3.26 3.682 8.817c0 0 5.342-.311 5.913-2.385.57-2.075 1.452-4.72 1.348-4.927-.103-.208-4.097-7.52-4.097-7.52s-5.601 3.786-6.846 6.015" fill="#FAD8C9"/>
                <path d="M42.207 42.342s-3.859 4.056-6.963 3.022c0 0-8.664 12.497-12.803 16.144-4.138 3.649-4.955 9.421 3.866 14.54 0 0-.109 6.97.381 6.915.49-.055 24.34-2.94 24.559-2.832.217.11 4.029-23.469 4.029-27.879 0-4.411-7.896-14.756-13.069-9.91" fill="#D6C7E3"/>
                <path d="M39.253 44.424c.308-.49 3.385-5.53 8.658-3.212 8.645 3.798 9.747 13.803 10.441 19.235.946 7.4-2.709 20.569-4.451 23.89-1.743 3.322-29.446 4.289-29.446 4.289s12.783-40.989 14.798-44.202" fill="#834996"/>
                <path d="M25.3 11.515s-5.833 2.969-2.437 11.327l4.043-8.026-1.605-3.3z" fill="#312F4B"/>
                <path d="M33.474 39.973s4.05-2.968 4.758-4.329c0 0-1.586 4.744-3.71 6.323 0 0-.742-1.701-1.048-1.994" fill="#F8C197"/>
                <path d="M25.314 12.371s-2.492 3.724-2.818 8.952c-.327 5.222 1.388 5.391-1.848 8.27 0 0-.664 1.381 1.357 2.43 0 0 1.817.38 1.04 1.557-.436.663.453 1.355.859 1.726 0 0-.187.735.463 1.329.65.592.269.187.846 2.575.363 1.5 3.325 5.98 18.08-5.627 0 0 3.315-8.642 3.095-10.033-.22-1.392-14.99-16.053-21.074-11.179" fill="#FAD8C9"/>
                <path d="M23.435 16.626s1.43 6.903 9.72 9.352c0 0 3.308 6.412 3.675 12.212l-.612-14.172-12.783-7.392z" fill="#F8C197"/>
                <path d="M23.045 15.287s.77 7.089 11.457 10.283c0 0 6.927 17.974-3.024 29.797-.109.13-.018.33.152.331 1.785.021 8.801-.38 12.646-7.64 4.846-9.147 6.794-14.956 5.756-21.709-1.038-6.753-3.144-16.417-11.7-17.32-8.556-.905-14.286 2.059-15.287 6.258" fill="#312F4B"/>
                <path d="M50.64 8.411s-2.865 7.48-13.28 9.073c0 0 10.313 3.24 18.725-1.252 0 0-1.358-4.496-5.445-7.821" fill="#312F4B"/>
                <path d="M28.18 28.317s-1.12 3.933.893 3.379c1.99-.548-.894-3.38-.894-3.38" fill="#FEFEFE"/>
                <path d="M24.003 22.964c.304.296.682.511 1.076.686.396.17.82.287 1.25.347.431.064.871.053 1.287-.021a2.64 2.64 0 0 0 1.119-.466c-.433-.002-.816.034-1.21.007a10.614 10.614 0 0 1-1.152-.099c-.77-.1-1.53-.28-2.37-.454M28.092 26.196c-.43 1.664-2.858 1.959-3.237.087-.087-.431-.743-.23-.656.2.16.788.706 1.37 1.409 1.636-.337.112-.51.41-.51.41.312-.277 1.155-.254 1.155-.254l-.001-.003c.134.012.27.015.41.005 0 0 .52-.033 1.07-.377.51-.356.868-.925 1.026-1.539.11-.427-.556-.592-.666-.165" fill="#312F4B"/>
                <path d="M24.406 35.498a.194.194 0 0 1-.046-.384c.036-.009.896-.215 2.088-.016a.194.194 0 1 1-.064.383c-1.115-.185-1.923.009-1.931.01a.203.203 0 0 1-.047.007" fill="#CB6071"/>
                <path d="m49.718 12.997-2.162 4.838a.168.168 0 0 0 .153.236h2.512c.126 0 .207.136.148.247l-2.286 4.32c-.09.17.13.333.267.197l6.11-6.11a.168.168 0 0 0-.12-.287h-2.584a.168.168 0 0 1-.15-.246l1.44-2.781a.167.167 0 0 0-.056-.218c-.435-.287-1.932-1.143-3.214-.267a.175.175 0 0 0-.058.07" fill="#F39C5E"/>
                <path d="M54.956 4.812c-.25 0-.49.035-.72.096A2.827 2.827 0 0 0 51.566 3c-.764 0-1.456.304-1.964.796a2.82 2.82 0 0 0-4.24.361 2.82 2.82 0 0 0-4.952.762 2.826 2.826 0 1 0-.766 5.546h15.312a2.827 2.827 0 0 0 0-5.653" fill="#575756"/>
                <path d="M49.472 10.465H45.23a2.828 2.828 0 0 0 1.903 2.626 15.453 15.453 0 0 0 2.34-2.625" fill="#1E1813"/>
                <path d="M52.746 10.466h-3.273c-.547.779-1.31 1.702-2.34 2.626.288.099.599.153.922.153h1.551l.112-.248a.17.17 0 0 1 .058-.07 2.185 2.185 0 0 1 1.26-.386c.874 0 1.658.458 1.954.652a.17.17 0 0 1 .05.052h1.674l-.003-.003a18.662 18.662 0 0 0-1.965-2.776" fill="#2B2527"/>
                <path d="M51.037 12.542c-.414 0-.848.102-1.26.384a.175.175 0 0 0-.06.07l-.11.25h3.432a.163.163 0 0 0-.05-.053c-.295-.194-1.078-.651-1.952-.651" fill="#3A3D28"/>
                <path d="M63.572 8.088c-.25 0-.49.036-.72.096a2.826 2.826 0 0 0-2.67-1.908c-.764 0-1.456.304-1.964.796a2.818 2.818 0 0 0-4.24.361 2.82 2.82 0 0 0-2.277-1.157 2.826 2.826 0 0 0-2.675 1.92 2.82 2.82 0 0 0-3.593 2.719 2.827 2.827 0 0 0 2.826 2.827h15.313a2.827 2.827 0 0 0 0-5.654" fill="#C6C5C5"/>
            </g>
        </g>
    </g>
</svg>
