<svg width="100" height="100" viewBox="0 0 100 100" xmlns="http://www.w3.org/2000/svg" xmlns:xlink="http://www.w3.org/1999/xlink">
    <defs>
        <path id="yb7cjmctva" d="M0 0h13.04v30.638H0z"/>
    </defs>
    <g fill="none" fill-rule="evenodd">
        <path d="M78.745 41.64s-2.907 1.964-4.77 3.599c-1.863 1.634-7.477 3.658-7.477 3.658l.644 1.62 2.231 1.625 2.278.667s7.851 2.623 8.297 2.945c.446.322.856 2.3 3.043 3.129 2.188.828-1.573 12.856-1.573 12.856s16.328 1.236 17.73-.794c0 0 .465-8.734-1.207-11.273-1.672-2.538-2.074-6.09-2.287-6.916-.213-.827-1.9-10.836-7.706-11.557-5.805-.722-9.203.44-9.203.44" fill="#889ACE"/>
        <path d="m81.422 30.001 2.464-.326s2.866.06 3.628 1.518c.485.9.953 1.475 1.23 2.06.408.959.418 1.64.418 1.64s.168 1.081-.282 2.306c-.451 1.224-1.521 2.592-1.521 2.592l-.672 1.122-9.258-5.185s-.117.852-.748.287c-.604-.567-1.177-1.571-1.152-2.61.019-1.145 1.207-1.809 2.104-1.55A154.35 154.35 0 0 1 81.423 30" fill="#4A4A69"/>
        <path d="M77.928 30.82c-.425-.091-.742.26-.957 1.034 0 0 .717 1.49 2.361 2.641.901.63 2.764 1.68 4.806 2.62 1.545.71 2.334 2.251 3.22 2.676 0 0 1.365 0 .49-1.016-.32-.372-9.92-7.955-9.92-7.955" fill="#6883C1"/>
        <path d="m86.8 41.021-2.26 2.5-2.746 1.465-.129-.68-.529-.314s-1.026.341-1.675.432c-.759.096-1.471.026-1.809-1.155-.134-.456-.393-1.696-.746-2.659-.19-.48-.608-.648-.573-1.004.03-.438.707-.53.822-.918.279-.888-.276-3.039-.085-4.03.021-.111.075-.632.795-.917.08-.032.092.186.205.752.119.676.384 1.534.529 1.69.2.179.735.477 1.256.53.575.05 1.11-.143 1.11-.143s.652.455.797.61c.319.338 1.556.024 2.125-.034.732-.068 1.482-.327 1.85-.074.227.15.613.73.532 1.252-.083.468-.715.884-.588 1.204.104.404 1.118 1.493 1.118 1.493" fill="#FAD8C9"/>
        <path d="M78.722 44.56a.94.94 0 0 1-.392-.072c-.702-.323-1.34-1.995-1.658-2.963-.285-.868-.51-1.87-.511-1.88a.177.177 0 0 1 .013-.117l.507-1.034.362-.645a.178.178 0 0 1 .273-.045c1.195 1.078 3.58 1.55 4.599 1.75.152.03.27.054.349.072.779.183 1.57.756 1.467 1.58-.108.859-1.368 1.843-2.511 2.478-.79.44-1.828.876-2.498.876zm-2.202-4.933c.052.228.249 1.057.489 1.788.495 1.508 1.058 2.562 1.47 2.752.355.164 1.46-.176 2.569-.792 1.341-.745 2.256-1.614 2.332-2.213.081-.648-.672-1.068-1.198-1.192-.074-.017-.19-.04-.336-.069-1.003-.197-3.294-.65-4.6-1.692l-.252.45-.474.968z" fill="#253151"/>
        <path d="M82.223 39.798c-.587-.138-3.42-.483-4.836-1.76 0 0-.976.72-1.054 1.568-.078.848.974 4.257 2.167 4.818 1.193.562 4.874-1.796 5.055-3.24.097-.771-.745-1.248-1.332-1.386" fill="#FEFEFE"/>
        <path d="M76.899 41.816a.177.177 0 0 1-.167-.118c-.06-.169-.58-1.658-.598-2-.047-.367.132-.63.323-.91.037-.055.075-.111.113-.17.07-.109.12-.215.167-.318.088-.189.178-.383.373-.526l-.04-.263c-.089-.592-.19-1.262-.185-2.009.02-.443.126-.879.327-1.34a.177.177 0 1 1 .324.14c-.067.155-.27.627-.297 1.21-.004.712.094 1.368.181 1.946.02.132.04.259.056.38a.177.177 0 0 1-.092.18c-.167.09-.234.233-.326.43-.05.11-.108.233-.19.36-.04.063-.08.121-.119.179-.17.25-.294.432-.263.68.013.231.362 1.295.58 1.913a.177.177 0 0 1-.167.236" fill="#253151"/>
        <path d="M88.309 42.364c1.965.359 3.928 1.752 3.327 3.375-.6 1.622-3.908 7.055-7.742 9.176-3.833 2.12-6.067 2.864-6.923 2.955-.856.092-8.173-4.877-8.173-4.877s.06-1.006 1.664-1.078c1.604-.072 4.226-.395 4.226-.395s.277-.948 1.84-1.003c0 0 3.56-4.649 7.687-6.748 1.297-.66 2.828-1.636 4.094-1.405" fill="#889ACE"/>
        <path d="M86.793 41.09a.177.177 0 0 1-.103-.321c.036-.057.112-.223.18-.372.092-.2.206-.45.332-.689a.177.177 0 0 1 .313.166c-.122.23-.233.474-.323.67-.198.434-.246.537-.39.545h-.009M79.017 44.32s1.835-.624 2.74-1.144c.871-.539 1.235-1.085 1.235-1.085s-.045.687-.335 1.299c-.25.544-.78.993-.78.993s-.363-.524-.798-.465c-.6.073-2.062.401-2.062.401M77.726 36.352a.177.177 0 0 1-.092-.328c.815-.496 1.501-.15 1.53-.134a.177.177 0 0 1-.163.314c-.025-.013-.547-.264-1.183.123a.172.172 0 0 1-.092.025M89.218 33.104a.22.22 0 0 1-.016-.001c-.787-.069-1.124-.649-1.481-1.264-.225-.387-.457-.787-.822-1.114-.873-.805-2.603-1.263-3.99-.64a.177.177 0 1 1-.146-.323c1.363-.612 3.284-.303 4.374.702.405.362.662.806.89 1.197.336.58.602 1.037 1.206 1.09a.177.177 0 0 1-.015.353" fill="#253151"/>
        <path d="M79.99 36.985c-.715 0-1.276-.196-1.67-.96-.13-.259-.215-.639-.305-1.041-.236-1.054-.466-1.855-1.094-1.778a.177.177 0 0 1-.043-.351c.996-.123 1.265 1.082 1.482 2.051.086.38.166.74.275.958.357.693.837.801 1.597.76a.177.177 0 1 1 .02.353 4.467 4.467 0 0 1-.261.008M82.568 37.618c-.243 0-.49-.05-.73-.148-.746-.305-1.339-1.04-1.625-2.018a.177.177 0 0 1 .34-.1c.256.874.773 1.527 1.418 1.79.444.182.911.158 1.317-.068a.177.177 0 1 1 .172.31 1.82 1.82 0 0 1-.892.234" fill="#253151"/>
        <path d="M76.42 35.906a.177.177 0 0 1-.137-.065c-.017-.02-.403-.504-.792-1.534-.199-.57-.166-1.147.092-1.63.263-.491.728-.835 1.344-.994a.177.177 0 0 1 .088.343c-.517.133-.905.416-1.12.819-.21.394-.236.87-.071 1.34.365.967.73 1.429.734 1.433a.177.177 0 0 1-.138.288" fill="#253151"/>
        <path d="M87.593 40.055a1.02 1.02 0 0 1-.138-.01.176.176 0 0 1-.05-.016 1.705 1.705 0 0 1-.143-.076c-.358-.215-.705-.576-1.107-.995-.58-.604-1.237-1.289-2.09-1.682-2.153-.99-3.979-2.037-4.834-2.636-1.663-1.163-2.39-2.646-2.42-2.709a.176.176 0 0 1-.017-.076c0-.566.48-1.235 1.197-1.331a.176.176 0 0 1 .133.037l10.078 8.043c.031.024.053.058.062.097.115.485.056.9-.163 1.14a.665.665 0 0 1-.508.214m-.062-.357c.136.014.237-.017.309-.096.127-.139.161-.427.092-.76l-9.966-7.955c-.47.1-.795.547-.817.927.122.233.842 1.527 2.285 2.536.842.59 2.646 1.623 4.778 2.604.915.421 1.597 1.132 2.199 1.76.383.399.715.745 1.032.935.03.018.06.034.088.049" fill="#253151"/>
        <path d="M78.047 31.136s-.505-1.508 2.428-2.76c2.761-1.179 5.92.192 7.439 2.412 0 0 3.884 2.682 3.306 5.916-.506 2.83-3.28 3.628-4.95 1.335-.857-1.178-2.132-.924-2.132-.924s-6.216-3.655-6.09-5.979" fill="#889ACE"/>
        <g transform="translate(86.46 40.852)">
            <mask id="swyth0s7eb" fill="#fff">
                <use xlink:href="#yb7cjmctva"/>
            </mask>
            <path d="m12.646 30.638-.021-.001a.177.177 0 0 1-.155-.197c.883-7.359-1.147-11.795-2.36-14.446-.465-1.013-.8-1.746-.8-2.289 0-1.732-2.268-8.549-3.794-10.916C4.062.534.209.355.17.354A.178.178 0 0 1 0 .17.18.18 0 0 1 .184 0c.165.007 4.075.187 5.63 2.598 1.586 2.461 3.85 9.294 3.85 11.107 0 .466.322 1.17.767 2.142 1.229 2.685 3.286 7.177 2.39 14.635a.177.177 0 0 1-.175.156" fill="#253151" mask="url(#swyth0s7eb)"/>
        </g>
        <path d="M67.119 48.937a.177.177 0 0 1-.072-.339c1.711-.764 6.269-2.877 6.795-3.476.67-.762 2.92-2.616 3.016-2.695a.177.177 0 0 1 .225.274c-.023.019-2.325 1.914-2.975 2.654-.685.78-6.663 3.453-6.917 3.566a.171.171 0 0 1-.072.016M69.316 52.199a.177.177 0 0 1-.016-.353l5.287-.494c.179-.26.819-1.061 1.895-1.015.419-.267 3.52-2.265 5.608-4.237.699-.66 1.841-1.531 2.353-1.865a.177.177 0 0 1 .193.297 21.285 21.285 0 0 0-2.303 1.825c-2.258 2.133-5.676 4.288-5.71 4.31a.174.174 0 0 1-.107.026c-1.065-.074-1.651.877-1.676.918a.177.177 0 0 1-.135.086l-5.372.5-.017.002M77.678 57.731h-.05a.177.177 0 1 1 .01-.354c.015 0 1.532.028 2.849-.763.244-.146.585-.328.98-.538 1.837-.98 5.256-2.801 7.437-5.666 2.586-3.398 2.632-5.155 2.633-5.172a.177.177 0 0 1 .354.001c0 .074-.031 1.872-2.706 5.385-2.227 2.926-5.691 4.772-7.552 5.764-.39.208-.728.388-.964.53-1.287.772-2.706.813-2.991.813M78.567 44.603c-.026 0-.05 0-.075-.002a.177.177 0 0 1 .008-.353h.008c1.294.057 4.707-1.779 4.872-3.087.081-.648-.671-1.067-1.197-1.19a9.915 9.915 0 0 0-.385-.075c-.984-.18-3.286-.604-4.53-1.726a.177.177 0 1 1 .237-.263c1.17 1.055 3.403 1.466 4.356 1.64.176.033.314.058.403.08.779.183 1.57.755 1.467 1.578-.187 1.49-3.657 3.398-5.164 3.398" fill="#253151"/>
        <path d="M82.437 40.046a.176.176 0 0 1-.143-.28l1.855-2.595a.177.177 0 1 1 .288.206l-1.856 2.596a.176.176 0 0 1-.144.073" fill="#253151"/>
        <path d="M88.57 39.615a2.618 2.618 0 0 1-1.782-.714c-1.027-.959-2.697-1.614-2.714-1.62a.191.191 0 0 1-.034-.019c-.206-.138-5.05-3.407-5.853-4.819-.44-.772-.553-1.49-.334-2.133.27-.797 1.052-1.472 2.32-2.006 2.755-1.158 5.868.084 7.521 1.91.299.33.638.653.998.994 1.453 1.382 3.1 2.948 2.62 5.632-.33 1.846-1.37 2.452-1.962 2.649a2.468 2.468 0 0 1-.78.126m-4.349-2.657c.2.08 1.779.723 2.809 1.684.607.567 1.453.762 2.209.511.891-.297 1.504-1.14 1.725-2.375.446-2.497-1.06-3.929-2.516-5.313-.364-.347-.709-.674-1.016-1.014-1.57-1.733-4.52-2.915-7.122-1.82-1.171.492-1.885 1.096-2.122 1.793-.184.543-.081 1.164.306 1.844.742 1.302 5.417 4.48 5.727 4.69" fill="#253151"/>
        <path d="m84.412 37.28.357 2.517c.59-.17 1.2-.475 1.4-1.331.219-.967-.518-1.962-1.757-1.185" fill="#FAD8C9"/>
        <path d="M81.794 45.163a.176.176 0 0 1-.176-.157l-.01-.088c-.06-.557-.092-.737-.344-.81-.218-.063-.538.054-.908.188-.433.157-.923.335-1.493.338-.822.014-1.357-.433-1.645-1.367-.1-.356-.195-.637-.278-.885a7.616 7.616 0 0 1-.213-.703.177.177 0 1 1 .345-.08c.047.204.12.42.203.67.085.252.181.538.282.898.242.78.647 1.124 1.302 1.113.511-.002.97-.17 1.376-.317.428-.155.798-.29 1.127-.195.493.142.537.549.599 1.112l.009.087a.177.177 0 0 1-.176.196M84.769 39.974a.177.177 0 0 1-.049-.347c.528-.151 1.093-.412 1.276-1.201.103-.454-.03-.904-.332-1.118-.29-.206-.702-.163-1.157.123a.177.177 0 0 1-.189-.3c.789-.495 1.31-.283 1.55-.112.418.296.607.893.473 1.486-.226.975-.933 1.293-1.524 1.462a.168.168 0 0 1-.048.007" fill="#253151"/>
        <path d="M84.973 38.736a.177.177 0 0 1-.162-.247c.005-.012.12-.272.368-.447a.177.177 0 1 1 .203.29.813.813 0 0 0-.246.297.177.177 0 0 1-.163.107M83.398 41.816a.177.177 0 0 1-.12-.307l2.283-2.11a.176.176 0 1 1 .24.26l-2.283 2.11a.175.175 0 0 1-.12.047M78.972 37.703c-.348 0-.647-.096-.892-.29a.177.177 0 1 1 .218-.278c.25.197.588.258 1.003.183a.177.177 0 1 1 .063.348 2.185 2.185 0 0 1-.392.037" fill="#253151"/>
        <path d="M78.352 37.492c.055-.272.19-.055.408-.027.218.027.436-.136.382.136-.055.272-.245.463-.463.436-.245-.028-.381-.273-.327-.545M81.794 45.163a.177.177 0 0 1-.054-.346c3.027-.96 4.406-3.247 4.683-3.76-.207-.236-.727-.885-.944-1.647a.177.177 0 0 1 .34-.096c.244.854.938 1.585.945 1.593.05.052.064.13.033.197-.056.12-1.4 2.925-4.95 4.05a.178.178 0 0 1-.053.009M78.34 49.48a.176.176 0 0 1-.1-.324c1.393-.942 1.859-2.39 1.863-2.405a.177.177 0 0 1 .338.105c-.02.065-.503 1.579-2.002 2.593a.175.175 0 0 1-.099.03M82.257 58.692a.175.175 0 0 1-.089-.025c-1.592-.925-1.758-1.834-1.765-1.872a.177.177 0 0 1 .35-.06c.002.016.17.8 1.593 1.627a.177.177 0 0 1-.09.33M81.418 71.917a.177.177 0 0 1-.165-.24l.46-1.198a.177.177 0 0 1 .33.127l-.46 1.197a.177.177 0 0 1-.165.114" fill="#253151"/>
        <path d="M53.614 40.576s-3.294-2.25-6.295-5.684c0 0-1.95-10.908-1.187-10.852.764.056 2.876 2.075 3.744 3.036.869.96 3.922 4.256 3.922 4.256l-.184 9.244z" fill="#889ACE"/>
        <path d="m23.9 28.14 4.987-2.94s-.758 3.954 3.637 3.82c4.394-.132 6.67-3.659 6.594-5.365 0 0 5.504-.348 7.014.385 1.51.732 1.329 9.964 2.312 12.74.982 2.777 1.14 6.595 1.14 6.595l1.821 8.433-20.664-4.314-2.732-7.277-1.954 10.9-3.097.466s-.887-10.93.942-23.442" fill="#889ACE"/>
        <path d="M28.826 25.748s.769 3.996 5.219 3.175c4.21-.777 5.786-4.264 5.073-5.267-.475-.253-9.524 1.347-10.292 2.092" fill="#FAD8C9"/>
        <path d="M33.064 29.123c-3.39 0-4.398-3.29-4.408-3.326a.176.176 0 1 1 .34-.1c.04.138 1.036 3.373 4.544 3.05 2.822-.26 4.6-2.046 5.265-3.495.293-.64.36-1.226.169-1.494a.177.177 0 1 1 .288-.205c.271.381.22 1.071-.135 1.846-.705 1.536-2.583 3.426-5.554 3.7a5.618 5.618 0 0 1-.51.024" fill="#253151"/>
        <path d="M36.69 14.8c-2.531-1.913-5.37-.708-5.37-.708s-.323.096-.677.11c-.435.018-.981-.014-1.512.334-.585.351-1.092 1.271-1.834 1.792-.742.52-.556 1.058-.755 1.53-.25.554-.34 1.021-.102 1.502.477 1.016 1.762 1.78 1.762 1.78l9.858-.13s.591-.868.301-2.627c-.072-.433.641-.326.039-1.065-.684-.735-1.177-2.131-1.71-2.518" fill="#4A4A69"/>
        <path d="m38.305 25.338-1.023-2.034s1.25-.76 1.047-1.705c-.229-.944-1.343-.871-1.986-.6-1.475.578-1.627-.478-2.616-.683-.963-.206-1.9-1.803-2.79-2.257-1.029-.503-2.017 0-2.807.66-.237.2-.492.62-.56.976-.209.881.103 1.849.106 1.904.215.617.611 1.636.647 1.853.113.758.23 1.625.503 2.296.543 1.285 1.733 2.408 2.59 2.728.416.146.926-.038.926-.038l5.963-3.1z" fill="#FAD8C9"/>
        <path d="M36.85 23.58a.177.177 0 0 1-.046-.347c.725-.197 1.136-.573 1.292-1.185.096-.396-.032-.788-.327-.997-.295-.209-.681-.187-1.059.058a.177.177 0 0 1-.193-.297c.498-.323 1.042-.342 1.456-.05.414.293.597.831.467 1.372-.19.74-.695 1.21-1.544 1.44a.168.168 0 0 1-.046.006" fill="#253151"/>
        <path d="M37.072 22.345a.177.177 0 0 1-.161-.25c.004-.01.123-.269.373-.44a.178.178 0 0 1 .2.293.817.817 0 0 0-.251.294.178.178 0 0 1-.161.103M31.748 28.74c-.116 0-.225-.014-.324-.042-.45-.16-.946-.504-1.369-.95-.844-.855-1.407-1.713-1.583-2.413-.128-.488-.19-.855-.25-1.209-.046-.271-.09-.528-.16-.82-.08-.33-.179-.614-.282-.916-.062-.179-.125-.36-.184-.552l-.004-.01c-.394-1.115-.408-2.062-.042-2.815a.177.177 0 1 1 .318.155c-.323.664-.304 1.52.058 2.542l.006.017c.06.195.121.372.182.548.102.295.208.601.292.948.074.304.118.566.165.844.059.347.12.705.244 1.18.161.642.692 1.442 1.494 2.255.383.403.84.723 1.223.859.694.2 2.313-.685 3.325-1.606.694-.643.887-1.028 1.193-1.709a.177.177 0 0 1 .323.146c-.317.703-.532 1.135-1.277 1.824-.826.752-2.359 1.724-3.348 1.724" fill="#253151"/>
        <path d="M30.645 25.114a.175.175 0 0 1-.102-.032c-.29-.206-.432-.381-.463-.568-.034-.207.081-.365.182-.504.092-.127.179-.246.18-.407.004-.538-.323-1.038-.57-1.367a.177.177 0 0 1 .283-.213c.278.371.646.938.64 1.582-.001.275-.137.462-.246.613-.08.11-.13.18-.12.239.008.046.06.152.32.336a.177.177 0 0 1-.104.321M31.267 20.975a.177.177 0 0 1-.106-.32c.646-.479 1.66-.185 1.703-.172a.177.177 0 0 1-.1.34c-.01-.003-.889-.257-1.392.117a.177.177 0 0 1-.105.035M27.663 21.448a.177.177 0 0 1-.112-.314c.024-.019.585-.458 1.438-.192a.177.177 0 0 1-.106.338c-.666-.208-1.093.117-1.111.13a.177.177 0 0 1-.11.038M29.003 23.068c-.262 0-.446-.09-.459-.097a.177.177 0 1 1 .16-.316.772.772 0 0 0 .744-.081.177.177 0 1 1 .197.294c-.231.154-.456.2-.642.2M38.002 21.108a.176.176 0 0 1-.16-.25c.005-.013.545-1.217.23-2.623a.177.177 0 1 1 .345-.077c.343 1.526-.23 2.794-.254 2.847a.177.177 0 0 1-.16.103M38.82 17.75l-.027-.001c-.701-.104-1.024-.775-1.366-1.484-.291-.606-.593-1.232-1.148-1.605-1.329-.884-3.878-1.162-5.17-.195a.177.177 0 0 1-.213-.283c1.429-1.069 4.124-.784 5.58.183.635.427.972 1.128 1.27 1.746.313.65.583 1.211 1.099 1.288a.177.177 0 0 1-.026.352M26.65 16.695a.177.177 0 0 1-.013-.354c.654-.05.775-.22 1.224-.852l.1-.142c.529-.74.912-1.195 2.079-1.243a.177.177 0 0 1 .014.354c-.962.039-1.26.331-1.805 1.095l-.1.14c-.47.664-.666.94-1.485 1.001h-.014M27.365 20.834a.178.178 0 0 1-.125-.05c-1.306-1.29-1.682-2.139-.46-3.757a.177.177 0 1 1 .282.213c-1.124 1.488-.733 2.146.427 3.291a.177.177 0 0 1-.124.303M34.142 20.508a2.182 2.182 0 0 1-1.761-.88c-.814-1.081-1.777-2.1-2.74-1.473a.177.177 0 1 1-.193-.296c1.37-.893 2.663.822 3.216 1.555.313.415.767.674 1.277.729a1.86 1.86 0 0 0 1.395-.413.177.177 0 1 1 .231.268c-.379.327-.898.51-1.425.51" fill="#253151"/>
        <path d="M28.443 18.556a.176.176 0 0 1-.16-.1.659.659 0 0 0-.388-.353c-.161-.048-.336-.017-.518.093a.177.177 0 0 1-.183-.303c.337-.204.623-.182.803-.129.258.078.48.274.606.539a.177.177 0 0 1-.16.253M32.082 22.527c-.1 0-.205-.007-.314-.023a.177.177 0 1 1 .049-.35c.418.058.752-.017.994-.224a.177.177 0 0 1 .23.27c-.255.218-.577.327-.959.327" fill="#253151"/>
        <path d="M32.772 22.29c-.066-.27-.193-.047-.41-.011-.216.036-.44-.118-.375.151.066.27.264.453.48.417.244-.037.37-.288.305-.558M29.469 22.806c-.066-.27-.055.002-.243.064s-.55-.114-.457.155c.066.27.29.451.48.39.186-.09.285-.34.22-.61M35.376 21.25c-.493 0-.805-.282-.822-.298a.177.177 0 1 1 .24-.26.95.95 0 0 0 .943.136.177.177 0 1 1 .122.332 1.4 1.4 0 0 1-.483.09M29.384 16.91a.177.177 0 0 1-.17-.224c.012-.045.31-1.123.902-1.45a.177.177 0 0 1 .17.31c-.382.212-.658.962-.731 1.233a.177.177 0 0 1-.17.131" fill="#253151"/>
        <path d="M35.452 26.4c.648-1.037.08-1.939 0-2.732-.08-.793-.54-1.484-1.67-.61s-3.164.545-3.164.545c-1.174 1.275-2.319.54-2.319.54-.57.337.527 3.935 2.703 4.76 1.684.638 3.802-1.466 4.45-2.503" fill="#FEFEFE"/>
        <path d="M31.678 29.201a2.07 2.07 0 0 1-.738-.133c-1.782-.675-2.857-3.115-2.959-4.29-.035-.413.041-.678.228-.788a.176.176 0 0 1 .186.003c.041.026 1.04.634 2.093-.51.04-.043.1-.064.159-.054.02.003 1.971.305 3.026-.511.526-.407.974-.535 1.333-.381.343.147.564.542.622 1.113.02.2.075.412.133.637.166.649.355 1.384-.159 2.207-.51.816-2.241 2.707-3.924 2.707m-3.326-4.834c-.02.066-.035.184-.018.38.095 1.097 1.088 3.367 2.731 3.99 1.566.594 3.637-1.47 4.237-2.43.434-.695.272-1.324.116-1.932a4.71 4.71 0 0 1-.142-.689c-.044-.43-.193-.731-.41-.824-.228-.098-.566.018-.976.335-1.049.812-2.78.65-3.206.594-.987 1.014-1.967.735-2.332.576" fill="#253151"/>
        <path d="M35.101 22.983a.177.177 0 0 1-.146-.277l1.242-1.807a.177.177 0 1 1 .292.2l-1.242 1.807a.176.176 0 0 1-.146.077M35.788 25.07a.176.176 0 0 1-.128-.299l1.283-1.359a.177.177 0 0 1 .258.243l-1.284 1.36a.178.178 0 0 1-.129.055M25.276 27.39a.177.177 0 0 1-.1-.323c.044-.03 1.108-.754 2.964-1.613a.177.177 0 1 1 .148.321c-1.826.845-2.902 1.576-2.912 1.584a.178.178 0 0 1-.1.03M52.372 30.07c-.05 0-.1-.02-.135-.061-.027-.031-2.64-3.087-4.51-4.931-1.82-1.794-9.825-1.252-9.906-1.246a.177.177 0 1 1-.025-.353c.336-.024 8.246-.558 10.179 1.347 1.882 1.854 4.505 4.922 4.531 4.953a.177.177 0 0 1-.134.292M52.371 39.7a.175.175 0 0 1-.09-.025c-2.995-1.756-6.889-6.6-7.053-6.806a.177.177 0 0 1 .276-.221c.04.05 4.017 4.998 6.957 6.722a.177.177 0 0 1-.09.33" fill="#253151"/>
        <path d="M49.123 40.394a.177.177 0 0 1-.175-.152c-.005-.033-.484-3.36-1.332-4.642a.177.177 0 1 1 .296-.194c.891 1.347 1.367 4.647 1.387 4.786a.177.177 0 0 1-.176.202M38.002 24.687a.177.177 0 0 1-.168-.122c-.288-.88-.525-1.29-.527-1.294a.177.177 0 0 1 .305-.18c.01.018.257.441.559 1.364a.177.177 0 0 1-.169.232M39.907 46.175a.177.177 0 0 1-.148-.08c-2.818-4.298-4.75-15.149-4.832-15.608a.177.177 0 1 1 .349-.062c.02.112 2.001 11.24 4.779 15.476a.177.177 0 0 1-.148.274M27.24 44.45h-.026a.176.176 0 0 1-.15-.201l.643-4.502a.177.177 0 0 1 .35.05l-.643 4.502a.177.177 0 0 1-.175.152" fill="#253151"/>
        <path d="M30.411 45.885a.177.177 0 0 1-.146-.077c-1.78-2.578-2.736-7.025-2.776-7.213a.177.177 0 1 1 .346-.074c.01.046.981 4.567 2.722 7.087a.177.177 0 0 1-.146.277" fill="#253151"/>
        <path fill="#49B170" d="m41.756 70.455-3.244 15.69h35.463l-3.244-15.69z"/>
        <g>
            <path d="m64.956 59.711-.189-1.035 17.145 3.208-2.601 2.512-3.913-.077s-1.593-2.12-3.392-2.28c-1.798-.16-6.244-1.609-7.05-2.328" fill="#FAD8C9"/>
            <path d="M75.681 64.739a.177.177 0 0 1-.11-.038 6.477 6.477 0 0 1-1.187-1.261c-.187-.142-1.824-1.325-5.266-1.828-1.22-.179-2.407-.84-3.36-1.371-.535-.298-.998-.556-1.346-.663a.177.177 0 0 1 .104-.338c.384.118.861.384 1.414.692.928.517 2.083 1.16 3.24 1.33 3.755.55 5.389 1.863 5.457 1.918.013.011.024.024.033.038.005.006.466.678 1.13 1.205a.177.177 0 0 1-.109.316" fill="#253151"/>
            <path d="M67.142 50.517s10.16 7.077 11.108 7.353c.948.277 3.202.875 4.007.645.51-.146 5.161-2.869 6.086-3.145.925-.276 1.558-2.36 2.272-2.47.897-.137 1.374 1.427.8 1.98l-.576.551s1.036-.758 1.242-.023c.208.737-1.012 1.151-1.012 1.151s.83-.46 1.036.184c.207.644-1.358 1.15-1.358 1.15s1.216-.322 1.15.3c-.065.62-1.495.782-1.495.782s.782-.138.782.322-1.863 1.518-3.06 1.748c-1.196.23-3.68 1.933-4.049 2.324-.368.391-1.22 1.266-2.669 1.22-1.45-.047-2.715-1.91-2.715-1.91s-2.438-1.91-5.89-1.933c-3.45-.023-6.303-1.771-6.303-1.771l.644-8.458z" fill="#FAD8C9"/>
            <path d="M23.377 44.274s-.42-2.211 1.034-1.888c1.026.228 2.544.485 2.828 1.888.285 1.403-3.862 0-3.862 0" fill="#1D1D1B"/>
            <path d="M81.516 64.767c-.038 0-.076 0-.115-.002-1.447-.046-2.674-1.727-2.84-1.962-.24-.18-2.577-1.858-5.76-1.88-3.461-.023-6.277-1.725-6.396-1.797a.177.177 0 0 1 .185-.302c.028.017 2.854 1.723 6.213 1.745 3.471.024 5.896 1.891 5.998 1.97a.171.171 0 0 1 .037.04c.012.018 1.232 1.79 2.574 1.833 1.4.043 2.223-.834 2.534-1.164.42-.445 2.917-2.14 4.145-2.376 1.282-.247 2.907-1.295 2.916-1.576 0-.053-.018-.075-.037-.091-.084-.071-.289-.082-.448-.067l-.1.013a.177.177 0 0 1-.05-.35c.012-.003.05-.01.103-.014.445-.066 1.211-.276 1.247-.613.008-.08-.02-.104-.033-.116-.14-.12-.617-.067-.897.007a.177.177 0 0 1-.1-.34c.438-.142 1.359-.573 1.245-.928-.044-.136-.113-.177-.162-.197-.112-.044-.263-.02-.393.02a2.533 2.533 0 0 1-.256.107.177.177 0 0 1-.142-.323c.022-.012.121-.065.256-.11.302-.147.78-.447.671-.838-.036-.13-.096-.163-.138-.178-.208-.073-.62.143-.83.296a.177.177 0 0 1-.226-.27l.575-.552c.244-.235.265-.765.046-1.207-.08-.16-.303-.53-.696-.47-.264.041-.584.544-.893 1.029-.4.626-.812 1.274-1.355 1.436-.508.151-2.282 1.123-3.708 1.904-1.328.727-2.153 1.176-2.38 1.24-.862.248-3.158-.368-4.105-.644-.965-.28-10.744-7.088-11.16-7.378a.177.177 0 1 1 .202-.29c2.82 1.963 10.302 7.109 11.057 7.328 1.475.43 3.276.825 3.908.645.201-.058 1.272-.645 2.308-1.212 1.515-.83 3.233-1.77 3.777-1.932.416-.125.81-.742 1.157-1.287.384-.603.715-1.123 1.138-1.188.43-.066.83.181 1.068.662.226.458.278 1.12-.035 1.525a.683.683 0 0 1 .267.03c.125.043.289.15.364.418.109.387-.08.692-.334.916a.632.632 0 0 1 .356.412c.13.405-.214.74-.604.979.095.024.18.063.25.121a.462.462 0 0 1 .154.422c-.04.385-.441.618-.84.757a.462.462 0 0 1 .127.329c0 .635-2.083 1.707-3.203 1.922-1.167.225-3.634 1.932-3.954 2.271-.333.353-1.202 1.277-2.688 1.277" fill="#253151"/>
            <path d="M28.686 68.684s-3.102-5.721 3.945-5.052c5.505.524 47.532.764 49.626.764 2.094 0 4.73-.279 4.377.925-.354 1.203-2.27 2.396-2.27 2.396l-55.678.967z" fill="#49B170"/>
            <path d="M3.274 33.813s2.547-1.052 3.804-.69c1.258.36 19.876 28.447 20.736 31.015.86 2.567-1.874 3.58-1.874 3.58L3.274 33.812z" fill="#49B170"/>
            <path d="M85.847 70.455s-57.999 1.358-59.91 0C24.024 69.098.79 33.943.79 33.943c-.713-1.269 2.024-3.755 3.129-2.01l23.956 34.312h57.972c1.202.184 1.265 4.21 0 4.21" fill="#49B170"/>
            <path d="M42.53 70.958c-9.077 0-16.114-.085-16.668-.342-1.613-.75-24.257-35.113-25.22-36.576-.46-.819.269-2.006 1.207-2.566.89-.531 1.74-.392 2.22.364l23.899 34.23h57.879c.009 0 .017 0 .026.002.868.133 1.144 1.705 1.062 2.779-.085 1.116-.491 1.782-1.087 1.783-1.569.02-26.108.326-43.317.326M2.889 31.508c-.348 0-.675.16-.858.27-.797.475-1.431 1.465-1.087 2.078C10.397 48.21 24.88 69.77 26.01 70.295c1.27.59 43.622.188 59.833-.017h.003c.46 0 .684-.784.735-1.456.09-1.194-.259-2.308-.75-2.4H27.875a.178.178 0 0 1-.145-.076L3.773 32.034c-.252-.4-.576-.525-.884-.525" fill="#253151"/>
            <path d="M17.701 30.182s-.897-1.522-2.272-1.438c-1.375.084-1.927 1.605-1.927 1.605s-.94 2.475.756 4.32c1.697 1.843 2.709-2.714 2.709-2.714l.734-1.773z" fill="#4A4A69"/>
            <path d="M26.308 27.584s-1.76-.954-3.648-.964c-1.888-.01-1.21.062-1.21.062s-2.04.048-3.627 2.238c-1.594 2.198-1.193 2.121-1.193 2.121l-.548 1.803s-.242 1.234.35 2.612c.35.83.452.65.95 1.36.33.501 1.334 1.101 1.334 1.101s8.262-.706 9.166 1.855c.399 1.138 1.363.83 1.363.83s-.471-.46-.311-.937c.276-.792 1.228-1.758 1.33-1.939.524-1.066.241-3.287.241-3.287s.296-1.228.225-2.111c-.113-1.245-.486-2.626-1.265-3.284-.603-.503-.854-.2-1.664-.561-.81-.36-1.493-.899-1.493-.899" fill="#4A4A69"/>
            <path d="M28.46 35.891c-.232-.901.456-2.47.317-3.471-.034-.195-.084-1.268-.504-1.696-.32-.336-.996-.161-1.178.01-.393.342-1.548 2.19-1.548 2.19s-.894 1.192-1.323 1.365c-.574.24-.835.376-1.547.382-.712.006-1.328-.388-1.328-.388s-1.37-.502-1.721.227c-.278.545.356 1.79.356 1.79s-.229.605-.781 1.423c-.228.331-.369.371-.369.371l-.49 3.531s-.524.33-1.185 1.383c-.82 1.281-1.306 2.2-2.13 3.508-1.123 1.796 10.183 5.949 10.183 5.949s-.45-1.417-.806-2.961c-.11-.505.035-1.092-.124-1.656-.33-1.268-1.038-2.329-.906-3.574.142-1.327.273-1.778.273-1.778l.413-1.051.559-.105s.752.135 1.423.262c.752.135 1.432.18 1.827-.955.157-.449.515-1.752.914-2.668.215-.47.641-.616.625-.974-.008-.439-.827-.718-.95-1.114" fill="#FAD8C9"/>
            <path d="M23.383 43.282a.177.177 0 0 1-.168-.233c.086-.26.541-1.562 1.015-1.672.368-.087.733-.034 1.194.033.3.043.64.092 1.057.115.579.02.837-.23 1.16-1.11.215-.57.298-.93.404-1.386l.075-.322a.177.177 0 1 1 .344.083c-.027.112-.051.217-.074.32-.105.449-.195.837-.417 1.428-.327.89-.668 1.368-1.507 1.34-.437-.023-.786-.073-1.093-.118-.44-.064-.759-.11-1.063-.039-.156.037-.525.737-.76 1.44a.177.177 0 0 1-.167.121" fill="#253151"/>
            <path d="M28.293 38.925a.177.177 0 0 1-.174-.212c.005-.025.127-.629.34-.936.069-.117.179-.229.286-.336.143-.146.278-.283.293-.42.026-.145-.05-.213-.275-.372a2.245 2.245 0 0 1-.342-.28c-.11-.135-.364-.452-.253-1.201l.08-.395c.113-.558.243-1.191.276-1.904.008-.242.034-.986-.309-1.761a.177.177 0 1 1 .324-.144c.253.572.363 1.2.338 1.92-.034.742-.166 1.389-.283 1.96l-.077.383c-.086.578.08.796.174.913.083.084.18.153.276.22.228.162.487.345.421.71-.026.25-.22.446-.392.62a1.592 1.592 0 0 0-.24.278c-.148.215-.26.66-.29.815a.177.177 0 0 1-.173.142M18.55 41.168l-.025-.001a.177.177 0 0 1-.151-.2c.056-.423.078-.816.1-1.232.028-.517.058-1.05.158-1.672a.177.177 0 1 1 .35.056c-.098.603-.126 1.128-.154 1.636-.023.423-.045.822-.104 1.26a.177.177 0 0 1-.175.153M20.891 36.957a.171.171 0 0 1-.057-.01c-.833-.284-1.305-.787-1.446-1.535-.096-.551.085-1.062.47-1.336.412-.293.987-.274 1.577.052a.177.177 0 1 1-.171.31c-.466-.258-.904-.285-1.2-.074-.274.195-.4.572-.328.985.116.618.502 1.02 1.212 1.264a.177.177 0 0 1-.057.344" fill="#253151"/>
            <path d="M20.726 35.68a.177.177 0 0 1-.165-.115c-.001 0-.073-.185-.231-.31a.177.177 0 0 1 .218-.278c.239.188.34.453.344.464a.177.177 0 0 1-.166.24" fill="#253151"/>
            <path d="M24.864 38.973c.057-.402.933-.634 1.686-.42.852.243 1.166.878.881 1.188-.285.311-.605-.145-1.238-.274-.634-.13-1.416.117-1.33-.494" fill="#D14357"/>
            <path d="M26.456 41.591s-1.908-.34-2.853-.715c-.943-.402-1.357-.884-1.357-.884s.147.672.525 1.233c.33.5.924.838.924.838s.28-.573.719-.58c.547.003 2.042.108 2.042.108M23.015 34.867a2.08 2.08 0 0 1-.86-.192.177.177 0 1 1 .146-.323c1.155.52 2.35-.214 3.549-2.183l.017-.028c.702-1.128 1.256-2.018 1.941-2.129.302-.049.6.053.908.31a.177.177 0 1 1-.227.271c-.225-.187-.43-.263-.624-.232-.527.085-1.07.957-1.697 1.966l-.017.027c-1.012 1.661-2.081 2.513-3.136 2.513M18.765 38.098a.64.64 0 0 1-.357-.11c-1.51-1.018-2.413-2.423-2.546-3.956-.125-1.372 1.04-5.418 3.262-6.41a.177.177 0 1 1 .144.323c-2.002.894-3.176 4.711-3.053 6.056.123 1.426.972 2.737 2.39 3.692a.281.281 0 0 0 .249.037c.437-.128.915-1.021 1.062-1.354a.177.177 0 0 1 .324.142c-.06.139-.615 1.355-1.286 1.552a.674.674 0 0 1-.19.028M29.371 40.875a.18.18 0 0 1-.073-.016c-.02-.01-.47-.22-.569-.747-.103-.55.212-1.207.938-1.957.668-.701.762-1.88.722-2.744-.083-1.787-.79-3.685-1.368-4.188a.177.177 0 1 1 .233-.267c.712.621 1.407 2.695 1.488 4.439.043.933-.064 2.212-.82 3.005-.633.654-.925 1.223-.845 1.646.065.344.365.49.368.49a.177.177 0 0 1-.074.339M26.906 28.318a.176.176 0 0 1-.12-.047c-.94-.863-3.77-2.074-6.048-.966a.177.177 0 1 1-.155-.319c2.43-1.18 5.442.107 6.443 1.024a.178.178 0 0 1-.12.308" fill="#253151"/>
            <path d="M30.649 33.016h-.009a.177.177 0 0 1-.169-.185c.078-1.62-.525-3.27-1.402-3.837-.412-.267-.86-.28-1.331-.04a.177.177 0 0 1-.16-.316c.583-.296 1.165-.276 1.683.059.99.64 1.648 2.386 1.564 4.15a.177.177 0 0 1-.176.169M15.118 35.143c-.69 0-1.521-.55-1.718-1.425a.177.177 0 0 1 .346-.078c.163.723.886 1.183 1.434 1.147.226-.016.502-.125.538-.556a.177.177 0 0 1 .353.03c-.043.516-.367.844-.866.879a1.337 1.337 0 0 1-.087.003M14.934 33.509c-.033 0-.067-.002-.1-.004-.523-.042-.963-.39-1.148-.908a.177.177 0 1 1 .333-.12c.138.386.46.645.842.675.352.027.672-.154.854-.486a.177.177 0 0 1 .31.17c-.233.427-.636.673-1.09.673M16.487 31.36a.177.177 0 0 1-.166-.113c-.356-.936-1.471-1.911-1.804-2.188a.177.177 0 1 1 .225-.272c.35.29 1.523 1.317 1.91 2.334a.177.177 0 0 1-.165.24" fill="#253151"/>
            <path d="M13.328 33.3a.176.176 0 0 1-.163-.108c-.3-.701-.065-1.686.535-2.242.45-.428 1.46-.304 2.16.267a.177.177 0 0 1-.224.275c-.603-.493-1.406-.557-1.694-.284-.499.463-.697 1.272-.452 1.845a.177.177 0 0 1-.162.246M13.866 30.207a.177.177 0 0 1-.172-.14 1.046 1.046 0 0 1 .196-.847c.197-.262.622-.588 1.526-.653.632-.045 1.34.167 1.683.503.177.173.208.336.203.442a.179.179 0 0 1-.186.168.177.177 0 0 1-.168-.186c.003-.047-.032-.107-.096-.17-.236-.231-.829-.444-1.41-.404-.772.055-1.116.31-1.269.513a.69.69 0 0 0-.134.56.177.177 0 0 1-.173.214" fill="#253151"/>
            <path d="M13.401 31.804a.177.177 0 0 1-.17-.132c-.285-1.06.094-1.516.462-1.713.764-.408 2.128.01 2.667.626a.177.177 0 0 1-.267.234c-.434-.496-1.64-.864-2.234-.547-.37.198-.467.638-.287 1.309a.177.177 0 0 1-.171.223" fill="#253151"/>
            <path d="m49.15 69.88-2.415-3.405s1.439-.092 1.8.092c.362.184 1.42.782 1.743.46.322-.322-1.527-1.52-1.772-1.587-.667-.184-1.932-.837-2.485-1.044-.552-.207-1.955-.613-3.588-.613-1.634 0-7.823-2.945-8.214-3.175-.391-.23-4.095-2.093-4.095-2.093l-2.249-2.194-4.918 2.704s1.628 1.958 3.049 3.102c1.87 1.506 14.839 4.624 14.839 4.624s1.656 2.761 2.14 3.382c.483.621 2.231 1.473 2.876 1.081l.015-.085a.83.83 0 0 0 .283.062c.484.004.829-.253.829-.253s.14-.102.299-.045c.212.075.792.115 1.215.004.464.156 1.73-.097 2.144-.442.414-.345-1.496-.575-1.496-.575" fill="#FAD8C9"/>
            <path d="M17.681 39.325a.177.177 0 0 1-.019-.353c.691-.075.822-.801.845-1.022a.177.177 0 0 1 .352.037c-.08.756-.525 1.269-1.159 1.337a.168.168 0 0 1-.019.001" fill="#253151"/>
            <path d="m41.899 46.875 2.383-1.666s-1.448-.745-1.356-1.663c.093-.919.419-1.865.797-1.786.377.078.872.57.872.57s.935-.845 1.319-.831c.384.013.667-1.4 1.319-1.133.652.267 1.791-.217 2.274.059.923.526 3.121 1.683 2.195 2.14h1.118l-.172 3.851s-.901.691-2.766 1.209c-1.593.441-2.649.577-2.649.577l-2.109 2.881-3.225-4.208z" fill="#FAD8C9"/>
            <path d="M27.217 40.024c-.164 0-.331-.084-.486-.162-.163-.082-.348-.176-.574-.222-.176-.036-.368-.04-.555-.045-.332-.008-.645-.015-.815-.215-.09-.108-.124-.253-.098-.431.022-.16.125-.303.296-.415.385-.25 1.048-.312 1.613-.15.558.158.974.501 1.085.894a.602.602 0 0 1-.121.583.453.453 0 0 1-.345.163zm-1.263-1.375c-.325 0-.613.076-.776.182-.082.053-.131.112-.139.167-.007.051-.01.12.019.153.066.079.325.085.552.09.193.005.411.01.618.052.272.056.489.165.663.253.299.151.342.15.41.076.07-.077.061-.177.041-.248-.058-.206-.313-.5-.84-.65a2.011 2.011 0 0 0-.548-.075zM27.814 34.69a.177.177 0 0 1-.167-.119c-.124-.353-.273-.334-.571-.296-.285.036-.673.085-.95-.37a.177.177 0 0 1 .303-.183c.15.247.31.239.602.202.309-.04.732-.093.95.53a.177.177 0 0 1-.167.236M24.356 36.658a.519.519 0 0 1-.506-.578c.016-.248.15-.486.229-.628l.016-.03a.177.177 0 1 1 .31.17l-.018.032c-.064.117-.173.31-.184.484-.01.112.052.17.11.189.073.023.144-.015.194-.105.143-.256.122-.936.088-1.083a.177.177 0 0 1 .235-.246c.072.039.094.11.1.133.049.163.102.983-.114 1.37a.53.53 0 0 1-.46.292zM27.57 35.799a.175.175 0 0 1-.105-.035c-.306-.226-.76-.235-1.083-.166a.177.177 0 1 1-.073-.346c.135-.029.5-.088.88.005a.756.756 0 0 0-.17-.148.177.177 0 1 1 .188-.3c.426.268.533.756.537.777a.177.177 0 0 1-.173.213" fill="#253151"/>
            <path d="M52.371 48.007c-2.252.494-4.542 1.514-6.856 2.87 0 0-.865-3.282-5.608-4.879-4.998-1.683-8.518.116-8.518.116s.08-1.448-1.728-2.042c-1.979-.65-6.278-.967-6.278-.967-4.211-.04-5.039-1.48-5.039-1.48s-2.76 3.384-3.52 5.524c-.76 2.14 7.247 12.26 7.247 12.26s4.59-1.182 6.281-3.494l-.477.406 2.249 2.194 11.41 5.118 2.509.414 3.204.972 5.124-.623.277-3.65-.277-12.739z" fill="#FEFEFE"/>
            <path d="M22.071 59.586a.178.178 0 0 1-.139-.067c-.825-1.044-8.045-10.26-7.275-12.429.76-2.144 3.436-5.438 3.55-5.577a.176.176 0 0 1 .29.024c.008.012.865 1.352 4.887 1.391.188.014 4.356.326 6.332.976 1.426.468 1.755 1.461 1.829 1.944.878-.372 4.081-1.478 8.418-.017 4.108 1.383 5.356 3.981 5.648 4.77 1.837-1.185 4.628-2.577 6.744-2.77a.177.177 0 0 1 .032.353c-2.126.193-4.978 1.65-6.774 2.84a.177.177 0 0 1-.269-.102c-.008-.032-.906-3.211-5.494-4.756-4.861-1.637-8.346.088-8.38.105a.176.176 0 0 1-.258-.167c.003-.053.043-1.323-1.606-1.864-1.935-.636-6.194-.955-6.237-.958-3.371-.032-4.63-.961-5.024-1.375-.564.71-2.71 3.486-3.354 5.301-.591 1.666 4.916 9.17 7.163 12.02 1.05-.088 4.488-1.732 5.975-3.33l-5.378-8.238a.177.177 0 0 1 .297-.194l5.452 8.352a.178.178 0 0 1-.015.214c-1.47 1.671-5.271 3.554-6.414 3.554" fill="#253151"/>
            <path d="M45.437 71.487c-.878 0-2.185-.72-2.592-1.245-.449-.577-1.856-2.908-2.114-3.336-1.119-.266-12.41-2.966-13.926-3.976-1.248-.83-3.857-3.483-3.967-3.595a.177.177 0 1 1 .252-.248c.027.027 2.694 2.738 3.91 3.549 1.51 1.005 13.762 3.914 13.886 3.943.046.01.086.04.11.081.017.028 1.657 2.759 2.128 3.365.439.563 2.109 1.363 2.645 1.038a.177.177 0 1 1 .183.303.988.988 0 0 1-.515.121" fill="#253151"/>
            <path d="M46.169 71.369h-.01c-.749-.006-2.092-1.371-2.243-1.527a.178.178 0 0 1 .254-.246c.53.547 1.539 1.415 1.99 1.418h.009c.41 0 .71-.216.714-.218a.177.177 0 0 1 .21.284 1.67 1.67 0 0 1-.924.289" fill="#253151"/>
            <path d="M48.114 71.242c-.374 0-.707-.119-.887-.183-.338-.12-1.929-1.545-2.244-1.83a.176.176 0 1 1 .237-.263c.903.814 1.946 1.695 2.126 1.76.24.086.802.286 1.266.051a.177.177 0 0 1 .16.316c-.219.11-.445.15-.658.15M28.743 60.578a.177.177 0 0 1-.11-.315c.674-.544 1.327-1.816 1.333-1.829a.177.177 0 0 1 .315.16c-.027.056-.692 1.353-1.427 1.945a.177.177 0 0 1-.11.04M29.433 47.671a.177.177 0 0 1-.135-.291c.035-.041.866-1.007 2.03-1.432a.177.177 0 1 1 .122.332c-1.074.392-1.874 1.32-1.882 1.33a.177.177 0 0 1-.135.061M27.24 43.723a.176.176 0 0 1-.115-.042c-.01-.008-.937-.79-1.715-.985-.784-.196-1.482-.117-1.489-.116a.177.177 0 0 1-.042-.352c.031-.004.767-.088 1.617.125.859.215 1.817 1.024 1.858 1.058a.177.177 0 0 1-.115.312M48.086 65.024c-.446 0-.863-.02-1.214-.07a.177.177 0 0 1 .049-.35c1.827.254 5.083-.273 5.34-.476.168-.196.24-1.907.21-3.378a.177.177 0 0 1 .173-.18h.003c.097 0 .175.076.177.172.022 1.002.03 3.364-.342 3.663-.347.277-2.607.62-4.396.62M73.975 86.323a.177.177 0 0 1-.173-.141l-3.21-15.528a.176.176 0 1 1 .346-.072l3.21 15.528a.177.177 0 0 1-.173.213M38.513 86.323a.177.177 0 0 1-.173-.213l3.142-15.201a.177.177 0 0 1 .347.071l-3.143 15.202a.177.177 0 0 1-.173.141M15.781 45.416a.177.177 0 0 1-.147-.08c-.066-.098-6.627-9.925-7.895-11.465-1.17-1.42-2.643-.389-2.705-.344a.177.177 0 0 1-.206-.288c.018-.013 1.807-1.265 3.184.407 1.28 1.554 7.646 11.09 7.916 11.494a.177.177 0 0 1-.147.276M27.875 66.422a.177.177 0 0 1-.176-.2c.024-.183.054-.357.09-.522a3.91 3.91 0 0 0-.694-2.635.177.177 0 1 1 .289-.204c.468.661.671 1.328.746 1.896.176-.32.397-.568.665-.742a1.778 1.778 0 0 1 1.389-.226.177.177 0 0 1-.101.34c-.007-.003-.573-.16-1.1.185-.397.261-.678.735-.837 1.413a3.18 3.18 0 0 1-.101.57.177.177 0 0 1-.17.125M85.847 66.422a.177.177 0 0 1 0-.354c.378 0 .613-.43.613-.829 0-.156-.045-.666-.613-.666H67.119a.177.177 0 0 1 0-.354h18.728c.668 0 .966.513.966 1.02 0 .582-.361 1.183-.966 1.183M48.553 45.527a.429.429 0 0 1-.135-.023c-.148-.048-.654-.306-.967-1.592-.23-.945-.247-1.434-.236-1.644l-.429-.286a.177.177 0 0 1 .196-.295l.518.345c.06.04.09.114.075.185 0 .001-.07.415.22 1.612.25 1.026.623 1.304.735 1.34.172-.442.197-3.15.023-3.448-.364-.56-.886-1.15-1.178-1.195-.233-.038-.694.45-.933.79a.177.177 0 0 1-.29-.205c.121-.17.745-1.017 1.277-.936.558.087 1.228 1.058 1.42 1.353.237.365.262 3.63-.09 3.928a.315.315 0 0 1-.206.07" fill="#253151"/>
            <path d="M49.213 45.386c-.2 0-.39-.12-.487-.214a.177.177 0 0 1 .244-.256c.001.001.203.185.318.085.14-.196.272-1.86.315-2.407a8.48 8.48 0 0 1 .04-.444c.057-.343.002-1.47-.208-1.564-.578-.257-1.458.199-1.468.204a.177.177 0 0 1-.164-.314c.042-.022 1.04-.54 1.776-.213.56.248.416 1.929.413 1.946-.006.038-.02.22-.036.413-.147 1.847-.253 2.49-.437 2.648a.459.459 0 0 1-.306.116" fill="#253151"/>
            <path d="M49.933 45.002c-.278 0-.47-.345-.507-.414a.177.177 0 0 1 .315-.163c.04.076.103.157.15.198.074-.125.225-.485.524-1.492l.039-.13c.192-.624.313-1.422.157-1.671-.14-.223-.666-.425-.965-.5a.177.177 0 0 1 .085-.344c.094.024.92.24 1.18.657.31.495-.045 1.722-.119 1.963l-.038.126c-.474 1.596-.62 1.77-.821 1.77" fill="#253151"/>
            <path d="M50.634 44.592a.3.3 0 0 1-.201-.076c-.21-.184-.19-.67-.17-.87a.177.177 0 0 1 .352.032c-.02.215-.002.46.037.547.17-.126.483-.9.604-1.2.058-.143.109-.268.149-.357.164-.36.172-.998-.045-1.181-.218-.185-.54-.084-.544-.082a.178.178 0 0 1-.223-.114.177.177 0 0 1 .112-.223c.02-.007.513-.165.884.148.387.328.342 1.152.138 1.599-.038.085-.087.205-.143.343-.32.79-.57 1.357-.876 1.426a.323.323 0 0 1-.074.008M46.775 45.045c-.232 0-.522-.083-.852-.302-.564-.377-1.398-.79-1.407-.794a.177.177 0 0 1-.036-.294c.035-.03.853-.72 1.617-.592.795.133 1.227 1.077 1.29 1.304a.492.492 0 0 1-.183.553.721.721 0 0 1-.43.125m-1.843-1.282c.298.155.798.424 1.189.685.405.27.738.286.875.186.057-.04.074-.096.052-.17-.04-.144-.4-.95-1.009-1.051-.396-.067-.846.176-1.107.35" fill="#253151"/>
            <path d="M44.375 43.552a1.54 1.54 0 0 1-.876-.287c-.117-.087-.26-.227-.276-.4-.012-.125-.017-.176.948-.757a26 26 0 0 1 1.114-.64c.345-.177.957-.137 1.025-.132.098.007.171.092.164.19a.176.176 0 0 1-.19.163c-.159-.012-.62-.018-.838.094-.344.175-1.53.873-1.837 1.105a.615.615 0 0 0 .124.109c.197.136.529.245.826.183.425-.089 1.474-.3 1.474-.3a.17.17 0 0 1 .072.001l.782.17a.177.177 0 0 1-.075.346l-.746-.162c-.188.037-1.058.213-1.435.291a1.262 1.262 0 0 1-.256.026" fill="#253151"/>
            <path d="M45.653 46.406a.178.178 0 0 1-.102-.033c-.602-.428-2.575-1.858-2.711-2.271-.158-.476-.207-1.938.615-2.414.474-.275.875.046 1.02.254a.177.177 0 0 1-.29.204c-.024-.035-.247-.328-.553-.151-.615.356-.58 1.622-.457 1.996.09.224 1.384 1.24 2.581 2.094a.177.177 0 0 1-.103.32" fill="#253151"/>
            <path d="M47.727 48.18c-.638 0-1.166-.132-1.535-.406-.942-.698-2.47-2.756-2.534-2.844a.177.177 0 1 1 .284-.21c.016.021 1.56 2.104 2.46 2.77.977.723 3.395.263 5.884-1.117a.177.177 0 0 1 .171.31c-1.76.976-3.463 1.497-4.73 1.497" fill="#253151"/>
            <path d="M42.084 46.981a.176.176 0 0 1-.106-.319l1.96-1.454a.177.177 0 0 1 .21.285l-1.96 1.453a.176.176 0 0 1-.104.035M45.366 50.649a.177.177 0 0 1-.142-.283l1.867-2.498a.177.177 0 0 1 .284.212l-1.868 2.498a.177.177 0 0 1-.141.07M48.89 71.122a1.45 1.45 0 0 1-.444-.057c-.353-.119-1.051-.96-1.99-2.186-.11-.142-.195-.254-.222-.286a.177.177 0 1 1 .266-.233c.033.038.104.13.237.304.37.484 1.499 1.957 1.822 2.065.395.134 1.506-.088 1.92-.37-.198-.102-.772-.233-1.35-.303a.176.176 0 0 1-.123-.074l-2.416-3.405a.176.176 0 0 1 .133-.278c.249-.016 1.508-.086 1.893.11l.111.058c.952.496 1.293.525 1.407.45-.08-.272-1.238-1.067-1.711-1.321-.513-.276-1.204-.48-1.759-.645-.279-.083-.52-.154-.704-.223l-.108-.041c-.622-.236-1.915-.727-3.42-.727-1.684 0-7.86-2.94-8.303-3.2-.381-.224-4.048-2.069-4.085-2.087A.176.176 0 0 1 30 58.64l-2.142-2.09a.177.177 0 1 1 .247-.253l2.123 2.07c.35.177 3.702 1.865 4.08 2.088.421.247 6.536 3.15 8.124 3.15 1.57 0 2.904.507 3.546.75l.106.04c.173.065.408.135.68.215.572.17 1.281.38 1.826.673.018.01 1.815 1.038 1.898 1.601a.305.305 0 0 1-.085.267c-.356.356-1.136-.005-1.84-.371l-.108-.056c-.19-.097-.858-.108-1.389-.089l2.183 3.078c1.002.127 1.548.318 1.622.57.015.051.035.185-.112.307-.36.3-1.245.53-1.87.53M52.371 42.741h-.669a.177.177 0 1 1 0-.354h.67a.177.177 0 1 1 0 .354M50.675 48.537a.177.177 0 0 1-.17-.129l-.244-.866a.177.177 0 1 1 .34-.096l.245.866a.177.177 0 0 1-.17.225" fill="#253151"/>
            <path d="M65.877 68.27h-13.23l.967-44.083c.194.582.97 1.047 1.864 1.082.88.035.648-.428 1.476-.477 1.261-.075 1.43.875 2.308.892.724.015 1.69-.91 2.588-.868.695.033 1.245.898 1.91.73.772-.196 1.443-1.312 2.117-1.359V68.27z" fill="#FEFEFE"/>
        </g>
        <path fill="#B6CEDD" d="M52.372 71.314h1.242V24.187h-1.242zM65.877 71.14h1.242V24.188h-1.242z"/>
        <g fill="#253151">
            <path d="M53.614 71.49h-1.242a.177.177 0 0 1-.178-.177V24.187c0-.098.08-.177.178-.177h1.242c.097 0 .177.08.177.177v47.126c0 .098-.08.178-.177.178zm-1.066-.354h.889V24.364h-.889v46.772zM67.119 71.49h-1.242a.177.177 0 0 1-.178-.177V24.187c0-.098.08-.177.178-.177h1.242c.098 0 .177.08.177.177v47.126c0 .098-.08.178-.177.178zm-1.065-.354h.888V24.364h-.888v46.772z"/>
            <path d="M59.262 25.861c-.601 0-.983-.26-1.32-.49-.31-.21-.576-.392-.992-.402-.507-.013-.72.121-.947.262-.225.14-.457.284-.915.268-.87-.033-1.594-1.17-1.624-1.218a.177.177 0 0 1 .3-.188c.006.01.654 1.026 1.338 1.052.349.014.51-.088.715-.215.25-.154.538-.327 1.142-.315.52.012.857.242 1.183.464.323.22.628.429 1.12.429.571 0 .803-.181 1.071-.39.282-.22.601-.47 1.306-.486.617-.013.893.211 1.138.41.208.168.388.313.793.326.382.014.664-.291.967-.613.351-.371.75-.793 1.354-.745a.177.177 0 0 1-.028.353c-.439-.034-.743.29-1.068.635-.344.364-.699.741-1.236.724-.524-.016-.78-.223-1.005-.406-.226-.183-.422-.343-.907-.33-.587.013-.834.206-1.096.41-.28.218-.595.465-1.289.465M60.736 68.66c-3.614 0-7.08-.21-7.133-.214a.177.177 0 0 1-.166-.187.176.176 0 0 1 .188-.166c.078.005 7.858.477 12.232 0a.177.177 0 1 1 .038.352c-1.476.161-3.336.215-5.16.215M55.822 65.962a.177.177 0 0 1-.176-.174c-.273-13.169-.277-38.844-.277-39.102a.177.177 0 0 1 .355 0c0 .258.003 25.93.275 39.095a.177.177 0 0 1-.173.18h-.004zM59.745 65.962a.177.177 0 0 1-.177-.177V30.03a.177.177 0 0 1 .354 0v35.755c0 .097-.08.177-.177.177M63.565 65.498a.177.177 0 0 1-.177-.176 8655.16 8655.16 0 0 1-.104-37.539.177.177 0 0 1 .354 0c0 .16.001 16.306.104 37.537a.177.177 0 0 1-.176.178z"/>
        </g>
    </g>
</svg>
