<svg width="50" height="50" viewBox="0 0 50 50" xmlns="http://www.w3.org/2000/svg">
    <g fill="none" fill-rule="evenodd">
        <circle fill="#F4F4F4" cx="25" cy="25" r="25"/>
        <circle fill="#33B4C7" cx="25" cy="25" r="20"/>
        <g fill="#FFF" fill-rule="nonzero">
            <path d="M19.435 31h3.225l3.345-11.175h-2.73l-1.26 5.1c-.315 1.2-.54 2.34-.87 3.57h-.075c-.315-1.23-.54-2.37-.87-3.57l-1.275-5.1H16.09L19.435 31zM29.695 31.21c2.7 0 4.26-1.635 4.26-3.495 0-1.575-.825-2.505-2.205-3.06l-1.395-.555c-.99-.39-1.68-.63-1.68-1.26 0-.585.495-.915 1.32-.915.87 0 1.56.3 2.295.855l1.335-1.68c-.975-.975-2.34-1.47-3.63-1.47-2.37 0-4.05 1.5-4.05 3.375 0 1.62 1.095 2.595 2.265 3.06l1.425.6c.96.405 1.575.615 1.575 1.26 0 .6-.465.975-1.455.975-.885 0-1.92-.465-2.7-1.14l-1.53 1.845c1.155 1.065 2.715 1.605 4.17 1.605z"/>
        </g>
    </g>
</svg>
