<svg width="100" height="100" viewBox="0 0 100 100" xmlns="http://www.w3.org/2000/svg" xmlns:xlink="http://www.w3.org/1999/xlink">
    <defs>
        <path id="9n0tstly6a" d="M0 0h21.371v14.275H0z"/>
        <path id="tvsotuae8c" d="M0 0h65.474v91.904H0z"/>
    </defs>
    <g fill="none" fill-rule="evenodd">
        <path d="M44.347 74.621c.361.21.689.507.87.884.734 1.526.916 2.082 1.905 3.782.128.221.408.902.562 1.106.149.196.372.587.524.78.035.045.073.09.11.135a8.612 8.612 0 0 0-.885-.287l-3.278-.921c-.352 1.064.076 2.025.97 2.701.553.42 1.127.645 1.713 1.018.586.373 1.206 1.146 1.008 1.812-.968-.225-1.611-.026-2.579-.25-.174-.04-.968.08-1.12-.014-.183-.113-.662-.672-.799-.839-1.71-2.094-2.601-3.833-4.54-5.388-.291-.234-1.06-.358-1.654-.166-.123.04-.196.326-.324.312-.549-.062-.917.244-.917 1.145 0 .315-.43.502-.45.816-.03.506.2.987.425 1.442l1.6 3.243c.725 1.468 1.617 2.646 2.66 3.907.226.273.54.747.78 1.008.525.575.817 1.24 1.342 1.815.291.318.559.317.948.503.394.188 1.575.452 2.01.477 2.519.14 4.336.368 6.854.508.866.048 1.733.096 2.6.071 1.51-.045 3.257-.526 4.739-.824 2.38-.48 4.496-1.096 6.839-1.732.549-.15 1.071-.228 1.592-.343.128.82.275 1.646.428 2.484l.062.35c.014.08.18 1.006.388 2.2 0 0-6.698 2.644-18.157 2.644-12.403 0-19.175-2.685-19.175-2.685a188.176 188.176 0 0 1-.147-3.11c.157-3.248.706-5.442.764-7.946.045-2.071-.534-8.146-.64-8.766-.21-1.231-.356-2.533-.714-3.538 4.353.373 8.7.82 13.036 1.352.27.033.414.177.65.314" fill="#EF7E3C"/>
        <path d="M18.851 65.062c.408-1.549.857-3.294 1.336-4.713.378.373.838.654 1.31.896 1.972 1.009 4.22 1.45 6.426 1.308 1.106-.071 2.146-.495 3.243-.651 1.262-.18 2.234-.845 3.05-1.805-.765-.997-.584-2.363.194-3.35.322-.408.473-.737.906-1.026.438-.293.816-.477 1.332-.584.414-.086.755-.26 1.176-.212 1.154.133 2.293.39 3.39.77.11-.528.355-1.027.705-1.437-.15-.036-.174-.195-.28-.308-.743-.787-1.715-1.321-2.755-1.623-1.093-.25-1.564-.396-1.851-1.114-.139-.348-.166-.734-.307-1.081-.379-.93-1.438-1.346-2.377-1.701a38.948 38.948 0 0 1-4.017-1.781c-.56-.287-1.126-.593-1.748-.692-.574-.093-1.16-.004-1.735.085l-.43.067c.065-.216.139-.429.228-.637.387-.904 1.167-2.054 1.757-2.842 1.735-2.317 3.096-3.822 5.39-4.864 3.128-1.418 7.757-1.92 10.805-1.405.36 1.483.79 2.815 1.51 4.333.83 1.76 2.36 3.249 4.174 3.95 1.951.752 3.359.685 5.449.587.51-.021 1.383-.21 1.867-.384.501-.179 1.23-.33 1.676-.62 2.458-1.589 5.024-3.061 6.558-5.554 3.43 1.545 7.03 3.4 10.154 5.494.536.36 1.074.734 1.483 1.235.73.89.972 2.073 1.18 3.207 1.954 10.611 3.706 20.64 4.066 31.42.03.84-.044 2.418-.304 3.22-.59 1.824-2.811 3.418-4.58 4.16a9.984 9.984 0 0 0-.236-.519c-.46-1.826-1.706-3.267-3.163-4.497-.54-.456-.907-1.007-1.496-1.396l-2.053-1.354-.126.072-.12-.078c.931-.776 1.63-1.047 1.646-1.117.027-.112.443-1.41.395-2.163-.303-4.705-1.73-7.99-1.93-12.202-.918 3.919-1.93 5.665-2.087 8.656-.156 2.963-.395 5.969-.79 8.928-.182.12-.368.235-.56.341-1.73.963-2.984 2.314-4.83 3.032-.471.184-1.227.65-1.674.886-.341.181-.964.35-1.375.53.013-.028.027-.055.037-.085 1.453-4.363.728-5.782.728-5.782-.01-1.56.614-2.43-.299-3.695-.387-.537-1.686-1.579-2.117-2.082a20.65 20.65 0 0 0-2.043-2.102c-.581-.52-1.28-.886-1.973-1.243a204.063 204.063 0 0 0-7.49-3.668c-1.302-.604-2.612-1.196-3.975-1.645-1.104-.364-2.4-.993-3.502-1.362-1.264-.422-2.317-.612-3.517-1.19-1.082-.522-1.55-.764-2.368.295a18.82 18.82 0 0 0-3.698 8.776.51.51 0 0 1-.108-.026c-.011.076-.074.428-.177.428-.565 0-.906-.146-1.47-.23-1.18-.174-2.143-.423-3.307-.683-1.145-.254-2.401-.381-3.928-1.307-1.004-.609-1.589-1.229-1.732-2.393-.146-1.194-.079-1.813.357-3.473" fill="#EF7E3C"/>
        <path d="M45.076 75.452c-.148-.253-.3-.507-.51-.711-.535-.525-1.339-.641-2.084-.726-2.613-.298-5.595-.487-8.213-.737-.227-.021.991 2.623 1.535 5.198.061.288.22.558.433.76.212.202.561.296.803.129-.016-.307.273-.564.577-.61.303-.046.607.069.88.21 1.221.634 2.07 1.79 2.875 2.908l2.3 3.193c.109.152.226.31.395.387.13.058.276.064.417.068l3.357.104c.16-.641-.253-1.3-.775-1.705-.522-.406-1.155-.643-1.701-1.014a4.132 4.132 0 0 1-1.384-1.6c-.103-.213-.19-.442-.185-.679.005-.237.118-.483.327-.593.261-.136.578-.031.853.075l1.763.684c.414.16 1.196.467.91-.31-.414-1.127-1.03-2.223-1.594-3.28-.313-.589-.68-1.155-.979-1.75" fill="#FEFEFE"/>
        <path d="m18.966 58.25-.752-1.828c-.302-.732-.609-1.496-.557-2.286.04-.607.289-1.177.535-1.734.372-.844.748-1.696 1.292-2.441.561-.77 1.286-1.405 2.054-1.966.62-.453 1.277-.863 1.986-1.16.92-.383 1.908-.568 2.895-.725l.43-.067c.574-.089 1.16-.178 1.735-.085.621.1 1.188.405 1.748.692a39.046 39.046 0 0 0 4.017 1.781c.939.355 1.998.77 2.377 1.701.141.347.168.732.307 1.081.287.718.758.865 1.85 1.114 1.041.302 2.012.836 2.756 1.624.106.112.13.271.28.307-.35.41-.595.909-.704 1.436a16.002 16.002 0 0 0-3.391-.768c-.42-.048-.761.125-1.176.21-.516.107-.894.292-1.332.585-.433.289-.584.619-.906 1.027-.778.986-.959 2.352-.194 3.349-.816.96-1.788 1.626-3.05 1.805-1.097.155-2.137.58-3.243.651-2.206.141-4.454-.3-6.425-1.308-.473-.242-.933-.523-1.311-.896-.025-.024-.052-.045-.076-.07-.539-.566-.848-1.307-1.145-2.03" fill="#FAD8C9"/>
        <path d="M40.533 27.538c.137-.853.273-1.705.44-2.553.368-1.871.884-3.712 1.482-5.524 1.048-3.177 2.69-6.489 3.759-8.581.833-1.632 2.068-3.21 3.363-5.163 1.013-1.527 2.368-2.271 4.059-2.978 1.058-.442 2.198-.785 3.338-.664.24.026.484.073.724.037.337-.05.627-.255.93-.411.781-.405 1.686-.502 2.565-.488 2.854.046 5.436 1.508 7.69 3.259 3.134 2.434 3.273 5.588 4.908 8.323.423.707.858 1.252 1.545 1.707.686.455 1.823.514 2.519.074.192 1.052-.542 1.993-1.549 2.352-.998.357-2.085.373-2.741-.458.328.983 1.134 1.766 1.885 2.48 1.333 1.27 2.173 2.641 2.216 4.482.014.588-.093 1.3-.345 1.832-.252.533-.706 1.215-1.278 1.352.332-1.19-.092-2.824-1.063-3.587-.586 1.306-.84 2.788-.796 4.22.032 1.034.342 2.23.702 3.2.274.739.652 1.434 1.019 2.132.991 1.887 1.918 3.848 2.25 5.954.33 2.105 0 4.398-1.32 6.072-3.522-1.996-6.875-4.848-10.774-5.936l-.699-.194a3.09 3.09 0 0 0-.39-.158c-1.328-.437-1.638-.729-2.686-1.056-.278-.087-.839-.563-1.018-.792-.206-.264-.19-.633-.164-.967l.209-2.656c.046-.585.093-1.175.27-1.733.26-.82.785-1.525 1.301-2.214.727-.968 1.169-1.591 1.885-2.921.102-.19.157-.586.328-.716.206-.155.853.02 1.085-.093.47-.23.866-.59 1.212-.984.638-.727 1.146-1.652 1.063-2.616-.082-.964-.948-1.89-1.907-1.756.207-.26.008-.668-.284-.826-.292-.159-.64-.16-.963-.239-.925-.223-1.246-.919-1.574-1.71-.333-.803-1.044-1.354-1.681-1.921a23.938 23.938 0 0 1-3.232-3.514c.147 2.648 1.63 3.822 3.452 5.077-1.832-.407-3.019-.382-4.1-1.521-1.082-1.139-1.975-2.065-2.542-3.53-.27-.695-.557-2.102-.506-2.512-.879 2.219-2.544 4.63-4.702 5.65-.384.182-1.513.45-1.513.45-.044.1-.262.683-.14 1.09-1.117-.021-2.016.793-2.296 1.875-.28 1.082.26 2.459 1.247 2.98.192.102.427.27.564.438.184.227.17.323.158.615-.047 1.228-.13 2.51.375 3.631.213.474.526.902.707 1.389.172.461.22.958.26 1.45.194 2.375.222 4.862-.78 7.026-.074.16-1.976.461-3.263.606a43.506 43.506 0 0 1-.498-.08c-1.045-.173-1.817-.076-2.696-.668-1.16-.784-2.102-2.465-2.277-3.855-.175-1.39.046-2.795.267-4.178" fill="#4A4A69"/>
        <path d="M49 35.712c1.002-2.163.974-4.65.78-7.026-.04-.49-.088-.988-.26-1.45-.181-.486-.494-.914-.707-1.388-.504-1.12-.422-2.403-.374-3.631.01-.292.025-.388-.159-.614a1.989 1.989 0 0 0-.564-.438c-.988-.523-1.526-1.9-1.247-2.98.28-1.083 1.179-1.898 2.296-1.877-.122-.407.096-.99.14-1.088 0 0 1.129-.269 1.512-.45 2.159-1.02 3.824-3.432 4.703-5.651-.05.41.236 1.816.506 2.513.567 1.464 1.46 2.39 2.542 3.53 1.081 1.138 2.268 1.113 4.1 1.52-1.821-1.255-3.305-2.429-3.452-5.076a23.96 23.96 0 0 0 3.232 3.513c.637.567 1.348 1.118 1.681 1.921.328.79.648 1.487 1.574 1.71.323.078.67.08.963.239.292.158.49.565.284.825.958-.133 1.824.793 1.907 1.758.083.964-.425 1.888-1.063 2.615-.346.393-.742.755-1.212.984-.232.113-.88-.062-1.085.094-.171.129-.226.526-.328.715-.716 1.33-1.158 1.953-1.884 2.922-.517.688-1.042 1.393-1.302 2.213-.177.558-.224 1.149-.27 1.733l-.209 2.656c-.026.334-.043.703.164.967.18.23.74.706 1.018.792 1.048.327 1.358.62 2.686 1.056.084.028.246.086.39.158.14.07.265.154.285.238.037.15-.352.528-.417.667-.538 1.145-1.702 1.92-2.7 2.7-1.408 1.096-1.902 1.312-3.104 1.985-.802.45-2.114.635-3.004.87-2.552.678-4.897.208-7.306-.874-.506-.227-1.333-1.1-1.706-1.51-.33-.365-.94-1.053-1.12-1.511-.381-.978-.682-1.612-1.065-2.59-.228-.583-.449-1.429-.405-2.054.21-.007.537-.037.918-.08 1.286-.143 3.188-.444 3.262-.606" fill="#FAD8C9"/>
        <path d="M65.151 22.01c-.903.692-2.09.953-3.223.848-1.133-.104-2.214-.55-3.18-1.149-.318-.196-.627-.41-.96-.58-2.175-1.116-4.942-.195-7.18-1.18-.606-.267-1.144-.663-1.678-1.056-.087-.064-.177-.131-.226-.228a.69.69 0 0 1-.056-.261c-.06-.836-.017-1.68.127-2.506.023-.132.054-.274.153-.365.087-.08.21-.103.326-.128a6.3 6.3 0 0 0 1.462-.5c1.972-.959 3.24-3.331 4.469-5.146.35 1.677 1.288 3.716 2.552 4.873a8.311 8.311 0 0 0 4.6 2.106c-.386-.354-.855-.601-1.28-.907-1.583-1.138-2.484-3.16-2.273-5.098.778 2.409 2.683 4.427 5.043 5.343-.095.72.137 1.478.62 2.022.323.363.743.61 1.204.752.403.124.746.068.864.529.232.908-.711 2.131-1.364 2.632" fill="#CCC9D3"/>
        <path d="M42.327 54.209c1.635 1.208 3.883 1.364 5.472 2.631.306.245.914.532 1.188.812.437.446.896.91 1.332 1.355.58.593 1.56 3.191 1.581 3.545.06 1.005-.4 1.455-.757 2.396 0 0 1.735 1.403 2.112 1.672.521-.679 1.138-.825 1.99-.919.979-.108 1.962.245 2.794.773.5.316.959.696 1.367 1.123.486.507.898 1.078 1.31 1.647 1.162 1.608 2.246 2.878 3.408 4.487.4-.618.448-1.117.849-1.734.052-.08.537-.282.628-.313.147-.05.391.247.46.387.068.14.282.191.354.33.192.369.587.458.893.741.43.399.559 1.356.49 1.938-.224 1.859-.418 3.465-.93 5.265-.2.703-.697 1.927-1.23 2.427-.19.179-.561.071-.706.29-.136.206-.191.458-.333.661-.174.251-.46.397-.733.534l-2.913 1.453c-.479.24-1.102.62-1.611.783.287-.863.76-1.95.841-2.856.365-4.123.377-1.663.25-1.984-.157-.39.075-.128-.076-.52-.32-.832-.11-1.767-.222-2.65-.126-.987-.464-1.766-1.195-2.44-.985-.91-1.193-1.18-2.176-2.14-.453-.442-1.678-1.381-2.124-1.832-1.038-1.05-1.638-1.115-2.175-1.396-.965-.502-1.704-.872-2.372-1.154-3.142-1.327-5.66-2.596-8.849-3.81-3.611-1.374-6.325-2.227-9.769-3.605.96-.281 1.761-.957 2.478-1.677.077-.077.254-.138.263-.247.006-.076-.148-.523-.176-.595-.562-1.416.074-3.201 1.405-3.944.818-.456 1.837-.738 2.766-.615s1.79.637 2.69.9c.064.018.134.036.196.012.06-.024.097-.08.132-.133.317-.487.781-1.112 1.098-1.598" fill="#FEFEFE"/>
        <path d="M31.165 66.71a18.816 18.816 0 0 0-1.949 6.036l-.014.083c.487.04.973.085 1.46.126 4.352.373 8.698.82 13.035 1.351.27.034.414.178.65.315.36.21.689.507.87.884.735 1.526.916 2.082 1.905 3.782.128.221.408.902.562 1.106.148.196.372.587.524.78.035.045.073.09.11.135a8.494 8.494 0 0 0-.884-.287l-3.28-.921c-.35 1.064.078 2.025.97 2.701.554.42 1.128.645 1.714 1.018.586.373 1.206 1.146 1.008 1.812-.968-.225-1.611-.026-2.578-.25-.175-.041-.969.08-1.12-.014-.184-.113-.663-.672-.8-.839-1.71-2.094-2.602-3.833-4.54-5.388-.291-.234-1.06-.358-1.654-.166-.123.04-.196.326-.324.312-.548-.062-.917.244-.917 1.145 0 .315-.43.502-.45.816-.03.506.2.988.424 1.442l1.601 3.243c.725 1.468 1.617 2.646 2.66 3.907.226.273.54.747.78 1.008.525.575.817 1.24 1.343 1.815.29.318.558.317.946.503.395.188 1.576.452 2.012.477 2.518.14 4.336.368 6.853.508.866.048 1.733.096 2.6.07 1.51-.044 3.257-.525 4.739-.823 2.38-.48 4.496-1.096 6.839-1.732.549-.15 1.071-.228 1.592-.343.336-.074.67-.164 1.011-.298.618-.243 1.238-.486 1.88-.652.382-.099 2.68-1.092 3.413-1.436 1.205-.567 2.306-1.168 3.512-1.734a5.569 5.569 0 0 0-.072-.31c-.461-1.827-1.707-3.269-3.163-4.499-.54-.455-.907-1.006-1.497-1.395l-2.052-1.354-.127.072c-.647.371-1.318.734-1.864 1.24-.315.292-.66.55-1.02.785-.183.12-.37.234-.56.34-1.73.963-2.985 2.314-4.83 3.032-.472.184-1.228.65-1.676.887-.34.18-.963.348-1.374.53.013-.029.027-.056.037-.086 1.453-4.363.728-5.782.728-5.782-.01-1.56.614-2.43-.298-3.695-.388-.537-1.688-1.579-2.118-2.083a20.645 20.645 0 0 0-2.043-2.101c-.582-.52-1.28-.886-1.973-1.243a204.073 204.073 0 0 0-7.49-3.667c-1.302-.605-2.612-1.197-3.975-1.646-1.104-.363-2.4-.994-3.501-1.362-1.265-.422-2.318-.612-3.518-1.19-1.082-.522-1.55-.763-2.368.294a18.43 18.43 0 0 0-1.75 2.741M50.59 83.75c.522.502 1.06.996 1.597 1.487-.096-.066-.193-.132-.287-.202a7.026 7.026 0 0 1-1.31-1.286" fill="#FAD8C9"/>
        <path d="M54.53 24.902c-.248-.082-.503-.173-.761-.172-.315.001-.593.139-.82.308-.29.215-.527.495-.595.828a.971.971 0 0 0 .37.96c.506.381 1.235.26 1.878.342 1.14.147 2.118.989 3.26 1.11.238.026.493.014.669-.108.33-.23.218-.697.08-1.072-.118-.316-.237-.636-.448-.92-.399-.538-.903-.601-1.548-.727a16.825 16.825 0 0 1-2.084-.549" fill="#D14357"/>
        <path d="M55.39 26.043c1.001.231 1.917.486 2.887.307-.03-.236-.36-.531-.6-.665-.241-.134-.52-.198-.793-.248-.345-.062-.694-.105-1.032-.2-.502-.143-.968-.398-1.476-.516-.353-.082-1.751-.217-1.428.317.296.487 1.911.883 2.441 1.005" fill="#FEFEFE"/>
        <path d="M55.553 26.398c-.502-.021-1.016.016-1.44.21-.08.037-.16.083-.192.156-.058.136.086.3.252.361.165.062.346.056.521.07.81.07 1.508.596 2.285.855.283.094.578.153.873.174.704.05 1.205-.59.575-1.067-.704-.533-2.02-.723-2.874-.76" fill="#D14357"/>
        <path d="M56.67 17.494a.257.257 0 0 1 .314.183c.716 2.71-.27 3.46-.859 3.907-.145.11-.283.215-.307.293-.13.42.389 1.113.581 1.322a.257.257 0 0 1-.378.347c-.096-.104-.934-1.044-.693-1.822.074-.234.275-.387.487-.548.549-.417 1.301-.989.672-3.368a.257.257 0 0 1 .183-.314M52.852 19.324c-.512-.08-.84-.736-.71-1.457.132-.721.66-1.257 1.173-1.177.512.08.84.736.71 1.456-.132.722-.66 1.258-1.173 1.178M60.904 21.19c-.554-.09-.84-.735-.7-1.498.131-.721.702-1.247 1.204-1.126.512.08.83.778.7 1.5-.132.72-.702 1.246-1.204 1.124M41.72 34.916a.255.255 0 0 1-.363.006c-3.415-3.305.654-17.29 4.958-24.746a.257.257 0 0 1 .445.257c-4.145 7.178-8.136 21.13-5.046 24.12.102.098.104.26.006.363M56.652 2.161c-2.673.145-5.946 2.158-7.613 4.68-.136.207-.252.427-.375.659-.294.556-.598 1.132-1.199 1.512-.384.243-.764.365-1.112.365-.298 0-.573-.09-.807-.27-.545-.42-.72-1.25-.445-2.116.187-.591.748-1.176 1.454-1.136.476.023.923.352 1.087.8.161.44.026.933-.32 1.175a.813.813 0 0 1-.74.081.694.694 0 0 1-.448-.474.257.257 0 0 1 .497-.127c.02.072.097.109.129.12.092.035.2.026.268-.021.172-.12.203-.387.133-.578a.737.737 0 0 0-.631-.464c-.452-.02-.815.386-.94.78-.209.657-.103 1.267.269 1.554.326.252.812.207 1.332-.122.485-.308.745-.799 1.02-1.319.123-.233.25-.474.4-.701 1.749-2.646 5.193-4.757 8.014-4.91a.256.256 0 0 1 .028.512" fill="#253151"/>
        <g transform="translate(57.068 1)">
            <mask id="3bmuvohbcb" fill="#fff">
                <use xlink:href="#9n0tstly6a"/>
            </mask>
            <path d="M19.368 14.275h-.023c-.654-.008-1.33-.347-1.905-.954-.721-.762-1.204-1.707-1.608-2.692a6.204 6.204 0 0 1-1.537.173c-2.99 0-6.041-1.619-8.404-4.467-.129-.156-.256-.314-.383-.473-.398-.498-.81-1.013-1.294-1.422-.692-.586-1.48-.866-2.161-.772a.256.256 0 1 1-.07-.508c1.13-.158 2.09.489 2.562.888.523.442.95.977 1.364 1.494.125.156.25.312.377.465 2.314 2.79 5.297 4.35 8.197 4.28.42-.01.804-.058 1.157-.14a61.729 61.729 0 0 1-.33-.885c-.366-1-.744-2.033-1.28-2.897-.987-1.594-2.432-2.959-4.178-3.947C7.442 1.055 4.842.354 2.891.543 1.987.63 1.42.873.457 2.073a.256.256 0 1 1-.4-.32C1.012.562 1.689.143 2.84.033c2.05-.2 4.766.526 7.264 1.939 1.82 1.03 3.329 2.456 4.362 4.123.563.908.95 1.967 1.324 2.99.112.306.226.613.343.918.311-.113.591-.257.835-.437.728-.535 1.112-1.402.957-2.158-.123-.602-.79-1.28-1.393-1.212-.109.012-.294.057-.325.222-.027.148.075.365.323.49a.257.257 0 0 1-.232.458c-.423-.215-.667-.642-.595-1.04.064-.354.353-.593.772-.64.906-.101 1.779.772 1.953 1.619.194.948-.27 2.023-1.156 2.674-.28.206-.597.372-.948.5.382.923.834 1.8 1.487 2.49.277.292.846.784 1.54.793h.015c.763 0 1.471-.687 1.491-1.45.008-.316-.138-.698-.424-.783-.123-.037-.276.048-.354.152-.038.052-.075.127-.033.191a.256.256 0 1 1-.43.281c-.152-.233-.132-.532.052-.779.219-.293.594-.431.911-.337.562.167.804.785.79 1.288-.026 1.045-.96 1.95-2.002 1.95" fill="#253151" mask="url(#3bmuvohbcb)"/>
        </g>
        <path d="M44.686 32.564a.256.256 0 0 1-.349-.102c-1.501-2.736-1.786-5.796-.952-10.229a.256.256 0 1 1 .504.095c-.81 4.307-.542 7.263.898 9.887a.257.257 0 0 1-.101.349M66.342 19.644c1.004-.052 1.763.33 2.138 1.076.531 1.057.162 2.519-.5 3.322-1.075 1.302-1.94 1.387-2.858 1.478a.257.257 0 0 1-.05-.51c.878-.087 1.572-.156 2.511-1.294.627-.76.824-2 .439-2.765-.282-.561-.854-.835-1.654-.794a.257.257 0 1 1-.027-.512" fill="#253151"/>
        <path d="M66.925 22.107a.256.256 0 0 1-.153.329c-.005.001-.511.2-.888.8a.257.257 0 0 1-.434-.273c.475-.757 1.119-1 1.146-1.009.133-.048.28.02.329.153M63.701 16.91c.133-.048.28.02.329.153a2.52 2.52 0 0 0 2.26 1.632.257.257 0 0 1-.014.512h-.015a3.053 3.053 0 0 1-2.713-1.968.256.256 0 0 1 .153-.329" fill="#253151"/>
        <g transform="translate(17.5 4.708)">
            <mask id="zo1przzrld" fill="#fff">
                <use xlink:href="#tvsotuae8c"/>
            </mask>
            <path d="M.97 60.55c-.56 1.867-.577 4.31 1.044 5.57.547.426 1.184.644 1.9.867 2.113.658 5.037 1.299 7.448 1.633.005.001.01 0 .018.002h.017a.26.26 0 0 0 .093-.017c.011-.005.02-.012.03-.018.017-.01.034-.018.048-.03.01-.01.017-.021.025-.032.011-.013.023-.026.03-.041.007-.013.01-.028.015-.042.004-.013.011-.026.016-.066.404.054.81.104 1.217.15 0 .03.005.061.017.09 1.315 3.28 1.323 7.003 1.33 10.605l.002.694c.011 3.044-.532 10.745-.587 11.317a.266.266 0 0 0 .25.33c.137 0 .199 0 .254-.266a.293.293 0 0 0-.003-.04c.035-.223.062-.606.108-1.267.057-.822.133-1.95.206-3.178.133-2.221.291-5.221.285-6.899l-.001-.693c-.008-3.59-.019-7.301-1.307-10.63.976.105 1.952.191 2.913.267.648.976.922 1.965 1.211 3.012.238.858.484 1.744.95 2.643a1.01 1.01 0 0 0-.337.668 1.75 1.75 0 0 0 .038.525.622.622 0 0 0-.219.29c-.243.643.313 1.963.951 3.294l.086.181c.442.934.744 1.649.944 2.121.173.41.253.595.315.692.2.309 2.896 4.189 4.576 5.913.274.28.614.476.983.565 1.754.423 5.728.644 8.358.79 1.143.064 2.045.115 2.403.16.203.026.537.045.865.045.282 0 .558-.013.74-.049 4.616-.875 8.363-1.788 12.132-2.952.145 1.808.561 4.825.673 5.02a.256.256 0 0 0 .46-.223c-.069-.25-.48-2.952-.63-4.955 3.709-1.172 6.81-2.459 9.224-3.829a.652.652 0 0 0 .784.08c3.654-2.239 4.629-4.6 4.629-5.642 0-10.536-3.699-33.296-4.88-35.698-.153-.465-.524-.963-1.037-1.48.782-1.385 1.185-3.049 1.165-4.811-.021-1.882-.5-3.872-1.462-6.084a50.938 50.938 0 0 0-.68-1.476c-.433-.912-.88-1.854-1.204-2.819-.569-1.694-.65-3.197-.243-4.467a.257.257 0 1 0-.488-.157c-.443 1.377-.36 2.988.245 4.788.334.993.787 1.95 1.226 2.875.226.477.46.97.673 1.46.935 2.149 1.4 4.074 1.42 5.886.018 1.627-.344 3.16-1.043 4.446-.213-.189-.443-.38-.688-.57.007-.079.04-.248.072-.404.1-.5.251-1.254.25-2.098-.003-1.295-.61-3.782-1.224-5.02-1.698-3.42-2.878-6.229-3.12-8.82a.257.257 0 0 0-.51.048c.248 2.67 1.447 5.529 3.17 9 .578 1.162 1.168 3.582 1.17 4.793.002.792-.143 1.517-.24 1.997l-.03.157a27.281 27.281 0 0 0-1.599-1.07c.295-.68.486-2.254.205-3.487-.361-1.579-.9-2.568-1.68-3.897a.257.257 0 1 0-.443.26c.757 1.287 1.278 2.244 1.622 3.752.28 1.228.032 2.615-.14 3.105a49.929 49.929 0 0 0-2.265-1.284.256.256 0 0 0-.005-.098 60.591 60.591 0 0 0-.766-2.619c-1.091-3.531-2.22-7.183-1.046-12.885a.257.257 0 0 0-.503-.103c-1.2 5.83-.052 9.546 1.059 13.14.227.734.459 1.492.666 2.251a81.729 81.729 0 0 0-4.483-2.155.57.57 0 0 0-.543.046c-.335-.14-.66-.276-.968-.402-1.483-.612-3.017-1.244-3.056-1.64-.2-2.258.586-5.736.726-6.332.454-.37 1.556-1.873 2.37-3.587a.256.256 0 1 0-.463-.22c-.945 1.99-2.06 3.309-2.268 3.436-2.394 1.722-5.135 2.31-5.919 2.45-1.162.204-2.21-.12-3.207-.992-2.02-1.734-3.426-4.062-3.962-6.557-.135-.73-.05-2.571.042-4.52.071-1.548.146-3.148.132-4.513a.245.245 0 0 0-.018-.088c.9-.17 2.064-.569 3.217-1.473.373-.17 1.014-.057 1.633.052.418.074.843.149 1.233.149.354 0 .679-.063.941-.244a.256.256 0 0 0-.292-.422c-.377.262-1.097.135-1.793.012a8.595 8.595 0 0 0-1.06-.142c.764-.757 1.49-1.771 2.09-3.132.295 2.415 1.804 4.32 3.61 5.53 1.835 1.217 3.83 1.27 3.92 1.271a.253.253 0 0 0 .134-.47c.61.16 1.22.178 1.755.19a9.49 9.49 0 0 0 1.724.36.257.257 0 0 0 .03-.512c-4.775-.566-7.108-4.633-7.244-6.582 0-.008-.005-.015-.006-.023.036-.31.092-.631.17-.966a.256.256 0 1 0-.5-.117c-.955 4.065 1.251 6.384 2.7 7.426-.687-.158-1.568-.453-2.399-1.004C38.561 8.764 36.515 5.08 39.194.384A.256.256 0 1 0 38.75.13c-.836 1.464-1.237 2.836-1.314 4.094-.76 2.243-1.83 3.67-2.928 4.58a.253.253 0 0 0-.095.08c-2.137 1.71-4.334 1.47-4.473 1.453a.26.26 0 0 0-.287.222.256.256 0 0 0 .222.287c.009.001.151.017.395.017.19 0 .444-.01.743-.046l-.003.018c.013 1.35-.06 2.943-.132 4.483l-.058 1.297c-.853-.566-1.724-1.917-1.628-2.912.193-1.871 1.175-1.8 1.498-1.775a.257.257 0 0 0 .037-.512c-.67-.05-1.833.175-2.045 2.235-.128 1.322 1.028 2.988 2.115 3.545-.045 1.23-.05 2.227.05 2.768.242 1.131.656 2.229 1.218 3.256a45.147 45.147 0 0 0-.071 1.639c-.054 1.736-.114 3.704-.715 5.635a.406.406 0 0 0-.008.034c-.003 0-.37.88-4.113.796a.927.927 0 0 0-.488-.184 18.235 18.235 0 0 0-.587-.036 5.107 5.107 0 0 0 1.862-1.095c.195-.18.384-.365.563-.55a.256.256 0 1 0-.369-.357 13.55 13.55 0 0 1-.542.53c-.888.82-2.051 1.258-3.194 1.204-1.065-.054-1.935-.32-2.603-.79-.773-.543-1.249-1.389-1.243-2.208.003-.349.168-.73.403-.924a.501.501 0 0 1 .378-.13c.248.143.41.347.426.539.012.147-.062.282-.22.402a.257.257 0 0 0 .312.409c.296-.227.445-.53.42-.852-.03-.38-.305-.743-.734-.973a.261.261 0 0 0-.077-.026 1.002 1.002 0 0 0-.833.236c-.353.294-.584.81-.588 1.316-.007.984.552 1.993 1.46 2.631.426.3.921.521 1.477.67-.381.023-.767.05-1.156.085-3.835.344-5.957 1.466-7.679 2.627a9.219 9.219 0 0 0-2.238 2.129c-1.302 1.74-3.302 4.68-3.675 5.23-1.319.249-2.555.7-3.654 1.341-1.931 1.126-3.4 2.818-4.135 4.767-.868 2.302-.346 3.79.578 6.025.354.858.702 1.519 1.267 2.116-.062.26-.8 3.361-1.319 5.094M42.663 9.734c.115.235.238.442.368.631a5.916 5.916 0 0 1-1.578-3.034 8.84 8.84 0 0 0 1.342 2.056l-.013.004a.256.256 0 0 0-.119.343m2.606 1.647c-.667-.173-1.305-.54-1.828-1.323a8.88 8.88 0 0 0 1.828 1.323M4.836 42.99c1.68-.979 3.702-1.496 5.845-1.496h.02c.466 0 .958.025 1.396.201.373.15.696.402 1.038.669.239.187.487.38.758.541.624.368 1.326.536 2.004.699.588.14 1.143.274 1.653.526 1.721.852 2.351 3.62 2.84 5.916a4.804 4.804 0 0 0-1.752.309c-1.041.392-1.858 1.105-2.24 1.958-.413.922-.505 1.727-.271 2.392.083.237.186.465.301.686-.52.49-1.214 1.133-1.909 1.487a.257.257 0 0 0-.102-.001l-3.814.715c-1.41.265-5.059-.07-7.495-2.07-.802-.659-1.186-1.344-1.613-2.379-.902-2.183-1.373-3.522-.571-5.648.693-1.839 2.082-3.438 3.912-4.504m9.51 14.521c.86-.304 1.686-1.046 2.346-1.664.934 1.465 2.395 2.464 2.79 2.669 3.644 1.893 4.897 2.132 10.296 2.62.318.029.621.043.91.043 1.173 0 2.098-.238 2.763-.71.528.346 1.428 1.14 1.986 1.633.013.013.03.019.045.027-.542.993-.593 2.297-.525 3.546-1.328-.709-2.718-1.304-4.041-1.856l-3.896-1.628c-2.022-.844-4.112-1.717-6.209-2.492a135.53 135.53 0 0 0-4.776-1.655 97.567 97.567 0 0 0-1.69-.533M42.24 71.732c-.294-.257-2.202-2.1-2.221-2.12C38.719 68.22 37 66.832 35.543 66l-.063-.034c.001-.015.006-.028.006-.043-.113-1.666-.063-3.487 1.155-4.36.809-.579 2.052-.564 3.327.04 4.013 1.9 7.812 10.12 8.275 12.94a.256.256 0 0 0 .294.212.256.256 0 0 0 .212-.294c-.165-1.009-.864-3.028-1.932-5.216.692-1.914 1.13-2.104 1.248-2.116.154-.01.317.226.4.37.2.341.466.603.723.856.322.317.625.616.742 1.029.262.921.015 1.996-.224 3.035-.112.487-.228.99-.287 1.47-.306 2.44-.9 3.75-1.772 3.903.294-1.587-.287-2.942-.58-3.62l-.038-.091c-.261-.612-.897-1.476-1.633-2.476a61.614 61.614 0 0 1-1.189-1.654c-.258-.376-.488-.687-.71-.989-.334-.452-.65-.878-1.008-1.454a.256.256 0 1 0-.435.27c.37.594.69 1.029 1.03 1.489.22.298.447.606.7.975.395.575.803 1.13 1.198 1.667.718.975 1.338 1.817 1.575 2.373l.04.093c.387.9 1.185 2.764-.014 4.79-1.371.837-2.856 1.662-4.34 2.348.06-.118.11-.24.155-.36.434-1.18.774-3.59.788-3.692a.277.277 0 0 0 .003-.038c-.005-.378-.137-.733-.252-1.026.042-.593.228-3.854-.697-4.665M20.309 47.52c1.123.29 2.481.817 3.305 1.54.073.063.144.128.215.194.137.125.281.25.432.369-.379.375-.645.934-.693 1.241-.871-.39-1.753-.69-2.646-.785-.18-.845-.37-1.724-.613-2.559m5.644 2.876.16.047c2.152.64 6.002 2.245 7.608 5.797.298.659.437 1.231.423 1.75-.022.817-.287 1.459-.788 1.905-.712.633-1.9.88-3.532.732-5.394-.488-6.52-.701-10.106-2.564-.611-.318-2.483-1.744-3.107-3.527-.235-.669.01-1.463.256-2.013.326-.728 1.038-1.343 1.952-1.687 2.16-.813 4.352.344 6.472 1.463l.18.095.804.42c1.997 1.035 4.062 2.107 5.5 3.8a.257.257 0 0 0 .39-.332c-1.502-1.77-3.613-2.865-5.654-3.924l-.8-.417-.181-.096c-.495-.261-.994-.523-1.496-.765a.25.25 0 0 0 .034-.12c.001-.151.276-.747.628-1.044.4.222.833.356 1.257.48m21.8-16.276c-1.31 1.802-6.331 7.767-14.18 5.752-3.179-.815-5-3.221-6.083-8.031l.148.002c3.62 0 4.077-.957 4.133-1.21.445-1.433.6-2.87.674-4.22.495.937 1.676 2.561 4.038 2.917 2.333.353 5.367-1.956 6.468-2.876.406-.205.817-.436 1.224-.697-.267 1.234-.79 3.99-.615 5.958.069.702 1.312 1.215 3.372 2.064l.82.341m12.626 48.223-.08-.22a10.048 10.048 0 0 0-1.582-2.869c-2.147-2.688-4.465-4.005-5.25-4.4.47-.44 1.095-.724 1.62-.724h.012a.257.257 0 0 0 .122-.482.367.367 0 0 1-.172-.264.366.366 0 0 1 .133-.367c.047-.044.1-.095.147-.162.258-.37.128-1.03.023-1.56a5.122 5.122 0 0 1-.07-.404 45.704 45.704 0 0 0-.278-2.186 118.178 118.178 0 0 0-.559-3.303l-.184-1.038c-.489-2.772-.95-5.721-.769-8.627a.257.257 0 0 0-.24-.272.26.26 0 0 0-.272.24 25.409 25.409 0 0 0 .07 3.78c-.818 2.654-1.59 5.165-2.082 7.95-.116.654-.262 2.384-.391 3.912a81.998 81.998 0 0 1-.217 2.36 33.483 33.483 0 0 0-.254 3.072c0 .023.006.043.01.065a67.703 67.703 0 0 1-2.712 1.811c.044-.113.08-.226.114-.338 1.87-.05 2.277-3.293 2.41-4.365.058-.452.165-.922.28-1.418.252-1.102.514-2.242.217-3.29-.154-.543-.521-.905-.876-1.254-.244-.24-.474-.468-.64-.75-.259-.444-.56-.651-.891-.622-.515.049-.99.673-1.513 2.002-1.573-3.064-3.824-6.3-6.316-7.48-1.446-.686-2.883-.682-3.846.006a2.842 2.842 0 0 0-.58.561c-.698-.616-1.405-1.23-1.91-1.583.51-.531.782-1.242.805-2.121.016-.597-.138-1.243-.468-1.974-1.69-3.739-5.694-5.412-7.93-6.077l-.161-.048c-.466-.137-.906-.266-1.285-.508a4.885 4.885 0 0 1-.638-.521c-.074-.068-.148-.135-.222-.2-.97-.85-2.59-1.444-3.823-1.727-.486-1.45-1.18-2.697-2.353-3.277-.56-.278-1.17-.424-1.76-.565-.672-.16-1.306-.312-1.863-.642a6.57 6.57 0 0 1-.703-.503c-.355-.277-.723-.564-1.163-.74-.518-.21-1.07-.238-1.587-.24h-.02c-.596 0-1.181.042-1.755.118.685-1.005 2.291-3.343 3.391-4.815a8.7 8.7 0 0 1 2.115-2.01c1.665-1.123 3.719-2.208 7.437-2.542 1.743-.156 3.434-.186 4.76-.081a.412.412 0 0 1 .344.235c.75 3.374 2.167 7.378 6.472 8.484 8.613 2.211 13.936-4.794 14.916-6.22a.055.055 0 0 1 .069-.02c2.506 1.111 5.282 2.5 7.516 3.87 2.19 1.347 3.843 2.67 4.166 3.682l.016.038c1.157 2.275 4.834 24.972 4.833 35.485 0 .871-.916 3.08-4.384 5.205a.136.136 0 0 1-.2-.067m-9.745-5.866a32.9 32.9 0 0 1 .236-2.705c.055-.44.13-1.34.219-2.382.128-1.517.273-3.235.385-3.866.415-2.35 1.036-4.513 1.715-6.737.152 1.245.357 2.472.567 3.666l.185 1.04c.193 1.076.392 2.19.557 3.288.118.79.209 1.497.275 2.161.013.124.043.276.077.452.072.365.192.977.059 1.168-.017.024-.047.052-.079.083-.031.03-.063.06-.091.092a.869.869 0 0 0-.194.736c.012.07.032.137.057.2-.605.133-1.23.5-1.688 1.012a.25.25 0 0 0-.058.13 60.02 60.02 0 0 1-2.222 1.662m-32.198-.122c.074.155.156.303.233.443l2.818 5.116c.321.584 2.419 2.842 2.892 3.285a.256.256 0 0 0 .35-.374c-.502-.471-2.52-2.662-2.793-3.158l-2.818-5.116c-.19-.344-.385-.7-.436-1.072a1.212 1.212 0 0 1-.007-.258.509.509 0 0 1 .63-.447c.027.007.054.006.082.004.079.34.286.849.735 1.629.279.485 2.577 4.4 3.431 5.594.9 1.259 1.887 1.746 1.929 1.766a.255.255 0 0 0 .342-.119.257.257 0 0 0-.119-.342c-.009-.005-.915-.458-1.734-1.603-.79-1.105-2.929-4.726-3.404-5.552-.67-1.164-.717-1.58-.709-1.699.543-.073 1.163.133 1.71.567.5.397.902.935 1.29 1.456l.06.079a70.783 70.783 0 0 0 3.209 3.982c.101.117.227.262.406.352.208.105.425.098.615.092l.159-.003c.385.009 2.46.237 3.02.3a15.38 15.38 0 0 0 1.18 2.14.256.256 0 1 0 .427-.282 14.886 14.886 0 0 1-1.55-3.058l-.014-.038c-.107-.292-.229-.622-.485-.867-.169-.161-.374-.264-.555-.353-.73-.362-1.48-.763-2.015-1.375-.505-.578-.73-1.313-.602-1.926l3.124 1.093c.263.092.511.18.729.315.292.183.527.451.775.736l.13.147c.491.556 1.04 1.064 1.57 1.557.406.375.824.763 1.21 1.166.189.196.411.397.647.61.89.8 1.996 1.796 2.17 3.423a.256.256 0 1 0 .51-.054 4.359 4.359 0 0 0-.193-.895c6.083-.846 14.559-7.422 15.74-8.359.595.292 3.012 1.588 5.192 4.317a9.536 9.536 0 0 1 1.5 2.724l.007.016c-2.472 1.403-5.677 2.72-9.537 3.918-3.784 1.174-7.54 2.09-12.178 2.97-.33.063-1.104.043-1.445 0-.376-.049-1.286-.1-2.44-.164-2.61-.145-6.557-.365-8.266-.776a1.538 1.538 0 0 1-.736-.426c-1.652-1.696-4.315-5.528-4.512-5.833-.041-.063-.144-.306-.274-.613a52.579 52.579 0 0 0-.952-2.14l-.087-.183c-.254-.531-.978-2.043-.961-2.712m-1.463-7.45c.95.07 1.88.133 2.77.191 3.128.206 5.83.384 6.645.83.357.194.62.554.839.877.487.72 1.029 1.857 1.553 2.958.39.822.791 1.663 1.178 2.35l-3.159-1.106a.255.255 0 0 0-.098-.014l-.197.011a.256.256 0 0 0-.229.173c-.28.826-.03 1.825.654 2.606.597.683 1.396 1.112 2.164 1.493.172.085.326.161.437.268.172.164.263.411.359.674l.014.038c.06.162.128.32.193.48-.79-.087-2.42-.262-2.778-.27-.062 0-.125 0-.187.003-.148.005-.275.01-.366-.037-.09-.045-.172-.139-.25-.23a70.32 70.32 0 0 1-3.186-3.953l-.06-.08c-.408-.546-.83-1.111-1.383-1.55-.672-.533-1.451-.775-2.148-.666a.406.406 0 0 0-.314.2.508.508 0 0 0-.05.114 1.006 1.006 0 0 0-.419.006c-.44-.851-.68-1.709-.91-2.54-.256-.93-.523-1.887-1.072-2.826m-5.26-1.04c.144-.99.49-1.931.793-2.67a26.032 26.032 0 0 1 3.853-6.503c1.444.476 3.01 1.021 4.277 1.49 2.086.772 4.171 1.642 6.188 2.485l3.896 1.627c1.505.628 3.097 1.311 4.57 2.152 1.416.807 3.088 2.158 4.365 3.526.088.086 1.946 1.881 2.248 2.146.44.385.573 1.852.565 3.147-.39-.889-.798-1.72-1.224-2.584-.17-.344-.344-.696-.52-1.06a.257.257 0 0 0-.462.224c.177.365.35.717.522 1.063.588 1.193 1.143 2.32 1.656 3.621.107.272.229.58.237.881-.034.236-.364 2.492-.759 3.565-.086.234-.176.454-.337.583-.064.05-.255.126-.46.194.064-.115.12-.234.167-.363.024-.068.08-.226.069-2.36a1.93 1.93 0 0 0-.195-.831l-2.292-4.685a.256.256 0 1 0-.461.225l2.292 4.685c.092.189.142.4.143.609.007 1.455-.018 2.091-.042 2.194-.187.522-.546.874-1.197 1.17-.417.188-.622.192-1.032.114l-.021-1.31c-.006-.343-.012-.697-.09-1.049a5.188 5.188 0 0 0-.265-.796c-.527-1.332-1.071-2.709-1.853-3.956a.256.256 0 1 0-.434.273c.756 1.207 1.292 2.562 1.81 3.872.092.234.188.477.241.717.067.303.073.63.078.948l.025 1.514c-.001-.014-.016.015-.052.06a.54.54 0 0 1-.472.187.616.616 0 0 1-.48-.312c-.164-.29-.305-.579-.454-.883-.187-.381-.38-.775-.62-1.176-.878-1.469-1.608-3.056-2.314-4.592a.256.256 0 1 0-.466.215c.711 1.548 1.447 3.148 2.34 4.64.073.123.142.246.208.37-.176-.169-.35-.325-.512-.472-.23-.206-.445-.4-.62-.584-.397-.412-.821-.806-1.231-1.187-.522-.483-1.061-.984-1.537-1.52l-.126-.144c-.262-.3-.533-.611-.89-.834-.025-.016-.05-.027-.074-.041-.479-.72-1.008-1.832-1.522-2.91-.531-1.117-1.082-2.273-1.59-3.025-.252-.372-.56-.79-1.018-1.04-.914-.5-3.537-.672-6.858-.891-2.512-.166-5.347-.354-8.064-.718M1.461 60.697c.445-1.489 1.05-3.972 1.257-4.834.023.018.042.038.065.056 1.68 1.38 3.795 1.98 5.482 2.18-1.58.89-3.088 2.46-3.11 2.765a.257.257 0 0 0 .237.274l.02.001a.256.256 0 0 0 .244-.18c.177-.305 1.948-2.15 3.633-2.782.102.002.201.005.296.005.456 0 .837-.033 1.112-.085l2.327-.436c.767.214 1.713.503 2.814.86a26.527 26.527 0 0 0-3.809 6.48c-.34.83-.731 1.907-.859 3.058l-.001.015c-2.333-.34-5.09-.95-7.103-1.577-.667-.207-1.257-.41-1.737-.782-1.417-1.1-1.377-3.313-.868-5.018" fill="#253151" mask="url(#zo1przzrld)"/>
        </g>
        <path d="M27.767 53.967a6.156 6.156 0 0 1-.691.256c-.28.091-.545.178-.784.31-.375.209-.707.621-.613 1.008.095.393.568.602.842.692 1.445.476 3.156-.063 4.069-1.28a.256.256 0 1 1 .41.308c-.786 1.049-2.092 1.656-3.395 1.656-.421 0-.842-.064-1.245-.196-.647-.213-1.066-.59-1.18-1.06-.16-.665.335-1.283.863-1.576.283-.157.583-.255.874-.35.224-.072.435-.141.634-.234a.257.257 0 1 1 .216.466M77.624 81.764c-.965-.883-2.48-2.046-3.577-2.42a.257.257 0 0 1 .166-.485c1.17.399 2.708 1.566 3.757 2.526a.256.256 0 1 1-.346.379M70.984 56.212a.257.257 0 0 1-.248.265.258.258 0 0 1-.265-.247c-.132-3.88 1.833-7.612 3.412-10.611a.257.257 0 0 1 .454.239c-1.631 3.099-3.48 6.611-3.353 10.354M75.439 19.352c-.255-.275-.534-.546-.803-.808-.786-.766-1.599-1.558-2.02-2.606a.256.256 0 0 1 .451-.237 2.663 2.663 0 0 0 2.091 1.174 2.66 2.66 0 0 0 2.172-1.017.257.257 0 1 1 .406.314 3.195 3.195 0 0 1-2.596 1.216 3.114 3.114 0 0 1-1.19-.288c.317.368.676.717 1.044 1.076.274.267.557.543.82.827 1.11 1.196 1.79 2.507 1.973 3.792.222 1.565-.345 3.135-1.445 4a.606.606 0 0 1-.363.148.405.405 0 0 1-.127-.02.379.379 0 0 1-.249-.405.339.339 0 0 1 .1-.203c.227-.774.305-1.403.025-2.094-.25-.622-.83-1.023-1.442-1.447-.546-.378-1.111-.77-1.475-1.348a.256.256 0 1 1 .434-.273c.308.49.806.834 1.333 1.2.648.448 1.318.912 1.626 1.676.295.731.257 1.402.07 2.142.793-.785 1.184-2.043 1.005-3.304-.167-1.18-.804-2.397-1.84-3.515M56.791 25.223l-.126-.024a16.596 16.596 0 0 1-2.053-.54l-.038-.013c-.254-.084-.516-.172-.806-.172-.326 0-.654.121-.972.358-.38.28-.62.62-.694.982-.094.454.09.931.468 1.217.425.32.947.338 1.452.356.192.007.373.014.547.036.523.067 1.012.292 1.53.53.548.254 1.114.515 1.736.58.076.01.15.013.219.013.256 0 .465-.055.623-.165.543-.377.265-1.127.174-1.372-.116-.313-.247-.668-.481-.984-.432-.582-.99-.688-1.579-.802m1.167 1.108c.19.257.303.561.412.856.23.622.068.735.014.772-.066.047-.206.095-.494.065-.538-.058-1.043-.29-1.577-.536-.53-.244-1.078-.497-1.679-.574a6.506 6.506 0 0 0-.593-.04c-.446-.015-.866-.03-1.162-.253a.72.72 0 0 1-.274-.703c.061-.3.304-.532.496-.674.23-.17.454-.257.672-.257.201 0 .413.07.638.146l.038.013c.69.23 1.403.417 2.117.556l.129.025c.572.11.95.182 1.263.604M64.256 21.404c-.167 0-.34-.076-.502-.226-.301-.279-.283-.887.056-1.859a.257.257 0 1 1 .484.17c-.32.92-.244 1.265-.192 1.313.132.122.176.085.2.065.16-.135.245-.613.103-.831a.256.256 0 1 1 .43-.28c.272.42.167 1.192-.204 1.504a.574.574 0 0 1-.375.144" fill="#253151"/>
    </g>
</svg>
