<svg width="200" height="200" viewBox="0 0 200 200" xmlns="http://www.w3.org/2000/svg" xmlns:xlink="http://www.w3.org/1999/xlink">
    <defs>
        <path id="1j9s5pby8a" d="M0 0h28.445v8.229H0z"/>
        <path id="ok63rkp7rc" d="M0 0h25.346v4.212H0z"/>
    </defs>
    <g fill="none" fill-rule="evenodd">
        <path d="M40.402 150.17c0-1.296.786-2.454 1.527-3.332 3.934-4.538 8.564-15.55 10.876-24.113.279-1.064.279-3.564.51-5.74.277-2.684.88-5.228 1.667-8.098.925-3.518 2.961-6.387 4.164-7.405 2.268-1.898 4.72-3.101 7.683-3.517 3.333-.463 7.961.184 11.755.879 1.852.37 4.814.925 6.434-.14.507-.323 1.204-3.61 2.59-3.054 4.397 1.76 17.725-.786 21.336-.786.232 0 1.575 1.018 2.315 2.731.693 1.71.786 4.21 1.063 4.21.834.047 2.639.926 3.426 1.065 2.638.416 11.06.231 13.421.416 3.703.324 11.523 2.778 13.375 5.647 1.202 1.897 2.73 5.23 2.917 7.821.278 3.702-.187 7.728-.14 11.618.046 5.969.462 13.466.462 19.622 0 4.953.789 13.236 1.667 15.736.277.786 2.962.972 2.916 1.665-.14 2.269 3.332 9.951 2.638 15.459-.277 2.082-2.545 5.09-3.748 5.645-1.112.509-7.685 1.297-9.303.788-.972-.326-1.621-1.666-2.407-2.222-1.99-1.343-4.12-1.065-5.323-2.222-1.342-1.249-2.13-3.286-2.175-2.174-.046 1.11-.602 6.712-.278 11.2.278 3.887.972 7.173.972 7.173s-15.133 1.435-31.564 1.435c-16.427-.047-34.155-1.573-34.155-1.573s.184-9.766 0-18.05c-.23-8.794-.879-16.985-.787-16.43.047.185-1.063 2.5-2.313 4.673-1.204 2.13-2.498 4.027-2.777 4.72-1.017 2.454-4.86 4.075-5.23 3.982-1.85-.277-4.582-2.638-5.692-3.84-.694-.741-3.194-5.971-3.748-6.758-.604-.788-.694-2.453-1.158-3.286-.51-.88-1.527-1.11-1.943-2.037-.555-1.296-.046-5.416-.37-6.756-.231-1.203-.603-3.564-.603-4.952" fill="#006986"/>
        <path d="M145.229 167.617c1.388-.277 3.749-1.11 6.803-2.591 2.22-1.065 5.369-2.824 7.821-4.074 2.407-1.202 5.044-1.805 7.914-2.175 3.564-.416 7.268-.37 8.702-.37.74 0 3.1-.786 4.905-1.157 1.111-.23 1.944-.184 2.222-.046.972.417.741 1.899-.278 2.777-.138.093-1.758 1.666-2.915 2.036-1.897.648-3.887.28-5.925 1.11-1.757.742-2.546 1.344-2.592 1.899-.092.785 2.176 1.156 4.86 1.573 2.5.37 5.785.648 6.758.648.092 0 3.47.046 6.478-.138 1.99-.093 3.471-.464 4.906-.37 1.11.092 1.852.462 1.759.74-.186.416-.601.879-1.203 1.433-.417.371-.324 1.203-.878 1.621-.51.37-2.222 1.389-2.826 1.759-.507.323-2.313 2.13-2.867 2.453-1.39.786-4.12 1.898-5.555 2.5-.556.23-1.157.184-1.713.37-.924.323-1.85.832-2.59 1.11-3.01.97-4.953 1.34-6.481 1.34-2.267 0-5.691-.508-9.117-1.063-1.85-.323-2.96-.555-5.555-.971-.277-.046-2.034 1.017-3.516 1.804-1.943 1.02-3.934 2.36-5.832 3.332-1.803.927-3.562 1.529-3.795 1.39-1.065-.695-2.312-4.953-2.128-8.933.138-4.12 1.804-7.867 2.638-8.007" fill="#FAD8C9"/>
        <path d="M79.001 65.567c0-2.174.741-5.738 2.36-7.636.739-.879 2.776-2.128 3.794-2.822.743-.557 2.038-.927 2.454-2.268.139-.509 2.406-3.61 5.135-4.953 3.24-1.62 4.167-1.434 6.575-1.434 2.313 0 5.691.786 7.728 2.453 1.296 1.064 3.517 1.25 5.415 2.081 1.156.51 2.268 1.483 2.73 2.5.279.602.046 1.203.833 2.407.741 1.25 2.221 3.518 2.221 5.924 0 1.944-.507 7.776-.463 10.507 0 1.017-.741 2.73-1.157 3.47-2.545 4.49-11.476 3.98-16.382 3.98-5.97 0-15.597-.324-19.438-5.923C79.833 72.37 79 67.188 79 65.567" fill="#4A4A69"/>
        <path d="M79.973 76.861c0-.742.555-2.222.97-2.593.51-.462.925.464 1.342 1.25.141.231 1.02-.278 1.344-1.48.555-2.084 1.389-4.49 2.593-6.388 1.017-1.619 2.867-2.127 3.145-2.221 3.425-.833 2.546-1.573 6.664-1.573 1.066 0 5.786.878 8.193 2.036 1.34.648 4.396 2.545 6.34 4.813 1.296 1.48 1.851 3.332 2.13 4.257.6 2.037 1.897-.786 3.1-1.017.694-.14 1.62 1.619 1.62 3.1 0 1.48-.326 3.472-1.39 5.415-.74 1.343-1.34 2.268-2.82 3.24-.974.601-1.02 1.805-1.667 3.286-.417.926-.742 2.037-1.296 3.008-.65 1.158-1.436 2.222-1.62 3.008-.14.556.184 1.805.509 2.917.277.925.601 1.711.324 2.22-.371.603-2.267 2.639-3.89 4.305-2.359 2.406-4.625 4.628-5.182 5.136-.694.556-.37 3.009-1.157 3.009-.74 0-2.963-5.739-3.655-6.248-.741-.555-3.193-1.758-5.461-3.193-1.297-.833-2.87-1.943-3.24-2.5-.186-.276.416-1.25.555-2.59.138-1.53-.185-3.472-.324-3.795-.417-.928-1.344-2.87-1.945-4.676-.647-1.85-1.018-3.563-1.202-3.61-.926-.323-2.64-1.804-3.332-3.517-.879-2.175-.648-3.795-.648-5.599" fill="#FAD8C9"/>
        <path d="m42.393 122.448-39.108-3.61.555-1.483 5.74-2.081s1.341-.093 2.036.138c.695.232 36.006 3.888 36.006 3.888l-.138 1.621-5.09 1.527z" fill="#F0CCC9"/>
        <path d="M40.725 129.852c-.047-.046-.971.14-1.989.093-.694-.047-1.25-.325-2.176-.278-1.341.093-2.497.694-4.396.509-1.898-.185-4.673-1.249-6.756-1.62-1.76-.325-3.564-.602-5.23-1.157-1.667-.556-4.953-2.685-7.036-4.35-1.711-1.388-2.821-2.592-3.054-2.778-.739-.647 1.481-1.295 2.869-.74.65.278 1.899.51 3.146 1.296 2.176 1.343 4.723 3.424 6.434 3.609.37.047.093-2.313-.462-4.535-.51-2.083-1.295-4.026-1.482-5.691-.092-1.066.927-1.76 1.158-1.76.786-.092 2.313 2.128 3.101 3.148.185.23.139-2.269 1.018-2.685.833-.416 2.592 1.156 3.146 2.176 1.113 2.083 2.362 6.431 2.362 6.431l5.23.372s-.094-1.62-.373-2.453c-.785-2.267-.83-3.75-.785-4.303.046-.464 1.713-.558 2.592.693.972 1.388 1.526 4.072 2.36 5.508.417.74 1.157.925 1.62.925 1.11 0 4.674-1.667 4.674-1.667s.88-.878 1.481-.508c.833.508 2.453 1.944 3.61 3.887 1.759 3.008 3.008 6.942 3.008 8.516 0 2.915 3.334 14.949 2.73 15.922-.693 1.017-4.72 3.284-7.96 3.886-4.118.741-7.589-.509-7.496-1.342.232-2.082.879-12.126-.047-17.818a9.791 9.791 0 0 0-1.297-3.286" fill="#FAD8C9"/>
        <path d="M98.282 101.723c-.17 0-.339-.003-.512-.011-7.325-.29-12.732-7.289-14.46-18.72a66.622 66.622 0 0 0-.307-1.77c-.313-1.751-.67-3.736-.67-5.01a.462.462 0 1 1 .925 0c0 1.191.365 3.219.658 4.845.12.666.232 1.286.307 1.795 1.66 10.959 6.737 17.664 13.585 17.936 6.743.286 12.177-5.602 14.574-15.75l.063-.29c.504-2.284 1.13-5.127 1.173-7.388a.464.464 0 0 1 .463-.453h.008c.257.005.46.216.456.471-.046 2.35-.684 5.246-1.197 7.57l-.063.295c-2.452 10.37-8.033 16.48-15.003 16.48" fill="#253151"/>
        <path d="M84 86.349a.493.493 0 0 1-.163-.029c-2.345-.868-4.326-4.691-4.326-8.35l-.002-.275c-.008-1.064-.021-2.67.877-3.568.31-.31.698-.408 1.096-.282.702.224 1.262 1.136 1.354 1.689a.462.462 0 1 1-.912.153c-.048-.276-.43-.866-.724-.961-.043-.014-.08-.025-.16.055-.622.623-.612 1.997-.606 2.908l.002.282c0 3.251 1.74 6.748 3.724 7.48a.462.462 0 0 1 .272.595.462.462 0 0 1-.433.303M112.83 86.349a.463.463 0 0 1-.073-.92c1.553-.259 3.732-3.642 4.056-7.222.163-1.62.094-2.672-.204-3.131-.233-.343-.469-.5-.694-.458-.44.08-.967.817-1.152 1.606a.463.463 0 0 1-.9-.209c.237-1.017.96-2.137 1.883-2.308.352-.065 1.029-.038 1.634.857.56.864.484 2.448.355 3.73-.349 3.848-2.65 7.684-4.827 8.048a.539.539 0 0 1-.077.007" fill="#253151"/>
        <path d="M113.76 82.09a.463.463 0 0 1-.448-.582c.406-1.529 1.514-2.858 2.403-3.927a.464.464 0 0 1 .654-.058c.195.164.22.454.058.653-.83.998-1.868 2.239-2.224 3.57a.458.458 0 0 1-.444.344M98.16 87.413a.466.466 0 0 1-.333-.787c1.018-1.043.787-1.532.324-2.507-.183-.39-.39-.83-.53-1.356-.315-1.315.092-3.173.635-4.257a.464.464 0 0 1 .828.413c-.467.93-.816 2.58-.566 3.619.113.434.295.815.468 1.183.478 1.007.97 2.048-.494 3.552a.465.465 0 0 1-.331.14M96.031 63.994a.465.465 0 0 1-.433-.298c-.61-1.614.683-3.288 1.456-4.29 1.665-2.134 4.757-2.053 7.486-1.979 1.039.028 2.02.054 2.817-.049a.463.463 0 1 1 .118.919c-.867.111-1.883.084-2.96.055-2.51-.065-5.354-.142-6.728 1.623-.654.845-1.75 2.262-1.323 3.392a.46.46 0 0 1-.433.627M111.717 67.1c-2.049 0-3.746-.828-5.389-1.63-1.196-.586-2.328-1.138-3.585-1.393-1.617-.354-2.919-.537-3.809.536a.462.462 0 1 1-.714-.59c1.32-1.594 3.282-1.164 4.714-.852 1.366.277 2.605.882 3.8 1.466 1.694.828 3.3 1.608 5.246 1.533a.476.476 0 0 1 .482.443.467.467 0 0 1-.445.482c-.1.003-.202.005-.3.005M112.877 75.657a.464.464 0 0 1-.448-.349c-.67-2.626-1.871-4.426-3.676-5.5a.463.463 0 0 1 .473-.797c2.026 1.207 3.369 3.192 4.1 6.07a.46.46 0 0 1-.45.576M86.313 64.04a.46.46 0 0 1-.422-.274.46.46 0 0 1 .234-.61c2.134-.948 4.408-1.733 6.71-.044.205.152.25.44.1.647a.464.464 0 0 1-.647.1c-1.906-1.398-3.825-.731-5.788.141a.454.454 0 0 1-.187.04M83.537 75.102a.462.462 0 0 1-.447-.584l.038-.142c.698-2.565 1.359-4.988 3.056-7.107l.22-.268c.742-.898 1.76-2.128 3.148-2.128a.462.462 0 1 1 0 .925c-.954 0-1.773.994-2.433 1.792l-.219.266c-1.57 1.96-2.205 4.294-2.878 6.764l-.038.14a.466.466 0 0 1-.447.342M80.111 71.908a.467.467 0 0 1-.43-.29c-1.649-4.1-1.644-10.4 1.615-13.997.685-.74 1.512-1.298 2.311-1.837.683-.461 1.327-.897 1.875-1.427a.463.463 0 0 1 .643.667c-.607.586-1.314 1.064-1.998 1.525-.79.537-1.54 1.04-2.148 1.698-3.003 3.314-2.983 9.187-1.438 13.026a.462.462 0 0 1-.43.635" fill="#253151"/>
        <g transform="translate(87.024 46)">
            <mask id="e2izk02kxb" fill="#fff">
                <use xlink:href="#1j9s5pby8a"/>
            </mask>
            <path d="M.492 8.229a.463.463 0 0 1-.452-.363c-.193-.87.346-1.694.78-2.357.089-.135.173-.263.247-.387C2.4 3.019 5.35 1.432 7.47.709c3.102-1.048 6.615-.932 9.896.332.844.329 1.594.778 2.318 1.214.764.46 1.485.893 2.3 1.188.557.209 1.08.373 1.583.531 1.849.582 3.447 1.085 4.805 3.22a.462.462 0 1 1-.78.497c-1.176-1.85-2.488-2.264-4.302-2.834-.515-.162-1.05-.33-1.625-.545-.896-.323-1.69-.802-2.46-1.264-.722-.434-1.402-.846-2.175-1.144C13.953.72 10.663.607 7.768 1.587c-2.136.727-4.791 2.252-5.913 4.02-.074.124-.167.264-.26.41-.356.543-.76 1.16-.651 1.649a.463.463 0 0 1-.452.563" fill="#253151" mask="url(#e2izk02kxb)"/>
        </g>
        <path d="M117.783 72.788a.464.464 0 0 1-.459-.41c-.091-.802.021-1.58.13-2.331.066-.455.13-.884.145-1.304.015-.373.035-.757.053-1.155.218-4.512.487-10.128-3.593-12.834a.463.463 0 1 1 .51-.773c4.519 2.999 4.224 9.156 4.006 13.652-.017.394-.037.777-.05 1.147-.02.468-.088.94-.155 1.398-.105.726-.204 1.412-.126 2.094a.463.463 0 0 1-.46.516M89.97 80.563c0-.926.554-1.713 1.248-1.713.695 0 1.25.787 1.25 1.713 0 .925-.555 1.712-1.25 1.712-.694 0-1.248-.787-1.248-1.712M103.762 80.98c0-.926.554-1.713 1.248-1.713s1.252.787 1.252 1.713c0 .925-.558 1.711-1.252 1.711s-1.248-.786-1.248-1.711M83.49 82.413a.464.464 0 0 1-.419-.261 24.09 24.09 0 0 1-.27-.599c-.43-.963-.836-1.872-1.707-2.228a.463.463 0 1 1 .35-.856c1.215.494 1.738 1.67 2.2 2.707.087.195.173.388.262.576a.46.46 0 0 1-.416.661M87.239 100.095a.466.466 0 0 1-.443-.6c.524-1.704.262-3.452-.015-5.301l.916-.14-.458.07.458-.07c.28 1.872.57 3.807-.016 5.711-.06.2-.244.33-.442.33M109.591 99.908a.465.465 0 0 1-.406-.241c-.602-1.115-1.21-3.433-.777-4.888a.46.46 0 0 1 .574-.312c.248.072.387.33.312.574-.314 1.067.113 3.09.704 4.184a.462.462 0 0 1-.407.683" fill="#253151"/>
        <path d="M99.457 113.56a.444.444 0 0 1-.153-.025c-.804-.279-1.455-1.732-2.358-3.919-.357-.856-.722-1.742-.964-2.077-1.117-1.557-2.81-2.409-4.601-3.31-1.59-.8-3.235-1.63-4.443-2.996-.432-.481-1.09-2.93-.492-3.853.251-.39.678-.522 1.166-.367.243.08.377.341.298.585a.462.462 0 0 1-.582.299c-.077-.026-.11-.02-.11-.02-.304.284.112 2.364.413 2.742 1.09 1.235 2.585 1.988 4.167 2.784 1.813.91 3.688 1.854 4.933 3.594.306.42.659 1.275 1.07 2.265.345.837.91 2.206 1.372 2.928.004-.022.005-.041.006-.054.022-.139.036-.246.05-.352.075-.541.155-1.1.416-1.622.496-1.069 1.325-1.935 2.13-2.773.212-.224.425-.444.625-.665.771-.878 1.72-1.714 2.725-2.598 1.554-1.368 3.166-2.783 4.013-4.345.354-.653.577-1.72.29-2.411a1.041 1.041 0 0 0-.708-.628.46.46 0 0 1-.312-.573.462.462 0 0 1 .575-.314c.609.178 1.057.58 1.3 1.158.418 1.01.123 2.372-.33 3.207-.928 1.71-2.601 3.18-4.216 4.602-.983.864-1.91 1.68-2.648 2.519-.21.233-.429.46-.647.69-.752.782-1.528 1.591-1.963 2.53-.2.4-.263.862-.332 1.35-.012.1-.027.2-.042.3-.005.295-.06 1.35-.648 1.35" fill="#253151"/>
        <path d="M89.599 114.024a.533.533 0 0 1-.09-.01c-.384-.075-.473-.25-1.193-3.055-.149-.576-.336-1.294-.389-1.421a44.566 44.566 0 0 0-.697-1.763c-1.526-3.728-4.084-9.965-.57-12.28a.463.463 0 0 1 .51.773c-2.878 1.896-.502 7.693.915 11.156.285.69.53 1.287.7 1.77.068.149.192.631.425 1.534.147.573.362 1.397.526 1.957.086-.119.166-.233.218-.312.149-.211.213-.304.261-.36.133-.17.353-.547.606-.982 1.155-1.978 2.203-3.622 3.342-3.7.288-.02.705.058 1.076.53a.462.462 0 1 1-.728.571c-.147-.186-.246-.18-.285-.177-.74.051-1.999 2.208-2.605 3.243-.287.495-.516.884-.688 1.1a.465.465 0 0 1-.035.04l-.184.264c-.639.923-.806 1.122-1.115 1.122M108.335 112.582a.595.595 0 0 1-.362-.132c-.437-.336-.895-1.027-1.425-1.824-.732-1.11-1.737-2.626-2.561-2.759-.129-.02-.327-.023-.587.18a.462.462 0 0 1-.65-.078.462.462 0 0 1 .077-.65c.405-.318.843-.44 1.306-.366 1.225.198 2.267 1.773 3.187 3.16.14.213.281.425.42.626a1.182 1.182 0 0 1 .003-.182c.093-1.308.378-2.184 1.084-3.347 2.514-4.218 4.289-8.56.294-11.705a.462.462 0 0 1-.078-.649.465.465 0 0 1 .651-.079c4.569 3.596 2.527 8.546-.075 12.912-.638 1.05-.87 1.763-.954 2.943-.013.149.05.474.098.711.11.549.187.945-.157 1.162a.522.522 0 0 1-.27.077" fill="#253151"/>
        <path d="m52.852 123.233-.048-.001a.464.464 0 0 1-.412-.509c.074-.71.144-1.432.214-2.161.973-10.035 2.078-21.409 14.679-22.872 2.945-.365 6.172.124 9.292.596 1.334.2 2.593.39 3.813.514.234.022.48.055.736.087 1.203.153 2.566.327 3.46-.402a.464.464 0 0 1 .585.718c-1.203.979-2.842.77-4.161.6-.246-.029-.483-.06-.712-.082-1.246-.126-2.516-.317-3.86-.522-3.056-.46-6.219-.94-9.043-.59-11.864 1.378-12.928 12.356-13.868 22.04-.07.735-.14 1.459-.214 2.17a.464.464 0 0 1-.46.414M147.497 164.146a.457.457 0 0 1-.39-.215c-1.376-2.163-1.734-14.135-2.008-27.272-.063-3.09-.119-5.76-.194-7.528-.07-1.731.017-3.55.1-5.312.253-5.214.51-10.608-3.176-14.765-4.457-5.018-11.576-5.21-17.855-5.377l-.742-.02c-.426-.007-.95 0-1.536.007-3.185.042-8.004.107-9.85-1.866a.462.462 0 1 1 .676-.632c1.568 1.673 6.326 1.61 9.16 1.573a60.341 60.341 0 0 1 1.571-.008l.745.021c6.468.174 13.797.37 18.522 5.688 3.937 4.44 3.672 10.022 3.412 15.424-.086 1.74-.17 3.54-.103 5.228.077 1.778.133 4.45.196 7.547.193 9.229.512 24.671 1.862 26.796a.463.463 0 0 1-.39.711M64.977 198.44c-.016 0-.034 0-.054-.002a.463.463 0 0 1-.405-.515c.768-6.466-.46-34.906-1.05-48.573-.081-1.902-.152-3.522-.202-4.762-.047-1.233-.066-2.519-.087-3.881-.1-6.664-.21-14.22-3.676-19.343a.462.462 0 1 1 .766-.518c3.621 5.352 3.734 13.053 3.836 19.847.02 1.356.04 2.637.085 3.858.051 1.238.123 2.857.203 4.759.59 13.691 1.821 42.183 1.044 48.722a.462.462 0 0 1-.46.409" fill="#253151"/>
        <path d="M130.604 199.413a.465.465 0 0 1-.445-.343c-1.748-6.42-.277-24.33.797-37.407.443-5.382.824-10.032.851-12.425.085-6.97.202-16.513 5.28-23.137a.462.462 0 1 1 .735.562c-4.89 6.381-5.007 15.746-5.089 22.586-.027 2.425-.41 7.09-.855 12.49-1.068 13.01-2.53 30.827-.828 37.09a.464.464 0 0 1-.446.584M99.364 199.273a.458.458 0 0 1-.46-.44c-1.21-24.36-.212-82.826-.05-85.714a.464.464 0 0 1 .926.052c-.163 2.883-1.161 61.282.046 85.616a.463.463 0 0 1-.438.486h-.024z" fill="#253151"/>
        <path d="M148.05 186.552c-1.98 0-4.223-1.233-5.115-4.127-1.187-3.859-1.619-9.885 1.067-14.174.305-.482 1.888-2.897 3.373-3.302.463-.125 1.086-.088 1.666-.026-1.083-.445-2.624-.355-4.595.277a2.43 2.43 0 0 1-.356.098 44.13 44.13 0 0 1-1.895.259c-3.347.411-7.14.877-8.138 4.228a.46.46 0 0 1-.576.31.46.46 0 0 1-.312-.572c1.172-3.934 5.464-4.461 8.913-4.885.662-.082 1.291-.158 1.869-.254.033-.008.109-.033.213-.068 3.087-.988 5.306-.742 6.597.728.246.307.13.568.09.642-.208.368-.622.317-1.45.214-.574-.072-1.365-.171-1.782-.058-.834.227-2.051 1.664-2.831 2.902-2.36 3.766-2.187 9.448-.967 13.409.71 2.303 2.514 3.659 4.599 3.455 1.652-.163 3.7-1.494 4.031-4.709a.465.465 0 0 1 .507-.413.46.46 0 0 1 .413.509c-.388 3.77-2.86 5.337-4.859 5.535a5.048 5.048 0 0 1-.462.022" fill="#253151"/>
        <path d="M141.137 188.028c-.937 0-1.943-.15-2.528-.927-3.436-4.534-2.76-12.06-1.134-17.126l.156-.477c.473-1.442 1.009-3.077 2.074-4.23a.462.462 0 1 1 .68.627c-.929 1.006-1.43 2.54-1.873 3.892l-.156.475c-1.555 4.85-2.23 12.028.992 16.282.486.647 1.737.578 2.649.527l.294-.015c.354-.012.724-.02 1.11-.026 2.468-.044 5.538-.098 7.092-1.728a.463.463 0 0 1 .67.637c-1.822 1.91-5.106 1.969-7.745 2.016-.38.007-.746.014-1.088.024l-.281.017c-.283.014-.594.032-.912.032" fill="#253151"/>
        <path d="M137.87 185.806a.507.507 0 0 1-.135-.02c-2.91-.882-6.893-2.09-7.948-6.11a.462.462 0 1 1 .894-.236c.923 3.522 4.474 4.596 7.324 5.46a.463.463 0 0 1-.135.906M145.23 185.13c-.12 0-.237-.007-.346-.023a.466.466 0 0 1-.391-.526.468.468 0 0 1 .528-.391c1.341.207 4.107-1.604 6.542-3.198 2.254-1.478 4.385-2.872 5.897-3.14a.463.463 0 1 1 .158.912c-1.322.233-3.472 1.64-5.547 3.002-2.637 1.726-5.138 3.365-6.84 3.365M46.878 152.97c-.771 0-1.53-.068-2.265-.218-1.415-.265-3.22-1.267-3.913-2.672-.404-.821-.393-1.695.03-2.528a.464.464 0 0 1 .824.421c-.29.57-.298 1.14-.023 1.699.55 1.12 2.091 1.954 3.26 2.171 3.883.796 8.681-.94 11.5-2.888 1.172-.808 2.41-2.413 2.4-3.79-.007-.723-.36-1.323-1.051-1.785a.461.461 0 0 1-.129-.641.464.464 0 0 1 .643-.129c.947.633 1.452 1.514 1.463 2.548.014 1.795-1.443 3.622-2.8 4.558-2.532 1.75-6.347 3.254-9.94 3.254" fill="#253151"/>
        <path d="M47.646 165.177c-2.291 0-4.47-.566-6.043-2.139-1.128-1.127-1.07-3.513-1.015-5.617.027-1.076.052-2.094-.084-2.763-.077-.411-.164-.81-.247-1.205-.493-2.26-1-4.598 1.067-6.665a.463.463 0 0 1 .655.654c-1.71 1.71-1.298 3.613-.82 5.816.089.403.178.81.253 1.223.157.764.13 1.831.1 2.962-.045 1.92-.103 4.096.745 4.94 3.537 3.537 11.39 1.318 15.51-.911l.363-.196c1.444-.778 3.079-1.658 3.536-3.143.503-1.628-.161-3.725-.805-5.752-.294-.93-.574-1.812-.733-2.633-.107-.53-.155-1.205-.209-1.92-.101-1.426-.227-3.198-.894-3.977-.165-.196-.433-.306-.745-.432-.361-.146-.774-.315-1.094-.665a.462.462 0 1 1 .68-.626c.181.197.465.311.763.433.374.15.795.324 1.104.694.86 1.003.994 2.864 1.11 4.507.05.685.096 1.333.193 1.807.151.772.422 1.626.708 2.532.653 2.063 1.394 4.4.806 6.304-.566 1.847-2.46 2.867-3.98 3.685l-.36.195c-2.008 1.087-6.467 2.892-10.564 2.892" fill="#253151"/>
        <path d="M61.275 164.563a.463.463 0 0 1-.434-.62c.165-.459.46-2.59.283-3.175a.466.466 0 0 1-.426-.31.467.467 0 0 1 .285-.59.714.714 0 0 1 .768.166c.772.783.032 4.02-.041 4.225a.463.463 0 0 1-.435.304" fill="#253151"/>
        <path d="M54.037 178.141c-1.293 0-2.74-.643-4.173-1.89-2.43-2.15-3.723-4.671-5.16-7.743-.12-.26-.264-.536-.411-.827-.522-1.01-1.114-2.155-1.114-3.257a.462.462 0 1 1 .925 0c0 .877.535 1.916 1.01 2.832.157.304.308.594.43.862 1.39 2.97 2.636 5.407 4.93 7.437.866.752 3.081 2.393 4.915 1.292 3.619-2.107 5.305-5.931 6.937-9.627.448-1.014.911-2.064 1.405-3.05a.46.46 0 0 1 .62-.205c.23.113.32.392.208.618a70.01 70.01 0 0 0-1.386 3.01c-1.692 3.832-3.44 7.795-7.311 10.051a3.51 3.51 0 0 1-1.825.497M42.16 150.956c-.01 0-.02 0-.031-.002a.461.461 0 0 1-.43-.492 98.605 98.605 0 0 0 0-13.821 33.77 33.77 0 0 1-.058-1.204c-.062-1.721-.143-3.865-1.085-5.014a.46.46 0 0 1 .062-.65.458.458 0 0 1 .65.063c1.145 1.39 1.23 3.705 1.297 5.567.018.422.031.818.056 1.172a99.04 99.04 0 0 1 0 13.95.46.46 0 0 1-.46.43M57.618 148.317a.463.463 0 0 1-.46-.418c-.171-1.89-.596-3.674-1.046-5.565-.145-.606-.29-1.215-.426-1.83-.254-1.14-.471-2.493-.703-3.928-.948-5.839-2.123-13.108-6.718-15.812a.463.463 0 0 1 .472-.799c4.965 2.926 6.183 10.43 7.158 16.464.232 1.42.448 2.763.694 3.876.136.61.28 1.212.424 1.815.438 1.838.888 3.738 1.066 5.692a.462.462 0 0 1-.418.504l-.043.001M41.511 128.28a.464.464 0 0 1-.306-.119c-.336-.298-.797-.5-1.287-.716-.605-.267-1.231-.54-1.669-1.035-1.35-1.546-1.846-3.791-2.285-5.773-.118-.533-.233-1.055-.36-1.544-.036-.13-.105-.32-.18-.533-.385-1.098-.913-2.606-.32-3.484.167-.25.507-.557 1.156-.588 2.271-.102 3.22 2.767 3.978 5.08.357 1.09.691 2.118 1.078 2.584.22.276.512.267 1.126.176.222-.032.456-.067.69-.067 1.577 0 3.362 0 4.856.847a.463.463 0 1 1-.456.807c-1.282-.728-2.937-.728-4.4-.728-.167 0-.356.027-.558.056-.594.088-1.408.206-1.977-.507-.49-.596-.838-1.655-1.24-2.88-.692-2.12-1.48-4.534-3.052-4.445-.324.016-.403.138-.433.182-.333.495.18 1.956.427 2.66.08.235.154.44.198.596.135.512.25 1.043.372 1.587.432 1.965.881 3.997 2.075 5.363.304.34.81.563 1.347.799.533.234 1.085.475 1.53.873a.463.463 0 0 1-.31.808" fill="#253151"/>
        <path d="M38.714 130.403c-1.479 0-2.697-.509-4.244-1.157-.475-.198-.983-.41-1.547-.628a15.548 15.548 0 0 0-1.145-.368c-1.117-.331-2.383-.706-3.097-1.458-.856-.898-1.278-2.546-1.619-3.87-.1-.395-.195-.765-.293-1.079-.24-.725-.512-1.47-.773-2.189-.53-1.458-1.078-2.965-1.454-4.502-.16-.708.025-1.537.454-2.071.331-.413.776-.63 1.29-.63 1.255 0 2.224 1.416 2.803 2.261l.077.116c.895 1.304 1.35 2.83 1.79 4.306.487 1.627.945 3.162 1.934 4.36.623.743 1.902 1.086 3.135 1.417.925.248 1.796.48 2.483.886.22.13.293.413.164.633a.459.459 0 0 1-.632.164c-.58-.34-1.394-.558-2.255-.788-1.371-.37-2.794-.75-3.605-1.719-1.113-1.346-1.62-3.045-2.11-4.688-.421-1.407-.856-2.863-1.666-4.05l-.08-.114c-.442-.65-1.27-1.86-2.037-1.86a.697.697 0 0 0-.569.285c-.25.312-.37.862-.277 1.282.363 1.477.904 2.96 1.426 4.396.262.724.536 1.476.785 2.222.103.336.202.721.306 1.135.315 1.218.702 2.735 1.394 3.46.542.57 1.684.909 2.69 1.207.438.13.852.252 1.214.392.574.22 1.089.437 1.57.64 2.43 1.015 3.77 1.573 6.618.516a.462.462 0 1 1 .323.867c-1.195.444-2.17.626-3.053.626" fill="#253151"/>
        <path d="M33.507 130.76c-3.563 0-8.446-1.725-10.067-4.318-.83-1.297-1.132-2.964-1.424-4.574-.132-.741-.26-1.44-.433-2.077-.09-.348-.239-.784-.41-1.29-.63-1.854-1.494-4.392-.494-5.807.299-.426.718-.623 1.185-.56 1.71.235 3.58 4.072 3.703 4.42a.463.463 0 0 1-.874.309c-.264-.749-1.982-3.677-2.954-3.811-.062-.008-.166-.022-.302.174-.732 1.032.077 3.405.61 4.977.18.523.333.976.43 1.352.181.669.312 1.386.451 2.15.275 1.521.56 3.094 1.295 4.24 1.777 2.847 8.616 4.662 11.43 3.567a.466.466 0 0 1 .599.265.46.46 0 0 1-.265.598c-.674.264-1.53.386-2.48.386" fill="#253151"/>
        <path d="M26.102 129.112h-.009c-4.502-.085-8.43-1.73-12.737-5.337-.068-.06-.222-.174-.432-.332-2.447-1.842-3.27-2.683-3.255-3.328a.671.671 0 0 1 .295-.548c.99-.7 2.416-.706 4.353-.007 1.393.523 2.551 1.365 3.67 2.175 1.528 1.11 2.971 2.155 4.873 2.333a.462.462 0 1 1-.088.922c-2.153-.2-3.768-1.374-5.328-2.507-1.07-.774-2.176-1.578-3.447-2.055-1.493-.538-2.62-.605-3.35-.2.186.312.867.992 2.833 2.476.238.177.41.308.476.367 4.183 3.501 7.821 5.035 12.155 5.114a.463.463 0 0 1-.009.927" fill="#253151"/>
        <path d="M21.704 120.966c-.013 0-.03 0-.044-.003l-6.111-.6a.466.466 0 0 1-.416-.506.467.467 0 0 1 .509-.417l6.11.601a.466.466 0 0 1 .414.508.465.465 0 0 1-.462.417M36.054 122.308c-.015 0-.031 0-.047-.003l-4.35-.414a.467.467 0 0 1-.417-.506.46.46 0 0 1 .505-.416l4.352.416a.462.462 0 0 1-.043.923M42.115 122.91a.407.407 0 0 1-.048-.003l-.88-.093a.463.463 0 1 1 .097-.92l.781.083 3.251-1.056-4.87-.514a.46.46 0 0 1-.411-.508.46.46 0 0 1 .508-.41l7.035.74a.461.461 0 0 1 .094.899l-5.414 1.76a.472.472 0 0 1-.143.022M35.822 119.901c-.017 0-.034 0-.05-.003l-4.721-.509a.462.462 0 1 1 .1-.92l4.719.509a.462.462 0 0 1-.048.923M10.412 119.901l-.044-.001-6.802-.65a.461.461 0 0 1-.1-.9l6.528-2.084a.446.446 0 0 1 .19-.017l10.829 1.156c.254.026.439.256.41.509a.46.46 0 0 1-.507.41l-10.733-1.145-4.28 1.365 4.553.434a.462.462 0 0 1-.044.923" fill="#253151"/>
        <path d="M47.484 121.243a.465.465 0 0 1-.416-.669c.143-.288.243-.665.223-.81l-7.45-.838a.46.46 0 0 1-.406-.512.465.465 0 0 1 .51-.408l7.451.835a.875.875 0 0 1 .7.446c.315.58-.072 1.447-.2 1.7a.46.46 0 0 1-.412.256zM35.267 118.374c-.019 0-.036 0-.055-.003l-4.905-.555a.463.463 0 0 1 .104-.92l4.905.555a.462.462 0 0 1-.05.923M3.609 119.254a.473.473 0 0 1-.249-.072.763.763 0 0 1-.351-.55c-.088-.607.524-1.364.716-1.58a.432.432 0 0 1 .168-.122c.495-.21 4.892-2.026 6.242-2.026.747 0 3.776.306 7.968.732l1.937.196a.46.46 0 0 1 .412.506.46.46 0 0 1-.506.414l-1.936-.196c-4.01-.407-7.177-.727-7.875-.727-.868 0-3.89 1.126-5.78 1.91-.21.26-.392.566-.424.717a.466.466 0 0 1-.322.798M172.224 180.52c-3.074 0-6.084-.607-9.037-1.204a33.024 33.024 0 0 0-1.594-.242c-1.591-.215-3.396-.461-4.476-1.11a.461.461 0 1 1 .474-.792c.919.549 2.624.78 4.127.984.602.082 1.17.16 1.649.253 5.063 1.02 10.298 2.078 15.613-.067 1.608-.65 2.842-1.658 4.146-2.725.57-.463 1.155-.94 1.774-1.386.604-.472 1.079-1.039 1.09-1.31.001-.027 0-.034-.025-.059-.995-.926-2.956.069-4.255.731-.24.123-.46.234-.649.322-.523.246-1.001.482-1.445.704-2.697 1.341-4.324 2.151-8.041.647a.463.463 0 0 1 .346-.859c3.33 1.347 4.65.692 7.28-.618.452-.223.934-.464 1.468-.713.183-.086.392-.192.62-.308 1.53-.778 3.839-1.955 5.307-.583a.979.979 0 0 1 .32.777c-.035.814-1.034 1.676-1.463 2.01-.608.438-1.183.908-1.741 1.363-1.302 1.062-2.647 2.163-4.384 2.865-2.406.97-4.774 1.32-7.104 1.32" fill="#253151"/>
        <path d="M181.698 178.077a.463.463 0 0 1-.08-.919c2.439-.435 8.568-3.09 9.622-5.853-.165-.154-.777-.356-1.177-.405-1.25-.043-2.26.639-3.318 1.348-.194.13-.388.26-.584.386a.462.462 0 1 1-.5-.778c.192-.122.378-.25.568-.377 1.132-.76 2.282-1.536 3.905-1.5.06.005 1.514.192 1.93.886.134.22.154.476.062.713-1.175 3.27-7.786 6.035-10.346 6.491a.506.506 0 0 1-.082.008zM177.763 174.192c-1.314 0-2.655-.247-3.714-.906a.464.464 0 0 1-.15-.637.465.465 0 0 1 .638-.148c1.6.995 4.023.886 5.754.452a.461.461 0 0 1 .56.338.461.461 0 0 1-.337.56c-.815.204-1.774.34-2.75.34" fill="#253151"/>
        <path d="M191.372 172.615a.463.463 0 0 1-.096-.916c.758-.158 3.297-1.829 3.338-2.403-.014.006-.072-.037-.216-.075-1.276-.343-3.04.268-4.746.861-1.023.356-1.991.692-2.844.817-3.196.456-7.208.563-10.472.28a.463.463 0 0 1 .08-.921c3.2.277 7.131.173 10.262-.275.762-.111 1.69-.434 2.67-.775 1.838-.64 3.737-1.301 5.292-.879.8.212.907.705.9.98-.037 1.322-3.313 3.137-4.074 3.297a.405.405 0 0 1-.094.009" fill="#253151"/>
        <g transform="translate(171.654 165.164)">
            <mask id="hrut8iv2dd" fill="#fff">
                <use xlink:href="#ok63rkp7rc"/>
            </mask>
            <path d="M23.79 4.212a.462.462 0 0 1-.259-.847c.679-.453.879-.793.89-.921 0-.017.004-.05-.066-.113-.7-.646-3.056-.245-4.619.02-.714.124-1.331.227-1.763.24C12.129 2.69 5.47 2.65.315.902A.463.463 0 1 1 .614.024C5.626 1.725 12.19 1.764 17.95 1.668c.364-.013.95-.112 1.631-.229 1.947-.331 4.37-.742 5.4.211.33.304.379.64.362.868-.042.528-.476 1.07-1.297 1.617a.475.475 0 0 1-.256.077" fill="#253151" mask="url(#hrut8iv2dd)"/>
        </g>
        <path d="M163.23 171.274a.46.46 0 0 1-.455-.402.46.46 0 0 1 .398-.52c3.196-.427 4.757-2.087 6.41-3.845 1.113-1.182 2.262-2.403 3.942-3.281 1.18-.63 2.574-.849 3.92-1.06 1.152-.183 2.239-.354 3.194-.76.8-.348 2.823-1.753 3.089-2.889a.733.733 0 0 0-.162-.689c-.572-.669-3.45.145-4.996.584-.963.273-1.723.488-2.178.503-.735.022-1.479.035-2.229.047-4.411.072-8.971.148-12.926 1.815-1.092.45-2.563 1.267-4.267 2.215-3.49 1.94-7.83 4.355-11.479 4.99a.464.464 0 0 1-.157-.913c3.493-.608 7.76-2.98 11.186-4.886 1.728-.962 3.223-1.793 4.36-2.259 4.116-1.735 8.77-1.813 13.269-1.889a162.33 162.33 0 0 0 2.214-.044c.34-.012 1.124-.235 1.953-.47 2.83-.802 5.064-1.333 5.955-.295.363.428.485.945.356 1.5-.359 1.549-2.706 3.132-3.623 3.53-1.064.453-2.258.642-3.415.823-1.33.209-2.585.407-3.634.967-1.543.805-2.637 1.97-3.697 3.094-1.692 1.8-3.441 3.66-6.966 4.13a.466.466 0 0 1-.062.004M104.067 75.669c-1.077 0-2.144-.15-3.156-.665a.461.461 0 1 1 .423-.823c1.482.756 3.24.585 4.937.418.73-.07 1.485-.145 2.21-.145a.462.462 0 1 1 0 .925c-.682 0-1.38.069-2.12.141-.76.074-1.529.149-2.294.149" fill="#253151"/>
        <path d="M100.568 75.98a.461.461 0 0 1-.391-.214l-.156-.24a1.98 1.98 0 0 1-.234-.452l-.107-.253a.464.464 0 0 1 .242-.609c.233-.1.507.008.608.245l.11.257c.081.195.081.195.153.303.037.056.09.132.166.252a.462.462 0 0 1-.391.711M95.291 72.325a.464.464 0 0 1-.328-.137c-1.092-1.094-2.455-1.695-3.722-1.638-1.027.043-1.954.52-2.677 1.379a.464.464 0 0 1-.709-.597c.896-1.061 2.054-1.651 3.345-1.708 1.53-.067 3.142.633 4.42 1.91a.462.462 0 0 1-.329.791M95.617 92.78a.464.464 0 0 1-.419-.261.464.464 0 0 1 .216-.617c1.483-.718 4.01-.764 5.732-.505a.463.463 0 1 1-.14.916c-1.634-.247-3.94-.183-5.19.421a.446.446 0 0 1-.2.047" fill="#253151"/>
        <path d="M51.16 69.908c.74-.323 1.388-.37 1.944-.138.555.23.971.555 1.203 1.018.23.462.277 1.018.14 1.572-.14.603-.603 1.112-1.297 1.528-.972.51-1.99.74-2.963.74-.971 0-1.85-.277-2.637-.74-.787-.462-1.435-1.11-1.944-1.944-.509-.88-.786-1.85-.786-3.01-.045-.738.046-1.571.277-2.497.185-.925.416-1.897.649-2.823.23-.971.369-1.898.507-2.777.139-.879.093-1.712-.138-2.406a3.204 3.204 0 0 0-1.249-1.667c-.65-.416-1.62-.555-2.917-.509-.092.047-.231.093-.323.14-.093.046-.231.092-.37.138-1.156 1.065-1.99 2.313-2.5 3.84-.508 1.53-.693 3.056-.647 4.629 0 .786-.232 1.435-.65 1.852-.415.415-.925.694-1.433.694-.556.046-1.065-.14-1.529-.556-.461-.37-.785-.971-.877-1.805-.048-1.203.092-2.452.324-3.795.232-1.295.6-2.546 1.157-3.75a14.68 14.68 0 0 1 1.943-3.192 7.953 7.953 0 0 1 2.684-2.174c1.018-.509 2.129-.742 3.333-.696 1.25.048 2.592.463 4.025 1.25.928.51 1.667 1.157 2.175 1.897.51.742.88 1.575 1.157 2.454.232.879.37 1.804.326 2.73-.048.926-.14 1.897-.372 2.87-.046.324-.232.879-.462 1.573a18.01 18.01 0 0 0-.556 2.269 6.897 6.897 0 0 0-.045 2.173c.091.65.415 1.112.924 1.39h.185a.424.424 0 0 0 .326-.14c.231-.045.323-.092.416-.138M53.844 80.553c-.509-.647-.74-1.39-.647-2.222.092-.832.461-1.48 1.11-2.036a3.198 3.198 0 0 1 2.222-.695c.832.093 1.526.464 2.034 1.112.51.647.743 1.388.65 2.266a3.107 3.107 0 0 1-1.112 2.084c-.646.509-1.388.74-2.22.647-.834-.092-1.482-.462-2.037-1.156M138.967 74.574c.6.51.972 1.058 1.05 1.648.076.588-.043 1.113-.33 1.545-.283.431-.736.703-1.354.879-.586.144-1.243.025-1.973-.418-.93-.635-1.602-1.405-2.01-2.247a5.194 5.194 0 0 1-.582-2.672c.045-.918.29-1.775.83-2.603.506-.862 1.308-1.567 2.278-2.111.614-.373 1.427-.684 2.37-.933.944-.25 1.855-.531 2.798-.78a25.193 25.193 0 0 0 2.667-.843c.877-.311 1.524-.718 2.07-1.221.513-.534.828-1.13.875-1.916.082-.756-.233-1.698-.91-2.796l-.235-.226a1.617 1.617 0 0 0-.331-.253c-1.453-.559-2.993-.69-4.56-.396a14.644 14.644 0 0 0-4.383 1.566c-.714.343-1.365.487-1.958.303-.594-.183-1.026-.47-1.297-.922-.271-.452-.347-.974-.263-1.598.118-.591.532-1.156 1.21-1.596 1.068-.58 2.203-1.096 3.472-1.482a17.437 17.437 0 0 1 3.847-.736 13.972 13.972 0 0 1 3.735.248 8.694 8.694 0 0 1 3.204 1.34c.93.636 1.67 1.536 2.185 2.672.548 1.1.805 2.503.775 4.14a6.393 6.393 0 0 1-.66 2.83c-.443.794-.984 1.56-1.624 2.16a8.96 8.96 0 0 1-2.258 1.553 14.61 14.61 0 0 1-2.697 1.008c-.326.071-.847.212-1.628.36-.752.115-1.532.329-2.246.606a7.819 7.819 0 0 0-1.945.957c-.548.371-.798.901-.785 1.49.034.096.068.128.101.16.067.13.167.16.268.256.096-.1.227-.037.294.028M130.81 81.947c.343-.76.887-1.327 1.668-1.607.78-.278 1.563-.294 2.324.05.76.344 1.328.888 1.672 1.667.343.777.326 1.532.015 2.323-.342.761-.887 1.33-1.7 1.64-.812.312-1.564.295-2.356-.016-.76-.343-1.328-.888-1.606-1.666-.377-.813-.362-1.63-.017-2.391" fill="#6883C1"/>
    </g>
</svg>
