<svg width="80" height="80" viewBox="0 0 80 80" xmlns="http://www.w3.org/2000/svg">
    <g fill="none" fill-rule="evenodd">
        <path d="M77.672 72.379c-4.307 1.227-7.554 1.947-9.741 2.162-2.648.26-6.292-.276-10.931-.276-8.574 0-21.112 1.443-38.016 1.005-1.983-.052-6.205-.503-12.665-1.354a1.166 1.166 0 0 1-.29-2.235l4.03-1.651c4.255-.465 12.674-.697 25.257-.697 12.318 0 26.424.223 42.32.668a1.06 1.06 0 0 1 1.03 1.06 1.37 1.37 0 0 1-.994 1.318z" fill="#000" opacity=".2"/>
        <path d="M6.087 39.393C6.033 41.3 6.44 42.72 7.31 43.65c.839.9 1.824 1.718 2.955 2.453a70.72 70.72 0 0 1 1.624 2.826c-.515-.386-1.03-.626-1.543-.721-1.427-.264-3.553.89-4.52.447-.967-.443.177 1.786 2.313 2.48 1.3.423 2.82.208 4.561-.643.524 1.053.938 2 1.242 2.84.263.728.52 1.483.769 2.261-.907-.45-2.581-1.257-3.47-1.539-1.26-.399-4.072-.88-5.18-.213-1.107.667.246.27 2.882 2.356 2.086 1.65 4.874.508 5.946-.04.336 1.079.658 2.2.967 3.36.135.504.266 1.01.393 1.517-1.24.189-2.485.081-3.736-.32-2.268-.73-3.648-2.086-4.306-1.7-.658.386-.188 1.084 1.997 3.055 1.344 1.212 3.383.968 6.118-.731.445 1.79.837 3.577 1.18 5.31l.152.788.137.738.178 1.008.081.492.743-.128-.11-.659-.088-.507-.131-.716-.146-.77a116.165 116.165 0 0 0-1.324-5.992l.032-.023a8.493 8.493 0 0 1-.038.01 79.641 79.641 0 0 0-.645-2.459c.845-.126 2.585-.563 3.896-2.071 1.798-2.069 1.18-3.68 1.383-4.431.203-.752-.883-.039-2.131 1.125-.956.892-2.592 3.602-3.305 4.822a70.992 70.992 0 0 0-1.537-4.808 15.161 15.161 0 0 0-.552-1.314c.755-.2 1.485-.762 2.189-1.684 1.314-1.721 1.214-5.19-.02-6.122-1.235-.931-.974.073-1.38 1.287-.248.74-.645 2.644-1.193 5.713-.948-1.795-2.194-3.561-3.25-4.974l-.06.206c.438-1.386.457-2.504.056-3.353-.4-.85-1.85-1.994-4.35-3.433zm15.84 22.25c-1.953.848-1.41 2.689-3.248 3.028-1.84.34 1.616 1.107 3.753.455 2.136-.651 5.452-1.036 5.306-2.044-.146-1.008-3.859-2.29-5.811-1.44z" fill="#E38A82"/>
        <path d="M1.3 50.573c.787 1.738 1.775 2.835 2.964 3.29 1.149.442 2.393.745 3.732.91a70.72 70.72 0 0 1 2.698 1.829c-.632-.122-1.2-.112-1.703.028-1.398.388-2.804 2.356-3.866 2.383-1.063.026.942 1.528 3.166 1.215 1.354-.19 2.626-1.05 3.817-2.578.933.717 1.72 1.387 2.361 2.01a63.766 63.766 0 0 1 1.683 1.694c-1.013-.007-2.871.001-3.794.138-1.307.194-4.045.995-4.748 2.08-.703 1.084.339.134 3.622.853 2.598.57 4.604-1.68 5.327-2.643.775.823 1.557 1.69 2.342 2.596.343.395.682.793 1.018 1.192-1.032.714-2.198 1.163-3.498 1.35-2.359.338-4.193-.276-4.615.36-.422.635.306 1.057 3.134 1.87 1.739.5 3.465-.613 5.179-3.34a112.103 112.103 0 0 1 3.387 4.257l.482.641.448.604.601.827.289.406.612-.44-.388-.544-.302-.416-.432-.587-.468-.627a116.186 116.186 0 0 0-3.817-4.806l.019-.035-.03.025a79.64 79.64 0 0 0-1.657-1.927c.704-.483 2.076-1.64 2.593-3.57.709-2.647-.552-3.823-.7-4.588-.146-.765-.81.352-1.421 1.946-.469 1.22-.75 4.373-.857 5.782a70.992 70.992 0 0 0-3.489-3.648 15.161 15.161 0 0 0-1.072-.939c.59-.51 1-1.335 1.229-2.472.426-2.124-1.184-5.197-2.702-5.494-1.518-.296-.843.493-.676 1.762.102.773.58 2.659 1.432 5.657-1.639-1.197-3.533-2.239-5.101-3.046l.036.212c-.214-1.438-.687-2.451-1.42-3.039-.732-.588-2.537-.98-5.415-1.178zm23.99 13.054c-1.383 1.62-.087 3.035-1.592 4.146-1.504 1.111 1.938.287 3.573-1.236 1.635-1.522 4.446-3.322 3.873-4.164-.573-.842-4.472-.365-5.854 1.254z" fill="#00C2CE"/>
        <path fill="#67EAE1" d="M60 66.667h6.667v4H60z"/>
        <path fill="#00C2CE" d="M62.667 64.667h6.667v2h-6.667zM70.667 66.667h6.667v2h-6.667z"/>
        <path fill="#67EAE1" d="M68 68.667h6.667v2H68zM67.333 59.334h2v5.333h-2zM72 61.334h2v5.333h-2z"/>
        <path fill="#00C2CE" d="M72 59.334h4v2h-4z"/>
        <path fill="#E38A82" d="m76 59.333-4.667-4.666-4.666 4.666z"/>
        <g transform="translate(55.542 16.625)">
            <path d="M2.708 8.083c-.666-.256-.888-.123-.666.399.222.522.694 1.264 1.416 2.227l6.5-5.626c.861.163 1.292.038 1.292-.375 0-.618-1.168-2.417-1.833-2.208-.444.14-.583.417-.417.833l-2.75.757-3.542 3.993z" fill="#00C2CE"/>
            <path d="M0 5.297c.023.746.384 1.12 1.083 1.12h2.625c1.097 1.99 1.949 3.138 2.556 3.442-.04-.02.623.68 1.986 2.1-.495.513-.578.944-.25 1.291.33.348.912-.18 1.75-1.583-1.29-.914-2.11-1.975-2.458-3.185l.583-.315c1.118.932 2.09 1.497 2.917 1.692-.325.806-.186 1.284.416 1.433.603.149.88-.601.834-2.25-1.917-.546-3.07-1.078-3.459-1.597.168-.612.085-1.094-.25-1.445L6.958 4.042c.611-1.348.82-2.182.625-2.5C7.292 1.064 8.051 0 6.768 0c-.855 0-1.103.236-.745.708.01.723.091 1.084.241 1.084.226 0-.07 1.248-.597 1.583-.527.335-.875.235-1.417.715-.542.479-.492 1.125-1.012 1.207-.346.054-.898-.017-1.655-.214-.11-.277-.402-.416-.875-.416-.472 0-.708.21-.708.63z" fill="#004B79"/>
            <circle fill="#004B79" cx="3.458" cy="3.042" r="1.667"/>
        </g>
        <g transform="translate(10.688 20.335)">
            <path d="M34.687 35.29c-.195 3.601-.195 5.823 0 6.667.194.843.375 3.33.541 7.458.94.91 1.623.758 2.048-.458.637-1.825 1.16-8.743 1.16-9.75V35.04l-3.75.25zM44.957 35.29c.195 3.601.195 5.823 0 6.667-.194.843-.375 3.33-.541 7.458-.94.91-1.623.758-2.048-.458-.637-1.825-1.16-8.743-1.16-9.75V35.04l3.75.25zM44.562 11.082c1.492-.778 2.548-1.167 3.167-1.167.758-1.882 1.396-3.16 1.916-3.834-1.442-.69-2.025-1.328-1.75-1.916 1.1.648 1.933.898 2.5.75.998.987 1.387 1.876 1.167 2.667-.795 3.2-2.629 5.282-5.5 6.25-.048.016-.548-.901-1.5-2.75zM33.561 10.582c-1.61-1.253-2.722-2.197-3.333-2.834-1.625-1.918-2.764-3.224-3.417-3.917.094-2.212-.128-3.462-.666-3.75-.538-.287-.732.185-.583 1.417C23.86.276 22.722-.03 22.145.581c-.865.917-.084 2.625 1.667 3.667 1.167.695 1.75 1.25 1.75 1.667 1.915 3.007 3.47 5.007 4.666 6l2.5 2.083.833-3.416z" fill="#FFC6B7"/>
            <path d="m32.562 14.498 1-3.916c2.06.86 3.338 1.291 3.833 1.291h3.625c1.84-.406 3.201-.77 4.083-1.09.64.308 1.084 1.505 1.334 3.59l-2.084 1.709c.5 6.203.75 9.828.75 10.875H34.187c-.183-5.584-.183-9.056 0-10.417.008-.065-.533-.746-1.625-2.042z" fill="#E38A82"/>
            <path d="M37.395 11.873c.177 1.306.83 1.959 1.958 1.959 1.129 0 1.685-.653 1.667-1.959 1.194-.584 1.791-1.542 1.791-2.875 0-1.999.542-4.248-1.083-4.833s-4.325-.835-5.5 1c-.783 1.223-.783 2 0 2.333-.833-.125-1.25.167-1.25.875 0 1.063.71 1.334 1.25 1.334l1.125 1.375.042.791z" fill="#FFC6B7"/>
            <path d="M34.978 7.957c.398-.459.815-.611 1.25-.459.653.23 1.431-1.924 1.042-3.333 3.238-.228 5.113.369 5.625 1.792.768 2.134.768-.785.375-1.792-.393-1.007-2.77-4.243-6-1.5-3.598.671-4.362 2.435-2.292 5.292zM37.145 11.81c-.187 4.442-.283 7.917-.29 10.423v.541c.005 1.773.06 3.001.167 3.683h5.247c-.018-3.723-.434-8.584-1.249-14.584.747-.192 1.095-.261 1.044-.207.392 1.171.864 6.17 1.414 15l-.014-.21h1.181c.611-.075.916.397.916 1.417v8c-2.576.451-4.118.451-4.624 0-.507-.45-.92-1.729-1.238-3.833l-.2 3.833c-.458.39-1.326.584-2.604.584s-2.208-.334-2.792-1l-.259-7.584c-.056-.944.225-1.416.843-1.416h1.028c-.112-4.44-.172-7.902-.178-10.387v-.792c.006-2.353.07-3.654.191-3.905.085-.174.557-.03 1.417.436zM6.766 50.464c-.296-.619-.916-.774-1.86-.464-1.415.464-1.882 1.718-3.678 2.04-1.795.322-1.267 1.517-.633 1.517.633 0 4.082.052 5.383-.6.868-.435 1.604-.435 2.209 0l-1.421-2.493zM17.978 53.54c6.958.15 10.191-.698 9.698-2.542-.74-2.765-1.525-2.648-3.705-3.833-1.454-.79-3.632-1.87-6.535-3.238-.179-.766-.179-1.381 0-1.845l-5.833-.709 4.25 10.99 2.125 1.177z" fill="#002F4C"/>
            <path d="M6.27 42.52c-1.683 3.064-1.808 5.154-.375 6.27 1.433 1.116 2.739 1.674 3.917 1.674l-3.046-.132v2.791s9.48 1.569 11.629.375c2.149-1.193.408-5.884-3.375-7.166.337-1.253.167-2.392-.51-3.417-2.695.408-5.442.276-8.24-.395z" fill="#004B79"/>
            <circle fill="#E38A82" cx="36.645" cy="27.665" r="1"/>
            <circle fill="#E38A82" cx="43.312" cy="27.665" r="1"/>
            <path d="M32.624 51.726c-.106-.832.432-2.005 2.542-3.02.798.393 1.355.538 1.671.437.316-.101.51-.294.58-.577.416.806.624 1.659.624 2.557 0 .9-1.57 1.309-4.709 1.23-.455-.06-.691-.268-.708-.627zM47.361 51.726c.107-.832-.775-2.012-2.885-3.026-.569.397-1.011.544-1.328.443a1.938 1.938 0 0 1-.854-.577 9.171 9.171 0 0 0-.35 2.557c0 .9 1.57 1.309 4.71 1.23.454-.06.69-.268.707-.627zM36.937 2.957c-.548-.865-.435-1.643.339-2.334.774-.69.774.087 0 2.334" fill="#002F4C"/>
            <circle fill="#002F4C" cx="24.312" cy="11.998" r="3"/>
            <path d="M23.603 15.179a3.234 3.234 0 0 1-1.884-1.556c-.637-1.147-.648-.073-.324-.833.216-.506.324-.887.324-1.142.25.567.564.85.942.85.567 0 .551.363.275.849-.275.485-.127.62.376.985.502.364 1.74.069 1.74.458v1.25l-1.449-.861z" fill="#FFC6B7"/>
            <path d="M24.334 17.79c-2.777-.593-4.715-1.176-5.814-1.75-1.649-.861-2.502-1.194-2.25-2.042.252-.847 1.166-.75 1.708-.375.362.25.473.598.334 1.042 2.22.991 3.789 1.45 4.705 1.375 1.375-.112 4.115-.347 5.547-.861.955-.343 1.37-.597 1.248-.764.11-.528.389-.792.833-.792.667 0 .906.139.667 1.042-.24.903-4.08 2.458-4.08 2.458l-2.898.667z" fill="#FFC6B7"/>
            <path d="M21.082 22.582c-.349-3.426-.113-5.607.708-6.542 1.233-1.403 3.657-1.546 4.771.667.743 1.474.868 3.674.375 6.598-.78.787-1.697 1.115-2.75.985-1.052-.13-2.087-.7-3.104-1.708z" fill="#00C2CE"/>
            <path d="M21.312 17.79s-1.209-.083-1.209-.917c0-.833.474.197.474-.833s-.236-.822.735-.583c.647.159 1.41.159 2.291 0 1.681-.278 2.89-.348 3.628-.209 1.107.209.05.848.706 1.236.655.39 1 .306 0 .806s-1.391.5-1.667.5h-4.958z" fill="#00C2CE"/>
            <path d="M23.119 10.582c-.458 0-2.653-2.137-3.516-.709-.863 1.429-.6 1.528.25 2.125.568.399.818.848.75 1.349v-2.765l2.058.72c.61-.48.763-.72.458-.72zM26.645 10.582c.303-.976.943-1.376 1.92-1.2 1.464.262 1.494 1.498.747 2.616-.748 1.119-.234.902 0 1.125.233.224-1.485.06-.974-1.125.342-.79.417-1.261.226-1.416l-1.628.782" fill="#002F4C"/>
            <path d="M26.936 17.79c1.042.696 1.39 1.598 1.042 2.708-.347 1.11-.694 1.68-1.042 1.709-.388-.475-.486-1.142-.291-2 .194-.859.291-1.665.291-2.417z" fill="#FFC6B7"/>
        </g>
        <g>
            <path d="M16.19 56.333C14.749 56.265 13.352 55.154 12 53c-2.028-3.231.82-3.608 1.5-6.484s-.207-3.808.236-6.1c.444-2.291 2.757-4.041 5.18-4.041 2.424 0 4.709 1.042 4.709 4.833 0 2.528-2.478 7.57-7.435 15.125z" fill="#002F4C"/>
            <path d="M28.667 42.917c.75-.253 1-.836.75-1.75-.375-1.372-.323-2.542.333-2.542s-.035 1.542.625 1.542 1.362-2.042 2.104-2.042 2.396.556 2.396 2.042c0 1.486-2.03 2.39-3.104 2.75-.716.24-1.5.934-2.354 2.083l-.75-2.083zM16.75 47.45c.504-1.307.504-2.263 0-2.867-.756-.905-.798-2.166.189-2.166.986 0 2.27-1.096 2.27-2 0-.905 3.561-1.896 4.166-.375.605 1.52-.263 1.772.417 2.375.68.602.746 2.984 0 3.541-.746.558-1.589 3.021-5.959 1.667-.38-.164-.74-.222-1.083-.174z" fill="#FFC6B7"/>
            <path d="M16.4 64.18c.597-1.832.27-5.461-.983-10.888-1.177-2.737-2.064-5.725 0-6.25 2.063-.526 4.007.525 5.708 0 1.701-.526 6.855-3.5 7.417-4.125.744.12 1.188.606 1.333 1.458.145.852-1.16 2.172-3.917 3.958 3.2-.825 5.256-1.811 6.167-2.958 1.368-1.72 3.628.24 3.042 1.409-.392.78-1.71 1.99-3.959 3.633-1.841 1.067-3.383 1.524-4.625 1.37.994 6.803 1.516 10.934 1.564 12.393-.022.073-2.634.59-5.637.46a98.99 98.99 0 0 1-6.11-.46z" fill="#CFE7F1"/>
            <path d="M32.479 46.354c.028 2.464.202 3.873.521 4.23-.552.872-.718 1.4-.5 1.583.685.735 1.213.708 1.583-.084l.209-6.041-1.813.312zM37.553 46.354c-.028 2.464-.202 3.873-.521 4.23.552.872.718 1.4.5 1.583-.685.735-1.213.708-1.583-.084l-.209-6.041 1.813.312z" fill="#FFC6B7"/>
            <path d="M30.434 46.622c.242-1.748.687-2.983 1.337-3.705 1.75.865 3.728.92 5.937.166 1.005 1.686 1.435 2.894 1.292 3.625-.107.727-.871.546-2.292-.541-1.176 1.952-1.954 2.063-2.333.333-.976 1.483-1.608 1.76-1.896.833-.2-.647-.617-.73-1.247-.249v.001a.5.5 0 0 1-.798-.463z" fill="#002F4C"/>
        </g>
        <g transform="translate(8 3.333)">
            <circle fill="#004B79" cx="9.333" cy="9.333" r="9.333"/>
            <circle fill="#FFF" cx="9.333" cy="9.333" r="8"/>
            <path stroke="#004B79" stroke-linecap="round" stroke-linejoin="round" d="M9.333 6v3.333h2.739"/>
            <path d="M10.028 14.892V16h-1v-1.108h1zm-3.739-.897.53.305-.554.96-.53-.306.554-.96zm-1.922-2.147.305.53-.96.553-.305-.529.96-.554zm-.592-2.82v1H2.667v-1h1.108zm12.225 0v1h-1.108v-1H16zm-1.046-3.293.306.53-.96.554-.305-.53.959-.554zm-2.552-2.328.53.306-.555.96-.529-.306.554-.96zm-2.374-.74v1.108h-1V2.667h1z" fill="#004B79" fill-rule="nonzero"/>
        </g>
    </g>
</svg>
