<svg width="80" height="80" viewBox="0 0 80 80" xmlns="http://www.w3.org/2000/svg" xmlns:xlink="http://www.w3.org/1999/xlink">
    <defs>
        <path id="gtdh4lgnaa" d="M0 0h46.667v20H0z"/>
        <path id="0pwr0rye6b" d="M0 0h46.667v20H0z"/>
        <path id="v4h3gb765d" d="M0 0h46.667v20H0z"/>
    </defs>
    <g fill="none" fill-rule="evenodd">
        <ellipse fill="#000" opacity=".2" cx="40" cy="76.667" rx="33.333" ry="3.333"/>
        <path d="m31.647 4.886 3.94.695a4 4 0 0 1 3.244 4.633l-.231 1.314-11.818-2.084.231-1.313a4 4 0 0 1 4.634-3.245zM50.03 8.127l3.94.695a4 4 0 0 1 3.244 4.634l-.231 1.313-11.818-2.084.231-1.313a4 4 0 0 1 4.634-3.245z" fill="#D7D7D7"/>
        <use fill="#FFF" xlink:href="#gtdh4lgnaa" transform="rotate(10 -32.77 112.394)"/>
        <path d="m32.527 24.02 3.864-1.035a4 4 0 0 1 4.9 2.828l.344 1.288-11.59 3.106-.346-1.288a4 4 0 0 1 2.828-4.899zM50.558 19.189l3.864-1.035a4 4 0 0 1 4.899 2.828l.345 1.288-11.591 3.106-.345-1.288a4 4 0 0 1 2.828-4.9z" fill="#E5AD3F"/>
        <g transform="rotate(-15 131.213 -68.284)">
            <mask id="rtfxs3k0lc" fill="#fff">
                <use xlink:href="#0pwr0rye6b"/>
            </mask>
            <use fill="#FFC757" xlink:href="#0pwr0rye6b"/>
            <g opacity=".1" mask="url(#rtfxs3k0lc)" fill="#000">
                <path d="M6.337 3.012a4 4 0 0 1 1.464 5.465l-.333.576 5.773 3.333.334-.576a4 4 0 0 1 5.464-1.464l3.464 2a4 4 0 0 1 1.464 5.464l-.334.576 3.465 2.001a4 4 0 0 1 1.464 5.464l-6 10.393a4 4 0 0 1-5.464 1.464L-16.39 18.374a4 4 0 0 1-1.464-5.464l6-10.392a4 4 0 0 1 5.464-1.464l3.465 2 .333-.577a4 4 0 0 1 5.464-1.465l3.464 2z"/>
            </g>
        </g>
        <g>
            <path d="m22.912 32.82 3.863 1.036a4 4 0 0 1 2.829 4.899l-.345 1.287-11.591-3.105.345-1.288a4 4 0 0 1 4.899-2.829zM40.942 37.652l3.864 1.035a4 4 0 0 1 2.828 4.899l-.345 1.288-11.59-3.106.344-1.288a4 4 0 0 1 4.9-2.828z" fill="#003A5E"/>
            <g transform="rotate(15 -124.915 55.518)">
                <mask id="5adyxynhze" fill="#fff">
                    <use xlink:href="#v4h3gb765d"/>
                </mask>
                <use fill="#004B79" xlink:href="#v4h3gb765d"/>
                <g mask="url(#5adyxynhze)" fill="#000" opacity=".2">
                    <path d="M31.638 13.575 50.113 2.908a6 6 0 1 1 6 10.392L37.638 23.967a6 6 0 1 1-6-10.392z"/>
                </g>
            </g>
        </g>
        <g transform="rotate(-15 241.284 -95.794)">
            <rect fill="#F27A6F" width="33.333" height="12" rx="6"/>
            <path d="M14 2h5.333a4 4 0 1 1 0 8H14a4 4 0 1 1 0-8z" fill="#FFF" opacity=".5"/>
            <g fill="#F27A6F">
                <path d="M14 3.333a.667.667 0 1 1 0 1.334.667.667 0 0 1 0-1.334zM16.667 3.333a.667.667 0 1 1 0 1.334.667.667 0 0 1 0-1.334zM19.333 3.333a.667.667 0 1 1 0 1.334.667.667 0 0 1 0-1.334zM18 5.333a.667.667 0 1 1 0 1.334.667.667 0 0 1 0-1.334zM15.333 5.333a.667.667 0 1 1 0 1.334.667.667 0 0 1 0-1.334zM14 7.333a.667.667 0 1 1 0 1.334.667.667 0 0 1 0-1.334zM16.667 7.333a.667.667 0 1 1 0 1.334.667.667 0 0 1 0-1.334zM19.333 7.333a.667.667 0 1 1 0 1.334.667.667 0 0 1 0-1.334z"/>
            </g>
        </g>
    </g>
</svg>
