<svg width="80" height="80" viewBox="0 0 80 80" xmlns="http://www.w3.org/2000/svg">
    <g fill="none" fill-rule="evenodd">
        <ellipse fill="#000" opacity=".2" cx="40" cy="76.667" rx="33.333" ry="3.333"/>
        <path d="M23.574 61.333a7.987 7.987 0 0 1-6.672 7.878l-1.316.22h11.08a6 6 0 0 0 6-6v-2.098h-9.092z" fill="#5E4240"/>
        <path d="m4.681 24.945 6.65-8.017a1 1 0 0 1 1.54 0l6.65 8.017a.991.991 0 0 1-.763 1.624h-1.11a1 1 0 0 0-1 1v33.656a8 8 0 0 0 6.682 7.89l1.305.218h-9.08a8 8 0 0 1-8-8V27.57a1 1 0 0 0-1-1h-1.11a.991.991 0 0 1-.764-1.624z" fill="#F27A6F"/>
        <path d="m4.681 18.278 6.65-8.017a1 1 0 0 1 1.54 0l6.65 8.017a.991.991 0 0 1-.763 1.624h-1.339a1 1 0 0 0-.967.747L7.555 54.667V20.902a1 1 0 0 0-1-1h-1.11a.991.991 0 0 1-.764-1.624z" fill="#F27A6F" opacity=".5"/>
        <path d="m4.681 12.945 6.65-8.017a1 1 0 0 1 1.54 0l6.65 8.017a.991.991 0 0 1-.763 1.624h-1.339a1 1 0 0 0-.967.747L7.555 49.333V15.57a1 1 0 0 0-1-1h-1.11a.991.991 0 0 1-.764-1.624z" fill="#F27A6F" opacity=".2"/>
        <g transform="translate(20.865 23.412)">
            <path d="m3.686 15.949 18-12.6a2 2 0 0 1 2.294 0l18 12.6a2 2 0 0 1 .853 1.638V37.88a2 2 0 0 1-2 2H29.5a2 2 0 0 1-2-2v-9.333a2 2 0 0 0-2-2h-5.333a2 2 0 0 0-2 2v9.333a2 2 0 0 1-2 2H4.833a2 2 0 0 1-2-2V17.587a2 2 0 0 1 .853-1.638zM33.135 8.883V2a2 2 0 0 1 2-2h5.334a2 2 0 0 1 2 2v12.588" fill="#FFF"/>
            <path stroke="#004B79" stroke-width="5" stroke-linecap="round" stroke-linejoin="round" d="M.468 17.29 22.833 1.923l22.472 15.482"/>
            <path d="M21.41 18.303a1 1 0 0 1 1 1v2.243a1 1 0 0 1-1 1h-2.243a1 1 0 0 1-1-1v-2.243a1 1 0 0 1 1-1h2.242zm5.09 0a1 1 0 0 1 1 1v2.243a1 1 0 0 1-1 1h-2.242a1 1 0 0 1-1-1v-2.243a1 1 0 0 1 1-1H26.5zm-5.09-5.09a1 1 0 0 1 1 1v2.242a1 1 0 0 1-1 1h-2.243a1 1 0 0 1-1-1v-2.242a1 1 0 0 1 1-1h2.242zm5.09 0a1 1 0 0 1 1 1v2.242a1 1 0 0 1-1 1h-2.242a1 1 0 0 1-1-1v-2.242a1 1 0 0 1 1-1H26.5z" fill="#004B79"/>
            <path stroke="#FFF" stroke-width="2" stroke-linecap="round" d="M25.75 32.296v2"/>
            <path stroke="#004B79" stroke-width="5" stroke-linecap="round" d="M0 40.213h42.667"/>
            <rect fill="#FFBB34" x="35.135" y="29.922" width="12" height="4" rx="2"/>
            <rect fill="#FFBB34" x="35.135" y="33.922" width="12" height="4" rx="2"/>
            <rect fill="#FFBB34" x="35.135" y="37.922" width="12" height="4" rx="2"/>
            <rect fill="#FFBB34" x="35.135" y="41.922" width="12" height="4" rx="2"/>
            <path stroke="#FFF" stroke-linecap="round" d="M37.093 33.922h8.212M37.093 37.922h8.212M37.093 41.922h8.212"/>
            <g transform="translate(37.801 33.922)">
                <path d="M6.214 12.064c4.05 0 3.244-5.94 3.244-9.99 0-.312-.521-1.9-.702-1.936a7.333 7.333 0 0 0-7.117 11.817c.203.076 2.276.109 4.575.109z" fill="#000" opacity=".2"/>
                <circle fill="#FFC757" cx="9.333" cy="8.667" r="7.333"/>
                <path d="M9.331 6.68h.005l.015.004c.067.02.128.054.178.1l.009.009a.421.421 0 0 1 .081.112l.021.053.217.669h1.083l.183-.654c.062-.22.3-.35.532-.293a.413.413 0 0 1 .32.449l-.011.055-.125.443h.393c.24 0 .435.224.435.5 0 .254-.164.463-.376.496l-.06.005-.671-.001-.669 2.4c-.106.38-.646.41-.812.075l-.024-.06-.783-2.415h-.03l-.67 2.4c-.106.38-.646.41-.812.075l-.024-.06-.783-2.415h-.518c-.24 0-.435-.223-.435-.5 0-.253.164-.462.376-.495l.059-.004.194-.001-.139-.428a.408.408 0 0 1 .288-.514.443.443 0 0 1 .522.22l.022.053.216.669h1.083l.183-.654.005-.015a.4.4 0 0 1 .023-.055l-.028.07a.4.4 0 0 1 .178-.236.483.483 0 0 1 .113-.051l.002-.001.03-.008a.455.455 0 0 1 .04-.007l-.07.015a.454.454 0 0 1 .234-.006zm1.329 1.947h-.479l.258.795.221-.795zm-2.318 0h-.48l.258.795.222-.795z" fill="#FFF" fill-rule="nonzero"/>
                <path d="M9.333 14.667a6 6 0 1 0 0-12 6 6 0 0 0 0 12z" stroke="#FFF" stroke-linecap="round" stroke-linejoin="round" stroke-dasharray="1,3"/>
            </g>
        </g>
    </g>
</svg>
