<svg width="80" height="80" viewBox="0 0 80 80" xmlns="http://www.w3.org/2000/svg">
    <g transform="translate(-1.408 -3.525)" fill="none" fill-rule="evenodd">
        <g transform="rotate(10 16.891 193.07)">
            <path fill="#004B79" d="M0 6h46.667v63.333H0z"/>
            <rect fill="#FFF" x="3.333" y="9.333" width="40" height="56.667" rx="2"/>
            <path d="M43.333 12.484V64a2 2 0 0 1-2 2H5.263a1 1 0 0 1-.817-1.577l37.07-52.516a1 1 0 0 1 1.817.577z" fill="#CFE7F1" opacity=".3"/>
            <rect fill="#67EAE1" x="4.667" y="11.333" width="37.333" height="4" rx="1"/>
            <rect fill="#CFE7F1" x="14.667" y="19.333" width="22.667" height="1" rx=".5"/>
            <rect fill="#CFE7F1" x="14.667" y="22" width="13.333" height="1" rx=".5"/>
            <rect fill="#CFE7F1" x="14.667" y="28" width="22.667" height="1" rx=".5"/>
            <rect fill="#CFE7F1" x="14.667" y="30.667" width="13.333" height="1" rx=".5"/>
            <rect fill="#CFE7F1" x="14.667" y="36.667" width="22.667" height="1" rx=".5"/>
            <rect fill="#CFE7F1" x="5.333" y="43.333" width="22.667" height="1" rx=".5"/>
            <rect fill="#CFE7F1" x="5.333" y="45.333" width="22.667" height="1" rx=".5"/>
            <rect fill="#CFE7F1" x="14.667" y="39.333" width="13.333" height="1" rx=".5"/>
            <rect fill="#CFE7F1" x="5.333" y="18" width="6.667" height="6.667" rx="1"/>
            <rect fill="#CFE7F1" x="5.333" y="26.667" width="6.667" height="6.667" rx="1"/>
            <rect fill="#CFE7F1" x="5.333" y="35.333" width="6.667" height="6.667" rx="1"/>
            <path d="M16.667 2.667H30A3.333 3.333 0 0 1 33.333 6v2.333a1 1 0 0 1-1 1h-18a1 1 0 0 1-1-1V6a3.333 3.333 0 0 1 3.334-3.333z" fill="#00C2CE"/>
            <rect stroke="#00C2CE" stroke-width="2" x="22.333" y="1" width="2" height="3.333" rx="1"/>
        </g>
        <g transform="translate(0 19.45)">
            <path d="M36.927 18.148A9.141 9.141 0 0 1 35.8 31.026l-9.34 7.837 3.097-18.7a4.205 4.205 0 0 1 7.37-2.015z" fill="#000" opacity=".3"/>
            <path d="m20.742 17.423 2.696-2.696a8.507 8.507 0 0 1 12.03 12.03L20.742 41.484 6.015 26.757a8.507 8.507 0 0 1 12.03-12.03l2.697 2.696z" fill="#FF8176"/>
            <path d="M20.742 17.423v24.06L6.015 26.758a8.507 8.507 0 0 1 12.03-12.03l2.697 2.696z" fill="#000" opacity=".05"/>
            <path d="M22.909 26.742h7.5a7.762 7.762 0 0 1 7.067 4.552l5.172 11.389a6.921 6.921 0 0 0 6.302 4.059 7.048 7.048 0 0 0 6.368-4.029l3.424-7.221" stroke="#555" stroke-width="4"/>
            <path d="M54.658 8.742a3.46 3.46 0 0 0-2.863 1.517l-1.345 1.983a9.184 9.184 0 0 0-1.26 7.58l2.855 10.436a6.77 6.77 0 0 0 6.53 4.984 6.91 6.91 0 0 0 6.628-4.956l3.233-10.966a8.82 8.82 0 0 0-.777-6.828l-.81-1.435a3.568 3.568 0 0 0-3.108-1.815" stroke="#555" stroke-width="4"/>
            <path stroke="#F27A6F" stroke-width="7" stroke-linecap="round" d="m52.075 10.075 2.357-2.357M65.766 10.075l-2.357-2.357"/>
            <circle fill="#FFF" opacity=".1" cx="20.742" cy="27.408" r="11.333"/>
            <circle fill="#FFF" opacity=".5" cx="20.742" cy="27.408" r="8.667"/>
            <circle stroke="#FFF" stroke-width="5" fill="#004B79" cx="20.742" cy="27.408" r="5.333"/>
        </g>
        <ellipse fill="#000" opacity=".2" cx="41.408" cy="80.192" rx="33.333" ry="3.333"/>
    </g>
</svg>
