<svg width="80" height="80" viewBox="0 0 80 80" xmlns="http://www.w3.org/2000/svg">
    <g fill="none" fill-rule="evenodd">
        <path d="M44.781 30.943c-.473 1.848-1.256 3.1-2.347 3.755a15.776 15.776 0 0 1-3.517 1.544 70.72 70.72 0 0 0-2.34 2.269c.602-.23 1.162-.319 1.682-.268 1.444.14 3.17 1.834 4.221 1.675 1.052-.159-.662 1.669-2.907 1.747-1.366.048-2.768-.578-4.207-1.876a27.524 27.524 0 0 0-1.976 2.388 63.766 63.766 0 0 0-1.363 1.962c.997-.183 2.828-.498 3.76-.523 1.322-.036 4.157.277 5.038 1.223.88.946-.31.191-3.42 1.47-2.46 1.012-4.825-.855-5.705-1.678-.62.945-1.239 1.935-1.855 2.963-.27.448-.534.9-.796 1.351 1.14.523 2.367.763 3.68.721 2.381-.076 4.081-.999 4.607-.446.526.552-.117 1.094-2.761 2.386-1.626.795-3.52-.002-5.68-2.39-.92 1.598-1.79 3.208-2.597 4.78l-.364.716-.335.671-.45.92-.213.45-.679-.327.287-.603.225-.463.324-.653.352-.699a116.186 116.186 0 0 1 2.924-5.395l-.024-.031.034.02a79.641 79.641 0 0 1 1.297-2.186c-.777-.354-2.33-1.254-3.174-3.065-1.158-2.484-.12-3.862-.108-4.64.012-.779.86.206 1.739 1.669.673 1.12 1.498 4.176 1.847 5.546.931-1.5 1.867-2.907 2.803-4.199.27-.373.57-.745.892-1.11-.67-.401-1.216-1.142-1.639-2.222-.788-2.017.264-5.324 1.707-5.88 1.443-.555.916.34.972 1.618.034.78-.11 2.72-.429 5.82 1.407-1.464 3.09-2.819 4.495-3.885l.002.215c-.04-1.454.25-2.534.87-3.24.619-.706 2.328-1.406 5.128-2.1zM23.423 47.964c1.642 1.354.613 2.974 2.287 3.807 1.674.833-1.858.618-3.733-.597-1.874-1.215-4.956-2.5-4.537-3.428.418-.929 4.34-1.136 5.983.218z" fill="#FFF" opacity=".5"/>
        <path d="M3.704 71.648c2.461-.542 5.851-.813 10.171-.813 3.887 0 8.26-.402 15.921.037.999.057 3.393.354 7.182.89A1.188 1.188 0 0 1 38 72.94c0 .586-.447 1.076-1.031 1.128-4.475.4-9.359.6-14.653.6-5.437 0-11.644-.211-18.619-.633a1.096 1.096 0 0 1-1.03-1.095c0-.62.431-1.157 1.037-1.29zM74.275 71.44c-1.801-.96-4.722-1.44-8.763-1.44-3.886 0-10.838.157-18.5.596-.981.056-2.986.491-6.013 1.305A1.35 1.35 0 0 0 40 73.204c0 .586.447 1.075 1.031 1.127 4.475.4 9.36.6 14.653.6 5.437 0 11.644-.21 18.619-.632a1.096 1.096 0 0 0 1.03-1.095c0-.738-.407-1.416-1.058-1.764z" fill="#000" opacity=".2"/>
        <path d="M7.821 68.273a.616.616 0 0 1 .611.693l-.349 2.777a.264.264 0 0 1-.524 0l-.35-2.777a.616.616 0 0 1 .612-.693z" fill="#004B79" opacity=".5"/>
        <path d="M13.875 68.273a.616.616 0 0 1 .611.693l-.349 2.777a.264.264 0 0 1-.524 0l-.35-2.777a.616.616 0 0 1 .612-.693zM32.503 68.273a.616.616 0 0 1 .611.693l-.35 2.777a.264.264 0 0 1-.523 0l-.35-2.777a.616.616 0 0 1 .612-.693z" fill="#004B79"/>
        <path d="M26.449 68.273a.616.616 0 0 1 .611.693l-.35 2.777a.264.264 0 0 1-.523 0l-.35-2.777a.616.616 0 0 1 .612-.693z" fill="#004B79" opacity=".5"/>
        <path d="M16.204 43.296c5.585 0 10.233 3.986 11.217 9.25h7.643v.03c1.838.227 3.26 1.784 3.26 3.671a3.708 3.708 0 0 1-2.931 3.616l-.652 8.415a2 2 0 0 1-1.994 1.845H7.577a2 2 0 0 1-1.994-1.845l-.652-8.415A3.708 3.708 0 0 1 2 56.247a3.708 3.708 0 0 1 2.951-3.62l.021-.005c.954-5.302 5.62-9.326 11.232-9.326z" fill="#00C2CE"/>
        <path d="M16.204 43.296c2.687 0 5.004.547 6.834 1.93 2.897 2.19 4.575 5.778 4.575 7.32 0 .1-1.92.486-1.92 3.18v.834a2 2 0 0 0 2 2h3.988v-.011a3.668 3.668 0 0 1-.803-2.105l-.005-.197c0-2.044 1.668-3.7 3.725-3.7 2.058 0 3.726 1.656 3.726 3.7a3.707 3.707 0 0 1-2.854 3.598l-.716 8.447a2 2 0 0 1-1.993 1.831H14.115a2 2 0 0 1-1.995-1.866l-.562-8.373a3.708 3.708 0 0 1-3.038-3.637c0-2.044 1.668-3.7 3.725-3.7H7.297c1.312-6.168 4.28-9.251 8.907-9.251zm-.233 15.726v4.684h15.484l.205-4.684H15.97z" fill="#67EAE1"/>
        <g>
            <path d="M12.245 45.445c-.612-.13-.95-.395-1.015-.795-.083-.516.53-2.405.465-2.681-.52-2.22-.8-3.355-.082-4.43 2.307-4.386 3.336-3.187 4.136-3.187.81.083 3.996 2.026 3.996 5.85.076.973-1.453.768-.6 1.983 1.28 1.793.26 4.002.26 4.002H13.01l-.764-.742z" fill="#002F4C"/>
            <path d="M12.565 52.142v-2.11c-.727-2.305-1.038-3.962-.931-4.973.16-1.516.621-2.024 1.193-2.024.572 0 1.69-.106 2.067-.318.378-.21 2.092-.09 2.59.318.498.408 1.826.526 2.212.839.387.313 2.32 1.77 3.027 3.122.093.206.286-.739.64-.925.237-.124.848.184 1.834.925.15 1.561-.054 2.457-.61 2.689-.836.346-2.853-1.342-3.872-2.306-.68-.643-1.019-.905-1.019-.788.424.685.501 1.33.233 1.937-.402.91-.948 1.345-.757 2.168.192.824.48 2.92-.349 2.92h-5.996l-.262-1.474z" fill="#CFE7F1"/>
            <path d="M14.137 38.96c-.929.041-1.113.34-.553.895.84.833.792.636 1.164.636.373 0 .35.853.175 1.388a7.427 7.427 0 0 1-.466 1.099c1.53.861 2.481 1.642 2.853 2.341.628-.962.57-1.82-.175-2.573-.528-.655-.557-1.05-.087-1.185 1.043-.407 1.596-.995 1.659-1.763.267-1.463.034-2.436-.699-2.92-1.426-.931-2.455-1.22-3.085-.868-.965.707-1.343 1.362-1.135 1.966.208.604.324.932.35.983z" fill="#FFC6B7"/>
            <path d="M12.71 48.99c.145 1.281.562 1.85 1.252 1.706 1.036-.214.979-1.613.816-2.486-.163-.873-.524-4.847-.524-5.521 0-.675.091-.917-.464-1.128-.555-.211-.672-.606-.672-.867s-.646-.866-1.193-.26c-.547.605-.786 1.33 0 1.792.786.463 1.404.564 1.193 1.243-.21.68-.407 3.238-.407 3.99v1.532zM23.189 46.591c.028.737.125 1.19.291 1.359.25.253 1.135.93 1.455.173.321-.756.239-2.477 0-3.237-.238-.761-.376-1.397 0-1.88.377-.482.932-1.387.466-2.11-.466-.723-.996-.992-1.339-.376-.343.616-.355 1.561-.35 2.024.007.463.017 1.584-.232 2.66-.166.717-.263 1.18-.291 1.387z" fill="#FFC6B7"/>
            <path d="M14.137 38.96c.31-.329.388-.642.233-.94-.233-.448-.655-.722-.078-1.027.577-.305.582.19.868-.115.285-.305 1.165-1.204 1.47-.627.307.577.74.792 1.378.627.463-.78.976 2.031.699 2.76-.278.73 2.315-1.17 1.018-2.471-1.296-1.302-.29-2.739-2.037-2.833-1.747-.095-3.904-.752-4.162.954-.258 1.705-.86 3.093-.258 3.382.401.193.69.29.87.29z" fill="#002F4C"/>
        </g>
        <g>
            <path fill="#FFC6B7" d="m31.92 66.394.845 1.532 2.183.55-1.514-3.267zM22.985 69.372l-.67 1.647 1.631.376.64-1.618z"/>
            <path d="M14.108 53.53c7.48-1.62 12.156-2.101 14.03-1.446 2.81.983 2.705 1.957 5.646 13.53l-1.863.925-5.007-10.752-7.508 3.36H15.97l-1.863-5.618z" fill="#004B79"/>
            <path d="m19.406 59.148 7.887-3.595c.962-.202 1.583.193 1.863 1.185.28.993-1.224 5.425-4.511 13.299l-2.096-.723c1.378-6.462 2.513-9.85 3.405-10.166-.009.003-2.191.003-6.548 0zM21.77 71.948l.076-.235a.843.843 0 0 1 .98-.56l.872.188a.97.97 0 0 1 .438.223c1.028.89 1.886 1.335 2.575 1.335 1.097 0 .733.983-.145.983-.88 0-1.576-.52-3.115-.52-.445 0-.812-.059-1.102-.175a1 1 0 0 1-.58-1.24zM32.015 68.71l.077-.234a.905.905 0 0 1 .99-.614l1.64.237c.25.038.478.168.633.369.502.629 1.035 1.026 1.601 1.193.982.289.734.983-.145.983s-1.575-.52-3.115-.52c-.445 0-.812-.059-1.102-.175a1 1 0 0 1-.58-1.24z" fill="#002F4C"/>
            <path d="M12.245 59.947c1.096 0 3.012-.007 3.694-.754.033-2.295.032-1.99.032-2.946 0-2.044-1.668-3.7-3.726-3.7-2.057 0-3.725 1.656-3.725 3.7 0 2.044 1.668 3.7 3.725 3.7z" fill="#67EAE1"/>
        </g>
        <g>
            <path d="M72.219 67.425a.613.613 0 0 0-.608.688l.348 2.789a.262.262 0 0 0 .52 0l.348-2.789a.613.613 0 0 0-.608-.688z" fill="#004B79" opacity=".5"/>
            <path d="M66.206 67.425a.613.613 0 0 0-.608.688l.348 2.789a.262.262 0 0 0 .52 0l.348-2.789a.613.613 0 0 0-.608-.688zM47.706 67.425a.613.613 0 0 0-.608.688l.348 2.789a.262.262 0 0 0 .52 0l.348-2.789a.613.613 0 0 0-.608-.688z" fill="#004B79"/>
            <path d="M53.719 67.425a.613.613 0 0 0-.608.688l.348 2.789a.262.262 0 0 0 .52 0l.348-2.789a.613.613 0 0 0-.608-.688z" fill="#004B79" opacity=".5"/>
            <path d="M63.894 42.407c-5.547 0-10.163 3.992-11.14 9.265h-7.592v.03a3.705 3.705 0 0 0-3.237 3.677 3.706 3.706 0 0 0 2.91 3.622l.648 8.43a2 2 0 0 0 1.994 1.847h24.97a2 2 0 0 0 1.995-1.847l.647-8.43A3.706 3.706 0 0 0 78 55.379a3.706 3.706 0 0 0-2.951-3.63c-.947-5.31-5.581-9.342-11.155-9.342z" fill="#00C2CE"/>
            <path d="M63.894 42.407c-2.67 0-4.97.548-6.788 1.934-2.877 2.192-4.544 5.786-4.544 7.332 0 .1 1.908.486 1.908 3.185v.838a2 2 0 0 1-2 2l-3.947-.001v-.01a3.693 3.693 0 0 0 .797-2.11l.005-.196a3.703 3.703 0 0 0-3.7-3.706c-2.043 0-3.7 1.66-3.7 3.706a3.707 3.707 0 0 0 2.835 3.605l.71 8.461a2 2 0 0 0 1.994 1.833h18.49a2 2 0 0 0 1.995-1.867l.56-8.389a3.706 3.706 0 0 0 3.016-3.643 3.703 3.703 0 0 0-3.7-3.706h4.914c-1.302-6.178-4.25-9.266-8.845-9.266zm.231 15.752v4.69H48.747l-.204-4.69h15.582z" fill="#67EAE1"/>
            <g>
                <path fill="#FFC6B7" d="m54.412 69.936.875 2.122h1.9l-.934-2.317zM43.643 69.741l-.33 2.317 1.651-.216.661-2.1z"/>
                <path d="m45.454 72.287-.022-.17a.802.802 0 0 0-.813-.698l-.928.02a.98.98 0 0 0-.456.124c-1.175.646-2.099.907-2.772.783-1.07-.197-.902.782-.046.94.857.157 1.635-.202 3.136.074.418.077.776.091 1.075.042a1 1 0 0 0 .826-1.115zM57.719 72.63l-.028-.168a.862.862 0 0 0-.84-.72l-1.698-.02a.97.97 0 0 0-.662.253c-.59.513-1.177.807-1.758.88-1.007.125-.873.81-.01.94.861.129 1.626-.255 3.136-.029.412.062.765.065 1.058.01a.997.997 0 0 0 .802-1.145zM64.125 52.65c-10.693-.277-16.92.593-18.679 2.608-.318.365-1.03 5.157-2.134 14.376l2.134.57s3.628-8.808 3.07-12.609H59.33l4.794-4.946z" fill="#002F4C"/>
                <path d="M59.69 53.063c-4.149.192-6.866.756-8.153 1.69-1.93 1.4-2.067 3.077-1.353 5.286.476 1.473 1.925 5.016 4.349 10.629h2.132l-2.132-12.536h7.259c1.3-.102 2.077-.374 2.333-.818-.008.013-.008-1.404 0-4.251h-4.436z" fill="#004B79"/>
            </g>
            <g>
                <path d="M57.94 52.657c.449.464 1.142.618 2.08.464 1.408-.232 3.093 1.626 3.99 1.969.896.342 3.169-2.311 3.584-4.98.415-2.67 1.955-7.55 1.156-8.63-.799-1.08-2.791-2.25-3.893-2.406-1.101-.156-3.166-.03-4.432.785-1.266.814-2.642 2.316-4.149 2.316-1.005 0-1.607 1.178-1.805 3.533l4.74.405c-.073 1.398-.185 2.483-.335 3.256-.15.773-.463 1.87-.937 3.288z" fill="#E38A82"/>
                <path d="M53.603 45.708c-5.087-1.213-7.94-2.043-8.556-2.49-.925-.672-2.355-3.09-.636-2.433 1.72.657 1.588 1.911 2.89 1.911.87 0 3.259.165 7.17.494l-.868 2.518z" fill="#FFC6B7"/>
                <path d="M52.842 41.944h4.44a1 1 0 0 1 .983.816l1.013 5.412a1 1 0 0 1-.983 1.184h-4.44a1 1 0 0 1-.983-.816l-1.013-5.412a1 1 0 0 1 .983-1.184z" fill="#004B79"/>
                <path d="M53.57 41.48h1.577c.338 0 .652.176.83.464a.304.304 0 0 1-.259.463h-1.577a.975.975 0 0 1-.83-.463.304.304 0 0 1 .258-.464z" fill="#00C2CE"/>
                <path d="M56.318 47.44c.232.427.695.758 2.2.584 1.503-.174 3.774 1.24 4.682 1.738.909.498 1.46.984 2.37.984.91 0 1.493-2.722.463-2.722-1.031 0-4.142-1.158-5.261-1.158-1.119 0-2.692-.753-3.295-.753-.604 0-1.392.9-1.16 1.327z" fill="#FFC6B7"/>
                <path d="M67.825 59.085c-1.088 0-2.991-.007-3.668-.755-.033-2.3-.032-1.994-.032-2.95a3.703 3.703 0 0 1 3.7-3.707c2.044 0 3.7 1.66 3.7 3.706a3.703 3.703 0 0 1-3.7 3.706z" fill="#67EAE1"/>
                <path d="M60.223 35.37c-1.045-1.895-1.103-3.304-.174-4.227 1.394-1.384 3.493-2.2 4.538-1.622.236-.016.332.12.29.406.31-.121.609-.13.896-.03 1.804 2.288 2.15 4.18 1.04 5.676l-2.804 2.085-3.786-2.288z" fill="#002F4C"/>
                <path d="M60.165 33.286c-.36 3.012.305 4.614 1.994 4.806.62.14.243 1.014 0 1.738s-1.156 2.259-.173 1.969c.982-.29 2.43-1.657 2.89-2.346-.328-1.715-.357-2.72-.086-3.011 1.236-1.079 1.545-1.766.928-2.06-.925-.444-1.208.265-1.243.607-.226-.51-.477-.828-.755-.95-.416-.185-.746-1.056-.347-1.506.196-.221-.43.232-1.679.607-.3.09-.81.139-1.53.146z" fill="#FFC6B7"/>
            </g>
        </g>
        <g transform="translate(14.667 10.667)">
            <path d="M2 0h24.667a2 2 0 0 1 2 2v12a2 2 0 0 1-2 2H10.594a2 2 0 0 0-1.328.505l-2.438 2.166A.898.898 0 0 1 5.333 18v-1a1 1 0 0 0-1-1H2a2 2 0 0 1-2-2V2a2 2 0 0 1 2-2z" fill="#00C2CE"/>
            <rect fill="#FFF" x="3.333" y="4" width="22" height="1" rx=".5"/>
            <rect fill="#FFF" x="3.333" y="7.333" width="22" height="1" rx=".5"/>
            <rect fill="#FFF" x="3.333" y="10.667" width="6.667" height="1" rx=".5"/>
        </g>
        <g transform="matrix(-1 0 0 1 64 5.333)">
            <path d="M2 0h24.667a2 2 0 0 1 2 2v12a2 2 0 0 1-2 2H10.594a2 2 0 0 0-1.328.505l-2.438 2.166A.898.898 0 0 1 5.333 18v-1a1 1 0 0 0-1-1H2a2 2 0 0 1-2-2V2a2 2 0 0 1 2-2z" fill="#E38A82"/>
            <rect fill="#FFF" x="3.333" y="4" width="22" height="1" rx=".5"/>
            <rect fill="#FFF" x="3.333" y="7.333" width="22" height="1" rx=".5"/>
            <rect fill="#FFF" x="3.333" y="10.667" width="6.667" height="1" rx=".5"/>
        </g>
    </g>
</svg>
