<svg width="80" height="80" viewBox="0 0 80 80" xmlns="http://www.w3.org/2000/svg" xmlns:xlink="http://www.w3.org/1999/xlink">
    <defs>
        <path d="M0 0c.146 1.976 1.895 3.087 5.245 3.333h33.092a7 7 0 0 1 6.996 6.999v20.001a7 7 0 0 1-7 7H7a7 7 0 0 1-7-7V0z" id="z79ouup83c"/>
        <path d="m.822 7.48 4.356-6.292a1 1 0 0 1 1.644 0l4.356 6.291a.757.757 0 0 1-.622 1.188h-.445a1 1 0 0 0-1 1v16.666a1 1 0 0 1-1 1H3.89a1 1 0 0 1-1-1V9.667a1 1 0 0 0-1-1h-.445a.757.757 0 0 1-.622-1.188z" id="pklwxysute"/>
        <circle id="nc6z8o215a" cx="6.667" cy="6.667" r="6.667"/>
    </defs>
    <g fill="none" fill-rule="evenodd">
        <ellipse fill="#000" opacity=".2" cx="40" cy="76.667" rx="33.333" ry="3.333"/>
        <g transform="rotate(10 -110.16 68.623)">
            <path d="M6 4h28a6 6 0 0 1 6 6v10H0V10a6 6 0 0 1 6-6z" fill="#00273F"/>
            <g transform="translate(13.333)">
                <mask id="3t0ivppg4b" fill="#fff">
                    <use xlink:href="#nc6z8o215a"/>
                </mask>
                <use fill="#FFC757" xlink:href="#nc6z8o215a"/>
                <path d="M8.897 4.828c.191.05.312.235.289.427l-.01.052-.113.423h.354c.217 0 .392.224.392.5 0 .253-.147.462-.339.495l-.053.005H8.8l-.591 2.237c-.096.362-.583.39-.733.071l-.021-.056L6.76 6.73h-.054l-.59 2.237c-.096.362-.584.39-.733.071l-.022-.056L4.67 6.73h-.482c-.216 0-.392-.224-.392-.5 0-.253.148-.462.34-.496l.052-.004h.175l-.124-.408a.392.392 0 0 1 .73-.28l.02.05.194.638h.977l.166-.623a.412.412 0 0 1 .02-.059l-.02.059a.393.393 0 0 1 .26-.274h.004l.011-.004a.39.39 0 0 1 .063-.012l-.074.015a.393.393 0 0 1 .215-.004l.012.003a.394.394 0 0 1 .034.012l-.046-.015a.393.393 0 0 1 .256.214l.019.05.195.638h.976l.166-.623a.392.392 0 0 1 .48-.28zm-3 1.902H5.49l.218.71.188-.71zm2.09 0h-.406l.219.71.187-.71z" fill="#FFF" fill-rule="nonzero" mask="url(#3t0ivppg4b)"/>
                <path d="M6.667 12.222a5.556 5.556 0 1 0 0-11.11 5.556 5.556 0 0 0 0 11.11z" stroke="#FFF" stroke-linecap="round" stroke-linejoin="round" stroke-dasharray="1,3" mask="url(#3t0ivppg4b)"/>
                <circle fill="#000" opacity=".2" mask="url(#3t0ivppg4b)" cx="14.659" cy="-5.041" r="12"/>
            </g>
            <g transform="translate(0 7.333)">
                <mask id="4c4m7sxtzd" fill="#fff">
                    <use xlink:href="#z79ouup83c"/>
                </mask>
                <use fill="#004B79" xlink:href="#z79ouup83c"/>
                <path d="M37.333 18h7.334a2 2 0 0 1 2 2v4a2 2 0 0 1-2 2h-7.334a4 4 0 1 1 0-8z" fill="#000" opacity=".5" mask="url(#4c4m7sxtzd)"/>
            </g>
            <path d="M38.667 24H46a2 2 0 0 1 2 2v4a2 2 0 0 1-2 2h-7.333a4 4 0 1 1 0-8z" fill="#F27A6F"/>
            <circle fill="#FFF" cx="39.333" cy="28" r="2.667"/>
            <path stroke="#FFF" stroke-width="1.5" stroke-linecap="round" stroke-dasharray="2,4" d="M5.334 15.333V42"/>
        </g>
        <g transform="translate(28 6.667)">
            <circle fill="#FFC757" cx="12" cy="12" r="12"/>
            <path d="m12.067 8.667.05.001a.704.704 0 0 1 .21.048l-.078-.026a.711.711 0 0 1 .46.386l.035.09.351 1.148h1.758l.298-1.122a.706.706 0 0 1 1.383.267l-.018.094-.202.76h.637a.706.706 0 0 1 .096 1.406l-.096.006h-1.01l-1.167 4.416c-.172.65-1.05.702-1.318.128l-.04-.101-1.298-4.226-1.109 4.2c-.172.65-1.049.7-1.318.127l-.039-.101-1.365-4.443H7.54a.706.706 0 0 1-.096-1.405l.096-.006h.315L7.63 9.58a.706.706 0 0 1 1.316-.504l.034.09.351 1.148h1.758l.298-1.122a.711.711 0 0 1 .39-.462.72.72 0 0 1 .075-.03l.01-.002.02-.006a.704.704 0 0 1 .053-.013l-.072.019a.709.709 0 0 1 .2-.031h.005zm2.413 3.058h-.952l.512 1.665.44-1.665zm-3.765 0h-.952l.512 1.665.44-1.665z" fill="#FFF" fill-rule="nonzero"/>
            <path d="M12 22c5.523 0 10-4.477 10-10S17.523 2 12 2 2 6.477 2 12s4.477 10 10 10z" stroke="#FFF" stroke-linecap="round" stroke-linejoin="round" stroke-dasharray="1,3"/>
        </g>
        <g transform="translate(64 17.333)">
            <mask id="n5vpnky9kf" fill="#fff">
                <use xlink:href="#pklwxysute"/>
            </mask>
            <use fill="#67EAE1" xlink:href="#pklwxysute"/>
            <path d="m-4.33 23.12 5.492-7.932a1 1 0 0 1 1.644 0l5.492 7.933a.923.923 0 0 1-.759 1.448h-.761a1 1 0 0 0-1 1v20.764a1 1 0 0 1-1 1H-.81a1 1 0 0 1-1-1V25.57a1 1 0 0 0-1-1h-.762a.923.923 0 0 1-.759-1.448z" fill="#000" opacity=".2" mask="url(#n5vpnky9kf)"/>
        </g>
        <path d="m57.67 39.787 5.492-7.933a1 1 0 0 1 1.644 0l5.492 7.933a.923.923 0 0 1-.759 1.449h-.761a1 1 0 0 0-1 1V63a1 1 0 0 1-1 1H61.19a1 1 0 0 1-1-1V42.236a1 1 0 0 0-1-1h-.762a.923.923 0 0 1-.759-1.449z" fill="#FFF"/>
    </g>
</svg>
