<svg width="80" height="80" viewBox="0 0 80 80" xmlns="http://www.w3.org/2000/svg">
    <g fill="none" fill-rule="evenodd">
        <path d="M72.382 73.18c-3.633 1.583-6.377 2.482-8.23 2.695-2.265.26-5.381-.277-9.349-.277-7.332 0-16.45-.157-30.905-.596-1.945-.059-6.019-.736-12.22-2.031a1.27 1.27 0 0 1-1.011-1.244c0-.582.45-1.064 1.032-1.103 6.189-.416 14.375-.624 24.56-.624 10.496 0 22.51.22 36.044.662.574.02 1.03.49 1.03 1.065 0 .63-.373 1.2-.95 1.452z" fill="#000" opacity=".2"/>
        <path d="M6.087 37.393C6.033 39.3 6.44 40.72 7.31 41.65c.839.9 1.824 1.718 2.955 2.453a70.72 70.72 0 0 1 1.624 2.826c-.515-.386-1.03-.626-1.543-.721-1.427-.264-3.553.89-4.52.447-.967-.443.177 1.786 2.313 2.48 1.3.423 2.82.208 4.561-.643.524 1.053.938 2 1.242 2.84.263.728.52 1.483.769 2.261-.907-.45-2.581-1.257-3.47-1.539-1.26-.399-4.072-.88-5.18-.213-1.107.667.246.27 2.882 2.356 2.086 1.65 4.874.508 5.946-.04.336 1.079.658 2.2.967 3.36.135.504.266 1.01.393 1.517-1.24.189-2.485.081-3.736-.32-2.268-.73-3.648-2.086-4.306-1.7-.658.386-.188 1.084 1.997 3.055 1.344 1.212 3.383.968 6.118-.731.445 1.79.837 3.577 1.18 5.31l.152.788.137.738.178 1.008.081.492.743-.128-.11-.659-.088-.507-.131-.716-.146-.77a116.165 116.165 0 0 0-1.324-5.992l.032-.023a8.493 8.493 0 0 1-.038.01 79.641 79.641 0 0 0-.645-2.459c.845-.126 2.585-.563 3.896-2.071 1.798-2.069 1.18-3.68 1.383-4.431.203-.752-.883-.039-2.131 1.125-.956.892-2.592 3.602-3.305 4.822a70.992 70.992 0 0 0-1.537-4.808 15.161 15.161 0 0 0-.552-1.314c.755-.2 1.485-.762 2.189-1.684 1.314-1.721 1.214-5.19-.02-6.122-1.235-.931-.974.073-1.38 1.287-.248.74-.645 2.644-1.193 5.713-.948-1.795-2.194-3.561-3.25-4.974l-.06.206c.438-1.386.457-2.504.056-3.353-.4-.85-1.85-1.994-4.35-3.433zm15.84 22.25c-1.953.848-1.41 2.689-3.248 3.028-1.84.34 1.616 1.107 3.753.455 2.136-.651 5.452-1.036 5.306-2.044-.146-1.008-3.859-2.29-5.811-1.44z" fill="#E38A82"/>
        <path d="M1.3 48.573c.787 1.738 1.775 2.835 2.964 3.29 1.149.442 2.393.745 3.732.91a70.72 70.72 0 0 1 2.698 1.829c-.632-.122-1.2-.112-1.703.028-1.398.388-2.804 2.356-3.866 2.383-1.063.026.942 1.528 3.166 1.215 1.354-.19 2.626-1.05 3.817-2.578.933.717 1.72 1.387 2.361 2.01a63.766 63.766 0 0 1 1.683 1.694c-1.013-.007-2.871.001-3.794.138-1.307.194-4.045.995-4.748 2.08-.703 1.084.339.134 3.622.853 2.598.57 4.604-1.68 5.327-2.643.775.823 1.557 1.69 2.342 2.596.343.395.682.793 1.018 1.192-1.032.714-2.198 1.163-3.498 1.35-2.359.338-4.193-.276-4.615.36-.422.635.306 1.057 3.134 1.87 1.739.5 3.465-.613 5.179-3.34a112.103 112.103 0 0 1 3.387 4.257l.482.641.448.604.601.827.289.406.612-.44-.388-.544-.302-.416-.432-.587-.468-.627a116.186 116.186 0 0 0-3.817-4.806l.019-.035-.03.025a79.64 79.64 0 0 0-1.657-1.927c.704-.483 2.076-1.64 2.593-3.57.709-2.647-.552-3.823-.7-4.588-.146-.765-.81.352-1.421 1.946-.469 1.22-.75 4.373-.857 5.782a70.992 70.992 0 0 0-3.489-3.648 15.161 15.161 0 0 0-1.072-.939c.59-.51 1-1.335 1.229-2.472.426-2.124-1.184-5.197-2.702-5.494-1.518-.296-.843.493-.676 1.762.102.773.58 2.659 1.432 5.657-1.639-1.197-3.533-2.239-5.101-3.046l.036.212c-.214-1.438-.687-2.451-1.42-3.039-.732-.588-2.537-.98-5.415-1.178zm23.99 13.054c-1.383 1.62-.087 3.035-1.592 4.146-1.504 1.111 1.938.287 3.573-1.236 1.635-1.522 4.446-3.322 3.873-4.164-.573-.842-4.472-.365-5.854 1.254z" fill="#00C2CE"/>
        <g transform="translate(16.667 3.333)">
            <path fill="#004B79" d="M0 6h46.667v63.333H0z"/>
            <rect fill="#FFF" x="3.333" y="9.333" width="40" height="56.667" rx="2"/>
            <path d="M43.333 12.484V64a2 2 0 0 1-2 2H5.263a1 1 0 0 1-.817-1.577l37.07-52.516a1 1 0 0 1 1.817.577z" fill="#CFE7F1" opacity=".3"/>
            <rect fill="#67EAE1" x="4.667" y="11.333" width="37.333" height="4" rx="1"/>
            <rect fill="#67EAE1" x="4.667" y="18.667" width="22.667" height="1" rx=".5"/>
            <rect fill="#67EAE1" x="4.667" y="22" width="22.667" height="1" rx=".5"/>
            <rect fill="#67EAE1" x="4.667" y="25.333" width="22.667" height="1" rx=".5"/>
            <rect fill="#67EAE1" x="4.667" y="28.667" width="22.667" height="1" rx=".5"/>
            <rect fill="#CFE7F1" x="14.667" y="34.667" width="22.667" height="1" rx=".5"/>
            <rect fill="#CFE7F1" x="14.667" y="37.333" width="13.333" height="1" rx=".5"/>
            <rect fill="#CFE7F1" x="14.667" y="43.333" width="22.667" height="1" rx=".5"/>
            <rect fill="#CFE7F1" x="14.667" y="46" width="13.333" height="1" rx=".5"/>
            <rect fill="#CFE7F1" x="14.667" y="52" width="22.667" height="1" rx=".5"/>
            <rect fill="#CFE7F1" x="5.333" y="58.667" width="22.667" height="1" rx=".5"/>
            <rect fill="#CFE7F1" x="5.333" y="60.667" width="22.667" height="1" rx=".5"/>
            <rect fill="#CFE7F1" x="14.667" y="54.667" width="13.333" height="1" rx=".5"/>
            <rect fill="#CFE7F1" x="5.333" y="33.333" width="6.667" height="6.667" rx="1"/>
            <rect fill="#CFE7F1" x="5.333" y="42" width="6.667" height="6.667" rx="1"/>
            <rect fill="#CFE7F1" x="5.333" y="50.667" width="6.667" height="6.667" rx="1"/>
            <rect fill="#67EAE1" x="28.667" y="18" width="13.333" height="13.333" rx="1"/>
            <circle fill="#00C2CE" cx="35.333" cy="23.333" r="2.667"/>
            <path d="M35.333 25.333a5.333 5.333 0 0 1 5.334 5.334v.666H30v-.666a5.333 5.333 0 0 1 5.333-5.334zM16.667 2.667H30A3.333 3.333 0 0 1 33.333 6v2.333a1 1 0 0 1-1 1h-18a1 1 0 0 1-1-1V6a3.333 3.333 0 0 1 3.334-3.333z" fill="#00C2CE"/>
            <rect stroke="#00C2CE" stroke-width="2" x="22.333" y="1" width="2" height="3.333" rx="1"/>
        </g>
        <path d="M64.718 72.418c.597 1.152.895 1.834.895 2.047 0 .32-1.477.959-2.878.448-.934-.34-1.276-.91-1.024-1.712zm-10.62.128c1.92-.813 2.88-.813 2.88 0v.68a1 1 0 0 1-1.17.984 7.872 7.872 0 0 0-1.325-.129c-1.003 0-4.798.448-4.798 0 0-.298 1.47-.81 4.413-1.535z" fill="#00204E"/>
        <path d="M64.398 54.827c-.642 1.332-.492 3.55.447 6.652.94 3.103.94 7.09 0 11.963l-3.39-.128c0-2.182-.554-7.3-1.663-15.353zm-7.613-9.34 4.542 4.99c-2.644 4.535-3.753 7.67-3.326 9.403.387 1.576.246 5.455-.423 11.638l-.104.945-.113.979-3.936-.768c.406-5.192.61-8.582.61-10.17v-7.677l2.75-9.34z" fill="#002D6D"/>
        <path d="M48.341 27.32c-2.705-3.198-4.411-4.798-5.117-4.798-1.06 0 .475 1.714 1.215 2.4.74.684-.692.479-1.215.479-.523 0-.524.504 1.215.96 1.16.304 2.226 1.178 3.199 2.622l.703-1.663z" fill="#FFC6B7"/>
        <path d="M46.166 27.576c1.108 3.061 2.302 4.852 3.583 5.373 1.92.781 5.885-.12 5.885 3.583 0 2.468-.736 9.633-2.21 21.493l3.482.751a1 1 0 0 0 1.187-.77c.51-2.45.672-4.753.484-6.908-.214-2.44.17.189 1.15 7.887 3.686-.043 5.755-.213 6.206-.512.677-.448-.498-8.604-.96-11.13-.462-2.527.194-10.267.96-10.267s3.263 2.116 3.263 3.294c0 .7-.866 2.066-2.597 4.096a.995.995 0 0 0 .11 1.407l.01.01.274.225a1 1 0 0 0 1.43-.163c2.818-3.666 4.227-5.78 4.227-6.343 0-.905-4.862-7.324-6.27-7.676-1.407-.352-2.865-1.92-3.646-1.92H52.051c-.58 0-1.859-1.108-3.838-3.326a.996.996 0 0 0-1.6.151l-.447.745z" fill="#CFE7F1"/>
        <path d="M66.605 45.136a3.514 3.514 0 0 1-2.271-.256c-1.082-.507-1.81.93-1.152 1.631.659.7.64 1.282 1.586.991.946-.29 1.828-.412 2.252-.351.424.06.791-.415 1.024-.975.022-.054-.457-.4-1.44-1.04z" fill="#FFC6B7"/>
        <path d="M58.256 47.15c-.061-7.128.323-11.477 1.152-13.05.698-1.32 1.358-2.284 1.98-2.89a.776.776 0 0 0 .2-.786.684.684 0 0 0-.653-.481h-2.348a1 1 0 0 0-.79.388l-.019.023a.79.79 0 0 0-.092.815c.38.823.57 2.098.57 3.827V47.15z" fill="#FFF"/>
        <path d="M58.896 42.929c1.029-4.383 2.074-7.09 3.135-8.125l-.32-1.535 1.371.14-1.541-3.434 1.815 3.582-1.325.352.64 1.663c-.771.371-1.404 1.037-1.897 2-.494.961-1.12 2.747-1.878 5.357zM58.097 29.975l-2.693 1.303 1.19 1.32-1.056.607c1.264 2.42 2.042 5.235 2.335 8.444l-1.695-8.188 1.198-.863-1.503-1.32 2.224-1.303z" fill="#FFF"/>
        <path d="M57.267 27.514c-.826-2.274-.826-3.836 0-4.687 1.24-1.276 2.953-1.24 3.883-.707.21-.015.295.11.257.374.276-.112.542-.12.797-.027 1.605 2.11 1.913 3.854.925 5.234l-2.493 1.922-3.369-2.11z" fill="#002F4C"/>
        <path d="M58.33 29.55c.214.416.435.924.664 1.523.354.448.966-.319 1.997-.82.376-.181-.021-.911.135-1.404.086-.273.27-.526.553-.761.315.155.602-.069.864-.672.391-.905-.358-1.331-.864-.927-.506.404 1.024-2.022-.96-2.783-1.983-.761-.07.084-3.166.512 0 .552-.943 2.437-.32 3.87.223.512.292 1.03.442 1.355.086.188.305.223.656.106z" fill="#FFC6B7"/>
        <path d="m59.024 31.208-.352.526.08.512-.447 2.175.096 6.637c-.015-3.696.252-5.908.8-6.637l.015-2.175.368-.368-.176-.656-.384-.014zM23.339 38.422l2.61 3.258 4.057-5.067-4.058 3.4zM23.339 47.088l2.61 3.259 4.057-5.068-4.058 3.401zM23.339 55.755l2.61 3.259 4.057-5.068-4.058 3.4z" fill="#E38A82"/>
    </g>
</svg>
